<?xml version="1.0" encoding="utf-8"?>
<!-- Generator: Adobe Illustrator 16.0.3, SVG Export Plug-In . SVG Version: 6.00 Build 0)  -->
<!DOCTYPE svg PUBLIC "-//W3C//DTD SVG 1.1//EN" "http://www.w3.org/Graphics/SVG/1.1/DTD/svg11.dtd">
<svg version="1.1" id="Layer_1" xmlns="http://www.w3.org/2000/svg" xmlns:xlink="http://www.w3.org/1999/xlink" x="0px" y="0px"
	 width="595.28px" height="841.89px" viewBox="0 0 595.28 841.89" enable-background="new 0 0 595.28 841.89" xml:space="preserve">
<g>
	<g>
		<path fill="#D3D2D5" d="M391.254,498.031c-91.995,0-166.572-74.576-166.572-166.571c0-91.995,74.577-166.571,166.572-166.571
			c91.994,0,166.571,74.577,166.571,166.571C557.825,423.455,483.248,498.031,391.254,498.031z"/>
		<circle fill="#D3D2D5" cx="391.254" cy="331.46" r="166.571"/>
	</g>
	<path fill="#2A3B8E" d="M170.416,196.542c25.936-3.608,51.056-19.789,76.682-27.707c-11.641-2.577-23.736-3.947-36.153-3.947
		c-30.712,0-59.477,8.321-84.18,22.819C138.633,196.582,154.628,198.74,170.416,196.542z"/>
	<g>
		<path fill="#C40006" d="M367.019,273.161c-17.429,13.008-43.829,18.151-61.723,17.167c-37.6-2.069-105.508-70.463-149.223-78.65
			c-27.281-5.109-53.281,1.404-71.315,12.014c-1.107,0.652-2.086,1.505-2.899,2.5C68.113,243.027,57.6,262.601,51.254,283.97
			c32.873-45.313,77.329-27.063,121.585,5.146c70.154,51.061,139.625,98.73,197.873,73.208c2.734-1.198,4.631-3.765,5.061-6.72
			c1.146-7.883,1.743-15.943,1.743-24.144C377.516,310.949,373.8,291.307,367.019,273.161z"/>
	</g>
	<g>
		<path fill="#6FA9DE" d="M55.901,389.489c-0.538,0.259-0.795,0.897-0.582,1.455c6.353,16.611,15.284,31.946,26.311,45.51
			c0.255,0.313,0.658,0.465,1.057,0.404c39.955-5.998,79.814,30.14,119.313,60.729c0.187,0.145,0.412,0.228,0.647,0.239
			c2.749,0.135,5.515,0.204,8.297,0.204c33.221,0,64.163-9.733,90.147-26.492c-2.984-1.926-5.902-3.946-8.752-6.054
			C171.413,461.379,144.366,346.91,55.901,389.489z"/>
	</g>
	<g>
		<path fill="#2A3B8E" d="M136.462,435.505c-16.137-1.402-41.847-6.578-66.695-15.623c29.46,46.938,81.67,78.149,141.177,78.149
			c4.737,0,9.424-0.208,14.06-0.596c37.13-28.852,74.564-62.152,112.107-60.337c1.598,0.077,3.143-0.62,4.14-1.871
			c11.106-13.93,20.02-29.685,26.232-46.737c0.439-1.204,0.064-2.562-0.917-3.386C323.881,349.283,212.594,442.168,136.462,435.505z
			"/>
	</g>
	<g>
		<path fill="#6FA9DE" d="M253.717,289.752c41.034-29.874,82.251-47.713,114.24-14.007c-12.503-35.233-36.523-65.006-67.539-84.797
			c-2.818-1.799-6.109-2.743-9.452-2.675c-10.816,0.22-22.871,1.505-36.39,3.993c-63.286,11.641-123.598,65.236-173.506,34.903
			C58.117,255.716,44.373,291.98,44.373,331.46c0,8.595,0.661,17.035,1.917,25.279c0.14,0.917,0.693,1.727,1.5,2.185
			C107.631,392.9,180.288,343.199,253.717,289.752z"/>
	</g>
</g>
<path fill="#2C3D8E" d="M118.052,559.449c2.79,2.97,3.96,6.569,3.96,11.069c0,11.25-7.56,18.359-19.619,18.359H75.574v-64.077
	h25.739c12.06,0,19.799,6.84,19.799,17.639c0,6.12-2.61,10.62-7.919,13.59C115.712,557.379,116.702,558.1,118.052,559.449z
	 M100.323,550.72c5.13,0,8.28-2.79,8.28-7.38s-3.15-7.38-8.28-7.38h-12.24v14.76H100.323z M101.133,577.719
	c5.129,0,8.37-3.061,8.37-7.92c0-4.86-3.24-7.83-8.37-7.83h-13.05v15.75H101.133z"/>
<path fill="#2C3D8E" d="M173.104,588.878v-37.349l-12.239,24.299h-8.46l-12.33-24.299v37.349h-12.509v-64.077h12.33l16.739,34.648
	l16.649-34.648h12.33v64.077H173.104z"/>
<path fill="#2C3D8E" d="M191.454,588.878v-64.077h42.208v11.159h-29.699v15.029h25.289v11.16h-25.289v15.569h29.699v11.159H191.454z
	"/>
<path fill="#2C3D8E" d="M261.816,589.418c-7.02,0-12.779-2.52-17.279-7.02c-6.479-6.48-6.3-14.489-6.3-25.56
	c0-11.069-0.18-19.079,6.3-25.559c4.5-4.5,10.26-7.02,17.279-7.02c11.97,0,21.329,6.84,23.579,20.249h-12.689
	c-1.26-5.13-4.5-9.09-10.799-9.09c-3.42,0-6.21,1.26-8.01,3.33c-2.43,2.7-3.15,5.76-3.15,18.089c0,12.33,0.72,15.39,3.15,18.09
	c1.8,2.069,4.59,3.33,8.01,3.33c6.3,0,9.54-3.96,10.799-9.09h12.689C283.146,582.578,273.696,589.418,261.816,589.418z"/>
<path fill="#2C3D8E" d="M315.348,535.96v52.918h-12.51V535.96h-16.739v-11.159h45.989v11.159H315.348z"/>
<path fill="#2C3D8E" d="M335.896,588.878v-64.077h42.207v11.159h-29.698v15.029h25.289v11.16h-25.289v15.569h29.698v11.159H335.896z
	"/>
<path fill="#2C3D8E" d="M379.726,562.125v-11.136h27.72v11.136H379.726z"/>
<path fill="#2C3D8E" d="M438.315,524.801c12.33,0,21.149,8.279,21.149,19.979c0,11.7-8.729,19.979-21.149,19.979h-12.33v24.119
	h-12.509v-64.077H438.315z M437.686,553.51c5.579,0,9.27-3.42,9.27-8.73c0-5.31-3.69-8.819-9.27-8.819h-11.7v17.55H437.686z"/>
<path fill="#2C3D8E" d="M488.381,589.328v-7.65c-18.72-0.989-26.369-10.619-26.369-27.269c0-16.56,8.729-25.199,26.369-26.278
	v-6.391H500.8v6.391c17.729,1.079,26.368,9.719,26.368,26.278c0,16.649-7.559,26.279-26.368,27.269v7.65H488.381z M488.561,538.84
	c-10.35,0.45-14.039,5.58-14.039,16.109c0,10.17,3.869,15.659,14.039,16.289V538.84z M500.709,571.238
	c10.17-0.63,14.04-6.119,14.04-16.289c0-10.529-3.69-15.659-14.04-16.109V571.238z"/>
<g>
	<path fill="#2C3D8E" d="M82.135,618.882v12.933h-2.271v-12.933h-4.121v-2.039h10.514v2.039H82.135z"/>
	<path fill="#2C3D8E" d="M93.514,631.814v-14.972h9.589v2.039h-7.318v4.374h6.224v2.019h-6.224v4.501h7.318v2.039H93.514z"/>
	<path fill="#2C3D8E" d="M119.568,631.814v-12.933h-4.311v4.731c0,6.287-1.514,8.201-4.521,8.201h-0.946v-2.039h0.399
		c1.661,0,2.86-1.053,2.86-6.477v-6.456h8.789v14.972H119.568z"/>
	<path fill="#2C3D8E" d="M130.154,631.814v-14.972h9.588v2.039h-7.317v4.374h6.224v2.019h-6.224v4.501h7.317v2.039H130.154z"/>
	<path fill="#2C3D8E" d="M147.28,631.814v-14.972h2.271v7.107l5.593-7.107h2.796l-5.761,7.065l6.287,7.906h-2.881l-6.035-7.822
		v7.822H147.28z"/>
	<path fill="#2C3D8E" d="M174.911,631.814l-1.051-3.008h-5.909l-1.051,3.008h-2.397l5.488-14.972h1.829l5.467,14.972H174.911z
		 M170.958,620.228l-2.355,6.645h4.647L170.958,620.228z"/>
	<path fill="#2C3D8E" d="M192.663,631.814v-6.54h-6.056v6.54h-2.271v-14.972h2.271v6.413h6.056v-6.413h2.292v14.972H192.663z"/>
	<path fill="#2C3D8E" d="M212.392,631.814l-1.051-3.008h-5.909l-1.051,3.008h-2.397l5.488-14.972h1.83l5.467,14.972H212.392z
		 M208.439,620.228l-2.355,6.645h4.647L208.439,620.228z"/>
	<path fill="#2C3D8E" d="M230.778,631.814v-12.933h-4.311v4.731c0,6.287-1.514,8.201-4.521,8.201H221v-2.039h0.4
		c1.661,0,2.859-1.053,2.859-6.477v-6.456h8.79v14.972H230.778z"/>
	<path fill="#2C3D8E" d="M256.205,631.94c-1.556,0-2.902-0.567-3.932-1.598c-1.472-1.472-1.451-3.134-1.451-6.014
		c0-2.881-0.021-4.542,1.451-6.015c1.03-1.03,2.376-1.598,3.932-1.598c2.754,0,4.815,1.619,5.341,4.604h-2.313
		c-0.357-1.514-1.367-2.564-3.028-2.564c-0.883,0-1.682,0.337-2.208,0.904c-0.736,0.799-0.904,1.66-0.904,4.668
		c0,3.007,0.168,3.868,0.904,4.668c0.526,0.567,1.325,0.903,2.208,0.903c1.661,0,2.691-1.051,3.049-2.564h2.292
		C261.041,630.321,258.917,631.94,256.205,631.94z"/>
	<path fill="#2C3D8E" d="M279.505,624.539c0,2.461-0.021,4.332-1.451,5.804c-1.03,1.051-2.376,1.598-3.953,1.598
		c-1.556,0-2.902-0.547-3.932-1.598c-1.43-1.452-1.451-3.491-1.451-5.72v-0.988c0-2.46,0.189-4.059,1.451-5.32
		c1.03-1.03,2.397-1.598,3.932-1.598c1.556,0,2.923,0.567,3.953,1.598c1.156,1.178,1.451,2.839,1.451,4.963V624.539z
		 M276.331,619.683c-0.589-0.61-1.367-0.926-2.229-0.926c-0.841,0-1.64,0.315-2.229,0.926c-0.841,0.882-0.862,2.354-0.862,4.268
		v1.283c0,1.534,0.063,2.943,0.862,3.742c0.61,0.61,1.367,0.925,2.229,0.925c0.883,0,1.661-0.314,2.229-0.925
		c0.883-0.926,0.883-2.25,0.883-4.795C277.213,621.91,277.171,620.564,276.331,619.683z"/>
	<path fill="#2C3D8E" d="M293.416,631.814h-6.056v-14.972h5.825c2.733,0,4.521,1.599,4.521,4.037c0,1.515-0.694,2.607-2.019,3.26
		c1.472,0.693,2.25,1.767,2.25,3.47C297.937,630.195,296.213,631.814,293.416,631.814z M292.996,618.882h-3.364v4.29h3.364
		c1.514,0,2.439-0.798,2.439-2.144S294.51,618.882,292.996,618.882z M293.185,625.212h-3.554v4.563h3.554
		c1.514,0,2.46-0.885,2.46-2.293C295.645,626.095,294.699,625.212,293.185,625.212z"/>
	<path fill="#2C3D8E" d="M305.698,631.814v-14.972h9.589v2.039h-7.317v4.374h6.224v2.019h-6.224v4.501h7.317v2.039H305.698z"/>
	<path fill="#2C3D8E" d="M328.534,618.882v12.933h-2.271v-12.933h-4.121v-2.039h10.514v2.039H328.534z"/>
	<path fill="#2C3D8E" d="M347.336,631.814l-1.05-3.008h-5.909l-1.052,3.008h-2.396l5.488-14.972h1.829l5.467,14.972H347.336z
		 M343.383,620.228l-2.354,6.645h4.647L343.383,620.228z"/>
	<path fill="#2C3D8E" d="M371.523,631.919v-1.871c-4.395-0.188-6.182-2.375-6.182-6.287c0-3.869,1.956-5.888,6.182-6.097v-1.452
		h2.271v1.452c4.227,0.209,6.183,2.228,6.183,6.097c0,3.912-1.788,6.099-6.183,6.287v1.871H371.523z M371.523,619.618
		c-2.986,0.105-3.911,1.557-3.911,4.248c0,2.649,0.987,4.143,3.911,4.268V619.618z M373.794,628.134
		c2.924-0.125,3.911-1.618,3.911-4.268c0-2.691-0.925-4.143-3.911-4.248V628.134z"/>
	<path fill="#2C3D8E" d="M387.462,631.814v-14.972h9.589v2.039h-7.318v4.374h6.225v2.019h-6.225v4.501h7.318v2.039H387.462z"/>
	<path fill="#2C3D8E" d="M415.585,616.843v12.933h1.766v5.403h-2.229v-3.364h-9.084v3.364h-2.208v-5.403h1.305
		c1.303-2.019,1.828-4.963,1.828-8.517v-4.416H415.585z M409.15,622.226c0,2.86-0.358,5.447-1.472,7.55h5.635v-10.894h-4.163
		V622.226z"/>
	<path fill="#2C3D8E" d="M424.659,631.814v-14.972h9.589v2.039h-7.317v4.374h6.224v2.019h-6.224v4.501h7.317v2.039H424.659z"/>
	<path fill="#2C3D8E" d="M447.43,625.927h-3.405v5.888h-2.271v-14.972h5.677c2.839,0,4.794,1.851,4.794,4.542
		S450.269,625.927,447.43,625.927z M447.283,618.882h-3.259v5.006h3.259c1.64,0,2.67-0.969,2.67-2.503
		C449.953,619.829,448.923,618.882,447.283,618.882z"/>
	<path fill="#2C3D8E" d="M467.396,631.814l-1.051-3.008h-5.908l-1.052,3.008h-2.397l5.489-14.972h1.828l5.468,14.972H467.396z
		 M463.443,620.228l-2.355,6.645h4.647L463.443,620.228z"/>
	<path fill="#2C3D8E" d="M486.979,635.179v-3.364h-10.156v-14.972h2.271v12.933h6.056v-12.933h2.271v12.933h1.767v5.403H486.979z"/>
	<path fill="#2C3D8E" d="M505.263,631.814v-10.871l-6.707,10.871h-2.062v-14.972h2.271v10.851l6.688-10.851h2.081v14.972H505.263z"
		/>
	<path fill="#2C3D8E" d="M524.607,631.814v-10.871l-6.709,10.871h-2.06v-14.972h2.271v10.851l6.686-10.851h2.082v14.972H524.607z"/>
</g>
</svg>
