<?xml version="1.0" encoding="UTF-8" standalone="no"?>
<!-- Created with Inkscape (http://www.inkscape.org/) -->

<svg
   xmlns:dc="http://purl.org/dc/elements/1.1/"
   xmlns:cc="http://creativecommons.org/ns#"
   xmlns:rdf="http://www.w3.org/1999/02/22-rdf-syntax-ns#"
   xmlns:svg="http://www.w3.org/2000/svg"
   xmlns="http://www.w3.org/2000/svg"
   version="1.1"
   width="400"
   height="165"
   viewBox="0 0 400 165"
   id="svg2"
   xml:space="preserve"><metadata
     id="metadata8"><rdf:RDF><cc:Work
         rdf:about=""><dc:format>image/svg+xml</dc:format><dc:type
           rdf:resource="http://purl.org/dc/dcmitype/StillImage" /><dc:title></dc:title></cc:Work></rdf:RDF></metadata><defs
     id="defs6" /><path
     d="m 370.44474,113.83344 c -1.69753,0.13617 -2.98443,1.63407 -2.99884,3.28918 -0.3179,4.94037 -0.0261,9.91314 -0.13599,14.83944 0.0594,2.37485 -0.19722,4.82742 0.36023,7.12707 0.60517,1.66667 2.57199,2.64674 4.28304,2.20141 7.12879,-0.88192 14.22785,-1.75473 21.36295,-2.60773 1.00232,-0.0932 2.07848,-0.35743 2.81152,-1.14577 1.22387,-1.07571 0.99963,-2.91798 1.123,-4.38563 0.017,-4.92422 -0.0333,-9.84737 0.017,-14.77404 -0.0504,-1.77012 0.0972,-3.58744 -0.41875,-5.29248 -0.56375,-1.44547 -2.17034,-2.23552 -3.66436,-2.10261 -7.57997,0.98152 -15.15993,1.87046 -22.73991,2.85116 z m -260.19723,-25.19436 0,0 c -0.95368,0.0894 -1.97311,0.37183 -2.70617,1.05248 -0.75466,0.81437 -1.1383,1.97978 -1.01851,3.09917 -0.037,5.90394 0.0198,11.81554 -0.0243,17.70435 -2.20996,0.39571 -4.42983,0.65678 -6.666814,0.83726 -0.0306,-4.87075 0,-9.74113 0,-14.59988 -0.0504,-1.65405 0.13149,-3.45453 -0.778976,-4.94783 -0.996013,-1.30752 -2.717873,-1.56256 -4.262324,-1.23052 -6.941654,0.83373 -13.896277,1.7424 -20.854142,2.54271 -1.287879,0.16535 -2.761821,0.20398 -3.70182,1.23052 -1.216379,1.07535 -1.076074,2.89341 -1.140102,4.36733 0.03415,20.01267 0.03415,40.02686 0,60.04341 0.08339,1.70331 -0.116442,3.54768 0.862912,5.06702 0.605802,0.50938 1.287882,1.09157 2.119458,1.18479 1.859552,0.0738 3.688398,-0.27333 5.537056,-0.48897 5.945375,-0.71763 11.910195,-1.49295 17.870965,-2.17047 1.28149,-0.11855 2.706167,-0.36937 3.491451,-1.46763 0.939282,-1.12041 0.778982,-2.7284 0.855522,-4.07465 0,-5.92402 -0.0306,-11.83912 0,-17.73569 2.223474,-0.27538 4.456854,-0.54032 6.691134,-0.81717 0.0198,5.87999 -0.037,11.71425 0,17.53624 0.0396,1.12742 -0.0837,2.4765 0.79878,3.34187 0.8114,1.3044 2.55128,1.44757 3.94173,1.25938 7.07836,-0.88543 14.14951,-1.74836 21.20176,-2.61092 1.20314,-0.14176 2.53776,-0.26383 3.48425,-1.07573 0.90505,-0.81266 1.16352,-2.09909 1.07977,-3.24236 -0.0136,-21.01173 0,-42.0168 -0.0136,-63.00297 0.0532,-1.35785 -0.0504,-3.01191 -1.2932,-3.85617 -1.19142,-1.00187 -2.84574,-0.60328 -4.26412,-0.53223 -7.05855,0.87948 -14.16033,1.72375 -21.21076,2.58666 z m 74.88111,-9.14523 0,0 c -1.34992,0.23461 -2.00193,1.58372 -2.67105,2.65944 -3.87868,7.06691 -7.78078,14.11413 -11.7153,21.16447 -0.18102,-5.93106 0.0405,-11.87507 -0.0973,-17.80424 0.0802,-1.54121 -0.89876,-3.22336 -2.4567,-3.64021 -2.13343,-0.23568 -4.27764,0.20505 -6.37683,0.44424 -5.76445,0.72719 -11.49469,1.40432 -17.23932,2.11738 -1.09687,0.12239 -2.35764,0.49107 -2.99614,1.49537 -0.57816,0.76935 -0.66821,1.7976 -0.62498,2.72986 0.0198,19.01854 0.0198,38.05121 0,57.09092 0.0198,2.58486 -0.11348,5.20286 0.12967,7.78556 0.14139,1.2823 1.25447,2.2676 2.47202,2.61513 2.64674,0.14498 5.24212,-0.44182 7.88436,-0.71938 5.3619,-0.65784 10.74272,-1.30723 16.10551,-1.9886 1.36344,0 2.68456,-0.79329 3.33026,-1.99985 3.99126,-7.23191 7.94739,-14.46444 11.97557,-21.6995 0.0909,5.46457 -0.0225,10.94209 0.0405,16.39252 0.0504,1.20134 -0.0837,2.59901 0.78528,3.53297 0.6457,1.14046 2.1073,1.56184 3.33836,1.34661 3.51937,-0.30007 7.02433,-0.8323 10.5581,-1.2597 4.10923,-0.5379 8.2644,-0.9337 12.39704,-1.56508 1.51563,-0.20685 2.64943,-1.69557 2.63501,-3.2111 0.0144,-21.35369 0,-42.67431 0.0144,-63.98756 0.0296,-1.32166 -0.0837,-3.0102 -1.39135,-3.7373 -1.21035,-0.95612 -2.83586,-0.65425 -4.23353,-0.51179 -7.27467,1.00187 -14.59797,1.74483 -21.86365,2.74984 z m 73.09351,-9.02579 0,0 c -1.87135,0 -4.0741,0.95278 -4.26232,3.02945 -0.0783,13.88215 0.0828,27.75987 -0.0783,41.66641 -2.2721,0.34473 -4.54599,0.55476 -6.81358,0.86003 -0.037,-12.96969 0,-25.97883 0,-38.98059 0.0711,-1.44934 -0.17291,-3.33421 -1.6084,-4.1303 -1.09688,-0.79699 -2.46662,-0.52863 -3.72739,-0.44487 -6.30029,0.84021 -12.61137,1.56425 -18.92786,2.35675 -1.68134,0.26116 -3.51036,0.1675 -5.02779,1.09831 -0.95099,0.90767 -1.38866,2.19798 -1.25178,3.4774 0.0442,21.01489 0,41.99431 0,63.01135 0.091,1.02088 -0.0837,2.23347 0.6493,3.10341 0.60248,0.64724 1.37425,1.32445 2.32613,1.39514 1.97672,0.0225 3.94624,-0.34266 5.90493,-0.5579 6.31289,-0.7915 12.62939,-1.54535 18.92786,-2.35341 3.19337,-0.30961 6.39304,-0.86536 9.60622,-1.04546 0.0333,3.18318 -0.13328,6.38367 0.10986,9.5983 0.25846,1.85 2.35856,3.05764 4.13716,2.71742 2.67194,-0.25892 5.34929,-0.68244 8.01043,-0.98495 2.99344,-0.41687 5.98868,-0.60616 8.9371,-1.16648 1.48231,-0.37012 2.12711,-1.98762 2.58459,-3.2881 3.7292,-10.89006 7.42418,-21.78568 11.2047,-32.68555 0.4881,-1.32624 0.8123,-3.05872 -0.12968,-4.26006 -0.86902,-1.49681 -2.83314,-1.6175 -4.32626,-1.69376 -0.0144,-12.61489 -0.0144,-25.26029 0,-37.90561 -0.0513,-1.67233 0.0261,-3.67968 -1.449,-4.82607 -1.24366,-0.9627 -2.82863,-0.634 -4.28934,-0.49261 -6.83431,0.8114 -13.66411,1.68404 -20.50653,2.50175 z m 54.49076,-6.67582 0,0 c -1.69575,-0.0244 -2.95652,1.33643 -3.40859,2.87637 -7.59799,22.24902 -15.19867,44.48325 -22.81466,66.73676 -0.41876,1.32095 -0.19452,2.94509 0.85553,3.91534 0.98611,1.11868 2.61431,1.11868 3.99126,0.96208 8.15542,-1.07716 16.37028,-1.97061 24.5257,-3.07378 1.36524,-0.17309 2.18384,-1.47295 2.5954,-2.66619 0.50072,-1.93897 0.89515,-3.87408 1.34003,-5.80641 3.89579,-0.62939 7.8105,-1.08525 11.73963,-1.49582 0.52772,1.98231 0.91946,4.01666 1.75787,5.92502 0.93929,1.37721 2.76291,1.79516 4.30736,1.42297 6.36962,-0.83832 12.75276,-1.5594 19.10166,-2.358 1.97582,-0.25676 3.97234,-0.37286 5.91845,-0.78899 1.68133,-0.56006 2.73048,-2.59163 2.21536,-4.29844 -0.45028,-1.67124 -1.13289,-3.28838 -1.72096,-4.91964 -6.87843,-18.8659 -13.78659,-37.767 -20.69024,-56.6402 -0.31159,-0.86272 -0.652,-1.77319 -1.46791,-2.26309 -1.1599,-0.91046 -2.73228,-0.73035 -4.0651,-0.49621 -8.04915,1.00412 -16.11993,1.97131 -24.18079,2.96823 z m 56.08474,-6.95047 0,0 c -1.41837,0.0451 -2.92231,0.60157 -3.70848,1.84433 -0.92306,2.21806 -0.22064,4.63606 -0.0901,6.90365 1.23106,13.08479 2.49814,26.1467 3.64364,39.23779 0.10449,1.16901 0.27827,2.40268 0.90326,3.45552 1.08067,1.39487 3.03216,1.46872 4.65406,1.25241 5.37721,-0.71596 10.74993,-1.34562 16.12713,-1.9742 1.43639,-0.20866 2.95472,-0.38031 4.2119,-1.12642 1.09328,-1.00186 1.15271,-2.60179 1.31391,-4.00891 0.82942,-9.61161 1.76958,-19.24935 2.64583,-28.85638 0.4773,-5.18449 0.83751,-10.35998 1.50122,-15.51745 l 0,-1.6336 c -0.57275,-1.07077 -1.19143,-2.40268 -2.48462,-2.67735 -2.62783,-0.23594 -5.24933,0.22872 -7.85105,0.55293 -6.96217,0.84743 -13.91176,1.72456 -20.86675,2.54768 z M 3.6381028,25.97435 l 0,0 C 2.5377331,26.090528 1.2878624,26.46425 0.63179939,27.47107 -0.02673473,28.286072 0.0773919,29.409964 0.0267357,30.388872 0.0133678,51.07641 0.050305,71.72793 0,92.39853 c 0.11010721,1.32796 -0.2244353,2.79488 0.61877739,3.93813 0.39821631,0.76935 1.23017551,1.09931 2.00232911,1.33256 2.6481978,0.13894 5.2496031,-0.42498 7.8640475,-0.70353 5.286526,-0.60688 10.573051,-1.32731 15.823013,-1.88728 0.978994,-0.1675 2.065963,-0.18759 2.821259,-0.93225 1.510499,-0.93929 1.376496,-2.93842 1.434223,-4.50557 -0.04368,-13.08759 -0.04368,-26.20228 -0.03026,-39.30714 2.240129,-0.25756 4.467561,-0.53493 6.683826,-0.8177 0.05656,13.23094 -0.05313,26.49755 0.05656,39.73184 -0.167054,1.81416 1.070129,3.6603 2.919417,3.89138 1.758603,0.0679 3.491091,-0.25746 5.196201,-0.46955 5.957708,-0.69549 11.932348,-1.46168 17.884113,-2.16349 0.849133,-0.11788 1.697996,-0.14246 2.490934,-0.49251 1.180176,-0.44217 1.989955,-1.65613 1.978698,-2.91798 -0.01225,-21.64708 0.01126,-43.32073 -0.01225,-64.97186 0.210639,-2.054164 -1.88315,-3.938124 -3.92831,-3.47614 C 60.57463,18.879783 57.386127,19.447133 54.1589,19.769531 37.326911,21.871425 20.48654,23.915683 3.63811,25.97435 z M 104.63705,13.589024 l 0,0 c -7.961799,0.798792 -16.063274,3.337456 -22.094203,8.795717 -5.199982,4.91703 -8.101841,12.107059 -7.941724,19.242149 -0.160117,4.36589 0.682441,8.91549 3.167071,12.60326 1.584349,2.58819 4.115447,4.45595 6.91734,5.61226 -4.734568,7.82671 -9.485354,15.63904 -14.269914,23.45377 -0.826349,1.40009 -0.973049,3.26703 0.110137,4.54961 0.759078,1.25582 2.4505,1.4951 3.811504,1.3076 8.218281,-1.02969 16.452865,-2.05795 24.689337,-3.03234 1.347232,-0.1214 2.868272,-0.49432 3.504062,-1.82047 1.55796,-2.75301 2.81513,-5.66369 4.33976,-8.49377 0.0324,1.89333 -0.0432,3.77432 0.15671,5.64819 0.0568,1.63541 1.51112,3.02919 3.0898,3.17202 0.95279,0.021 1.88217,-0.0943 2.80883,-0.21569 6.56955,-0.8583 13.16971,-1.60055 19.76988,-2.42375 1.16621,-0.16282 2.46752,-0.29862 3.39419,-1.14784 0.75196,-0.85129 1.03564,-2.06425 0.93927,-3.19129 -0.0136,-19.0326 -0.0136,-38.07393 0,-57.088232 -0.0298,-2.584592 0.12338,-5.1953 -0.12698,-7.81051 -0.20082,-1.519236 -1.70924,-2.659337 -3.23389,-2.610708 -2.25319,0.02161 -4.48386,0.462885 -6.72983,0.720444 -7.4566,0.910461 -14.85556,1.822722 -22.30135,2.72958 z m 88.18862,-10.9435381 1.41116,0 c 1.60839,0.380033 3.01956,1.816418 3.01956,3.529274 0.0837,5.2448291 -0.0837,10.4977641 0.0136,15.7651071 -0.0207,2.218064 0.14769,4.482952 -0.25035,6.67221 -0.22154,1.67954 -2.03075,2.357653 -3.50406,2.562073 -3.07359,0.4899 -6.1625,0.72765 -9.25591,1.16533 0,10.78593 0,21.54035 0,32.31638 -0.0269,2.94032 0.1486,5.87883 -0.12696,8.79303 -0.27738,1.73086 -2.0857,2.68303 -3.7184,2.72841 -4.89812,0.56671 -9.80614,1.21432 -14.70786,1.80561 -3.15644,0.31241 -6.29847,1.0631 -9.46573,0.7191 -0.88164,-0.14563 -1.52734,-0.86607 -1.96591,-1.59219 -0.61148,-1.43908 -0.47459,-3.05216 -0.55115,-4.56509 0.0432,-12.13497 0.0432,-24.29065 0.0162,-36.44725 -2.63771,0.28639 -5.25292,0.67903 -7.88795,0.9573 -1.36344,0.006 -3.07269,0.18731 -3.96064,-1.07077 -1.12749,-1.02303 -0.95367,-2.65843 -0.95367,-4.01197 0.0603,-6.227334 -0.0297,-12.476278 0.0333,-18.681999 0.0775,-1.123892 -0.10987,-2.500841 0.7997,-3.3383561 1.21755,-1.430081 3.23929,-1.323816 4.88731,-1.610192 15.41119,-1.863248 30.80165,-3.681467 46.16783,-5.696007"
     id="path14"
     style="fill:#ed1c24;fill-opacity:1;fill-rule:nonzero;stroke:none" /></svg>