<?xml version="1.0" encoding="UTF-8" standalone="no"?>
<!-- Created with Inkscape (http://www.inkscape.org/) -->

<svg
   xmlns:dc="http://purl.org/dc/elements/1.1/"
   xmlns:cc="http://creativecommons.org/ns#"
   xmlns:rdf="http://www.w3.org/1999/02/22-rdf-syntax-ns#"
   xmlns:svg="http://www.w3.org/2000/svg"
   xmlns="http://www.w3.org/2000/svg"
   xmlns:xlink="http://www.w3.org/1999/xlink"
   version="1.0"
   width="196"
   height="45"
   id="svg2">
  <defs
     id="defs4">
    <linearGradient
       id="linearGradient3598">
      <stop
         id="stop3600"
         style="stop-color:#006ede;stop-opacity:1"
         offset="0" />
      <stop
         id="stop3602"
         style="stop-color:#0035a2;stop-opacity:1"
         offset="1" />
    </linearGradient>
    <linearGradient
       x1="124.70706"
       y1="3.5398293"
       x2="124.70706"
       y2="48.457726"
       id="linearGradient2828"
       xlink:href="#linearGradient3598"
       gradientUnits="userSpaceOnUse" />
  </defs>
  <metadata
     id="metadata7">
    <rdf:RDF>
      <cc:Work
         rdf:about="">
        <dc:format>image/svg+xml</dc:format>
        <dc:type
           rdf:resource="http://purl.org/dc/dcmitype/StillImage" />
        <dc:title></dc:title>
      </cc:Work>
    </rdf:RDF>
  </metadata>
  <g
     transform="translate(-3.5,-3.5650549)"
     id="layer2">
    <rect
       width="203"
       height="52"
       x="0"
       y="0"
       id="rect2999"
       style="fill:#ffffff;fill-opacity:1;stroke:none" />
    <path
       d="m -31.077394,25.309875 0,-21.9999998 73,0 73.662914,0 -0.007,44.5997798 -73.012514,-0.59978 -73.64387,0 0,-22 z m 18,7.59978 c 0,-3.47744 0.29394,-4.00178 2.25,-4.01365 6.5592302,-0.03981 10.67462024,-4.42421 8.7944902,-9.36935 -1.35583,-3.56608 -4.27657,-4.75811 -10.8205402,-4.41613 l -5.72395,0.29913 -0.31501,6.5 c -0.17326,3.575 -0.03319,8.4125 0.31127,10.75 0.54037,3.66699 0.96083,4.25 3.06501,4.25 2.17852,0 2.43873,-0.4268 2.43873,-4 z m 0,-11 c 0,-1.73678 0.51067,-2.07409 2.75,-1.81642 1.6371502,0.18837 2.7500002,0.92343 2.7500002,1.81642 0,0.89299 -1.11285,1.62805 -2.7500002,1.81642 -2.23933,0.25767 -2.75,-0.07964 -2.75,-1.81642 z m 27.40475,13.86144 c 2.68288,-1.2224 5.59525,-6.32061 5.59525,-9.79469 0,-3.36803 -2.63962,-8.80351 -4.8496,-9.98626 -2.59046,-1.38637 -7.7103398,-1.38637 -10.3007998,0 -1.1104,0.59427 -2.68572,2.67639 -3.50071,4.62693 -4.0508,9.69492 4.14887,19.21232 13.0558598,15.15402 z m -7.4707998,-6.53516 c -1.88774,-4.96514 0.88883,-11.09899 4.4120998,-9.74698 2.10098,0.80622 3.2026,6.92113 1.80104,9.99723 -1.51025,3.31462 -4.9098398,3.1777 -6.2131398,-0.25025 z m 45.6210598,7.19461 c 6.03517,0 8.00392,-4.49671 8.00392,-7.42554 l -4.49072,-0.04237 c -0.10947,1.88586 -0.86552,3.57494 -3.62017,3.57494 -2.81778,0 -3.88183,-3.15968 -3.88183,-6.95537 0,-3.8588 0.95597,-6.67211 3.90663,-6.67211 3.01352,0 3.58515,2.95887 3.58515,4.0484 l 4.42558,-0.07374 c 0,-2.97567 -2.28085,-7.9751 -8.34922,-7.9751 -6.06837,0 -9.13435,3.54331 -9.13435,11.15365 0,7.61034 3.45726,10.36724 9.55501,10.36724 z m 23.76574,-12.15731 -0.03503,12.14378 5.21428,-0.0074 0.06258,-21.18433 -4.36302,-0.04488 -7.83091,12.06779 -0.0095,-12.01692 -4.85411,-0.006 -0.09095,21.20706 4.06281,-0.0054 7.84381,-12.15379 z m 18.76591,3.77425 2.78463,2.1e-4 -0.05942,8.32421 5.188134,0.03267 0,-21.17925 -6.277494,0 c -7.10381,0 -10.95042,1.62166 -10.95042,6.7531 0,2.11351 0.97471,4.43078 4.36494,5.38705 l -5.19682,9.04672 5.84093,-0.0076 4.30552,-8.3571 z m -4.09174,-6.40052 c 0,-2.64354 2.47268,-2.26269 6.63643,-2.26269 l -0.04187,4.52538 c -4.15849,0 -6.59456,0.38085 -6.59456,-2.26269 z m 28.005084,4.26269 0,-22.5997798 23,0 23,0 0,22.5997798 0,22 -23,0 -23,0 0,-22 z m 28,-7.77104 -8.5,4.30511 -0.002,20.46593 8.50176,0 0,-24.77104 z m 0,-1.63009 0,-9.5842898 -17,8.4311298 -0.046,9.68056 17.04601,-8.5274 z"
       transform="translate(-198.5,-334.934)"
       id="path2448"
       style="fill:none;stroke:#000000;stroke-width:0.1;stroke-opacity:1" />
    <path
       d="m -73.503801,-12.318307 0,-22 73.00000026,0 73.66290974,0 -0.0065,44.59978 -73.01250974,-0.5997801 -73.64387026,0 0,-21.9999999 z m 18,7.5997799 c 0,-3.47744 0.29394,-4.00178 2.25,-4.01365 6.55923,-0.03981 10.67462,-4.4242099 8.79449,-9.3693499 -1.35583,-3.56608 -4.27657,-4.75811 -10.82054,-4.41613 l -5.72395,0.29913 -0.31501,6.5 c -0.17326,3.575 -0.03319,8.4124999 0.31127,10.7499999 0.54037,3.66699 0.96083,4.24999996 3.06501,4.24999996 2.17852,0 2.43873,-0.42679996 2.43873,-3.99999996 z m 0,-10.9999999 c 0,-1.73678 0.51067,-2.07409 2.75,-1.81642 1.63715,0.18837 2.75,0.92343 2.75,1.81642 0,0.89299 -1.11285,1.62805 -2.75,1.81642 -2.23933,0.25767 -2.75,-0.07964 -2.75,-1.81642 z m 27.40475,13.8614399 c 2.68288,-1.2224 5.59525,-6.32061 5.59525,-9.7946899 0,-3.36803 -2.63962,-8.80351 -4.8496,-9.98626 -2.59046,-1.38637 -7.71034,-1.38637 -10.3008,0 -1.1104,0.59427 -2.68572,2.67639 -3.50071,4.62693 -4.0508,9.6949199 4.14887,19.2123199 13.05586,15.1540199 z m -7.4708,-6.53516 c -1.88774,-4.9651399 0.88883,-11.0989899 4.4121,-9.7469799 2.10098,0.80622 3.2026,6.92113 1.80104,9.9972299 -1.51025,3.31462 -4.90984,3.1777 -6.21314,-0.25025 z m 45.62106,7.19461 c 6.03517,0 8.00392,-4.49671 8.00392,-7.42554 l -4.49072,-0.04237 c -0.10947,1.88586 -0.86552,3.57494 -3.6201697,3.57494 -2.81778,0 -3.88183,-3.15968 -3.88183,-6.9553699 0,-3.8588 0.95597,-6.67211 3.90663,-6.67211 3.0135197,0 3.5851497,2.95887 3.5851497,4.0484 l 4.42558,-0.07374 c 0,-2.97567 -2.28085,-7.9751 -8.3492197,-7.9751 -6.06837,0 -9.13435004,3.54331 -9.13435004,11.15365 0,7.6103399 3.45726004,10.3672399 9.55500974,10.3672399 z m 23.76574,-12.1573099 -0.03503,12.1437799 5.21428,-0.00736 0.06258,-21.1843299 -4.36302,-0.04488 -7.83091,12.06779 -0.0095,-12.01692 -4.85411,-0.006 -0.09095,21.2070599 4.06281,-0.00536 7.84381,-12.1537899 z m 18.76591,3.7742499 2.78463,2.1e-4 -0.05942,8.32421 5.18813,0.03267 0,-21.1792499 -6.27749,0 c -7.10381,0 -10.95042,1.62166 -10.95042,6.7531 0,2.11351 0.97471,4.43078 4.36494,5.38705 l -5.19682,9.0467199 5.84093,-0.00761 4.30552,-8.3571 z m -4.09174,-6.4005199 c 0,-2.64354 2.47268,-2.26269 6.63643,-2.26269 l -0.04187,4.52538 c -4.15849,0 -6.59456,0.38085 -6.59456,-2.26269 z m 28.00508,4.26269 0,-22.59978 23,0 23.000001,0 0,22.59978 0,22 -23.000001,0 -23,0 0,-22 z m 28.000001,-7.77104 -8.500001,4.30511 -0.0018,20.4659299 8.501761,0 0,-24.7710399 z m 0,-1.63009 0,-9.58429 -17.000001,8.43113 -0.04601,9.68056 17.046011,-8.5274 z"
       transform="translate(-198.5,-334.934)"
       id="path2450"
       style="fill:none;stroke:#000000;stroke-width:0.1;stroke-opacity:1" />
    <path
       d="m 153.5,3.5650549 46,0 0,45.0000001 -46,0 z M 181.5,18.371014 173,22.676123 173,43 l 8.49976,0 z m 0,-1.631014 0,-9.5833665 -17,8.4311295 0,9.680561 z"
       id="path2513"
       style="fill:#e20001;fill-opacity:1;stroke:none" />
    <path
       d="m 3.5,3.5650549 146.66291,0 -0.007,44.8926711 L 3.5,48.565054 z M 21.544643,28.722411 c 7.729081,0 10.999847,-1.282758 10.999847,-6.597287 0,-5.314528 -3.959008,-6.343735 -11.123178,-6.343735 l -4.974883,-0.0054 -0.0037,20.824011 5.073938,0 0.02802,-7.877586 z m 0.0045,-9.155706 c 2.626252,0 6.008928,-0.445176 6.008928,2.44142 0,2.819799 -3.469936,2.686955 -6.008928,2.686955 z M 87.05501,36.6 c 6.03517,0 8.00392,-4.433766 8.00392,-7.362597 l -4.49072,-0.04237 c -0.10947,1.885859 -0.86552,3.57494 -3.62017,3.57494 -2.81778,0 -3.88183,-3.15968 -3.88183,-6.95537 0,-3.858801 0.95597,-6.67211 3.90663,-6.67211 3.01352,0 3.58515,2.958869 3.58515,4.048399 l 4.42558,-0.07374 c 0,-2.975671 -2.28085,-7.975101 -8.34922,-7.975101 -6.06837,0 -9.13435,3.543311 -9.13435,11.15365 0,7.610341 3.45726,10.304297 9.55501,10.304299 z m 23.76574,-12.094367 -0.035,12.094367 5.21428,0 0.0626,-21.142316 -4.36302,-0.04488 -7.83091,12.06779 -0.009,-12.01692 -4.85411,-0.006 L 98.91464,36.6 l 4.06281,0 7.84381,-12.094457 z m 18.76591,3.774251 2.78463,2.09e-4 -0.0594,8.319907 5.18813,0 0,-21.142276 -6.27749,0 c -7.10381,0 -10.95042,1.621659 -10.95042,6.7531 0,2.113509 0.97471,4.430779 4.36494,5.387049 L 119.44023,36.6 l 5.84093,0 4.30552,-8.320105 z m -4.09174,-6.40052 c 0,-2.643541 2.47268,-2.26269 6.63643,-2.26269 l -0.0419,4.525379 c -4.15849,0 -6.59456,0.38085 -6.59456,-2.262689 z M 66.456449,36.6 c 6.03517,0 8.00392,-4.434111 8.00392,-7.362942 l -4.49072,-0.04237 c -0.10947,1.88586 -0.86552,3.574941 -3.62017,3.574941 -2.81778,0 -3.88183,-3.159681 -3.88183,-6.95537 0,-3.858801 0.95597,-6.67211 3.90663,-6.67211 3.01352,0 3.58515,2.958869 3.58515,4.048399 l 4.42558,-0.07374 c 0,-2.97567 -2.28085,-7.9751 -8.34922,-7.9751 -6.06837,0 -9.13435,3.543309 -9.13435,11.153649 0,7.61034 3.45726,10.304642 9.55501,10.304643 z m -22.004661,0 c 6.378541,0 9.533315,-4.660999 9.533315,-10.658778 0,-6.888901 -4.444718,-10.732871 -9.47018,-10.732871 -5.025462,0 -9.343911,3.343346 -9.343911,10.543467 0,6.755691 2.96535,10.848182 9.280776,10.848182 z M 40.4375,25.758125 c 0,-3.507946 1.196651,-6.651785 4.0625,-6.651785 2.858538,0 4.00535,2.85219 4.00535,6.628176 0,3.954449 -0.612195,6.89861 -3.960707,6.89861 -3.393151,0 -4.107143,-3.322457 -4.107143,-6.875001 z"
       id="path2527"
       style="fill:url(#linearGradient2828);fill-opacity:1;stroke:none" />
  </g>
</svg>
