<?xml version="1.0" encoding="UTF-8" standalone="no"?>
<!-- Created with Inkscape (http://www.inkscape.org/) -->

<svg
   xmlns:dc="http://purl.org/dc/elements/1.1/"
   xmlns:cc="http://creativecommons.org/ns#"
   xmlns:rdf="http://www.w3.org/1999/02/22-rdf-syntax-ns#"
   xmlns:svg="http://www.w3.org/2000/svg"
   xmlns="http://www.w3.org/2000/svg"
   xmlns:sodipodi="http://sodipodi.sourceforge.net/DTD/sodipodi-0.dtd"
   xmlns:inkscape="http://www.inkscape.org/namespaces/inkscape"
   version="1.1"
   id="svg2"
   width="309.33334"
   height="72"
   viewBox="0 0 309.33334 72"
   sodipodi:docname="Спорт-1.svg"
   inkscape:version="0.92.3 (2405546, 2018-03-11)">
  <metadata
     id="metadata8">
    <rdf:RDF>
      <cc:Work
         rdf:about="">
        <dc:format>image/svg+xml</dc:format>
        <dc:type
           rdf:resource="http://purl.org/dc/dcmitype/StillImage" />
        <dc:title></dc:title>
      </cc:Work>
    </rdf:RDF>
  </metadata>
  <defs
     id="defs6" />
  <sodipodi:namedview
     pagecolor="#ffffff"
     bordercolor="#666666"
     borderopacity="1"
     objecttolerance="10"
     gridtolerance="10"
     guidetolerance="10"
     inkscape:pageopacity="0"
     inkscape:pageshadow="2"
     inkscape:window-width="1920"
     inkscape:window-height="1015"
     id="namedview4"
     showgrid="false"
     inkscape:zoom="1.5226293"
     inkscape:cx="154.66667"
     inkscape:cy="36"
     inkscape:window-x="0"
     inkscape:window-y="0"
     inkscape:window-maximized="1"
     inkscape:current-layer="svg2" />
  <g
     id="g12">
    <path
       style="fill:#063ab6;stroke-width:1.33333337"
       d="M 2.6666667,36 V 1.3333333 h 114.0000033 114 V 36 70.666667 h -114 H 2.6666667 Z M 61.097567,54.013545 C 63.586499,51.524613 59.267197,48.006181 53.968825,48.206591 45.490437,48.527283 44.000001,46.702277 44.000001,36 c 0,-10.927284 1.457731,-12.633357 9.974201,-11.673428 6.181422,0.696736 9.638462,-2.580576 6.272571,-5.946467 -1.988341,-1.988341 -14.282049,-1.835293 -18.133135,0.225746 -10.486784,5.612356 -9.896691,30.623621 0.836452,35.453252 3.849539,1.73219 16.401238,1.700681 18.147477,-0.04556 z m 63.948823,0.553358 c 11.12275,-3.87741 12.97464,-27.350458 2.75594,-34.931938 -7.32449,-5.434202 -19.52651,-2.169322 -22.36923,5.985311 -6.369689,18.272099 4.44564,34.234097 19.61329,28.946627 z M 113.89495,45.002341 C 109.88386,32.364508 116.81968,18.68634 123.73334,25.6 c 2.10737,2.107377 2.10737,18.692623 0,20.8 -2.80374,2.80374 -8.77411,1.955579 -9.83839,-1.397659 z M 77.333335,39.333333 V 24 h 5.333333 5.333334 v 15.333333 15.333334 h 4 4 V 35.953356 17.240045 l -13.65321,0.379978 C 69.66342,17.973009 68.701888,18.189423 68.810504,20.666667 68.874811,22.133333 69.018756,30.383333 69.13038,39 l 0.202955,15.666667 h 4 4 z M 150.66667,48 v -6.666667 h 4.59232 c 11.07815,0 16.55043,-13.71406 8.30303,-20.808177 -3.14384,-2.704211 -5.1252,-3.191823 -12.9697,-3.191823 h -9.25898 V 36 54.666667 H 146 h 4.66667 z m 0,-18.666667 c 0,-5.4281 1.17781,-6.332614 5.89095,-4.524014 2.78128,1.067278 2.78128,7.98075 0,9.048029 -4.71314,1.8086 -5.89095,0.904085 -5.89095,-4.524015 z m 38.66667,10 V 24 h 4 c 3.37777,0 4,-0.518519 4,-3.333333 V 17.333333 H 184 170.66667 v 3.333334 c 0,2.920634 0.57777,3.333333 4.66667,3.333333 H 180 v 15.333333 15.333334 h 4.66667 4.66667 z M 236.00001,36 V 1.3333333 h 35.25464 c 19.39005,0 35.44005,0.45 35.66666,1 0.22662,0.55 0.24195,16.1499997 0.0341,34.6666667 l -0.37804,33.666667 h -35.2887 -35.2887 z m 44,8.666667 c 0,-9.9 -0.28395,-18 -0.631,-18 -0.34706,0 -3.34706,1.31956 -6.66667,2.932354 l -6.03567,2.932354 v 15.067646 15.067646 h 6.66667 6.66667 z M 267.78066,28.088349 280.00001,22.1767 V 15.088349 C 280.00001,11.189757 279.70794,8 279.35097,8 c -0.35696,0 -6.35696,2.835411 -13.33334,6.300913 l -12.68429,6.300914 v 7.14353 c 0,3.928943 0.50129,6.943532 1.11399,6.699087 0.61269,-0.244444 6.61269,-3.104687 13.33333,-6.356095 z"
       id="path16"
       inkscape:connector-curvature="0" />
    <path
       style="fill:#d60511;stroke-width:1.33333337"
       d="M 236.00001,36 V 1.3333333 h 35.25464 c 19.39005,0 35.44005,0.45 35.66666,1 0.22662,0.55 0.24195,16.1499997 0.0341,34.6666667 l -0.37804,33.666667 h -35.2887 -35.2887 z m 44,8.666667 c 0,-9.9 -0.28395,-18 -0.631,-18 -0.34706,0 -3.34706,1.31956 -6.66667,2.932354 l -6.03567,2.932354 v 15.067646 15.067646 h 6.66667 6.66667 z M 267.78066,28.088349 280.00001,22.1767 V 15.088349 C 280.00001,11.189757 279.70794,8 279.35097,8 c -0.35696,0 -6.35696,2.835411 -13.33334,6.300913 l -12.68429,6.300914 v 7.14353 c 0,3.928943 0.50129,6.943532 1.11399,6.699087 0.61269,-0.244444 6.61269,-3.104687 13.33333,-6.356095 z"
       id="path14"
       inkscape:connector-curvature="0" />
  </g>
</svg>
