<?xml version="1.0" encoding="UTF-8" standalone="no"?>
<!-- Created with Inkscape (http://www.inkscape.org/) -->

<svg
   xmlns:dc="http://purl.org/dc/elements/1.1/"
   xmlns:cc="http://creativecommons.org/ns#"
   xmlns:rdf="http://www.w3.org/1999/02/22-rdf-syntax-ns#"
   xmlns:svg="http://www.w3.org/2000/svg"
   xmlns="http://www.w3.org/2000/svg"
   xmlns:sodipodi="http://sodipodi.sourceforge.net/DTD/sodipodi-0.dtd"
   xmlns:inkscape="http://www.inkscape.org/namespaces/inkscape"
   version="1.1"
   id="svg2"
   width="309"
   height="148"
   viewBox="0 0 309 148"
   sodipodi:docname="Че.svg"
   inkscape:version="0.92.3 (2405546, 2018-03-11)">
  <metadata
     id="metadata8">
    <rdf:RDF>
      <cc:Work
         rdf:about="">
        <dc:format>image/svg+xml</dc:format>
        <dc:type
           rdf:resource="http://purl.org/dc/dcmitype/StillImage" />
        <dc:title></dc:title>
      </cc:Work>
    </rdf:RDF>
  </metadata>
  <defs
     id="defs6" />
  <sodipodi:namedview
     pagecolor="#ffffff"
     bordercolor="#666666"
     borderopacity="1"
     objecttolerance="10"
     gridtolerance="10"
     guidetolerance="10"
     inkscape:pageopacity="0"
     inkscape:pageshadow="2"
     inkscape:window-width="1920"
     inkscape:window-height="1015"
     id="namedview4"
     showgrid="false"
     inkscape:zoom="1.5242718"
     inkscape:cx="154.5"
     inkscape:cy="74"
     inkscape:window-x="0"
     inkscape:window-y="0"
     inkscape:window-maximized="1"
     inkscape:current-layer="svg2" />
  <path
     style="fill:#d20c19"
     d="M 99.722632,147.61741 C 85.014159,145.14393 78.28677,135.68549 79.288898,118.8884 c 0.553908,-9.28428 0.532075,-9.40448 -1.613696,-8.88361 C 32.105743,121.06631 8.7562743,109.24226 10.365947,75.919713 10.957033,63.683373 10.957033,63.683373 8.2285163,63.132863 -0.58112234,61.355413 -1.2944631,59.349703 1.0362851,42.910382 3.0310866,28.840571 0.85542149,29.656051 36.398266,29.656051 c 38.590174,0 35.583618,-1.967301 32.702901,21.398719 -2.691858,21.834153 -1.99747,23.601283 9.274075,23.601283 6.89135,0 6.135354,1.74944 9.501495,-21.987354 3.53257,-24.910395 0.477519,-22.450405 28.335193,-22.816076 30.07551,-0.394782 33.51931,0.792633 24.273,8.369293 -27.99733,22.941697 -34.33879,75.757854 -11.91076,99.201044 3.51173,3.67067 6.02208,7.03684 5.57855,7.48037 -2.26155,2.26155 -25.99564,4.13248 -34.430088,2.71408 z m 153.263318,-1.25039 c -22.2972,-11.79104 -8.96833,-45.73825 17.94555,-45.70539 27.08802,0.0331 30.49524,33.57387 4.6339,45.61618 -6.96923,3.24522 -16.53985,3.28303 -22.57945,0.0892 z M 158.5,146.00745 C 100.71654,133.74456 110.62406,45.430605 171.55802,29.610471 c 46.67133,-12.117161 78.25578,9.126808 74.82588,50.328532 -1.12059,13.4612 1.22705,12.64363 -37.19579,12.95346 -32.68811,0.26359 -32.68811,0.26359 -32.47815,4.72148 0.56037,11.897627 11.90771,14.487327 41.14579,9.390347 12.98647,-2.26389 13.00032,-2.25169 16.10708,14.17975 1.99752,10.56481 2.05457,11.79651 0.64593,13.94637 -5.70137,8.70138 -53.90155,15.58988 -76.10876,10.87704 z M 198,72.290913 c 0,-10.8077 -10.49391,-13.21784 -15.87374,-3.64572 -4.07554,7.25143 -3.42391,8.01086 6.87374,8.01086 9,0 9,0 9,-4.36514 z m 65.50999,20.56398 C 250.33292,92.287163 247.73798,73.265483 255.05171,30.85299 260.7448,-2.1614149 257.99719,0.65605112 284.5,0.65605112 c 27.91309,0 26.56353,-1.90509202 21.0461,29.70939088 -3.36434,19.2774 -10.52913,51.268111 -12.60712,56.290611 -2.28989,5.53467 -9.51606,7.05677 -29.42899,6.19884 z"
     id="path12"
     inkscape:connector-curvature="0" />
</svg>
