<?xml version="1.0" encoding="UTF-8" standalone="no"?>
<!-- Created with Inkscape (http://www.inkscape.org/) -->

<svg
   xmlns:dc="http://purl.org/dc/elements/1.1/"
   xmlns:cc="http://creativecommons.org/ns#"
   xmlns:rdf="http://www.w3.org/1999/02/22-rdf-syntax-ns#"
   xmlns:svg="http://www.w3.org/2000/svg"
   xmlns="http://www.w3.org/2000/svg"
   xmlns:sodipodi="http://sodipodi.sourceforge.net/DTD/sodipodi-0.dtd"
   xmlns:inkscape="http://www.inkscape.org/namespaces/inkscape"
   version="1.1"
   id="svg2"
   width="1455.6224"
   height="1455.6224"
   viewBox="0 0 1455.6224 1455.6224"
   sodipodi:docname="#-MTV.svg"
   inkscape:version="0.92.5 (2060ec1f9f, 2020-04-08)">
  <metadata
     id="metadata8">
    <rdf:RDF>
      <cc:Work
         rdf:about="">
        <dc:format>image/svg+xml</dc:format>
        <dc:type
           rdf:resource="http://purl.org/dc/dcmitype/StillImage" />
        <dc:title></dc:title>
      </cc:Work>
    </rdf:RDF>
  </metadata>
  <defs
     id="defs6" />
  <sodipodi:namedview
     pagecolor="#ffffff"
     bordercolor="#666666"
     borderopacity="1"
     objecttolerance="10"
     gridtolerance="10"
     guidetolerance="10"
     inkscape:pageopacity="0"
     inkscape:pageshadow="2"
     inkscape:window-width="1920"
     inkscape:window-height="1019"
     id="namedview4"
     showgrid="false"
     inkscape:zoom="0.22124998"
     inkscape:cx="-725.4238"
     inkscape:cy="533.33336"
     inkscape:window-x="0"
     inkscape:window-y="0"
     inkscape:window-maximized="1"
     inkscape:current-layer="svg2" />
  <path
     style="fill:#fefefe;stroke-width:2.15010786"
     d="M -0.00484724,727.81115 V 297.78957 H 239.59299 479.19084 l 78.70189,82.67716 78.7019,82.67715 78.58888,-82.67715 78.58887,-82.67716 h 241.69342 241.6934 v 184.9553 184.95526 l -14.6773,25.21779 c -32.8654,56.4673 -58.0417,108.26611 -79.1393,162.82469 -13.1534,34.01449 -19.2107,41.9271 -32.0963,41.9271 -9.4018,0 -17.3692,-7.31531 -19.0581,-17.49812 -0.6593,-3.97549 -3.6546,-28.51423 -6.6562,-54.53053 -8.726,-75.6332 -12.3462,-92.78519 -23.6569,-112.08558 -14.0509,-23.97599 -48.479,-26.27732 -72.803,-4.86649 -24.9974,22.00358 -24.5605,51.74319 1.9075,129.85272 18.2282,53.79326 82.0569,218.04889 88.1479,226.83809 16.15,23.3045 52.6256,28.4394 73.2688,10.3144 11.3905,-10.0009 16.1456,-21.2982 36.1252,-85.82594 10.0255,-32.37954 22.2684,-70.24068 27.2064,-84.13565 8.6601,-24.369 9.1987,-25.26382 15.2047,-25.26382 h 6.2266 v 138.68201 138.6819 H 1124.8011 972.44288 l -1.8197,-11.288 c -1.0009,-6.2085 -1.9605,-64.987 -2.1325,-130.6191 -0.2454,-93.59856 -1.0991,-127.67659 -3.9588,-158.03294 -2.0053,-21.28605 -4.217,-68.82187 -4.915,-105.63516 l -1.269,-66.9332 26.6365,-15.62199 c 103.78772,-60.8702 119.44722,-71.81491 124.45292,-86.98251 1.9373,-5.86989 1.7642,-8.55226 -0.8818,-13.66917 -4.6037,-8.90241 -19.0044,-20.68809 -28.9018,-23.65343 -19.2481,-5.76687 -29.9905,-1.38269 -56.7098,23.14434 -12.6956,11.65397 -28.43672,22.91829 -49.38132,35.33722 -42.9044,25.43979 -39.7845,24.39697 -56.53721,18.89745 -18.94951,-6.22067 -31.91962,-5.97703 -45.63431,0.85731 -15.13297,7.54108 -18.34699,13.28493 -19.97006,35.68898 -0.82107,11.33399 -2.68356,20.63086 -4.7714,23.81731 -2.8941,4.41694 -61.35868,40.25034 -124.75233,76.46169 -9.16299,5.23401 -27.54641,13.34334 -40.85206,18.02068 -29.42291,10.34309 -40.69096,16.68456 -46.58112,26.21504 -8.44806,13.66922 -4.80899,28.62138 10.66067,43.80239 22.37295,21.95539 39.41517,17.8625 93.50828,-22.45738 72.96178,-54.38421 87.71948,-63.80785 104.00241,-66.41161 12.34252,-1.97365 20.92227,2.17489 26.65414,12.88801 4.61099,8.61821 4.72166,10.61081 4.6094,83.00887 -0.069,44.55448 -1.66363,100.15207 -3.99273,139.21586 -2.46576,41.35594 -3.59825,83.04524 -3.11015,114.49344 l 0.76757,49.4561 h -43.52101 l -43.52102,-2e-4 -0.55618,-114.9355 -0.55621,-114.93564 -68.71773,57.9578 c -50.65162,42.72054 -70.15343,57.95344 -74.17872,57.94134 -4.00459,-0.016 -23.81039,-15.5184 -74.26445,-58.14344 l -68.80345,-58.12724 -0.55621,115.12138 -0.5562,115.1213 H 246.16381 -0.00484724 Z M 516.02104,1070.7534 v -87.07944 h 5.6426 c 4.07694,0 14.2189,7.2215 36.55182,26.02644 l 30.90924,26.0264 v 61.053 61.0529 H 552.57288 516.02104 Z M 1300.8104,980.08806 V 802.34333 l 9.9576,-18.41642 c 14.0414,-25.96942 26.5681,-46.54572 47.5795,-78.15437 14.855,-22.34705 19.1698,-27.41388 23.3451,-27.41388 h 5.1222 v 220.92363 220.92361 l 22.393,-0.6721 c 21.0326,-0.6313 22.4786,-0.4028 23.8006,3.7626 1.7869,5.6299 4.5877,5.6923 6.041,0.1339 0.8614,-3.2939 2.9328,-4.3003 8.8512,-4.3003 h 7.7267 v 19.351 19.3509 h -20.426 -20.426 v -13.0275 c 0,-8.1374 -0.8071,-12.5286 -2.1502,-11.6987 -1.1825,0.7309 -2.1501,6.5932 -2.1501,13.0276 0,11.5211 -0.096,11.6986 -6.343,11.6986 -6.2138,0 -6.3561,-0.2519 -6.9878,-12.363 -0.5713,-10.952 -1.1971,-12.4415 -5.4826,-13.0503 -4.561,-0.6477 -4.8377,0.06 -4.8377,12.3632 v 13.0501 h -43.0011 -43.0022 V 980.08806 Z m -619.23105,62.96454 c 0,-7.0191 61.5043,-59.37864 69.74941,-59.37864 h 5.50436 v 25.83164 25.8316 l -6.98786,6.357 -6.98784,6.3569 -30.63904,0.063 -30.63903,0.063 z M 1300.8104,459.04767 v -161.2581 h 4.7607 c 2.6184,0 21.9632,10.40116 42.9886,23.11367 l 38.2279,23.11365 0.013,90.81701 0.013,90.81702 -21.3728,24.83865 c -11.7551,13.66122 -28.9291,34.94038 -38.1644,47.28701 -12.5494,16.77705 -18.0138,22.45861 -21.6293,22.48879 l -4.8365,0.0403 z M 575.51577,368.7543 c -42.0255,-44.19341 -55.19451,-59.32691 -55.19451,-63.42819 0,-4.17602 1.10334,-5.38642 4.91002,-5.38642 7.75261,0 145.74167,61.6867 152.52365,68.18424 9.83063,9.41836 8.14903,13.6618 -14.77627,37.28743 -16.09986,16.59168 -22.04151,21.38469 -26.50957,21.38469 -4.73968,0 -15.52643,-10.27149 -60.95332,-58.04175 z"
     id="path817"
     inkscape:connector-curvature="0" />
</svg>
