<?xml version="1.0" encoding="UTF-8"?>
 <!DOCTYPE svg PUBLIC "-//W3C//DTD SVG 1.1//EN"
   "http://www.w3.org/Graphics/SVG/1.1/DTD/svg11.dtd">
 <svg xmlns="http://www.w3.org/2000/svg" version="1.1"
   xmlns:xlink="http://www.w3.org/1999/xlink" width="1036" height="1036">
  <path
     d="M 329.404,0 0,329.451 0,1036 1036,1036 1036,0 329.406,0 z"
     id="path2193"
     style="fill:#d40026;fill-rule:evenodd" />
  <path
     d="m 565.437,397.324 c -46.54195,0.7812 -94.18348,7.14857 -135.055,30.462 l 0.032,-98.402 347.645,0.066 0,-145.35 -406.095,0 -118.484,118.787 0,280.16 173.922,0 c 12.211,-18.298 28.467,-44.565 85.221,-44.565 72.066,0 106.591,45.689 106.591,108.616 0,54.806 -29.404,108.564 -103.551,108.564 -51.80334,-1.37122 -86.08293,-30.03075 -91.444,-81.048 l -206.518,0 c 22.91176,159.96275 151.65874,218.15116 296.971,221.157 170.8139,5.4616 306.25258,-62.07585 316.741,-263.917 0,-140.128 -114.721,-234.53 -265.976,-234.53 z"
     id="path2195"
     style="fill:#ffffff;fill-rule:evenodd" />
 </svg>
