<?xml version="1.0" encoding="UTF-8" standalone="no"?>
<!-- Created with Inkscape (http://www.inkscape.org/) -->

<svg
   xmlns:dc="http://purl.org/dc/elements/1.1/"
   xmlns:cc="http://creativecommons.org/ns#"
   xmlns:rdf="http://www.w3.org/1999/02/22-rdf-syntax-ns#"
   xmlns:svg="http://www.w3.org/2000/svg"
   xmlns="http://www.w3.org/2000/svg"
   xmlns:sodipodi="http://sodipodi.sourceforge.net/DTD/sodipodi-0.dtd"
   xmlns:inkscape="http://www.inkscape.org/namespaces/inkscape"
   width="1067mm"
   height="1067mm"
   viewBox="0 0 1067 1067"
   version="1.1"
   id="svg8"
   inkscape:version="0.92.5 (2060ec1f9f, 2020-04-08)"
   sodipodi:docname="3sat.svg">
  <defs
     id="defs2" />
  <sodipodi:namedview
     id="base"
     pagecolor="#ffffff"
     bordercolor="#666666"
     borderopacity="1.0"
     inkscape:pageopacity="0.0"
     inkscape:pageshadow="2"
     inkscape:zoom="0.15036887"
     inkscape:cx="1910.9017"
     inkscape:cy="1973.7088"
     inkscape:document-units="mm"
     inkscape:current-layer="layer1"
     showgrid="false"
     fit-margin-top="0"
     fit-margin-left="0"
     fit-margin-right="0"
     fit-margin-bottom="0"
     inkscape:window-width="1920"
     inkscape:window-height="1019"
     inkscape:window-x="0"
     inkscape:window-y="0"
     inkscape:window-maximized="1" />
  <metadata
     id="metadata5">
    <rdf:RDF>
      <cc:Work
         rdf:about="">
        <dc:format>image/svg+xml</dc:format>
        <dc:type
           rdf:resource="http://purl.org/dc/dcmitype/StillImage" />
        <dc:title></dc:title>
      </cc:Work>
    </rdf:RDF>
  </metadata>
  <g
     inkscape:label="Ebene 1"
     inkscape:groupmode="layer"
     id="layer1"
     transform="translate(174.15132,826.82746)">
    <g
       id="g818"
       transform="translate(0,-234.84025)">
      <path
         sodipodi:nodetypes="csccccccssscccsscccsccccsccsccccccsccccccccsccsscccsccccccssccccccccccsccccccc"
         inkscape:connector-curvature="0"
         id="path61"
         d="m 520.52617,-100.8937 c -14.7489,-2.80411 -30.48882,-10.43936 -41.46357,-20.11365 l -8.34244,-7.35397 11.14046,-11.22624 11.14047,-11.22631 6.29962,5.53119 c 10.94968,9.61393 25.20557,15.20275 38.88931,15.24603 13.607,0.0414 21.2108,-3.2692 24.86422,-10.83097 4.80732,-9.94997 -2.77632,-19.79299 -20.10301,-26.09243 -40.65558,-14.78118 -49.18383,-19.97159 -55.65685,-33.87425 -10.29476,-22.11096 -1.27457,-46.20425 20.96681,-56.00323 26.26311,-11.57086 58.8061,-7.59293 82.30926,10.06123 l 11.39846,8.5619 -10.51598,10.61033 c -5.7838,5.83565 -10.93336,10.61034 -11.44339,10.61034 -0.5102,0 -4.92639,-3.00482 -9.81411,-6.6774 -19.04861,-14.31288 -43.31933,-14.68404 -48.61953,-0.74355 -3.65857,9.6228 3.47854,16.09777 25.89479,23.49235 37.86844,12.49182 51.33035,23.97618 55.04904,46.96241 2.38773,14.759 -5.92208,33.76694 -18.58895,42.52086 -15.36404,10.61784 -40.78487,14.845849 -63.40461,10.54536 z m 142.90456,0.64541 c -16.31941,-2.87966 -29.80042,-12.10447 -35.26356,-24.12995 -4.52916,-9.96983 -4.15369,-27.73963 0.81142,-38.40181 9.30805,-19.98815 35.47385,-32.40583 80.33561,-38.12549 l 16.68495,-2.12724 -0.39315,-6.36773 c -0.51789,-8.3963 -5.0532,-15.86117 -12.17978,-20.04786 -4.52692,-2.65944 -8.49492,-3.35847 -18.29437,-3.22279 -13.97827,0.19332 -20.68599,2.54771 -32.11419,11.27106 l -7.52198,5.74165 -10.63186,-10.80342 -10.63191,-10.80342 6.67397,-5.84553 c 17.21625,-15.07913 45.06927,-22.85681 68.82523,-19.21864 24.93783,3.81919 41.29957,15.53146 49.16273,35.19238 3.55103,8.87901 3.74979,11.94922 4.30161,66.45477 l 0.57878,57.1459 h -17.63624 -17.63618 v -7.72204 -7.72204 l -5.42258,4.39525 c -8.67636,7.03253 -17.49205,11.12799 -29.37547,13.64673 -12.09738,2.56408 -18.78879,2.716669 -30.27309,0.69022 z m 41.3873,-32.63728 c 14.71496,-7.33286 22.01536,-19.69994 22.01536,-37.29515 0,-7.96355 0.27904,-7.90561 -20.56309,-4.27099 -25.95432,4.52597 -38.24999,11.18971 -42.78347,23.18652 -2.5963,6.87037 0.57406,15.44279 7.207,19.48735 7.97235,4.86117 23.13372,4.36906 34.1242,-1.10773 z m 131.14576,32.73891 c -16.50646,-3.52395 -26.73618,-10.82033 -33.71326,-24.04612 l -4.50634,-8.54221 -0.48419,-73.31781 -0.48419,-73.31774 17.13928,-17.19781 c 9.42658,-9.45886 18.89301,-17.97157 18.90436,-17.26698 0.0118,0.8295 0.79729,12.45765 0.79729,27.59921 v 27.53011 h 23.42383 23.42383 l -0.48183,14.59926 -0.48183,14.59932 -22.9417,0.46409 -22.94177,0.46409 v 43.46199 43.46199 l 4.87714,4.87714 c 4.0095,4.0095 6.27474,4.87714 12.73386,4.87714 5.11865,0 9.87235,-1.24577 13.6404,-3.5745 l 5.78368,-3.57461 11.09814,11.17676 11.09819,11.17664 -5.00549,4.23079 c -12.81497,10.83186 -34.60662,16.006369 -51.87886,12.31901 z"
         style="fill:#2d383e;fill-opacity:1;stroke-width:1.66849005" />
      <rect
         y="-357.14703"
         x="-174.15132"
         height="597.31964"
         width="597.28528"
         id="rect21"
         style="opacity:1;fill:#e40a22;fill-opacity:1;stroke:none;stroke-width:76.05406952;stroke-miterlimit:4;stroke-dasharray:none;stroke-dashoffset:0;stroke-opacity:1" />
      <path
         sodipodi:nodetypes="cccccccscccccccccccccscccsscccccccccc"
         inkscape:connector-curvature="0"
         id="path25"
         d="m 97.812564,147.44156 c -2.294142,-0.40911 -8.676116,-1.5247 -14.182173,-2.47954 C 40.597436,137.49886 -0.4328381,110.71284 -28.076928,72.035351 l -6.287087,-8.796366 28.8744891,-29.5789 C 10.391393,17.391695 23.904508,3.8588934 24.539631,3.5871792 c 0.487146,0.5675494 2.965268,4.1144966 7.372703,10.6248198 19.465703,34.808041 54.188257,54.428579 91.761856,51.851786 46.13852,-3.164206 76.25399,-35.903056 73.92065,-80.35991 -0.89016,-16.959617 -7.02259,-30.881427 -19.70549,-44.735603 l -8.89941,-9.721234 29.43979,-29.439852 29.43979,-29.439736 6.0972,5.79125 c 9.47269,8.99726 24.95142,28.954837 31.36025,40.43441 24.80639,44.433501 24.07567,101.772662 -1.88676,148.056433 -10.69961,19.074508 -37.31123,45.938037 -56.35458,56.888077 -28.67414,16.48784 -51.28672,22.98835 -83.41144,23.97867 -11.92971,0.36772 -23.56743,0.33402 -25.861626,-0.0745 z M 97.375669,-69.768462 c -14.442536,-14.46376 -26.259151,-27.04296 -26.259151,-27.953818 0,-2.107914 158.096562,-160.26584 159.180702,-159.24242 0.44339,0.41857 12.89478,12.73883 27.66927,27.37782 l 26.86272,26.61641 -79.73686,79.74979 c -43.85531,43.862466 -80.12403,79.749797 -80.59722,79.749797 -0.47296,0 -12.67693,-11.833878 -27.119461,-26.297579 z M 7.7138605,-226.17047 -29.799322,-263.7115 H 92.806837 215.41305 l -37.51318,37.54103 -37.51324,37.54102 H 92.806837 45.227102 Z"
         style="fill:#ffffff;stroke-width:1.66849005" />
    </g>
  </g>
</svg>
