<?xml version="1.0" encoding="UTF-8" standalone="no"?>
<!-- Created with Inkscape (http://www.inkscape.org/) -->

<svg
   xmlns:dc="http://purl.org/dc/elements/1.1/"
   xmlns:cc="http://creativecommons.org/ns#"
   xmlns:rdf="http://www.w3.org/1999/02/22-rdf-syntax-ns#"
   xmlns:svg="http://www.w3.org/2000/svg"
   xmlns="http://www.w3.org/2000/svg"
   xmlns:sodipodi="http://sodipodi.sourceforge.net/DTD/sodipodi-0.dtd"
   xmlns:inkscape="http://www.inkscape.org/namespaces/inkscape"
   version="1.1"
   id="svg2"
   width="1066.6667"
   height="1066.6667"
   viewBox="0 0 1066.6667 1066.6667"
   sodipodi:docname="de-ARD.svg"
   inkscape:version="0.92.5 (2060ec1f9f, 2020-04-08)">
  <metadata
     id="metadata8">
    <rdf:RDF>
      <cc:Work
         rdf:about="">
        <dc:format>image/svg+xml</dc:format>
        <dc:type
           rdf:resource="http://purl.org/dc/dcmitype/StillImage" />
        <dc:title />
      </cc:Work>
    </rdf:RDF>
  </metadata>
  <defs
     id="defs6" />
  <sodipodi:namedview
     pagecolor="#ffffff"
     bordercolor="#666666"
     borderopacity="1"
     objecttolerance="10"
     gridtolerance="10"
     guidetolerance="10"
     inkscape:pageopacity="0"
     inkscape:pageshadow="2"
     inkscape:window-width="1920"
     inkscape:window-height="1019"
     id="namedview4"
     showgrid="false"
     inkscape:zoom="0.22124998"
     inkscape:cx="-725.4238"
     inkscape:cy="533.33336"
     inkscape:window-x="0"
     inkscape:window-y="0"
     inkscape:window-maximized="1"
     inkscape:current-layer="svg2" />
  <path
     style="fill:#fefefe;stroke-width:1.33333337"
     d="M 235.41921,767.71798 C 223.43576,765.87275 199.22708,759.75239 188.37774,755.8251 89.290983,719.95715 26.584214,621.94519 34.678033,515.58932 42.845542,408.26512 117.40581,323.76406 223.41921,301.68411 c 12.85319,-2.677 18.54092,-3.0569 46,-3.0725 27.44983,-0.0156 33.20631,0.36165 46.44506,3.04382 97.48239,19.74998 169.96926,94.52205 186.39547,192.2717 4.54524,27.048 3.63111,64.35831 -2.23713,91.30803 -17.51091,80.41842 -76.38181,146.34521 -153.62965,172.04271 -28.19327,9.37886 -33.97363,10.2314 -72.30708,10.66442 -19.06667,0.21538 -36.46667,0.1144 -38.66667,-0.22431 z M 280.08588,650.6041 c 37.03333,-12.98584 69.88333,-24.50695 73,-25.60246 l 5.66667,-1.99184 V 510.46847 c 0,-61.89774 -0.45,-112.54125 -1,-112.54114 -0.55,1.2e-4 -43.6,15.32385 -95.66667,34.05276 -52.06667,18.72891 -103.21667,37.11048 -113.66667,40.84795 l -19,6.7954 v 25.06363 25.06361 l 13,-4.44249 c 7.15,-2.44338 23.40852,-8.10367 36.13005,-12.57844 12.72152,-4.47478 24.57152,-8.13595 26.33334,-8.13595 h 3.20328 v 85.48884 c 0,80.7875 0.12826,85.45154 2.33333,84.81046 1.28333,-0.37311 32.63333,-11.30316 69.66667,-24.289 z M 550.75255,537.26047 V 389.92713 h 39.33334 39.33333 v 52 52 h 40.66667 40.66667 v -52 -52 h 38.66667 38.66666 V 537.26047 684.5938 h -38.65308 -38.65308 l -0.34692,-60.33333 -0.34692,-60.33334 -40.33333,-0.35288 -40.33334,-0.35289 v 60.68623 60.68621 H 590.08589 550.75255 Z M 798.75256,537.1394 V 389.68497 l 57,0.6316 c 61.19517,0.67808 67.64545,1.27533 91.00001,8.42589 29.87405,9.14667 50.37345,23.61487 64.58453,45.58283 16.8138,25.99159 23.4648,61.55706 20.7729,111.08114 -2.456,45.18331 -11.5088,70.14808 -33.3085,91.85405 -13.13505,13.07859 -25.34499,20.53872 -43.38227,26.50611 -27.33422,9.04313 -45.01165,10.82721 -107.28079,10.82721 H 798.75256 V 537.13939 Z m 116.32889,79.50359 c 16.23592,-6.15368 28.08892,-21.96435 34.52234,-46.04918 3.78627,-14.17465 4.1534,-45.6303 0.70808,-60.66666 -5.18936,-22.64776 -17.54868,-40.28143 -33.26281,-47.45773 -7.27617,-3.32286 -10.2232,-3.85242 -23.96316,-4.30598 l -15.66667,-0.51716 v 80.58488 c 0,44.32168 0.45,81.05344 1,81.62612 2.05081,2.13539 28.71564,-0.2024 36.66222,-3.21429 z"
     id="path817"
     inkscape:connector-curvature="0" />
</svg>
