<?xml version="1.0" encoding="UTF-8" standalone="no"?>
<!-- Created with Inkscape (http://www.inkscape.org/) -->

<svg
   xmlns:dc="http://purl.org/dc/elements/1.1/"
   xmlns:cc="http://creativecommons.org/ns#"
   xmlns:rdf="http://www.w3.org/1999/02/22-rdf-syntax-ns#"
   xmlns:svg="http://www.w3.org/2000/svg"
   xmlns="http://www.w3.org/2000/svg"
   xmlns:sodipodi="http://sodipodi.sourceforge.net/DTD/sodipodi-0.dtd"
   xmlns:inkscape="http://www.inkscape.org/namespaces/inkscape"
   version="1.1"
   id="svg2"
   width="1066.6667"
   height="1066.6667"
   viewBox="0 0 1066.6667 1066.6667"
   sodipodi:docname="de-ARD_HD (Kopie).svg"
   inkscape:version="0.92.5 (2060ec1f9f, 2020-04-08)">
  <metadata
     id="metadata8">
    <rdf:RDF>
      <cc:Work
         rdf:about="">
        <dc:format>image/svg+xml</dc:format>
        <dc:type
           rdf:resource="http://purl.org/dc/dcmitype/StillImage" />
        <dc:title></dc:title>
      </cc:Work>
    </rdf:RDF>
  </metadata>
  <defs
     id="defs6" />
  <sodipodi:namedview
     pagecolor="#ffffff"
     bordercolor="#666666"
     borderopacity="1"
     objecttolerance="10"
     gridtolerance="10"
     guidetolerance="10"
     inkscape:pageopacity="0"
     inkscape:pageshadow="2"
     inkscape:window-width="1920"
     inkscape:window-height="1019"
     id="namedview4"
     showgrid="false"
     inkscape:zoom="0.78562494"
     inkscape:cx="533.33337"
     inkscape:cy="533.33337"
     inkscape:window-x="0"
     inkscape:window-y="0"
     inkscape:window-maximized="1"
     inkscape:current-layer="svg2" />
  <path
     style="fill:#f9f9f9;fill-opacity:1;stroke-width:3.01856852"
     d="m 456.04916,1063.9629 c -27.12964,-4.1775 -81.93631,-18.0336 -106.49842,-26.9247 C 125.22563,955.83585 -16.73787,733.944 1.5859397,493.16215 20.076578,250.18808 188.87553,58.883914 428.88205,8.8965339 c 29.09867,-6.06053 41.97527,-6.9206 104.14061,-6.95592 62.14439,-0.0353 75.17663,0.81875 105.14819,6.89099 C 858.86379,53.544104 1022.9687,222.82255 1060.1564,444.12055 c 10.2901,61.23468 8.2206,145.70247 -5.0646,206.71465 -39.6435,182.06137 -172.92283,331.31476 -347.80625,389.492 -63.82748,21.2331 -76.91379,23.1631 -163.6979,24.1435 -43.16553,0.4876 -82.55785,0.259 -87.53849,-0.5078 z M 557.17121,798.82566 c 83.84073,-29.39899 158.21071,-55.48193 165.26662,-57.96208 l 12.82892,-4.50938 V 481.56892 c 0,-140.13191 -1.01877,-254.78508 -2.26392,-254.78484 -1.24516,2.8e-4 -98.70719,34.69207 -216.58229,77.09294 -117.8751,42.40087 -233.67493,84.01539 -257.33296,92.47675 l -43.0146,15.38428 v 56.74221 56.74217 l 29.43104,-10.05747 c 16.18707,-5.53164 52.99516,-18.34612 81.79577,-28.47666 28.80058,-10.13058 55.62811,-18.4192 59.61674,-18.4192 h 7.25199 v 193.54044 c 0,182.89694 0.29037,193.45598 5.28249,192.00462 2.90536,-0.84469 73.87945,-25.58952 157.7202,-54.9885 z"
     id="path817"
     inkscape:connector-curvature="0"
     sodipodi:nodetypes="cssssssssscsscscssccccsscscs" />
</svg>
