<?xml version="1.0" encoding="UTF-8" standalone="no"?>
<svg
   xmlns:dc="http://purl.org/dc/elements/1.1/"
   xmlns:cc="http://creativecommons.org/ns#"
   xmlns:rdf="http://www.w3.org/1999/02/22-rdf-syntax-ns#"
   xmlns:svg="http://www.w3.org/2000/svg"
   xmlns="http://www.w3.org/2000/svg"
   xmlns:sodipodi="http://sodipodi.sourceforge.net/DTD/sodipodi-0.dtd"
   xmlns:inkscape="http://www.inkscape.org/namespaces/inkscape"
   id="svg2"
   height="1067"
   width="1067"
   version="1.1"
   sodipodi:docname="ARD_alpha.svg"
   inkscape:version="0.92.5 (2060ec1f9f, 2020-04-08)">
  <defs
     id="defs8" />
  <sodipodi:namedview
     pagecolor="#ffffff"
     bordercolor="#666666"
     borderopacity="1"
     objecttolerance="10"
     gridtolerance="10"
     guidetolerance="10"
     inkscape:pageopacity="0"
     inkscape:pageshadow="2"
     inkscape:window-width="1920"
     inkscape:window-height="1019"
     id="namedview6"
     showgrid="false"
     inkscape:zoom="0.61736506"
     inkscape:cx="446.35344"
     inkscape:cy="520.16042"
     inkscape:window-x="0"
     inkscape:window-y="0"
     inkscape:window-maximized="1"
     inkscape:current-layer="svg2" />
  <metadata
     id="metadata8">
    <rdf:RDF>
      <cc:Work
         rdf:about="">
        <dc:format>image/svg+xml</dc:format>
        <dc:type
           rdf:resource="http://purl.org/dc/dcmitype/StillImage" />
        <dc:title></dc:title>
      </cc:Work>
    </rdf:RDF>
  </metadata>
  <g
     id="g817"
     transform="matrix(4.2619715,0,0,4.2619715,-16.30134,-3781.5599)">
    <path
       inkscape:connector-curvature="0"
       d="m 132.39,1038.191 v 17.531 h 1.7812 v -17.531 z m 12,0 v 5.5625 c -0.81691,-0.072 -1.4907,-0.094 -2.1875,-0.094 -3.7242,0 -6.1562,2.3723 -6.1562,6.625 0,3.4839 1.451,5.6562 4.4062,5.6562 1.9221,0 3.4522,-1.1378 4.125,-2.8438 l 0.0312,0.031 c -0.14416,0.7208 -0.21875,1.873 -0.21875,2.5938 h 1.7812 v -17.531 h -1.7812 z m 50.625,0 v 17.531 h 1.7812 v -6.25 l 4.7188,6.25 h 2.3438 l -5.125,-6.5 4.75,-5.4375 h -2.1875 l -4.5,5.375 v -10.969 h -1.7812 z m 44.406,0 v 17.531 h 1.7812 v -17.531 z m -111.19,1 c -0.57256,0.115 -1,0.6301 -1,1.2188 0,0.6968 0.55322,1.2188 1.25,1.2188 0.67275,0 1.25,-0.522 1.25,-1.2188 0,-0.6727 -0.57725,-1.2188 -1.25,-1.2188 -0.0871,0 -0.16821,-0.016 -0.25,0 z m -66.885,0.219 c -1.8741,0 -3.3828,0.022 -4.6562,0.094 v 16.219 h 3.125 v -6.6875 h 0.09375 l 4.5312,6.6875 h 3.875 l -3.9062,-5.4375 c -0.40846,-0.5527 -0.85599,-1.1806 -1.3125,-1.7812 2.4507,-0.3845 4.125,-2.1286 4.125,-4.5312 0,-3.3157 -2.295,-4.5625 -5.875,-4.5625 z m 14.375,0 c -1.9942,0 -3.9766,0.077 -5.25,0.125 v 16.156 c 1.3695,0.048 2.8494,0.125 4.5312,0.125 5.2859,0 8.9375,-2.8945 8.9375,-8.4688 0,-5.6944 -3.1971,-7.9375 -8.2188,-7.9375 z m 44.125,0.031 c -1.9462,0 -3.426,0.038 -4.5312,0.062 v 16.219 c 1.3936,0.024 2.9212,0.094 3.9062,0.094 5.1177,0 6.1875,-3.121 6.1875,-4.875 0,-1.7299 -1.0348,-3.3896 -3.4375,-3.75 v -0.062 c 1.826,-0.5286 3.0625,-2.0658 3.0625,-3.8438 0,-2.3546 -1.6556,-3.8438 -5.1875,-3.8438 z m -74.219,0.062 -5.6875,16.219 h 3.1562 l 1.125,-3.3125 h 6.125 l 1.1562,3.3125 h 3.4375 l -5.7812,-16.219 z m 73.875,1.4375 c 2.8592,0 3.5938,1.1185 3.5938,2.6562 0,1.9221 -1.4918,3.0625 -4.375,3.0625 -0.6247,0 -1.0579,-0.01 -1.5625,-0.031 v -5.6562 c 0.69678,-0.024 1.5509,-0.031 2.3438,-0.031 z m -58.477,1.03 c 1.9702,0 2.9375,0.7507 2.9375,2.3125 0,1.5137 -1.1572,2.4688 -3.0312,2.4688 -0.48054,0 -0.90876,-0.01 -1.125,-0.031 v -4.6875 c 0.31235,-0.048 0.76224,-0.062 1.2188,-0.062 z m 14.469,0.062 c 3.7001,0 5.0625,2.0786 5.0625,5.5625 0,3.8443 -2.1986,5.5625 -5.25,5.5625 -0.6247,0 -1.2863,-0.053 -1.7188,-0.125 v -10.938 c 0.50456,-0.048 1.1854,-0.062 1.9062,-0.062 z m -28.25,1.0625 h 0.03125 c 0.19221,0.913 0.43765,1.7048 0.75,2.5938 l 1.5,4.25 h -4.5 l 1.4688,-4.125 c 0.31235,-0.9371 0.55779,-1.8778 0.75,-2.7188 z m 120.28,0.439 c -2.0903,0 -3.5772,1.1763 -4.25,2.9062 h -0.0625 c 0.12013,-0.7208 0.1875,-1.8874 0.1875,-2.6562 h -1.7812 v 11.938 h 1.8125 v -5.75 c 0,-2.8352 1.5179,-4.9375 3.6562,-4.9375 1.7299,0 2.2188,1.0947 2.2188,2.9688 v 7.7188 h 1.8125 v -8.3438 c 0,-2.1144 -0.85469,-3.8438 -3.5938,-3.8438 z m 54.219,0 c -2.0903,0 -3.6085,1.1763 -4.2812,2.9062 h -0.0625 c 0.12013,-0.7208 0.21875,-1.8874 0.21875,-2.6562 h -1.7812 v 11.938 h 1.7812 v -5.75 c 0,-2.8352 1.5179,-4.9375 3.6562,-4.9375 1.7299,0 2.25,1.0947 2.25,2.9688 v 7.7188 h 1.7812 v -8.3438 c 0,-2.1144 -0.82344,-3.8438 -3.5625,-3.8438 z m -43.219,0.031 c -3.2436,0 -5.1875,2.1262 -5.1875,4.625 0,1.5377 0.57991,2.772 1.7812,3.4688 -0.84094,0.3844 -1.3125,1.1206 -1.3125,1.9375 0,0.7689 0.44267,1.3824 1.1875,1.7188 -1.1293,0.5766 -2.0625,1.6978 -2.0625,3.1875 0,2.2826 1.9414,3.5 4.9688,3.5 3.6761,0 6.2812,-1.8834 6.2812,-4.4062 0,-2.0903 -1.4051,-3.3438 -4,-3.3438 h -2.3438 c -1.4897,0 -2.1562,-0.3345 -2.1562,-1.0312 0,-0.4325 0.27433,-0.8463 0.875,-1.0625 0.43248,0.096 1.1036,0.1563 1.6562,0.1563 3.4358,0 5.1875,-1.9532 5.1875,-4.5 0,-1.1293 -0.45947,-2.0724 -1.1562,-2.625 h 2.1562 v -1.4062 h -4.0625 c -0.6247,-0.1442 -1.1398,-0.2188 -1.8125,-0.2188 z m 11.344,0 c -3.0274,0 -4.6875,1.5058 -4.6875,3.5 0,4.2528 5.8438,2.4605 5.8438,5.3438 0,1.2494 -1.2076,2.0312 -2.9375,2.0312 -0.93705,0 -1.9186,-0.19 -2.6875,-0.4062 l -0.0312,1.6562 c 0.7208,0.1441 1.6423,0.25 2.5312,0.25 3.1235,0 4.9688,-1.6669 4.9688,-3.7812 0,-4.0605 -5.8125,-2.4221 -5.8125,-5.2812 0,-1.1773 0.83979,-1.875 2.5938,-1.875 0.81691,0 1.7071,0.1419 2.5,0.4062 l 0.0312,-1.5625 c -0.74483,-0.1442 -1.5677,-0.2812 -2.3125,-0.2812 z m 18.719,0 c -1.6098,0 -2.9957,0.4017 -4.125,0.9063 l 0.15625,1.5625 c 1.0572,-0.6728 2.503,-1.0312 3.6562,-1.0312 2.0663,0 2.7188,1.0105 2.7188,2.8125 v 1 c -4.6612,0 -7.25,1.72 -7.25,4.2188 0,1.8981 1.3519,2.9062 3.25,2.9062 2.0423,0 3.5796,-1.2051 4.1562,-2.7188 h 0.0625 c -0.12013,0.6967 -0.125,1.587 -0.125,2.5 h 1.7812 c -0.048,-1.0572 -0.0625,-2.3852 -0.0625,-3.5625 v -4.6875 c 0,-2.2585 -0.92708,-3.9062 -4.2188,-3.9062 z m 23.562,0 c -1.6098,0 -2.9957,0.4017 -4.125,0.9063 l 0.15625,1.5625 c 1.0572,-0.6728 2.503,-1.0312 3.6562,-1.0312 2.0663,0 2.7188,1.0105 2.7188,2.8125 v 1 c -4.6612,0 -7.25,1.72 -7.25,4.2188 0,1.8981 1.3831,2.9062 3.2812,2.9062 2.0423,0 3.5796,-1.2051 4.1562,-2.7188 h 0.0312 c -0.12013,0.6967 -0.125,1.587 -0.125,2.5 h 1.7812 c -0.048,-1.0572 -0.0312,-2.3852 -0.0312,-3.5625 v -4.6875 c 0,-2.2585 -0.95833,-3.9062 -4.25,-3.9062 z m -104.62,0.2188 v 11.938 h 1.8125 v -11.938 z m 21.625,0 v 8.3438 c 0,2.1144 0.85469,3.8438 3.5938,3.8438 2.0903,0 3.6085,-1.1763 4.2812,-2.9062 l 0.0312,0.031 c -0.12013,0.7208 -0.1875,1.8561 -0.1875,2.625 h 1.7812 v -11.938 h -1.8125 v 5.75 c 0,2.8352 -1.4866,4.9375 -3.625,4.9375 -1.7299,0 -2.25,-1.0634 -2.25,-2.9375 v -7.75 h -1.8125 z m 29.281,1.1875 c 1.9702,0 3.1562,1.1091 3.1562,3.0312 0,1.9221 -1.2798,2.9688 -3.25,2.9688 -2.0182,0 -3.1875,-1.0226 -3.1875,-2.9688 0,-1.754 1.2149,-3.0312 3.2812,-3.0312 z m -36.406,0.094 c 0.76886,0 1.5268,0.089 2.3438,0.2813 v 4.2188 c 0,2.1144 -1.1838,4.9062 -3.5625,4.9062 -1.9702,0 -2.875,-1.6215 -2.875,-4.3125 0,-3.604 1.643,-5.0938 4.0938,-5.0938 z m -23.312,2.9688 c 2.667,0 4.7812,0.6862 4.7812,2.9688 0,1.8981 -1.2658,3.3125 -4.125,3.3125 -1.0572,0 -1.7863,-0.084 -2.2188,-0.1562 v -6.0938 c 0.38443,-0.024 1.2742,-0.031 1.5625,-0.031 z m 92.281,2.0938 v 0.1875 c 0,2.0663 -1.3856,4.1562 -3.5,4.1562 -1.1773,0 -1.9688,-0.7 -1.9688,-1.7812 0,-1.1533 0.97574,-2.5625 5.4688,-2.5625 z m 23.562,0 v 0.1875 c 0,2.0663 -1.3856,4.1562 -3.5,4.1562 -1.1773,0 -1.9375,-0.7 -1.9375,-1.7812 0,-1.1533 0.94449,-2.5625 5.4375,-2.5625 z m -58.125,5.6562 c 0.21624,0.024 0.54098,0.031 0.78125,0.031 h 2.4375 c 1.826,0 2.7188,0.7578 2.7188,2.0312 0,1.5858 -1.5373,2.6875 -4.1562,2.6875 -1.9942,0 -3.4688,-0.806 -3.4688,-2.3438 0,-1.0091 0.65435,-1.8777 1.6875,-2.4062 z"
       style="text-align:start;fill:#001a4b"
       id="text2987" />
    <path
       style="fill:#db502b;fill-rule:evenodd"
       inkscape:connector-curvature="0"
       d="m 240.57,962.91 c -8.1691,0 -14.781,6.6317 -14.781,14.781 0,8.1975 6.6121,14.844 14.781,14.844 8.1659,0 14.781,-6.6463 14.781,-14.844 0.01,-8.149 -6.61,-14.781 -14.78,-14.781 z m 0,2.1875 c 6.9342,0 12.625,5.6401 12.625,12.594 0,7.0008 -5.6908,12.688 -12.625,12.688 -6.9342,0 -12.625,-5.6867 -12.625,-12.688 0,-6.9538 5.691,-12.594 12.625,-12.594 z M 72.76,968.754 c -0.55996,0 -1,0.45654 -1,1 v 62.812 c 0,0.5435 0.44106,1 1,1 h 8.875 c 0.56016,0 1,-0.4576 1,-1 v -62.812 c 0,-0.54346 -0.43984,-1 -1,-1 z m 67.658,0.031 c -0.55996,0 -1,0.45654 -1,1 v 62.781 c 0,0.5579 0.44003,1 1,1 h 8.9062 c 0.55894,0 1,-0.4431 1,-1 v -19.406 c 0,-7.4174 4.343,-13.719 9.875,-13.719 4.0024,0 5.1875,2.6319 5.1875,7.0625 l -0.0312,26.062 c 0,0.5579 0.45858,1 1,1 h 8.8438 c 0.54142,0 1,-0.4431 1,-1 v -28.688 c 0,-7.4039 -3.0618,-13.531 -12.594,-13.531 -6.5453,0 -11.405,3.1469 -13.875,7.9062 l -0.2,-0.093 c 0.59946,-2.4725 0.78125,-6.0353 0.78125,-8.5938 v -19.781 c 0,-0.54346 -0.44106,-1 -1,-1 h -8.9062 z m 106.16,0.0937 -14.938,5.375 v 3.6875 l 4.9375,-1.7812 v 11.125 l 10,-3.5625 v -14.844 z m -215.85,19.937 c -8.1879,0 -16.046,8.0806 -20.219,14.812 -1.9426,3.4153 -4.5386,8.8446 -5.2812,14.2191 -0.74654,5.3588 0.12876,11.175 5.5,14.219 8.1329,4.6307 16.803,0.614 22.875,-4.0312 0.5455,-0.3858 1.0901,-0.8773 1.7188,-1.4062 1.5587,-1.3295 2.8784,-2.635 3.9062,-3.75 0.02893,-0.043 0.09585,-0.1138 0.125,-0.1563 1.2694,-1.3295 2.5932,-2.7794 3.9062,-4.2812 l 0.15625,0.3125 c 4.4161,7.8893 10.233,15.483 19.094,14.812 1.0713,-0.1856 1.049,-1.106 1.0625,-2.25 0.01448,-2.2298 -0.0625,-7.25 -0.0625,-7.25 0.02893,-0.7997 -0.58269,-1.2119 -1.625,-1.3125 -0.48643,-0.043 -1.4211,-0.055 -1.9375,-0.3125 -2.3564,-1.1574 -3.4783,-3.2907 -5.4062,-6.4062 -1.2735,-2.0585 -2.4576,-4.2957 -3.6875,-6.625 2.5024,-3.073 12.313,-15.46905 12.312,-15.46905 2.759,-3.774 1.233,-4.032 -1.281,-4.032 l -7.9688,-0.0312 c -1.1564,0.057 -1.9336,0.47139 -2.2188,0.84375 -0.67301,0.84309 -1.7633,2.2917 -2.9062,3.75 -1.2289,1.6012 -2.4042,3.1724 -3.5938,4.6875 -3.5013,-5.6874 -7.5781,-10.344 -14.469,-10.344 z m 177.78,0.4375 c -8.2024,0 -16.012,8.0806 -20.188,14.812 -1.9579,3.4153 -4.5522,8.8623 -5.2812,14.25 -0.74247,5.3588 0.1257,11.1431 5.5,14.1881 11.232,6.3877 23.484,-3.6855 28.5,-9.1876 0.35769,-0.3858 0.5273,-1.3225 0.125,-1.9375 l -4.7188,-6.0625 c -0.85675,-1.0154 -1.777,-1.1295 -2.9375,0 -2.9858,2.9153 -4.5888,5.3343 -9.375,7.4062 -3.516,1.5154 -5.4843,0.72 -6.1875,-0.4375 -1.8294,-2.9733 3.2611,-11.2569 3.875,-12.344 3.9152,-6.2734 8.0292,-9.2777 10.656,-9.4062 0.54448,-0.029 1.5439,0.2805 2.5312,1.2812 0.96959,0.9718 1.9934,2.4351 3.0938,4.25 2.2319,3.716 4.5499,8.5535 7.125,13.156 4.4014,7.8883 10.03,15.047 18.906,14.3751 1.0568,-0.1712 1.0312,-1.0748 1.0312,-2.2188 0.0145,-2.2434 -0.0625,-7.2812 -0.0625,-7.2812 0.0436,-0.7863 -0.5659,-1.1962 -1.5938,-1.2813 -0.48642,-0.044 -1.4211,-0.069 -1.9375,-0.3125 -2.3708,-1.1574 -3.1958,-2.899 -5.125,-6 -2.0451,-3.3157 -3.6711,-7.3003 -5.8438,-11.188 -4.4856,-8.0614 -8.8883,-16.062 -18.094,-16.062 z m -92.25,0.6875 c -6.3877,0 -10.892,2.9611 -13.281,7.9062 h -0.1875 c 0.24483,-1.6294 0.37715,-3.5982 0.40625,-5.3125 0.0145,-0.0436 9.1e-4,-0.9375 0,-0.9375 0,-0.5569 -0.42325,-1 -0.96875,-1 h -8.125 c -0.55588,0 -1,0.4431 -1,1 v 63.3441 c 0,0.5569 0.44412,1 1,1 h 8.875 c 0.55995,0 1.0312,-0.4431 1.0312,-1 v -1.0939 -20.5 c 1.8004,0.2572 3.3934,0.3437 5.4375,0.3437 14.635,0 22.312,-9.2793 22.312,-24 -0.001,-12.51895 -5.4525,-19.74995 -15.5,-19.74995 z m -3.1562,8.9375 c 4.9282,0 7.25,4.0828 7.25,12 0,10.476 -4.5238,14.3751 -10.656,14.3751 -2.1987,0 -3.9752,-0.2357 -5.6875,-0.75 v -11.7501 c 0,-7.2318 3.3907,-13.875 9.0938,-13.875 z m -82.432,1.218 c 0.52696,-0.029 1.5439,0.2804 2.5312,1.2812 0.97285,0.9718 2.0861,2.4204 3.1875,4.25 0.51535,0.8565 1.0637,1.7782 1.5938,2.75 -2.0017,2.4154 -3.9419,4.6413 -5.875,6.6562 -2.9454,2.8729 -5.0354,5.1915 -9.7812,7.25 -3.5158,1.5153 -5.4574,0.7055 -6.1562,-0.4375 -1.8149,-2.9733 3.2611,-11.288 3.875,-12.375 3.9183,-6.2736 8.0095,-9.2465 10.625,-9.375 z"
       id="_46617464" />
  </g>
</svg>
