<?xml version="1.0" encoding="UTF-8" standalone="no"?>
<svg
   xmlns:dc="http://purl.org/dc/elements/1.1/"
   xmlns:cc="http://creativecommons.org/ns#"
   xmlns:rdf="http://www.w3.org/1999/02/22-rdf-syntax-ns#"
   xmlns:svg="http://www.w3.org/2000/svg"
   xmlns="http://www.w3.org/2000/svg"
   xmlns:sodipodi="http://sodipodi.sourceforge.net/DTD/sodipodi-0.dtd"
   xmlns:inkscape="http://www.inkscape.org/namespaces/inkscape"
   version="1.1"
   width="1066.6667"
   height="1066.6667"
   viewBox="0 0 1066.6667 1066.6667"
   id="svg12"
   sodipodi:docname="de-Comedy_Central.svg"
   inkscape:version="0.92.5 (2060ec1f9f, 2020-04-08)">
  <defs
     id="defs16" />
  <sodipodi:namedview
     pagecolor="#ffffff"
     bordercolor="#666666"
     borderopacity="1"
     objecttolerance="10"
     gridtolerance="10"
     guidetolerance="10"
     inkscape:pageopacity="0"
     inkscape:pageshadow="2"
     inkscape:window-width="1920"
     inkscape:window-height="1019"
     id="namedview14"
     showgrid="false"
     inkscape:zoom="0.78562494"
     inkscape:cx="533.33337"
     inkscape:cy="533.33337"
     inkscape:window-x="0"
     inkscape:window-y="0"
     inkscape:window-maximized="1"
     inkscape:current-layer="svg12" />
  <metadata
     id="metadata2">
    <rdf:RDF>
      <cc:Work
         rdf:about="">
        <dc:format>image/svg+xml</dc:format>
        <dc:type
           rdf:resource="http://purl.org/dc/dcmitype/StillImage" />
        <dc:title />
      </cc:Work>
    </rdf:RDF>
  </metadata>
  <g
     transform="matrix(2.1760075,0,0,2.1760075,513.94154,560.69142)"
     id="g8"
     style="fill:none;stroke:#000000;stroke-width:34">
    <path
       d="m 48.930435,28.25 a 56.5,56.5 0 1 1 0,-56.5"
       id="path4"
       inkscape:connector-curvature="0" />
    <path
       d="m -119.6394,63.613397 a 135.5,135.5 0 1 0 0,-127.226794"
       id="path6"
       inkscape:connector-curvature="0" />
  </g>
  <path
     d="m 176.59257,1061.1643 c -0.31111,1.8329 0.64712,3.3618 2.01423,3.3618 h 11.58404 c 1.3689,0 2.27735,-1.5289 2.51735,-3.3618 l 4.02845,-30.6365 17.45784,33.3263 c 0.896,1.7067 4.45157,1.7067 5.37246,0 l 17.66762,-32.7343 4.06934,30.0445 c 0.24889,1.8329 0.38401,3.3618 2.30935,3.3618 h 12.42137 c 1.0489,0 1.63912,-1.5289 1.32268,-3.3618 l -11.6036,-67.14331 c -0.47467,-2.74311 -3.93779,-2.74311 -4.70046,-1.344 l -24.17253,44.31841 -24.17252,-44.31841 c -0.95112,-1.74401 -4.2898,-1.06311 -4.70046,1.344 z M -2.5976562e-5,1028.6007 C 0.21135252,1049.0274 16.517008,1065.2852 36.594232,1065.1928 c 8.387229,-0.034 17.923262,-2.8836 25.22142,-10.0711 0.67538,-0.6614 0.666314,-1.3067 -0.0416,-2.0125 l -9.400565,-9.4045 c -0.617247,-0.6116 -1.275205,-0.5956 -1.951474,0 -3.3593,2.9814 -8.492295,5.2036 -13.82778,5.3725 -11.170528,0.3573 -20.269048,-8.944 -20.479537,-20.4765 0.2096,-11.5327 9.309009,-20.8339 20.479537,-20.4819 5.335485,0.1689 10.46848,2.3965 13.82778,5.3725 0.676269,0.6025 1.334227,0.6185 1.951474,0 l 9.400565,-9.3992 c 0.707914,-0.7093 0.71698,-1.3495 0.0416,-2.0161 -7.298158,-7.18212 -16.834191,-10.03386 -25.22142,-10.07102 -20.077224,-0.0871 -36.38245278,16.16892 -36.594257976562,36.59572 z m 81.917792976562,0 c 0,20.2134 16.383701,36.5939 36.594253,36.5939 20.21074,0 36.59443,-16.3805 36.59443,-36.5939 0,-20.2081 -16.38369,-36.59391 -36.59443,-36.59391 -20.210552,0 -36.594253,16.38581 -36.594253,36.59391 z M 284.02583,994.94369 v 67.31221 c 0,1.2569 1.01156,2.272 2.26668,2.272 h 41.79747 c 1.2569,0 2.26668,-1.0151 2.26668,-2.272 v -10.9067 c 0,-1.2569 -1.00978,-2.2702 -2.26668,-2.2702 h -27.94854 v -13.4259 h 23.24808 c 1.2569,0 2.26668,-1.0133 2.26668,-2.2666 v -10.9121 c 0,-1.2568 -1.00978,-2.2648 -2.26668,-2.2648 h -23.24808 v -12.089 h 27.94854 c 1.2569,0 2.26668,-1.008 2.26668,-2.2649 v -10.91201 c 0,-1.25156 -1.00978,-2.2649 -2.26668,-2.2649 h -41.79747 c -1.25512,0 -2.26668,1.01334 -2.26668,2.2649 z m 73.27314,0.5049 v 66.30951 c 0,1.5289 1.2409,2.7698 2.76979,2.7698 h 25.93431 c 0.29866,0 0.57244,-0.06 0.84089,-0.1528 18.38229,-1.5716 32.81611,-16.9816 32.81611,-35.7744 0,-18.793 -14.43382,-34.19924 -32.81611,-35.77613 -0.26845,-0.0871 -0.54223,-0.14578 -0.84089,-0.14578 h -25.93431 c -1.52889,0 -2.76979,1.2409 -2.76979,2.7698 z m 77.26071,0 22.7023,34.18141 v 31.5805 c 0,1.8312 1.48089,3.3121 3.31557,3.3121 h 10.15648 c 1.83467,0 3.31556,-1.4809 3.31556,-3.3121 v -31.4561 l 22.78586,-34.30581 c 1.01689,-1.5289 0.34666,-2.7698 -1.488,-2.7698 h -11.6676 c -1.83646,0 -4.12446,1.2409 -5.14135,2.7698 l -12.84094,19.32271 -12.84271,-19.32452 c -1.01511,-1.52889 -3.32446,-2.76979 -5.1609,-2.76979 h -11.66582 c -1.83645,0 -2.48535,1.2409 -1.46845,2.76979 z M 98.031951,1028.6007 c 0,-11.3085 9.169269,-20.4801 20.480069,-20.4801 11.31044,0 20.47883,9.1716 20.47883,20.4801 0,11.3121 -9.16839,20.4783 -20.47883,20.4783 -11.3108,0 -20.480069,-9.1662 -20.480069,-20.4783 z m 275.299079,-20.4801 h 9.06313 c 11.31027,0 20.48008,9.1716 20.48008,20.4801 0,11.3121 -9.16981,20.4783 -20.48008,20.4783 h -9.06313 z m 471.20875,-13.92891 v 67.01881 c 0,1.8365 1.48089,3.3174 3.31376,3.3174 h 10.15651 c 1.8382,0 3.31729,-1.4809 3.31729,-3.3174 v -35.168 l 39.65702,38.9459 c 1.31204,1.2836 6.00006,-0.1422 6.00006,-1.9734 v -67.01886 c 0,-1.83823 -1.47916,-3.31735 -3.31737,-3.31735 h -10.15289 c -1.83648,0 -3.31738,1.47912 -3.31738,3.31735 v 36.42496 l -39.65521,-40.20275 c -0.32005,-0.32534 -0.86756,-0.48356 -1.49156,-0.50489 -1.87022,-0.0587 -4.51023,1.10044 -4.51023,2.47823 z m 160.31162,7.88621 c -0.6773,0.6667 -0.6666,1.3067 0.039,2.016 l 9.3992,9.3992 c 0.6168,0.6187 1.2729,0.6027 1.9501,0 3.3619,-2.976 8.4943,-5.2036 13.8277,-5.3725 11.1716,-0.352 20.2739,8.9494 20.4783,20.4819 -0.2044,11.5325 -9.3067,20.8338 -20.4783,20.4765 -5.3334,-0.1689 -10.4658,-2.3911 -13.8277,-5.3725 -0.6772,-0.5956 -1.3333,-0.6116 -1.9501,0 l -9.3992,9.4045 c -0.7111,0.7058 -0.7165,1.3511 -0.039,2.0125 7.2961,7.1822 16.8303,10.0373 25.2215,10.0711 20.0782,0.087 36.3823,-16.1654 36.5939,-36.5921 -0.2116,-20.4268 -16.5157,-36.68282 -36.5939,-36.59571 -8.3912,0.032 -17.9254,2.8889 -25.2215,10.07111 z m -461.7989,-7.19821 v 11.04181 c 0,1.2196 0.98666,2.1991 2.20622,2.1991 h 23.98586 v 54.2011 c 0,1.2196 0.98134,2.2009 2.2009,2.2009 h 12.38049 c 1.21956,0 2.20089,-0.9813 2.20089,-2.2009 0,-16.2507 0,-45.6144 0,-67.44201 0.0871,-1.21422 -0.98133,-2.2009 -2.20089,-2.2009 h -38.56725 c -1.21956,0 -2.20622,0.98134 -2.20622,2.2009 z m 64.00021,0 32.35389,69.64291 c 0.78045,1.6747 3.65335,1.6747 4.42846,0 l 32.377,-69.64291 c 0.5689,-1.21956 -0.0587,-2.2009 -1.40267,-2.2009 h -11.52004 c -1.34934,0 -2.89423,0.98134 -3.46313,2.2009 l -3.96801,8.54221 h -28.36454 l -3.96801,-8.54221 c -0.56889,-1.21956 -2.09779,-2.2009 -3.44179,-2.2009 h -11.62138 c -1.35111,0 -1.97333,0.98134 -1.40978,2.2009 z m 86.40741,47.82421 c 0,12.0498 9.77426,21.8187 21.8223,21.8187 11.18404,0 19.71028,0 30.46943,0 1.5289,0 2.7698,-1.2356 2.7698,-2.7716 v -66.30241 c 0,-1.5289 -1.2409,-2.7698 -2.7698,-2.7698 h -10.57603 c -1.52711,0 -2.76979,1.2409 -2.76979,2.7698 v 25.43301 h -6.25425 l -13.88804,-25.76902 c -0.72534,-1.34401 -2.54223,-2.43379 -4.07113,-2.43379 h -12.54759 c -1.52889,0 -2.17424,1.08978 -1.44712,2.43379 l 14.43383,26.79302 c -8.79647,2.8142 -15.17161,11.0631 -15.17161,20.7983 z m 78.56027,8.5813 v 11.0365 c 0,1.2196 0.98489,2.2009 2.20445,2.2009 h 45.2837 c 1.21961,0 2.20093,-0.9813 2.20093,-2.2009 v -11.0365 c 0,-1.2195 -0.98132,-2.2062 -2.20093,-2.2062 h -14.58671 v -54.19931 c 0,-1.21956 -0.98132,-2.2009 -2.20085,-2.2009 h -11.70849 c -1.21961,0 -2.20627,0.98134 -2.20627,2.2009 v 54.19931 h -14.58138 c -1.21956,0 -2.20445,0.9867 -2.20445,2.2062 z M 933.8432,994.94369 v 10.91201 c 0,1.2569 1.01334,2.2649 2.26661,2.2649 h 27.94681 v 13.4329 H 940.8085 c -1.25154,0 -2.26668,1.008 -2.26668,2.2667 v 10.9103 c 0,1.2534 1.01514,2.2667 2.26668,2.2667 h 23.24812 v 12.0818 h -27.94681 c -1.25327,0 -2.26661,1.0133 -2.26661,2.2649 v 10.912 c 0,1.2569 1.01334,2.2667 2.26661,2.2667 h 41.79754 c 1.25688,0 2.26488,-1.0098 2.26488,-2.2667 v -67.31221 c 0,-1.25689 -1.008,-2.2649 -2.26488,-2.2649 h -41.79754 c -1.25327,0 -2.26661,1.00801 -2.26661,2.2649 z m -299.78595,22.57781 h 15.23739 l -7.62136,16.3912 z m 75.51848,24.1744 c 0,-4.4498 3.61068,-8.0605 8.06047,-8.0605 h 14.76983 v 16.1156 H 717.6362 c -4.44979,0 -8.06047,-3.6054 -8.06047,-8.0551 z"
     id="path10"
     inkscape:connector-curvature="0"
     style="stroke-width:1.77778375" />
</svg>
