<?xml version="1.0" encoding="UTF-8" standalone="no"?>
<!-- Generator: Adobe Illustrator 22.1.0, SVG Export Plug-In . SVG Version: 6.00 Build 0)  -->

<svg
   xmlns:dc="http://purl.org/dc/elements/1.1/"
   xmlns:cc="http://creativecommons.org/ns#"
   xmlns:rdf="http://www.w3.org/1999/02/22-rdf-syntax-ns#"
   xmlns:svg="http://www.w3.org/2000/svg"
   xmlns="http://www.w3.org/2000/svg"
   xmlns:sodipodi="http://sodipodi.sourceforge.net/DTD/sodipodi-0.dtd"
   xmlns:inkscape="http://www.inkscape.org/namespaces/inkscape"
   version="1.1"
   id="Livello_1"
   x="0px"
   y="0px"
   viewBox="0 0 1066.6667 1066.6668"
   xml:space="preserve"
   sodipodi:docname="de-DMAX.svg"
   width="1066.6667"
   height="1066.6667"
   inkscape:version="0.92.5 (2060ec1f9f, 2020-04-08)"><metadata
   id="metadata15"><rdf:RDF><cc:Work
       rdf:about=""><dc:format>image/svg+xml</dc:format><dc:type
         rdf:resource="http://purl.org/dc/dcmitype/StillImage" /><dc:title /></cc:Work></rdf:RDF></metadata><defs
   id="defs13" /><sodipodi:namedview
   pagecolor="#ffffff"
   bordercolor="#666666"
   borderopacity="1"
   objecttolerance="10"
   gridtolerance="10"
   guidetolerance="10"
   inkscape:pageopacity="0"
   inkscape:pageshadow="2"
   inkscape:window-width="1920"
   inkscape:window-height="1019"
   id="namedview11"
   showgrid="false"
   inkscape:zoom="0.70360673"
   inkscape:cx="152.0065"
   inkscape:cy="518.7862"
   inkscape:window-x="0"
   inkscape:window-y="0"
   inkscape:window-maximized="1"
   inkscape:current-layer="Livello_1" />
<style
   type="text/css"
   id="style2">
	.st0{fill:#D13424;}
	.st1{fill:#FEFEFE;}
</style>
<g
   id="g8"
   transform="matrix(1.8599246,0,0,1.8599246,-5.0265625e-6,337.8553)">
	<polygon
   class="st0"
   points="573.5,0 0,0 0,210.2 573.5,210.2 "
   id="polygon4"
   style="fill:#d13424" />
	<path
   class="st1"
   d="m 414.8,47.8 v 0 h 34.9 39.3 33.9 l -36.9,54 40.3,59.9 h -36.1 -44.7 -34.1 l 40.5,-59.9 z m -78.9,0 v 0 H 366 l 42.6,113.9 H 293.3 Z m -173.2,0 v 0 h 43.8 L 226,110 246,47.8 h 43.8 v 113.9 h -127 V 47.8 Z m -112.5,0 v 0 h 49 c 34.9,0 55.9,21.2 55.9,56.5 0,37.2 -21.2,57.4 -55.9,57.4 h -49 z"
   id="path6"
   inkscape:connector-curvature="0"
   style="fill:#fefefe" />
</g>
</svg>