<?xml version="1.0" encoding="UTF-8" standalone="no"?>
<!-- Created with Inkscape (http://www.inkscape.org/) -->

<svg
   xmlns:dc="http://purl.org/dc/elements/1.1/"
   xmlns:cc="http://creativecommons.org/ns#"
   xmlns:rdf="http://www.w3.org/1999/02/22-rdf-syntax-ns#"
   xmlns:svg="http://www.w3.org/2000/svg"
   xmlns="http://www.w3.org/2000/svg"
   xmlns:sodipodi="http://sodipodi.sourceforge.net/DTD/sodipodi-0.dtd"
   xmlns:inkscape="http://www.inkscape.org/namespaces/inkscape"
   version="1.0"
   width="1066.6667"
   height="1066.6667"
   id="svg2174"
   sodipodi:docname="de-Deluxemusic.svg"
   inkscape:version="0.92.5 (2060ec1f9f, 2020-04-08)">
  <metadata
     id="metadata10">
    <rdf:RDF>
      <cc:Work
         rdf:about="">
        <dc:format>image/svg+xml</dc:format>
        <dc:type
           rdf:resource="http://purl.org/dc/dcmitype/StillImage" />
        <dc:title></dc:title>
      </cc:Work>
    </rdf:RDF>
  </metadata>
  <sodipodi:namedview
     pagecolor="#ffffff"
     bordercolor="#666666"
     borderopacity="1"
     objecttolerance="10"
     gridtolerance="10"
     guidetolerance="10"
     inkscape:pageopacity="0"
     inkscape:pageshadow="2"
     inkscape:window-width="1920"
     inkscape:window-height="1019"
     id="namedview8"
     showgrid="false"
     inkscape:zoom="0.55552072"
     inkscape:cx="185.64585"
     inkscape:cy="449.50208"
     inkscape:window-x="0"
     inkscape:window-y="0"
     inkscape:window-maximized="1"
     inkscape:current-layer="svg2174" />
  <defs
     id="defs2176" />
  <rect
     style="fill:#ffffff;fill-opacity:1;stroke:#00f3ff;stroke-width:1.58466768;stroke-opacity:1"
     id="rect827"
     width="1065.082"
     height="222.62933"
     x="0.79233384"
     y="855.46881" />
  <g
     id="layer1"
     transform="matrix(2.1198002,0,0,2.1198002,-29.999321,-99.554875)">
    <g
       id="g2203">
      <path
         d="m 151.96251,529.81405 c 0,3.98941 1.09736,11.82791 12.07169,15.60685 5.28732,2.25106 14.16685,3.79063 29.8311,3.79063 11.17453,0 29.73118,-0.76961 37.41343,-9.17929 3.89055,-4.19917 4.09004,-10.28835 4.09004,-16.09724 v -25.89414 h -26.58296 v 26.01213 c 0,2.37791 -0.10736,6.85453 -4.38909,9.65799 -1.70185,1.11402 -4.04681,2.73012 -10.63134,2.73012 -5.08819,0 -10.01941,-1.05697 -13.22539,-4.89933 -1.58067,-1.89461 -1.99524,-4.12973 -1.99524,-7.20851 v -26.2924 H 151.96251 Z M 25.527038,547.45263 h 21.288897 v -37.25787 l 17.042598,37.25787 h 19.879724 l 17.231813,-37.39606 v 37.39606 h 21.47811 V 498.04122 H 87.984911 L 74.034557,528.86445 60.086329,498.04122 H 25.527038 Z M 300.41396,507.79594 c 10.84004,0 12.06744,2.83748 12.68079,4.39122 l 25.36228,-0.94571 c -0.7161,-2.56712 -2.4548,-9.25511 -15.95338,-12.09259 -4.5,-1.01268 -13.19245,-1.82339 -21.988,-1.82339 -7.97633,0 -22.49787,0.54 -30.57696,6.07961 -3.5791,2.43212 -5.8291,5.74192 -5.8291,9.32244 0,8.71476 11.5565,11.41724 14.31709,12.09224 2.76165,0.60839 5.42019,1.08071 8.2839,1.48606 3.57874,0.54071 19.83968,2.43213 23.00917,3.10784 2.04626,0.47303 4.80649,1.41909 4.80649,3.64748 0,1.62177 -1.84004,2.97212 -3.57874,3.64854 -2.55649,0.94536 -6.3411,1.14803 -9,1.14803 -10.22633,0 -15.03318,-3.80551 -15.95303,-6.91228 l -25.46397,0.47268 c 0.40889,2.16141 1.34468,7.98236 7.56815,11.64118 8.50181,4.99925 22.90677,5.41559 30.16807,5.41559 19.43043,0 31.59956,-2.64579 37.63311,-8.65807 2.14795,-2.0941 3.83067,-4.9989 3.78354,-8.17441 -0.26008,-17.50358 -50.09386,-16.38567 -50.62075,-19.99559 -0.51023,-3.49654 7.97634,-3.85087 11.35134,-3.85087 z m 65.52886,-9.75472 v 49.41141 h 26.95039 v -49.41141 z m 99.43228,9.96023 c 3.33531,0 7.70386,0.54426 11.21031,2.23937 3.44162,1.66394 4.54004,3.56953 5.46626,4.96878 l 22.40008,-3.65952 c -2.13094,-4.68922 -7.13374,-15.60685 -38.91224,-15.60685 -37.24406,0 -43.91504,17.28637 -43.91504,26.87421 0,13.5776 11.11783,21.34559 24.55228,24.49559 6.0215,1.4113 12.3215,1.83082 18.71398,1.83082 14.36138,0 29.36976,-2.53098 37.05909,-11.48881 2.13166,-2.52 2.9654,-4.33949 3.70595,-6.15934 l -23.0478,-3.19074 c -0.74197,1.46976 -1.66287,3.08622 -4.72535,4.96949 -3.42071,2.10437 -8.1528,4.00996 -13.24843,4.00996 -13.43409,0 -17.10992,-7.048 -17.10992,-14.53678 0,-10.49775 7.28929,-14.74618 17.85083,-14.74618 z"
         style="fill:#710000;fill-rule:evenodd"
         id="path2159"
         inkscape:connector-curvature="0" />
      <path
         d="M 14.15196,486.37431 H 517.34407 V 46.964273 H 14.15196 Z m 375.20078,-70.79527 -11.67236,-20.2174 h -27.30473 l 23.86559,34.07846 -26.30728,39.49795 h 27.32209 l 14.81704,-23.58957 15.22453,23.58957 h 29.67413 l -28.24263,-39.60248 23.24055,-33.97393 h -26.57552 z m -126.1024,23.55307 c 0.22713,7.71236 0.3398,15.94523 8.28602,23.03185 5.90315,5.21078 16.11957,8.77145 27.92481,8.77145 12.37358,0 21.68114,-3.76937 27.47125,-8.77145 9.4213,-8.23323 9.4213,-19.17532 9.4213,-27.6176 v -39.18472 h -25.54015 v 45.95881 c 0,3.12697 -0.11445,6.35705 -3.06567,8.96315 -1.47544,1.25008 -4.0865,2.60469 -8.05925,2.60469 -2.95122,0 -6.01689,-0.72886 -8.05996,-2.70957 -2.83748,-2.50122 -2.95123,-5.7313 -2.95123,-8.85827 v -45.95881 h -25.42712 z m -72.57543,29.80594 h 60.33508 V 450.38742 H 213.9151 v -55.02578 h -23.24019 z m -81.19701,0 h 64.5176 v -16.66559 h -39.98161 v -14.59027 h 35.72645 V 422.4573 h -35.72645 v -11.66279 h 38.13625 V 395.36164 H 109.4779 Z m 334.25539,0 h 64.51689 v -16.66559 h -39.98091 v -14.59027 h 35.72681 V 422.4573 h -35.72681 v -11.66279 h 38.13591 v -15.43287 h -62.67189 z m -421.306291,0 h 30.638976 c 7.190432,0 13.756535,0 19.696534,-1.98035 14.798977,-4.89827 20.634803,-19.59201 20.634803,-35.1202 0,-10.42228 -2.605393,-20.94768 -10.212874,-28.03464 -8.649921,-8.1287 -19.279842,-8.23288 -35.746298,-8.44122 H 22.426999 Z M 54.524754,412.5573 c 4.585748,0.208 10.421575,0.4167 13.548543,8.75374 1.14626,3.02245 1.875472,6.56575 1.875472,10.83863 0,6.87826 -1.980354,13.13078 -5.523307,16.46574 -3.231141,3.12697 -6.46122,3.23115 -9.79618,3.43949 h -8.858268 v -39.4976 z"
         style="fill:#710000;fill-rule:evenodd"
         id="path2169"
         inkscape:connector-curvature="0"
         sodipodi:nodetypes="ccccccccccccccccccccscsccscscscccccccccccccccccccccccccccccccccccccscsccccccsccccc" />
    </g>
  </g>
  <path
     style="fill:#ffffff;fill-opacity:1;stroke:#00f3ff;stroke-width:1.80011284;stroke-opacity:1"
     d="m 18.59538,816.14039 v -77.82231 l 45.45285,1.07975 c 31.906844,0.75797 48.35018,1.88329 55.17467,3.77596 30.98429,8.59301 47.1794,33.38871 47.14593,72.18331 -0.0259,30.04813 -6.52171,47.33811 -23.52985,62.6299 -15.16115,13.63117 -19.02053,14.4138 -75.190525,15.24757 l -49.053075,0.72812 z m 82.16632,39.59281 c 6.16381,-2.98385 8.69448,-5.76289 12.69636,-13.94242 9.35744,-19.12592 6.07722,-48.43048 -6.8034,-60.77969 -5.1871,-4.97309 -6.44698,-5.28983 -23.369511,-5.87519 l -17.886835,-0.61871 v 42.47134 42.47133 h 13.832564 c 10.309897,0 15.793037,-0.94905 21.530822,-3.72666 z"
     id="path815"
     inkscape:connector-curvature="0" />
  <path
     style="fill:#ffffff;fill-opacity:1;stroke:#00f3ff;stroke-width:1.80011284;stroke-opacity:1"
     d="M 202.20689,816.25715 V 738.8523 h 65.70412 65.70412 v 16.20101 16.20102 h -40.50254 -40.50254 v 12.60079 12.60079 h 37.80237 37.80237 v 15.30096 15.30096 h -37.80237 -37.80237 v 16.20102 16.20101 h 42.30266 42.30265 v 17.10107 17.10108 h -67.50423 -67.50424 z"
     id="path817"
     inkscape:connector-curvature="0" />
  <path
     style="fill:#ffffff;fill-opacity:1;stroke:#00f3ff;stroke-width:1.80011284;stroke-opacity:1"
     d="M 375.01773,816.25715 V 738.8523 h 23.40147 23.40146 v 58.50367 58.50367 h 39.60249 39.60248 v 18.90118 18.90119 h -63.00395 -63.00395 z"
     id="path819"
     inkscape:connector-curvature="0" />
  <path
     style="fill:#ffffff;fill-opacity:1;stroke:#00f3ff;stroke-width:1.80011284;stroke-opacity:1"
     d="m 577.10659,894.48719 c -12.80391,-3.44825 -25.87306,-10.29795 -32.72853,-17.15342 -13.93462,-13.93462 -16.26943,-27.50229 -16.31876,-94.82873 l -0.032,-43.65274 h 26.10164 26.10164 l 0.1073,47.25296 c 0.12475,54.93735 1.07086,63.35658 7.76685,69.11623 9.54379,8.20923 26.79441,7.64912 35.5994,-1.15588 l 5.12949,-5.12949 V 793.89421 738.8523 h 27.0017 27.00169 l -0.0357,45.45285 c -0.0196,24.99907 -0.83143,50.95642 -1.80403,57.68301 -3.98993,27.59448 -20.41085,44.93101 -49.81148,52.5889 -12.87974,3.35474 -41.46524,3.30724 -54.07927,-0.0899 z"
     id="path821"
     inkscape:connector-curvature="0" />
  <path
     style="fill:#ffffff;fill-opacity:1;stroke:#00f3ff;stroke-width:1.80011284;stroke-opacity:1"
     d="m 710.96573,891.41186 c 0.73671,-1.23757 12.692,-19.2612 26.56731,-40.05251 13.8753,-20.7913 25.23283,-39.01744 25.23894,-40.50254 0.006,-1.48509 -10.6863,-17.86898 -23.76091,-36.40865 -13.0746,-18.53966 -23.77201,-34.13314 -23.77201,-34.65217 0,-0.51903 12.35328,-0.92127 27.45172,-0.89386 l 27.45172,0.0498 12.2968,21.55152 c 6.76324,11.85333 12.60561,21.55152 12.98304,21.55152 0.37744,0 7.36095,-9.72061 15.51892,-21.60136 l 14.83267,-21.60135 h 26.6377 c 14.65074,0 26.6377,0.42742 26.6377,0.94981 0,0.5224 -10.53066,16.26541 -23.40146,34.98447 -12.87081,18.71906 -23.40147,34.77665 -23.40147,35.68352 0,0.90688 12.38594,18.98349 27.52432,40.17025 15.13838,21.18675 28.147,39.53394 28.90805,40.77151 1.08599,1.76598 -5.12693,2.24678 -28.87441,2.23451 l -30.25813,-0.0156 -16.40236,-25.40237 -16.40236,-25.40236 -15.85396,25.418 -15.85397,25.41801 h -27.70366 c -21.67725,0 -27.41229,-0.48948 -26.36419,-2.25015 z"
     id="path823"
     inkscape:connector-curvature="0" />
  <path
     style="fill:#ffffff;fill-opacity:1;stroke:#00f3ff;stroke-width:1.80011284;stroke-opacity:1"
     d="M 911.45137,816.25715 V 738.8523 h 65.70412 65.70411 v 16.20101 16.20102 h -40.5025 -40.50257 v 12.60079 12.60079 h 37.80237 37.8024 v 15.30096 15.30096 h -37.8024 -37.80237 v 16.20102 16.20101 h 42.30267 42.3026 v 17.10107 17.10108 h -67.5042 -67.50423 z"
     id="path825"
     inkscape:connector-curvature="0" />
</svg>
