<?xml version="1.0" encoding="UTF-8" standalone="no"?>
<!-- Created with Inkscape (http://www.inkscape.org/) -->

<svg
   xmlns:dc="http://purl.org/dc/elements/1.1/"
   xmlns:cc="http://creativecommons.org/ns#"
   xmlns:rdf="http://www.w3.org/1999/02/22-rdf-syntax-ns#"
   xmlns:svg="http://www.w3.org/2000/svg"
   xmlns="http://www.w3.org/2000/svg"
   xmlns:sodipodi="http://sodipodi.sourceforge.net/DTD/sodipodi-0.dtd"
   xmlns:inkscape="http://www.inkscape.org/namespaces/inkscape"
   version="1.1"
   id="svg2"
   width="1066.6667"
   height="1066.6667"
   viewBox="0 0 1066.6667 1066.6667"
   sodipodi:docname="de-DeLuxe_Music.svg"
   inkscape:version="0.92.5 (2060ec1f9f, 2020-04-08)">
  <metadata
     id="metadata8">
    <rdf:RDF>
      <cc:Work
         rdf:about="">
        <dc:format>image/svg+xml</dc:format>
        <dc:type
           rdf:resource="http://purl.org/dc/dcmitype/StillImage" />
        <dc:title />
      </cc:Work>
    </rdf:RDF>
  </metadata>
  <defs
     id="defs6" />
  <sodipodi:namedview
     pagecolor="#ffffff"
     bordercolor="#666666"
     borderopacity="1"
     objecttolerance="10"
     gridtolerance="10"
     guidetolerance="10"
     inkscape:pageopacity="0"
     inkscape:pageshadow="2"
     inkscape:window-width="1920"
     inkscape:window-height="1019"
     id="namedview4"
     showgrid="false"
     inkscape:zoom="0.78562494"
     inkscape:cx="533.33337"
     inkscape:cy="533.33337"
     inkscape:window-x="0"
     inkscape:window-y="0"
     inkscape:window-maximized="1"
     inkscape:current-layer="svg2" />
  <g
     id="g849"
     transform="matrix(1.9200105,0,0,1.9200105,-491.7662,-489.89099)">
    <g
       id="g817">
      <path
         inkscape:connector-curvature="0"
         id="path831"
         d="m 410.655,731.22122 c -66.36024,-38.56168 -121.70499,-71.05468 -122.98832,-72.20665 -2.19056,-1.96635 -2.33334,-9.7002 -2.33334,-126.39127 0,-97.83939 0.35476,-124.57979 1.66667,-125.62641 3.41453,-2.72405 244.0899,-142.02027 246.16902,-142.47579 1.19037,-0.2608 57.66432,31.81088 125.49766,71.27043 l 123.33333,71.74462 0.34014,124.6858 c 0.32044,117.46832 0.20468,124.80379 -2,126.72426 -4.80703,4.18734 -244.04392,142.38715 -246.48557,142.38715 -1.39953,0 -56.83935,-31.55047 -123.19959,-70.11214 z m 79.00487,-100.54179 c 8.09979,-3.03052 16.4288,-10.89282 21.20071,-20.01274 3.04316,-5.81599 3.13944,-6.9814 3.13944,-38.00001 v -32 l -9.66667,-0.39174 -9.66667,-0.39175 v 29.86124 c 0,28.77227 -0.10933,30.02198 -3,34.26915 -6.80172,9.9938 -17.21073,12.72588 -26.48305,6.95105 -8.26159,-5.14533 -8.45176,-5.966 -9.18362,-39.63128 l -0.66666,-30.66667 -9.77144,-0.39386 -9.77143,-0.39386 0.43809,32.39386 c 0.4124,30.49335 0.61542,32.75369 3.46014,38.52701 4.91585,9.97659 14.38481,18.27086 24.30268,21.28774 6.42354,1.95396 18.44513,1.29446 25.66848,-1.40814 z m 93.36501,0.81347 c 12.57121,-3.78337 19.55087,-12.51509 19.61253,-24.53571 0.0637,-12.43702 -7.69234,-21.247 -24.72243,-28.08159 -16.39519,-6.57978 -21.44366,-9.44729 -23.12342,-13.13397 -1.2389,-2.71909 -1.1547,-4.00623 0.41919,-6.40829 4.27639,-6.5266 16.24783,-5.1192 24.21365,2.84662 l 4.73871,4.7387 8.58512,-2.32388 c 10.02178,-2.71276 10.55352,-4.14403 4.59538,-12.369 -8.87247,-12.24811 -24.2803,-17.18316 -40.86779,-13.08979 -15.28882,3.77289 -23.14247,12.66769 -23.14247,26.21045 0,13.65479 8.4624,21.9211 29.33333,28.65358 10.27216,3.31356 17.00792,6.9006 18.62228,9.91705 3.05184,5.70243 -4.19796,13.41628 -12.60918,13.41628 -5.19678,0 -13.16024,-4.59264 -17.63468,-10.17016 l -3.98583,-4.96845 -8.22463,3.0758 c -4.52354,1.69169 -8.48457,3.49643 -8.8023,4.01051 -0.97568,1.57869 8.28602,14.28936 12.7046,17.43566 2.29298,1.63275 6.66522,3.74931 9.71608,4.70344 7.40009,2.31436 23.00022,2.35148 30.57186,0.0728 z m 139.80182,-2.41937 c 8.36051,-3.83134 16.61976,-10.73571 20.22266,-16.90527 l 2.38266,-4.08004 -8.12368,-4.10083 -8.12366,-4.10081 -6.62032,5.95224 c -8.37711,7.53175 -16.30152,9.60995 -26.5283,6.95716 -21.1962,-5.49823 -28.38537,-32.8645 -12.53751,-47.72523 11.51673,-10.79936 31.22009,-9.98351 41.05094,1.69981 1.80311,2.14287 3.93705,3.89612 4.74211,3.89612 1.96169,0 14.33172,-6.31178 15.23528,-7.77378 1.27552,-2.06383 -6.99231,-11.76482 -14.1853,-16.64418 -29.40429,-19.94644 -67.90923,-3.65486 -74.4044,31.48078 -4.1642,22.52625 9.50436,45.25532 32.16831,53.49179 8.91231,3.23889 25.15991,2.23385 34.72121,-2.14776 z M 342.66668,606.68309 c 0.55476,-20.51262 1.00237,-24.70889 2.66666,-24.99949 1.26266,-0.22048 5.31476,4.84336 10.99111,13.73541 8.61643,13.49768 9.16879,14.06718 13.25451,13.66616 3.80181,-0.37318 5.17992,-1.86203 12.72892,-13.75182 12.36617,-19.47692 12.87071,-19.05931 13.69213,11.33334 l 0.66667,24.66666 h 8.66667 8.66666 l 0.35091,-45.72307 0.35089,-45.72306 -10.26218,0.38973 -10.26219,0.38973 -10.80189,16.97986 c -5.94106,9.33892 -11.53765,17.71558 -12.43687,18.61481 -2.26519,2.26519 -4.36319,-0.21575 -16.85214,-19.928 l -10.34817,-16.33333 h -9.86919 -9.86917 v 45.1111 c 0,24.81113 0.42537,45.5365 0.94528,46.05641 0.51991,0.51989 4.56991,0.76989 9,0.55554 l 8.05472,-0.38972 z m 293.89095,24.50761 c 1.86586,-0.71599 2.10906,-6.02715 2.10906,-46.05842 v -45.24909 l -9.66667,0.39175 -9.66667,0.39174 -0.35161,44.57668 c -0.27429,34.77507 0.0189,44.81187 1.33333,45.64626 1.98372,1.25923 13.2037,1.4672 16.24256,0.30108 z M 373.14074,520.71151 c 13.59763,-7.53156 19.70649,-19.21179 18.54417,-35.45675 -0.75467,-10.54747 -4.86514,-18.73632 -12.6089,-25.11939 -8.09351,-6.67134 -14.56839,-8.13536 -35.98019,-8.13536 h -19.09581 v 36.78382 36.78381 l 21,-0.45048 c 20.3908,-0.43741 21.20715,-0.56521 28.14073,-4.40565 z m -32.84338,-11.16617 c -1.28816,-0.81748 -1.61274,-6.08687 -1.33334,-21.64624 l 0.36932,-20.56575 9.29707,-0.40103 c 17.37559,-0.74948 27.34115,6.34508 28.32371,20.16388 1.00983,14.20247 -9.41844,23.58896 -26.16382,23.55007 -4.83466,-0.0107 -9.55648,-0.50665 -10.49294,-1.10093 z m 115.03599,8.45468 v -6.66667 l -14.66667,-0.3288 c -20.99741,-0.47073 -20.89464,-0.4302 -20.40463,-8.04783 l 0.40463,-6.29004 14,-0.66666 14,-0.66667 v -6.66667 -6.66666 l -11.33333,-0.33438 c -17.39299,-0.51316 -17.55083,-0.58752 -17.0713,-8.04225 l 0.40463,-6.29004 17.33333,-0.66667 17.33334,-0.66667 v -6.66666 -6.66667 h -25.33334 -25.33333 l -0.35648,34.64478 c -0.19605,19.05462 -0.0597,35.41792 0.30283,36.36286 0.51254,1.33568 6.23066,1.63732 25.6898,1.35523 l 25.03052,-0.36287 z m 72.40301,-0.33334 0.40302,-7 h -15.96063 c -8.77835,0 -16.90971,-0.36418 -18.06968,-0.80932 -1.83224,-0.70309 -2.10905,-4.55314 -2.10905,-29.33333 v -28.52402 h -7.33334 -7.33333 v 36.6961 36.69608 l 25,-0.36275 25,-0.36276 z m 57.15308,3.89314 c 2.94969,-1.50482 7.24027,-4.87406 9.53463,-7.48719 6.75839,-7.69737 8.36723,-15.83872 7.94419,-40.20055 l -0.36824,-21.2054 -7,-0.40301 -7,-0.40302 -0.0319,19.73635 c -0.0379,23.52904 -1.11721,29.16986 -6.50511,33.9982 -7.9348,7.11076 -19.48292,5.61899 -26.0437,-3.3643 -2.52822,-3.46174 -2.75271,-5.63654 -2.75271,-26.66667 v -22.89755 h -7.33333 -7.33334 l -0.36824,21.2054 c -0.2797,16.10804 0.12947,22.91739 1.70219,28.32739 3.10763,10.68984 10.68612,18.26031 21.99076,21.96744 5.32003,1.74461 17.72483,0.37219 23.56472,-2.60709 z m 53.58553,-5.5598 c 3.75314,-5.60016 6.70684,-8.66667 8.34782,-8.66667 1.65578,0 4.51067,3.01604 8.20363,8.66667 l 5.66408,8.66666 8.98809,0.39426 c 4.94346,0.21684 8.9881,-0.0935 8.9881,-0.68946 0,-0.59604 -4.8,-8.52588 -10.66667,-17.62185 -5.86667,-9.09599 -10.66667,-17.23705 -10.66667,-18.09127 0,-0.85421 4.57382,-8.70179 10.16403,-17.43907 5.59021,-8.73726 10.46559,-16.66508 10.83416,-17.61734 0.51828,-1.33906 -1.40731,-1.6412 -8.49736,-1.33334 l -9.16749,0.39807 -5.87114,9 c -3.22912,4.95 -6.82912,8.99359 -8,8.98575 -1.17088,-0.008 -4.82886,-4.20143 -8.12886,-9.31908 l -6,-9.30483 -9,-0.0143 c -4.95,-0.008 -9,0.37927 -9,0.86026 0,0.48097 4.8,8.25997 10.66666,17.28668 5.86667,9.02669 10.66667,17.30791 10.66667,18.40268 0,1.09479 -4.55141,9.00069 -10.11427,17.56869 -5.56284,8.56802 -10.43821,16.4224 -10.83416,17.45423 -0.58429,1.52267 1.00683,1.80104 8.4476,1.47795 l 9.1675,-0.39806 z m 105.52505,2 v -7.33334 h -16.61976 c -15.06685,0 -16.74872,-0.24097 -18,-2.57901 -1.85192,-3.46036 -1.74586,-8.52203 0.21976,-10.48765 1.02676,-1.02676 6.28148,-1.6 14.66667,-1.6 h 13.06667 v -7.33334 -7.33333 h -13.28643 c -14.39185,0 -16.04691,-0.85732 -16.04691,-8.31235 0,-5.65708 2.15063,-6.35432 19.6,-6.35432 h 16.4 v -7.33333 -7.33334 h -25.33333 -25.33334 v 36.66667 36.66667 h 25.33334 25.33333 z"
         style="fill:#ffffff;fill-opacity:1;stroke-width:1.33333337" />
      <path
         inkscape:connector-curvature="0"
         id="path829"
         d="m 409.33335,729.00401 -122.00001,-71.03 -0.34013,-124.76315 -0.34013,-124.76315 123.22777,-71.55718 c 67.77527,-39.35645 123.5367,-71.55719 123.91427,-71.55719 0.99387,0 243.28305,140.79503 245.60413,142.72137 1.68713,1.40018 1.90227,18.21597 1.60761,125.65693 l -0.34017,124.04043 -121.33334,70.65853 c -66.73333,38.8622 -122.83333,70.87564 -124.66667,71.14097 -2.48118,0.35911 -34.52205,-17.67604 -125.33333,-70.54756 z m 85.28103,-99.10048 c 7.90365,-4.29762 16.16118,-13.69226 18.94262,-21.55115 1.29082,-3.64716 1.77635,-13.76564 1.77635,-37.01903 v -32 h -10.66667 -10.66666 l -0.66667,30.73031 c -0.72007,33.19205 -1.13633,35.12491 -8.62077,40.02891 -4.18239,2.7404 -14.57607,2.7404 -18.75846,0 -7.48444,-4.904 -7.90071,-6.83686 -8.62077,-40.02891 l -0.66667,-30.73031 h -10.66667 -10.66666 l -0.35947,29.90221 c -0.40048,33.31299 0.53747,39.34187 7.64761,49.15715 8.0907,11.16888 19.84903,16.53532 34.76294,15.86564 8.04381,-0.3612 11.48475,-1.23088 17.22995,-4.35482 z m 89.08041,2.73028 c 3.76499,-1.11808 8.75927,-3.64326 11.0984,-5.61151 12.13439,-10.21041 11.96966,-31.50229 -0.3147,-40.67643 -6.01895,-4.49501 -9.09627,-6.05243 -23.03679,-11.65873 -13.26167,-5.3333 -18.08023,-9.75695 -15.62506,-14.34448 3.32322,-6.20948 15.10259,-4.5745 23.06599,3.20156 l 5.03449,4.91605 8.34741,-2.32079 c 11.22773,-3.12158 12.19881,-4.04258 9.58729,-9.09273 -3.69264,-7.14076 -12.48617,-15.47955 -18.957,-17.97663 -7.42083,-2.86369 -23.66556,-3.12316 -31.40242,-0.50154 -6.46729,2.19141 -15.32705,10.06274 -17.69621,15.72194 -2.81649,6.72774 -2.24207,17.50992 1.26311,23.7095 3.57274,6.31906 13.34776,12.60331 26.14932,16.81109 19.27128,6.33432 23.0839,10.43487 16.14961,17.36916 -4.11843,4.11842 -9.87575,5.00694 -15.11253,2.3323 -1.60179,-0.81811 -5.7224,-4.2062 -9.15691,-7.52911 l -6.24455,-6.04164 -8.42212,3.06959 c -4.63216,1.68828 -8.95238,3.53665 -9.60052,4.10752 -1.81061,1.59474 5.14767,12.40966 11.46152,17.81409 3.09939,2.65296 8.35362,5.66153 11.67607,6.68575 8.11547,2.50173 23.33772,2.50894 31.7356,0.0151 z m 140.74226,-2.65919 c 8.49716,-4.20156 22.64333,-18.17509 21.96508,-21.69701 -0.22121,-1.14863 -4.50253,-3.88884 -9.51407,-6.08936 l -9.11186,-4.00094 -3.34699,4.27664 c -7.47072,9.54582 -22.29853,12.7179 -33.27455,7.11835 -24.45029,-12.47361 -17.34383,-48.66666 9.94319,-50.64042 8.92983,-0.64593 15.60779,2.04799 22.15163,8.93603 2.15386,2.26716 4.72097,4.12211 5.70469,4.12211 2.6752,0 17.71252,-7.85198 17.71252,-9.24888 0,-2.34587 -8.81157,-12.72598 -14.46045,-17.03451 -8.43659,-6.4348 -22.30852,-10.27944 -33.36444,-9.24701 -28.43893,2.65566 -49.75875,30.52205 -44.14834,57.70471 2.906,14.07961 9.39525,24.14046 20.50663,31.79316 10.03838,6.9137 16.73225,8.74893 30.13327,8.26152 9.27816,-0.33746 12.7424,-1.10894 19.10369,-4.25439 z m -382.54609,2.54941 c 1.81409,-0.69613 2.10905,-4.13493 2.10905,-24.58797 0,-13.07827 0.54179,-24.11351 1.20396,-24.52275 0.66217,-0.40925 4.94532,5.10535 9.51811,12.25464 4.57278,7.14931 8.981,13.45504 9.79604,14.01276 0.81504,0.55771 3.28189,0.85771 5.48189,0.66667 3.46806,-0.30116 5.21832,-2.18495 13.16123,-14.16517 6.63569,-10.00855 9.47873,-13.31669 10.31292,-12.00001 0.63343,0.9998 1.16088,12.10363 1.17211,24.67517 0.023,25.72662 -0.5231,24.47598 10.68708,24.47598 11.58304,0 10.66666,4.13595 10.66666,-48.14265 v -46.52402 l -11,0.0133 -11,0.0133 -11.62152,17.98716 c -6.39182,9.89293 -12.39183,17.98127 -13.33333,17.97408 -0.9415,-0.007 -5.55795,-6.15717 -10.25876,-13.66667 -14.87546,-23.76424 -13.22554,-22.32124 -25.52091,-22.32124 h -10.59881 v 46.55556 c 0,35.99689 0.378,46.70809 1.66666,47.22807 2.41008,0.9725 15.07687,1.02568 17.55762,0.0737 z m 296.63042,-1.01558 c 1.08049,-1.30192 1.41387,-14.77134 1.16325,-47.00001 l -0.35128,-45.17509 h -10.66666 -10.66667 l -0.35128,45.17509 c -0.25061,32.22867 0.0828,45.69809 1.16325,47.00001 0.9863,1.1884 4.42347,1.8249 9.8547,1.8249 5.43122,0 8.8684,-0.6365 9.85469,-1.8249 z M 367.56328,524.67286 c 8.61505,-2.5584 17.88244,-10.70135 22.32487,-19.61615 4.46873,-8.96757 4.76108,-22.68069 0.67629,-31.72336 -3.30184,-7.30946 -10.73023,-15.23722 -17.89776,-19.10095 -4.73184,-2.55075 -7.85211,-2.92661 -27.66667,-3.33273 l -22.33333,-0.45776 v 38.11239 38.11238 h 19.09133 c 13.06168,0 21.2118,-0.6297 25.80527,-1.99382 z m -26.9126,-16.90042 c -0.40119,-1.04546 -0.56171,-10.27194 -0.35671,-20.5033 l 0.37271,-18.60246 h 10.90608 c 8.97853,0 11.57072,0.49297 14.66666,2.78927 12.84939,9.53051 12.91717,24.84987 0.15176,34.30528 -4.70866,3.48775 -24.57817,5.04023 -25.7405,2.01121 z m 116.016,10.22758 v -8 l -17.33333,-0.66667 -17.33334,-0.66667 v -5.33333 -5.33333 l 14,-0.66667 14,-0.66667 v -8 -8 l -14,-0.66666 -14,-0.66667 v -5.33334 -5.33333 l 17.33334,-0.66667 17.33333,-0.66666 v -8 -8 l -25.903,-0.36295 c -19.83156,-0.27788 -26.15535,0.0347 -26.97959,1.33333 -1.24721,1.96514 -1.52344,69.08675 -0.29748,72.28158 0.72031,1.87709 4.0011,2.09285 27,1.77572 l 26.18007,-0.36101 z m 72,0 v -8 l -17.33333,-0.66667 -17.33333,-0.66667 -0.66667,-28.66666 -0.66667,-28.66667 -8.33333,-0.39696 -8.33334,-0.39695 v 38.0918 38.09182 l 26.33334,-0.36152 26.33333,-0.36152 z m 55.7606,5.39638 c 6.44595,-3.10792 12.18579,-8.82558 15.94541,-15.88378 2.72826,-5.12199 2.9372,-7.30766 2.9485,-30.84594 l 0.012,-25.33333 -8.20028,-0.39351 -8.20028,-0.39349 -0.50188,23.06016 c -0.39948,18.35504 -0.95875,23.90765 -2.74099,27.21372 -2.21286,4.10515 -9.30128,8.51312 -13.68974,8.51312 -4.25836,0 -11.44927,-4.35661 -13.39207,-8.11359 -1.46365,-2.83037 -1.94629,-9.10102 -1.96168,-25.48687 -0.0107,-11.95308 -0.51689,-22.51564 -1.12368,-23.47234 -0.7562,-1.19227 -3.58097,-1.6117 -8.97959,-1.33334 l -7.87632,0.40614 0.012,25.33333 c 0.0107,23.52727 0.22122,25.72575 2.94427,30.83762 3.54393,6.65289 13.32599,15.53704 19.33032,17.55597 6.21987,2.09141 19.48187,1.22519 25.47385,-1.66387 z m 54.81458,-6.06305 c 3.32073,-5.13333 6.64503,-9.33333 7.38731,-9.33333 0.74228,0 4.14241,4.2 7.55585,9.33333 l 6.20624,9.33333 h 9.72569 c 5.34914,0 10.02171,-0.47896 10.38351,-1.06437 0.3618,-0.5854 -4.38951,-8.8354 -10.55845,-18.33333 -6.16895,-9.49792 -11.22186,-17.86896 -11.22871,-18.6023 -0.007,-0.73333 5.01341,-9.13333 11.15613,-18.66667 6.14271,-9.53333 10.89962,-17.78333 10.5709,-18.33333 -0.32874,-0.55 -4.97424,-1 -10.32338,-1 h -9.72569 l -6.20624,9.33333 c -3.41344,5.13334 -6.8054,9.33334 -7.53771,9.33334 -0.73229,0 -4.02357,-4.2 -7.31396,-9.33334 l -5.98252,-9.33333 H 623.3421 c -7.12856,0 -10.00311,0.47961 -9.98916,1.66667 0.0107,0.91666 4.81077,9.12488 10.66667,18.24046 5.85589,9.11559 10.64708,17.22585 10.64708,18.02279 0,0.79695 -4.8,8.89116 -10.66667,17.98714 -5.86667,9.09598 -10.66667,17.33573 -10.66667,18.31054 0,1.31574 2.55988,1.7724 9.9354,1.7724 h 9.9354 z m 106.0915,0.66667 v -8.66667 h -16.4 c -17.21718,0 -19.6,-0.72944 -19.6,-6 0,-5.06827 2.52601,-6 16.26666,-6 h 13.06667 v -8.66667 -8.66666 h -13.06667 c -13.74065,0 -16.26666,-0.93174 -16.26666,-6.00001 0,-5.27056 2.38282,-6 19.6,-6 h 16.4 v -8.69485 -8.69485 l -26.33334,0.36152 -26.33333,0.36152 -0.35571,35.98012 c -0.19563,19.78907 -0.0644,36.73907 0.29149,37.66667 0.49126,1.28018 6.92183,1.68654 26.68905,1.68654 h 26.04184 z"
         style="fill:#ce7d81;stroke-width:1.33333337" />
      <path
         inkscape:connector-curvature="0"
         id="path827"
         d="m 410.66668,729.16996 c -67.1,-39.00163 -122.44082,-71.57007 -122.97959,-72.37433 -0.53877,-0.80425 -0.98877,-56.73881 -1,-124.29903 -0.016,-96.69115 0.33433,-123.11975 1.64625,-124.16637 4.56679,-3.6433 243.70641,-141.66356 245.45216,-141.66356 2.51278,0 244.9823,140.69044 246.44811,142.99898 0.5824,0.91723 1.06811,56.62471 1.07933,123.79438 0.0192,114.66319 -0.12213,122.25083 -2.31292,124.15802 -3.02132,2.63026 -241.69511,141.30695 -244.33334,141.96505 -1.1,0.27439 -56.9,-31.41152 -124,-70.41314 z m 81.51595,-97.37562 c 8.29871,-3.57001 18.79424,-14.86056 21.67592,-23.31784 1.7304,-5.07843 2.14147,-12.37703 2.14147,-38.02194 v -31.73708 l -3.05556,-0.76689 c -1.68056,-0.42179 -6.63056,-0.58323 -11,-0.35873 l -7.94444,0.40816 -0.66667,30.66666 c -0.42676,19.63101 -1.22237,31.6263 -2.21091,33.33334 -7.50889,12.96675 -25.39268,13.02461 -31.26228,0.1012 -2.15624,-4.74752 -2.47195,-9.09711 -2.49753,-34.40908 l -0.0293,-28.97466 -3.05556,-0.76689 c -1.68056,-0.42179 -6.63056,-0.58323 -11,-0.35873 l -7.94444,0.40816 -0.35806,31.91486 c -0.41605,37.08558 0.27787,40.66674 9.96862,51.44518 12.60838,14.02356 29.97709,17.86003 47.23872,10.43428 z m 85.97917,2.74633 c 10.6901,-1.8616 19.51091,-7.36521 23.10935,-14.41872 3.25687,-6.384 3.70327,-19.72777 0.84263,-25.18814 -4.33865,-8.28161 -14.28813,-14.89889 -32.31859,-21.4947 -9.02584,-3.30179 -13.79517,-6.95184 -13.79517,-10.55771 0,-3.74834 2.79516,-5.5487 8.6,-5.53926 5.74538,0.009 10.44892,2.47022 15.84026,8.28758 l 3.32119,3.58363 9.0276,-2.58167 c 12.0473,-3.44521 12.5218,-4.07538 8.61458,-11.44058 -8.63851,-16.28376 -28.65407,-23.22952 -49.28502,-17.10279 -19.82091,5.88619 -27.51345,29.21141 -14.51587,44.01484 4.69687,5.34944 11.8479,9.27156 26.39726,14.47808 12.87969,4.60903 16,6.69715 16,10.70726 0,4.25717 -4.66558,7.3782 -11.02956,7.3782 -6.62928,0 -11.94734,-2.83656 -16.49408,-8.79766 -3.19779,-4.19252 -4.20996,-4.71145 -7.99239,-4.09765 -6.66061,1.08087 -16.48397,5.85316 -16.48397,8.00808 0,3.37121 8.45801,14.34227 14.33886,18.59923 5.2546,3.80364 16.32396,7.23597 24.21859,7.50958 1.77325,0.0615 6.99521,-0.54496 11.60433,-1.3476 z m 145.23472,-3.74801 c 12.52356,-5.79804 24.76169,-18.31595 22.82944,-23.35133 -0.70538,-1.83816 -14.5164,-8.77464 -17.47094,-8.77464 -0.87418,0 -3.35168,1.87565 -5.50554,4.16813 -7.92543,8.43544 -19.67798,11.24984 -29.62562,7.09447 -12.55052,-5.24266 -18.99875,-17.17791 -16.14952,-29.89174 4.77776,-21.31931 29.28942,-28.01064 45.01232,-12.28773 l 5.90787,5.90786 9.13608,-4.41976 c 5.67869,-2.74717 9.13608,-5.23202 9.13608,-6.56616 0,-3.9021 -8.01059,-13.12484 -16.08039,-18.51364 -25.43381,-16.98405 -59.70865,-7.05633 -73.10619,21.17523 -2.9924,6.30565 -3.48009,9.10841 -3.48009,20 0,10.95266 0.48355,13.69834 3.57341,20.29076 12.02842,25.66336 40.90509,36.70483 65.82309,25.16855 z m -379.59227,0.77656 c 0.90591,-1.09153 1.60357,-10.62295 1.82993,-25 l 0.36583,-23.23587 8.96053,13.66667 c 8.8986,13.57219 8.99751,13.66667 14.30814,13.66667 5.30643,0 5.41708,-0.1052 14.3728,-13.66667 l 9.0252,-13.66667 0.74304,24.66667 c 0.40868,13.56667 0.85868,24.81667 1,25 0.14133,0.18333 4.99277,0.33333 10.78097,0.33333 8.36654,0 10.68994,-0.43236 11.33334,-2.10905 0.44513,-1.15997 0.80932,-22.03997 0.80932,-46.4 0,-32.67074 -0.41978,-44.71072 -1.6,-45.89095 -1.91058,-1.91057 -17.53483,-2.15685 -20.94796,-0.3302 -1.30495,0.69839 -7.33459,9.12537 -13.39918,18.72661 -6.0646,9.60124 -11.64933,17.24922 -12.41052,16.99548 -0.76119,-0.25373 -6.29187,-8.13333 -12.2904,-17.51024 -5.99853,-9.3769 -11.75667,-17.5871 -12.79585,-18.24486 -2.8225,-1.78656 -19.08826,-1.50463 -20.9561,0.36321 -1.18194,1.18195 -1.6,13.49136 -1.6,47.11111 0,25.03112 0.4,45.91112 0.8889,46.4 1.71436,1.71437 20.04994,0.97079 21.58201,-0.87524 z m 295.88,-45.47967 c 0.27402,-36.37571 -0.018,-46.81128 -1.33334,-47.64624 -1.97672,-1.2548 -15.8473,-1.47533 -18.9085,-0.30064 -1.86716,0.71649 -2.10906,6.11992 -2.10906,47.11111 0,25.46599 0.42303,46.72481 0.94006,47.24185 0.51702,0.51703 5.46702,0.76703 11,0.55555 l 10.05994,-0.38449 z M 368.232,525.2373 c 8.54307,-2.82956 17.35903,-10.60627 21.74433,-19.18106 3.37314,-6.59564 4.01786,-9.39192 3.9876,-17.29528 -0.0607,-15.84305 -7.66892,-28.15163 -21.62071,-34.9776 -6.89601,-3.37391 -9.0039,-3.70033 -27.2401,-4.21839 -14.52539,-0.41264 -20.2965,-0.12106 -21.76775,1.10003 -1.69111,1.40349 -2.00203,7.32029 -2.00203,38.09868 0,33.25816 0.20358,36.56427 2.33334,37.89407 3.04865,1.90355 37.8815,0.79331 44.56532,-1.42045 z m -27.64896,-18.97447 c -0.36664,-0.95544 -0.49782,-9.50544 -0.2915,-19 l 0.37514,-17.26282 10.66666,-0.3564 c 8.70644,-0.2909 11.45112,0.12707 14.93527,2.27438 11.77499,7.257 11.74103,25.993 -0.0603,33.28664 -3.56232,2.20164 -6.69333,2.79539 -14.74084,2.79539 -7.16545,0 -10.41693,-0.51895 -10.88441,-1.73719 z m 114.64125,20.92787 c 1.61795,-0.62086 2.10906,-2.7883 2.10906,-9.30794 0,-10.1371 0.80445,-9.73925 -20.66667,-10.22061 l -14.66667,-0.3288 v -4 -4 l 14,-0.83661 c 7.7,-0.46015 14.15,-0.91015 14.33334,-1 0.18333,-0.0899 0.33333,-4.05196 0.33333,-8.80466 0,-10.12408 0.489,-9.83187 -17.33333,-10.35769 l -11.33334,-0.33438 v -4 -4 l 14.66667,-0.3288 c 21.47112,-0.48136 20.66667,-0.0835 20.66667,-10.22061 0,-6.51964 -0.49111,-8.68708 -2.10906,-9.30793 -2.74928,-1.055 -47.69928,-1.055 -50.44856,0 -1.8533,0.71117 -2.10905,5.3111 -2.10905,37.93375 0,33.94997 0.19952,37.24064 2.33333,38.48346 2.49734,1.45456 46.63304,2.00891 50.22428,0.63082 z m 71.10906,-0.0311 c 2.71264,-0.72696 3,-1.61677 3,-9.28972 0,-10.12227 0.80132,-9.72648 -20.66667,-10.20776 l -14.66666,-0.3288 -0.36122,-27.93855 c -0.26256,-20.30871 -0.80874,-28.22284 -2,-28.97957 -2.56613,-1.63015 -13.59561,-1.25839 -15.37212,0.51812 -1.16616,1.16616 -1.6,11.45194 -1.6,37.93375 0,33.19694 0.20144,36.45108 2.33333,37.69278 2.49827,1.45511 44.24766,1.96267 49.33334,0.59975 z m 105.72632,-0.52487 c 1.40306,-0.75089 4.98598,-4.95089 7.96203,-9.33333 2.97605,-4.38245 6.16189,-7.96808 7.07961,-7.96808 0.91774,0 3.68682,3.33001 6.1535,7.40004 5.754,9.49405 8.41804,11.26663 16.93284,11.26663 7.59964,0 11.1457,-0.92536 11.1457,-2.90852 0,-0.70944 -4.70142,-8.59526 -10.4476,-17.52402 -5.74618,-8.92877 -10.83386,-16.90692 -11.30597,-17.7292 -0.47209,-0.82229 4.26312,-9.4515 10.52271,-19.17603 6.25958,-9.72453 11.0661,-18.50174 10.68114,-19.50493 -0.49913,-1.30071 -3.35546,-1.82397 -9.95657,-1.82397 -8.64975,0 -9.47748,0.26244 -12.62475,4.00274 -1.85245,2.20151 -4.71626,6.40151 -6.36404,9.33334 -1.64778,2.93182 -3.76312,5.33058 -4.70076,5.33058 -0.93764,0 -4.23212,-3.75 -7.32106,-8.33333 -3.08896,-4.58333 -6.26131,-8.77415 -7.0497,-9.31292 -2.69028,-1.83853 -19.45772,-1.17513 -20.21558,0.79983 -0.38418,1.00113 3.74377,8.65113 9.1732,17 5.42941,8.34886 10.5493,16.46553 11.37753,18.03704 1.31915,2.50301 0.10427,5.03787 -9.79801,20.44445 -6.21714,9.67295 -11.30387,18.08718 -11.30387,18.69828 0,0.61111 0.75,1.41374 1.66667,1.78362 3.06061,1.23498 15.80888,0.90074 18.39298,-0.48222 z m 112.02801,-0.0149 c 2.04845,-1.09629 2.57901,-2.82439 2.57901,-8.4 0,-3.86087 -0.72,-7.73976 -1.6,-8.61976 -1.071,-1.071 -7.02223,-1.6 -18,-1.6 h -16.4 v -4.66667 -4.66666 h 12.08765 c 15.80087,-6e-5 17.24568,-0.81943 17.24568,-9.7803 0,-3.86086 -0.72,-7.73976 -1.6,-8.61976 -1.02676,-1.02676 -6.28148,-1.6 -14.66666,-1.6 h -13.06667 v -4.66667 -4.66666 h 15.42099 c 8.48154,0 16.58154,-0.62111 18,-1.38024 2.04845,-1.0963 2.57901,-2.82439 2.57901,-8.4 0,-3.86087 -0.72,-7.73976 -1.6,-8.61976 -1.68869,-1.6887 -46.79361,-2.38856 -50.95761,-0.79068 -1.85446,0.71161 -2.10906,5.3659 -2.10906,38.55556 0,28.94943 0.38841,37.90296 1.66667,38.41875 3.27824,1.3228 47.84137,0.88336 50.42099,-0.4972 z m -160.9668,-1.95025 c 7.25025,-3.02934 14.28509,-9.89863 17.74406,-17.32647 2.90469,-6.23759 3.10988,-8.31003 3.12205,-31.53372 0.0107,-21.44451 -0.27653,-24.96847 -2.09602,-25.66667 -3.74667,-1.43773 -13.52312,-0.85911 -14.97151,0.88611 -0.8329,1.00357 -1.57963,11.38714 -1.82992,25.44574 l -0.42286,23.75034 -4.35437,3.88757 c -5.03408,4.49444 -13.66184,5.32844 -18.68991,1.80666 -6.06166,-4.24582 -6.95572,-8.30576 -6.95572,-31.58625 0,-15.17742 -0.48604,-22.28558 -1.6,-23.39954 -1.67392,-1.67392 -11.32628,-2.18416 -14.95761,-0.79068 -1.82032,0.69852 -2.10504,4.21237 -2.07977,25.66666 0.0321,27.24526 1.14324,32.24179 9.04932,40.69266 8.49824,9.08383 26.56556,12.96281 38.04226,8.16753 z"
         style="fill:#c9676c;stroke-width:1.33333337" />
      <path
         inkscape:connector-curvature="0"
         id="path825"
         d="m 500.9266,780.98874 c -18.19037,-10.4438 -73.39037,-42.39172 -122.66667,-70.99538 l -89.59325,-52.00666 -0.28182,-124.66002 -0.28181,-124.66 120.70782,-70 c 66.38929,-38.5 121.74773,-70.48887 123.01875,-71.08636 2.28036,-1.07201 8.83818,2.38442 50.1704,26.44325 7.33333,4.26861 17.23333,9.94207 22,12.60767 23.36181,13.06433 171.63358,99.41155 173.66667,101.13613 2.19117,1.8587 2.33333,9.50216 2.33333,125.45906 v 123.47978 l -22.33333,13.16497 c -12.28333,7.24073 -32.23333,19.00828 -44.33333,26.15011 -29.56545,17.45053 -178.52562,103.98168 -178.97612,103.96745 -0.19648,-0.007 -15.24026,-8.55621 -33.43064,-19 z M 489.39783,633.43151 c 13.35097,-5.07296 22.3144,-15.07748 25.92376,-28.93477 2.40328,-9.2268 2.90307,-60.33994 0.63152,-64.58438 -1.18484,-2.21389 -2.86356,-2.57901 -11.85735,-2.57901 -8.32377,0 -10.64345,0.43347 -11.28642,2.10905 -0.44514,1.15998 -0.81156,15.10998 -0.81431,31 -0.004,26.62575 -0.21596,29.23701 -2.69585,33.30453 -5.46147,8.95785 -17.43027,10.33682 -25.69146,2.96001 l -4.27437,-3.8168 -0.40503,-31.0615 c -0.25403,-19.48109 -0.93627,-31.7016 -1.82993,-32.7784 -1.86326,-2.24508 -19.94151,-2.34042 -22.16504,-0.11693 -1.1433,1.14329 -1.6,9.62664 -1.6,29.71987 0,30.54979 1.26944,39.07432 7.22334,48.50591 9.94234,15.74966 31.40111,22.89908 48.84114,16.27238 z m 93.74091,0.32934 c 18.75279,-5.26176 27.17579,-23.43018 18.55964,-40.0331 -3.77915,-7.28224 -10.29615,-11.84504 -26.45708,-18.52361 -14.68383,-6.06816 -19.24128,-8.90624 -19.24128,-11.9822 0,-2.97044 4.0551,-5.88859 8.18289,-5.88859 5.09092,0 8.60897,1.82779 14.67823,7.62596 l 4.86112,4.64401 7.80555,-2.21048 c 4.29305,-1.21576 8.85554,-2.51693 10.13888,-2.89149 8.44754,-2.46559 -7.81616,-23.47675 -21.03754,-27.17851 -8.67707,-2.42942 -26.58631,-1.16032 -33.42204,2.36842 -20.649,10.65937 -22.07423,37.59834 -2.59316,49.01501 3.30384,1.93619 11.44944,5.46355 18.10133,7.83859 17.3499,6.19473 20.51448,9.63281 14.28474,15.51933 -2.44628,2.31151 -4.18802,2.72454 -9.4366,2.23774 -5.60202,-0.51956 -7.33738,-1.48655 -13.38355,-7.45763 l -6.94695,-6.86064 -8.61645,2.8428 c -11.65297,3.84461 -12.78475,5.02468 -9.99432,10.42079 9.69555,18.74909 31.52743,26.96404 54.51659,20.5136 z m 139.83792,-2.09268 c 4.17478,-1.91128 9.74034,-5.16851 12.3679,-7.23827 4.52942,-3.56791 12.65546,-14.27127 12.65546,-16.66939 0,-0.61361 -4.52798,-3.35616 -10.0622,-6.09456 l -10.0622,-4.9789 -4.27113,4.8878 c -17.331,19.83325 -48.13103,7.53781 -45.98366,-18.35679 1.12888,-13.61274 11.68223,-23.21804 25.50965,-23.21804 8.06525,0 13.71492,2.4694 19.46444,8.50768 2.52718,2.6541 5.39429,4.82565 6.37134,4.82565 2.37332,0 17.27771,-7.57067 18.36368,-9.32781 1.96974,-3.1871 -9.66457,-16.61468 -19.43896,-22.43523 -23.83434,-14.19309 -56.91296,-3.7934 -69.95279,21.99268 -3.6062,7.1312 -3.92977,8.92193 -3.9338,21.77036 -0.004,12.77494 0.33623,14.69368 3.88791,21.92738 6.3944,13.02338 17.01928,21.94108 32.10772,26.94866 8.4299,2.79774 23.92262,1.60384 32.97664,-2.54122 z M 345.03077,609.00002 c 0.20027,-13.01667 0.80027,-23.6605 1.33333,-23.65296 0.53308,0.008 4.47075,5.64744 8.75036,12.53311 5.97564,9.61448 8.58971,12.67397 11.26586,13.18556 6.21376,1.18782 9.40133,-1.33784 17.28053,-13.69218 4.21987,-6.61664 8.10866,-12.03248 8.64174,-12.03523 0.53306,-0.003 1.13306,10.64503 1.33333,23.6617 l 0.36409,23.66667 h 11.33334 11.33333 v -47.33334 -47.33333 l -10.96733,-0.38674 c -12.89907,-0.45484 -11.08,-1.90252 -24.82776,19.7587 -5.33891,8.41209 -10.5173,15.2947 -11.50753,15.2947 -0.99022,0 -6.95222,-7.8 -13.24889,-17.33333 l -11.44849,-17.33333 h -11.33334 -11.33333 l -0.35121,45.9918 c -0.19318,25.29549 -0.0527,46.76991 0.3123,47.72093 0.48692,1.26888 3.59698,1.62596 11.68455,1.34154 l 11.02103,-0.3876 z m 295.49326,22.22428 c 0.44514,-1.15997 0.80932,-22.03997 0.80932,-46.4 0,-32.67074 -0.41977,-44.71072 -1.6,-45.89095 -0.95078,-0.95079 -5.53032,-1.6 -11.28642,-1.6 -8.21207,0 -9.89651,0.39255 -11.06667,2.57901 -1.48449,2.7738 -2.01455,87.54991 -0.57092,91.31194 0.64789,1.68837 3.01297,2.10905 11.85735,2.10905 8.84437,0 11.20945,-0.42068 11.85734,-2.10905 z M 371.70592,524.12266 c 25.5248,-11.4274 30.84983,-45.10387 10.12677,-64.04357 -10.26629,-9.38282 -16.25053,-10.92172 -40.63725,-10.45021 l -19.19543,0.37113 -0.35497,37.31534 c -0.19524,20.52344 -0.0439,38.12613 0.33641,39.11709 0.55131,1.4367 4.94563,1.7045 21.68831,1.32171 18.58314,-0.42485 21.80613,-0.84232 28.03616,-3.63149 z m -30.37258,-35.45598 v -19.33333 h 9.39955 c 10.1844,0 14.62059,1.62772 19.93379,7.31406 2.82979,3.02854 3.33333,4.84419 3.33333,12.01927 0,7.17508 -0.50354,8.99074 -3.33333,12.01927 -5.3132,5.68635 -9.74939,7.31407 -19.93379,7.31407 h -9.39955 z m 115.73334,37.73334 c 0.88,-0.88 1.6,-4.66 1.6,-8.4 0,-3.74 -0.72,-7.52 -1.6,-8.4 -1.071,-1.071 -7.02223,-1.6 -18,-1.6 h -16.4 v -4.66667 -4.66667 h 13.28643 c 14.92366,0 16.0469,-0.69997 16.0469,-10 0,-9.30003 -1.12324,-10 -16.0469,-10 h -13.28643 v -4.66667 -4.66666 h 16.4 c 10.97777,0 16.929,-0.529 18,-1.6 2.23992,-2.23992 2.05972,-15.02528 -0.23865,-16.93276 -1.27591,-1.05891 -9.74378,-1.41495 -27.66667,-1.16327 l -25.82801,0.36269 -0.35498,37.31534 c -0.19524,20.52344 -0.0641,38.07344 0.29148,39 0.9014,2.34901 51.45292,2.42857 53.79683,0.0847 z m 72,0 c 0.88,-0.88 1.6,-4.66 1.6,-8.4 0,-3.74 -0.72,-7.52 -1.6,-8.4 -1.071,-1.071 -7.02222,-1.6 -18,-1.6 h -16.4 v -27.83675 c 0,-22.37979 -0.37001,-28.14382 -1.8875,-29.40323 -1.11324,-0.92391 -5.07854,-1.40108 -9.66667,-1.16325 l -7.77916,0.40322 -0.35498,37.31534 c -0.19524,20.52344 -0.0641,38.07344 0.29148,39 0.9014,2.34901 51.45293,2.42857 53.79683,0.0847 z m 56.10256,-2.31628 c 6.84901,-3.49411 13.32506,-10.29224 16.49831,-17.31886 2.21575,-4.90638 2.78094,-9.75393 3.35104,-28.74105 0.85898,-28.6079 0.72244,-28.96831 -10.76509,-28.4187 l -8.25348,0.39488 -0.66667,24 c -0.71972,25.90999 -1.38511,28.57931 -7.97331,31.98621 -7.20385,3.72525 -15.33976,1.85405 -19.67466,-4.52504 -1.95904,-2.88286 -2.46342,-7.47116 -3.0187,-27.46117 l -0.66666,-24 -7.861,-0.40566 c -4.51212,-0.23286 -8.48823,0.22174 -9.33334,1.0671 -1.0024,1.0027 -1.32962,9.43075 -1.02522,26.40567 0.5084,28.3512 1.45545,31.9872 10.61909,40.76958 10.28821,9.86016 26.55091,12.4806 38.76969,6.24704 z m 47.3035,3.13953 c 1.11329,-0.4272 4.53284,-4.6272 7.599,-9.33333 3.06616,-4.70612 6.08592,-8.55659 6.71059,-8.55659 0.62466,0 3.30992,3.45 5.96724,7.66667 2.65732,4.21666 5.79044,8.41666 6.96248,9.33333 2.59148,2.02683 21.09332,2.26632 22.31545,0.28887 0.46835,-0.7578 -4.08105,-8.9673 -10.10976,-18.24332 -6.02871,-9.27603 -11.20653,-17.80602 -11.50627,-18.95552 -0.29974,-1.14952 4.28507,-9.66098 10.18846,-18.91437 5.90338,-9.25338 10.73342,-17.80338 10.73342,-19 0,-1.81354 -1.62197,-2.17566 -9.74516,-2.17566 -5.7707,0 -10.61425,0.67973 -11.87614,1.66666 -1.17204,0.91667 -4.30516,5.11667 -6.96248,9.33334 -2.65732,4.21666 -5.32503,7.66666 -5.92823,7.66666 -0.60321,0 -3.88956,-4.2 -7.30299,-9.33333 l -6.20625,-9.33333 h -10.65604 c -9.02897,0 -10.65604,0.33712 -10.65604,2.20784 0,1.2143 4.8,9.5933 10.66667,18.62001 5.86666,9.02669 10.66666,17.36027 10.66666,18.51904 0,1.15878 -2.87856,6.42978 -6.39678,11.71332 -18.13731,27.23791 -18.20523,27.60646 -5.08744,27.60646 4.7297,0 9.51033,-0.34954 10.62361,-0.77675 z m 113.52728,-9.22325 v -9.33334 l -17.33333,-0.66666 -17.33333,-0.66667 v -4 -4 l 14,-0.66667 14,-0.66666 v -9.33334 -9.33333 l -14,-0.66667 -14,-0.66667 v -4 -4 l 17.33333,-0.66666 17.33333,-0.66667 v -9.33333 -9.33334 l -25.82801,-0.36269 c -17.92289,-0.25168 -26.39076,0.1044 -27.66667,1.16327 -2.52415,2.09485 -2.72272,73.11536 -0.21145,75.62663 1.19543,1.19542 8.53687,1.53154 27.66667,1.26666 l 26.03946,-0.36053 z"
         style="fill:#b55357;stroke-width:1.33333337" />
      <path
         inkscape:connector-curvature="0"
         id="path823"
         d="m 410.66668,727.6131 -122,-70.97243 -0.3402,-123.42917 -0.3402,-123.42917 122.24035,-70.98561 c 78.05635,-45.32774 123.11629,-70.75655 124.66377,-70.35187 2.86667,0.74964 239.36989,137.77424 242.77629,140.65907 2.19096,1.85549 2.33209,9.38695 2.31292,123.43608 -0.0107,66.80301 -0.48688,122.19423 -1.057,123.09159 -1.09779,1.72791 -243.48685,143.06385 -245.2335,142.99451 -0.56233,-0.0223 -55.92243,-31.97816 -123.02243,-71.013 z m 81.64935,-94.61437 c 9.46993,-4.33548 15.64688,-9.95332 20.42212,-18.57358 l 3.92853,-7.0918 0.41679,-34.5364 c 0.33077,-27.40921 0.0556,-34.76544 -1.33333,-35.64625 -2.02246,-1.28255 -18.51062,-1.54263 -21.64107,-0.34136 -1.82999,0.70222 -2.11901,4.62769 -2.18431,29.66666 -0.0844,32.3845 -0.86098,36.48661 -7.78858,41.14451 -5.58882,3.75774 -11.4273,3.87484 -17.21641,0.34534 -7.48542,-4.56375 -8.25309,-8.38795 -8.25309,-41.11369 0,-33.32074 1.01351,-30.85214 -12.66667,-30.85214 -13.76046,0 -12.66848,-3.03276 -12.65364,35.14265 0.012,32.32123 0.12467,33.7632 3.12644,40.19068 10.37386,22.21323 34.3383,31.51066 55.84322,21.66538 z m 95.4775,0.27261 c 12.44429,-5.49632 17.92077,-13.86073 17.92077,-27.37096 0,-14.18731 -8.91831,-23.61852 -30.09202,-31.82267 -6.87941,-2.66555 -13.80872,-5.75751 -15.39848,-6.87101 -3.99422,-2.79767 -3.73949,-6.94278 0.49194,-8.0048 5.82745,-1.4626 11.69236,0.6434 17.40492,6.24985 l 5.49544,5.39336 10.32781,-3.00087 c 5.68031,-1.65048 10.64327,-3.82289 11.0288,-4.82758 1.07724,-2.80726 -3.3638,-11.47736 -8.68541,-16.95623 -8.49692,-8.748 -13.79327,-10.70223 -29.04111,-10.71544 -12.31033,-0.0107 -14.0714,0.32095 -21.28893,4.00879 -11.08563,5.66428 -15.95724,13.59344 -15.95724,25.97238 0,15.65112 7.26821,23.07955 30.81208,31.49126 17.41169,6.2208 20.3588,8.87216 15.64793,14.07761 -1.50363,1.6615 -4.08391,2.43832 -8.09897,2.43832 -5.32128,0 -6.6373,-0.71056 -13.57899,-7.33182 l -7.68665,-7.33182 -9.68283,3.5749 c -5.32555,1.96618 -10.00713,4.42004 -10.40352,5.45301 -1.84889,4.81813 9.64139,19.87272 18.69165,24.48983 2.86878,1.46353 7.70971,3.19218 10.75763,3.84146 8.36205,1.7813 24.21792,0.38594 31.33518,-2.75757 z m 133.62783,0.13808 c 12.22093,-4.61616 26.45513,-18.07027 26.54157,-25.08699 0.03,-2.42996 -1.88377,-3.96137 -9.91821,-7.93693 l -9.95531,-4.92601 -5.14685,5.57504 c -8.79627,9.52809 -19.53824,12.02778 -30.43066,7.08133 -8.5104,-3.86472 -12.96199,-10.69955 -13.6114,-20.89849 -0.46615,-7.32058 -0.0607,-9.27846 3.00452,-14.50886 3.62663,-6.18837 9.57309,-10.21799 17.6501,-11.96055 6.82,-1.47137 14.7726,1.49479 21.91176,8.17264 l 6.48546,6.06639 8.69475,-3.69531 c 4.78212,-2.03242 9.35984,-4.4967 10.17273,-5.47618 4.22466,-5.09039 -7.34561,-19.28376 -21.32568,-26.16044 -8.21805,-4.04239 -9.69206,-4.32171 -22.80666,-4.32171 -12.74583,0 -14.68763,0.34113 -21.35413,3.75152 -10.18014,5.20787 -20.35921,15.6066 -24.90493,25.44237 -3.33344,7.21272 -3.76171,9.65752 -3.76147,21.47278 2.6e-4,11.93621 0.39562,14.13883 3.77319,21.02049 12.09525,24.64354 39.80772,35.89759 64.98122,26.38891 z m -376.28544,-0.50485 c 0.89329,-1.07636 1.60544,-10.25684 1.82992,-23.59019 l 0.3675,-21.82809 7.76734,12.25686 7.76732,12.25687 h 6.39273 6.39272 l 7.83995,-12.33333 7.83995,-12.33334 0.3675,21.90455 c 0.22463,13.38901 0.93603,22.58959 1.82992,23.66667 1.90916,2.3004 21.26431,2.43372 23.53591,0.16212 2.29275,-2.29275 2.29275,-93.17393 0,-95.46667 -2.17296,-2.17296 -21.23364,-2.12 -23.99508,0.0667 -1.15761,0.91667 -6.7478,9.0415 -12.42265,18.05518 -5.67484,9.01368 -10.93266,16.18358 -11.68403,15.93313 -0.75138,-0.25047 -6.14446,-7.92529 -11.98464,-17.05517 -5.84019,-9.1299 -11.29992,-17.04062 -12.13274,-17.57939 -2.5443,-1.64599 -21.4944,-1.17355 -23.24753,0.57959 -1.18209,1.18209 -1.6,13.5165 -1.6,47.22428 0,25.09336 0.36419,46.57336 0.80932,47.73333 1.07111,2.79128 22.04965,3.09047 24.32659,0.34694 z m 295.88121,-46.81529 c 0.27386,-37.4428 -0.0175,-48.14428 -1.33334,-48.97958 -1.97144,-1.25146 -18.49668,-1.48152 -21.57472,-0.30036 -1.86872,0.71709 -2.10905,6.23742 -2.10905,48.44444 0,26.19932 0.42159,48.05672 0.93685,48.57199 0.51528,0.51526 6.06528,0.76526 12.33334,0.55556 l 11.39648,-0.38131 z M 370.82988,525.73296 c 8.39604,-3.76782 16.66351,-11.53476 20.9146,-19.64833 2.97015,-5.66879 3.53731,-8.46156 3.53731,-17.41795 0,-8.96329 -0.56302,-11.73128 -3.52568,-17.33333 -4.54154,-8.58748 -12.02887,-15.75432 -20.42277,-19.54855 -5.7563,-2.60197 -9.44658,-3.08567 -27.02437,-3.54216 -14.81941,-0.38487 -20.89517,-0.0827 -22.33333,1.11093 -1.6602,1.37784 -1.97563,7.67006 -1.97563,39.41011 0,34.53218 0.20005,37.89447 2.33333,39.21644 1.49922,0.92906 9.48296,1.28022 22.33334,0.98231 16.70578,-0.38728 21.01514,-0.91921 26.1632,-3.22947 z m -29.49654,-37.06628 v -18.27364 l 11.30816,0.47015 c 10.59576,0.44054 11.57011,0.73213 15.46592,4.62838 7.45263,7.45349 7.43489,18.91449 -0.0409,26.3911 -3.84801,3.84845 -4.85537,4.14805 -15.42504,4.58751 l -11.30811,0.47014 z m 115.22429,39.85735 c 3.07225,-1.17893 3.07225,-19.86909 0,-21.04803 -1.15998,-0.44513 -9.25998,-0.80932 -18,-0.80932 h -15.89095 v -3.33333 c 0,-3.3288 0.0177,-3.33333 13.06667,-3.33333 8.38518,0 13.6399,-0.57324 14.66666,-1.6 0.92571,-0.92571 1.6,-5.3609 1.6,-10.52402 0,-6.90754 -0.47656,-9.10689 -2.10905,-9.73333 -1.15997,-0.44514 -7.75997,-0.80932 -14.66667,-0.80932 -12.50589,0 -12.55761,-0.0137 -12.55761,-3.33334 v -3.33333 h 15.89095 c 8.74002,0 16.84002,-0.36419 18,-0.80932 1.65614,-0.63552 2.10905,-2.89547 2.10905,-10.52401 0,-7.62855 -0.45291,-9.8885 -2.10905,-10.52402 -4.17691,-1.60282 -51.93495,-0.89865 -53.62428,0.79068 -1.16894,1.16894 -1.6,11.74824 -1.6,39.26709 0,34.46678 0.19824,37.78254 2.33333,39.02612 2.49997,1.4561 49.28615,2.0141 52.89095,0.63081 z m 72,0 c 1.65933,-0.63675 2.10905,-2.9058 2.10905,-10.64127 0,-11.67693 1.09254,-11.06613 -20.66666,-11.55394 l -14.66667,-0.3288 -0.36121,-27.93855 c -0.26256,-20.30871 -0.80875,-28.22284 -2,-28.97958 -2.58839,-1.64428 -16.26934,-1.25133 -18.03879,0.51812 -1.16894,1.16894 -1.6,11.74824 -1.6,39.26709 0,34.46678 0.19824,37.78254 2.33333,39.02612 2.49997,1.4561 49.28615,2.0141 52.89095,0.63081 z m 56.22824,-3.18068 c 6.65714,-2.85364 13.8369,-9.82876 17.2985,-16.80547 2.24189,-4.51841 2.63676,-8.70318 2.99525,-31.74331 0.32331,-20.77797 0.0339,-26.77918 -1.33333,-27.64625 -2.67352,-1.69553 -16.3392,-1.35537 -18.14627,0.45169 -1.11784,1.11784 -1.6,8.37027 -1.6,24.06622 0,24.52271 -0.92503,28.50469 -7.29608,31.40753 -7.23215,3.2952 -15.58626,0.95515 -18.80392,-5.26712 -1.4239,-2.75352 -1.9,-9.30374 -1.9,-26.14041 0,-15.69595 -0.48216,-22.94838 -1.6,-24.06622 -1.80707,-1.80706 -15.47275,-2.14722 -18.14627,-0.45169 -1.36721,0.86707 -1.65664,6.86828 -1.33333,27.64625 0.35849,23.04013 0.75336,27.2249 2.99525,31.74331 8.66097,17.45582 28.64083,24.61966 46.8702,16.80547 z m 48.55638,2.65191 c 1.37513,-0.73595 4.72097,-4.93595 7.4352,-9.33334 2.71421,-4.39738 5.39586,-7.99524 5.95922,-7.99524 0.56338,0 3.43684,3.81998 6.3855,8.48884 2.94865,4.66886 6.3515,8.86886 7.5619,9.33334 3.55788,1.36528 17.92815,0.96746 20.81246,-0.57618 2.60001,-1.39148 2.57944,-1.54892 -1.00195,-7.66666 -2.01107,-3.4353 -7.14504,-11.56167 -11.40885,-18.05859 -4.2638,-6.49692 -7.75238,-12.63327 -7.75238,-13.63633 0,-1.00306 4.84807,-9.31625 10.77348,-18.47374 5.92543,-9.15751 10.5694,-17.72116 10.31995,-19.03035 -0.36956,-1.9396 -2.04815,-2.45524 -9.06568,-2.78488 -12.75053,-0.59893 -14.17528,0.0892 -20.25288,9.78242 -2.97333,4.74217 -5.78904,8.61688 -6.25713,8.61046 -0.46808,-0.007 -3.18123,-3.6282 -6.0292,-8.04841 -2.84798,-4.42023 -6.3073,-8.64107 -7.68738,-9.37967 -1.38008,-0.7386 -6.84356,-1.16681 -12.14106,-0.95158 -7.8606,0.31937 -9.71228,0.81308 -10.06938,2.68478 -0.24065,1.2614 4.50299,9.92115 10.54142,19.24388 6.03844,9.32274 10.9741,17.59069 10.96816,18.37322 -0.005,0.78253 -4.90595,8.97735 -10.8889,18.21069 -10.82578,16.70724 -12.38782,20.38067 -9.2114,21.66239 3.06027,1.23484 18.47518,0.90096 21.0089,-0.45505 z m 112.07876,-0.0421 c 2.12847,-1.13913 2.57901,-2.83949 2.57901,-9.73333 0,-4.71908 -0.69608,-9.04917 -1.6,-9.95309 -1.071,-1.071 -7.02222,-1.6 -18,-1.6 h -16.4 v -3.33334 c 0,-3.31042 0.0831,-3.33333 12.08766,-3.33333 16.24465,-10e-6 17.24568,-0.64511 17.24568,-11.11359 0,-4.71908 -0.69608,-9.04917 -1.6,-9.95309 -1.02676,-1.02676 -6.28148,-1.6 -14.66667,-1.6 -13.04889,0 -13.06667,-0.004 -13.06667,-3.33334 v -3.33333 h 15.42099 c 8.48155,0 16.58155,-0.62111 18,-1.38024 2.12847,-1.13913 2.57901,-2.83949 2.57901,-9.73333 0,-4.71908 -0.69608,-9.04918 -1.6,-9.9531 -1.9658,-1.9658 -51.33301,-2.23356 -54.4,-0.29505 -1.70161,1.07552 -2,6.94737 -2,39.35695 0,32.40745 0.29851,38.28221 2,39.36172 2.74264,1.74005 50.15486,1.67745 53.42099,-0.0705 z"
         style="fill:#b6131d;stroke-width:1.33333337" />
      <path
         inkscape:connector-curvature="0"
         id="path821"
         d="m 533.33335,710.40513 v -88.26155 l 4.33333,4.19325 c 7.66584,7.41804 15.94242,10.20159 30.33334,10.20159 10.27954,0 13.92305,-0.56616 19.33333,-3.00417 12.96771,-5.84356 18.38095,-13.98182 18.38095,-27.63387 0,-14.18731 -8.91831,-23.61852 -30.09202,-31.82267 -6.87941,-2.66555 -13.80872,-5.75751 -15.39848,-6.87101 -3.99422,-2.79767 -3.73949,-6.94278 0.49194,-8.0048 5.82745,-1.4626 11.69236,0.6434 17.40492,6.24985 l 5.49544,5.39336 10.32781,-3.00087 c 5.68031,-1.65048 10.64327,-3.82289 11.0288,-4.82758 1.07724,-2.80726 -3.3638,-11.47736 -8.68541,-16.95623 -7.60467,-7.82939 -13.99172,-10.45819 -26.95395,-11.09381 -14.62903,-0.71735 -24.52764,2.66776 -32.51275,11.11865 l -5.41721,5.7332 -6.41335,-3.57589 c -4.17217,-2.32628 -6.70232,-4.74074 -7.2403,-6.90923 -1.08324,-4.36627 -2.65636,-5.28729 -9.08306,-5.31791 -3.21789,-0.0153 -7.18433,-1.21334 -10,-3.02041 l -4.66666,-2.99501 15.33333,-0.32792 c 22.52621,-0.48176 21.33333,0.17089 21.33333,-11.67208 0,-11.81242 1.11474,-11.1829 -20.66666,-11.6712 l -14.66667,-0.3288 0.51756,-26.97474 c 0.39095,-20.3752 0.1064,-27.47021 -1.16325,-29 -2.15084,-2.5916 -19.31246,-2.88563 -20.93127,-0.3586 -0.58722,0.91667 -0.86076,16.17387 -0.60788,33.9049 0.25288,17.73102 0.0744,32.8618 -0.39664,33.62393 -1.25411,2.02919 -11.97058,-3.52924 -13.49671,-7.00048 -1.66256,-3.78155 -6.51775,-4.60991 -22.25515,-3.79701 l -13,0.67149 v -3.53475 -3.53474 h 13.28643 c 15.33497,0 16.04691,-0.52366 16.04691,-11.8033 0,-10.09669 -0.5962,-10.86164 -8.47599,-10.87496 -11.27657,-0.0191 -20.85735,-1.54696 -20.85735,-3.32624 0,-2.04967 8.98294,-3.32884 23.37678,-3.32884 12.74036,0 12.62322,0.11813 12.62322,-12.7288 0,-10.24121 -1.17772,-11.22691 -13.57901,-11.36492 -4.63155,-0.0516 -7.42292,-0.50153 -6.20305,-1 1.21986,-0.49845 16.56148,-14.40628 34.09245,-30.90628 56.64418,-53.31299 108.89507,-102.16584 114.05959,-106.64196 l 5.03663,-4.36528 6.96337,3.58626 c 24.65323,12.69691 177.24474,100.89605 177.83939,102.79261 0.22332,0.71228 -12.93242,9.34726 -29.235,19.18886 l -29.64102,17.89383 -13.55948,0.77284 c -7.45771,0.42507 -14.03938,1.25451 -14.62593,1.8432 -0.58654,0.58871 -1.30614,18.42643 -1.5991,39.63938 l -0.53268,38.56901 3.57873,1.36063 c 1.9683,0.74834 5.73966,1.36062 8.38082,1.36062 6.75893,0 5.1331,0.85807 -6.04,3.18772 -5.31893,1.10903 -12.71439,3.67296 -16.43437,5.69763 -8.45468,4.6016 -17.84676,14.86532 -22.3718,24.44799 -3.04416,6.44665 -3.46286,9.02948 -3.46286,21.36137 0,13.12428 0.27842,14.5936 4.3217,22.80667 9.59394,19.48804 32.39575,32.35247 52.59454,29.673 6.09611,-0.80868 6.42028,-0.6926 6.48081,2.32052 0.0351,1.74448 1.11098,13.23089 2.39098,25.52537 l 2.32725,22.35362 -3.05375,2.31305 c -7.85978,5.9534 -181.47111,108.31307 -183.70883,108.31307 -0.37732,0 -0.68604,-39.71771 -0.68604,-88.26156 z m 108.35026,-89.07178 c 0.5593,-6.96666 0.8593,-28.43924 0.66666,-47.71683 -0.2942,-29.44081 -0.67033,-35.25225 -2.35025,-36.31292 -2.21573,-1.39896 -18.57103,-1.76824 -21.89095,-0.49426 -1.86872,0.71709 -2.10905,6.23742 -2.10905,48.44444 0,26.19932 0.42159,48.05672 0.93685,48.57199 0.51528,0.51526 6.06528,0.76526 12.33334,0.55556 l 11.39648,-0.38131 z m -56.89774,-95.99 c 6.65714,-2.85364 13.8369,-9.82876 17.2985,-16.80547 2.24189,-4.51841 2.63676,-8.70318 2.99525,-31.74331 0.32331,-20.77797 0.0339,-26.77918 -1.33333,-27.64625 -2.67352,-1.69553 -16.3392,-1.35537 -18.14627,0.45169 -1.11784,1.11784 -1.6,8.37027 -1.6,24.06622 0,24.52271 -0.92503,28.50469 -7.29608,31.40753 -7.23215,3.2952 -15.58626,0.95515 -18.80392,-5.26712 -1.4239,-2.75352 -1.9,-9.30374 -1.9,-26.14041 0,-15.69595 -0.48216,-22.94838 -1.6,-24.06622 -1.80707,-1.80706 -15.47275,-2.14722 -18.14627,-0.45169 -1.36721,0.86707 -1.65664,6.86828 -1.33333,27.64625 0.35849,23.04013 0.75336,27.2249 2.99525,31.74331 8.66097,17.45582 28.64083,24.61966 46.8702,16.80547 z m 48.457,2.70509 c 1.32048,-0.7067 4.73104,-4.90145 7.57902,-9.32168 2.84797,-4.42021 5.47813,-8.02088 5.8448,-8.00146 0.36666,0.0193 3.36666,4.06414 6.66666,8.98833 l 6,8.95305 12.33334,0.38338 c 12.08193,0.37554 12.33333,0.32102 12.33333,-2.6746 0,-1.68188 -5.1,-10.69403 -11.33333,-20.02699 -6.23334,-9.33296 -11.33334,-17.23953 -11.33334,-17.57015 0,-0.8137 7.03888,-12.54944 15.01183,-25.0288 8.51608,-13.32951 8.20155,-14.96196 -2.98408,-15.48739 -12.75053,-0.59893 -14.17528,0.0892 -20.25288,9.78242 -2.97333,4.74217 -5.78904,8.61688 -6.25713,8.61046 -0.46808,-0.007 -3.18123,-3.6282 -6.0292,-8.04841 -2.84798,-4.42023 -6.3073,-8.64107 -7.68738,-9.37967 -1.38008,-0.7386 -6.84356,-1.16681 -12.14106,-0.95158 -7.8606,0.31937 -9.71228,0.81308 -10.06938,2.68478 -0.24065,1.2614 4.50299,9.92115 10.54142,19.24388 6.03844,9.32274 10.9741,17.59069 10.96816,18.37322 -0.005,0.78253 -4.90595,8.97735 -10.8889,18.21069 -10.82578,16.70724 -12.38782,20.38067 -9.2114,21.66239 3,1.21052 18.45163,0.91356 20.90952,-0.40187 z M 461.33335,755.13497 c -1.83334,-0.97333 -11.73334,-6.37713 -22,-12.00843 -10.26667,-5.63129 -20.76667,-11.31682 -23.33334,-12.63452 -2.56666,-1.31768 -32.26666,-18.46918 -66,-38.11445 l -61.33333,-35.71866 -0.34036,-122.58909 c -0.18719,-67.42401 0.1128,-123.02057 0.66666,-123.54794 0.55387,-0.52736 15.40703,7.53948 33.00703,17.92632 l 32,18.88515 -15.25217,0.37936 c -8.441,0.20994 -16.03271,1.02714 -17,1.82992 -1.36632,1.13394 -1.74783,9.69928 -1.74783,39.2404 0,37.34288 0.034,37.80804 2.8762,39.32912 1.95189,1.04463 9.12893,1.35243 22.33333,0.95779 15.95063,-0.47671 20.56786,-1.07903 25.62034,-3.34215 19.05933,-8.53712 29.23721,-29.92461 23.31759,-48.9989 -1.12731,-3.63244 -1.8492,-6.8049 -1.60419,-7.04992 1.20293,-1.20293 7.32503,2.99754 7.99219,5.48358 0.41881,1.5606 0.76966,13.66747 0.77968,26.90413 0.0133,16.91915 0.49338,24.54186 1.6182,25.66667 1.09162,1.09163 7.55217,1.60301 20.33333,1.60948 23.70767,0.012 36.73333,1.18953 36.73333,3.32076 0,1.09489 -4.11396,1.85673 -12.83661,2.37713 -7.06013,0.42122 -13.40632,1.33556 -14.10263,2.03187 -0.75853,0.75853 -1.07253,14.82676 -0.78334,35.09672 0.44493,31.18667 0.70617,34.31732 3.34265,40.05694 3.86912,8.42305 11.51407,16.59565 20.0088,21.38977 l 7.0378,3.97189 v 19.19626 c 0,10.55793 0.65095,37.24972 1.44655,59.31507 0.7956,22.06534 1.2456,40.2733 1,40.46213 -0.2456,0.18883 -1.94655,-0.45305 -3.77988,-1.4264 z M 345.13592,632.90457 c 0.89329,-1.07636 1.60544,-10.25684 1.82992,-23.59019 l 0.3675,-21.82809 7.76734,12.25686 7.76732,12.25687 h 6.39273 6.39272 l 7.83995,-12.33333 7.83995,-12.33334 0.74676,23.33334 c 0.41072,12.83333 0.86072,23.50585 1,23.7167 0.13928,0.21086 5.80324,0.21086 12.58657,0 l 12.33333,-0.38337 v -48.66667 -48.66667 l -9.98429,-0.39816 c -5.49137,-0.21898 -11.29133,-0.0701 -12.88881,0.33083 -1.93436,0.48549 -6.55402,6.53999 -13.83071,18.12649 -6.00941,9.56863 -11.54974,17.18966 -12.31182,16.93563 -0.76208,-0.25403 -6.16392,-7.93177 -12.0041,-17.06165 -5.84019,-9.1299 -11.29992,-17.04062 -12.13274,-17.57939 -2.5443,-1.64599 -21.4944,-1.17355 -23.24753,0.57959 -1.18209,1.18209 -1.6,13.5165 -1.6,47.22428 0,25.09336 0.36419,46.57336 0.80932,47.73333 1.07111,2.79128 22.04965,3.09047 24.32659,0.34694 z m 209.5667,-26.97882 -7.7661,-7.4076 -4.96441,2.07427 c -8.41184,3.51468 -8.63876,3.28535 -8.63876,-8.73052 v -10.80479 l 4.68467,4.11319 c 5.97981,5.25035 9.28832,6.91964 23.95508,12.08647 16.22918,5.71724 19.61921,9.01562 14.25526,13.86993 -1.4629,1.32392 -4.70277,2.20665 -8.09898,2.20665 -5.0475,0 -6.5019,-0.8024 -13.42676,-7.4076 z m 137.96704,1.30707 c -2.19836,-1.14627 -5.13311,-3.09256 -6.52164,-4.32512 -3.6126,-3.20679 -7.41783,-12.136 -7.45205,-17.48672 -0.038,-5.95047 4.57593,-15.38758 9.09738,-18.60714 5.02856,-3.58065 13.90093,-5.7538 17.72573,-4.34164 2.99894,1.10726 3.24392,2.16267 5.18669,22.34499 2.01701,20.95378 2.00981,21.20034 -0.66667,22.80224 -3.8054,2.27759 -12.63689,2.081 -17.36944,-0.38661 z M 341.33334,488.66668 v -18.27364 l 11.30816,0.47015 c 10.59576,0.44054 11.57011,0.73213 15.46592,4.62838 7.45263,7.45349 7.43489,18.91449 -0.0409,26.3911 -3.84801,3.84845 -4.85537,4.14805 -15.42504,4.58751 l -11.30811,0.47014 z"
         style="fill:#a7141b;stroke-width:1.33333337" />
      <path
         inkscape:connector-curvature="0"
         id="path819"
         d="m 534.66668,711.33336 c 0,-47.30001 0.50702,-86.00001 1.12668,-86.00001 0.61968,0 2.17746,1.16108 3.46171,2.58018 1.28427,1.41909 5.12727,3.94634 8.53999,5.6161 5.22833,2.55811 8.40848,3.0439 20.20496,3.0865 15.83814,0.0572 21.94115,-1.55655 28.85957,-7.63102 6.83444,-6.0007 9.8071,-12.76572 9.8071,-22.31842 0,-16.77251 -8.98922,-25.68238 -35.02134,-34.71227 -8.65584,-3.0025 -14.312,-6.67504 -14.312,-9.29276 0,-2.33103 5.47505,-4.17558 9.74487,-3.28304 2.34032,0.48921 6.76286,3.3126 9.82788,6.2742 6.18572,5.97704 7.85606,6.09896 22.76059,1.66137 6.2217,-1.85243 7,-2.48807 7,-5.71696 0,-5.24628 -8.55087,-17.15972 -15.46239,-21.54288 -15.86458,-10.06101 -42.38207,-7.54975 -54.45374,5.15689 -2.15386,2.26716 -4.37941,4.12211 -4.94565,4.12211 -2.83181,0 -13.07636,-7.5746 -13.41691,-9.92017 -0.29022,-1.99899 -1.89294,-2.96862 -6.36116,-3.84847 -3.28524,-0.64691 -7.12152,-1.98052 -8.52504,-2.96359 -2.45636,-1.72049 -2.43241,-1.81512 0.63984,-2.52785 1.75544,-0.40725 8.59171,-0.89033 15.19171,-1.07352 l 12,-0.33307 0.39788,-9.97069 c 0.49648,-12.44136 -0.44085,-13.32295 -14.31939,-13.46791 -5.54317,-0.0579 -9.17849,-0.43752 -8.07849,-0.84361 1.1,-0.40609 6.43984,-5.00784 11.86631,-10.22611 10.87953,-10.4621 11.82194,-10.37024 12.053,1.17499 0.0587,2.93333 1.50993,8.33333 3.22493,12 9.94041,21.25255 35.92124,28.36063 55.19414,15.10052 4.49757,-3.09441 6.982,-6.26231 10.14248,-12.93275 4.16284,-8.78594 4.1879,-8.96985 4.56806,-33.50111 0.21024,-13.56666 -0.15562,-25.46593 -0.81302,-26.44281 -1.62896,-2.42061 -16.3241,-3.65072 -20.01497,-1.67543 -2.79924,1.49811 -2.8876,2.28968 -2.8876,25.86848 0,26.64355 -0.45253,28.45683 -7.86848,31.52862 -5.5435,2.2962 -12.84558,-0.21373 -15.48804,-5.32369 -2.54445,-4.92044 -2.76526,-35.08377 -0.29049,-39.68215 1.51908,-2.8226 19.76703,-20.22614 89.1135,-84.98976 l 26.13314,-24.40611 7.20019,3.65012 c 8.72415,4.42269 18.77759,9.97676 36.79662,20.32844 7.47802,4.29603 13.83649,7.81096 14.12992,7.81096 1.75594,0 44.27365,25.63725 44.27365,26.69605 0,0.71108 -13.8,9.48547 -30.66667,19.49866 l -30.66666,18.20577 -11.55696,0.79976 c -6.35634,0.43987 -12.03155,1.27497 -12.61161,1.8558 -0.58004,0.58083 -1.37941,3.78245 -1.77637,7.11475 -0.69463,5.83113 -1.04077,6.23765 -9.21519,10.82216 -9.61369,5.39172 -9.61145,5.42578 -0.57817,-8.78198 6.02087,-9.46977 4.87956,-10.8846 -8.75829,-10.85722 -5.59355,0.0107 -10.84032,0.46122 -11.65952,1 -0.81919,0.53877 -3.68763,4.42958 -6.37431,8.64625 -2.68667,4.21667 -5.41264,7.66667 -6.05771,7.66667 -0.64505,0 -3.6359,-3.9 -6.64633,-8.66667 l -5.47349,-8.66667 h -12.64603 c -11.77048,0 -12.64603,0.18522 -12.64603,2.67514 0,1.47132 5.21722,10.50704 11.5938,20.07936 l 11.5938,17.40423 -2.44274,4.53592 c -1.34352,2.49474 -5.66074,7.60714 -9.5938,11.36088 -3.93308,3.75373 -7.15106,7.70077 -7.15106,8.77118 0,1.0704 -1.2,4.29839 -2.66666,7.1733 -3.64004,7.13508 -3.39766,9.2538 1.16301,10.16593 3.49637,0.69928 3.75375,1.13155 2.95729,4.96667 -0.47982,2.3104 -0.55317,25.80073 -0.16301,52.20073 l 0.70937,48 4.66667,0.66667 c 5.80007,0.82859 5.27439,-1.92475 11.01285,57.68052 4.07776,42.35551 4.19598,45.05756 2.00164,45.75402 -1.28262,0.40708 -3.10025,1.50836 -4.03916,2.44728 -3.18741,3.18741 -90.98124,55.45152 -93.14807,55.45152 -0.64658,0 -1.1606,-38.08868 -1.1606,-86 z m -163.13475,-8 c -16.94467,-9.11211 -58.94904,-32.68793 -73.05576,-41.00403 l -9.80949,-5.78284 -0.34043,-121.19947 c -0.20305,-72.2891 0.15344,-121.69335 0.88337,-122.42329 1.0952,-1.0952 30.04856,15.38302 52.12372,29.66512 l 7.33334,4.7445 -14,0.66666 -14,0.66667 -0.35314,39.6363 -0.35312,39.63629 3.24182,0.81365 c 4.29148,1.0771 45.95894,-0.0772 49.79777,-1.3795 l 3,-1.01775 v 16.30729 c 0,14.29514 -0.35933,16.94667 -2.91219,21.48886 -1.6017,2.84984 -3.42869,5.18153 -4.05997,5.18153 -0.63129,0 -6.04855,-7.52019 -12.03835,-16.71152 l -10.89054,-16.71153 -12.71615,0.3782 -12.71613,0.37818 v 48.66667 48.66667 l 9.95366,1.08325 c 16.42339,1.78735 16.04634,2.32908 16.04634,-23.05466 0,-11.74906 0.45,-21.33375 1,-21.29931 0.55,0.0344 4.00168,4.98444 7.67041,11 l 6.67041,10.93739 7.52083,0.39562 7.52082,0.39564 0.80812,24.9377 c 0.44448,13.71574 1.14976,34.6877 1.56729,46.60437 0.45021,12.8489 0.25997,21.66667 -0.46744,21.66667 -0.67463,0 -4.01596,-1.5 -7.42519,-3.33333 z M 560.4322,610.74142 c -2.32897,-1.42009 -5.58734,-4.41181 -7.24082,-6.64827 -3.87515,-5.24141 -6.32628,-5.9304 -12.26712,-3.44816 -2.66123,1.11194 -5.15787,2.0217 -5.54808,2.0217 -0.39023,0 -0.7095,-4.2 -0.7095,-9.33334 0,-5.13333 0.23971,-9.33333 0.53268,-9.33333 0.29298,0 3.5845,2.05372 7.31448,4.56381 3.72999,2.5101 10.24028,5.82194 14.46732,7.35962 4.22704,1.53769 10.24238,3.73622 13.3674,4.88561 7.36219,2.70783 9.35488,6.1542 5.68202,9.82707 -3.43794,3.43793 -10.05947,3.48262 -15.59838,0.10533 z M 342.66668,488.68034 v -18.37197 l 9.17046,0.65614 c 13.18924,0.94369 20.13606,6.97445 20.15408,17.49645 0.0183,10.6699 -6.71694,16.4802 -20.60718,17.7773 l -8.71736,0.81404 z"
         style="fill:#961519;stroke-width:1.33333337" />
    </g>
    <path
       inkscape:connector-curvature="0"
       id="path822"
       d="m 322.91033,488.61088 0.20765,-37.35282 7.727,-0.22792 c 4.24986,-0.12536 14.17705,0.095 22.06043,0.48959 12.89604,0.64556 14.79079,0.92691 18.89435,2.80558 5.18964,2.3759 13.38776,10.10921 16.65321,15.70903 5.83347,10.00367 6.0309,25.27158 0.46781,36.1787 -2.47178,4.84625 -11.48185,13.49175 -16.70574,16.02981 -6.35492,3.08757 -11.67737,3.711 -31.72692,3.71622 l -17.78544,0.005 z m 31.65611,20.54069 c 8.76043,-1.09847 12.27405,-2.61089 16.06143,-6.91358 7.71831,-8.76848 7.1957,-20.16917 -1.30048,-28.36943 -4.79512,-4.62812 -7.59155,-5.4322 -18.89202,-5.4322 h -9.88699 l -0.4279,15.78007 c -0.23535,8.67904 -0.20218,17.7552 0.0737,20.16924 0.46583,4.07623 0.6725,4.42554 2.89856,4.89916 3.62998,0.77232 4.31498,0.76437 11.4737,-0.13326 z"
       style="fill:#ffffff;fill-opacity:1;stroke:#00f3ff;stroke-width:0.79899079;stroke-opacity:1" />
    <path
       inkscape:connector-curvature="0"
       id="path824"
       d="m 404.67211,524.70814 c -1.1027,-1.1027 -1.25556,-5.46145 -1.25556,-35.80187 0,-26.40236 0.23544,-34.85663 0.99874,-35.86265 1.14744,-1.51231 10.85427,-1.93114 36.75357,-1.58581 l 14.98108,0.19974 v 7.47912 7.47912 l -4.1947,0.50385 c -2.30709,0.27711 -7.28648,0.50696 -11.06532,0.51078 -3.77884,0.004 -9.62146,0.23948 -12.9836,0.52369 l -6.11298,0.51673 v 5.35846 5.35845 l 6.11298,0.51674 c 3.36214,0.2842 8.53061,0.51673 11.48549,0.51673 2.95488,0 6.49609,0.22472 7.86936,0.49937 l 2.49684,0.49937 v 7.3709 7.37089 l -7.31366,0.51914 c -4.02251,0.28553 -9.74584,0.51914 -12.7185,0.51914 -7.86879,0 -7.93251,0.051 -7.93251,6.35266 v 5.38271 l 12.11189,0.52424 c 6.66155,0.28833 14.39178,0.52424 17.1783,0.52424 h 5.06641 v 7.98991 7.98991 H 431.0388 c -21.76299,0 -25.27855,-0.16741 -26.36669,-1.25556 z"
       style="fill:#ffffff;fill-opacity:1;stroke:#00f3ff;stroke-width:0.79899079;stroke-opacity:1" />
    <path
       inkscape:connector-curvature="0"
       id="path826"
       d="m 476.91956,526.09686 c -0.5121,-0.17159 -0.79485,-13.63488 -0.79485,-37.84733 v -37.581 l 7.79016,0.57637 c 4.28459,0.31701 7.93337,0.71271 8.10841,0.87935 0.17504,0.16664 0.6385,12.96763 1.0299,28.44664 0.39141,15.47902 0.78751,28.21593 0.88024,28.30426 0.0927,0.0883 7.80893,0.42308 17.14714,0.7439 l 16.97855,0.5833 v 7.85869 7.8587 l -25.17235,0.22172 c -13.84479,0.12195 -25.53003,0.10188 -25.9672,-0.0446 z"
       style="fill:#ffffff;fill-opacity:1;stroke:#00f3ff;stroke-width:0.79899079;stroke-opacity:1" />
    <path
       inkscape:connector-curvature="0"
       id="path828"
       d="m 560.6605,524.84559 c -7.5091,-2.0215 -17.19305,-10.58551 -21.20298,-18.75087 l -2.21002,-4.50024 -0.28202,-24.84608 -0.28202,-24.84608 5.58798,-0.51935 c 5.67772,-0.52769 10.25963,-0.053 10.99649,1.13928 0.22377,0.36207 0.69917,10.83235 1.05645,23.26728 0.71814,24.99483 0.90052,25.89292 6.05699,29.82595 1.51871,1.15838 4.30556,2.5669 6.19302,3.13006 4.65128,1.38781 9.59081,-0.0967 14.39637,-4.32677 3.478,-3.06147 3.66449,-3.45137 4.4964,-9.40104 0.47735,-3.41391 1.11304,-14.79451 1.41265,-25.29023 l 0.54473,-19.08312 5.99293,0.50659 c 3.2961,0.27862 6.87516,0.50658 7.95345,0.50658 h 1.96054 l -0.29993,24.96847 -0.29993,24.96846 -2.14787,4.61914 c -2.59648,5.58392 -9.60844,13.14452 -14.82267,15.98247 -6.37203,3.46809 -17.6412,4.65761 -25.10056,2.6495 z"
       style="fill:#ffffff;fill-opacity:1;stroke:#00f3ff;stroke-width:0.79899079;stroke-opacity:1" />
    <path
       inkscape:connector-curvature="0"
       id="path830"
       d="m 614.11802,525.46527 c -0.72657,-0.72657 1.85847,-5.46945 10.59684,-19.44243 4.27135,-6.83005 8.38092,-13.60794 9.13237,-15.06199 l 1.36628,-2.64371 -4.70393,-7.74317 c -2.58716,-4.25874 -7.50843,-12.34006 -10.93616,-17.95849 -3.42773,-5.61843 -5.97534,-10.4723 -5.66135,-10.78638 0.31398,-0.31407 4.76565,-0.67905 9.8926,-0.81107 l 9.32173,-0.24003 5.81965,8.86461 c 3.20082,4.87553 6.35142,9.06866 7.00135,9.31806 1.73259,0.66486 2.90249,-0.58747 9.22301,-9.87294 l 5.71473,-8.39549 9.02873,0.28661 c 4.96581,0.15764 9.28823,0.54611 9.60538,0.86326 0.64641,0.6464 -2.19902,5.67051 -13.54738,23.92035 l -7.78508,12.51954 1.3677,2.66129 c 0.75223,1.4637 4.4337,7.51515 8.18105,13.44766 8.77976,13.89944 12.13182,19.62804 12.13182,20.73304 0,0.61623 -2.99134,0.82008 -9.75185,0.66455 l -9.75185,-0.22434 -5.02634,-7.13607 c -2.76448,-3.92485 -5.81141,-7.97175 -6.77094,-8.99313 l -1.74461,-1.85705 -1.92258,1.80221 c -1.05742,0.99121 -3.56859,4.31903 -5.58038,7.39514 -6.29325,9.62266 -5.54714,9.1884 -15.78641,9.1884 -4.90378,0 -9.14025,-0.2243 -9.41438,-0.49843 z"
       style="fill:#ffffff;fill-opacity:1;stroke:#00f3ff;stroke-width:0.79899079;stroke-opacity:1" />
    <path
       inkscape:connector-curvature="0"
       id="path832"
       d="m 693.91805,524.71943 c -1.11818,-1.11818 -1.26541,-5.36221 -1.25461,-36.16562 0.007,-19.19433 0.27639,-35.30553 0.59925,-35.80267 0.40981,-0.63104 8.3051,-0.99282 26.15471,-1.19849 l 25.5677,-0.29459 v 7.98991 7.9899 l -15.58032,0.45573 c -15.07104,0.44082 -18.11763,0.8628 -19.36329,2.68196 -0.76922,1.12338 -0.75578,6.18473 0.0197,7.40445 1.06135,1.66945 7.4516,2.60156 17.97335,2.62168 l 10.21509,0.0195 -0.2277,8.18966 -0.2277,8.18965 -12.95621,0.3995 c -14.21955,0.43845 -15.44827,0.85469 -15.57398,5.27581 -0.10814,3.80339 0.86282,5.69892 3.18808,6.22383 1.19426,0.26959 9.10499,0.72378 17.57941,1.0093 l 15.40803,0.51913 -0.22721,7.66805 -0.22721,7.66805 -24.9001,0.21104 c -21.85018,0.18518 -25.05527,0.0559 -26.16695,-1.05581 z"
       style="fill:#ffffff;fill-opacity:1;stroke:#00f3ff;stroke-width:0.79899079;stroke-opacity:1" />
    <path
       inkscape:connector-curvature="0"
       id="path834"
       d="m 689.54499,632.6141 c -6.91177,-1.93828 -13.46413,-5.9062 -20.16934,-12.21398 -10.60378,-9.97527 -15.70166,-22.991 -14.88826,-38.01214 1.09055,-20.13929 15.84937,-38.11587 36.20811,-44.10232 6.18193,-1.81778 17.42225,-1.81015 24.32745,0.0165 9.71022,2.5687 15.00619,5.67948 22.37174,13.14086 3.73528,3.78388 7.30385,7.87272 7.93015,9.08631 1.03351,2.00264 0.9966,2.3163 -0.39949,3.39455 -2.63211,2.03286 -14.03125,7.58227 -15.57489,7.58227 -0.807,0 -3.90257,-2.16177 -6.87906,-4.80394 -7.23798,-6.42502 -12.06385,-8.2492 -20.6318,-7.79883 -11.04004,0.58032 -18.87371,5.69949 -23.26227,15.20151 -1.98485,4.29755 -2.30023,5.93606 -2.26803,11.78309 0.0314,5.71088 0.38383,7.50876 2.21475,11.30002 2.40855,4.98733 7.33355,9.97587 12.6495,12.81269 3.00429,1.60323 4.61182,1.85364 11.86454,1.84821 10.15772,-0.008 14.12187,-1.58557 20.47094,-8.14857 2.25039,-2.32623 4.69875,-4.2295 5.4408,-4.2295 2.07222,0 14.28256,6.05318 15.96873,7.91637 1.46889,1.62311 1.45499,1.71101 -0.78052,4.93686 -2.69687,3.89158 -11.11605,11.75564 -16.16783,15.10179 -6.94536,4.60042 -11.51026,5.79559 -23.33414,6.10925 -7.92716,0.2103 -11.92745,-0.0339 -15.09108,-0.92102 z"
       style="fill:#ffffff;fill-opacity:1;stroke:#00f3ff;stroke-width:0.79899079;stroke-opacity:1" />
    <path
       inkscape:connector-curvature="0"
       id="path836"
       d="m 621.7988,632.52341 c -0.95684,-0.21443 -2.08862,-0.81772 -2.51508,-1.34064 -0.927,-1.13671 -1.41507,-29.21585 -1.1384,-65.49315 l 0.19975,-26.19082 10.18713,0.22362 10.18713,0.22361 v 45.30307 c 0,29.93167 -0.27842,45.58138 -0.82058,46.12336 -0.89483,0.89451 -13.29019,1.78063 -16.09995,1.15095 z"
       style="fill:#ffffff;fill-opacity:1;stroke:#00f3ff;stroke-width:0.79899079;stroke-opacity:1" />
    <path
       inkscape:connector-curvature="0"
       id="path838"
       d="m 553.8709,632.68541 c -8.83338,-2.1414 -18.39369,-10.14016 -23.18006,-19.39389 -2.19876,-4.25099 -2.20827,-4.33006 -0.63425,-5.27298 2.61775,-1.56818 14.26371,-6.04494 15.8683,-6.09985 0.81755,-0.028 4.29545,2.59162 7.72866,5.82134 6.96209,6.54944 10.37245,8.50962 14.80515,8.50962 5.72193,0 12.3338,-5.51571 12.3338,-10.28903 0,-2.7837 -5.50654,-6.29728 -15.82406,-10.09691 -19.49931,-7.18099 -28.24749,-13.22349 -31.04285,-21.44176 -1.98054,-5.82271 -1.82955,-15.00497 0.32642,-19.85147 3.15099,-7.08326 11.77922,-14.1064 19.94252,-16.23267 8.65173,-2.25349 24.30345,-1.20093 30.70495,2.06487 6.71999,3.42828 17.46577,15.58541 17.46577,19.75971 0,2.14871 -1.83571,3.13795 -10.77995,5.80915 l -7.18448,2.14565 -4.17222,-3.81318 c -8.62192,-7.87994 -18.71215,-10.27536 -23.42615,-5.56137 -2.26242,2.26242 -2.00801,5.72335 0.61342,8.34477 2.59996,2.59996 6.99559,4.90066 19.37093,10.13886 20.15752,8.53223 26.36126,15.4963 26.37299,29.60527 0.0109,13.08423 -7.48701,22.2002 -21.19674,25.77113 -5.73621,1.4941 -22.0718,1.5422 -28.09215,0.0827 z"
       style="fill:#ffffff;fill-opacity:1;stroke:#00f3ff;stroke-width:0.79899079;stroke-opacity:1" />
    <path
       inkscape:connector-curvature="0"
       id="path840"
       d="m 463.42446,632.6101 c -6.59964,-1.84679 -11.57761,-4.92718 -16.8713,-10.44 -5.77315,-6.01214 -9.21873,-12.91039 -10.34026,-20.70178 -0.44279,-3.07611 -0.81219,-18.26692 -0.82089,-33.75736 l -0.0158,-28.16442 h 10.38688 c 5.71278,0 10.40735,0.0899 10.43236,0.19975 0.025,0.10986 0.35494,12.96362 0.73317,28.56392 0.73596,30.35498 1.32151,34.99705 4.90547,38.88915 3.04145,3.30294 7.65663,5.02025 13.49166,5.02025 7.9331,0 13.76515,-3.30097 15.93093,-9.01697 1.15504,-3.04845 2.43023,-21.5408 2.43884,-35.36738 0.004,-6.19373 0.24143,-15.09249 0.52793,-19.77502 l 0.52092,-8.5137 h 10.26546 10.26546 l -0.0477,22.17199 c -0.0262,12.1946 -0.33545,27.42042 -0.68713,33.83515 -0.61051,11.13566 -0.76194,11.89453 -3.34801,16.77869 -3.90901,7.38271 -11.39278,14.56304 -18.88871,18.12284 -5.76423,2.73742 -6.60615,2.90922 -15.33375,3.12883 -6.43061,0.16182 -10.54361,-0.13392 -13.5455,-0.97394 z"
       style="fill:#ffffff;fill-opacity:1;stroke:#00f3ff;stroke-width:0.79899079;stroke-opacity:1" />
    <path
       inkscape:connector-curvature="0"
       id="path842"
       d="m 326.11551,632.51598 c -1.1117,-0.24587 -2.00165,-1.21367 -2.33489,-2.53913 -0.29616,-1.17801 -0.56642,-22.09662 -0.60056,-46.48582 l -0.0621,-44.34399 7.19091,-0.24233 c 9.02679,-0.3042 11.72848,0.19311 14.71887,2.70935 1.30985,1.10217 5.96711,7.64958 10.34948,14.54979 4.38236,6.90022 9.228,13.98404 10.76809,15.74182 l 2.80015,3.19596 2.02966,-1.99748 c 1.11632,-1.09861 6.83155,-9.18839 12.70051,-17.97729 l 10.67084,-15.97982 10.55863,-0.22315 10.55862,-0.22316 -0.23092,45.44378 c -0.18845,37.0872 -0.43255,45.68662 -1.32747,46.76437 -0.88385,1.0644 -2.62215,1.32059 -8.96054,1.32059 -7.2714,0 -7.93446,-0.13172 -8.79954,-1.74814 -0.61217,-1.14385 -1.10524,-9.40688 -1.42635,-23.90331 -0.26992,-12.18534 -0.76184,-22.42617 -1.09316,-22.75739 -0.99332,-0.99305 -4.11478,2.52389 -10.22823,11.52414 -8.2604,12.161 -10.65238,14.51296 -14.75996,14.51296 -4.05344,0 -4.29036,-0.24836 -13.89672,-14.56757 -4.04849,-6.03465 -7.72763,-11.19876 -8.17588,-11.4758 -2.04488,-1.2638 -2.4569,2.07399 -2.95368,23.9277 -0.31438,13.8297 -0.84164,23.134 -1.33913,23.63097 -0.90162,0.90068 -13.28968,1.77703 -16.15665,1.14295 z"
       style="fill:#ffffff;fill-opacity:1;stroke:#00f3ff;stroke-width:0.79899079;stroke-opacity:1" />
  </g>
</svg>
