<?xml version="1.0" encoding="UTF-8" standalone="no"?>
<!-- Generator: Adobe Illustrator 22.1.0, SVG Export Plug-In . SVG Version: 6.00 Build 0)  -->

<svg
   xmlns:dc="http://purl.org/dc/elements/1.1/"
   xmlns:cc="http://creativecommons.org/ns#"
   xmlns:rdf="http://www.w3.org/1999/02/22-rdf-syntax-ns#"
   xmlns:svg="http://www.w3.org/2000/svg"
   xmlns="http://www.w3.org/2000/svg"
   xmlns:sodipodi="http://sodipodi.sourceforge.net/DTD/sodipodi-0.dtd"
   xmlns:inkscape="http://www.inkscape.org/namespaces/inkscape"
   version="1.1"
   id="svg2985"
   inkscape:version="0.92.5 (2060ec1f9f, 2020-04-08)"
   sodipodi:docname="Eurosport_1.svg"
   x="0px"
   y="0px"
   viewBox="0 0 1067 1067"
   xml:space="preserve"
   width="1067"
   height="1067"><metadata
   id="metadata25"><rdf:RDF><cc:Work
       rdf:about=""><dc:format>image/svg+xml</dc:format><dc:type
         rdf:resource="http://purl.org/dc/dcmitype/StillImage" /><dc:title></dc:title></cc:Work></rdf:RDF></metadata><defs
   id="defs23" /><sodipodi:namedview
   pagecolor="#ffffff"
   bordercolor="#666666"
   borderopacity="1"
   objecttolerance="10"
   gridtolerance="10"
   guidetolerance="10"
   inkscape:pageopacity="0"
   inkscape:pageshadow="2"
   inkscape:window-width="1920"
   inkscape:window-height="1019"
   id="namedview21"
   showgrid="false"
   inkscape:zoom="0.66891169"
   inkscape:cx="326.64999"
   inkscape:cy="33"
   inkscape:window-x="0"
   inkscape:window-y="0"
   inkscape:window-maximized="1"
   inkscape:current-layer="svg2985" />
<style
   type="text/css"
   id="style2">
	.st0{fill:#171F50;}
	.st1{fill:#D30132;}
	.st2{fill:#FFFFFF;}
</style>
<g
   id="g3044"
   transform="matrix(1.6332466,0,0,1.6332466,-1.89e-6,479.60286)">
	<path
   id="XMLID_193_"
   inkscape:connector-curvature="0"
   class="st0"
   d="M 56.3,64.2 35,50.3 2.1,64.2 21.6,41.8 0,28 H 33.5 L 56.3,1.7 V 28 H 88.7 L 56.3,41.6 Z"
   style="fill:#171f50" />
	<path
   id="XMLID_192_"
   inkscape:connector-curvature="0"
   class="st0"
   d="m 96.7,14.6 c 1.2,0 2.1,-0.9 2.1,-2.1 V 3.8 c 0,-1.2 -0.9,-2.1 -2.1,-2.1 h -35 v 12.9 c 0,0 35,0 35,0 z"
   style="fill:#171f50" />
	<path
   id="XMLID_191_"
   inkscape:connector-curvature="0"
   class="st0"
   d="m 96.7,64.2 c 1.2,0 2.1,-0.9 2.1,-2.1 v -8.8 c 0,-1.2 -0.9,-2.1 -2.1,-2.1 h -35 v 12.9 c 0,0.1 35,0.1 35,0.1 z"
   style="fill:#171f50" />
	<path
   id="XMLID_179_"
   inkscape:connector-curvature="0"
   class="st0"
   d="M 153.9,1.7 H 145 c -1.2,0 -2.1,0.9 -2.1,2.1 v 38.7 c 0,1.6 -0.2,3 -0.9,4.4 -0.5,1.2 -1.4,2.3 -2.3,3 -0.9,0.9 -2.1,1.4 -3.5,1.8 -1.4,0.5 -3.8,0.7 -5.4,0.7 -1.6,0 -4.2,-0.2 -5.6,-0.7 -1.4,-0.5 -2.6,-1.2 -3.5,-1.8 -0.9,-0.7 -1.6,-1.8 -2.3,-3 -0.5,-1.2 -0.9,-2.8 -0.9,-4.4 V 3.8 c 0,-1.2 -0.9,-2.1 -2.1,-2.1 h -8.9 c -1.2,0 -2.1,0.9 -2.1,2.1 v 38.9 c 0,3.7 0.7,6.9 2.1,9.7 1.4,2.8 3.3,5.1 5.6,7.1 2.3,1.8 5.2,3.5 8.2,4.4 3,0.9 6.3,1.4 9.6,1.4 3.3,0 6.6,-0.5 9.6,-1.4 3,-0.9 5.9,-2.5 8,-4.4 2.3,-1.8 4.2,-4.4 5.4,-7.1 1.4,-2.8 2.1,-6 2.1,-9.7 V 3.8 c 0,-1.2 -0.9,-2.1 -2.1,-2.1 z"
   style="fill:#171f50" />
	<path
   id="XMLID_177_"
   inkscape:connector-curvature="0"
   class="st0"
   d="M 216.8,60.9 202.3,43.2 c 0,0 11.7,-4.1 11.7,-18.9 0,-3 -0.5,-6 -1.6,-8.8 -0.9,-2.8 -2.6,-5.3 -4.7,-7.4 -2.1,-2.1 -4.5,-3.7 -7.3,-4.8 -2.8,-1.1 -6.1,-1.8 -9.6,-1.8 h -23.5 c -1.2,0 -2.1,0.9 -2.1,2.1 v 58.5 c 0,1.2 0.9,2.1 2.1,2.1 h 8.9 c 1.2,0 2.1,-0.9 2.1,-2.1 V 14.6 h 13.1 c 1.4,0 2.8,0.2 3.8,0.7 1.2,0.5 2.1,1.2 3,2.1 0.7,0.9 1.4,1.8 1.9,3 0.5,1.2 0.7,2.5 0.7,4.1 0,1.4 -0.2,2.8 -0.7,3.9 -0.5,1.2 -1.2,2.3 -1.9,3.2 -0.9,0.9 -1.9,1.4 -2.8,1.8 -1.2,0.5 -3,0.7 -7,0.7 h -5.6 c 0,0 -1.9,0.9 -1.2,2.3 l 20.6,26.7 c 0.5,0.5 0.9,0.9 1.6,0.9 h 11.5 c 2,0.4 3.1,-1.2 1.5,-3.1 z"
   style="fill:#171f50" />
	<path
   id="XMLID_183_"
   inkscape:connector-curvature="0"
   class="st0"
   d="M 274.3,9.3 C 271.3,6.5 268,4.5 264,3.1 260,1.7 256,1 251.6,1 c -4.2,0 -8.4,0.7 -12.2,2.1 -4,1.4 -7.5,3.5 -10.3,6.2 -3,2.8 -5.4,6.2 -7,10.1 -1.6,3.9 -2.6,8.5 -2.6,13.6 0,5.1 0.9,9.7 2.6,13.6 1.6,3.9 4,7.4 7,10.1 3,2.8 6.3,4.8 10.3,6.2 4,1.4 8,2.1 12.4,2.1 4.7,0 9.1,-0.7 13.1,-2.3 4,-1.6 7.5,-3.7 10.3,-6.7 2.8,-2.8 5.2,-6.2 6.8,-10.1 1.6,-3.9 2.3,-8.3 2.3,-13.1 0,-5.1 -0.9,-9.7 -2.6,-13.6 -2,-3.6 -4.6,-7.1 -7.4,-9.9 z m -5.2,32.5 c -0.9,2.3 -2.3,4.4 -4,6 -1.6,1.6 -3.8,2.8 -6.1,3.7 -2.3,0.9 -4.7,1.2 -7.5,1.2 -2.6,0 -5.2,-0.5 -7.5,-1.2 -2.3,-0.9 -4.2,-2.1 -5.9,-3.7 -1.6,-1.6 -3,-3.7 -4,-6 -0.9,-2.5 -1.6,-5.3 -1.6,-8.5 0,-3.2 0.5,-6.2 1.6,-8.5 0.9,-2.5 2.3,-4.4 4,-6 1.6,-1.6 3.8,-2.8 6.1,-3.7 2.3,-0.9 4.9,-1.4 7.5,-1.4 2.6,0 5.2,0.5 7.5,1.4 2.3,0.9 4.2,2.1 5.9,3.7 1.7,1.6 3,3.7 4,6.2 0.9,2.5 1.6,5.3 1.6,8.5 -0.2,2.8 -0.7,5.8 -1.6,8.3 z"
   style="fill:#171f50" />
	<path
   id="XMLID_186_"
   inkscape:connector-curvature="0"
   class="st0"
   d="m 301.5,19.7 c 0,1.4 0.2,2.1 0.7,2.8 0.5,0.7 1.4,1.4 2.3,2.1 1.2,0.5 2.3,0.9 4,1.4 1.6,0.5 3.3,0.7 4.9,0.9 3,0.5 6.1,1.2 8.9,1.8 3,0.7 5.6,1.8 8,3.2 2.4,1.4 4.2,3.5 5.4,5.8 1.4,2.5 1.9,5.5 1.9,9.2 -0.2,3.5 -1.2,6.7 -2.8,9 -1.6,2.3 -3.8,4.4 -6.3,5.8 -2.5,1.4 -4.9,2.5 -8,3 -3.1,0.5 -6.3,0.7 -9.1,0.7 -7.3,-0.2 -17.8,-4.4 -23.2,-11.5 -0.5,-0.7 -0.9,-1.6 0.2,-2.8 1.2,-1.2 6.6,-6.7 6.6,-6.7 1.2,-1.2 2.1,-0.2 2.6,0.2 3,4.6 9.4,7.8 14.3,8.1 2.6,0 2.8,0 4.5,-0.2 1.4,-0.2 2.8,-0.5 4,-1.2 1.2,-0.5 2.1,-1.2 2.8,-2.1 0.7,-0.9 1.2,-2.1 1.2,-3.5 0,-1.4 -0.2,-2.5 -0.9,-3.2 -0.7,-0.9 -1.6,-1.6 -2.8,-2.3 -1.2,-0.7 -2.8,-1.2 -4.5,-1.4 -1.6,-0.2 -3.5,-0.7 -5.2,-0.9 -2.8,-0.5 -5.6,-0.9 -8.2,-1.6 -2.8,-0.7 -5.2,-1.8 -7.3,-3.2 -2.1,-1.4 -4,-3.2 -5.2,-5.5 -1.4,-2.3 -1.9,-4.8 -1.9,-8.3 0.2,-3.2 0.9,-6.2 2.6,-8.8 1.4,-2.3 3.5,-4.4 5.9,-6 2.3,-1.4 4.9,-2.5 8,-3.2 5.6,-1.4 11.5,-1.2 17.1,0.7 6.1,1.8 11,6.5 13.4,9.7 0.5,0.7 0.9,1.6 0,2.5 l -6.3,6.2 c -1.2,1.2 -2.3,0.9 -3,-0.2 -3.3,-4.8 -7.5,-6.9 -12.4,-7.1 -5.9,-0.1 -12,1.1 -12.2,6.6 z"
   style="fill:#171f50" />
	<path
   id="XMLID_187_"
   inkscape:connector-curvature="0"
   class="st0"
   d="M 390.6,15.8 C 389.7,13 388,10.5 385.9,8.4 383.8,6.3 381.4,4.7 378.6,3.6 375.8,2.4 372.5,1.8 369,1.8 h -23.7 c -1.2,0 -2.1,0.9 -2.1,2.1 v 58.5 c 0,1.2 0.9,2.1 2.1,2.1 h 8.9 c 1.2,0 2.1,-0.9 2.1,-2.1 v -15 H 369 c 3.5,0 6.8,-0.7 9.6,-1.8 2.8,-1.1 5.2,-2.8 7.3,-4.8 2.1,-2 3.5,-4.4 4.7,-7.1 0.9,-2.8 1.6,-6 1.6,-9 -0.2,-3.4 -0.6,-6.2 -1.6,-8.9 z m -12.4,12.7 c -0.5,1.2 -1.2,2.3 -1.9,3.2 -0.9,0.9 -1.9,1.4 -2.8,1.8 -1.2,0.5 -3,0.7 -7,0.7 H 356.4 V 14.6 h 13.1 c 1.4,0 2.8,0.2 3.8,0.7 1.2,0.5 2.1,1.2 3,2.1 0.7,0.9 1.4,1.8 1.9,3 0.5,1.2 0.7,2.5 0.7,4.1 0,1.4 -0.2,2.8 -0.7,4 z"
   style="fill:#171f50" />
	<path
   id="XMLID_180_"
   inkscape:connector-curvature="0"
   class="st0"
   d="m 451.6,9.3 c -3,-2.8 -6.3,-4.8 -10.3,-6.2 -4,-1.4 -8,-2.1 -12.4,-2.1 -4.2,0 -8.4,0.7 -12.2,2.1 -4,1.4 -7.5,3.5 -10.3,6.2 -3,2.8 -5.4,6.2 -7,10.1 -1.6,3.9 -2.6,8.5 -2.6,13.6 0,5.1 0.9,9.7 2.6,13.6 1.7,3.9 4,7.4 7,10.1 3,2.8 6.3,4.8 10.3,6.2 4,1.4 8,2.1 12.4,2.1 4.7,0 9.1,-0.7 13.1,-2.3 4,-1.6 7.5,-3.7 10.3,-6.7 2.8,-2.8 5.2,-6.2 6.8,-10.1 1.6,-3.9 2.3,-8.3 2.3,-13.1 0,-5.1 -0.9,-9.7 -2.6,-13.6 -2,-3.6 -4.3,-7.1 -7.4,-9.9 z m -5.1,32.5 c -0.9,2.3 -2.3,4.4 -4,6 -1.6,1.6 -3.8,2.8 -6.1,3.7 -2.3,0.9 -4.7,1.2 -7.5,1.2 -2.6,0 -5.2,-0.5 -7.5,-1.2 -2.3,-0.9 -4.2,-2.1 -5.9,-3.7 -1.6,-1.6 -3,-3.7 -4,-6 -0.9,-2.5 -1.6,-5.3 -1.6,-8.5 0,-3.2 0.5,-6.2 1.6,-8.5 0.9,-2.5 2.3,-4.4 4,-6 1.6,-1.6 3.8,-2.8 6.1,-3.7 2.3,-0.9 4.9,-1.4 7.5,-1.4 2.6,0 5.2,0.5 7.5,1.4 2.3,0.9 4.2,2.1 5.9,3.7 1.6,1.6 3,3.7 4,6.2 0.9,2.5 1.6,5.3 1.6,8.5 0,2.8 -0.7,5.8 -1.6,8.3 z"
   style="fill:#171f50" />
	<path
   id="XMLID_175_"
   inkscape:connector-curvature="0"
   class="st0"
   d="M 519.2,60.9 504.7,43.2 c 0,0 11.7,-4.1 11.7,-18.9 0,-3 -0.5,-6 -1.6,-8.8 -0.9,-2.8 -2.6,-5.3 -4.7,-7.4 C 508,6 505.6,4.4 502.8,3.3 500,2.1 496.7,1.5 493.2,1.5 h -23.7 c -1.2,0 -2.1,0.9 -2.1,2.1 v 58.5 c 0,1.2 0.9,2.1 2.1,2.1 h 8.9 c 1.2,0 2.1,-0.9 2.1,-2.1 V 14.4 h 13.1 c 1.4,0 2.8,0.2 3.8,0.7 1.2,0.5 2.1,1.2 3,2.1 0.7,0.9 1.4,1.8 1.9,3 0.5,1.2 0.7,2.5 0.7,4.1 0,1.4 -0.2,2.8 -0.7,3.9 -0.5,1.2 -1.2,2.3 -1.9,3.2 -0.9,0.9 -1.9,1.4 -2.8,1.8 -1.2,0.5 -3,0.7 -7,0.7 H 485 c -1.2,0 -1.9,0.9 -1.2,2.3 L 504.4,63 c 0.5,0.5 0.9,0.9 1.6,0.9 h 11.5 c 2.2,0.5 3.1,-1.1 1.7,-3 z"
   style="fill:#171f50" />
	<path
   id="XMLID_190_"
   inkscape:connector-curvature="0"
   class="st0"
   d="m 564,1.7 h -43.4 c -1.2,0 -2.1,0.9 -2.1,2.1 v 8.8 c 0,1.2 0.9,2.1 2.1,2.1 h 15.2 v 47.7 c 0,1.2 0.9,2.1 2.1,2.1 h 8.9 c 1.2,0 2.1,-0.9 2.1,-2.1 V 14.6 h 15.2 c 1.2,0 2.1,-0.9 2.1,-2.1 V 3.8 c -0.1,-1.2 -1,-2.1 -2.2,-2.1 z"
   style="fill:#171f50" />
	<path
   class="st1"
   d="m 590.3,0 h 63 v 66 h -63 z"
   id="path15"
   inkscape:connector-curvature="0"
   style="fill:#d30132" />
	<path
   class="st2"
   d="M 611.7,9.4 V 19 h 7.6 v 36.6 h 9.9 V 19 9.4 h -9.9 z"
   id="path17"
   inkscape:connector-curvature="0"
   style="fill:#ffffff" />
</g>
</svg>