<?xml version="1.0" encoding="UTF-8" standalone="no"?>
<!-- Created with Inkscape (http://www.inkscape.org/) -->

<svg
   xmlns:dc="http://purl.org/dc/elements/1.1/"
   xmlns:cc="http://creativecommons.org/ns#"
   xmlns:rdf="http://www.w3.org/1999/02/22-rdf-syntax-ns#"
   xmlns:svg="http://www.w3.org/2000/svg"
   xmlns="http://www.w3.org/2000/svg"
   xmlns:sodipodi="http://sodipodi.sourceforge.net/DTD/sodipodi-0.dtd"
   xmlns:inkscape="http://www.inkscape.org/namespaces/inkscape"
   version="1.0"
   width="1067"
   height="1067"
   id="svg2016"
   inkscape:version="0.92.5 (2060ec1f9f, 2020-04-08)"
   sodipodi:docname="HR.svg">
  <metadata
     id="metadata12">
    <rdf:RDF>
      <cc:Work
         rdf:about="">
        <dc:format>image/svg+xml</dc:format>
        <dc:type
           rdf:resource="http://purl.org/dc/dcmitype/StillImage" />
        <dc:title></dc:title>
      </cc:Work>
    </rdf:RDF>
  </metadata>
  <sodipodi:namedview
     pagecolor="#ffffff"
     bordercolor="#666666"
     borderopacity="1"
     objecttolerance="10"
     gridtolerance="10"
     guidetolerance="10"
     inkscape:pageopacity="0"
     inkscape:pageshadow="2"
     inkscape:window-width="1920"
     inkscape:window-height="1019"
     id="namedview10"
     showgrid="false"
     fit-margin-top="0"
     fit-margin-left="0"
     fit-margin-right="0"
     fit-margin-bottom="0"
     inkscape:zoom="0.51234189"
     inkscape:cx="259.6418"
     inkscape:cy="212.54004"
     inkscape:window-x="0"
     inkscape:window-y="0"
     inkscape:window-maximized="1"
     inkscape:current-layer="svg2016" />
  <defs
     id="defs2018" />
  <g
     transform="matrix(2.0547539,0,0,2.0547539,-2844.4475,1247.7521)"
     id="layer1">
    <g
       transform="translate(17.79945,17.77491)"
       id="g2105">
      <path
         d="m 1787.0501,-568.57952 c -29.7337,0 -54.1581,24.21202 -54.1581,54.15845 0,29.73401 24.4244,54.15846 54.1581,54.15846 29.9463,0 54.1582,-24.42445 54.1582,-54.15846 0,-29.94643 -24.2119,-54.15845 -54.1582,-54.15845 m 25.4861,79.8572 v -63.71585 l -63.716,23.15006 v 15.71658 l 21.0267,-7.64591 v 47.78686 z m -25.4861,-89.20218 c 35.044,0 63.5036,28.4597 63.5036,63.50343 0,35.04373 -28.4596,63.29109 -63.5036,63.29109 -35.0439,0 -63.291,-28.24736 -63.291,-63.29109 0,-35.04373 28.2471,-63.50343 63.291,-63.50343"
         style="fill:#0076bc;fill-rule:evenodd;stroke:none"
         id="path4477"
         inkscape:connector-curvature="0" />
      <path
         d="m 1629.2468,-152.93988 c -87.7153,1.48673 -194.1207,-14.44228 -262.7211,-44.17628 v -26.76071 c 72.2114,30.79604 170.3339,46.93739 258.0492,45.45066 94.7241,-1.69907 193.059,-17.62807 261.2344,-44.3887 v 25.91109 c -76.2465,27.18548 -162.6877,42.26487 -256.5625,43.96394"
         style="fill:#0076bc;fill-rule:nonzero;stroke:none"
         id="path4479"
         inkscape:connector-curvature="0" />
      <path
         d="m 1412.1885,-551.58864 v 98.97193 c 0,0 31.0088,-6.58394 58.4066,-6.3716 45.2378,0.63719 67.9629,25.06156 69.6621,56.91949 0.425,8.07067 0.2125,12.53078 0.2125,21.23865 v 128.70594 h -47.787 v -131.46698 c 0,-16.14135 1.0625,-36.10569 -35.0432,-35.89326 -25.911,0 -43.9643,5.09729 -43.9643,5.09729 v 162.26295 h -46.7245 v -296.49103 l 45.2378,-2.97338"
         style="fill:#0076bc;fill-rule:nonzero;stroke:none"
         id="path4481"
         inkscape:connector-curvature="0" />
      <path
         d="m 1702.7324,-459.20065 c -0.6367,0 -42.6893,1.06188 -67.7512,6.79629 -28.8837,6.58402 -47.5737,24.21202 -50.1229,50.97273 -0.6367,5.09722 -0.8492,8.49544 -0.8492,20.17669 v 129.13071 h 47.787 v -131.89175 c 0,-11.68124 1.0617,-19.1148 8.4953,-25.91109 8.7079,-7.64591 28.2471,-8.70787 39.2917,-9.5574 7.8578,-0.6372 23.1493,-1.48673 23.1493,-1.48673 v -38.22945"
         style="fill:#0076bc;fill-rule:nonzero;stroke:none"
         id="path4483"
         inkscape:connector-curvature="0" />
    </g>
  </g>
</svg>
