<?xml version="1.0" encoding="UTF-8" standalone="no"?>
<!-- Created with Inkscape (http://www.inkscape.org/) -->

<svg
   xmlns:dc="http://purl.org/dc/elements/1.1/"
   xmlns:cc="http://creativecommons.org/ns#"
   xmlns:rdf="http://www.w3.org/1999/02/22-rdf-syntax-ns#"
   xmlns:svg="http://www.w3.org/2000/svg"
   xmlns="http://www.w3.org/2000/svg"
   xmlns:sodipodi="http://sodipodi.sourceforge.net/DTD/sodipodi-0.dtd"
   xmlns:inkscape="http://www.inkscape.org/namespaces/inkscape"
   version="1.0"
   width="1066.6667"
   height="1066.6667"
   id="svg26043"
   sodipodi:version="0.32"
   inkscape:version="0.92.5 (2060ec1f9f, 2020-04-08)"
   sodipodi:docname="de-KIKA.svg"
   inkscape:output_extension="org.inkscape.output.svg.inkscape">
  <metadata
     id="metadata16">
    <rdf:RDF>
      <cc:Work
         rdf:about="">
        <dc:format>image/svg+xml</dc:format>
        <dc:type
           rdf:resource="http://purl.org/dc/dcmitype/StillImage" />
        <dc:title />
      </cc:Work>
    </rdf:RDF>
  </metadata>
  <sodipodi:namedview
     inkscape:window-height="1019"
     inkscape:window-width="1920"
     inkscape:pageshadow="2"
     inkscape:pageopacity="0.0"
     guidetolerance="10.0"
     gridtolerance="10.0"
     objecttolerance="10.0"
     borderopacity="1.0"
     bordercolor="#666666"
     pagecolor="#ffffff"
     id="base"
     showgrid="false"
     inkscape:zoom="0.33375845"
     inkscape:cx="-618.47568"
     inkscape:cy="344.98461"
     inkscape:window-x="0"
     inkscape:window-y="0"
     inkscape:current-layer="svg26043"
     inkscape:window-maximized="1" />
  <defs
     id="defs26045" />
  <g
     id="g3671"
     transform="matrix(1.0571001,0,0,1.0571001,-3.790342,311.02536)">
    <g
       transform="matrix(27.449294,0,0,-27.449294,6.9863412,157.449)"
       id="g2808">
      <path
         id="path2810"
         style="fill:#ffcc00;fill-opacity:1;fill-rule:nonzero;stroke:none"
         d="m 0,0 0.004,-3.633 c 0,0 -0.065,-0.371 0.351,-0.329 0.331,0.013 0.663,0.011 0.942,0.011 0.322,10e-4 0.681,-0.003 1.046,-0.002 0.231,-0.003 0.267,0.152 0.267,0.152 l 0.07,2.053 c 0,0 -0.009,0.08 0.013,0.146 0.022,0.067 0.068,0.13 0.068,0.13 l 0.975,0.866 c 0,0 0.145,0.093 0.295,0.092 0.115,0.005 0.174,-0.071 0.253,-0.112 0.643,-0.583 1.128,-2.101 1.601,-3.082 0.246,-0.487 0.292,-0.499 0.706,-0.482 0.386,0.011 1.909,0.038 2.473,0.018 0.114,-0.005 0.354,-0.008 0.423,0.128 0.093,0.187 -0.026,0.435 -0.026,0.435 L 6.823,1.419 c 0,0 -0.121,0.25 -0.136,0.348 -0.016,0.108 0.129,0.282 0.129,0.282 l 2.613,3.175 c 0,0 0.119,0.164 0.025,0.262 C 9.368,5.576 9.206,5.571 9.206,5.571 L 6.655,5.528 c 0,0 -0.15,0 -0.191,-0.021 C 6.377,5.464 6.322,5.397 6.322,5.397 L 3.472,2.302 c 0,0 -0.12,-0.079 -0.224,-0.049 C 3.12,2.291 3.099,2.412 3.099,2.412 L 3.066,5.199 c 0,0 0.007,0.18 -0.058,0.258 -0.048,0.058 -0.155,0.06 -0.155,0.06 l -2.61,-0.04 c 0,0 -0.06,0.012 -0.145,-0.051 C -0.018,5.341 0.011,5.219 0.011,5.219 Z"
         inkscape:connector-curvature="0" />
    </g>
    <g
       transform="matrix(27.449294,0,0,-27.449294,492.45455,170.37762)"
       id="g2812">
      <path
         id="path2814"
         style="fill:#d6361b;fill-opacity:1;fill-rule:nonzero;stroke:none"
         d="m 0,0 0.026,-3.277 c 0,0 -0.054,-0.468 0.39,-0.415 0.326,0.006 0.626,0.008 0.904,0.009 0.227,0 0.465,-0.003 0.712,-0.009 0.669,-0.071 0.58,0.476 0.58,0.476 l 0.032,1.642 c 0,0 0.004,0.148 0.03,0.222 0.023,0.073 0.107,0.121 0.107,0.121 l 0.884,0.871 c 0,0 0.428,0.324 0.7,-0.091 0.465,-0.72 0.955,-1.582 1.522,-3.006 0.082,-0.147 0.124,-0.453 0.573,-0.399 0.338,-0.002 0.651,0.009 0.956,0.009 0.548,10e-4 1.087,0.027 1.626,0.003 0.784,0 0.369,0.602 0.369,0.602 L 6.822,1.692 c 0,0 -0.132,0.245 -0.141,0.326 -0.016,0.164 0.162,0.385 0.162,0.385 l 2.401,2.894 c 0,0 0.281,0.349 0.26,0.427 C 9.455,5.903 9.062,5.846 9.062,5.846 L 6.75,5.843 C 6.75,5.843 6.461,5.87 6.406,5.81 6.333,5.728 6.136,5.524 6.136,5.524 L 3.625,2.733 c 0,0 -0.302,-0.338 -0.384,-0.334 C 3.053,2.406 3.102,2.766 3.102,2.766 L 3.064,5.315 c 0,0 0.017,0.278 -0.081,0.384 C 2.881,5.81 2.526,5.828 2.526,5.828 L 0.385,5.819 c 0,0 -0.151,0.025 -0.286,-0.074 C -0.024,5.654 -0.015,5.499 -0.015,5.499 Z"
         inkscape:connector-curvature="0" />
    </g>
    <g
       transform="matrix(27.449294,0,0,-27.449294,863.00355,142.99969)"
       id="g2816">
      <path
         id="path2818"
         style="fill:#d6361b;fill-opacity:1;fill-rule:nonzero;stroke:none"
         d="M 0,0 C 0,0 -0.063,-0.349 0.042,-0.466 0.1,-0.531 0.251,-0.558 0.251,-0.558 L 0.916,-0.56 c 0,0 0.322,-0.004 0.394,0.109 0.072,0.113 -0.005,0.444 -0.005,0.444 L 0.908,1.48 0.722,2.157 c 0,0 -0.064,0.166 -0.161,0.144 C 0.468,2.282 0.424,2.165 0.424,2.165 Z m -3.391,-4.851 c 0,0 -0.185,0.029 -0.218,0.179 -0.05,0.227 0.054,0.567 0.054,0.567 l 1.237,3.897 1.384,4.667 c 0,0 0.111,0.437 0.19,0.533 0.091,0.111 0.424,0.089 0.424,0.089 l 2.333,0.006 c 0,0 0.447,0.001 0.597,-0.292 C 2.676,4.666 2.795,4.262 2.795,4.262 l 2.539,-8.15 c 0,0 0.174,-0.601 0.098,-0.759 -0.104,-0.219 -0.58,-0.179 -0.58,-0.179 L 2.538,-4.834 c 0,0 -0.344,-0.035 -0.446,0.058 C 1.99,-4.683 1.9,-4.268 1.9,-4.268 l -0.218,1.061 c 0,0 -0.042,0.286 -0.121,0.357 -0.079,0.071 -0.327,0.079 -0.327,0.079 l -1.401,0.028 c 0,0 -0.252,0.014 -0.404,-0.106 -0.121,-0.097 -0.173,-0.324 -0.173,-0.324 L -1.152,-4.44 c 0,0 -0.102,-0.317 -0.195,-0.373 -0.093,-0.055 -0.502,-0.046 -0.502,-0.046 z"
         inkscape:connector-curvature="0" />
    </g>
    <g
       transform="matrix(27.449294,0,0,-27.449294,313.8667,130.23028)"
       id="g2820">
      <path
         id="path2822"
         style="fill:#ffcc00;fill-opacity:1;fill-rule:nonzero;stroke:none"
         d="m 0,0 -1.441,-4.063 c 0,0 -0.081,-0.299 -0.032,-0.4 0.09,-0.188 0.286,-0.27 0.286,-0.27 L 0.43,-5.202 c 0,0 0.495,-0.152 0.623,-0.124 0.261,0.057 0.361,0.4 0.361,0.4 l 1.487,4.423 1.027,2.792 c 0,0 0.106,0.2 0.073,0.273 -0.058,0.13 -0.226,0.157 -0.226,0.157 l -2.039,0.78 c 0,0 -0.245,0.069 -0.343,0.049 C 1.115,3.49 1.029,3.146 1.029,3.146 Z"
         inkscape:connector-curvature="0" />
    </g>
    <g
       transform="matrix(27.449294,0,0,-27.449294,359.16353,226.51966)"
       id="g2824">
      <path
         id="path2826"
         style="fill:#0064a2;fill-opacity:1;fill-rule:nonzero;stroke:none"
         d="M 0,0 C -0.003,1.614 1.304,2.924 2.918,2.926 4.532,2.928 5.842,1.621 5.844,0.007 5.846,-1.607 4.54,-2.917 2.926,-2.919 1.312,-2.921 0.002,-1.614 0,0"
         inkscape:connector-curvature="0" />
    </g>
    <g
       transform="matrix(27.449294,0,0,-27.449294,404.33409,172.26613)"
       id="g2828">
      <path
         id="path2830"
         style="fill:#ffffff;fill-opacity:1;fill-rule:nonzero;stroke:none"
         d="m 0,0 c -0.01,-0.01 -0.018,-0.017 -0.017,-0.031 -10e-4,-0.025 0.016,-0.049 0.041,-0.049 0.009,0.001 0.013,0.002 0.023,0.002 0.007,0 0.009,-0.006 0.016,-0.006 0.014,0 0.021,0 0.036,0 0,-0.011 -0.001,-0.023 0.009,-0.027 C 0.121,-0.116 0.135,-0.115 0.141,-0.127 0.149,-0.146 0.154,-0.159 0.169,-0.171 0.181,-0.18 0.184,-0.192 0.198,-0.197 0.207,-0.2 0.219,-0.196 0.222,-0.206 0.231,-0.23 0.247,-0.243 0.271,-0.251 0.303,-0.262 0.305,-0.293 0.328,-0.317 0.346,-0.336 0.369,-0.339 0.376,-0.363 0.379,-0.374 0.377,-0.382 0.384,-0.39 0.395,-0.404 0.414,-0.398 0.425,-0.413 0.43,-0.421 0.439,-0.42 0.445,-0.427 0.451,-0.434 0.448,-0.443 0.454,-0.449 0.48,-0.474 0.493,-0.49 0.517,-0.516 c 0.009,-0.01 0.02,-0.01 0.026,-0.022 0.006,-0.014 -0.001,-0.028 0.01,-0.04 0.006,-0.006 0.013,-0.008 0.016,-0.015 0.006,-0.013 0.02,-0.012 0.034,-0.019 0.009,-0.004 0.003,-0.018 0.011,-0.026 0.018,-0.02 0.021,-0.038 0.034,-0.063 0.004,-0.011 0.006,-0.018 0.013,-0.026 0.007,-0.008 0.02,-0.004 0.026,-0.014 0.008,-0.01 -0.001,-0.017 -0.001,-0.03 0.017,-0.033 0.042,-0.042 0.059,-0.075 0.007,-0.012 0.022,-0.011 0.025,-0.023 0.007,-0.023 0.02,-0.039 0.044,-0.044 0.021,-0.006 0.016,-0.043 0.038,-0.043 0.01,0 0.016,0.005 0.023,0.011 0.004,-0.004 0.003,-0.009 0.004,-0.015 0,-0.023 0.019,-0.029 0.032,-0.047 0.008,-0.011 0.004,-0.022 0.011,-0.034 0.014,-0.018 0.029,-0.029 0.029,-0.054 0,-0.023 0.02,-0.031 0.034,-0.049 C 0.997,-1.158 0.995,-1.17 1.002,-1.187 1.003,-1.19 1.01,-1.188 1.013,-1.192 1.02,-1.198 1.015,-1.206 1.017,-1.215 1.023,-1.238 1.04,-1.244 1.051,-1.265 1.068,-1.297 1.077,-1.314 1.093,-1.346 1.098,-1.357 1.114,-1.353 1.12,-1.363 1.127,-1.372 1.123,-1.381 1.127,-1.39 1.135,-1.405 1.152,-1.402 1.16,-1.417 1.186,-1.483 1.211,-1.516 1.258,-1.566 1.287,-1.598 1.305,-1.615 1.33,-1.652 c 0.015,-0.021 0.018,-0.051 0.045,-0.051 0.023,0 0.003,0.05 0.027,0.055 0.013,0.002 0.023,-0.004 0.035,0.003 0.01,0.007 0.007,0.019 0.014,0.029 0.03,0.044 0.043,0.073 0.082,0.111 0.042,0.04 0.044,0.086 0.097,0.111 0.034,0.016 0.055,0.034 0.064,0.071 0.003,0.013 0.016,0.017 0.017,0.03 0,0.009 -0.011,0.012 -0.015,0.019 0.022,0.056 0.061,0.072 0.096,0.122 0.016,0.023 0.022,0.037 0.04,0.058 0.019,0.021 0.038,0.024 0.052,0.048 0.006,0.011 0.007,0.02 0.016,0.028 0.044,0.037 0.063,0.065 0.11,0.099 0.009,0.006 0.006,0.019 0.016,0.024 0.011,0.007 0.025,-0.002 0.031,0.009 0.021,0.03 0.031,0.054 0.065,0.066 0.04,0.02 0.058,0.038 0.088,0.069 0.022,0.022 0.025,0.054 0.055,0.055 0.019,-0.001 0.029,0 0.048,0 0.026,0 0.032,0.03 0.036,0.056 0.004,0.029 0.02,0.04 0.027,0.069 0.006,0.03 0.027,0.037 0.045,0.061 0.018,0.023 0.025,0.045 0.052,0.05 0.043,0.032 0.069,0.052 0.101,0.095 0.018,0.026 0.005,0.056 0.029,0.077 0.013,0.012 0.036,-0.007 0.046,0.007 0.012,0.014 0.02,0.029 0.04,0.029 0.009,0 0.011,-0.011 0.02,-0.011 0.016,0 0.008,0.024 0.015,0.039 0.015,0.03 0.025,0.052 0.055,0.065 0.048,0.021 0.051,0.062 0.091,0.092 0.022,0.015 0.029,0.03 0.046,0.049 0.012,0.013 0.028,0.007 0.047,0.007 0.006,0 0.01,-0.004 0.014,-0.008 C 2.978,-0.032 2.978,-0.04 2.978,-0.053 2.977,-0.068 2.954,-0.07 2.955,-0.085 c 0,-0.011 0.018,-0.009 0.02,-0.019 0.002,-0.014 0.01,-0.019 0.014,-0.032 l -0.002,-0.01 0.002,-0.01 c 0.024,-0.002 0.034,-0.021 0.059,-0.021 0.02,0 0.021,0.031 0.041,0.031 0.017,0 0.026,0 0.043,0 0.002,-0.01 10e-4,-0.015 10e-4,-0.025 0,-0.037 -0.025,-0.053 -0.039,-0.086 C 3.084,-0.281 3.085,-0.297 3.073,-0.32 3.068,-0.33 3.058,-0.332 3.051,-0.341 3.037,-0.362 3.031,-0.375 3.024,-0.399 3.035,-0.396 3.04,-0.39 3.052,-0.389 3.077,-0.39 3.1,-0.408 3.1,-0.433 3.1,-0.443 3.091,-0.447 3.084,-0.455 l 10e-4,-0.012 c 0.015,0 0.025,-0.014 0.025,-0.029 0,-0.008 0,-0.013 0,-0.021 C 3.109,-0.528 3.119,-0.532 3.126,-0.54 3.117,-0.563 3.102,-0.57 3.085,-0.587 3.072,-0.6 3.073,-0.614 3.06,-0.627 3.048,-0.637 3.037,-0.644 3.037,-0.66 3.037,-0.706 2.986,-0.714 2.961,-0.753 2.95,-0.786 2.915,-0.796 2.915,-0.83 c 0,-0.015 0,-0.023 0,-0.037 C 2.886,-0.884 2.878,-0.903 2.856,-0.928 2.845,-0.942 2.829,-0.939 2.818,-0.954 2.812,-0.965 2.816,-0.977 2.806,-0.985 2.788,-1.002 2.783,-1.013 2.764,-1.03 2.756,-1.038 2.743,-1.037 2.74,-1.048 2.737,-1.057 2.742,-1.064 2.736,-1.071 2.722,-1.088 2.703,-1.09 2.694,-1.111 2.684,-1.135 2.667,-1.142 2.651,-1.161 2.643,-1.17 2.647,-1.179 2.641,-1.188 2.631,-1.205 2.616,-1.208 2.603,-1.223 2.593,-1.236 2.596,-1.249 2.585,-1.26 2.573,-1.273 2.56,-1.275 2.542,-1.28 2.528,-1.286 2.526,-1.299 2.52,-1.314 2.512,-1.331 2.504,-1.34 2.494,-1.355 2.491,-1.363 2.493,-1.368 2.493,-1.377 c 0,-0.008 -0.006,-0.012 -0.006,-0.02 0,-0.003 0.003,-0.004 0.002,-0.007 0,-0.007 -0.008,-0.008 -0.016,-0.01 0.001,-0.005 0.004,-0.008 0.004,-0.014 0,-0.014 -0.013,-0.017 -0.017,-0.03 C 2.449,-1.491 2.433,-1.508 2.405,-1.529 2.367,-1.556 2.362,-1.604 2.316,-1.604 c -0.004,0 -0.006,0 -0.011,0 0.002,-0.01 0.009,-0.014 0.009,-0.023 0,-0.019 -0.016,-0.025 -0.028,-0.04 C 2.263,-1.695 2.252,-1.715 2.221,-1.737 2.209,-1.745 2.2,-1.749 2.194,-1.763 2.192,-1.779 2.184,-1.785 2.179,-1.801 2.17,-1.831 2.171,-1.871 2.14,-1.871 c -0.01,0 -0.016,0 -0.026,0 -0.012,0 -0.016,-0.013 -0.02,-0.026 C 2.091,-1.909 2.083,-1.914 2.079,-1.926 2.07,-1.951 2.047,-1.954 2.022,-1.966 1.998,-1.978 1.999,-2.001 1.992,-2.027 1.986,-2.051 1.962,-2.057 1.96,-2.082 1.957,-2.119 1.925,-2.129 1.904,-2.158 1.884,-2.184 1.87,-2.197 1.847,-2.22 1.831,-2.233 1.84,-2.255 1.825,-2.269 1.817,-2.277 1.806,-2.276 1.799,-2.286 1.807,-2.295 1.817,-2.296 1.829,-2.302 1.824,-2.308 1.817,-2.311 1.817,-2.319 c 0,-0.005 0,-0.008 0,-0.012 0.003,-10e-4 0.006,-0.002 0.01,-0.002 0.006,0 0.009,0.005 0.016,0.006 0.006,-10e-4 0.009,-10e-4 0.015,-0.002 10e-4,-0.003 0.002,-0.007 0.002,-0.011 0,-0.003 -0.004,-0.003 -0.006,-0.005 0.027,-0.021 0.044,-0.041 0.044,-0.074 0,-0.033 0.029,-0.043 0.057,-0.059 C 1.979,-2.492 1.984,-2.51 2.003,-2.532 2.014,-2.545 2.031,-2.539 2.044,-2.55 2.058,-2.561 2.054,-2.577 2.065,-2.59 2.083,-2.61 2.108,-2.611 2.117,-2.637 2.122,-2.655 2.143,-2.654 2.153,-2.671 2.163,-2.685 2.159,-2.698 2.164,-2.715 2.171,-2.739 2.196,-2.739 2.211,-2.758 2.23,-2.783 2.248,-2.791 2.276,-2.806 2.283,-2.81 2.29,-2.809 2.297,-2.814 2.31,-2.823 2.3,-2.85 2.317,-2.85 c 0.006,-10e-4 0.009,0.003 0.015,0.003 0.013,0 0.027,0 0.031,-0.013 0.003,-0.012 0.003,-0.028 0.015,-0.028 0.011,0 0.013,0.014 0.023,0.014 0.017,-10e-4 0.016,-0.024 0.032,-0.03 0.041,-0.017 0.076,-0.017 0.102,-0.054 0.017,-0.024 0.044,-0.015 0.071,-0.024 0.033,-0.011 0.05,-0.03 0.072,-0.057 0.012,-0.012 0.009,-0.024 0.014,-0.04 0.006,-0.014 0.024,-0.011 0.034,-0.022 0.005,-0.006 0.003,-0.015 0.01,-0.017 0.021,-0.006 0.037,0.002 0.054,-0.01 0.028,-0.022 0.035,-0.047 0.067,-0.063 0.026,-0.013 0.052,-0.023 0.053,-0.052 0,-0.018 0.018,-0.021 0.031,-0.034 0.032,-0.032 0.05,-0.053 0.066,-0.096 0.009,-0.024 0.041,-0.026 0.042,-0.051 -10e-4,-0.005 -0.004,-0.007 -0.003,-0.012 0,-0.01 0.009,-0.014 0.009,-0.024 0,-0.01 -0.004,-0.016 -0.004,-0.025 0,-0.019 0.028,-0.02 0.028,-0.038 0,-0.023 -0.009,-0.036 -0.009,-0.059 0,-0.043 0.025,-0.066 0.025,-0.11 0,-0.008 -0.005,-0.011 -0.006,-0.018 0,-0.015 0.018,-0.018 0.018,-0.032 0,-0.023 -0.005,-0.039 -0.019,-0.057 C 3.083,-3.807 3.072,-3.809 3.072,-3.819 3.071,-3.824 3.08,-3.825 3.08,-3.831 3.08,-3.861 3.075,-3.89 3.046,-3.899 L 3.035,-3.897 C 3.022,-3.902 3.033,-3.921 3.023,-3.932 3.011,-3.946 2.994,-3.938 2.976,-3.943 2.96,-3.947 2.967,-3.967 2.957,-3.979 2.952,-3.984 2.947,-3.982 2.94,-3.983 2.922,-3.988 2.919,-4.007 2.901,-4.007 2.884,-4.007 2.874,-4.013 2.857,-4.015 2.843,-4.017 2.828,-4.021 2.828,-4.034 c 0,-0.005 0.002,-0.008 0.003,-0.013 0,-0.013 -0.009,-0.024 -0.022,-0.024 -0.006,0 -0.009,0.002 -0.015,0.002 -0.026,0 -0.04,-0.011 -0.067,-0.011 -0.008,0 -0.014,0.003 -0.022,0.007 -0.014,-0.021 -0.027,-0.04 -0.052,-0.039 -0.015,0 -0.023,0 -0.037,-0.001 -0.014,0 -0.017,0.013 -0.03,0.015 C 2.578,-4.117 2.559,-4.119 2.54,-4.119 2.529,-4.119 2.528,-4.107 2.519,-4.103 2.497,-4.092 2.482,-4.094 2.457,-4.09 2.445,-4.088 2.446,-4.075 2.443,-4.064 2.437,-4.04 2.437,-4.016 2.414,-4.006 2.402,-4.001 2.389,-4.01 2.38,-3.999 2.358,-3.971 2.362,-3.933 2.329,-3.92 2.313,-3.914 2.299,-3.918 2.29,-3.905 2.271,-3.881 2.272,-3.857 2.246,-3.843 2.225,-3.831 2.21,-3.83 2.188,-3.822 c -0.022,0.008 -0.044,0.016 -0.044,0.039 0,0.043 -0.026,0.064 -0.057,0.095 -0.013,0.012 -0.013,0.025 -0.023,0.039 -0.017,0.024 -0.035,0.033 -0.046,0.062 -0.01,0.026 -0.029,0.034 -0.051,0.05 -0.008,0.006 -0.007,0.015 -0.012,0.023 -0.01,0.016 -0.023,0.018 -0.036,0.031 -0.034,0.03 -0.06,0.039 -0.086,0.075 -0.01,0.015 -0.027,0.011 -0.041,0.021 -0.01,0.008 -0.004,0.019 -0.009,0.03 -0.004,0.008 -0.01,0.012 -0.011,0.021 -0.014,0.07 -0.079,0.09 -0.083,0.16 0,0.008 -0.009,0.011 -0.01,0.019 -0.002,0.022 0.002,0.039 -0.012,0.057 -0.025,0.031 -0.06,0.03 -0.08,0.065 C 1.564,-3.012 1.551,-2.999 1.531,-2.973 1.522,-2.962 1.524,-2.949 1.513,-2.94 1.487,-2.917 1.469,-2.903 1.456,-2.871 1.452,-2.857 1.437,-2.853 1.438,-2.839 1.437,-2.83 1.437,-2.827 1.437,-2.818 1.416,-2.795 1.398,-2.786 1.379,-2.761 1.365,-2.743 1.368,-2.726 1.359,-2.705 1.313,-2.745 1.313,-2.801 1.256,-2.819 1.257,-2.825 1.261,-2.828 1.261,-2.833 1.261,-2.854 1.239,-2.858 1.23,-2.876 1.218,-2.901 1.21,-2.916 1.21,-2.943 1.21,-2.957 1.19,-2.955 1.182,-2.967 1.172,-2.984 1.154,-2.985 1.139,-2.998 1.128,-3.01 1.126,-3.022 1.113,-3.032 1.114,-3.035 1.115,-3.036 1.115,-3.039 1.115,-3.08 1.056,-3.074 1.036,-3.109 1.031,-3.118 1.023,-3.119 1.015,-3.125 0.992,-3.142 0.981,-3.157 0.955,-3.17 0.937,-3.18 0.939,-3.199 0.93,-3.218 0.92,-3.236 0.908,-3.245 0.901,-3.265 0.889,-3.296 0.886,-3.322 0.858,-3.342 0.839,-3.357 0.826,-3.365 0.804,-3.375 0.788,-3.381 0.791,-3.398 0.781,-3.411 0.771,-3.426 0.755,-3.425 0.742,-3.437 0.72,-3.456 0.707,-3.469 0.68,-3.479 0.648,-3.49 0.642,-3.526 0.608,-3.526 0.601,-3.527 0.6,-3.518 0.592,-3.519 0.576,-3.518 0.572,-3.533 0.557,-3.539 0.548,-3.542 0.54,-3.542 0.536,-3.549 0.533,-3.557 0.537,-3.565 0.533,-3.573 0.526,-3.59 0.508,-3.587 0.493,-3.6 0.469,-3.621 0.46,-3.65 0.428,-3.649 0.417,-3.65 0.414,-3.639 0.406,-3.631 0.403,-3.641 0.407,-3.649 0.402,-3.658 0.39,-3.682 0.368,-3.685 0.344,-3.696 0.326,-3.704 0.327,-3.725 0.309,-3.732 0.302,-3.735 0.296,-3.734 0.291,-3.739 0.278,-3.752 0.287,-3.767 0.283,-3.786 0.281,-3.795 0.269,-3.795 0.26,-3.799 0.24,-3.809 0.227,-3.814 0.21,-3.827 0.198,-3.835 0.188,-3.833 0.176,-3.84 0.15,-3.852 0.141,-3.869 0.115,-3.88 0.104,-3.884 0.096,-3.881 0.085,-3.886 0.075,-3.89 0.074,-3.902 0.063,-3.904 0.039,-3.91 0.026,-3.915 0.002,-3.921 c -0.014,-0.003 -0.019,-0.018 -0.034,-0.017 -0.006,-10e-4 -0.01,0.004 -0.016,0.004 -0.012,0 -0.011,-0.013 -0.021,-0.018 -0.027,-0.015 -0.046,-0.019 -0.076,-0.019 -0.028,0 -0.043,0.008 -0.068,0.019 -0.01,0.004 -0.013,0.014 -0.024,0.014 -0.009,0 -0.015,-0.002 -0.024,-0.002 -0.024,0 -0.035,0.017 -0.058,0.017 -0.014,0 -0.021,-0.003 -0.035,-0.003 -0.019,0 -0.026,0.017 -0.044,0.021 l -0.017,-0.006 c -0.011,0.004 -0.012,0.015 -0.022,0.019 -0.012,0.005 -0.021,0.006 -0.028,0.017 -0.009,0.013 -0.002,0.027 -0.011,0.041 -0.005,0.008 -0.018,0.007 -0.018,0.018 0,0.02 0.009,0.032 0.021,0.048 0.014,0.018 -0.002,0.039 0.007,0.06 0.009,0.022 0.029,0.029 0.034,0.053 0.001,0.018 -0.005,0.032 0.007,0.046 0.009,0.011 0.021,0.01 0.036,0.012 0.018,0.002 0.02,0.021 0.037,0.026 0.024,0.008 0.031,0.028 0.047,0.049 0.019,0.023 0.03,0.034 0.052,0.055 0.006,0.029 0.032,0.031 0.054,0.049 0.016,0.013 0.019,0.027 0.031,0.043 0.027,0.037 0.055,0.049 0.084,0.084 0.031,0.039 0.046,0.065 0.087,0.093 0.022,0.013 0.033,0.024 0.051,0.043 0.011,0.012 0.03,0.014 0.03,0.031 -0.001,0.004 -0.003,0.007 -0.003,0.011 0,0.022 0.024,0.024 0.042,0.036 0.02,0.014 0.028,0.028 0.049,0.04 0.015,0.015 0.028,0.019 0.041,0.035 0.011,0.012 0.008,0.025 0.02,0.035 0.033,0.026 0.058,0.039 0.099,0.04 0.001,0.004 0.004,0.006 0.004,0.011 0,0.01 0,0.016 0,0.027 0,0.031 0.032,0.036 0.055,0.056 0.014,0.012 0.013,0.027 0.028,0.038 0.007,0.006 0.018,0.002 0.024,0.01 0.009,0.012 0.006,0.027 0.017,0.037 0.02,0.021 0.048,0.027 0.048,0.055 0,0.014 0,0.021 -0.001,0.035 0,0.025 0.029,0.027 0.042,0.049 0.018,0.023 0.045,0.019 0.061,0.043 0.029,0.042 0.028,0.08 0.067,0.11 0.016,0.011 0.03,0.014 0.042,0.03 0.006,0.007 0.004,0.015 0.011,0.021 0.01,0.009 0.025,10e-4 0.034,0.011 0.007,0.008 0.003,0.018 0.005,0.029 0.004,0.02 0.012,0.033 0.029,0.044 0.013,0.017 0.028,0.02 0.04,0.038 0.043,0.066 0.08,0.092 0.126,0.156 -0.02,0.02 -0.021,0.043 -0.046,0.055 -0.006,0.003 -0.011,-0.003 -0.016,0 -0.013,0.006 -0.014,0.019 -0.014,0.033 0,0.009 0,0.015 0,0.025 0,0.01 -0.012,0.013 -0.014,0.023 -0.003,0.02 0,0.046 -0.02,0.046 -0.019,0 -0.028,-0.012 -0.047,-0.012 -0.034,0 -0.055,0.016 -0.076,0.043 -0.013,0.017 -0.029,0.025 -0.029,0.046 0,0.008 0,0.013 -0.001,0.022 0.006,0.001 0.009,0.001 0.015,0.001 0.006,0 0.011,-0.001 0.017,-0.001 0.004,0 0.006,0.001 0.008,0.002 0.002,-0.005 0.004,-0.008 0.007,-0.012 0.003,0.004 0.007,0.005 0.007,0.01 0,0.012 -0.011,0.017 -0.011,0.03 -0.012,-0.003 -0.013,-0.018 -0.025,-0.018 -0.022,0 -0.028,0.024 -0.041,0.041 -0.044,0.01 -0.051,0.046 -0.074,0.084 -0.026,0.044 -0.054,0.057 -0.088,0.096 -0.032,0.036 -0.055,0.055 -0.084,0.094 -0.025,0.033 -0.063,0.046 -0.063,0.088 0,0.004 0.003,0.007 0.005,0.012 l -0.002,0.005 c -0.005,10e-4 -0.007,0.003 -0.011,0.003 -0.006,0 -0.008,-0.008 -0.015,-0.008 -0.014,0 -0.025,0.001 -0.036,0.011 -0.012,0.022 -0.019,0.047 -0.044,0.047 -0.006,0 -0.009,-0.005 -0.015,-0.005 -0.009,0 -0.003,0.015 -0.011,0.021 C 0.234,-1.338 0.223,-1.341 0.218,-1.333 0.212,-1.32 0.212,-1.311 0.206,-1.298 0.2,-1.288 0.188,-1.291 0.175,-1.289 0.157,-1.286 0.144,-1.275 0.142,-1.257 0.14,-1.226 0.124,-1.208 0.099,-1.191 0.084,-1.18 0.076,-1.17 0.065,-1.154 0.059,-1.145 0.059,-1.131 0.048,-1.131 0.043,-1.132 0.04,-1.135 0.035,-1.135 c -0.021,0 -0.029,0.018 -0.05,0.021 0,0.026 -0.015,0.039 -0.017,0.064 -0.011,0 -0.016,0.008 -0.027,0.01 -0.024,0.006 -0.06,-0.002 -0.06,0.024 -0.002,0.02 -0.022,0.025 -0.034,0.042 -0.008,0.009 -0.026,0.005 -0.026,0.017 0,0.009 0,0.014 0,0.023 -0.031,0.013 -0.057,0.008 -0.083,0.03 -0.008,0.007 -0.004,0.017 -0.011,0.025 -0.013,0.018 -0.018,0.03 -0.026,0.05 -0.007,0.017 -0.029,0.01 -0.043,0.023 -0.008,0.008 -0.016,0.008 -0.026,0.013 -0.011,0.005 -0.011,0.022 -0.023,0.025 -0.009,0.014 -0.029,0.006 -0.037,0.019 -0.005,0.009 0.003,0.018 -0.004,0.024 -0.004,0.004 -0.011,0.001 -0.016,0.004 -0.012,0.008 -0.017,0.02 -0.03,0.02 0,0.025 -0.039,0.027 -0.039,0.052 0,0.014 0,0.022 0,0.035 0,0.007 0.004,0.01 0.005,0.017 0,0.012 -0.016,0.01 -0.024,0.021 h -0.066 c 0,0.011 0,0.017 -0.001,0.029 0.001,0.026 0.01,0.04 0.015,0.066 0.005,0.025 0.003,0.04 0.012,0.063 0.028,0.038 0.048,0.054 0.076,0.091 0.012,0.015 0.033,0.017 0.033,0.036 0,0.01 0,0.017 0,0.027 0,0.042 0.046,0.047 0.072,0.078 0.014,0.017 0.009,0.035 0.025,0.051 0.014,0.015 0.03,0.01 0.045,0.022 0.052,0.027 0.073,0.059 0.127,0.081 0.019,0.008 0.02,0.036 0.042,0.036 0.005,0 0.007,-0.004 0.011,-0.008 0.013,0 0.02,0 0.033,0 0.015,0 0.022,0.011 0.036,0.011 C -0.048,0.006 -0.028,0 0,0"
         inkscape:connector-curvature="0" />
    </g>
    <g
       transform="matrix(27.449294,0,0,-27.449294,32.451051,410.11701)"
       id="g2832">
      <path
         id="path2834"
         style="fill:#0064a2;fill-opacity:1;fill-rule:nonzero;stroke:none"
         d="m 0,0 c -0.01,-0.048 -0.049,-0.087 -0.095,-0.086 l -0.385,0.002 c -0.045,0.001 -0.074,0.04 -0.083,0.088 L -1.05,2.411 c -0.009,0.055 0.021,0.1 0.069,0.1 L -0.712,2.509 C -0.664,2.508 -0.634,2.486 -0.625,2.44 l 0.323,-1.709 c 0.01,-0.045 0.045,-0.029 0.049,0 L 0.094,2.434 C 0.104,2.48 0.136,2.502 0.185,2.502 L 0.45,2.5 C 0.499,2.499 0.528,2.473 0.511,2.399 Z"
         inkscape:connector-curvature="0" />
    </g>
    <g
       transform="matrix(27.449294,0,0,-27.449294,79.046228,362.03957)"
       id="g2836">
      <path
         id="path2838"
         style="fill:#0064a2;fill-opacity:1;fill-rule:nonzero;stroke:none"
         d="M 0,0 C 0.002,0.191 -0.123,0.347 -0.272,0.349 -0.425,0.35 -0.555,0.195 -0.557,0.004 l -0.009,-1.123 c -0.001,-0.191 0.127,-0.341 0.279,-0.342 0.149,-0.002 0.277,0.146 0.278,0.337 z m -0.248,-1.886 -0.1,10e-4 c -0.383,0.003 -0.691,0.32 -0.688,0.701 l 0.01,1.276 c 0.003,0.382 0.317,0.688 0.699,0.684 h 0.1 C 0.155,0.773 0.463,0.462 0.46,0.081 L 0.45,-1.195 C 0.447,-1.577 0.134,-1.889 -0.248,-1.886"
         inkscape:connector-curvature="0" />
    </g>
    <g
       transform="matrix(27.449294,0,0,-27.449294,141.04046,413.36975)"
       id="g2840">
      <path
         id="path2842"
         style="fill:#0064a2;fill-opacity:1;fill-rule:nonzero;stroke:none"
         d="m 0,0 -0.253,0.002 c -0.048,0 -0.07,0.026 -0.093,0.081 l -0.607,1.382 c -0.016,0.039 -0.049,0.026 -0.049,-0.01 l -0.011,-1.36 c 0,-0.048 -0.043,-0.087 -0.091,-0.086 L -1.37,0.011 c -0.045,0 -0.08,0.039 -0.08,0.088 l 0.019,2.415 c 0.001,0.049 0.036,0.087 0.082,0.087 l 0.265,-0.002 c 0.052,0 0.091,-0.049 0.11,-0.091 l 0.585,-1.336 c 0.016,-0.029 0.051,-0.039 0.052,0.013 l 0.01,1.317 c 0.001,0.049 0.046,0.091 0.095,0.09 L 0.02,2.59 c 0.049,0 0.087,-0.042 0.087,-0.091 L 0.088,0.087 C 0.088,0.038 0.049,0 0,0"
         inkscape:connector-curvature="0" />
    </g>
    <g
       transform="matrix(27.449294,0,0,-27.449294,196.83115,360.83454)"
       id="g2844">
      <path
         id="path2846"
         style="fill:#0064a2;fill-opacity:1;fill-rule:nonzero;stroke:none"
         d="m 0,0 c -0.016,0.091 -0.051,0.091 -0.068,0 l -0.146,-0.847 c -0.01,-0.051 0.022,-0.094 0.071,-0.094 l 0.21,-0.002 c 0.049,0 0.088,0.042 0.078,0.093 z m 0.713,-1.936 -0.291,0.003 c -0.049,0 -0.074,0.046 -0.084,0.094 l -0.077,0.383 c -0.01,0.049 -0.032,0.084 -0.084,0.085 l -0.395,0.003 c -0.052,0 -0.088,-0.035 -0.095,-0.083 l -0.071,-0.382 c -0.01,-0.049 -0.046,-0.094 -0.094,-0.093 l -0.288,0.002 c -0.049,0 -0.084,0.046 -0.074,0.095 l 0.495,2.402 c 0.01,0.048 0.043,0.09 0.091,0.09 L 0.209,0.659 c 0.049,0 0.081,-0.043 0.09,-0.091 l 0.493,-2.41 C 0.801,-1.891 0.765,-1.936 0.713,-1.936"
         inkscape:connector-curvature="0" />
    </g>
    <g
       transform="matrix(27.449294,0,0,-27.449294,254.95777,361.11727)"
       id="g2848">
      <path
         id="path2850"
         style="fill:#0064a2;fill-opacity:1;fill-rule:nonzero;stroke:none"
         d="M 0,0 C 0.001,0.143 -0.118,0.257 -0.26,0.258 L -0.51,0.26 c -0.045,0 -0.074,-0.038 -0.075,-0.087 l -0.004,-0.544 c 0,-0.049 0.041,-0.085 0.08,-0.085 l 0.243,-0.002 c 0.143,-0.001 0.263,0.108 0.264,0.251 z m 0.386,-1.939 -0.281,0.002 c -0.049,0 -0.071,0.042 -0.087,0.088 l -0.323,0.945 c -0.013,0.032 -0.029,0.065 -0.064,0.065 l -0.143,0.001 c -0.045,0.001 -0.081,-0.038 -0.081,-0.087 l -0.008,-0.919 c 0,-0.042 -0.039,-0.087 -0.088,-0.087 l -0.265,0.002 c -0.046,0 -0.081,0.04 -0.081,0.088 l 0.019,2.419 c 0.001,0.049 0.034,0.084 0.082,0.084 L -0.27,0.656 C 0.112,0.653 0.424,0.382 0.421,-0.026 L 0.42,-0.152 C 0.418,-0.418 0.283,-0.617 0.088,-0.736 0.072,-0.745 0.078,-0.765 0.084,-0.781 L 0.452,-1.853 C 0.467,-1.898 0.435,-1.94 0.386,-1.939"
         inkscape:connector-curvature="0" />
    </g>
    <g
       transform="matrix(27.449294,0,0,-27.449294,303.99594,364.61157)"
       id="g2852">
      <path
         id="path2854"
         style="fill:#0064a2;fill-opacity:1;fill-rule:nonzero;stroke:none"
         d="M 0,0 C 0.002,0.201 -0.162,0.364 -0.363,0.366 H -0.46 C -0.509,0.367 -0.554,0.325 -0.555,0.276 l -0.012,-1.603 c -0.001,-0.048 0.044,-0.094 0.093,-0.094 l 0.097,-10e-4 c 0.201,-0.002 0.367,0.159 0.369,0.357 z m -0.286,-1.821 -0.645,0.005 c -0.048,0.001 -0.09,0.046 -0.09,0.095 l 0.019,2.406 c 0.001,0.048 0.037,0.09 0.092,0.09 L -0.266,0.77 C 0.136,0.767 0.454,0.44 0.45,0.042 L 0.441,-1.104 C 0.438,-1.503 0.115,-1.824 -0.286,-1.821"
         inkscape:connector-curvature="0" />
    </g>
    <g
       transform="matrix(27.449294,0,0,-27.449294,369.80836,416.14762)"
       id="g2856">
      <path
         id="path2858"
         style="fill:#0064a2;fill-opacity:1;fill-rule:nonzero;stroke:none"
         d="m 0,0 h -0.081 c -0.382,0.004 -0.703,0.32 -0.7,0.702 l 0.014,1.846 c 0,0.042 0.037,0.084 0.082,0.083 l 0.278,-0.002 c 0.049,0 0.084,-0.042 0.084,-0.085 L -0.337,0.751 C -0.339,0.556 -0.194,0.4 -0.039,0.398 0.113,0.397 0.257,0.552 0.258,0.746 L 0.273,2.54 c 0,0.042 0.039,0.084 0.088,0.083 L 0.639,2.621 c 0.045,0 0.09,-0.043 0.09,-0.085 L 0.715,0.69 C 0.712,0.308 0.382,-0.003 0,0"
         inkscape:connector-curvature="0" />
    </g>
    <g
       transform="matrix(27.449294,0,0,-27.449294,438.96412,415.71666)"
       id="g2860">
      <path
         id="path2862"
         style="fill:#0064a2;fill-opacity:1;fill-rule:nonzero;stroke:none"
         d="m 0,0 -0.253,0.002 c -0.048,0 -0.071,0.026 -0.093,0.082 l -0.608,1.381 c -0.015,0.039 -0.048,0.026 -0.048,-0.01 l -0.011,-1.36 c 0,-0.048 -0.043,-0.087 -0.091,-0.086 L -1.37,0.011 c -0.045,0 -0.08,0.039 -0.08,0.088 l 0.019,2.415 c 0.001,0.049 0.036,0.088 0.082,0.087 l 0.265,-0.002 c 0.052,0 0.091,-0.049 0.11,-0.092 l 0.585,-1.335 c 0.016,-0.029 0.051,-0.039 0.052,0.013 l 0.01,1.317 c 0.001,0.049 0.046,0.091 0.095,0.09 L 0.02,2.59 c 0.049,0 0.088,-0.042 0.087,-0.091 L 0.088,0.087 C 0.088,0.038 0.048,0 0,0"
         inkscape:connector-curvature="0" />
    </g>
    <g
       transform="matrix(27.449294,0,0,-27.449294,479.35026,365.99501)"
       id="g2864">
      <path
         id="path2866"
         style="fill:#0064a2;fill-opacity:1;fill-rule:nonzero;stroke:none"
         d="M 0,0 C 0.002,0.201 -0.162,0.364 -0.363,0.366 H -0.46 C -0.509,0.367 -0.554,0.325 -0.555,0.276 l -0.012,-1.603 c -0.001,-0.048 0.044,-0.094 0.093,-0.094 l 0.097,-10e-4 c 0.201,-0.002 0.367,0.159 0.369,0.357 z m -0.286,-1.821 -0.645,0.005 c -0.048,0.001 -0.09,0.046 -0.09,0.095 l 0.019,2.406 c 0.001,0.048 0.037,0.09 0.092,0.09 L -0.266,0.77 C 0.136,0.766 0.454,0.44 0.45,0.042 L 0.441,-1.104 C 0.438,-1.503 0.115,-1.824 -0.286,-1.821"
         inkscape:connector-curvature="0" />
    </g>
    <g
       transform="matrix(27.449294,0,0,-27.449294,559.12615,416.66915)"
       id="g2868">
      <path
         id="path2870"
         style="fill:#0064a2;fill-opacity:1;fill-rule:nonzero;stroke:none"
         d="m 0,0 -1.25,0.01 c -0.045,0 -0.08,0.039 -0.08,0.088 l 0.001,0.175 c 10e-4,0.048 0.007,0.084 0.017,0.107 l 0.898,1.77 c 0.02,0.032 -0.016,0.052 -0.038,0.052 l -0.706,0.006 c -0.049,0 -0.087,0.033 -0.087,0.082 l 0.002,0.226 c 0,0.049 0.039,0.084 0.088,0.084 L 0.014,2.591 C 0.059,2.59 0.101,2.554 0.101,2.506 L 0.099,2.328 c 0,-0.046 0,-0.065 -0.02,-0.104 L -0.812,0.473 C -0.829,0.437 -0.806,0.418 -0.784,0.417 L 0.003,0.411 C 0.052,0.411 0.09,0.378 0.09,0.333 L 0.088,0.087 C 0.088,0.038 0.049,0 0,0"
         inkscape:connector-curvature="0" />
    </g>
    <g
       transform="matrix(27.449294,0,0,-27.449294,598.54333,366.93103)"
       id="g2872">
      <path
         id="path2874"
         style="fill:#0064a2;fill-opacity:1;fill-rule:nonzero;stroke:none"
         d="M 0,0 C 0.002,0.201 -0.162,0.364 -0.363,0.365 L -0.46,0.366 C -0.509,0.367 -0.555,0.325 -0.555,0.276 l -0.012,-1.603 c -0.001,-0.048 0.044,-0.094 0.093,-0.094 l 0.097,-10e-4 c 0.201,-0.002 0.367,0.159 0.368,0.356 z m -0.286,-1.821 -0.645,0.005 c -0.048,0 -0.09,0.046 -0.09,0.095 l 0.019,2.405 c 0.001,0.049 0.037,0.091 0.092,0.091 L -0.266,0.769 C 0.136,0.766 0.454,0.44 0.45,0.042 L 0.441,-1.105 C 0.438,-1.503 0.115,-1.824 -0.286,-1.821"
         inkscape:connector-curvature="0" />
    </g>
    <g
       transform="matrix(27.449294,0,0,-27.449294,652.74471,357.58729)"
       id="g2876">
      <path
         id="path2878"
         style="fill:#0064a2;fill-opacity:1;fill-rule:nonzero;stroke:none"
         d="m 0,0 -0.618,0.005 c -0.046,0 -0.095,-0.041 -0.095,-0.09 l -0.003,-0.44 c -0.001,-0.052 0.044,-0.088 0.093,-0.088 l 0.473,-0.004 c 0.042,-0.001 0.093,-0.043 0.093,-0.092 l -0.002,-0.22 c 0,-0.048 -0.043,-0.094 -0.095,-0.093 l -0.479,0.004 c -0.045,0 -0.088,-0.042 -0.088,-0.09 l -0.008,-0.971 c 0,-0.049 -0.039,-0.094 -0.091,-0.094 l -0.262,0.002 c -0.052,10e-4 -0.094,0.046 -0.094,0.095 l 0.019,2.406 c 0.001,0.049 0.05,0.09 0.095,0.09 L 0.003,0.411 c 0.049,0 0.094,-0.042 0.093,-0.091 L 0.095,0.093 C 0.094,0.041 0.049,0 0,0"
         inkscape:connector-curvature="0" />
    </g>
  </g>
</svg>
