<?xml version="1.0" encoding="UTF-8" standalone="no"?>
<svg
   xmlns:dc="http://purl.org/dc/elements/1.1/"
   xmlns:cc="http://creativecommons.org/ns#"
   xmlns:rdf="http://www.w3.org/1999/02/22-rdf-syntax-ns#"
   xmlns:svg="http://www.w3.org/2000/svg"
   xmlns="http://www.w3.org/2000/svg"
   xmlns:sodipodi="http://sodipodi.sourceforge.net/DTD/sodipodi-0.dtd"
   xmlns:inkscape="http://www.inkscape.org/namespaces/inkscape"
   width="1067pt"
   height="1067pt"
   viewBox="0 0 1067 1067"
   version="1.1"
   id="svg20"
   sodipodi:docname="N24Doku.svg"
   inkscape:version="0.92.5 (2060ec1f9f, 2020-04-08)">
  <metadata
     id="metadata26">
    <rdf:RDF>
      <cc:Work
         rdf:about="">
        <dc:format>image/svg+xml</dc:format>
        <dc:type
           rdf:resource="http://purl.org/dc/dcmitype/StillImage" />
        <dc:title></dc:title>
      </cc:Work>
    </rdf:RDF>
  </metadata>
  <defs
     id="defs24" />
  <sodipodi:namedview
     pagecolor="#ffffff"
     bordercolor="#666666"
     borderopacity="1"
     objecttolerance="10"
     gridtolerance="10"
     guidetolerance="10"
     inkscape:pageopacity="0"
     inkscape:pageshadow="2"
     inkscape:window-width="1920"
     inkscape:window-height="1019"
     id="namedview22"
     showgrid="false"
     inkscape:zoom="0.4096875"
     inkscape:cx="635.8505"
     inkscape:cy="631.46758"
     inkscape:window-x="0"
     inkscape:window-y="0"
     inkscape:window-maximized="1"
     inkscape:current-layer="svg20" />
  <g
     id="g843"
     transform="matrix(1.3364452,0,0,1.3364452,-1.2913779,-779.06614)">
    <g
       transform="translate(0,896.00001)"
       id="#002f4eff">
      <path
         style="opacity:1;fill:#002f4e"
         inkscape:connector-curvature="0"
         id="path2"
         d="m 412.37,9.44 c 17.86,-8.25 38.35,-9.93 57.6,-6.5 24.32,4.31 46.81,19.85 58,42.07 8.97,16.91 11.4,36.83 8.57,55.64 -2.3,16.06 -9.42,31.43 -20.37,43.44 -11.64,12.65 -27.44,21.26 -44.26,24.7 -4.72,0.99 -9.52,1.5 -14.28,2.21 h -11.39 c -8.55,-0.89 -17.16,-2.06 -25.31,-4.91 -11.97,-4.17 -23.33,-10.67 -32.07,-19.96 -5.83,-5.47 -10.34,-12.17 -14.1,-19.19 6.03,-12.75 8.49,-26.91 8.7,-40.94 -0.28,-14.02 -2.66,-28.18 -8.72,-40.93 8.19,-15.59 21.57,-28.36 37.63,-35.63 m 33.86,34.93 c -9.3,0.99 -18.25,5.47 -24.43,12.53 -7.95,8.88 -11.04,21.3 -10.19,33.01 0.74,8.02 3.11,16.08 7.94,22.62 6.15,8.51 16.08,14.09 26.5,15.18 14.16,2.04 29.58,-3.88 37.76,-15.84 8.83,-13.13 9.8,-30.84 3.57,-45.24 -5.58,-13.04 -19.17,-22.11 -33.33,-22.39 -2.61,-0.03 -5.22,-0.07 -7.82,0.13 z" />
      <path
         style="opacity:1;fill:#002f4e"
         inkscape:connector-curvature="0"
         id="path4"
         d="m 218.84,4.42 c 25.05,-0.15 50.1,0.03 75.14,-0.09 20.71,0.4 41.97,7.02 57.28,21.39 10.24,9.37 17.26,21.92 20.98,35.22 4.09,15.62 4.27,32.23 0.56,47.94 -3.93,16.22 -12.95,31.46 -26.33,41.63 -15.93,12.33 -36.5,17.79 -56.47,17.13 -23.72,-0.04 -47.44,0.07 -71.15,-0.06 -0.01,-12.19 0.03,-24.38 -0.03,-36.57 -0.1,-1.47 0.3,-2.88 0.46,-4.32 23.57,0.21 47.15,0.03 70.72,0.09 10.21,0 20.97,-3.01 28.15,-10.63 6,-5.68 9.1,-13.73 10.34,-21.76 1.55,-10.25 0.39,-21.15 -4.29,-30.49 -4.48,-8.99 -13.44,-15.19 -23.14,-17.33 -4.93,-1.19 -10.03,-1.18 -15.06,-1.35 -22.27,0.06 -44.55,-0.08 -66.82,0.07 -0.55,-3.74 -0.29,-7.52 -0.33,-11.29 -0.01,-9.86 0.01,-19.72 -0.01,-29.58 z" />
      <path
         style="opacity:1;fill:#002f4e"
         inkscape:connector-curvature="0"
         id="path6"
         d="m 593.41,4.38 c 18.11,0.02 36.23,-0.11 54.34,0.07 -19.53,26.6 -39.31,53.02 -58.83,79.63 21.31,27.85 42.63,55.71 64.1,83.44 -18.34,0.23 -36.68,0.11 -55.02,0.06 -15.21,-20.73 -30.37,-41.49 -45.7,-62.12 -3.32,0 -6.63,-0.01 -9.94,0.02 1.31,-6.09 1.41,-12.32 1.94,-18.5 -0.26,-7.17 -0.84,-14.34 -2.09,-21.41 3.46,-0.04 6.92,-0.03 10.39,-0.03 13.55,-20.42 27.35,-40.68 40.81,-61.16 z" />
      <path
         style="opacity:1;fill:#002f4e"
         inkscape:connector-curvature="0"
         id="path8"
         d="m 652.45,4.02 c 14.93,-0.32 29.87,-0.06 44.81,-0.14 0.06,32.05 -0.02,64.11 0.03,96.16 0.35,7.52 3.37,15.46 9.75,19.88 7.13,5.06 16.45,5.93 24.86,4.37 6.95,-1.12 13.32,-5.43 16.84,-11.54 3.11,-5.7 3.78,-12.37 3.52,-18.75 0.05,-30.05 -0.13,-60.1 0.1,-90.14 14.65,0.09 29.3,-0.08 43.95,0.07 0.19,0.19 0.57,0.56 0.76,0.75 0.15,29.77 0,59.55 0.07,89.32 -0.03,14.93 -1.79,30.45 -9.43,43.59 -5.88,10.58 -15.53,18.86 -26.63,23.58 -11.65,4.98 -24.46,6.85 -37.07,6.47 -9.19,0.28 -18.41,-0.96 -27.25,-3.44 -11.98,-3.42 -23.22,-10.2 -30.82,-20.2 -9.59,-12.48 -13.28,-28.49 -13.51,-44 0.02,-31.99 -0.01,-63.99 0.02,-95.98 z" />
      <path
         style="opacity:1;fill:#002f4e"
         inkscape:connector-curvature="0"
         id="path10"
         d="m 150.15,55.19 c 7.65,-5 17.51,-6.21 26.25,-3.71 6.68,1.88 12.35,7.34 14.06,14.12 0.99,3.33 1,6.86 0.73,10.29 -0.59,5.9 -4.01,11.09 -8.13,15.17 -4.18,4.74 -8.72,9.14 -13.22,13.57 6.81,0.18 13.62,0.03 20.43,0.09 0.01,5.26 0,10.52 0.01,15.78 -14.84,0.02 -29.68,0.03 -44.52,0 0.01,-4.46 -0.02,-8.91 0.03,-13.36 6.79,-5.64 12.3,-12.62 19.04,-18.31 3.09,-2.98 6.48,-5.89 8.37,-9.83 1.66,-3.27 1.5,-7.61 -0.88,-10.49 -2.4,-2.35 -6.13,-3.09 -9.33,-2.21 -4.48,0.86 -8.02,4.03 -11.07,7.23 -3.16,-3.83 -6.67,-7.36 -9.67,-11.32 2.57,-2.41 4.94,-5.08 7.9,-7.02 z" />
      <path
         style="opacity:1;fill:#002f4e"
         inkscape:connector-curvature="0"
         id="path12"
         d="m 72.41,51.8 c 5.56,0 11.13,0.01 16.69,-0.01 10.27,13.05 20.45,26.16 30.62,39.28 0.11,-13.09 0.01,-26.17 0.06,-39.26 5.91,-0.01 11.82,0 17.74,-0.01 0.07,22.9 0.02,45.81 0.02,68.72 -5.64,-0.1 -11.3,0.17 -16.94,-0.1 -10.44,-12.93 -20.45,-26.25 -30.79,-39.27 -0.07,13.12 0,26.24 -0.03,39.37 -5.77,-0.01 -11.54,-0.01 -17.31,-0.01 -0.11,-22.9 0.01,-45.8 -0.06,-68.71 z" />
      <path
         style="opacity:1;fill:#002f4e"
         inkscape:connector-curvature="0"
         id="path14"
         d="m 196.74,97.14 c 7.15,-15.21 14.79,-30.19 22.03,-45.35 5.98,0.03 11.95,0.01 17.93,0.01 -7.12,13.84 -13.63,27.98 -20.68,41.85 3.51,0.03 7.03,0.03 10.54,0.03 0,-2.3 -0.12,-4.62 0.13,-6.91 1.58,-3.8 3.41,-7.49 5.23,-11.18 3.57,-0.02 7.13,-0.02 10.7,-0.02 0.01,6.03 0,12.07 0,18.1 2.92,0 5.83,0 8.75,0 0.01,5.27 0.01,10.54 0,15.8 -2.92,0.01 -5.83,0.01 -8.75,0.01 0,3.68 0,7.36 0,11.04 -5.35,-0.01 -10.7,0 -16.05,-0.01 -0.01,-3.68 0,-7.36 -0.01,-11.04 -10.01,0.01 -20.02,0 -30.02,0.01 0.12,-4.11 -0.3,-8.26 0.2,-12.34 z" />
    </g>
    <g
       transform="translate(0,896.00001)"
       id="#f38724ff">
      <path
         style="opacity:1;fill:#f38724"
         inkscape:connector-curvature="0"
         id="path17"
         d="M 3.86,56 C 3.74,54.55 4.15,53.15 4.3,51.73 27,51.91 49.71,51.75 72.41,51.8 72.48,74.71 72.36,97.61 72.47,120.51 49.69,120.49 26.91,120.47 4.13,120.53 3.73,116.69 3.9,112.84 3.88,109 3.86,91.34 3.91,73.67 3.86,56 Z" />
    </g>
  </g>
</svg>
