<?xml version="1.0" encoding="UTF-8" standalone="no"?>
<!-- Generator: Adobe Illustrator 16.0.0, SVG Export Plug-In . SVG Version: 6.00 Build 0)  -->

<svg
   xmlns:dc="http://purl.org/dc/elements/1.1/"
   xmlns:cc="http://creativecommons.org/ns#"
   xmlns:rdf="http://www.w3.org/1999/02/22-rdf-syntax-ns#"
   xmlns:svg="http://www.w3.org/2000/svg"
   xmlns="http://www.w3.org/2000/svg"
   xmlns:sodipodi="http://sodipodi.sourceforge.net/DTD/sodipodi-0.dtd"
   xmlns:inkscape="http://www.inkscape.org/namespaces/inkscape"
   version="1.1"
   id="Layer_1"
   x="0px"
   y="0px"
   width="1066.6667"
   height="1066.6667"
   viewBox="0 0 1066.6667 1066.6668"
   enable-background="new 0 0 1000.242 404.119"
   xml:space="preserve"
   sodipodi:docname="de-Nick.svg"
   inkscape:version="0.92.5 (2060ec1f9f, 2020-04-08)"><metadata
     id="metadata19005"><rdf:RDF><cc:Work
         rdf:about=""><dc:format>image/svg+xml</dc:format><dc:type
           rdf:resource="http://purl.org/dc/dcmitype/StillImage" /><dc:title /></cc:Work></rdf:RDF></metadata><defs
     id="defs19003" /><sodipodi:namedview
     pagecolor="#ffffff"
     bordercolor="#666666"
     borderopacity="1"
     objecttolerance="10"
     gridtolerance="10"
     guidetolerance="10"
     inkscape:pageopacity="0"
     inkscape:pageshadow="2"
     inkscape:window-width="1920"
     inkscape:window-height="1019"
     id="namedview19001"
     showgrid="false"
     inkscape:zoom="0.78562494"
     inkscape:cx="533.33337"
     inkscape:cy="533.33337"
     inkscape:window-x="0"
     inkscape:window-y="0"
     inkscape:window-maximized="1"
     inkscape:current-layer="Layer_1" /><g
     id="g18998"
     transform="matrix(1.1153309,0,0,1.1153309,-1.7062163e-5,307.97073)"><g
       id="g18996"><g
         id="g18994"><path
           d="m 136.107,131.282 c 37.749,0 69.915,13.292 96.494,39.867 26.576,26.242 39.867,58.321 39.867,96.24 V 392.577 H 169.118 V 269.42 c 0,-14.557 -3.217,-26.998 -9.649,-37.328 -6.437,-10.323 -14.221,-15.489 -23.362,-15.489 -8.974,0 -16.675,5.166 -23.107,15.489 -6.435,10.33 -9.649,22.771 -9.649,37.328 V 392.577 H 0 V 267.389 c 0,-37.919 13.288,-69.998 39.869,-96.24 26.408,-26.574 58.487,-39.867 96.238,-39.867 z"
           id="path18986"
           inkscape:connector-curvature="0"
           style="fill:#f57c14" /><path
           d="m 371.961,110.714 c -11.006,10.836 -16.677,18.878 -17.015,24.124 v 0.507 c 0,5.42 4.825,12.867 14.476,22.346 l 11.426,11.428 c 10.157,10.328 15.236,22.688 15.236,37.074 V 392.578 H 291.719 V 206.193 c 0,-14.557 5.079,-26.917 15.236,-37.074 l 11.681,-11.428 c 9.478,-9.479 14.219,-17.013 14.219,-22.599 v -0.509 c -0.507,-5.079 -6.182,-13.033 -17.013,-23.869 L 303.4,98.018 C 292.055,86.845 286.387,73.304 286.387,57.389 286.387,41.479 292.055,28.02 303.4,17.014 314.402,5.675 327.861,0 343.774,0 c 16.081,0 29.623,5.587 40.629,16.76 11.34,11.173 17.013,24.719 17.013,40.629 0,16.085 -5.673,29.627 -17.013,40.629 z"
           id="path18988"
           inkscape:connector-curvature="0"
           style="fill:#f57c14" /><path
           d="m 568.865,311.18 c 4.572,-8.634 7.532,-18.791 8.89,-30.472 h 103.097 c -2.882,32.671 -15.915,60.434 -39.108,83.288 v 0.257 c -26.406,26.579 -58.233,39.865 -95.477,39.865 h -1.271 c -37.412,0 -69.322,-13.286 -95.73,-39.865 v -0.257 c -26.581,-26.238 -39.867,-58.062 -39.867,-95.477 v -1.271 c 0,-37.412 13.287,-69.236 39.867,-95.478 26.408,-26.575 58.487,-39.867 96.24,-39.867 37.581,0 69.659,13.292 96.237,39.867 23.193,23.024 36.227,50.788 39.108,83.29 H 577.754 c -1.357,-11.681 -4.317,-21.838 -8.89,-30.471 -6.603,-11.851 -14.388,-17.777 -23.359,-17.777 -8.977,0 -16.675,5.927 -23.108,17.777 -6.434,12.021 -9.65,26.494 -9.65,43.423 0,16.76 3.217,31.147 9.65,43.167 6.434,11.85 14.132,17.863 23.108,18.027 8.972,-0.163 16.757,-6.176 23.36,-18.026 z"
           id="path18990"
           inkscape:connector-curvature="0"
           style="fill:#f57c14" /><path
           d="m 897.455,278.817 52.31,79.988 c 4.399,6.602 6.603,12.528 6.603,17.773 0,2.202 -0.344,4.236 -1.017,6.096 -2.375,6.602 -7.451,9.903 -15.236,9.903 h -85.319 l -53.834,-82.528 v 82.274 H 697.612 V 182.831 c 0,-14.221 5.075,-26.409 15.232,-36.566 9.988,-9.987 22.095,-14.982 36.314,-14.982 14.385,0 26.576,4.996 36.567,14.982 10.156,10.157 15.235,22.345 15.235,36.566 v 55.864 l 46.725,-83.542 c 7.272,-12.355 17.855,-20.314 31.739,-23.871 4.571,-1.181 9.053,-1.777 13.458,-1.777 8.972,0 17.523,2.374 25.646,7.111 12.354,7.451 20.314,18.116 23.869,31.994 1.184,4.404 1.778,8.806 1.778,13.205 0,8.974 -2.454,17.521 -7.363,25.646 z"
           id="path18992"
           inkscape:connector-curvature="0"
           style="fill:#f57c14" /></g></g></g></svg>