<?xml version="1.0" encoding="UTF-8" standalone="no"?>
<svg
   xmlns:dc="http://purl.org/dc/elements/1.1/"
   xmlns:cc="http://creativecommons.org/ns#"
   xmlns:rdf="http://www.w3.org/1999/02/22-rdf-syntax-ns#"
   xmlns:svg="http://www.w3.org/2000/svg"
   xmlns="http://www.w3.org/2000/svg"
   xmlns:sodipodi="http://sodipodi.sourceforge.net/DTD/sodipodi-0.dtd"
   xmlns:inkscape="http://www.inkscape.org/namespaces/inkscape"
   height="1067"
   width="1067"
   version="1.1"
   id="svg16"
   sodipodi:docname="NDR.svg"
   inkscape:version="0.92.5 (2060ec1f9f, 2020-04-08)">
  <metadata
     id="metadata22">
    <rdf:RDF>
      <cc:Work
         rdf:about="">
        <dc:format>image/svg+xml</dc:format>
        <dc:type
           rdf:resource="http://purl.org/dc/dcmitype/StillImage" />
        <dc:title></dc:title>
      </cc:Work>
    </rdf:RDF>
  </metadata>
  <defs
     id="defs20" />
  <sodipodi:namedview
     pagecolor="#ffffff"
     bordercolor="#666666"
     borderopacity="1"
     objecttolerance="10"
     gridtolerance="10"
     guidetolerance="10"
     inkscape:pageopacity="0"
     inkscape:pageshadow="2"
     inkscape:window-width="1920"
     inkscape:window-height="1019"
     id="namedview18"
     showgrid="false"
     inkscape:zoom="0.48801166"
     inkscape:cx="310.30801"
     inkscape:cy="241.7975"
     inkscape:window-x="0"
     inkscape:window-y="0"
     inkscape:window-maximized="1"
     inkscape:current-layer="svg16" />
  <g
     transform="matrix(8.5962979,0,0,-8.5962979,-497.61992,6964.7558)"
     id="g14"
     style="fill:#173e7d">
    <path
       d="M 89.393,796.502 H 94.23 V 758.078 H 89.393 Z"
       id="path2"
       inkscape:connector-curvature="0" />
    <path
       d="m 89.393,717.233 h 4.837 v -17.45 h -4.837 z"
       id="path4"
       inkscape:connector-curvature="0" />
    <path
       d="m 80.7287,758.0781 h 8.664 v -40.846 h -9.619 l -13.222,23.815 v -23.815 h -8.664 v 40.848 l 9.039,-10e-4 13.802,-25.442 z"
       id="path6"
       inkscape:connector-curvature="0" />
    <path
       d="m 108.682,758.0833 c 9.819,0 14.608,-4.53 15.257,-14.235 v -12.292 c -0.743,-10.392 -5.438,-14.322 -15.257,-14.322 H 94.229 v 40.844 z m -0.851,-7.733 -4.334,0.003 v -25.423 h 4.334 c 4.295,0 7.312,1.796 7.312,7.503 v 10.505 c 0,5.419 -2.742,7.412 -7.312,7.412"
       id="path8"
       inkscape:connector-curvature="0"
       style="fill-rule:evenodd" />
    <path
       d="m 142.7492,750.8438 -5.751,0.002 v -10.555 h 5.751 c 3.507,0 5.791,1.987 5.791,5.535 0,3.549 -1.618,5.018 -5.791,5.018 m -0.66,-17.918 7.287,-15.693 h 9.759 l -8.657,17.316 c 4.888,1.937 6.825,5.874 6.725,11.167 -0.151,8.051 -4.171,12.362 -14.825,12.362 h -14.235 v -40.845 h 9.031 v 15.663 z"
       id="path10"
       inkscape:connector-curvature="0"
       style="fill-rule:evenodd" />
    <path
       d="m 171.7969,762.1746 c 5.641,0 10.214,-4.573 10.214,-10.214 0,-5.641 -4.573,-10.214 -10.214,-10.214 -5.641,0 -10.214,4.573 -10.214,10.214 0,5.641 4.573,10.214 10.214,10.214 m 4.102,-14.35 v 10.225 l -10.281,-3.691 v -2.54 l 3.404,1.23 v -7.685 z m -4.102,12.851 c -4.813,0 -8.716,-3.902 -8.716,-8.715 0,-4.814 3.903,-8.716 8.716,-8.716 4.814,0 8.716,3.902 8.716,8.716 0,4.813 -3.902,8.715 -8.716,8.715"
       id="path12"
       inkscape:connector-curvature="0"
       style="fill-rule:evenodd" />
  </g>
</svg>
