<?xml version="1.0" encoding="UTF-8" standalone="no"?>
<svg
   xmlns:dc="http://purl.org/dc/elements/1.1/"
   xmlns:cc="http://creativecommons.org/ns#"
   xmlns:rdf="http://www.w3.org/1999/02/22-rdf-syntax-ns#"
   xmlns:svg="http://www.w3.org/2000/svg"
   xmlns="http://www.w3.org/2000/svg"
   xmlns:sodipodi="http://sodipodi.sourceforge.net/DTD/sodipodi-0.dtd"
   xmlns:inkscape="http://www.inkscape.org/namespaces/inkscape"
   width="1067"
   height="1067"
   viewBox="0 0 1066.9966 1067.0107"
   version="1.1"
   id="svg4"
   sodipodi:docname="One_TV.svg"
   inkscape:version="0.92.5 (2060ec1f9f, 2020-04-08)">
  <metadata
     id="metadata10">
    <rdf:RDF>
      <cc:Work
         rdf:about="">
        <dc:format>image/svg+xml</dc:format>
        <dc:type
           rdf:resource="http://purl.org/dc/dcmitype/StillImage" />
        <dc:title></dc:title>
      </cc:Work>
    </rdf:RDF>
  </metadata>
  <defs
     id="defs8" />
  <sodipodi:namedview
     pagecolor="#ffffff"
     bordercolor="#666666"
     borderopacity="1"
     objecttolerance="10"
     gridtolerance="10"
     guidetolerance="10"
     inkscape:pageopacity="0"
     inkscape:pageshadow="2"
     inkscape:window-width="1920"
     inkscape:window-height="1019"
     id="namedview6"
     showgrid="false"
     inkscape:zoom="0.53407594"
     inkscape:cx="410.79882"
     inkscape:cy="451.65039"
     inkscape:window-x="0"
     inkscape:window-y="0"
     inkscape:window-maximized="1"
     inkscape:current-layer="svg4" />
  <path
     style="font-weight:500;font-size:70.42099762px;line-height:125%;font-family:TheSansBlack-Plain;-inkscape-font-specification:'TheSansBlack-Plain Medium';letter-spacing:-2.1099999;word-spacing:0;fill:#d6004f;stroke-width:7.48023558"
     d="m 956.22136,371.03464 c -61.18832,0 -110.78228,49.78097 -110.78228,110.81221 0,61.39777 49.59396,111.17126 110.78228,111.17126 61.15844,0 110.78234,-49.77349 110.78234,-111.17126 0,-61.03872 -49.6239,-110.81221 -110.78234,-110.81221 z m 0,16.26204 c 51.93534,0 94.65494,42.47277 94.65494,94.55017 0,52.43645 -42.7121,94.90923 -94.65494,94.90923 -51.93527,0 -94.63993,-42.47278 -94.63993,-94.90923 0,-52.0774 42.71214,-94.55017 94.63993,-94.55017 z m 45.03104,28.51465 -111.9567,40.16887 v 27.52726 l 36.9,-13.25497 v 83.28494 l 75.0567,-26.55484 z m -307.00384,5.19129 c -41.7846,0 -74.09173,12.99317 -96.92141,38.97202 -22.47063,25.99382 -33.71342,60.06629 -33.71342,102.20246 0,45.65188 11.76641,79.36527 35.29175,101.13277 23.53282,21.7675 57.77734,32.6587 102.72607,32.6587 16.08251,0 33.28705,-1.7952 51.61363,-5.3109 18.55098,-3.1417 35.0823,-7.5551 49.51915,-13.1653 l -8.45266,-71.66062 c -13.01561,5.61018 -26.03122,9.79911 -38.97203,12.6416 -12.6416,2.46848 -25.5076,3.66532 -38.44841,3.66532 -18.25177,0 -32.16501,-2.9921 -41.66491,-8.97629 -9.12589,-6.32828 -14.06284,-14.41441 -14.73606,-24.23596 h 148.49763 c 2.10943,-14.40693 3.17162,-28.10324 3.17162,-41.09641 0,-38.63542 -9.82903,-69.36423 -29.49457,-92.1939 -19.67302,-23.16629 -49.17507,-34.7457 -88.51362,-34.7457 z m -550.97918,0.52361 c -41.44051,0 -75.677543,13.16522 -102.718594,39.49565 -27.041051,26.35287 -40.557836,61.47257 -40.557836,105.36659 0,45.65188 11.220353,78.6622 33.705941,99.0383 22.814718,20.3463 54.97973,30.5493 96.420239,30.5493 40.37083,0 74.24881,-13.1652 101.64143,-39.5106 27.39263,-26.3304 41.1039,-60.92652 41.1039,-103.77331 0,-42.13617 -11.07075,-74.45826 -33.21225,-96.94385 -21.76748,-22.81472 -53.93249,-34.22208 -96.42023,-34.22208 z m 321.0517,0 c -18.61082,0 -35.11222,3.8598 -49.51916,11.59437 -14.0404,7.36803 -25.6198,17.20454 -34.74569,29.48709 1.04723,-5.61018 1.72046,-11.76641 2.09447,-18.43878 0.29921,-7.03143 0.52361,-12.4546 0.52361,-16.30692 h -88.5585 v 261.78578 h 95.89661 V 562.18458 c 0,-14.75851 4.21886,-28.29025 12.6416,-40.58028 8.43771,-12.6416 17.91517,-18.9998 28.45482,-18.9998 9.81407,0 14.73606,7.18103 14.73606,21.61788 v 165.38799 h 95.8667 V 504.18283 c 0,-24.9391 -6.13379,-44.95621 -18.4313,-60.06629 -11.9235,-15.03527 -31.61148,-22.59031 -58.98914,-22.59031 z m 227.82553,69.00517 c 17.95257,0 26.92885,12.11799 26.92885,36.35395 H 660.0564 c 0,-10.89122 2.9921,-19.67302 8.97629,-26.34539 5.98418,-6.67237 13.68883,-10.00856 23.18873,-10.00856 z m -554.65945,13.16522 c 13.01561,0 22.14149,4.3909 27.37766,13.16521 5.68498,8.78928 8.45266,22.65016 8.45266,41.62003 0,16.83053 -3.2913,30.14535 -10.02351,40.01926 -6.2834,9.4251 -15.63369,14.21245 -27.90128,14.21245 -12.94081,0 -22.2911,-4.26373 -27.90128,-12.6416 -5.23616,-8.82668 -7.85424,-23.56274 -7.85424,-44.28299 0,-17.20454 3.70271,-30.22015 11.07074,-38.97203 7.383,-8.82668 16.30692,-13.22505 26.85405,-13.22505 z"
     font-weight="500"
     font-size="70.421"
     letter-spacing="-2.11"
     word-spacing="0"
     id="path2"
     inkscape:connector-curvature="0" />
</svg>
