<?xml version="1.0" encoding="UTF-8" standalone="no"?>
<svg
   xmlns:dc="http://purl.org/dc/elements/1.1/"
   xmlns:cc="http://creativecommons.org/ns#"
   xmlns:rdf="http://www.w3.org/1999/02/22-rdf-syntax-ns#"
   xmlns:svg="http://www.w3.org/2000/svg"
   xmlns="http://www.w3.org/2000/svg"
   xmlns:sodipodi="http://sodipodi.sourceforge.net/DTD/sodipodi-0.dtd"
   xmlns:inkscape="http://www.inkscape.org/namespaces/inkscape"
   id="logo"
   viewBox="0 0 4032.7559 4032.7558"
   width="1067mm"
   height="1067mm"
   version="1.1"
   sodipodi:docname="Phoenix.svg"
   inkscape:version="0.92.5 (2060ec1f9f, 2020-04-08)">
  <metadata
     id="metadata9">
    <rdf:RDF>
      <cc:Work
         rdf:about="">
        <dc:format>image/svg+xml</dc:format>
        <dc:type
           rdf:resource="http://purl.org/dc/dcmitype/StillImage" />
        <dc:title></dc:title>
      </cc:Work>
    </rdf:RDF>
  </metadata>
  <defs
     id="defs7" />
  <sodipodi:namedview
     pagecolor="#ffffff"
     bordercolor="#666666"
     borderopacity="1"
     objecttolerance="10"
     gridtolerance="10"
     guidetolerance="10"
     inkscape:pageopacity="0"
     inkscape:pageshadow="2"
     inkscape:window-width="1920"
     inkscape:window-height="1019"
     id="namedview5"
     showgrid="false"
     inkscape:zoom="0.14182002"
     inkscape:cx="1607.4894"
     inkscape:cy="1470.6298"
     inkscape:window-x="0"
     inkscape:window-y="0"
     inkscape:window-maximized="1"
     inkscape:current-layer="logo"
     units="mm"
     width="1067mm" />
  <path
     d="m 156.71675,1570.3337 v 65.1912 c 24.01776,-24.0179 54.89774,-44.6046 85.77772,-58.3291 30.87999,-13.7242 65.19108,-20.5867 99.50217,-20.5867 75.4844,0 147.53768,30.88 195.57324,85.7779 54.89774,61.76 82.34659,140.6755 78.9155,223.0222 3.43109,82.3463 -27.44889,161.2622 -82.34662,219.5909 -51.46665,54.8976 -123.51993,89.2088 -199.00434,89.2088 -30.87998,0 -65.19107,-6.8621 -96.07106,-17.1554 -30.87998,-13.7246 -61.75996,-34.3112 -85.77772,-58.3292 v 277.9201 H 9.1790528 v -806.3107 z m 154.39991,123.52 c -44.60442,0 -85.77773,17.1554 -113.2266,48.0355 -30.87999,34.3112 -48.03553,78.9154 -44.60442,123.52 -3.43111,48.0355 13.72443,92.6397 44.60442,126.9509 30.87998,30.88 72.05329,51.4667 113.2266,48.0355 44.60442,0 85.77774,-17.1555 113.22659,-48.0355 30.88001,-34.3112 48.03552,-78.9154 44.60444,-126.9509 3.43108,-44.6046 -13.72443,-89.2088 -44.60444,-123.52 -27.44885,-30.8801 -68.62217,-51.4667 -113.22659,-48.0355 m 377.42201,466.6307 H 832.64524 V 1923.738 c 0,-41.1734 0,-82.3467 6.86225,-120.0888 6.86221,-30.88 20.58663,-58.3288 44.6044,-78.9155 20.58667,-20.5867 48.03552,-30.88 75.48441,-30.88 20.58663,0 41.1733,6.8621 58.3289,17.1554 17.1556,13.7246 27.4489,30.8801 34.3111,54.898 6.8622,44.6042 10.2933,92.6396 10.2933,137.2442 v 257.3331 h 147.5377 v -387.7152 c 3.4311,-54.898 -13.7244,-113.2267 -51.4666,-154.4001 -37.7422,-41.1733 -92.64,-61.76 -147.5377,-61.76 -30.88007,0 -61.76004,6.8625 -89.20889,17.1558 -30.88001,13.7242 -61.75999,34.3109 -85.77775,54.8975 V 1343.8806 H 688.53867 Z m 885.22623,-603.8753 c 54.8977,0 109.7955,13.7246 157.831,41.1733 48.0355,27.4492 85.7777,65.1913 113.2266,113.2267 27.4489,48.0355 41.1733,99.5022 41.1733,154.4001 0,54.8975 -13.7244,109.7955 -41.1733,157.8309 -27.4489,48.0355 -65.1911,85.7776 -113.2266,113.2267 -48.0355,27.4488 -102.9333,41.1734 -157.831,41.1734 -82.3466,0 -161.2621,-30.88 -216.1599,-89.2092 -58.3288,-58.3288 -92.6399,-137.2442 -89.2088,-219.5909 -3.4311,-89.2088 34.3111,-171.5555 102.9333,-229.8843 51.4666,-54.8976 126.951,-82.3467 202.4354,-82.3467 m 3.4311,137.2446 c -44.6044,0 -85.7777,17.1554 -113.2266,48.0355 -30.88,34.3112 -48.0355,78.9154 -44.6044,123.52 -3.4311,44.6042 13.7244,89.2088 44.6044,123.5197 30.88,30.88 72.0533,48.0358 113.2266,48.0358 44.6044,0 85.7777,-17.1558 116.6577,-48.0358 30.88,-34.3109 48.0356,-78.9155 44.6044,-123.5197 3.4312,-44.6046 -13.7244,-89.2088 -44.6044,-123.52 -30.88,-30.8801 -75.4844,-48.0355 -116.6577,-48.0355 m 974.435,216.1597 h -473.4931 c 3.4311,37.7421 24.0178,75.4846 54.8978,99.5021 30.88,27.4492 72.0533,37.7425 113.2266,37.7425 54.8977,0 106.3644,-20.5866 144.1066,-58.3291 l 123.5199,58.3291 c -27.4488,41.173 -65.1911,75.4843 -113.2266,96.0709 -48.0355,20.5867 -99.5022,34.3113 -154.3999,30.88 -85.7778,3.4313 -164.6933,-27.4487 -226.4532,-85.7779 -58.3289,-58.3288 -89.2089,-137.2442 -85.7777,-219.5909 -3.4312,-82.3464 27.4488,-164.6931 85.7777,-223.0218 58.3288,-58.3292 137.2444,-92.6401 219.591,-89.2092 85.7777,-3.4309 168.1243,27.4491 226.4532,89.2092 58.3288,61.7596 92.6399,147.5375 85.7777,236.7463 z m -147.5377,-116.6576 c -10.2933,-34.3112 -30.88,-61.76 -58.3288,-78.9154 -30.88,-20.5867 -65.1911,-30.88 -99.5022,-30.88 -37.7422,0 -78.9155,10.2933 -109.7955,34.3108 -24.0178,20.5867 -41.1733,48.0359 -54.8978,75.4846 z m 212.7288,367.1286 h 147.5377 V 1923.738 c 0,-41.1734 0,-78.9155 6.8622,-120.0888 6.8622,-30.88 20.5866,-61.76 44.6044,-82.3467 20.5867,-20.5867 48.0356,-30.88 75.4844,-27.4488 20.5867,0 41.1733,6.8621 58.3289,17.1554 17.1555,13.7246 27.4489,34.3113 34.3111,54.898 6.8622,44.6042 10.2933,92.6396 10.2933,140.6755 v 257.333 h 147.5377 v -391.1464 c 3.4311,-54.898 -13.7245,-109.7955 -51.4666,-154.4001 -37.7422,-41.1733 -92.64,-61.76 -147.5377,-61.76 -27.4489,0 -58.3289,6.8625 -82.3467,17.1558 -34.3111,13.7242 -65.191,34.3109 -92.6399,58.3288 v -61.76 h -150.9688 z m 600.4441,0 h 147.5377 v -590.1507 h -147.5377 z m 408.302,-308.7998 -223.0221,308.7998 h 168.1243 l 140.6755,-192.1422 140.6755,192.1422 h 171.5555 l -226.4531,-312.231 199.0043,-277.9197 h -168.1247 l -116.6575,161.2621 -116.6577,-161.2621 H 3423.1327 Z M 688.53867,2678.5821 v -301.9377 h 99.50217 c 37.74219,0 78.9155,13.7242 106.36438,37.7422 61.75995,54.8979 68.6222,150.9688 13.72443,212.7288 l -13.72443,13.7242 c -30.87997,24.0179 -68.62219,37.7425 -106.36438,37.7425 z m 30.87997,-274.4889 v 243.6089 h 58.32886 c 37.74223,3.4308 75.48441,-10.2934 102.9333,-37.7421 44.6044,-48.0359 44.6044,-120.0888 0,-168.1247 -27.44889,-27.4487 -65.19107,-41.1733 -102.9333,-37.7421 z m 301.93766,195.5734 -34.31112,78.9155 h -34.3111 l 130.38222,-301.9377 h 30.88 l 130.3821,301.9377 h -34.3111 l -34.3111,-78.9155 z m 75.4844,-188.7113 -65.1911,157.8313 h 130.3822 z m 360.2665,-6.8621 -27.4489,20.5867 c -13.7244,-20.5867 -34.3111,-30.88 -58.3288,-30.88 -17.1556,0 -30.88,3.4312 -44.6045,13.7246 -13.7244,10.2933 -20.5866,24.0175 -20.5866,41.1733 0,24.0175 17.1555,44.6042 41.1733,51.4663 l 75.4844,27.4492 c 24.0178,13.7242 41.1733,41.1733 41.1733,68.6221 0,24.0179 -10.2933,48.0354 -30.88,65.1909 -20.5866,13.7246 -44.6044,24.0179 -68.6222,24.0179 -37.7422,3.4312 -72.0533,-13.7246 -96.071,-44.6046 l 27.4488,-20.5863 c 13.7245,24.0175 41.1734,41.173 68.6222,37.7421 17.1556,0 30.88,-3.4312 44.6044,-13.7246 13.7245,-10.2933 20.5867,-24.0175 20.5867,-41.1733 0,-24.0175 -17.1555,-44.6042 -41.1733,-51.4667 -24.0178,-10.2933 -48.0355,-17.1554 -75.4844,-27.4488 -24.0178,-13.7245 -41.1733,-41.1733 -41.1733,-68.6221 0,-24.0179 10.2933,-51.4667 30.88,-65.1913 48.0355,-34.3108 113.2266,-27.4487 154.3999,13.7246 z m 428.8886,6.8621 -24.0177,24.0179 c -24.0178,-24.0179 -54.8978,-37.7421 -85.7778,-34.3112 -34.311,0 -68.6221,13.7246 -92.6399,37.7425 -44.6044,51.4667 -44.6044,130.3821 0,181.8488 24.0178,27.4488 54.8977,41.173 89.2088,41.173 30.88,0 58.3289,-6.8621 82.3467,-24.0176 v -99.5021 h -72.0534 v -27.4491 h 102.9333 v 147.5379 c -34.3111,20.5867 -75.4844,30.88 -113.2266,30.88 -41.1733,0 -82.3466,-13.7245 -113.2266,-44.6046 -58.3288,-65.1908 -58.3288,-161.2621 0,-226.453 30.88,-30.88 68.6222,-44.6046 113.2266,-44.6046 44.6044,-6.8621 85.7777,6.8621 113.2266,37.7421 z m 109.7955,188.7113 -30.88,78.9155 h -34.3111 l 130.3822,-301.9377 h 30.88 l 130.3821,301.9377 h -37.7422 l -34.3111,-78.9155 z m 75.4844,-188.7113 -65.1911,157.8313 h 130.3822 z m 226.4532,-34.3109 178.4177,253.9019 v -253.9019 h 30.88 v 301.9377 h -37.7422 l -178.4177,-257.3334 v 257.3334 h -30.88 v -301.9377 z m 470.062,0 v 24.0176 l -174.9866,247.0401 h 178.4177 v 27.4488 h -216.1599 v -27.4488 l 174.9866,-247.0401 h -174.9866 v -27.4488 z m 75.4844,157.831 v 113.2267 h 161.2621 v 27.4488 h -192.1421 v -298.5065 h 188.711 v 27.4488 h -157.831 v 102.9334 h 147.5377 v 27.4488 z m 339.6798,144.1067 v -301.9377 h 89.2089 c 24.0177,0 48.0355,3.4309 68.6221,17.1555 20.5867,13.7246 30.88,34.3112 30.88,58.3288 0,13.7245 -3.4311,30.88 -13.7244,41.1733 -10.2933,13.7246 -24.0178,20.5867 -37.7422,24.0179 20.5866,0 37.7422,10.2934 51.4666,24.0176 13.7244,13.7245 20.5867,34.3112 17.1555,54.8979 0,17.1554 -6.8622,34.3109 -17.1555,48.0354 -24.0177,24.018 -58.3288,37.7422 -92.6399,34.3113 z m 30.88,-274.4889 v 102.9334 h 61.7599 c 13.7245,0 30.8801,-3.4312 41.1734,-10.2933 13.7244,-10.2934 20.5866,-24.018 20.5866,-41.1734 0,-10.2933 -3.4311,-20.5867 -10.2933,-30.88 -13.7244,-13.7246 -34.3111,-24.0179 -54.8977,-20.5867 z m 0,130.3822 v 116.6575 h 58.3289 c 20.5866,0 37.7421,-3.4308 54.8977,-13.7242 13.7244,-10.2933 24.0177,-27.4487 24.0177,-44.6045 0,-37.7422 -24.0177,-58.3288 -75.4844,-58.3288 z m 264.1954,-157.831 v 301.9377 h -30.88 v -301.9377 z m 106.3644,0 v 274.4885 h 140.6754 v 27.4492 h -171.5554 v -298.5068 h 30.88 z m 178.4177,301.9377 v -301.9377 h 99.5021 c 37.7421,0 78.9155,13.7242 106.3642,37.7422 61.7601,54.8979 68.6225,147.5375 13.7246,212.7288 l -13.7246,13.7242 c -30.8796,24.0179 -68.6221,37.7425 -106.3642,37.7425 z m 30.88,-274.4889 v 243.6089 h 58.3288 c 37.7421,3.4308 75.4846,-10.2934 102.9333,-37.7421 44.6042,-48.0359 44.6042,-120.0888 0,-168.1247 -27.4487,-27.4487 -65.1912,-41.1733 -102.9333,-37.7421 z"
     style="fill:#00687c;stroke-width:34.31109238"
     id="path2"
     inkscape:connector-curvature="0" />
</svg>
