<?xml version="1.0" encoding="UTF-8" standalone="no"?>
<!-- Created with Inkscape (http://www.inkscape.org/) -->

<svg
   xmlns:dc="http://purl.org/dc/elements/1.1/"
   xmlns:cc="http://creativecommons.org/ns#"
   xmlns:rdf="http://www.w3.org/1999/02/22-rdf-syntax-ns#"
   xmlns:svg="http://www.w3.org/2000/svg"
   xmlns="http://www.w3.org/2000/svg"
   xmlns:sodipodi="http://sodipodi.sourceforge.net/DTD/sodipodi-0.dtd"
   xmlns:inkscape="http://www.inkscape.org/namespaces/inkscape"
   version="1.1"
   width="1066.6667"
   height="1066.6667"
   id="svg2"
   sodipodi:docname="de-ProSieben_MAXX.svg"
   inkscape:version="0.92.5 (2060ec1f9f, 2020-04-08)">
  <sodipodi:namedview
     pagecolor="#ffffff"
     bordercolor="#666666"
     borderopacity="1"
     objecttolerance="10"
     gridtolerance="10"
     guidetolerance="10"
     inkscape:pageopacity="0"
     inkscape:pageshadow="2"
     inkscape:window-width="1920"
     inkscape:window-height="1019"
     id="namedview6"
     showgrid="false"
     inkscape:zoom="0.67086273"
     inkscape:cx="-89.437078"
     inkscape:cy="478.37301"
     inkscape:window-x="0"
     inkscape:window-y="0"
     inkscape:window-maximized="1"
     inkscape:current-layer="svg2" />
  <metadata
     id="metadata8">
    <rdf:RDF>
      <cc:Work
         rdf:about="">
        <dc:format>image/svg+xml</dc:format>
        <dc:type
           rdf:resource="http://purl.org/dc/dcmitype/StillImage" />
        <dc:title />
      </cc:Work>
    </rdf:RDF>
  </metadata>
  <defs
     id="defs6" />
  <path
     d="m -2.5976562e-5,433.44549 v 56.13508 H 201.42522 v -56.13508 z m 219.586695976562,0 v 25.07505 L 339.07971,633.22045 H 453.36167 L 316.89404,433.44549 Z m 165.10254,0 -30.95672,45.30019 105.82053,154.47477 h 10.98963 V 433.44549 Z m 104.01491,0 L 626.152,633.22045 H 740.17606 L 603.39884,433.44549 Z m 154.68058,0 136.77721,199.77496 H 895.16624 L 758.07944,433.44549 Z m 151.63639,0 -16.25225,24.92026 51.95578,75.07041 67.89859,-99.99067 z m 128.78027,0 -57.37322,82.86116 80.02316,116.9138 h 114.3337 z m 39.21175,0 -16.92288,24.66229 51.85255,75.1219 68.72402,-99.78419 z m -474.30899,8.71952 v 191.05544 h 68.46584 l 31.1633,-45.3003 z m -269.11745,25.12663 v 165.92881 h 113.24999 z m -23.26934,33.4334 c -2.83886,0.0257 -6.24794,0.0997 -8.51296,0.25798 -45.93508,3.27313 -93.447023,21.3555 -129.863659,50.0985 -26.092558,20.59433 -47.201267,50.19853 -56.4960881,82.13893 H 201.42522 V 500.72504 c 0,0 -2.26886,-0.0257 -5.10789,0 z m 520.89919,48.8603 -14.29171,20.68951 42.56554,62.9456 h 28.5317 z m 166.0313,0.15556 -19.50258,29.51215 36.73528,53.9682 h 40.7597 z"
     id="path3801"
     style="fill:#000000;stroke-width:1.63749886"
     inkscape:connector-curvature="0" />
</svg>
