<?xml version="1.0" encoding="UTF-8" standalone="no"?>
<!-- Created with Inkscape (http://www.inkscape.org/) -->

<svg
   xmlns:dc="http://purl.org/dc/elements/1.1/"
   xmlns:cc="http://creativecommons.org/ns#"
   xmlns:rdf="http://www.w3.org/1999/02/22-rdf-syntax-ns#"
   xmlns:svg="http://www.w3.org/2000/svg"
   xmlns="http://www.w3.org/2000/svg"
   xmlns:sodipodi="http://sodipodi.sourceforge.net/DTD/sodipodi-0.dtd"
   xmlns:inkscape="http://www.inkscape.org/namespaces/inkscape"
   width="1066.6667"
   height="1066.6667"
   viewBox="0 0 282.22223 282.22226"
   version="1.1"
   id="svg41371"
   inkscape:version="0.92.5 (2060ec1f9f, 2020-04-08)"
   sodipodi:docname="de-RTL.svg">
  <defs
     id="defs41365" />
  <sodipodi:namedview
     id="base"
     pagecolor="#ffffff"
     bordercolor="#666666"
     borderopacity="1.0"
     inkscape:pageopacity="0.0"
     inkscape:pageshadow="2"
     inkscape:zoom="0.54137863"
     inkscape:cx="-311.38854"
     inkscape:cy="346.50281"
     inkscape:document-units="px"
     inkscape:current-layer="svg41371"
     showgrid="false"
     units="px"
     fit-margin-top="0"
     fit-margin-left="0"
     fit-margin-right="0"
     fit-margin-bottom="0"
     inkscape:window-width="1920"
     inkscape:window-height="1019"
     inkscape:window-x="0"
     inkscape:window-y="0"
     inkscape:window-maximized="1" />
  <metadata
     id="metadata41368">
    <rdf:RDF>
      <cc:Work
         rdf:about="">
        <dc:format>image/svg+xml</dc:format>
        <dc:type
           rdf:resource="http://purl.org/dc/dcmitype/StillImage" />
        <dc:title />
      </cc:Work>
    </rdf:RDF>
  </metadata>
  <g
     id="g829"
     transform="translate(-2.5000004e-6,6.2599375)">
    <path
       style="fill:#e6174a;fill-opacity:1;fill-rule:nonzero;stroke:none;stroke-width:12.48469162"
       d="M 94.122781,159.4548 H 0 v -49.20723 h 94.122781 z m 0,0"
       id="path1914"
       inkscape:connector-curvature="0" />
    <path
       style="fill:#f5911c;fill-opacity:1;fill-rule:nonzero;stroke:none;stroke-width:12.48469162"
       d="M 188.0994,159.4548 H 94.025248 V 110.24757 H 188.0994 Z m 0,0"
       id="path1916"
       inkscape:connector-curvature="0" />
    <path
       style="fill:#306691;fill-opacity:1;fill-rule:nonzero;stroke:none;stroke-width:12.48469162"
       d="M 282.22225,159.4548 H 188.1481 v -49.20723 h 94.07415 z m 0,0"
       id="path1918"
       inkscape:connector-curvature="0" />
    <path
       style="fill:#c21c45;fill-opacity:1;fill-rule:nonzero;stroke:none;stroke-width:12.48469162"
       d="m 15.508287,118.7333 v 31.94345 l 2.048355,8.77805 h 76.468747 v -9.1684 L 75.005737,124.63418 Z m 0,0"
       id="path1920"
       inkscape:connector-curvature="0" />
    <path
       style="fill:#d18223;fill-opacity:1;fill-rule:nonzero;stroke:none;stroke-width:12.48469162"
       d="m 170.93297,118.7333 -61.20433,7.5104 6.73013,33.2111 h 71.64063 v -17.84915 z m 0,0"
       id="path1922"
       inkscape:connector-curvature="0" />
    <path
       style="fill:#ffffff;fill-opacity:1;fill-rule:nonzero;stroke:none;stroke-width:12.48469162"
       d="m 65.593354,138.43581 c 0,0 10.387652,0.53792 10.290153,-10.58293 C 75.784417,116.73378 65.008082,117.4653 65.008082,117.4653 H 15.508287 v 32.08958 h 23.701424 v -10.2899 l 4.925609,0.10614 12.094529,10.19259 H 81.004111 Z M 50.572667,131.99842 H 39.209711 v -7.16888 h 11.850588 c 0,0 2.19487,0.82811 2.34103,3.55984 0.145093,2.77808 -2.828699,3.60904 -2.828699,3.60904"
       id="path1924"
       inkscape:connector-curvature="0" />
    <path
       style="fill:#ffffff;fill-opacity:1;fill-rule:nonzero;stroke:none;stroke-width:12.48469162"
       d="m 109.72864,118.7333 v 7.5104 h 18.09304 v 24.67689 h 25.35954 v -24.57921 l 17.75175,0.24774 v -7.85192 z m 0,0"
       id="path1926"
       inkscape:connector-curvature="0" />
    <path
       style="fill:#2e577a;fill-opacity:1;fill-rule:nonzero;stroke:none;stroke-width:12.48469162"
       d="m 231.74702,118.636 -27.11512,32.08923 2.34103,8.72957 h 71.25052 l -11.55811,-15.55696 h -20.77541 z m 0,0"
       id="path1928"
       inkscape:connector-curvature="0" />
    <path
       style="fill:#ffffff;fill-opacity:1;fill-rule:nonzero;stroke:none;stroke-width:12.48469162"
       d="m 204.6319,118.83098 v 32.08961 h 62.0333 v -7.07158 h -34.82069 v -25.01803 z m 0,0"
       id="path1930"
       inkscape:connector-curvature="0" />
  </g>
</svg>
