<?xml version="1.0" encoding="UTF-8" standalone="no"?>
<!-- Created with Inkscape (http://www.inkscape.org/) -->

<svg
   xmlns:dc="http://purl.org/dc/elements/1.1/"
   xmlns:cc="http://creativecommons.org/ns#"
   xmlns:rdf="http://www.w3.org/1999/02/22-rdf-syntax-ns#"
   xmlns:svg="http://www.w3.org/2000/svg"
   xmlns="http://www.w3.org/2000/svg"
   xmlns:sodipodi="http://sodipodi.sourceforge.net/DTD/sodipodi-0.dtd"
   xmlns:inkscape="http://www.inkscape.org/namespaces/inkscape"
   version="1.0"
   width="1067"
   height="1067"
   id="svg26043"
   sodipodi:docname="Radio_Bremen_TV.svg"
   inkscape:version="0.92.5 (2060ec1f9f, 2020-04-08)">
  <metadata
     id="metadata25">
    <rdf:RDF>
      <cc:Work
         rdf:about="">
        <dc:format>image/svg+xml</dc:format>
        <dc:type
           rdf:resource="http://purl.org/dc/dcmitype/StillImage" />
        <dc:title></dc:title>
      </cc:Work>
    </rdf:RDF>
  </metadata>
  <sodipodi:namedview
     pagecolor="#ffffff"
     bordercolor="#666666"
     borderopacity="1"
     objecttolerance="10"
     gridtolerance="10"
     guidetolerance="10"
     inkscape:pageopacity="0"
     inkscape:pageshadow="2"
     inkscape:window-width="1920"
     inkscape:window-height="1019"
     id="namedview23"
     showgrid="false"
     inkscape:zoom="0.51714504"
     inkscape:cx="438.72567"
     inkscape:cy="473.99753"
     inkscape:window-x="0"
     inkscape:window-y="0"
     inkscape:window-maximized="1"
     inkscape:current-layer="svg26043" />
  <defs
     id="defs26045">
    <linearGradient
       id="linearGradient5905">
      <stop
         style="stop-color:#eb008b;stop-opacity:1"
         offset="0"
         id="stop5907" />
      <stop
         style="stop-color:white;stop-opacity:1"
         offset="0.49565217"
         id="stop5913" />
      <stop
         style="stop-color:#eb008b;stop-opacity:1"
         offset="1"
         id="stop5909" />
    </linearGradient>
  </defs>
  <g
     id="g847"
     transform="matrix(1.254713,0,0,1.254713,-22.229151,418.57522)">
    <g
       id="g7050"
       transform="translate(-28.52862,-113.1251)">
      <path
         id="path8523"
         style="font-size:10px;font-family:fnt0, TheSans, Arial;letter-spacing:0;word-spacing:0;fill:#000000;fill-rule:nonzero;stroke:none"
         d="M 840.84944,174.76828 H 856.294 l 12.60774,48.0356 h 0.3152 l 12.76538,-48.0356 h 14.65651 l -19.22679,62.29806 h -17.65091 z"
         inkscape:connector-curvature="0" />
      <path
         id="path8525"
         style="font-size:10px;font-family:fnt0, TheSans, Arial;letter-spacing:0;word-spacing:0;fill:#000000;fill-rule:nonzero;stroke:none"
         d="m 825.40499,226.6807 c -4.41271,0 -6.77669,-1.93838 -6.77669,-8.60479 v -32.30742 h 17.17808 l -3.30956,-11.00021 h -43.02397 v 11.00021 h 14.18373 v 34.11983 c 0,13.08053 6.30391,18.15513 17.3357,18.15513 2.99435,0 5.51586,-0.44124 7.40699,-1.04016 v -10.68505 c -0.78793,0.20488 -1.89113,0.36246 -2.99428,0.36246"
         inkscape:connector-curvature="0" />
      <path
         id="path8527"
         style="font-size:10px;font-family:fnt0, TheSans, Arial;letter-spacing:0;word-spacing:0;fill:#ed7e00;fill-rule:nonzero;stroke:none"
         d="m 719.81495,145.66008 c -22.37877,0 -40.50247,18.12364 -40.50247,40.47097 0,19.8414 14.34137,36.34187 33.09542,39.809 v -39.809 h 14.81415 v 39.809 c 18.754,-3.46713 33.0953,-19.9676 33.0953,-39.809 0,-22.34733 -18.12358,-40.47097 -40.5024,-40.47097 m 0,-14.76685 c 30.41622,0 55.15897,24.74274 55.15897,55.23782 0,30.49496 -24.74275,55.20621 -55.15897,55.20621 -30.57381,0 -55.31661,-24.71125 -55.31661,-55.20621 0,-30.49508 24.7428,-55.23782 55.31661,-55.23782"
         inkscape:connector-curvature="0" />
      <path
         id="path8529"
         style="font-size:10px;font-family:fnt0, TheSans, Arial;letter-spacing:0;word-spacing:0;fill:#000000;fill-rule:nonzero;stroke:none"
         d="m 46.717928,277.56886 h 6.934302 v -38.83195 c 0,-11.37856 5.200662,-16.201 16.232446,-16.201 v -7.50158 c -6.776644,0 -11.977371,1.7966 -16.390044,10.63776 H 53.17944 c 0,-2.53732 -0.315198,-6.16201 -0.472797,-9.80253 h -6.461512 c 0.157599,6.41419 0.472797,12.70233 0.472797,19.13231 z"
         inkscape:connector-curvature="0" />
      <path
         id="path8531"
         style="font-size:10px;font-family:fnt0, TheSans, Arial;letter-spacing:0;word-spacing:0;fill:#000000;fill-rule:nonzero;stroke:none"
         d="m 115.43025,235.45886 c 0,-4.45994 0,-20.42453 -19.069272,-20.42453 -6.776638,0 -11.031784,2.28514 -16.862836,5.43706 l 1.103186,7.50169 c 0.630324,-0.61473 7.249431,-6.41429 15.444452,-6.41429 12.76536,0 12.76536,11.14214 12.76536,18.89589 h -4.41267 c -8.825486,0 -29.785863,0.34676 -29.785863,20.07788 0,10.02319 7.564632,17.90303 17.178099,17.90303 8.037424,0 13.080554,-2.9155 17.335624,-9.69224 h 0.3152 l 0.4728,8.82551 h 6.3039 c -0.47279,-4.57033 -0.78798,-9.18797 -0.78798,-13.78974 z m -6.61911,18.28133 c 0,16.81556 -11.977371,18.15513 -15.286858,18.15513 -7.564698,0 -11.347043,-6.16201 -11.347043,-11.36276 0,-14.05764 12.135031,-14.05764 26.633901,-14.05764 z"
         inkscape:connector-curvature="0" />
      <path
         id="path8533"
         style="font-size:10px;font-family:fnt0, TheSans, Arial;letter-spacing:0;word-spacing:0;fill:#000000;fill-rule:nonzero;stroke:none"
         d="m 172.9532,186.8402 h -7.09192 v 37.00379 h -0.31518 c -2.99436,-5.67348 -7.72223,-8.80966 -15.44453,-8.80966 -15.60205,0 -20.48759,17.6666 -20.48759,29.39187 0,8.60477 0.6304,34.00939 20.80279,34.00939 7.72229,0 11.66217,-3.49863 16.2325,-9.32969 h 0.1576 v 8.46296 h 6.61911 c -0.31519,-5.29529 -0.47278,-10.76389 -0.47278,-20.44039 z m -35.93218,59.90263 c 0,-14.29406 3.62475,-25.18404 14.18374,-25.18404 15.12932,0 15.12932,17.68246 15.12932,25.909 0,12.56044 -3.30955,24.42753 -15.28693,24.42753 -14.02613,0 -14.02613,-20.07788 -14.02613,-25.15249"
         inkscape:connector-curvature="0" />
      <path
         id="path8535"
         style="font-size:10px;font-family:fnt0, TheSans, Arial;letter-spacing:0;word-spacing:0;fill:#000000;fill-rule:nonzero;stroke:none"
         d="m 190.60401,277.56886 h 7.09191 v -61.6993 h -7.09191 z m -0.63039,-75.37869 h 8.51028 v -10.87422 h -8.51028 z"
         inkscape:connector-curvature="0" />
      <path
         id="path8537"
         style="font-size:10px;font-family:fnt0, TheSans, Arial;letter-spacing:0;word-spacing:0;fill:#000000;fill-rule:nonzero;stroke:none"
         d="m 235.83438,271.89532 c -15.60211,0 -15.60211,-20.20391 -15.60211,-25.15249 0,-4.96433 0,-25.18404 15.60211,-25.18404 15.60213,0 15.60213,20.21971 15.60213,25.18404 0,4.94858 0,25.15249 -15.60213,25.15249 m 0,6.54027 c 17.9661,0 23.00915,-16.21676 23.00915,-31.69276 0,-15.49175 -5.04305,-31.7085 -23.00915,-31.7085 -18.12367,0 -23.16674,16.21675 -23.16674,31.7085 0,15.476 5.04307,31.69276 23.16674,31.69276"
         inkscape:connector-curvature="0" />
      <path
         id="path8539"
         style="font-size:10px;font-family:fnt0, TheSans, Arial;letter-spacing:0;word-spacing:0;fill:#000000;fill-rule:nonzero;stroke:none"
         d="m 273.34248,186.8402 v 80.1066 c 0,4.45994 -0.1576,8.35261 -0.4728,10.62206 h 14.02614 c 0.1576,-1.79666 0.47279,-5.42137 0.47279,-9.66074 h 0.3152 c 2.36397,5.32676 6.93431,10.6378 16.54771,10.6378 15.60211,0 21.90596,-14.7668 21.90596,-32.071 0,-20.31425 -8.03742,-32.16555 -21.43316,-32.16555 -8.98302,0 -14.02615,5.07462 -16.07492,9.92861 h -0.3152 V 186.8402 Z m 14.97172,59.39829 c 0,-12.08765 3.46715,-20.9446 11.66217,-20.9446 8.35269,0 11.18938,8.132 11.18938,20.58216 0,14.40434 -2.2063,21.66956 -11.03178,21.66956 -8.82541,0 -11.81977,-9.5661 -11.81977,-21.30712"
         inkscape:connector-curvature="0" />
      <path
         id="path8541"
         style="font-size:10px;font-family:fnt0, TheSans, Arial;letter-spacing:0;word-spacing:0;fill:#000000;fill-rule:nonzero;stroke:none"
         d="m 339.69083,277.56886 h 14.97175 v -34.10403 c 0,-11.63068 6.93426,-15.38153 13.08053,-15.38153 1.57598,0 2.83677,0.25218 4.25512,0.63043 v -14.05765 c -0.94558,-0.12608 -1.73356,-0.34671 -2.67914,-0.34671 -9.29818,0 -14.02615,7.50159 -15.75971,12.32408 h -0.31521 c 0,-3.7351 -0.3152,-7.62771 -0.47279,-11.36276 h -13.55334 c 0.31518,2.78948 0.47279,6.41423 0.47279,10.27536 z"
         inkscape:connector-curvature="0" />
      <path
         id="path8543"
         style="font-size:10px;font-family:fnt0, TheSans, Arial;letter-spacing:0;word-spacing:0;fill:#000000;fill-rule:nonzero;stroke:none"
         d="m 424.47807,262.70741 c -2.83677,2.04878 -7.24947,4.8382 -16.39013,4.8382 -11.66217,0 -15.91724,-6.41418 -15.91724,-17.06773 h 36.08971 v -2.89981 c 0,-25.4046 -11.50459,-33.2687 -24.90033,-33.2687 -15.75971,0 -25.68831,14.40436 -25.68831,33.03233 0,16.81562 8.8254,31.20422 28.84017,31.20422 8.9831,0 15.44457,-2.64765 18.59649,-3.97141 z M 392.1707,241.03786 c 0,-8.22659 3.3095,-16.56351 11.18938,-16.56351 6.77663,0 10.40139,5.54739 10.40139,16.56351 z"
         inkscape:connector-curvature="0" />
      <path
         id="path8545"
         style="font-size:10px;font-family:fnt0, TheSans, Arial;letter-spacing:0;word-spacing:0;fill:#000000;fill-rule:nonzero;stroke:none"
         d="m 441.97134,277.56886 h 14.97173 v -37.74454 c 0,-6.88702 3.62471,-13.19087 10.24381,-13.19087 5.51591,0 8.03741,3.89263 8.03741,11.61488 v 39.32053 h 14.97172 v -37.74454 c 0,-6.88702 3.46719,-13.19087 10.08629,-13.19087 5.67343,0 8.0374,3.89263 8.0374,11.61488 v 39.32053 h 14.97173 v -38.45375 c 0,-15.12935 -4.25513,-24.80574 -17.80849,-24.80574 -9.29818,0 -13.71094,5.56315 -16.70529,9.92861 -1.89113,-3.40409 -5.20069,-9.92861 -15.75965,-9.92861 -8.66789,0 -13.55337,5.90991 -15.75972,10.7639 h -0.31521 c 0,-3.26231 -0.31521,-6.54032 -0.47278,-9.80258 h -14.97172 c 0.3152,2.2852 0.47277,5.67348 0.47277,10.16503 z"
         inkscape:connector-curvature="0" />
      <path
         id="path8547"
         style="font-size:10px;font-family:fnt0, TheSans, Arial;letter-spacing:0;word-spacing:0;fill:#000000;fill-rule:nonzero;stroke:none"
         d="m 582.70547,262.70741 c -2.67908,2.04878 -7.09184,4.8382 -16.39002,4.8382 -11.50459,0 -15.75972,-6.41418 -15.75972,-17.06773 h 36.08971 v -2.89981 c 0,-25.4046 -11.50459,-33.2687 -25.05795,-33.2687 -15.75972,0 -25.53069,14.40436 -25.53069,33.03233 0,16.81562 8.66783,31.20422 28.68266,31.20422 8.98304,0 15.60214,-2.64765 18.754,-3.97141 z m -32.14974,-21.66955 c 0,-8.22659 3.30956,-16.56351 11.03176,-16.56351 6.93432,0 10.55901,5.54739 10.55901,16.56351 z"
         inkscape:connector-curvature="0" />
      <path
         id="path8549"
         style="font-size:10px;font-family:fnt0, TheSans, Arial;letter-spacing:0;word-spacing:0;fill:#000000;fill-rule:nonzero;stroke:none"
         d="m 600.6716,277.56886 h 14.97172 v -36.27884 c 0,-7.99017 2.83677,-14.65657 10.71653,-14.65657 6.14633,0 8.51031,4.01871 8.51031,13.53757 v 37.39784 h 14.97172 v -40.15577 c 0,-12.59199 -4.09754,-23.10372 -18.28127,-23.10372 -10.24381,0 -14.49893,6.77663 -16.54772,10.51173 v 0 h -0.3152 c 0,-3.13618 -0.31516,-6.39849 -0.47278,-9.55041 h -14.02616 c 0.31521,2.78948 0.47285,6.41423 0.47285,10.27536 z"
         inkscape:connector-curvature="0" />
    </g>
  </g>
</svg>
