<?xml version="1.0" encoding="UTF-8" standalone="no"?>
<svg
   xmlns:dc="http://purl.org/dc/elements/1.1/"
   xmlns:cc="http://creativecommons.org/ns#"
   xmlns:rdf="http://www.w3.org/1999/02/22-rdf-syntax-ns#"
   xmlns:svg="http://www.w3.org/2000/svg"
   xmlns="http://www.w3.org/2000/svg"
   xmlns:xlink="http://www.w3.org/1999/xlink"
   xmlns:sodipodi="http://sodipodi.sourceforge.net/DTD/sodipodi-0.dtd"
   xmlns:inkscape="http://www.inkscape.org/namespaces/inkscape"
   viewBox="0 0 1066.9999 1067"
   version="1.1"
   id="svg107"
   sodipodi:docname="Rbb.svg"
   width="1067"
   height="1067"
   inkscape:version="0.92.5 (2060ec1f9f, 2020-04-08)">
  <metadata
     id="metadata113">
    <rdf:RDF>
      <cc:Work
         rdf:about="">
        <dc:format>image/svg+xml</dc:format>
        <dc:type
           rdf:resource="http://purl.org/dc/dcmitype/StillImage" />
        <dc:title></dc:title>
      </cc:Work>
    </rdf:RDF>
  </metadata>
  <defs
     id="defs111">
    <defs
       id="defs5">
      <path
         d="m 659.3,7.6 h 51.9 v 16 h -51.9 z"
         id="SVGID_1_"
         inkscape:connector-curvature="0" />
    </defs>
    <clipPath
       id="SVGID_2_">
      <use
         id="use7"
         overflow="visible"
         xlink:href="#SVGID_1_"
         style="overflow:visible"
         x="0"
         y="0"
         width="100%"
         height="100%" />
    </clipPath>
  </defs>
  <sodipodi:namedview
     pagecolor="#ffffff"
     bordercolor="#666666"
     borderopacity="1"
     objecttolerance="10"
     gridtolerance="10"
     guidetolerance="10"
     inkscape:pageopacity="0"
     inkscape:pageshadow="2"
     inkscape:window-width="1920"
     inkscape:window-height="1019"
     id="namedview109"
     showgrid="false"
     inkscape:lockguides="false"
     fit-margin-top="0"
     fit-margin-left="0"
     fit-margin-right="0"
     fit-margin-bottom="0"
     inkscape:zoom="0.25734266"
     inkscape:cx="804.375"
     inkscape:cy="150"
     inkscape:window-x="0"
     inkscape:window-y="0"
     inkscape:window-maximized="1"
     inkscape:current-layer="svg107" />
  <style
     id="style2">.st0{clip-path:url(#SVGID_2_);} .st1{fill:#FFFFFF;} .st2{clip-path:url(#SVGID_2_);fill:#FFFFFF;} .st3{display:none;} .st4{display:inline;} .st5{display:inline;fill:#540000;} .st6{display:inline;fill:#E5281F;} .st7{fill-rule:evenodd;clip-rule:evenodd;fill:#FFFFFF;}</style>
  <g
     id="von_Agentur"
     class="st3"
     style="display:none"
     transform="translate(-0.8,1043.4)">
    <g
       class="st4"
       id="g27"
       style="display:inline">
      <path
         class="st1"
         d="m 389.2,15.8 c 0,1.8 -0.6,1.8 -1,1.8 h -1.4 c -0.3,0 -1,0 -1,-1.8 v -1.2 c 0,-0.8 0.1,-1.3 0.3,-1.5 0.2,-0.2 0.4,-0.2 0.6,-0.2 h 1.5 c 0.2,0 0.4,0 0.6,0.2 0.2,0.2 0.3,0.7 0.3,1.5 v 1.2 z m -0.9,-5 h -1.4 c -1.3,0 -2.9,0.7 -2.9,3.7 v 1.2 c 0,3.1 1.6,3.7 2.9,3.7 h 1.4 c 1.3,0 2.9,-0.7 2.9,-3.7 v -1.2 c 0,-3 -1.6,-3.7 -2.9,-3.7 z M 373.9,11 v 4.6 L 371.1,11 H 369 v 8.3 h 1.9 v -5 l 3,5 h 1.9 V 11 Z m -11.5,0 v 2 h 1.6 v 4.5 h -1.6 v 1.8 h 5.3 V 17.5 H 366 V 13 h 1.7 v -2 z m 15.1,0 v 8.3 h 2 v -2.8 h 3 v -2 h -3 V 13 h 3.9 v -2 z m 32.2,4.9 c 0,1.3 -0.6,2.1 -1.7,2.1 -1.1,0 -1.7,-0.6 -1.7,-2.3 v -1.1 c 0,-1.7 0.6,-2.3 1.7,-2.3 1.1,0 1.7,0.8 1.7,2.1 z m 0,-7.6 v 3.5 c -0.4,-0.6 -1.2,-1 -2.1,-1 -1.9,0 -3,1.3 -3,3.7 v 1.2 c 0,2.4 1,3.7 3,3.7 0.9,0 1.7,-0.4 2.1,-1 v 0.8 h 1.6 v -11 h -1.6 z m 10.8,7.4 c 0,1.7 -0.6,2.3 -1.7,2.3 -1.1,0 -1.7,-0.6 -1.7,-2.3 v -1.1 c 0,-1.7 0.6,-2.3 1.7,-2.3 1.1,0 1.7,0.6 1.7,2.3 z m -1.3,-4.9 h -0.8 c -1.9,0 -3,1.3 -3,3.7 v 1.2 c 0,2.4 1,3.7 3,3.7 h 0.8 c 1.9,0 3,-1.3 3,-3.7 v -1.2 c 0,-2.4 -1.1,-3.7 -3,-3.7 z m -6.5,-2.5 v 1.5 h 1.6 V 8.3 Z m 0,11 h 1.6 V 11 h -1.6 z M 396.1,11 c -0.8,0 -1.5,0.4 -1.9,1 v -1 h -1.6 v 8.3 h 1.6 v -4.6 c 0,-1.4 0.6,-2.1 1.6,-2.1 H 397 V 11 Z m 5.9,6 c -0.4,0.5 -1.1,1.1 -2,1.1 -1.1,0 -1.6,-0.6 -1.6,-1.4 0,-0.8 0.7,-1.2 1.7,-1.2 0.9,0 1.5,0.1 1.9,0.4 z m -1.5,-6 h -2.4 v 1.6 h 2.4 c 1,0 1.6,0.5 1.6,1.4 v 0.3 C 401.6,14.1 401,14 400.3,14 c -1.9,0 -3.3,0.8 -3.3,2.7 0,2 1.5,2.8 2.9,2.8 0.9,0 1.7,-0.4 2.3,-1 v 0.8 h 1.6 V 13.8 C 403.6,11.9 402.4,11 400.5,11 Z m 29.9,-1.1 v 0.7 c -0.2,0.1 -0.7,0.2 -1.6,0.2 -0.4,0 -0.8,0 -1.4,-0.1 V 9.1 c 1.5,-0.2 2.6,0 3,0.2 -0.1,0.1 0,0.3 0,0.6 z m 0.7,0 c 0,-0.9 -0.2,-1.1 -0.2,-1.1 0,0 -0.8,-0.4 -2.4,-0.4 -0.3,0 -0.7,0 -1.2,0.1 V 6.9 h -0.7 v 4.4 c 0,0 1.1,0.1 2.1,0.1 1.7,0 2.2,-0.4 2.2,-0.4 0,0 0.2,-0.2 0.2,-1.1 z m 4.1,0 v 0.7 c -0.2,0.1 -0.7,0.2 -1.6,0.2 -0.4,0 -0.8,0 -1.4,-0.1 V 9.1 c 1.5,-0.2 2.5,0 3,0.2 -0.1,0.1 0,0.3 0,0.6 z m 0.7,0 c 0,-0.9 -0.2,-1.1 -0.2,-1.1 0,0 -0.8,-0.4 -2.4,-0.4 -0.3,0 -0.7,0 -1.2,0.1 V 6.9 h -0.7 v 4.4 c 0,0 1.1,0.1 2.1,0.1 1.7,0 2.2,-0.4 2.2,-0.4 0,0 0.2,-0.2 0.2,-1.1 z m -9.7,-1.6 c -2.7,0 -3.7,0.6 -3.7,0.6 v 2.4 h 0.7 v -2 c 0.3,-0.1 1.3,-0.4 3,-0.4 z"
         id="path25"
         inkscape:connector-curvature="0"
         style="fill:#ffffff" />
    </g>
    <g
       class="st4"
       id="g31"
       style="display:inline">
      <path
         class="st1"
         d="m 460.8,12 v 4.2 c 0,2 -0.8,2.5 -2,2.5 -1.2,0 -2,-0.5 -2,-2.5 V 12 h -1.9 v 4.2 c 0,2.9 1.3,4.2 4,4.2 2.7,0 4,-1.3 4,-4.2 V 12 Z m 3.5,-1.9 h 1.9 v 10.2 h -1.9 z m 43.5,6.8 c 0,1.3 -0.6,2.1 -1.7,2.1 -1.1,0 -1.7,-0.6 -1.7,-2.3 v -1.1 c 0,-1.7 0.6,-2.3 1.7,-2.3 1.1,0 1.7,0.8 1.7,2.1 z m 0,-7.6 v 3.5 c -0.4,-0.6 -1.2,-1 -2.1,-1 -1.9,0 -2.9,1.3 -2.9,3.7 v 1.2 c 0,2.4 1,3.7 2.9,3.7 0.9,0 1.7,-0.4 2.1,-1 v 0.8 h 1.6 v -11 h -1.6 z m 10.8,7.4 c 0,1.7 -0.6,2.3 -1.7,2.3 -1.1,0 -1.7,-0.6 -1.7,-2.3 v -1.1 c 0,-1.7 0.6,-2.3 1.7,-2.3 1.1,0 1.7,0.6 1.7,2.3 z m -1.3,-4.9 h -0.8 c -1.9,0 -2.9,1.3 -2.9,3.7 v 1.2 c 0,2.4 1,3.7 2.9,3.7 h 0.8 c 1.9,0 2.9,-1.3 2.9,-3.7 v -1.2 c 0,-2.4 -1,-3.7 -2.9,-3.7 z m -6.5,-2.5 v 1.5 h 1.6 V 9.3 Z m 0,11 h 1.6 V 12 h -1.6 z M 494.2,12 c -0.8,0 -1.5,0.4 -1.9,1 v -1 h -1.6 v 8.3 h 1.6 v -4.6 c 0,-1.4 0.6,-2.1 1.6,-2.1 h 1.2 V 12 Z m 6,5.9 c -0.4,0.5 -1.1,1.1 -2,1.1 -1.1,0 -1.6,-0.6 -1.6,-1.4 0,-0.8 0.7,-1.2 1.7,-1.2 0.9,0 1.4,0.1 1.9,0.4 z M 498.6,12 h -2.4 v 1.6 h 2.4 c 1,0 1.6,0.5 1.6,1.4 v 0.3 c -0.5,-0.2 -1.1,-0.3 -1.8,-0.3 -1.9,0 -3.3,0.8 -3.3,2.7 0,2 1.5,2.8 2.9,2.8 0.9,0 1.7,-0.4 2.3,-1 v 0.8 h 1.6 V 14.8 C 501.7,12.9 500.5,12 498.6,12 Z m -19.2,0 v 4.2 c 0,2 -0.8,2.5 -2,2.5 -1.3,0 -2,-0.5 -2,-2.5 V 12 h -1.9 v 4.2 c 0,2.9 1.3,4.2 4,4.2 2.7,0 4,-1.3 4,-4.2 V 12 Z m -9.8,0 v -1.9 h -2 v 7.5 c 0,1.8 0.9,2.6 2.6,2.6 h 1.7 v -1.7 h -1.7 c -0.5,0 -0.7,-0.2 -0.7,-0.9 v -3.9 h 2.4 V 12 Z M 456,22.4 450.4,14.2 c 0.8,-0.1 1.7,-0.2 2.8,-0.3 V 12 c -2.8,0.2 -4.8,0.6 -6.1,0.9 V 9.2 h -2 v 11 h 2 V 15 c 0.3,-0.1 0.6,-0.2 1.2,-0.3 l 5.3,7.8 h 2.4 z m 28.4,-8.8 h 2.2 c 1.1,0 1.3,0.5 1.3,1.4 0,0.9 -0.3,1.3 -1.3,1.3 h -2.2 z m 5.1,1.7 v -0.6 c 0,-1.8 -1.3,-2.6 -2.6,-2.6 h -4.3 v 8.2 h 1.7 v -2.5 h 1.5 l 1.6,2.5 h 2 l -1.7,-2.5 c 0.8,-0.2 1.8,-1 1.8,-2.5 z m 38.8,-4.4 v 0.7 c -0.2,0.1 -0.7,0.2 -1.6,0.2 -0.4,0 -0.8,0 -1.4,-0.1 v -1.6 c 1.5,-0.2 2.5,0 3,0.2 z m 0.7,-0.1 c 0,-0.9 -0.2,-1.1 -0.2,-1.1 0,0 -0.8,-0.4 -2.4,-0.4 -0.3,0 -0.7,0 -1.2,0.1 V 7.9 h -0.7 v 4.4 c 0,0 1.1,0.1 2.1,0.1 1.7,0 2.2,-0.4 2.2,-0.4 0,0 0.2,-0.2 0.2,-1.2 z m 4.2,0.1 v 0.7 c -0.2,0.1 -0.7,0.2 -1.6,0.2 -0.4,0 -0.8,0 -1.4,-0.1 v -1.6 c 1.5,-0.2 2.5,0 3,0.2 -0.1,0.1 0,0.3 0,0.6 z m 0.7,-0.1 c 0,-0.9 -0.2,-1.1 -0.2,-1.1 0,0 -0.8,-0.4 -2.4,-0.4 -0.3,0 -0.7,0 -1.2,0.1 V 7.9 h -0.7 v 4.4 c 0,0 1.1,0.1 2.1,0.1 1.7,0 2.2,-0.4 2.2,-0.4 0,0 0.2,-0.2 0.2,-1.2 z m -9.7,-1.5 c -2.7,0 -3.7,0.6 -3.7,0.6 v 2.4 h 0.7 v -2 c 0.3,-0.1 1.3,-0.4 3,-0.4 z"
         id="path29"
         inkscape:connector-curvature="0"
         style="fill:#ffffff" />
    </g>
    <path
       class="st4"
       d="m 585.4,10.7 v 0.6 c -0.2,0.1 -0.7,0.2 -1.6,0.2 -0.4,0 -0.8,0 -1.3,-0.1 V 9.9 c 1.4,-0.2 2.5,0 2.9,0.2 -0.1,0.1 0,0.4 0,0.6 z m 0.6,0 c 0,-0.9 -0.2,-1.1 -0.2,-1.1 0,0 -0.8,-0.4 -2.3,-0.4 -0.3,0 -0.7,0 -1.1,0.1 V 7.8 h -0.7 v 4.3 c 0,0 1.1,0.1 2,0.1 1.7,0 2.1,-0.4 2.1,-0.4 0,0 0.2,-0.2 0.2,-1.1 m 4.1,0 v 0.6 c -0.2,0.1 -0.7,0.2 -1.6,0.2 -0.4,0 -0.8,0 -1.3,-0.1 V 9.9 c 1.4,-0.2 2.5,0 2.9,0.2 -0.1,0.1 0,0.4 0,0.6 z m 0.7,0 c 0,-0.9 -0.2,-1.1 -0.2,-1.1 0,0 -0.8,-0.4 -2.3,-0.4 -0.3,0 -0.7,0 -1.1,0.1 V 7.8 h -0.7 v 4.3 c 0,0 1.1,0.1 2,0.1 1.7,0 2.1,-0.4 2.1,-0.4 0,0 0.2,-0.2 0.2,-1.1 m -9.5,-1.5 c -2.6,0 -3.7,0.6 -3.7,0.6 v 2.4 h 0.7 v -1.9 c 0.3,-0.1 1.2,-0.4 3,-0.4 z M 566,10.5 c 0.4,0.2 0.9,0 1,-0.4 V 10 c 0,0 0,-0.1 0.1,-0.1 0.1,-0.1 0.1,-0.2 0.2,-0.3 0.1,-0.1 0.1,-0.2 0.2,-0.2 0.2,-0.2 0.2,-0.4 0.2,-0.7 0,-0.4 -0.5,-0.8 -0.9,-0.8 -0.4,0 -0.6,0.3 -0.8,0.6 -0.2,0.2 -0.3,0.5 -0.5,0.8 -0.2,0.4 0.1,1 0.5,1.2 z m 12.5,4.9 c 1.2,-0.1 1.1,1.4 0.2,1.4 -1.6,0.1 -3,0.3 -4.2,0.5 -1.5,0.3 -3,0.7 -4.5,1.4 -0.8,0.4 -1.5,-0.3 -1,-1.1 1,-1.6 2.1,-3.4 3.5,-4.7 -1.1,0.1 -2.1,0.2 -3.2,0.3 -0.7,1.6 -1.4,3.5 -1.7,5.4 -0.2,1.3 -2,1.2 -1.7,-0.2 0.4,-1.7 1,-3.5 1.6,-5 -0.5,0.1 -1.1,0.1 -1.6,0.2 0,0.1 0,0.2 -0.1,0.3 -0.5,1 -0.8,2.1 -1.1,3.2 -0.1,0.5 -0.3,2 -0.7,3 -0.4,0.7 -1.4,0.7 -1.5,-0.1 -0.1,-1.2 0.4,-2.6 0.7,-3.7 0.1,-0.3 0.3,-0.9 0.4,-1.1 -0.4,0.4 -0.9,0.6 -1.3,1 -1,1.2 -1.6,1.6 -2.6,5.7 -0.3,1.2 -2,1.2 -1.7,-0.2 0.6,-3.5 1.3,-6.6 1.8,-7.9 -1.1,0.6 -2.1,1.8 -2.7,3 -0.1,1.2 -0.2,2.3 -0.3,3.4 -0.1,1.4 -0.2,2.7 -0.2,3.9 v 0.8 l -5.1,1.6 -0.2,-0.2 -2.7,-2.3 -0.4,-0.4 0.1,-2.2 0.1,-1.7 0.2,-1.8 v -0.3 h -1.2 l -1.8,-0.5 -0.9,-0.3 0.2,-1.8 0.1,-0.8 0.1,-0.9 0.2,-1.7 2.6,-0.4 h 0.1 l 1.3,0.1 h -0.1 l -1.1,-0.3 -1.2,-0.3 -1.2,-0.3 -1,-0.3 0.3,-1.9 0.1,-0.8 0.1,-0.8 0.2,-1.2 2.1,-2.1 0.3,-0.3 0.2,-0.2 2.8,0.9 2.1,0.7 1.9,0.7 1.8,0.7 c 0,0 0.5,0.2 0.6,0.2 l 1.2,0.5 -0.2,1.1 c -0.2,1.3 -0.4,2.7 -0.6,4.1 -0.1,0.6 -0.2,1.2 -0.2,1.8 1,-1 2.3,-1.8 3.7,-1.8 0.7,0 1.2,0.8 0.8,1.5 -0.3,0.5 -0.5,1.1 -0.7,1.7 1,-1.1 2.1,-1.9 3.3,-2.3 0.3,-0.1 2.4,-0.4 3.5,-0.5 0.4,-0.8 0.8,-1.6 1.3,-2.3 0.4,-0.7 1.7,-0.1 1.3,0.6 -0.3,0.5 -0.5,1 -0.8,1.5 1.7,-0.1 3.5,-0.2 5.2,-0.1 0.8,0 1.2,1.1 0.3,1.3 -1.8,0.5 -2.8,1.9 -4,3.6 0.9,-0.3 2.3,-0.5 3.3,-0.7 1.5,-0.4 2.4,-0.5 3.9,-0.6"
       id="path33"
       inkscape:connector-curvature="0"
       style="display:inline" />
    <path
       class="st5"
       d="m 549.1,16.5 c 0.4,0 0.8,0 1.2,0.1 0.4,0 0.8,0.1 1.2,0.1 -0.1,0.8 -0.2,1.5 -0.2,2.2 -0.1,0.7 -0.1,1.5 -0.2,2.2 -0.1,0.7 -0.1,1.4 -0.2,2.1 0,0.7 -0.1,1.3 -0.1,2 l -2.4,-2.1 c 0,-0.5 0,-1.1 0.1,-1.6 0,-0.6 0.1,-1.1 0.1,-1.7 0,-0.6 0.1,-1.2 0.2,-1.8 0,-0.5 0.1,-1 0.2,-1.5 z m 2,-7.3 c 0.4,0.1 0.9,0.3 1.3,0.4 0,0.3 -0.1,0.5 -0.1,0.8 0,0.3 -0.1,0.5 -0.1,0.8 0,0.3 -0.1,0.5 -0.1,0.8 0,0.3 -0.1,0.5 -0.1,0.8 -0.4,0 -0.8,-0.1 -1.1,-0.1 -0.4,0 -0.8,-0.1 -1.2,-0.1 h -0.2 v -0.2 c 0,-0.2 0.1,-0.4 0.1,-0.6 0,-0.2 0.1,-0.4 0.1,-0.6 0,-0.2 0.1,-0.4 0.1,-0.6 -0.4,-0.1 -0.7,-0.2 -1.1,-0.3 -0.4,-0.1 -0.8,-0.2 -1.1,-0.3 l -1.2,-0.3 -1.2,-0.3 c 0,-0.3 0.1,-0.6 0.1,-0.8 0,-0.3 0.1,-0.6 0.1,-0.8 0,-0.3 0.1,-0.6 0.1,-0.8 0,-0.3 0.1,-0.5 0.1,-0.8 l 1.9,-1.8 c -0.1,0.3 -0.1,0.7 -0.2,1 -0.1,0.3 -0.1,0.7 -0.2,1 -0.1,0.3 -0.1,0.7 -0.2,1 -0.1,0.3 -0.1,0.7 -0.2,1 0.5,0.1 1,0.3 1.4,0.4 0.5,0.1 0.9,0.3 1.4,0.4 0.7,-0.2 1.2,-0.1 1.6,0 z m -5.8,4.2 c 0,-0.3 0.1,-0.6 0.1,-0.8 l 1.8,-0.3 c 0,0.3 -0.1,0.7 -0.1,1 0,0.3 -0.1,0.7 -0.1,1 0,0.3 -0.1,0.7 -0.1,1 0,0.3 -0.1,0.7 -0.1,1 l -1.7,-0.5 c 0,-0.3 0.1,-0.6 0.1,-0.8 0,-0.3 0.1,-0.6 0.1,-0.8 -0.1,-0.3 -0.1,-0.5 0,-0.8"
       id="path35"
       inkscape:connector-curvature="0"
       style="display:inline;fill:#540000" />
    <path
       class="st6"
       d="m 557.3,7 c -0.1,0 -0.1,-0.1 -0.2,-0.1 -0.1,0 -0.2,-0.1 -0.3,-0.1 -0.1,0 -0.2,-0.1 -0.3,-0.1 -0.6,-0.2 -1.2,-0.4 -1.8,-0.7 -0.6,-0.2 -1.3,-0.4 -1.9,-0.7 -0.7,-0.2 -1.4,-0.5 -2,-0.7 -0.7,-0.2 -1.4,-0.5 -2.1,-0.7 -0.1,0.3 -0.1,0.7 -0.2,1 -0.1,0.3 -0.1,0.7 -0.2,1 -0.1,0.3 -0.1,0.7 -0.2,1 -0.1,0.3 -0.1,0.7 -0.2,1 0.5,0.1 1,0.3 1.4,0.4 0.5,0.1 0.9,0.3 1.4,0.4 0.5,0.1 0.9,0.3 1.4,0.4 0.4,0.1 0.9,0.3 1.3,0.4 0,0.3 -0.1,0.5 -0.1,0.8 0,0.3 -0.1,0.5 -0.1,0.8 0,0.3 -0.1,0.5 -0.1,0.8 0,0.3 -0.1,0.5 -0.1,0.8 -0.4,0 -0.8,-0.1 -1.1,-0.1 -0.4,0 -0.8,-0.1 -1.2,-0.1 -0.4,0 -0.8,-0.1 -1.2,-0.1 -0.4,0 -0.8,-0.1 -1.2,-0.1 0,0.3 -0.1,0.7 -0.1,1 0,0.3 -0.1,0.7 -0.1,1 0,0.3 -0.1,0.7 -0.1,1 0,0.3 -0.1,0.7 -0.1,1 0.4,0 0.8,0 1.2,0.1 0.4,0 0.8,0 1.2,0.1 0.4,0 0.8,0 1.2,0.1 0.4,0 0.8,0.1 1.2,0.1 -0.1,0.8 -0.2,1.5 -0.2,2.2 -0.1,0.7 -0.1,1.5 -0.2,2.2 -0.1,0.7 -0.1,1.4 -0.2,2.1 0,0.7 -0.1,1.3 -0.1,2 l 3.7,-1.2 c 0,-1.2 0.1,-2.6 0.2,-4 0.1,-1.4 0.3,-2.9 0.4,-4.3 0.2,-1.5 0.4,-2.9 0.6,-4.4 l 0.6,-4.2 V 7 Z"
       id="path37"
       inkscape:connector-curvature="0"
       style="display:inline;fill:#e5281f" />
    <g
       class="st4"
       id="g41"
       style="display:inline">
      <path
         class="st1"
         d="m 607.1,20 c -2.1,0 -3.5,-1.7 -3.5,-4.2 0,-2.5 1.3,-4.2 3.5,-4.2 1.3,0 2.2,0.5 2.8,1.5 l -1.1,0.7 c -0.4,-0.7 -0.9,-1 -1.7,-1 -1.4,0 -2.2,1.2 -2.2,3 0,1.8 0.8,3 2.2,3 0.9,0 1.4,-0.4 1.8,-1 l 1,0.7 c -0.5,0.9 -1.5,1.5 -2.8,1.5 z m 7.4,0 c -2.1,0 -3.5,-1.7 -3.5,-4.2 0,-2.5 1.3,-4.2 3.5,-4.2 2.1,0 3.5,1.7 3.5,4.2 0,2.4 -1.3,4.2 -3.5,4.2 z m 0,-7.3 c -1.4,0 -2.2,1.2 -2.2,3 0,1.8 0.8,3 2.2,3 1.4,0 2.2,-1.2 2.2,-3 0.1,-1.8 -0.7,-3 -2.2,-3 z"
         id="path39"
         inkscape:connector-curvature="0"
         style="fill:#ffffff" />
    </g>
    <g
       class="st4"
       id="g45"
       style="display:inline">
      <path
         class="st1"
         d="m 622.1,20 c -1.2,0 -2.2,-0.5 -2.9,-1.3 l 0.9,-0.9 c 0.6,0.6 1.4,1 2.1,1 1.1,0 1.7,-0.4 1.7,-1.2 0,-0.6 -0.5,-1 -1.9,-1.4 -1.7,-0.5 -2.6,-1 -2.6,-2.4 0,-1.4 1.2,-2.3 2.7,-2.3 1.1,0 2,0.4 2.7,1.1 l -0.9,0.9 c -0.5,-0.5 -1.1,-0.8 -1.9,-0.8 -1,0 -1.4,0.5 -1.4,1 0,0.6 0.4,0.9 1.8,1.3 1.6,0.5 2.6,1 2.6,2.5 0.1,1.4 -0.8,2.5 -2.9,2.5 z m 11,-0.2 v -4.3 -1.4 c -0.1,0.2 -0.3,0.8 -0.5,1.3 l -2,4.6 -2,-4.6 c -0.2,-0.5 -0.4,-1.1 -0.5,-1.3 v 5.7 h -1.2 v -8.2 h 1.3 L 630,16 c 0.2,0.5 0.5,1.1 0.6,1.4 0.1,-0.3 0.4,-0.9 0.6,-1.4 l 1.8,-4.4 h 1.3 v 8.2 z m 6.4,0.2 c -2.1,0 -3.5,-1.7 -3.5,-4.2 0,-2.5 1.3,-4.2 3.5,-4.2 2.1,0 3.5,1.7 3.5,4.2 0,2.4 -1.4,4.2 -3.5,4.2 z m 0,-7.3 c -1.4,0 -2.2,1.2 -2.2,3 0,1.8 0.8,3 2.2,3 1.4,0 2.2,-1.2 2.2,-3 0,-1.8 -0.7,-3 -2.2,-3 z"
         id="path43"
         inkscape:connector-curvature="0"
         style="fill:#ffffff" />
    </g>
    <g
       class="st4"
       id="g49"
       style="display:inline">
      <path
         class="st1"
         d="m 134.4,25.6 -1.3,-1.9 c -0.1,-0.1 -0.2,-0.3 -0.2,-0.4 v 2.3 h -0.7 v -3.5 h 0.7 l 1.2,1.8 c 0.1,0.1 0.2,0.3 0.2,0.4 V 22 h 0.7 v 3.5 h -0.6 z m 5.2,0 v -3.4 h 2.4 v 0.6 h -1.7 v 0.6 h 1 v 0.7 h -1 V 25 h 1.8 v 0.6 z m 5.4,0 -1.3,-1.9 c -0.1,-0.1 -0.2,-0.3 -0.2,-0.4 v 2.3 h -0.7 v -3.5 h 0.7 l 1.2,1.8 c 0.1,0.1 0.2,0.3 0.2,0.4 V 22 h 0.7 v 3.5 H 145 Z m 6.6,0.1 c -0.8,0 -1.4,-0.6 -1.4,-1.6 v -2 h 0.7 V 24 c 0,0.6 0.3,0.9 0.7,0.9 0.4,0 0.7,-0.3 0.7,-0.9 v -2 h 0.7 v 1.9 c 0,1.2 -0.5,1.8 -1.4,1.8 z m 7.4,0 c -0.9,0 -1.5,-0.7 -1.5,-1.8 0,-1.1 0.6,-1.8 1.5,-1.8 0.7,0 1.1,0.3 1.3,0.9 l -0.7,0.3 c -0.1,-0.3 -0.3,-0.5 -0.7,-0.5 -0.5,0 -0.8,0.5 -0.8,1.1 0,0.6 0.3,1.1 0.8,1.1 0.5,0 0.6,-0.2 0.7,-0.5 H 159 v -0.7 h 1.2 v 0.5 c 0.2,0.9 -0.4,1.4 -1.2,1.4 z m -3.4,-2 h -0.9 v -0.9 h 0.9 c 0.3,0 0.5,0.1 0.5,0.4 0,0.4 -0.2,0.5 -0.5,0.5 z m 1.2,-0.4 c 0,-0.7 -0.5,-1.1 -1.2,-1.1 H 154 v 3.5 h 0.7 v -1.3 h 0.7 l 0.6,1.3 h 0.8 l -0.7,-1.4 c 0.5,-0.2 0.7,-0.5 0.7,-1 z m -27.5,0.9 0.2,-0.6 c 0.1,-0.2 0.1,-0.4 0.2,-0.5 0,0.1 0.1,0.3 0.2,0.5 l 0.2,0.6 z m 0.8,-2 h -0.7 l -1.3,3.5 h 0.7 l 0.3,-0.8 h 1.3 l 0.3,0.8 h 0.8 z M 123,25 h -1 v -0.9 h 0.9 c 0.3,0 0.5,0.1 0.5,0.4 0.1,0.3 -0.1,0.5 -0.4,0.5 z m -1,-2.2 h 0.9 c 0.3,0 0.4,0.1 0.4,0.3 0,0.2 -0.1,0.3 -0.4,0.3 H 122 Z m 1.7,1 c 0.2,-0.1 0.4,-0.4 0.4,-0.7 0,-0.6 -0.4,-0.9 -1.1,-0.9 h -1.6 v 3.5 h 1.6 c 0.7,0 1.2,-0.4 1.2,-1.1 0,-0.5 -0.2,-0.7 -0.5,-0.8 z m 2.8,-0.1 h -0.9 v -0.9 h 0.9 c 0.3,0 0.5,0.1 0.5,0.4 0,0.4 -0.2,0.5 -0.5,0.5 z m 1.2,-0.4 c 0,-0.7 -0.5,-1.1 -1.2,-1.1 h -1.6 v 3.5 h 0.7 v -1.3 h 0.7 l 0.6,1.3 h 0.8 L 127,24.3 c 0.5,-0.2 0.7,-0.5 0.7,-1 z M 137,25 h -0.3 v -2.1 h 0.4 c 0.7,0 1,0.4 1,1.1 0,0.5 -0.4,1 -1.1,1 z m 0.1,-2.8 H 136 v 3.5 h 1 c 0.9,0 1.8,-0.5 1.8,-1.7 0,-1.4 -0.8,-1.8 -1.7,-1.8 z m 11.1,2.8 h -0.9 v -0.9 h 0.9 c 0.3,0 0.5,0.1 0.5,0.4 0,0.3 -0.1,0.5 -0.5,0.5 z m -0.9,-2.2 h 0.9 c 0.3,0 0.4,0.1 0.4,0.3 0,0.2 -0.1,0.3 -0.4,0.3 h -0.9 z m 1.6,1 c 0.2,-0.1 0.4,-0.4 0.4,-0.7 0,-0.6 -0.4,-0.9 -1.1,-0.9 h -1.6 v 3.5 h 1.6 c 0.7,0 1.2,-0.4 1.2,-1.1 0,-0.5 -0.2,-0.7 -0.5,-0.8 z"
         id="path47"
         inkscape:connector-curvature="0"
         style="fill:#ffffff" />
    </g>
    <g
       class="st4"
       id="g53"
       style="display:inline">
      <path
         class="st1"
         d="m 153.9,14.9 c 0,-0.9 0.6,-1.5 1.6,-1.7 0.3,-0.1 0.3,0 0.7,-0.1 0.3,0 0.6,0 0.8,0.1 1,0.2 1.4,0.8 1.4,1.7 z m 6.5,0.1 c 0,-2.1 -1.6,-3.7 -4.3,-3.7 -0.8,0 -1.6,0.2 -2.4,0.5 -1.2,0.7 -1.9,1.8 -1.9,3.8 0,0.7 0.1,1.5 0.4,2 l 0.1,0.2 c 0.3,0.7 0.8,1.3 1.6,1.7 0.5,0.3 1.2,0.4 1.9,0.4 h 4 v -1.7 h -3.5 -0.6 c -1.6,-0.2 -1.9,-1.1 -1.9,-1.7 h 6.5 V 15 Z m -34.3,-0.1 c 0,-0.9 0.6,-1.5 1.6,-1.7 0.3,-0.1 0.3,0 0.7,-0.1 0.3,0 0.6,0 0.8,0.1 1,0.2 1.4,0.8 1.4,1.7 z m 6.5,0 c 0,-2.1 -1.6,-3.7 -4.3,-3.7 -0.8,0 -1.6,0.2 -2.4,0.5 -1.2,0.7 -1.9,1.8 -1.9,3.8 0,0.7 0.1,1.5 0.4,2 l 0.1,0.2 c 0.3,0.7 0.8,1.3 1.6,1.7 0.5,0.3 1.2,0.4 1.9,0.4 h 4 v -1.7 h -3.5 -0.6 C 126.3,17.9 126,17 126,16.4 h 6.5 v -1.5 z m 4.9,-3.6 c -1.8,0 -4.3,0.9 -4.3,4 v 4.6 h 2.1 v -4.6 c 0,-1.4 0.8,-2 2.2,-2 1.3,0 2.2,0.6 2.2,2 v 4.6 h 2.1 v -4.6 c 0,-3.1 -2.4,-4 -4.3,-4 z m -23.2,0 c -1.8,0 -4.3,0.9 -4.3,4 v 4.6 h 2.1 v -4.6 c 0,-1.4 0.8,-2 2.2,-2 1.3,0 2.2,0.6 2.2,2 v 4.6 h 2.1 v -4.6 c 0,-3.1 -2.4,-4 -4.3,-4 z m 32.6,0 c -1.8,0 -4.3,0.9 -4.3,4 v 4.6 h 2.1 v -4.6 c 0,-1.4 0.8,-2 2.2,-2 1.3,0 2.2,0.6 2.2,2 v 4.6 h 2.1 v -4.6 c 0,-3.1 -2.5,-4 -4.3,-4 z m -25.2,4.6 v -2.4 h 1.4 v -1.8 c -1,0 -1.4,-0.3 -1.4,-1.1 V 8.7 h -2.1 v 7.4 c 0,1.9 0.6,3.8 3.7,3.8 h 0.7 v -1.7 c -1.7,0 -2.3,-0.7 -2.3,-2.3 z m -12.5,4 v -4.6 c 0,-3.1 -2.4,-4 -4.2,-4 v 2 c 1.3,0 2.1,0.6 2.1,2 h -5.2 c 0,-1.4 0.8,-2 2.1,-2 v -2 c -1.8,0 -4.2,1 -4.2,4 v 4.6 h 2.1 V 17 h 5.2 v 2.9 z m 59.9,-8.1 v 0.7 c -0.2,0.1 -0.7,0.2 -1.6,0.2 -0.4,0 -0.9,0 -1.4,-0.1 V 11 c 1.5,-0.2 2.6,0 3,0.2 -0.1,0.1 0,0.3 0,0.6 z m 0.7,0 c 0,-1 -0.2,-1.2 -0.2,-1.2 0,0 -0.8,-0.4 -2.4,-0.4 -0.3,0 -0.8,0 -1.2,0.1 V 8.7 h -0.7 v 4.5 c 0,0 1.1,0.1 2.1,0.1 1.8,0 2.2,-0.4 2.2,-0.4 0,0 0.2,-0.2 0.2,-1.1 z m 4.2,0 v 0.7 c -0.2,0.1 -0.7,0.2 -1.6,0.2 -0.4,0 -0.9,0 -1.4,-0.1 V 11 c 1.5,-0.2 2.6,0 3,0.2 z m 0.7,0 c 0,-1 -0.2,-1.2 -0.2,-1.2 0,0 -0.8,-0.4 -2.4,-0.4 -0.4,0 -0.8,0 -1.2,0.1 V 8.7 h -0.7 v 4.5 c 0,0 1.1,0.1 2.1,0.1 1.8,0 2.2,-0.4 2.2,-0.4 0,0 0.2,-0.2 0.2,-1.1 z m -9.9,-1.6 c -2.7,0 -3.8,0.7 -3.8,0.7 v 2.5 h 0.7 v -2 C 162,11.3 163,11 164.8,11 Z"
         id="path51"
         inkscape:connector-curvature="0"
         style="fill:#ffffff" />
    </g>
    <g
       class="st4"
       id="g57"
       style="display:inline">
      <path
         class="st1"
         d="m 201.6,13.3 c -0.4,-0.6 -1.2,-0.9 -2,-0.9 -1.9,0 -2.9,1.2 -2.9,3.6 v 1.2 c 0,2.4 1,3.6 2.9,3.6 0.8,0 1.6,-0.4 2,-0.9 v 0.8 h 1.6 V 9.9 h -1.6 z m 0,4 c 0,1.3 -0.6,2.1 -1.7,2.1 -1,0 -1.7,-0.6 -1.7,-2.2 V 16 c 0,-1.6 0.6,-2.2 1.7,-2.2 1.1,0 1.7,0.7 1.7,2.1 z m 9.2,-4.9 h -0.7 c -1.9,0 -2.9,1.2 -2.9,3.6 v 1.2 c 0,2.4 1,3.6 2.9,3.6 h 0.7 c 1.9,0 2.9,-1.2 2.9,-3.6 V 16 c 0,-2.4 -1,-3.6 -2.9,-3.6 z m 1.3,4.7 c 0,1.6 -0.6,2.2 -1.7,2.2 -1,0 -1.7,-0.6 -1.7,-2.2 V 16 c 0,-1.6 0.6,-2.2 1.7,-2.2 1,0 1.7,0.6 1.7,2.2 z m -7.6,-5.8 h 1.6 V 9.9 h -1.6 z m 0,9.3 h 1.6 v -8 h -1.6 z m -17.9,-4.4 c 0,-1.4 0.6,-2.1 1.6,-2.1 h 1.2 v -1.6 h -0.9 c -0.8,0 -1.5,0.4 -1.8,0.9 V 12.5 H 185 v 8 h 1.6 z m 6.1,-3.6 h -2.4 v 1.6 h 2.3 c 1,0 1.5,0.5 1.5,1.4 v 0.3 c -0.4,-0.2 -1,-0.3 -1.8,-0.3 -1.8,0 -3.2,0.8 -3.2,2.6 0,2 1.5,2.7 2.8,2.7 0.9,0 1.7,-0.4 2.2,-1 v 0.8 h 1.5 v -5.3 c 0.1,-2 -1.1,-2.8 -2.9,-2.8 z m 1.5,5.7 c -0.4,0.5 -1.1,1 -1.9,1 -1,0 -1.5,-0.5 -1.5,-1.3 0,-0.7 0.6,-1.2 1.7,-1.2 0.9,0 1.4,0.1 1.8,0.4 v 1.1 z m 24.6,2.5 H 215 v -8.5 h 3.9 c 1.6,0 2.7,0.8 2.7,2.2 0,0.7 -0.3,1.3 -0.9,1.6 0.7,0.3 1.2,0.9 1.2,1.9 -0.1,1.8 -1.3,2.8 -3.1,2.8 z m 0,-6.9 h -2.2 v 1.6 h 2.2 c 0.7,0 1,-0.3 1,-0.8 0,-0.6 -0.3,-0.8 -1,-0.8 z m 0.1,3.1 h -2.2 v 2.2 h 2.2 c 0.8,0 1.2,-0.4 1.2,-1.1 0,-0.8 -0.4,-1.1 -1.2,-1.1 z m 4.1,3.8 v -8.5 h 5.9 V 14 h -4.2 v 1.4 h 2.4 v 1.7 h -2.4 v 2 h 4.4 v 1.7 z m 12.2,0 -1.5,-3 H 232 v 3 h -1.7 v -8.5 h 3.9 c 1.6,0 2.9,0.9 2.9,2.7 0,1.3 -0.5,2.1 -1.6,2.5 l 1.6,3.3 z m -1,-6.9 H 232 v 2.2 h 2.2 c 0.8,0 1.2,-0.4 1.2,-1.1 0,-0.7 -0.5,-1.1 -1.2,-1.1 z m 4.4,6.9 v -8.5 h 1.7 v 6.8 h 4.2 v 1.7 z M 246.7,9.9 V 5.5 h -0.5 V 10 c -0.6,0.1 -1,0.6 -1,1.2 0,0.7 0.5,1.2 1.2,1.2 0.7,0 1.2,-0.5 1.2,-1.2 0.1,-0.7 -0.4,-1.1 -0.9,-1.3 z m -1.1,10.9 V 13 h 1.7 v 7.8 z m 8.4,0 -3.1,-4.6 c -0.2,-0.3 -0.5,-0.7 -0.6,-1 v 5.6 h -1.7 v -8.5 h 1.6 l 3,4.5 c 0.2,0.3 0.5,0.7 0.6,1 v -5.4 h 1.7 v 8.5 H 254 Z m 10.2,-9.4 V 12 c -0.2,0.1 -0.7,0.2 -1.5,0.2 -0.4,0 -0.8,0 -1.3,-0.1 v -1.5 c 1.4,-0.2 2.5,0 2.8,0.2 z m 0.7,0 c 0,-0.9 -0.2,-1.1 -0.2,-1.1 0,0 -0.8,-0.4 -2.3,-0.4 -0.3,0 -0.7,0 -1.1,0.1 V 8.5 h -0.7 v 4.2 c 0,0 1.1,0.1 2,0.1 1.7,0 2.1,-0.3 2.1,-0.3 0,0 0.2,-0.2 0.2,-1.1 z m 4,0 V 12 c -0.2,0.1 -0.7,0.2 -1.5,0.2 -0.4,0 -0.8,0 -1.3,-0.1 v -1.5 c 1.4,-0.2 2.5,0 2.8,0.2 -0.1,0.1 0,0.4 0,0.6 z m 0.6,0 c 0,-0.9 -0.2,-1.1 -0.2,-1.1 0,0 -0.8,-0.4 -2.3,-0.4 -0.3,0 -0.7,0 -1.1,0.1 V 8.5 h -0.7 v 4.2 c 0,0 1.1,0.1 2,0.1 1.7,0 2.1,-0.3 2.1,-0.3 0,0 0.2,-0.2 0.2,-1.1 z m -9.3,-1.5 c -2.6,0 -3.6,0.6 -3.6,0.6 v 2.3 h 0.7 V 11 c 0.3,-0.1 1.2,-0.4 2.9,-0.4 z"
         id="path55"
         inkscape:connector-curvature="0"
         style="fill:#ffffff" />
    </g>
    <g
       class="st4"
       id="g61"
       style="display:inline">
      <path
         class="st1"
         d="m 321.7,13.9 v 3.7 c 0,1.8 -1,2.6 -2.5,2.6 h -6.5 c -1.4,0 -2.6,-0.9 -2.6,-2.6 v -2.8 c 0,-1.6 1.1,-2.7 2.6,-2.7 h 2.8 c 1.9,0 2.6,1.5 2.6,2.5 v 2.3 h -6.2 v 0.6 c 0,0.6 0.4,0.8 0.8,0.8 h 6.5 c 0.7,0 0.7,-0.2 0.7,-0.7 v -3.7 z m -9.9,0.9 v 0.6 h 4.5 v -0.7 c 0,-0.4 -0.4,-0.8 -0.8,-0.8 h -2.8 c -0.5,0 -0.9,0.3 -0.9,0.9 z m 23.8,0.6 c 1.6,0.3 2.7,0.9 2.7,2.4 0,1.6 -1.1,2.4 -2.7,2.4 h -8.5 v -5.4 c 0,-0.6 -0.3,-0.9 -0.9,-0.9 h -4.5 v -1.8 h 4.5 c 1.8,0 2.8,1.2 2.8,2.7 v 3.5 h 6.6 c 0.8,0 0.9,-0.2 0.9,-0.5 0,-0.3 -0.4,-0.5 -0.9,-0.6 l -2.4,-0.4 c -1.6,-0.3 -2.7,-0.9 -2.7,-2.4 0,-1.6 1.1,-2.4 2.7,-2.4 h 4.3 v 1.8 h -4.3 c -0.8,0 -0.9,0.2 -0.9,0.5 0,0.3 0.4,0.5 0.9,0.6 z m -13.9,-3.3 h -1.9 v -2 h 1.9 z m 25.2,0.4 v 0.6 c -0.2,0.1 -0.7,0.2 -1.5,0.2 -0.4,0 -0.8,0 -1.3,-0.1 v -1.5 c 1.4,-0.2 2.4,0 2.8,0.1 z m 0.7,0 c 0,-0.9 -0.2,-1.1 -0.2,-1.1 0,0 -0.7,-0.4 -2.3,-0.4 -0.3,0 -0.7,0 -1.1,0.1 V 9.6 h -0.7 v 4.2 c 0,0 1.1,0.1 2,0.1 1.7,0 2.1,-0.3 2.1,-0.3 0,0 0.2,-0.2 0.2,-1.1 z m 3.9,0 v 0.6 c -0.2,0.1 -0.7,0.2 -1.5,0.2 -0.4,0 -0.8,0 -1.3,-0.1 v -1.5 c 1.4,-0.2 2.4,0 2.8,0.1 z m 0.7,0 c 0,-0.9 -0.2,-1.1 -0.2,-1.1 0,0 -0.7,-0.4 -2.3,-0.4 -0.3,0 -0.7,0 -1.1,0.1 V 9.6 H 348 v 4.2 c 0,0 1.1,0.1 2,0.1 1.7,0 2.1,-0.3 2.1,-0.3 0,0 0.1,-0.2 0.1,-1.1 z M 342.9,11 c -2.6,0 -3.6,0.6 -3.6,0.6 v 2.3 H 340 V 12 c 0.3,-0.1 1.2,-0.4 2.9,-0.4 z m -46.1,5.7 c 0,1.3 -0.6,2 -1.6,2 -1,0 -1.6,-0.6 -1.6,-2.2 v -1.1 c 0,-1.6 0.6,-2.2 1.6,-2.2 1,0 1.6,0.7 1.6,2 z m 0,-7.2 v 3.4 c -0.4,-0.6 -1.2,-0.9 -2,-0.9 -1.8,0 -2.8,1.2 -2.8,3.6 v 1.2 c 0,2.3 1,3.6 2.8,3.6 0.8,0 1.6,-0.3 2,-0.9 V 20 h 1.6 V 9.5 Z m 10.3,7.1 c 0,1.6 -0.6,2.2 -1.6,2.2 -1,0 -1.6,-0.6 -1.6,-2.2 v -1.1 c 0,-1.6 0.6,-2.2 1.6,-2.2 1,0 1.6,0.6 1.6,2.2 z m -1.2,-4.7 h -0.7 c -1.8,0 -2.8,1.2 -2.8,3.6 v 1.2 c 0,2.3 1,3.6 2.8,3.6 h 0.7 c 1.8,0 2.8,-1.2 2.8,-3.6 v -1.2 c 0,-2.4 -1,-3.6 -2.8,-3.6 z m -6.2,-2.4 v 1.4 h 1.6 V 9.5 Z m 0,10.5 h 1.6 v -7.9 h -1.6 z m -15.9,-7.9 c -0.8,0 -1.4,0.4 -1.8,0.9 v -0.9 h -1.6 V 20 h 1.6 v -4.4 c 0,-1.3 0.6,-2 1.6,-2 h 1.2 v -1.5 z m 5.6,5.7 c -0.4,0.5 -1.1,1 -1.9,1 -1,0 -1.5,-0.5 -1.5,-1.3 0,-0.7 0.6,-1.2 1.6,-1.2 0.8,0 1.4,0.1 1.8,0.3 z M 288,12.1 h -2.3 v 1.5 h 2.3 c 1,0 1.5,0.5 1.5,1.3 v 0.3 c -0.4,-0.2 -1,-0.3 -1.8,-0.3 -1.8,0 -3.2,0.8 -3.2,2.6 0,1.9 1.5,2.7 2.8,2.7 0.9,0 1.6,-0.4 2.2,-1 V 20 h 1.5 v -5.3 c 0,-1.7 -1.2,-2.6 -3,-2.6 z"
         id="path59"
         inkscape:connector-curvature="0"
         style="fill:#ffffff" />
    </g>
  </g>
  <g
     id="g842"
     transform="matrix(0.66324786,0,0,0.66324786,2.6125e-6,-74.698288)">
    <path
       inkscape:connector-curvature="0"
       style="fill:#e31818;fill-opacity:1;stroke-width:18.75"
       id="path18"
       d="m 255,915.125 v 58.125 c 18.75,1.875 35.625,1.875 48.75,1.875 31.875,0 48.75,-3.75 56.25,-5.625 0,-5.625 1.875,-15 1.875,-24.375 0,-9.375 -1.875,-18.75 -1.875,-24.375 -13.125,-5.625 -52.5,-15 -105,-5.625 z m 183.75,0 v 58.125 c 18.75,1.875 35.625,1.875 48.75,1.875 31.875,0 48.75,-3.75 58.125,-5.625 0,-5.625 1.875,-15 1.875,-24.375 0,-9.375 -1.875,-18.75 -1.875,-24.375 -15,-5.625 -52.5,-15 -106.875,-5.625 z"
       class="st1" />
    <path
       sodipodi:nodetypes="ccccccccccccccsccccscsccsccccscsc"
       inkscape:connector-curvature="0"
       style="fill:#e31818;fill-opacity:1;stroke-width:18.75"
       id="path20"
       d="m 0,767 v 300 H 618.75 L 682.5,767 Z m 202.5,144.375 c -61.875,0 -97.5,11.25 -108.75,15 V 999.5 H 67.5 v -90 c 0,0 37.5,-22.5 133.125,-24.375 v 26.25 z m 180,76.875 c 0,0 -16.875,13.125 -78.75,13.125 -33.75,0 -73.125,-5.625 -73.125,-5.625 V 832.625 H 255 V 887 c 15,-1.875 30,-3.75 41.25,-3.75 58.125,0 86.25,16.875 86.25,16.875 0,0 5.625,7.5 5.625,43.125 0,35.625 -5.625,45 -5.625,45 z m 183.75,0 c 0,0 -16.875,13.125 -78.75,13.125 -33.75,0 -73.125,-5.625 -73.125,-5.625 V 832.625 H 438.75 V 887 c 15,-1.875 28.125,-3.75 41.25,-3.75 58.125,0 86.25,16.875 86.25,16.875 0,0 5.625,7.5 5.625,43.125 0,35.625 -5.625,45 -5.625,45 z"
       class="st1" />
    <path
       sodipodi:nodetypes="ccccccccccsccsccssccsccssssccssscscccccssccsscccccssssccssscsccssccssccsscccssccsccssssccsssccccssssccssscccccsccsccssccccssscscccccssszccsss"
       inkscape:connector-curvature="0"
       style="fill:#53565d;fill-opacity:1;stroke-width:18.75"
       id="path20-3"
       d="m 723.75,881.375 h -15 V 902 h 15 v 97.5 h 24.37498 v -95.625 h 33.75 V 883.25 h -31.875 v -3.75 c 0,-18.75 15,-24.375 31.87502,-22.5 v -20.625 h -3.75002 c -26.24998,0 -50.625,11.25 -52.49998,45 z m 61.87498,61.875 c 0,33.75 9.375,56.25 45,56.25 h 45 V 977 h -45 c -16.875,0 -22.5,-9.375 -22.5,-26.25 h 69.375 v -24.375 c 0,-30 -16.875,-46.875 -46.875,-46.875 -26.25,0 -45,16.875 -45,46.875 z M 855,930.125 H 810 V 924.5 c 0,-15 9.375,-22.5 22.5,-22.5 15,0 22.5,7.5 22.5,22.5 z M 943.12498,879.5 c -18.75,0 -26.25,7.5 -28.125,13.125 l -1.875,-11.25 h -16.875 V 999.5 h 24.375 v -73.125 c 0,-15 7.49998,-24.375 24.37498,-24.375 h 18.75 v -22.5 z m 73.12502,1.875 c -9.375,0 -18.75002,5.625 -20.62502,9.375 v -9.375 h -16.875 V 999.5 h 24.37502 v -78.75 c 0,-9.375 7.5,-16.875 16.875,-16.875 h 13.125 c 7.5,0 16.875,7.5 16.875,18.75 V 999.5 h 24.375 v -76.875 c 0,-24.375 -18.75,-41.25 -39.375,-41.25 z m 110.625,0 c -20.625,0 -41.25,9.375 -41.25,33.75 0,22.5 18.75,31.875 39.375,33.75 l 9.375,1.875 c 13.125,1.875 16.875,5.625 16.875,13.125 0,11.25 -5.625,15 -22.5,15 H 1087.5 V 999.5 h 41.25 c 26.25,0 45,-9.375 45,-37.5 0,-20.625 -15,-31.875 -39.375,-35.625 -1.875,0 -5.625,0 -9.375,-1.875 -13.125,-1.875 -18.75,-5.625 -18.75,-11.25 0,-9.375 7.5,-13.125 18.75,-13.125 h 45 v -22.5 z m 60,61.875 c 0,33.75 9.375,56.25 45,56.25 h 45 V 977 h -45 c -16.875,0 -22.5,-9.375 -22.5,-26.25 h 69.375 v -24.375 c 0,-30 -16.875,-46.875 -46.875,-46.875 -26.25,0 -45,16.875 -45,46.875 z m 69.375,-13.125 h -45 V 924.5 c 0,-15 9.375,-22.5 22.5,-22.5 15,0 22.5,7.5 22.5,22.5 z m 39.375,-95.625 v 165 H 1320 v -78.75 c 0,-11.25 7.5,-18.75 16.875,-18.75 H 1350 c 7.5,0 16.875,7.5 16.875,18.75 v 78.75 h 24.375 v -76.875 c 0,-24.375 -18.75,-41.25 -39.375,-41.25 h -9.375 c -11.25,0 -16.875,5.625 -20.625,9.375 v -54.375 h -26.25 z m 108.75,108.75 c 0,33.75 9.375,56.25 45,56.25 h 45 V 977 h -45 c -16.875,0 -22.5,-9.375 -22.5,-26.25 h 69.375 v -24.375 c 0,-30 -16.875,-46.875 -46.875,-46.875 -26.25,0 -45,16.875 -45,46.875 z m 69.375,-13.125 h -45 V 924.5 c 0,-15 9.375,-22.5 22.5,-22.5 15,0 22.5,7.5 22.5,22.5 z m 78.75,-48.75 c -9.375,0 -18.75,5.625 -20.625,9.375 v -9.375 H 1515 V 999.5 h 24.375 v -78.75 c 0,-9.375 7.5,-16.875 16.875,-16.875 h 13.125 c 7.5,0 16.875,7.5 16.875,18.75 V 999.5 h 22.5 v -76.875 c 0,-24.375 -18.75,-41.25 -39.375,-41.25 z"
       class="st1" />
  </g>
</svg>
