<?xml version="1.0" encoding="UTF-8" standalone="no"?>
<!-- Created with Inkscape (http://www.inkscape.org/) -->

<svg
   xmlns:dc="http://purl.org/dc/elements/1.1/"
   xmlns:cc="http://creativecommons.org/ns#"
   xmlns:rdf="http://www.w3.org/1999/02/22-rdf-syntax-ns#"
   xmlns:svg="http://www.w3.org/2000/svg"
   xmlns="http://www.w3.org/2000/svg"
   xmlns:sodipodi="http://sodipodi.sourceforge.net/DTD/sodipodi-0.dtd"
   xmlns:inkscape="http://www.inkscape.org/namespaces/inkscape"
   version="1.0"
   width="1067"
   height="1067"
   id="svg11712"
   sodipodi:docname="SR_Fernsehen.svg"
   inkscape:version="0.92.5 (2060ec1f9f, 2020-04-08)">
  <metadata
     id="metadata11">
    <rdf:RDF>
      <cc:Work
         rdf:about="">
        <dc:format>image/svg+xml</dc:format>
        <dc:type
           rdf:resource="http://purl.org/dc/dcmitype/StillImage" />
        <dc:title></dc:title>
      </cc:Work>
    </rdf:RDF>
  </metadata>
  <sodipodi:namedview
     pagecolor="#ffffff"
     bordercolor="#666666"
     borderopacity="1"
     objecttolerance="10"
     gridtolerance="10"
     guidetolerance="10"
     inkscape:pageopacity="0"
     inkscape:pageshadow="2"
     inkscape:window-width="1920"
     inkscape:window-height="1019"
     id="namedview9"
     showgrid="false"
     inkscape:zoom="0.49511652"
     inkscape:cx="601.91035"
     inkscape:cy="480.35528"
     inkscape:window-x="0"
     inkscape:window-y="0"
     inkscape:window-maximized="1"
     inkscape:current-layer="svg11712" />
  <defs
     id="defs11714" />
  <g
     id="layer1"
     transform="matrix(1.8820694,0,0,1.8820694,-33.343712,99.231008)">
    <g
       transform="matrix(0.7999981,0,0,0.7999981,223.46699,12.850928)"
       id="g11725">
      <path
         d="m 111.38942,100.61912 c 36.7925,0 52.23625,16.42625 52.23625,42.09 0,28.37125 -21.10125,45.77625 -54.285,45.77625 -7.41875,0 -15.60625,-0.865 -19.56625,-0.865 v -85.27125 c 4.6625,-0.9025 13.695,-1.73 21.615,-1.73 M 401.46817,39.14537 317.51442,69.31412 v 20.29375 l 27.89375,-10.1475 v 61.33875 l 56.06,-19.24875 z m -284.02625,-1.775 c -40.75375,0 -77.49625,0.84375 -106.0675,2.54875 v 333.89875 h 78.4 v -130.365 h 3.04875 l 80.44875,130.365 h 95.46625 l -71.80375,-107.3875 c -8.52125,-11.98 -17.1,-24.65625 -26.075,-37.53875 45.16375,-11.0275 74.8975,-47.685 74.8975,-92.5975 0,-70.6775 -48.36625,-98.92375 -128.315,-98.92375 m -237.11625,-2.86625 c -84.9625,0 -134.82375,41.245 -134.82375,103.7 0,111.73 135.18875,83.35625 135.18875,140.15 0,22.90625 -20.52125,34.89875 -49.14375,34.89875 -24.76125,0 -52.4775,-5.6 -71.575,-11.9675 l -4.05,70.66625 c 21.855,5.4125 45.77875,8.1 69.4375,8.1 86.56625,0 139.2375,-48.55875 139.2375,-112.61875 0,-104.5625 -135.23375,-85.31625 -135.23375,-136.645 0,-19.24875 15.1325,-32.99 47.91375,-32.99 19.9,0 41.29,3.6875 60.3375,9.10125 l 4.41375,-66.98 c -21.15375,-3.55875 -43.6575,-5.415 -61.7025,-5.415 m 487.6975,-16.5175 c 39.35,0 71.16625,31.17625 71.16625,70.575 0,38.59625 -31.81625,69.71 -71.16625,69.71 -39.2975,0 -71.12125,-31.11375 -71.12125,-69.71 0,-39.39875 31.82375,-70.575 71.12125,-70.575 m 0,-11.9224999 c -46.065,0 -83.36,36.6824999 -83.36,82.4974999 0,44.9125 37.295,81.7225 83.36,81.7225 46.16625,0 83.45125,-36.81 83.45125,-81.7225 0,-45.815 -37.285,-82.4974999 -83.45125,-82.4974999"
         id="path11279"
         style="fill:#000000;fill-opacity:1;fill-rule:nonzero;stroke:none"
         inkscape:connector-curvature="0" />
      <path
         d="M -257.18871,538.66025 H 270.73254 V 409.4865 h -527.92125 z"
         id="path11281"
         style="fill:#0f2995;fill-opacity:1;fill-rule:nonzero;stroke:none"
         inkscape:connector-curvature="0" />
      <path
         d="m 3.4800446,441.5615 c -15.3912496,0 -24.4062626,7.88126 -24.4062496,19.28125 0,21.09125 26.8750121,15.49498 26.8749996,27.75 0,5.89 -4.82375,8.46877 -11.09375,8.46875 -4.65625,0 -9.7962626,-1.0475 -13.4062496,-2.28125 l -0.75,11.46875 c 3.99,1.045 8.535012,1.53122 13.0937496,1.53125 15.77125,0 25.3749874,-8.83999 25.3750004,-20.90625 0,-20.04625 -26.9687504,-15.75502 -26.9687504,-27.25 0,-4.56125 3.5937375,-7.8125 10.71875,-7.8125 3.895,0 7.8899874,0.67376 11.5000004,1.71875 l 0.65625,-10.8125 c -3.8,-0.665 -7.9837379,-1.15624 -11.5937504,-1.15625 z m -127.8437546,0.65625 c -7.41,0 -13.4025,0.12251 -18.4375,0.40625 v 64.125 h 12.34375 v -26.53125 h 0.46875 l 17.875,26.53125 h 15.281255 l -15.375005,-21.5625 c -1.615,-2.185 -3.41373,-4.65749 -5.21875,-7.03125 9.69125,-1.52125 16.34374,-8.37502 16.34375,-17.875 0,-13.11125 -9.125,-18.06249 -23.28125,-18.0625 z m -113.25,0.40625 v 64.125 h 12.34375 v -27 h 20.71875 v -10.15625 h -20.71875 V 453.0615 h 21.9375 V 442.624 Z m 46.0625,0 v 64.125 h 34.875 v -10.5625 h -22.5 v -17.375 h 21.375 V 468.749 h -21.375 v -15.78125 h 22.5 V 442.624 Z m 105.187505,0 v 64.125 h 11.96875 v -22.90625 c 0,-7.69625 -0.21375,-17.76998 -0.59375,-23.28125 1.9,4.18 4.0875,8.93498 6.9375,13.78125 l 18.8125,32.40625 h 15.96875 v -64.125 h -11.96875 v 19.9375 c 0,7.88625 0.181262,19.28998 0.65625,25.75 -2.375,-4.845 -4.93,-10.185 -7.875,-15.125 l -17.875,-30.5625 z m 117.96875,0 v 64.125 h 34.875 v -10.5625 h -22.53125 v -17.375 h 21.375 V 468.749 h -21.375 v -15.78125 h 22.53125 V 442.624 Z m 48.75,0 v 64.125 h 12.34375 V 478.90525 H 119.85504 V 506.749 h 12.375 v -64.125 h -12.375 v 25.625 H 92.698795 v -25.625 z m 68.968745,0 v 64.125 h 34.84375 v -10.5625 h -22.5 v -17.375 h 21.375 V 468.749 h -21.375 v -15.78125 h 22.5 V 442.624 Z m 48.71875,0 v 64.125 h 11.96875 v -22.90625 c 0,-7.69625 -0.18123,-17.76998 -0.5625,-23.28125 1.9,4.18 4.08627,8.93498 6.9375,13.78125 l 18.8125,32.40625 h 15.96875 v -64.125 h -11.96875 v 19.9375 c 0,7.88625 0.18248,19.28998 0.65625,25.75 -2.37375,-4.845 -4.93126,-10.185 -7.875,-15.125 l -17.875,-30.5625 z m -323.65625,9.6875 c 7.79,0 11.59377,3.04376 11.59375,9.21875 0,5.985 -4.55876,9.78126 -11.96875,9.78125 -1.9,0 -3.61373,-0.0925 -4.46875,-0.1875 v -18.53125 c 1.235,-0.19125 3.03875,-0.28124 4.84375,-0.28125 z"
         id="path11285"
         style="fill:#ffffff;fill-opacity:1;fill-rule:nonzero;stroke:none"
         inkscape:connector-curvature="0" />
    </g>
  </g>
</svg>
