<?xml version="1.0" encoding="UTF-8" standalone="no"?>
<!-- Created with Inkscape (http://www.inkscape.org/) -->

<svg
   xmlns:dc="http://purl.org/dc/elements/1.1/"
   xmlns:cc="http://creativecommons.org/ns#"
   xmlns:rdf="http://www.w3.org/1999/02/22-rdf-syntax-ns#"
   xmlns:svg="http://www.w3.org/2000/svg"
   xmlns="http://www.w3.org/2000/svg"
   xmlns:sodipodi="http://sodipodi.sourceforge.net/DTD/sodipodi-0.dtd"
   xmlns:inkscape="http://www.inkscape.org/namespaces/inkscape"
   version="1.1"
   id="svg2"
   width="1067"
   height="1067"
   viewBox="0 0 1067 1067"
   sodipodi:docname="SWR.svg"
   inkscape:version="0.92.5 (2060ec1f9f, 2020-04-08)">
  <metadata
     id="metadata8">
    <rdf:RDF>
      <cc:Work
         rdf:about="">
        <dc:format>image/svg+xml</dc:format>
        <dc:type
           rdf:resource="http://purl.org/dc/dcmitype/StillImage" />
        <dc:title></dc:title>
      </cc:Work>
    </rdf:RDF>
  </metadata>
  <defs
     id="defs6" />
  <sodipodi:namedview
     pagecolor="#ffffff"
     bordercolor="#666666"
     borderopacity="1"
     objecttolerance="10"
     gridtolerance="10"
     guidetolerance="10"
     inkscape:pageopacity="0"
     inkscape:pageshadow="2"
     inkscape:window-width="1920"
     inkscape:window-height="1019"
     id="namedview4"
     showgrid="false"
     inkscape:zoom="0.38396205"
     inkscape:cx="569.06665"
     inkscape:cy="161.60001"
     inkscape:window-x="0"
     inkscape:window-y="0"
     inkscape:window-maximized="1"
     inkscape:current-layer="svg2" />
  <path
     style="fill:#000000"
     d="m 689.87602,637.19938 0.0352,-47.48688 23.96481,-24.81575 c 13.18065,-13.64866 23.9584,-25.12366 23.95056,-25.5 -0.008,-0.37634 -10.8076,-11.93426 -23.99944,-25.68426 l -23.98518,-25 -5.7e-4,-47.30987 -5.6e-4,-47.30988 10.84984,11.30987 c 55.1206,57.4577 127.15016,133.3583 127.15016,133.98351 0,0.5985 -111.51467,118.10776 -133.62981,140.81326 l -4.37019,4.4868 0.0352,-47.4868 z m 125.00026,0 0.0354,-47.48917 23.96456,-24.73381 c 13.18051,-13.6036 23.96431,-25.0786 23.964,-25.5 -2.7e-4,-0.42112 -10.79386,-12.01591 -23.98571,-25.76591 l -23.98517,-25 -0.0143,-47.45 c -0.008,-27.89018 0.35391,-47.0584 0.87888,-46.50001 0.49122,0.5225 31.36792,32.9 68.61488,71.95001 37.24696,39.05 67.93406,71.53871 68.19355,72.19712 0.35924,0.91146 -97.85208,105.02877 -132.33406,140.29207 l -5.36747,5.4891 0.0354,-47.4891 z m -779.535442,35.9408 c -3.85,-0.4451 -11.446541,-1.5901 -16.881202,-2.5443 l -9.8812011,-1.735 0.6216683,-10.5742 c 0.3419177,-5.8158 0.8873368,-18.2242 1.2120428,-27.5742 0.324706,-9.35 0.757404,-17.54302 0.961551,-18.20673 0.267884,-0.87093 2.355079,-0.53197 7.500297,1.21803 15.521151,5.2791 29.593813,7.8081 43.966844,7.9012 15.555063,0.1008 22.19441,-1.4184 29.183564,-6.67797 C 104.37844,605.65023 105.29719,586.18159 93.869103,575.857 88.239256,570.77077 82.875298,567.92317 64.357294,560.18984 43.923719,551.65655 36.416934,547.75873 27.474673,541.03892 15.633879,532.14095 7.2514112,519.23461 3.2317497,503.71249 c -2.48729021,-9.60479 -2.53094324,-31.36906 -0.081232,-40.5 8.4402413,-31.45978 34.6192943,-52.31855 73.5192593,-58.57818 16.464296,-2.64937 54.002333,-1.42854 68.921063,2.24149 l 2.25,0.5535 v 26.51659 26.5166 l -2.75,-0.58655 c -1.5125,-0.3226 -7.7,-1.71357 -13.75,-3.09103 -35.146302,-8.00212 -59.609518,-3.52125 -66.142858,12.11524 -2.029932,4.85831 -1.731854,14.65752 0.583942,19.19686 4.010867,7.86195 10.504531,12.00957 36.914126,23.57774 10.32174,4.52122 21.66434,9.91814 25.20579,11.99315 25.18926,14.75898 36.29486,33.7588 36.26573,62.0446 -0.0474,46.02088 -31.34123,79.52078 -81.322575,87.05548 -10.193355,1.5366 -35.70553,1.7366 -47.504157,0.3722 z m 170.879672,-6.6777 c -0.39103,-2.0625 -10.43358,-60.89998 -22.31678,-130.74998 l -21.60582,-127.00002 28.92279,-0.26534 c 15.90753,-0.14594 29.13721,-0.0509 29.39928,0.21115 0.47702,0.47702 25.18947,156.80066 25.20998,159.47088 0.006,0.77916 0.23166,1.19588 0.5015,0.92604 0.36645,-0.36645 25.50938,-158.54003 25.50938,-160.47889 0,-0.20011 13.23545,-0.36384 29.4121,-0.36384 h 29.4121 l 0.60933,3.75 c 0.33513,2.0625 5.9837,38.12152 12.55238,80.13116 6.56868,42.00964 12.09372,76.53182 12.27787,76.71598 0.18416,0.18415 5.85525,-35.08737 12.60244,-78.38116 6.74718,-43.29379 12.49282,-79.50348 12.76808,-80.46598 0.46181,-1.61481 2.73554,-1.75 29.43309,-1.75 26.00966,0 28.93261,0.16375 28.93261,1.62081 0,1.47625 -42.25512,251.23769 -43.5862,257.62919 l -0.57271,2.75 h -32.84109 -32.84109 l -0.5672,-2.75 c -1.09128,-5.2909 -27.59171,-162.22865 -27.59171,-163.40038 0,-4.48755 -2.28605,8.09024 -13.47957,74.16421 -6.94025,40.96737 -13.32871,78.42367 -14.19658,83.23617 l -1.57796,8.75 H 239.7591 206.93147 Z M 454.84084,539.29782 v -130.9147 l 7.75,-0.77797 c 13.98835,-1.4042 90.8112,-1.05121 99.75,0.45834 33.81425,5.71041 54.24885,21.65297 62.34036,48.63636 3.66636,12.2265 4.20273,33.06559 1.18697,46.11636 -5.43501,23.52012 -21.12373,41.94784 -43.19789,50.73954 -3.6688,1.46121 -7.1563,2.65675 -7.75,2.65675 -0.59369,0 -1.07944,0.23688 -1.07944,0.52641 0,0.28953 3.97781,6.47703 8.83959,13.75 7.62677,11.40928 55.90017,87.23717 61.41683,96.47357 l 1.94113,3.25 h -35.35686 -35.35685 l -29.87616,-51 C 529.01663,591.1625 514.95777,568.2125 514.2066,568.2125 c -1.13649,0 -1.36576,8.56123 -1.36576,50.99998 v 51 h -29 -29 z m 81.46897,-15.13208 c 21.85496,-3.15841 34.55313,-19.57285 31.55425,-40.78896 -1.73962,-12.30726 -7.57265,-19.88815 -18.64239,-24.22854 -5.17607,-2.02951 -7.67843,-2.31362 -20.88083,-2.3708 l -15,-0.065 -0.26323,33.69468 -0.26324,33.69467 4.76324,0.37508 c 9.25272,0.72861 11.83403,0.68573 18.7322,-0.31117 z m 455.64706,-20.99717 c -21.7467,-5.69525 -38.93583,-24.30761 -43.55747,-47.16392 -1.96331,-9.70953 -1.96172,-14.89229 0.008,-24.58432 4.73877,-23.32251 21.67216,-41.51426 43.94506,-47.21071 9.87014,-2.52436 18.08254,-2.53075 27.89284,-0.0217 10.9527,2.80123 18.9635,7.38863 27.2025,15.57746 24.2836,24.13597 24.2836,63.75824 0,87.89421 -15.1253,15.03324 -35.5305,20.7363 -55.49048,15.50898 z m 25.79083,-8.49586 c 22.9278,-5.40445 39.0931,-26.47696 39.0931,-50.96022 0,-20.28399 -11.0436,-38.47002 -28.6432,-47.16822 -33.43656,-16.52528 -72.35676,8.84615 -72.35676,47.16822 0,13.81122 4.75522,25.97007 14.016,35.83813 13.07569,13.93316 30.1126,19.31274 47.89086,15.12209 z m -27.90686,-34.28338 v -23.03714 l -7.75,2.84689 c -4.2625,1.56578 -8.55743,3.16514 -9.5443,3.55413 -1.6463,0.64892 -1.77002,0.0686 -1.5,-7.03625 l 0.2943,-7.7435 24,-8.90589 c 13.19996,-4.89824 26.36246,-9.78814 29.24996,-10.86645 l 5.25,-1.96057 v 30.76323 30.76323 l -18.75,6.88365 c -10.3125,3.78601 -19.31246,7.08439 -19.99996,7.32973 -0.97674,0.34856 -1.25,-4.59011 -1.25,-22.59106 z"
     id="path817"
     inkscape:connector-curvature="0" />
</svg>
