<?xml version="1.0" encoding="UTF-8" standalone="no"?>
<svg
   xmlns:dc="http://purl.org/dc/elements/1.1/"
   xmlns:cc="http://creativecommons.org/ns#"
   xmlns:rdf="http://www.w3.org/1999/02/22-rdf-syntax-ns#"
   xmlns:svg="http://www.w3.org/2000/svg"
   xmlns="http://www.w3.org/2000/svg"
   xmlns:sodipodi="http://sodipodi.sourceforge.net/DTD/sodipodi-0.dtd"
   xmlns:inkscape="http://www.inkscape.org/namespaces/inkscape"
   version="1.1"
   id="Layer_1"
   x="0px"
   y="0px"
   viewBox="0 0 1067 1067"
   enable-background="new 0 0 290 78"
   xml:space="preserve"
   sodipodi:docname="SAT.1_Gold.svg"
   width="1067"
   height="1067"
   inkscape:version="0.92.5 (2060ec1f9f, 2020-04-08)"><metadata
     id="metadata9"><rdf:RDF><cc:Work
         rdf:about=""><dc:format>image/svg+xml</dc:format><dc:type
           rdf:resource="http://purl.org/dc/dcmitype/StillImage" /><dc:title></dc:title></cc:Work></rdf:RDF></metadata><defs
     id="defs7" /><sodipodi:namedview
     pagecolor="#ffffff"
     bordercolor="#666666"
     borderopacity="1"
     objecttolerance="10"
     gridtolerance="10"
     guidetolerance="10"
     inkscape:pageopacity="0"
     inkscape:pageshadow="2"
     inkscape:window-width="1920"
     inkscape:window-height="1019"
     id="namedview5"
     showgrid="false"
     inkscape:zoom="0.53276839"
     inkscape:cx="318.20151"
     inkscape:cy="411.83958"
     inkscape:window-x="0"
     inkscape:window-y="0"
     inkscape:window-maximized="1"
     inkscape:current-layer="Layer_1" /><path
     d="m 1067,533.5 c 0,-76.10873 -61.6998,-137.80851 -137.80852,-137.80851 v 0 H 822.04813 V 671.30848 H 931.7777 v 0 C 1006.778,669.46117 1067,608.50035 1067,533.5 Z M 929.19148,634.36258 v 0 H 858.99411 V 432.63747 h 70.19737 c 55.41898,0 100.86252,45.0741 100.86252,100.86253 0,55.41898 -45.44354,100.86258 -100.86252,100.86258 z m -129.6804,36.9459 H 606.28359 V 395.69149 h 36.94598 V 634.36258 H 799.51108 Z M 304.06544,515.02701 c 8.86704,-69.45845 68.35007,-123.39958 140.39474,-123.39958 72.04467,0 131.5277,53.94113 140.39474,123.39958 h -37.31545 c -8.86703,-49.13816 -51.72437,-86.4536 -103.07929,-86.4536 -51.35492,0 -94.21226,37.31544 -103.07929,86.4536 z M 585.22438,551.973 c -9.2365,69.45847 -68.35007,123.39958 -140.39474,123.39958 -72.04467,0 -131.5277,-53.9411 -140.7642,-123.39958 h 37.31545 c 8.86703,49.13815 51.72437,86.45358 103.07929,86.45358 51.35492,0 94.58172,-37.31543 103.07929,-86.45358 z m -208.37535,-4.06406 4.80298,-9.60596 c 4.06406,3.32514 8.49757,4.43352 13.67001,4.43352 3.32514,0 5.17244,-0.36946 5.17244,-1.8473 0,-1.10838 -1.10838,-1.47784 -7.3892,-2.21676 -8.12811,-1.47784 -15.51731,-2.58622 -15.51731,-11.08379 0,-8.49758 7.01974,-12.9311 16.62569,-12.9311 8.86704,0 14.40894,3.6946 16.25624,8.49757 l -9.2365,4.43353 c -1.10838,-2.58622 -4.06406,-3.32515 -7.3892,-3.32515 -4.06406,0 -4.80298,1.10839 -4.80298,2.21677 0,1.10838 1.10838,1.47784 7.01974,2.21676 8.12812,1.10838 15.51731,2.95567 15.51731,11.82271 0,8.49758 -7.38919,12.56164 -17.73407,12.56164 -6.65027,-0.36946 -12.19217,-1.8473 -16.99515,-5.17244 z m 78.69495,3.6946 v 0.36946 h -12.56164 l -1.8473,-4.80298 h -14.03947 l -1.8473,4.80298 h -12.56164 v -0.36946 l 15.14786,-36.57653 h 12.93109 z m -17.73408,-14.03948 -3.6946,-10.34487 -3.69459,10.34487 z m 47.29086,-11.82271 h -11.08379 v 26.23164 h -11.45326 v -26.23164 h -11.08379 v -10.71434 h 33.62084 z m -3.32514,20.68975 c 0,-3.69461 2.95568,-6.28082 6.65028,-6.28082 3.6946,0 6.65028,2.95568 6.65028,6.28082 0,3.6946 -2.95568,6.28081 -6.65028,6.28081 -3.6946,0 -6.65028,-2.58622 -6.65028,-6.28081 z m 31.77355,-31.40409 V 551.973 h -11.45326 v -26.23165 h -7.01973 v -10.71434 h 8.86703 z m -230.9124,0 c 0.73892,5.91135 1.10838,12.19218 1.10838,18.47299 0,78.32547 -63.54709,141.87258 -141.87257,141.87258 C 63.547091,675.37258 0,611.82547 0,533.5 0,455.17452 63.547091,391.62743 141.87258,391.62743 c 58.74411,0 108.99065,35.46813 130.41932,86.45359 h -41.3795 c -18.473,-29.55679 -51.35492,-49.50762 -89.03982,-49.50762 -58.005198,0 -104.926597,46.9214 -104.926597,104.9266 0,58.00519 46.921399,104.92657 104.926597,104.92657 51.72437,0 94.58171,-37.31543 103.07929,-86.45358 H 178.07964 V 515.027 Z"
     id="path2"
     inkscape:connector-curvature="0"
     style="fill:#bba880;stroke-width:3.69459844" /></svg>