<?xml version="1.0" encoding="UTF-8" standalone="no"?>
<!-- Created with Inkscape (http://www.inkscape.org/) -->

<svg
   xmlns:dc="http://purl.org/dc/elements/1.1/"
   xmlns:cc="http://creativecommons.org/ns#"
   xmlns:rdf="http://www.w3.org/1999/02/22-rdf-syntax-ns#"
   xmlns:svg="http://www.w3.org/2000/svg"
   xmlns="http://www.w3.org/2000/svg"
   xmlns:sodipodi="http://sodipodi.sourceforge.net/DTD/sodipodi-0.dtd"
   xmlns:inkscape="http://www.inkscape.org/namespaces/inkscape"
   width="1455.6224"
   height="1455.6224"
   id="svg2"
   version="1.1"
   inkscape:version="0.92.5 (2060ec1f9f, 2020-04-08)"
   sodipodi:docname="de-TELE5.svg">
  <defs
     id="defs4" />
  <sodipodi:namedview
     id="base"
     pagecolor="#ffffff"
     bordercolor="#666666"
     borderopacity="1.0"
     inkscape:pageopacity="0.0"
     inkscape:pageshadow="2"
     inkscape:zoom="0.35"
     inkscape:cx="-157.92857"
     inkscape:cy="718.99482"
     inkscape:document-units="px"
     inkscape:current-layer="layer1"
     showgrid="false"
     fit-margin-top="0"
     fit-margin-left="0"
     fit-margin-right="0"
     fit-margin-bottom="0"
     inkscape:window-width="1920"
     inkscape:window-height="1019"
     inkscape:window-x="0"
     inkscape:window-y="0"
     inkscape:window-maximized="1" />
  <metadata
     id="metadata7">
    <rdf:RDF>
      <cc:Work
         rdf:about="">
        <dc:format>image/svg+xml</dc:format>
        <dc:type
           rdf:resource="http://purl.org/dc/dcmitype/StillImage" />
        <dc:title />
      </cc:Work>
    </rdf:RDF>
  </metadata>
  <g
     inkscape:label="Ebene 1"
     inkscape:groupmode="layer"
     id="layer1"
     transform="translate(392.07143,998.55115)">
    <g
       id="g822"
       transform="matrix(0.92919312,0,0,0.92919312,-27.761354,-547.47584)">
      <path
         inkscape:connector-curvature="0"
         id="path3072"
         d="m -306.07143,373.57648 v -78 h -43 -43 v -78.5 -78.5 h 164.5 164.500003 v 78.5 78.5 h -44.500003 -44.5 v 78 78 h -77 -77 z"
         style="fill:#e3002b;fill-opacity:1" />
      <path
         inkscape:connector-curvature="0"
         id="path3070"
         d="m -37.071427,295.07648 v -156.5 h 149.499997 149.5 v 53 53 h -71.52988 -71.52987 l 0.27987,12.75 0.27988,12.75 71.25,0.25666 71.25,0.25667 v 24.99333 24.99334 h -71.5 -71.5 v 12.5 12.5 h 71.5 71.5 v 53 53 h -149.5 -149.499997 z"
         style="fill:#e3002b;fill-opacity:1" />
      <path
         inkscape:connector-curvature="0"
         id="path3068"
         d="m 288.92857,295.07648 v -156.5 h 78 78 v 78.5 78.5 h 64 64 v 78 78 h -142 -142 z"
         style="fill:#e3002b;fill-opacity:1" />
      <path
         inkscape:connector-curvature="0"
         id="path3066"
         d="m 600.92857,295.07648 v -156.5 h 149.49997 149.5 v 53 53 h -71.5299 -71.5299 l 0.2799,12.75 0.2799,12.75 71.25,0.25666 71.25,0.25667 v 24.99333 24.99334 h -71.5 -71.5 v 12.5 12.5 h 71.5 71.5 v 53 53 h -149.5 -149.49997 z"
         style="fill:#e3002b;fill-opacity:1" />
      <path
         inkscape:connector-curvature="0"
         d="m 927.92854,229.07648 v -90.5 h 116.49996 116.5 v 53.5 53.5 h -53 -53 v 37 37 h -63.49996 -63.5 z m 101.26506,227.53105 c -21.9389,-2.49737 -43.67236,-10.65824 -62.22196,-23.36422 -15.4947,-10.61349 -33.1816,-31.1122 -42.1166,-48.81247 -2.6962,-5.34105 -2.7866,-5.85791 -1.1739,-6.70957 0.9611,-0.50751 8.4974,-3.8453 16.7474,-7.41732 8.25,-3.57202 38.175,-16.61781 66.49996,-28.99064 28.325,-12.37283 74.45,-32.50274 102.5,-44.73312 28.05,-12.23039 51.7556,-22.63334 52.6792,-23.11767 1.3949,-0.73153 2.0468,0.0923 3.8509,4.86668 20.8479,55.16994 2.4648,117.97193 -44.7875,153.00738 -15.2958,11.34114 -36.4938,20.53157 -54.6524,23.69463 -10.6675,1.85819 -28.3053,2.60307 -37.3251,1.57632 z"
         style="fill:#e3002b;fill-opacity:1"
         id="path3062" />
    </g>
  </g>
</svg>
