<?xml version="1.0" encoding="UTF-8" standalone="no"?>
<svg
   xmlns:dc="http://purl.org/dc/elements/1.1/"
   xmlns:cc="http://creativecommons.org/ns#"
   xmlns:rdf="http://www.w3.org/1999/02/22-rdf-syntax-ns#"
   xmlns:svg="http://www.w3.org/2000/svg"
   xmlns="http://www.w3.org/2000/svg"
   xmlns:sodipodi="http://sodipodi.sourceforge.net/DTD/sodipodi-0.dtd"
   xmlns:inkscape="http://www.inkscape.org/namespaces/inkscape"
   width="1067"
   height="1067"
   viewBox="0 0 1067 1067"
   version="1.1"
   id="svg4"
   sodipodi:docname="Welt.svg"
   inkscape:version="0.92.5 (2060ec1f9f, 2020-04-08)">
  <metadata
     id="metadata10">
    <rdf:RDF>
      <cc:Work
         rdf:about="">
        <dc:format>image/svg+xml</dc:format>
        <dc:type
           rdf:resource="http://purl.org/dc/dcmitype/StillImage" />
        <dc:title></dc:title>
      </cc:Work>
    </rdf:RDF>
  </metadata>
  <defs
     id="defs8" />
  <sodipodi:namedview
     pagecolor="#ffffff"
     bordercolor="#666666"
     borderopacity="1"
     objecttolerance="10"
     gridtolerance="10"
     guidetolerance="10"
     inkscape:pageopacity="0"
     inkscape:pageshadow="2"
     inkscape:window-width="1920"
     inkscape:window-height="1019"
     id="namedview6"
     showgrid="false"
     inkscape:zoom="0.68685924"
     inkscape:cx="438.57253"
     inkscape:cy="523.40543"
     inkscape:window-x="0"
     inkscape:window-y="0"
     inkscape:window-maximized="1"
     inkscape:current-layer="svg4" />
  <path
     d="M 923.599,458.43471 H 845.52261 V 400.19338 H 1067 v 58.24133 h -77.88304 v 208.3766 H 923.599 Z M 702.71582,400.1981 h 65.51796 v 208.36251 h 113.95965 v 58.2413 H 702.71582 Z m -46.72983,232.97001 -0.83943,0.7781 c -28.67737,26.3619 -63.47597,38.6421 -109.50313,38.6421 -81.09928,0 -135.59147,-55.5674 -135.59147,-138.2701 0,-83.67888 53.08214,-139.90652 132.08285,-139.90652 75.66185,0 126.67842,55.77963 126.95195,138.80771 0,8.18209 -0.55176,17.95342 -1.35818,23.94261 H 480.75741 l 0.63664,3.09363 c 8.02646,35.50128 31.64839,54.26107 68.30506,54.26107 23.78698,0 46.39499,-8.46028 65.36233,-24.46603 l 0.84886,-0.71682 40.07569,43.82955 z m -55.64758,-124.42421 -0.66023,-3.04175 c -7.43697,-34.28458 -27.52669,-52.40777 -58.09042,-52.40777 -31.87003,0 -52.61054,18.12319 -59.97678,52.4172 l -0.64607,3.03232 h 119.37821 z m -307.2124,83.27331 -52.2993,-191.81911 h -70.6347 L 117.89743,591.63051 68.083406,400.1981 H 0 L 75.279864,666.81131 H 154.33245 L 205.03777,494.3557 255.7431,666.81131 h 79.05258 L 410.07083,400.1981 h -67.13551 z"
     id="path2"
     style="fill:#003a5a;fill-opacity:1;stroke-width:4.71589708"
     inkscape:connector-curvature="0" />
</svg>
