<?xml version="1.0" encoding="UTF-8" standalone="no"?>
<!-- Generator: Adobe Illustrator 18.1.1, SVG Export Plug-In . SVG Version: 6.00 Build 0)  -->

<svg
   xmlns:dc="http://purl.org/dc/elements/1.1/"
   xmlns:cc="http://creativecommons.org/ns#"
   xmlns:rdf="http://www.w3.org/1999/02/22-rdf-syntax-ns#"
   xmlns:svg="http://www.w3.org/2000/svg"
   xmlns="http://www.w3.org/2000/svg"
   xmlns:xlink="http://www.w3.org/1999/xlink"
   xmlns:sodipodi="http://sodipodi.sourceforge.net/DTD/sodipodi-0.dtd"
   xmlns:inkscape="http://www.inkscape.org/namespaces/inkscape"
   version="1.1"
   id="Ebene_1"
   x="0px"
   y="0px"
   viewBox="0 0 1067 1067"
   enable-background="new 0 0 1920 1080"
   xml:space="preserve"
   sodipodi:docname="ZDFneo.svg"
   width="1067"
   height="1067"
   inkscape:version="0.92.5 (2060ec1f9f, 2020-04-08)"><metadata
   id="metadata33"><rdf:RDF><cc:Work
       rdf:about=""><dc:format>image/svg+xml</dc:format><dc:type
         rdf:resource="http://purl.org/dc/dcmitype/StillImage" /><dc:title></dc:title></cc:Work></rdf:RDF></metadata><defs
   id="defs31" /><sodipodi:namedview
   pagecolor="#ffffff"
   bordercolor="#666666"
   borderopacity="1"
   objecttolerance="10"
   gridtolerance="10"
   guidetolerance="10"
   inkscape:pageopacity="0"
   inkscape:pageshadow="2"
   inkscape:window-width="1920"
   inkscape:window-height="1019"
   id="namedview29"
   showgrid="false"
   inkscape:zoom="0.21851852"
   inkscape:cx="960"
   inkscape:cy="540"
   inkscape:window-x="0"
   inkscape:window-y="0"
   inkscape:window-maximized="1"
   inkscape:current-layer="Ebene_1" />
<g
   id="g26"
   transform="matrix(0.84454646,0,0,0.84454646,-270.17041,80.231915)">
	<g
   id="g24">
		<defs
   id="defs3">
			<rect
   id="SVGID_1_"
   x="-448"
   y="-419.70001"
   width="2799.2"
   height="1979.2" />
		</defs>
		<clipPath
   id="SVGID_2_">
			<use
   xlink:href="#SVGID_1_"
   overflow="visible"
   id="use5"
   style="overflow:visible"
   x="0"
   y="0"
   width="100%"
   height="100%" />
		</clipPath>
		<polygon
   clip-path="url(#SVGID_2_)"
   points="1583.3,170.9 1004.8,293.9 1004.8,4.7 319.9,150.3 319.9,1068.7 898.4,945.7 898.4,1068.7 1583.3,923.1 "
   id="polygon8"
   style="fill:#191919" />
		<g
   clip-path="url(#SVGID_2_)"
   id="g22">
			<defs
   id="defs11">
				<rect
   id="SVGID_3_"
   x="-448"
   y="-419.70001"
   width="2799.2"
   height="1979.2" />
			</defs>
			<clipPath
   id="SVGID_4_">
				<use
   xlink:href="#SVGID_3_"
   overflow="visible"
   id="use13"
   style="overflow:visible"
   x="0"
   y="0"
   width="100%"
   height="100%" />
			</clipPath>
			<path
   clip-path="url(#SVGID_4_)"
   d="m 769.1,592.5 v 231.3 l -147,31.3 V 662.7 C 622,647.2 615,641.5 600.8,644.6 l -13,2.8 V 862.5 L 440.9,893.7 V 678.5 L 415,684 V 575.2 l 115.9,-24.6 c 25.4,-5.4 37,6.4 40.2,33.6 l 1.9,-0.4 c 34.1,-46.8 87.4,-67.2 113.5,-72.7 43.8,-9.4 82.6,7.6 82.6,81.4 m 348.5,24.4 -183.5,39 c 4.7,31.4 16.7,39.2 37.8,34.7 16.1,-3.4 34,-13.7 48.5,-31 l 83.7,-17.8 v 71.4 C 1065,751.9 1014.5,778.1 956.9,790.3 855.2,812 792,761.3 791.1,656.5 c -0.6,-100.3 57,-179.9 163.6,-202.6 109.1,-23.1 173.8,46.7 162.9,163 m -184.4,-17.1 50.2,-10.7 c -2.4,-26.7 -10.7,-37.9 -24.9,-34.9 -13.6,2.9 -22.4,16.4 -25.3,45.6 M 1476,511 c 0.2,101.7 -58.6,181.5 -168.3,204.8 -104.7,22.3 -169.8,-28 -169.5,-133 0.7,-100.6 59.5,-180.4 169.2,-203.7 98.5,-21 168.4,33.4 168.6,131.9 m -169.2,-30.8 c -17.4,3.7 -26.3,25.7 -26.5,76.3 -0.3,50.6 9.2,70.6 26.5,66.9 16.7,-3.6 25.3,-27.4 25.5,-78 0.3,-50.6 -8.7,-68.8 -25.5,-65.2"
   id="path16"
   inkscape:connector-curvature="0"
   style="fill:#ffffff" />
			<path
   clip-path="url(#SVGID_4_)"
   d="m 415.5,487.3 v -37.9 l 74,-112.7 -41.5,8.8 -0.8,19.1 -31.8,6.8 v -56.1 l 129,-27.4 v 37.6 l -73.4,112.9 44.1,-9.4 1.2,-21.9 34.9,-7.4 v 58.8 z M 725.1,373.4 c 0,8.2 2.6,10.5 10.1,8.9 l 6.9,-1.5 v 37.1 l -33.3,7.1 c -16.1,3.4 -24.1,-1.8 -25.1,-16.3 l -1.8,-0.3 c -7.1,16.7 -20.9,29.5 -45.3,34.7 -31.9,6.8 -64.8,-8.9 -65,-72.5 0.1,-60.9 21.3,-95.7 65.1,-105 16.5,-3.5 31.3,1.6 38.4,12.1 l 1.3,-0.3 v -59.2 l -15.6,3.3 V 184.7 L 725,171.1 v 202.3 z m -48.4,-23.8 c 0.1,-33.4 -7.8,-49.6 -23.8,-48.9 -18.7,1.2 -29.8,23.2 -29.9,58.3 0,29.2 8.4,44.3 25.4,43.4 18.4,-0.8 28.4,-19.8 28.3,-52.8 M 780.6,237.8 v -27.9 c 0,-38.9 15.3,-56.9 58.1,-66 22.4,-4.8 42.5,-3.9 47.7,-3.6 v 46.1 l -32.8,7 v -15.8 c -4.1,0.2 -7.1,0.2 -12.1,1.2 -10.2,2.2 -15.3,8.4 -15.3,19.8 V 228 l 41.1,-8.7 v 37.2 l -38.5,8.2 v 97.7 l 24.5,-5.2 v 37.2 l -89.5,19 v -37.2 l 16.8,-3.6 -0.1,-97.7 -17.4,3.7 v -37.2 z"
   id="path18"
   inkscape:connector-curvature="0"
   style="fill:#ffffff" />
			<polygon
   clip-path="url(#SVGID_4_)"
   points="1462.8,757.2 1154.6,822.7 1154.6,879.7 1462.8,814.2 "
   id="polygon20"
   style="fill:#ffffff" />
		</g>
	</g>
</g>
</svg>