<?xml version="1.0" encoding="UTF-8" standalone="no"?>
<!-- Created with Inkscape (http://www.inkscape.org/) -->

<svg
   xmlns:dc="http://purl.org/dc/elements/1.1/"
   xmlns:cc="http://creativecommons.org/ns#"
   xmlns:rdf="http://www.w3.org/1999/02/22-rdf-syntax-ns#"
   xmlns:svg="http://www.w3.org/2000/svg"
   xmlns="http://www.w3.org/2000/svg"
   xmlns:sodipodi="http://sodipodi.sourceforge.net/DTD/sodipodi-0.dtd"
   xmlns:inkscape="http://www.inkscape.org/namespaces/inkscape"
   version="1.1"
   id="svg2"
   width="1066.6667"
   height="1066.6667"
   viewBox="0 0 1066.6667 1066.6667"
   sodipodi:docname="de-ZDF_HD.svg"
   inkscape:version="0.92.5 (2060ec1f9f, 2020-04-08)">
  <metadata
     id="metadata8">
    <rdf:RDF>
      <cc:Work
         rdf:about="">
        <dc:format>image/svg+xml</dc:format>
        <dc:type
           rdf:resource="http://purl.org/dc/dcmitype/StillImage" />
        <dc:title />
      </cc:Work>
    </rdf:RDF>
  </metadata>
  <defs
     id="defs6" />
  <sodipodi:namedview
     pagecolor="#ffffff"
     bordercolor="#666666"
     borderopacity="1"
     objecttolerance="10"
     gridtolerance="10"
     guidetolerance="10"
     inkscape:pageopacity="0"
     inkscape:pageshadow="2"
     inkscape:window-width="1920"
     inkscape:window-height="1019"
     id="namedview4"
     showgrid="false"
     inkscape:zoom="0.22124998"
     inkscape:cx="-725.4238"
     inkscape:cy="533.33336"
     inkscape:window-x="0"
     inkscape:window-y="0"
     inkscape:window-maximized="1"
     inkscape:current-layer="svg2" />
  <g
     id="g817"
     transform="translate(0.17762308,0.45714257)">
    <path
       style="fill:#f8cda8;stroke-width:1.33333337"
       d="M 188.7069,713.97058 C 132.27931,704.79101 82.942953,668.92291 55.319682,616.99655 49.000598,605.1179 41.219731,583.05678 38.731748,569.9647 c -6.173523,-32.48584 -3.40935,-69.9487 7.364984,-99.81766 9.789014,-27.13743 29.690614,-56.38944 50.569938,-74.32933 32.1114,-27.59069 66.52746,-41.98551 107.93875,-45.14635 70.74424,-5.39979 134.46492,27.85729 172.07778,89.81077 l 6.34375,10.44899 27.48653,-0.90244 c 33.18141,-1.08941 63.94503,0.75832 76.33367,4.58479 19.3804,5.98598 33.4624,19.69984 40.44388,39.38655 0.71353,2.01204 1.67176,0.17525 3.90341,-7.48227 3.70059,-12.6979 9.94786,-21.4522 19.47224,-27.28648 13.02302,-7.9774 18.37604,-8.64547 66.10673,-8.2503 l 42.55994,0.35238 v 14.66666 14.66667 l -37.33333,0.68372 c -35.71208,0.65403 -37.5843,0.81692 -43.11243,3.75112 -7.61979,4.0444 -11.87644,12.99912 -12.46937,26.23183 l -0.4182,9.33333 40.66667,0.66667 40.66666,0.66667 0.37778,13.46653 c 0.28413,10.12904 -0.074,13.84149 -1.44527,14.97951 -1.24601,1.0341 -14.23701,1.62496 -41.04444,1.8668 l -39.2214,0.35382 -0.66667,31.33334 -0.66667,31.33333 -16.80489,0.37171 c -12.81556,0.28348 -17.15841,-0.0543 -18.29412,-1.42269 -0.89547,-1.07898 -1.63776,-9.20127 -1.86177,-20.37172 l -0.37255,-18.5773 -3.25343,6.66667 c -4.047,8.29279 -17.20624,21.51329 -26.17972,26.3016 -13.39169,7.14589 -18.33395,7.697 -69.18032,7.71423 l -46.71987,0.0159 -4.2871,7.80638 c -12.33279,22.45672 -33.45174,45.15264 -56.12017,60.3107 -22.07102,14.75861 -38.03268,21.86334 -61.59273,27.4157 -17.99594,4.24107 -52.79426,5.41551 -71.29311,2.40615 z m 189.67649,-112.97056 -0.38338,-12.33333 -50,-0.66667 -50,-0.66667 -0.37225,-10 c -0.50102,-13.45917 2.928,-20.62224 12.03438,-25.13928 5.77436,-2.86424 8.34416,-3.17711 29.33334,-3.57123 23.06417,-0.43308 31.76986,-1.87145 41.41752,-6.84312 6.44952,-3.32358 14.31767,-11.33921 18.02392,-18.36176 3.28988,-6.2336 3.56309,-7.98028 3.56309,-22.77932 0,-15.43346 -0.16297,-16.35909 -4.39352,-24.95253 -4.8898,-9.93262 -10.97765,-15.74072 -20.19847,-19.27034 -5.32238,-2.03734 -12.5557,-2.38101 -58.40801,-2.7751 l -52.33334,-0.44979 v 12.73789 12.73791 h 41.09134 c 46.90993,0 51.75151,0.71883 58.78317,8.72746 3.71255,4.22836 4.1255,5.57178 4.1255,13.4215 0,7.80648 -0.39808,9.12091 -3.78931,12.51215 -5.32672,5.32672 -10.75509,6.40687 -39.54403,7.86856 -27.9296,1.41808 -35.37785,3.02411 -45.52379,9.81609 -4.99184,3.3417 -7.5146,6.40412 -11.13206,13.51342 l -4.67748,9.19252 -0.42499,29.80748 -0.42499,29.80749 h 66.80837 66.80835 z m 92.94556,-18.29922 c 8.46632,-2.66026 15.84532,-11.08037 19.31143,-22.03609 2.44077,-7.71487 2.9522,-12.44955 2.9522,-27.33136 0,-21.62813 -2.85891,-32.96649 -10.4236,-41.33969 -7.78842,-8.62086 -13.44363,-9.99364 -41.16897,-9.99364 h -24 l -0.34989,49.99526 c -0.19244,27.49739 -0.0389,50.80562 0.34113,51.79604 0.89823,2.34072 45.30734,1.43276 53.3377,-1.09052 z m 216.09964,36.53731 c -1.8596,-1.8596 -2.09524,-11.37085 -2.09524,-84.57143 0,-73.20057 0.23564,-82.71183 2.09524,-84.57143 1.78516,-1.78516 6.70419,-2.09524 33.2381,-2.09524 26.53391,0 31.45293,0.31008 33.23809,2.09524 1.77736,1.77736 2.09524,6.53103 2.09524,31.33334 v 29.23809 h 34.66667 34.66667 v -29.23809 c 0,-24.80231 0.31788,-29.55598 2.09524,-31.33334 3.01461,-3.01461 83.8191,-3.0328 109.67219,-0.0247 55.87623,6.50142 82.85101,25.13688 91.57281,63.26279 4.8068,21.01254 1.3267,47.49448 -8.4065,63.96878 -15.7823,26.71297 -45.59078,39.10369 -102.93374,42.78726 -24.49407,1.57345 -88.49656,1.19655 -90.22461,-0.53131 -0.6098,-0.60973 -1.28903,-15.45973 -1.50942,-33 l -0.40068,-31.89143 h -34.59932 -34.59931 v 31.2381 c 0,26.62049 -0.30972,31.54781 -2.09524,33.33333 -1.78516,1.78516 -6.70418,2.09524 -33.23809,2.09524 -26.53391,0 -31.45294,-0.31008 -33.2381,-2.09524 z m 251.54349,-46.49659 c 8.43943,-3.08709 18.62015,-14.16168 21.10352,-22.95641 2.52458,-8.94065 2.25912,-23.68945 -0.57737,-32.07963 -1.69407,-5.01092 -4.15929,-8.58484 -8.79928,-12.75658 -9.36916,-8.42368 -16.39175,-10.28222 -38.85203,-10.28222 h -18.51356 v 40.81199 40.812 l 19.66667,-0.62133 c 14.03167,-0.44331 21.47332,-1.2822 25.97205,-2.92782 z"
       id="path831"
       inkscape:connector-curvature="0" />
    <path
       style="fill:#cccdce;stroke-width:1.33333337"
       d="M 188.83882,712.65629 C 152.1166,706.67486 120.18682,690.5083 92.851947,664.05661 69.780481,641.73057 54.984134,618.85265 46.124932,591.8079 22.636269,520.10336 43.157413,444.46597 99.333336,395.69092 c 31.017604,-26.9312 63.756814,-40.51746 105.272084,-43.68623 33.09492,-2.52608 66.99536,3.78223 94.72792,17.62725 29.41099,14.68298 59.18974,42.95519 78.36141,74.39701 l 5.02805,8.2461 27.63861,-0.90773 c 44.79568,-1.47124 72.70181,1.36851 87.49466,8.90349 12.17932,6.20374 24.1986,21.04733 28.13513,34.74634 2.35388,8.19148 4.67548,9.04121 4.67548,1.71129 0,-2.44614 1.25634,-8.51506 2.79186,-13.48649 3.62598,-11.7396 13.82596,-22.51304 25.88464,-27.33994 7.80052,-3.12242 9.07409,-3.20857 53.65684,-3.62984 l 45.66667,-0.43149 v 13.96979 13.9698 l -37,0.4432 c -36.65069,0.43903 -37.0565,0.47484 -42.98325,3.79331 -7.80014,4.36742 -11.88349,11.78918 -13.61484,24.74596 -1.0093,7.5532 -0.93745,10.45538 0.29562,11.94114 1.36782,1.64814 8.02301,1.9628 41.51237,1.9628 h 39.88339 l -0.37999,13.66667 -0.37997,13.66667 -39.2214,0.35382 c -26.22016,0.23654 -39.81099,0.84312 -41,1.82992 -1.38786,1.15182 -1.7786,8.18624 -1.7786,32.01935 v 30.54324 l -17,-0.37316 -17,-0.37317 -0.3697,-20.63636 c -0.20333,-11.35 -0.88077,-21.14744 -1.50541,-21.77208 -0.6254,-0.6254 -2.09316,1.6742 -3.26651,5.11781 -4.50892,13.23295 -19.63566,27.924 -35.20102,34.18714 -7.45276,2.99881 -8.99855,3.09229 -57.85313,3.4986 l -50.19577,0.41746 -6.02247,10.26038 c -15.56957,26.52557 -41.84948,52.02068 -69.85345,67.7674 -12.49655,7.02684 -30.1353,13.73867 -45.73255,17.40195 -17.94731,4.21522 -52.83646,5.39876 -71.16119,2.41397 z M 380.00001,601.33335 V 588.00002 H 331.4424 c -26.7067,0 -49.5067,-0.36419 -50.66667,-0.80932 -1.65491,-0.63504 -2.10275,-2.86016 -2.07977,-10.33334 0.0397,-12.90402 3.16322,-19.70378 10.8705,-23.66434 5.19163,-2.66784 8.0809,-3.00446 28.96494,-3.37452 24.79186,-0.43932 33.48862,-2.00295 43.5453,-7.82918 8.09174,-4.68786 15.8597,-13.89241 19.21135,-22.76422 2.56023,-6.77692 2.90059,-9.77528 2.40942,-21.22508 -0.71398,-16.64368 -4.97083,-27.3733 -14.02035,-35.33901 -11.05612,-9.73198 -12.9376,-9.99433 -71.67711,-9.99433 h -52 v 13.33333 13.33334 l 44.66667,0.66667 c 39.01253,0.58228 45.20029,0.95865 48.88226,2.97336 7.45104,4.07705 9.7844,8.35385 9.7844,17.93372 0,15.23973 -4.63189,17.3231 -42.46118,19.09856 -27.48502,1.28996 -34.92291,2.88654 -45.06497,9.67345 -7.5438,5.0482 -14.29964,15.43037 -16.39329,25.19273 -1.53243,7.14548 -1.98077,57.45019 -0.525,58.90595 0.48888,0.4889 31.08888,0.8889 68,0.8889 h 67.11111 z m 85.60104,-16.13236 c 21.33505,-4.42576 29.5553,-19.11715 29.39445,-52.53431 -0.13455,-27.9534 -5.43172,-40.88865 -19.65271,-47.99033 -7.81918,-3.90473 -8.4988,-4.00088 -31.68382,-4.48236 -17.45266,-0.36244 -24.2155,-0.0585 -25.67609,1.15359 -1.69073,1.40317 -1.98287,9.04708 -1.98287,51.88236 0,37.29525 0.41218,50.64892 1.6,51.83674 2.07622,2.07622 38.15316,2.17715 48.00104,0.13431 z m 221.82754,34.03712 c -1.8596,-1.8596 -2.09524,-11.37085 -2.09524,-84.57143 0,-73.20057 0.23564,-82.71183 2.09524,-84.57143 1.78516,-1.78516 6.70419,-2.09524 33.2381,-2.09524 26.53391,0 31.45293,0.31008 33.23809,2.09524 1.77736,1.77736 2.09524,6.53103 2.09524,31.33334 v 29.23809 h 34.66667 34.66667 v -29.23809 c 0,-24.80231 0.31788,-29.55598 2.09524,-31.33334 3.01461,-3.01461 83.8191,-3.0328 109.67219,-0.0247 55.87623,6.50142 82.85101,25.13688 91.57281,63.26279 4.8068,21.01254 1.3267,47.49448 -8.4065,63.96878 -15.7823,26.71297 -45.59078,39.10369 -102.93374,42.78726 -24.49407,1.57345 -88.49656,1.19655 -90.22461,-0.53131 -0.6098,-0.60973 -1.28903,-15.45973 -1.50942,-33 l -0.40068,-31.89143 h -34.59932 -34.59931 v 31.2381 c 0,26.62049 -0.30972,31.54781 -2.09524,33.33333 -1.78516,1.78516 -6.70418,2.09524 -33.23809,2.09524 -26.53391,0 -31.45294,-0.31008 -33.2381,-2.09524 z m 251.54349,-46.49659 c 8.43943,-3.08709 18.62015,-14.16168 21.10352,-22.95641 2.52458,-8.94065 2.25912,-23.68945 -0.57737,-32.07963 -1.69407,-5.01092 -4.15929,-8.58484 -8.79928,-12.75658 -9.36916,-8.42368 -16.39175,-10.28222 -38.85203,-10.28222 h -18.51356 v 40.81199 40.812 l 19.66667,-0.62133 c 14.03167,-0.44331 21.47332,-1.2822 25.97205,-2.92782 z"
       id="path829"
       inkscape:connector-curvature="0" />
    <path
       style="fill:#f5bc8a;stroke-width:1.33333337"
       d="M 188.83882,712.65629 C 152.1166,706.67486 120.18682,690.5083 92.851947,664.05661 69.780481,641.73057 54.984134,618.85265 46.124932,591.8079 22.636269,520.10336 43.157413,444.46597 99.333336,395.69092 c 31.017604,-26.9312 63.756814,-40.51746 105.272084,-43.68623 33.09492,-2.52608 66.99536,3.78223 94.72792,17.62725 29.41099,14.68298 59.18974,42.95519 78.36141,74.39701 l 5.02805,8.2461 27.63861,-0.90773 c 44.79568,-1.47124 72.70181,1.36851 87.49466,8.90349 12.17932,6.20374 24.1986,21.04733 28.13513,34.74634 2.35388,8.19148 4.67548,9.04121 4.67548,1.71129 0,-2.44614 1.25634,-8.51506 2.79186,-13.48649 3.62598,-11.7396 13.82596,-22.51304 25.88464,-27.33994 7.80052,-3.12242 9.07409,-3.20857 53.65684,-3.62984 l 45.66667,-0.43149 v 13.96979 13.9698 l -37,0.4432 c -36.65069,0.43903 -37.0565,0.47484 -42.98325,3.79331 -7.80014,4.36742 -11.88349,11.78918 -13.61484,24.74596 -1.0093,7.5532 -0.93745,10.45538 0.29562,11.94114 1.36782,1.64814 8.02301,1.9628 41.51237,1.9628 h 39.88339 l -0.37999,13.66667 -0.37997,13.66667 -39.2214,0.35382 c -26.22016,0.23654 -39.81099,0.84312 -41,1.82992 -1.38786,1.15182 -1.7786,8.18624 -1.7786,32.01935 v 30.54324 l -17,-0.37316 -17,-0.37317 -0.3697,-20.63636 c -0.20333,-11.35 -0.88077,-21.14744 -1.50541,-21.77208 -0.6254,-0.6254 -2.09316,1.6742 -3.26651,5.11781 -4.50892,13.23295 -19.63566,27.924 -35.20102,34.18714 -7.45276,2.99881 -8.99855,3.09229 -57.85313,3.4986 l -50.19577,0.41746 -6.02247,10.26038 c -15.56957,26.52557 -41.84948,52.02068 -69.85345,67.7674 -12.49655,7.02684 -30.1353,13.73867 -45.73255,17.40195 -17.94731,4.21522 -52.83646,5.39876 -71.16119,2.41397 z M 380.00001,601.33335 V 588.00002 H 331.4424 c -26.7067,0 -49.5067,-0.36419 -50.66667,-0.80932 -1.65491,-0.63504 -2.10275,-2.86016 -2.07977,-10.33334 0.0397,-12.90402 3.16322,-19.70378 10.8705,-23.66434 5.19163,-2.66784 8.0809,-3.00446 28.96494,-3.37452 24.79186,-0.43932 33.48862,-2.00295 43.5453,-7.82918 8.09174,-4.68786 15.8597,-13.89241 19.21135,-22.76422 2.56023,-6.77692 2.90059,-9.77528 2.40942,-21.22508 -0.71398,-16.64368 -4.97083,-27.3733 -14.02035,-35.33901 -11.05612,-9.73198 -12.9376,-9.99433 -71.67711,-9.99433 h -52 v 13.33333 13.33334 l 44.66667,0.66667 c 39.01253,0.58228 45.20029,0.95865 48.88226,2.97336 7.45104,4.07705 9.7844,8.35385 9.7844,17.93372 0,15.23973 -4.63189,17.3231 -42.46118,19.09856 -27.48502,1.28996 -34.92291,2.88654 -45.06497,9.67345 -7.5438,5.0482 -14.29964,15.43037 -16.39329,25.19273 -1.53243,7.14548 -1.98077,57.45019 -0.525,58.90595 0.48888,0.4889 31.08888,0.8889 68,0.8889 h 67.11111 z m 85.60104,-16.13236 c 21.33505,-4.42576 29.5553,-19.11715 29.39445,-52.53431 -0.13455,-27.9534 -5.43172,-40.88865 -19.65271,-47.99033 -7.81918,-3.90473 -8.4988,-4.00088 -31.68382,-4.48236 -17.45266,-0.36244 -24.2155,-0.0585 -25.67609,1.15359 -1.69073,1.40317 -1.98287,9.04708 -1.98287,51.88236 0,37.29525 0.41218,50.64892 1.6,51.83674 2.07622,2.07622 38.15316,2.17715 48.00104,0.13431 z m 223.02068,31.82324 c -0.35559,-0.92998 -0.49094,-38.59088 -0.30079,-83.69088 l 0.34575,-82 h 32 32 l 0.66667,30.66667 0.66666,30.66666 h 36.66667 36.66667 l 0.66667,-30.66666 0.66666,-30.66667 52,0.0172 c 43.44729,0.0144 54.5059,0.41141 67.23567,2.41393 19.66343,3.09323 37.62392,8.89385 47.54654,15.35588 9.4725,6.16888 20.5119,17.62884 24.486,25.4187 8.4355,16.5349 10.8085,43.42938 5.5731,63.1642 -3.7408,14.10125 -5.9684,18.37085 -14.6909,28.15781 -22.69863,25.46859 -59.5753,33.567 -148.15041,32.53507 l -34,-0.39612 -0.66666,-32.66667 -0.66667,-32.66667 h -36.66667 -36.66667 l -0.66666,32.66667 -0.66667,32.66667 -31.69923,0.35755 c -24.63665,0.27788 -31.84327,-0.0192 -32.34573,-1.33334 z m 252.41419,-42.96635 c 9.57863,-4.33492 15.27431,-10.16746 19.99215,-20.47257 2.69483,-5.88628 3.30777,-9.35869 3.35297,-18.9948 0.0507,-10.81664 -0.32108,-12.54147 -4.49618,-20.85779 -3.54159,-7.05442 -5.99406,-10.03012 -11.05291,-13.41098 -10.36516,-6.92714 -17.77444,-8.4532 -38.97352,-8.02727 l -18.52507,0.37221 -0.35307,41.32032 c -0.19418,22.72619 -0.0351,42.1489 0.3535,43.16159 0.5718,1.49009 4.58062,1.73213 21.01973,1.26907 18.81507,-0.52998 20.93042,-0.85151 28.6824,-4.35978 z"
       id="path827"
       inkscape:connector-curvature="0" />
    <path
       style="fill:#b1b2b4;stroke-width:1.33333337"
       d="M 191.37357,712.64094 C 164.9425,708.33298 141.041,699.01738 118.66667,684.30345 84.445303,661.79861 59.243722,629.13153 46.749377,591.08201 35.163084,555.79782 33.854476,522.40022 42.710343,488.00002 66.847878,394.23891 160.44755,335.77648 255.11662,355.33092 c 12.46259,2.57421 34.56267,10.12588 44.88966,15.33892 29.98348,15.13561 56.60457,40.27991 75.36965,71.18855 l 6.3698,10.49193 27.46048,-0.89957 c 51.52894,-1.68806 78.54578,2.17362 94.83781,13.55573 9.01629,6.29905 17.50578,18.28244 20.97117,29.60196 2.98163,9.73938 5.65149,12.09034 5.65149,4.97647 0,-6.79855 5.06256,-22.04422 9.42619,-28.38654 4.4112,-6.41144 13.50453,-12.51372 23.90715,-16.04342 6.5643,-2.22734 11.87754,-2.48827 50.66667,-2.48827 h 43.33333 v 13.33333 13.33334 l -37.33333,0.66667 c -35.5695,0.63517 -37.60051,0.8094 -42.98823,3.68776 -8.2949,4.43149 -12.17756,12.78368 -12.64898,27.20976 l -0.3628,11.10248 40.66667,0.66666 40.66667,0.66667 0.38069,12.13077 c 0.28288,9.01419 -0.0884,12.52011 -1.44526,13.64618 -1.24976,1.03721 -14.20236,1.62705 -41.04736,1.86922 l -39.22141,0.35383 -0.66666,31.33333 -0.66667,31.33334 -15.14249,0.37833 c -10.02307,0.25043 -15.77048,-0.14285 -17,-1.16325 -1.45046,-1.20377 -1.85751,-6.36272 -1.85751,-23.5416 0,-18.22179 -0.30641,-21.7457 -1.7842,-20.51924 -0.98132,0.81441 -2.54621,4.0241 -3.47756,7.13264 -3.46596,11.56835 -15.56607,24.69108 -28.57671,30.99184 -14.13422,6.84489 -19.16507,7.38795 -68.44167,7.38795 h -45.71986 l -0.0204,-12.33334 c -0.0107,-6.78333 -0.49206,-13.0759 -1.0685,-13.9835 -0.79574,-1.25287 -13.07,-1.73441 -50.97959,-2.00001 l -49.93152,-0.34982 0.0551,-10.06714 c 0.0645,-11.7855 2.73497,-17.63068 9.99204,-21.87105 4.01621,-2.34671 7.92792,-2.81549 29.95283,-3.58955 13.93333,-0.48968 27.73333,-1.61344 30.66666,-2.49725 20.205,-6.08777 32.66991,-20.91475 34.73614,-41.31856 1.80177,-17.7924 -5.21188,-37.49194 -16.38602,-46.024 -10.99144,-8.3926 -13.69053,-8.70542 -71.74605,-8.31503 l -51.93734,0.34924 -0.38749,12.64495 c -0.32909,10.7395 -0.0396,12.89937 1.92151,14.33333 1.74857,1.2786 12.61325,1.68839 44.76365,1.68839 45.79326,0 47.92287,0.28068 54.25846,7.15124 2.34161,2.53935 3.35956,5.41167 3.72302,10.50517 1.1117,15.57874 -4.19794,18.35647 -37.90273,19.82876 -40.46309,1.76751 -54.11754,7.43376 -62.6088,25.98114 -4.78492,10.45166 -5.86264,19.39118 -5.46584,45.33887 l 0.36489,23.86149 67.04659,0.34569 c 57.89468,0.29851 67.15047,0.61638 67.80755,2.32872 0.42283,1.10187 -1.93229,6.2805 -5.30011,11.65431 -26.36439,42.06801 -66.36697,70.42122 -115.53528,81.8896 -18.05699,4.21175 -48.20882,5.31887 -65.97852,2.4226 z M 474.00001,583.55099 c 7.39129,-3.26065 13.3063,-9.36843 16.68987,-17.23377 4.02072,-9.34639 5.84728,-29.55711 4.17752,-46.2236 -1.99712,-19.9339 -7.40765,-30.048 -19.53405,-36.51575 -4.92624,-2.62745 -7.36882,-2.84712 -32,-2.87788 l -26.66667,-0.0333 -0.34949,51.32964 c -0.19222,28.2313 -0.0399,52.13648 0.33854,53.12261 1.12046,2.91987 50.21414,1.57751 57.34428,-1.56795 z m 214.62172,33.47324 c -0.35559,-0.92998 -0.49094,-38.59088 -0.30079,-83.69088 l 0.34575,-82 h 32 32 l 0.66667,30.66667 0.66666,30.66666 h 36.66667 36.66667 l 0.66667,-30.66666 0.66666,-30.66667 52,0.0172 c 43.44729,0.0144 54.5059,0.41141 67.23567,2.41393 19.66343,3.09323 37.62392,8.89385 47.54654,15.35588 9.4725,6.16888 20.5119,17.62884 24.486,25.4187 8.4355,16.5349 10.8085,43.42938 5.5731,63.1642 -3.7408,14.10125 -5.9684,18.37085 -14.6909,28.15781 -22.69863,25.46859 -59.5753,33.567 -148.15041,32.53507 l -34,-0.39612 -0.66666,-32.66667 -0.66667,-32.66667 h -36.66667 -36.66667 l -0.66666,32.66667 -0.66667,32.66667 -31.69923,0.35755 c -24.63665,0.27788 -31.84327,-0.0192 -32.34573,-1.33334 z m 252.41419,-42.96635 c 9.57863,-4.33492 15.27431,-10.16746 19.99215,-20.47257 2.69483,-5.88628 3.30777,-9.35869 3.35297,-18.9948 0.0507,-10.81664 -0.32108,-12.54147 -4.49618,-20.85779 -3.54159,-7.05442 -5.99406,-10.03012 -11.05291,-13.41098 -10.36516,-6.92714 -17.77444,-8.4532 -38.97352,-8.02727 l -18.52507,0.37221 -0.35307,41.32032 c -0.19418,22.72619 -0.0351,42.1489 0.3535,43.16159 0.5718,1.49009 4.58062,1.73213 21.01973,1.26907 18.81507,-0.52998 20.93042,-0.85151 28.6824,-4.35978 z"
       id="path825"
       inkscape:connector-curvature="0" />
    <path
       style="fill:#f3a25c;stroke-width:1.33333337"
       d="M 191.37357,712.64094 C 164.9425,708.33298 141.041,699.01738 118.66667,684.30345 84.445303,661.79861 59.243722,629.13153 46.749377,591.08201 35.163084,555.79782 33.854476,522.40022 42.710343,488.00002 66.847878,394.23891 160.44755,335.77648 255.11662,355.33092 c 12.46259,2.57421 34.56267,10.12588 44.88966,15.33892 29.98348,15.13561 56.60457,40.27991 75.36965,71.18855 l 6.3698,10.49193 27.46048,-0.89957 c 51.52894,-1.68806 78.54578,2.17362 94.83781,13.55573 9.01629,6.29905 17.50578,18.28244 20.97117,29.60196 2.98163,9.73938 5.65149,12.09034 5.65149,4.97647 0,-6.79855 5.06256,-22.04422 9.42619,-28.38654 4.4112,-6.41144 13.50453,-12.51372 23.90715,-16.04342 6.5643,-2.22734 11.87754,-2.48827 50.66667,-2.48827 h 43.33333 v 13.33333 13.33334 l -37.33333,0.66667 c -35.5695,0.63517 -37.60051,0.8094 -42.98823,3.68776 -8.2949,4.43149 -12.17756,12.78368 -12.64898,27.20976 l -0.3628,11.10248 40.66667,0.66666 40.66667,0.66667 0.38069,12.13077 c 0.28288,9.01419 -0.0884,12.52011 -1.44526,13.64618 -1.24976,1.03721 -14.20236,1.62705 -41.04736,1.86922 l -39.22141,0.35383 -0.66666,31.33333 -0.66667,31.33334 -15.14249,0.37833 c -10.02307,0.25043 -15.77048,-0.14285 -17,-1.16325 -1.45046,-1.20377 -1.85751,-6.36272 -1.85751,-23.5416 0,-18.22179 -0.30641,-21.7457 -1.7842,-20.51924 -0.98132,0.81441 -2.54621,4.0241 -3.47756,7.13264 -3.46596,11.56835 -15.56607,24.69108 -28.57671,30.99184 -14.13422,6.84489 -19.16507,7.38795 -68.44167,7.38795 h -45.71986 l -0.0204,-12.33334 c -0.0107,-6.78333 -0.49206,-13.0759 -1.0685,-13.9835 -0.79574,-1.25287 -13.07,-1.73441 -50.97959,-2.00001 l -49.93152,-0.34982 0.0551,-10.06714 c 0.0645,-11.7855 2.73497,-17.63068 9.99204,-21.87105 4.01621,-2.34671 7.92792,-2.81549 29.95283,-3.58955 13.93333,-0.48968 27.73333,-1.61344 30.66666,-2.49725 20.205,-6.08777 32.66991,-20.91475 34.73614,-41.31856 1.80177,-17.7924 -5.21188,-37.49194 -16.38602,-46.024 -10.99144,-8.3926 -13.69053,-8.70542 -71.74605,-8.31503 l -51.93734,0.34924 -0.38749,12.64495 c -0.32909,10.7395 -0.0396,12.89937 1.92151,14.33333 1.74857,1.2786 12.61325,1.68839 44.76365,1.68839 45.79326,0 47.92287,0.28068 54.25846,7.15124 2.34161,2.53935 3.35956,5.41167 3.72302,10.50517 1.1117,15.57874 -4.19794,18.35647 -37.90273,19.82876 -40.46309,1.76751 -54.11754,7.43376 -62.6088,25.98114 -4.78492,10.45166 -5.86264,19.39118 -5.46584,45.33887 l 0.36489,23.86149 67.04659,0.34569 c 57.89468,0.29851 67.15047,0.61638 67.80755,2.32872 0.42283,1.10187 -1.93229,6.2805 -5.30011,11.65431 -26.36439,42.06801 -66.36697,70.42122 -115.53528,81.8896 -18.05699,4.21175 -48.20882,5.31887 -65.97852,2.4226 z M 474.00001,583.55099 c 7.39129,-3.26065 13.3063,-9.36843 16.68987,-17.23377 4.02072,-9.34639 5.84728,-29.55711 4.17752,-46.2236 -1.99712,-19.9339 -7.40765,-30.048 -19.53405,-36.51575 -4.92624,-2.62745 -7.36882,-2.84712 -32,-2.87788 l -26.66667,-0.0333 -0.34949,51.32964 c -0.19222,28.2313 -0.0399,52.13648 0.33854,53.12261 1.12046,2.91987 50.21414,1.57751 57.34428,-1.56795 z"
       id="path823"
       inkscape:connector-curvature="0" />
    <path
       style="fill:#ef882e;stroke-width:1.33333337"
       d="M 188.83882,711.31744 C 114.5851,699.25744 53.719008,639.19962 40.563613,565.01127 c -2.838597,-16.00795 -2.840545,-48.16756 -0.0039,-63.90584 7.104788,-39.41835 29.507623,-79.08358 58.713575,-103.955 16.746022,-14.26072 36.887892,-26.26481 56.664532,-33.77077 35.9065,-13.62784 85.80529,-14.0878 121.89283,-1.12357 40.46601,14.53718 74.90909,43.0394 96.76815,80.07726 3.1378,5.31666 6.38672,9.76116 7.21981,9.87664 0.83308,0.11546 20.11471,0.31328 42.84804,0.43953 46.37606,0.25759 55.40535,1.28195 69.40259,7.87363 15.96747,7.51952 25.11485,18.06202 30.75293,35.44323 3.78771,11.67685 6.23275,11.51737 7.4188,-0.48392 1.08602,-10.98894 7.11114,-24.23609 13.46871,-29.61298 2.35967,-1.99569 8.19031,-5.48273 12.95698,-7.749 l 8.66666,-4.12047 45,-0.41396 45.00001,-0.41394 v 12.74728 12.74729 h -31.81802 c -34.73183,0 -43.58445,1.03451 -51.03292,5.96368 -5.8768,3.88908 -9.67545,12.87778 -11.06707,26.18778 -1.44869,13.85604 -3.63148,13.18188 42.67991,13.18188 h 39.23809 v 12.66666 12.66667 h -39.73333 c -29.12592,0 -40.16048,0.42715 -41.33334,1.6 -1.15088,1.15088 -1.6,10.13333 -1.6,32 v 30.4 h -16 -16 v -23.25464 c 0,-23.23352 -1.08988,-28.76163 -4.17053,-21.15388 -8.54784,21.10904 -15.99115,29.70335 -33.05876,38.17084 l -11.22931,5.57102 h -50.10403 -50.10404 l -0.38717,-12.62126 c -0.24645,-8.03362 -0.97341,-12.99382 -2,-13.64625 -0.88705,-0.56375 -23.72636,-1.03419 -50.75402,-1.04542 l -49.14117,-0.0204 0.48031,-10.57665 c 0.5448,-11.99648 2.87472,-16.50067 10.56349,-20.42128 3.64203,-1.85711 8.09727,-2.34006 21.90523,-2.3745 23.25826,-0.058 35.41589,-1.79092 45.42477,-6.47464 10.8672,-5.08537 18.32776,-12.02505 22.86886,-21.27221 3.43518,-6.99516 3.70417,-8.71808 3.67624,-23.54739 -0.0253,-13.48052 -0.50692,-17.19134 -3.058,-23.56567 -3.80939,-9.51836 -11.65005,-17.67497 -21.37137,-22.23252 l -7.5405,-3.53514 h -54 -54.00001 v 14.66666 14.66667 l 44.66667,0.66667 c 42.60512,0.63589 44.91608,0.80019 50.07059,3.55972 6.40023,3.42644 8.59608,7.59617 8.59608,16.3232 0,8.19505 -3.29716,12.57648 -10.94931,14.54997 -3.14454,0.81099 -17.11736,2.05544 -31.05069,2.76546 -32.13403,1.63749 -39.08524,3.68677 -50.20815,14.8018 -11.05803,11.0502 -13.08459,18.44694 -14.08013,51.39082 -0.55255,18.28442 -0.32656,26.21451 0.8074,28.33334 l 1.5747,2.94236 h 66.61975 c 50.67287,0 66.61977,0.38039 66.61977,1.58911 0,2.83892 -10.26341,18.81069 -19.30627,30.04416 -23.89515,29.6837 -62.07115,53.23991 -100.03455,61.72556 -17.21062,3.84695 -51.54052,4.81924 -69.15371,1.95859 z M 468.29065,585.84299 c 8.1813,-1.8608 10.32988,-3.00525 15.64493,-8.33333 9.10482,-9.12718 12.51893,-21.46182 12.4121,-44.84298 -0.13414,-29.35728 -7.14438,-44.83484 -23.01433,-50.81224 -7.84299,-2.95405 -53.55602,-4.43604 -56.68676,-1.83776 -1.68854,1.40138 -1.97991,9.23234 -1.97991,53.21326 0,38.33228 0.41071,51.98078 1.6,53.17008 2.52077,2.52077 40.26892,2.1166 52.02397,-0.55703 z"
       id="path821"
       inkscape:connector-curvature="0" />
    <path
       style="fill:#ed6f02;stroke-width:1.33333337"
       d="M 188.83882,709.9841 C 133.64935,701.02044 85.546947,666.05081 59.419279,615.89827 45.265616,588.73006 39.676536,565.0692 39.758611,532.66668 c 0.07821,-30.87552 5.013637,-52.7962 17.644548,-78.36817 21.082622,-42.68291 54.136531,-72.73479 98.534681,-89.58551 35.90651,-13.62784 85.8053,-14.0878 121.89284,-1.12358 40.36144,14.49962 73.809,42.10173 95.4491,78.76798 3.14567,5.32991 6.39458,10.12991 7.21981,10.66667 0.82524,0.53677 20.40042,1.02632 43.50042,1.0879 26.27322,0.07 45.49484,0.71532 51.33334,1.72332 10.04743,1.73467 23.83767,7.53227 31.10972,13.07892 6.39045,4.87424 14.44188,17.95934 17.62287,28.6405 2.14237,7.19369 3.25782,9.11197 5.29846,9.11197 2.8164,0 3.36104,-1.60329 4.52535,-13.32154 0.92029,-9.26228 7.56717,-22.95335 13.24681,-27.28543 2.37012,-1.80778 7.88399,-4.96075 12.25304,-7.00662 l 7.94375,-3.71974 44.33334,-0.41494 44.33333,-0.41492 v 11.41492 11.41494 h -31.15135 c -17.13324,0 -34.38324,0.60425 -38.33333,1.34277 -15.06806,2.81719 -22.45222,12.54494 -24.46375,32.22804 -0.80995,7.92548 -0.60633,9.20776 1.85257,11.66667 2.66747,2.66747 4.09306,2.76252 41.42919,2.76252 h 38.66667 v 11.33333 11.33334 h -39.23809 c -33.89322,0 -39.52351,0.2854 -41.33334,2.09524 -1.7802,1.7802 -2.09524,6.59162 -2.09524,32 v 29.90476 h -14.66667 -14.66666 v -23.17008 c 0,-17.96976 -0.40918,-23.50966 -1.8231,-24.68311 -2.37148,-1.96815 -3.7881,-0.18104 -6.63725,8.37308 -5.18173,15.55739 -14.90057,26.09242 -31.29193,33.91983 l -10.24772,4.89361 -49.66667,0.40772 -49.66667,0.40772 v -12.69414 c 0,-11.18571 -0.30645,-12.85815 -2.57901,-14.07439 -1.64103,-0.87826 -20.06843,-1.38024 -50.66667,-1.38024 h -48.08766 l 0.003,-8.33334 c 0.003,-10.71537 2.97919,-16.8436 9.79852,-20.17378 4.28627,-2.09318 8.79921,-2.56539 27.33333,-2.86003 12.20968,-0.19409 25.19942,-1.10565 28.86608,-2.02571 16.2316,-4.07284 29.81627,-14.6125 35.71083,-27.70625 4.28672,-9.5222 4.80752,-29.18796 1.09652,-41.40563 -5.02678,-16.54957 -16.66179,-27.35737 -32.97899,-30.63435 -8.82726,-1.77276 -104.14841,-2.12969 -106.87415,-0.40018 -1.26913,0.80528 -1.6143,5.02837 -1.33333,16.31292 l 0.37852,15.22635 45.33334,0.66666 c 48.92537,0.7195 50.81313,0.99932 55.91906,8.28906 2.7119,3.87178 2.73122,15.52253 0.0321,19.37602 -3.05283,4.35852 -10.02714,5.64751 -37.61555,6.95207 -27.35799,1.29368 -35.5626,3.01099 -45.97744,9.62357 -8.22664,5.22324 -13.84632,13.02628 -17.11124,23.75928 -2.33584,7.67878 -2.59516,11.93432 -2.27499,37.33334 l 0.36136,28.66667 67,0.34566 c 36.85,0.19012 66.99819,0.79012 66.99598,1.33334 -0.009,2.13578 -10.44024,18.05026 -18.60846,28.38929 -22.99644,29.10807 -61.42222,52.80279 -99.395,61.29054 -17.21061,3.84694 -51.54052,4.81924 -69.15371,1.95858 z M 468.32103,587.16942 c 8.42942,-1.91723 10.29001,-2.94331 16.31985,-9 5.81738,-5.84328 7.2642,-8.38516 9.96254,-17.50274 2.63957,-8.91897 3.14382,-13.50665 3.0776,-28 -0.10334,-22.61469 -3.82235,-35.64849 -12.63798,-44.29161 -8.95493,-8.77971 -13.90485,-10.02908 -42.47512,-10.7208 -21.89916,-0.5302 -25.02404,-0.34098 -27,1.63498 -2.01387,2.01387 -2.23457,7.35175 -2.23457,54.0441 0,45.32179 0.26237,52.07189 2.09524,53.90476 3.01733,3.01734 39.53273,2.96991 52.89244,-0.0687 z"
       id="path819"
       inkscape:connector-curvature="0" />
  </g>
</svg>
