<?xml version="1.0" encoding="UTF-8" standalone="no"?>
<!-- Created with Inkscape (http://www.inkscape.org/) -->

<svg
   xmlns:dc="http://purl.org/dc/elements/1.1/"
   xmlns:cc="http://creativecommons.org/ns#"
   xmlns:rdf="http://www.w3.org/1999/02/22-rdf-syntax-ns#"
   xmlns:svg="http://www.w3.org/2000/svg"
   xmlns="http://www.w3.org/2000/svg"
   xmlns:sodipodi="http://sodipodi.sourceforge.net/DTD/sodipodi-0.dtd"
   xmlns:inkscape="http://www.inkscape.org/namespaces/inkscape"
   version="1.1"
   width="1067"
   height="1067"
   id="svg2985"
   inkscape:version="0.92.5 (2060ec1f9f, 2020-04-08)"
   sodipodi:docname="ZDFinfo.svg">
  <sodipodi:namedview
     pagecolor="#ffffff"
     bordercolor="#666666"
     borderopacity="1"
     objecttolerance="10"
     gridtolerance="10"
     guidetolerance="10"
     inkscape:pageopacity="0"
     inkscape:pageshadow="2"
     inkscape:window-width="1920"
     inkscape:window-height="1019"
     id="namedview21"
     showgrid="false"
     inkscape:zoom="0.64397226"
     inkscape:cx="448.99583"
     inkscape:cy="486.91073"
     inkscape:window-x="0"
     inkscape:window-y="0"
     inkscape:window-maximized="1"
     inkscape:current-layer="g4366" />
  <metadata
     id="metadata2991">
    <rdf:RDF>
      <cc:Work
         rdf:about="">
        <dc:format>image/svg+xml</dc:format>
        <dc:type
           rdf:resource="http://purl.org/dc/dcmitype/StillImage" />
        <dc:title></dc:title>
      </cc:Work>
    </rdf:RDF>
  </metadata>
  <defs
     id="defs2989" />
  <g
     id="g4366"
     transform="translate(0,903)">
    <g
       id="g842"
       transform="matrix(1.9053571,0,0,1.9053571,1.2e-5,-525.73928)">
      <g
         style="fill:#ff7e09;fill-opacity:1"
         id="g4360">
        <path
           inkscape:connector-curvature="0"
           style="fill:#ff7e09;fill-opacity:1;stroke:none"
           id="path2995"
           d="m 2.5,52 h 81 V 69.5 L 31,125 h 31.5 v -18 h 21 v 36 H 0 V 126 L 52.6,70.4 H 24 V 87 H 2.5" />
        <path
           inkscape:connector-curvature="0"
           style="fill:#ff7e09;fill-opacity:1;stroke:none"
           id="path3015"
           d="m 197,143 h 49 V 124 H 233 V 72 h 17 V 52 h -17 v -4 c 0,-7.326383 0.78305,-8 7,-8 h 11.5 V 21 H 228 c -12.50584,0 -19,7.666334 -19,19 V 52 H 196.5 V 72 H 209 v 52 h -12" />
        <g
           style="font-style:normal;font-variant:normal;font-weight:normal;font-stretch:normal;font-size:40px;line-height:125%;font-family:Playbill;-inkscape-font-specification:Playbill;letter-spacing:0px;word-spacing:0px;fill:#ff7e09;fill-opacity:1;stroke:none"
           id="text3011"
           transform="matrix(10.418802,0,0,4.5468231,1319.3233,438.74774)">
          <path
             inkscape:connector-curvature="0"
             style="fill:#ff7e09;fill-opacity:1"
             id="path3042"
             d="m -109.83252,-91.87684 v 22.543212 h 1.19975 v 4.288709 h -3.59926 v -2.5166 c -1.16253,2.5166 -1.53586,2.5166 -2.63946,2.5166 -1.38685,0 -2.83142,0.468143 -2.83142,-7.819748 v -3.885061 c 0,-8.009994 1.16209,-8.309165 2.83142,-8.309165 1.48316,0 1.71965,0.399734 2.63947,2.199338 l -3e-5,-4.728577 h -1.15177 l 3e-5,-4.288708 z m -4.74016,11.201153 c -0.75546,0.02748 -0.77349,1.595612 -0.7753,3.14388 l -0.007,5.831322 c -0.002,1.711274 0.41993,2.337095 0.5799,2.342059 l 1.33625,0.04146 c 0.40787,0.01265 1.20662,-0.652102 1.20662,-0.652102 v -9.921381 c 0,0 -0.51823,-0.851522 -1.26085,-0.824512 z" />
        </g>
      </g>
      <g
         id="g3057">
        <path
           inkscape:connector-curvature="0"
           style="fill:#000000;fill-opacity:1;stroke:none"
           id="rect2997"
           d="M 297.71428,0 H 539.28572 C 550.76143,0 560,9.2385711 560,20.714285 V 143.28572 C 560,154.76143 550.76143,164 539.28572,164 H 297.71428 C 286.23857,164 277,154.76143 277,143.28572 V 120 L 248,91 h 29 V 20.714285 C 277,9.2385711 286.23857,0 297.71428,0 Z" />
        <g
           id="g3048">
          <g
             style="fill:#ffffff"
             id="g3005">
            <path
               inkscape:connector-curvature="0"
               style="fill:#ffffff;stroke:none"
               id="path3000"
               d="m 303.5,76.5 h 28 v 52 h 9 v 15 h -37 l -0.0178,-15.12499 9.51786,0.125 v -37 h -9.5" />
            <path
               inkscape:connector-curvature="0"
               style="fill:#ffffff;fill-opacity:1;stroke:none"
               id="rect3002"
               d="m 312,52 h 19 v 16 h -19 z" />
          </g>
          <path
             inkscape:connector-curvature="0"
             style="fill:#ffffff;stroke:none"
             id="path3009"
             d="m 347.5,76.5 h 27 V 85 c 10.90004,-9.255402 12.97619,-8.503295 20.28028,-8.5 14.87228,0.0067 19.2048,3.286318 19.21972,17.5 v 34.5 h 9 v 15 h -34.5 v -15 h 7 V 97 c 0,-4.935175 -1.50163,-5.920213 -9,-6 -4.06448,-0.04325 -7.48991,0.645696 -12,3 v 34.5 h 7 v 15 H 347 v -15 h 9 V 91 h -8.5" />
          <path
             inkscape:connector-curvature="0"
             style="fill:#ffffff;fill-opacity:1;stroke:none"
             id="rect3017"
             d="m 489.44643,76.5 h 29.60714 C 527.61089,76.5 534.5,86.176607 534.5,98.196428 V 121.80357 C 534.5,133.82339 527.61089,143.5 519.05357,143.5 H 489.44643 C 480.88911,143.5 474,133.82339 474,121.80357 V 98.196428 C 474,86.176607 480.88911,76.5 489.44643,76.5 Z" />
          <path
             inkscape:connector-curvature="0"
             style="fill:#000000;fill-opacity:1;stroke:none"
             id="rect3020"
             d="m 495.81955,91 h 16.8609 C 514.51948,91 516,95.659107 516,101.44643 v 16.60714 c 0,5.78732 -1.48052,10.44643 -3.31955,10.44643 h -16.8609 C 493.98052,128.5 492.5,123.84089 492.5,118.05357 V 101.44643 C 492.5,95.659107 493.98052,91 495.81955,91 Z" />
          <path
             inkscape:connector-curvature="0"
             style="fill:#ffffff;stroke:none"
             id="path3015-8"
             d="M 429.36818,143.5 H 466 v -15 h -9.5 V 91.218186 H 469 V 76.490913 h -12.5 v -2.945454 c 0,-5.39488 0.45406,-5.890857 5.032,-5.890909 L 470,67.654454 V 53.663545 l -17.80454,9.6e-5 c -9.20885,4.9e-5 -13.99091,5.645206 -13.99091,13.990909 v 8.836363 H 429 v 14.727273 h 9.20455 V 128.5 h -8.83637" />
        </g>
      </g>
    </g>
  </g>
</svg>
