<?xml version="1.0" encoding="UTF-8" standalone="no"?>
<!-- Created with Inkscape (http://www.inkscape.org/) -->

<svg
   xmlns:dc="http://purl.org/dc/elements/1.1/"
   xmlns:cc="http://creativecommons.org/ns#"
   xmlns:rdf="http://www.w3.org/1999/02/22-rdf-syntax-ns#"
   xmlns:svg="http://www.w3.org/2000/svg"
   xmlns="http://www.w3.org/2000/svg"
   xmlns:sodipodi="http://sodipodi.sourceforge.net/DTD/sodipodi-0.dtd"
   xmlns:inkscape="http://www.inkscape.org/namespaces/inkscape"
   version="1.0"
   width="1067"
   height="1067"
   id="svg1877"
   sodipodi:docname="Bloomberg.svg"
   inkscape:version="0.92.5 (2060ec1f9f, 2020-04-08)">
  <metadata
     id="metadata9">
    <rdf:RDF>
      <cc:Work
         rdf:about="">
        <dc:format>image/svg+xml</dc:format>
        <dc:type
           rdf:resource="http://purl.org/dc/dcmitype/StillImage" />
        <dc:title></dc:title>
      </cc:Work>
    </rdf:RDF>
  </metadata>
  <sodipodi:namedview
     pagecolor="#ffffff"
     bordercolor="#666666"
     borderopacity="1"
     objecttolerance="10"
     gridtolerance="10"
     guidetolerance="10"
     inkscape:pageopacity="0"
     inkscape:pageshadow="2"
     inkscape:window-width="1920"
     inkscape:window-height="1019"
     id="namedview7"
     showgrid="false"
     inkscape:zoom="0.45254834"
     inkscape:cx="512.47913"
     inkscape:cy="536.30708"
     inkscape:window-x="0"
     inkscape:window-y="0"
     inkscape:window-maximized="1"
     inkscape:current-layer="svg1877" />
  <defs
     id="defs1879" />
  <g
     id="layer1"
     transform="matrix(1.2045245,0,0,1.2045245,-21.340016,384.11999)">
    <g
       transform="matrix(3.543307,0,0,3.543307,0.00142065,2.070312e-6)"
       style="fill:#6f8780;fill-rule:evenodd"
       id="Ebene_x0020_1">
      <path
         d="m 103.786,64.2213 h 2.1696 v -9.3499 h 0.0345 l 6.0265,9.3499 h 2.7551 V 52.0302 h -2.1695 v 9.0573 h -0.0344 l -5.9063,-9.0573 H 103.786 Z M 87.7549,58.1774 c 0,3.8055 2.6863,6.3569 6.4401,6.3569 3.8053,-0.069 6.4915,-2.6203 6.4915,-6.4257 0,-3.9087 -2.6862,-6.4572 -6.4915,-6.3884 -3.7538,0 -6.4401,2.5485 -6.4401,6.4572 z m 2.2729,-0.1377 c 0,-2.4279 1.6704,-4.3564 4.1843,-4.3564 2.5313,0 4.2015,1.9285 4.2015,4.3564 0,2.6 -1.6702,4.5287 -4.2015,4.5287 -2.5139,0 -4.1843,-1.9287 -4.1843,-4.5287 z m -7.8346,6.1816 h 2.1696 V 52.0302 h -2.1696 z m -3.6505,-11.244 c -0.947,-0.8955 -2.2213,-1.2571 -3.4955,-1.2571 -2.2556,0 -4.4941,1.171 -4.4941,3.6849 0,4.3565 5.7855,2.8241 5.7855,5.493 0,1.1193 -1.1363,1.6703 -2.1352,1.6703 -0.9642,0 -1.8767,-0.4649 -2.4105,-1.2743 l -1.6359,1.5842 c 0.9986,1.1882 2.4795,1.656 3.9948,1.656 2.3935,0 4.4599,-1.2772 4.4599,-3.8946 0,-4.3391 -5.7858,-2.9443 -5.7858,-5.3895 0,-1.1192 0.9987,-1.5669 1.9976,-1.5669 0.8436,0 1.6701,0.31 2.135,0.9641 z m -14.4641,11.244 h 2.1697 V 52.0302 h -2.1697 z m -9.0916,0 h 1.8769 L 61.7886,52.0302 H 59.4468 L 56.02,61.2425 52.6967,52.0302 h -2.4995 z m -15.2733,0 h 8.3857 v -1.9629 h -6.2161 v -3.3061 h 5.5962 v -1.963 h -5.5962 v -2.996 h 5.9062 v -1.9631 h -8.0758 z m -10.6587,0 h 7.3527 v -1.9629 h -5.183 V 52.0302 H 29.055 Z m -11.8984,0 h 8.3857 v -1.9629 h -6.216 v -3.3061 h 5.5961 v -1.963 h -5.5961 v -2.996 h 5.9061 v -1.9631 h -8.0758 z m -8.4202,0 h 2.1697 v -10.228 h 3.7365 V 52.0302 H 4.9999 v 1.9631 h 3.7365 z m 240.313,-45.807 v 3.758 h -0.1044 c -1.8268,-3.0272 -5.1151,-4.3843 -8.6122,-4.3843 -7.7249,0 -12.3701,5.7414 -12.3701,13.1531 0,7.0984 4.9584,12.8486 12.4745,12.8486 3.1317,0 6.3677,-1.2093 8.1945,-3.6624 h 0.1044 v 1.8268 c 0,4.9672 -1.8789,8.4121 -7.9336,8.4121 -3.4971,0 -6.1068,-1.3048 -8.6121,-3.6015 l -3.758,5.1151 c 3.5491,3.1318 7.777,4.1234 12.4223,4.1234 9.7604,0 14.1449,-5.7414 14.1449,-14.7798 V 18.4143 Z m -7.4118,5.0107 c 4.541,0 7.4118,3.0273 7.4118,7.3595 0,4.1756 -2.8186,7.3595 -7.464,7.3595 -4.2278,0 -7.3594,-3.2883 -7.3594,-7.2551 0,-4.4366 3.0272,-7.4639 7.4116,-7.4639 z m -29.984,20.0428 h 6.2632 v -13.414 c 0,-1.3571 0.8352,-6.3156 6.7333,-6.3156 0.9916,0 1.9833,0.2087 3.0272,0.4697 v -6.0546 c -0.7308,-0.2088 -1.4613,-0.3653 -2.2443,-0.3653 -3.2883,0 -6.0547,1.7224 -7.4117,4.5931 h -0.1045 v -3.9668 h -6.2632 z m -4.1907,-10.3346 v -1.7224 c 0,-8.7166 -4.7498,-13.6228 -11.7438,-13.6228 -7.5683,0 -13.6228,5.2717 -13.6228,13.1531 0,7.8814 6.0545,13.1617 13.6228,13.1617 3.9668,0 7.6726,-1.4179 10.5955,-5.0194 l -4.4887,-3.3927 c -1.5659,1.9313 -3.6015,3.3927 -6.7332,3.3927 -3.4971,0 -6.3156,-2.2443 -6.7331,-5.9502 z m -19.1033,-4.6976 c 0.4697,-3.6014 2.7663,-5.9501 6.4721,-5.9501 3.9147,0 6.3157,2.2966 6.3679,5.9501 z M 152.274,43.4678 h 5.9502 v -3.7581 h 0.1042 c 1.827,3.0274 5.1152,4.3931 8.6122,4.3931 7.7249,0 12.3702,-5.7502 12.3702,-13.1617 0,-7.4117 -4.9585,-13.1531 -12.1092,-13.1531 -4.6976,0 -7.2029,2.1921 -8.5077,3.8102 h -0.1567 V 5.6738 h -6.2632 z m 20.7734,-12.5267 c 0,3.9146 -2.7663,7.5159 -7.3595,7.5159 -4.5931,0 -7.3595,-3.6013 -7.3595,-7.5159 0,-3.9146 2.7664,-7.5161 7.3595,-7.5161 4.5932,0 7.3595,3.6015 7.3595,7.5161 z m -64.8073,12.5267 h 6.2635 V 29.7927 c 0,-3.3404 1.6179,-6.3677 5.7413,-6.3677 3.0273,0 4.28,2.0356 4.28,5.1151 v 14.9277 h 6.2634 V 29.8971 c 0,-3.236 1.4615,-6.4721 5.3761,-6.4721 3.7057,0 4.6453,2.7142 4.6453,5.8458 v 14.197 h 6.2633 V 28.5401 c 0,-6.0024 -2.3487,-10.7521 -9.0297,-10.7521 -3.7579,0 -6.4198,1.4613 -8.2468,4.6453 -1.3048,-3.1318 -3.9668,-4.6453 -7.8291,-4.6453 -4.1756,0 -6.5766,2.1921 -7.6727,4.5409 h -0.1044 v -3.9146 h -5.9502 z M 47.0047,30.9411 c 0,7.8814 6.0544,13.1617 13.6227,13.1617 7.5682,0 13.6228,-5.2803 13.6228,-13.1617 0,-7.8814 -6.0546,-13.1531 -13.6228,-13.1531 -7.5683,0 -13.6227,5.2717 -13.6227,13.1531 z m 6.2633,0 c 0,-3.9146 2.7663,-7.5161 7.3594,-7.5161 4.5931,0 7.3595,3.6015 7.3595,7.5161 0,3.9146 -2.7664,7.5159 -7.3595,7.5159 -4.5931,0 -7.3594,-3.6013 -7.3594,-7.5159 z M 36.5045,43.4678 h 6.2634 V 5.4657 h -6.2634 z m -31.5049,0 h 13.3096 c 6.9941,0 13.9881,-2.5055 13.9881,-10.5433 0,-4.7497 -3.3405,-8.4034 -7.9857,-8.9253 v -0.1045 c 3.8102,-1.1483 6.42,-3.9146 6.42,-8.0901 C 30.7316,9.0715 24.99,6.514 19.4052,6.514 H 4.9996 Z M 11.5761,27.183 h 6.3154 c 5.324,0 7.8293,1.3571 7.8293,5.2194 0,4.8542 -4.6976,5.4283 -8.0901,5.4283 h -6.0546 z m 0,-15.0321 h 5.4282 c 4.9584,0 7.1507,1.5659 7.1507,4.7498 0,2.7663 -2.1923,4.6453 -6.5765,4.6453 h -6.0024 z m 65.6088,18.7902 c 0,7.8814 6.0545,13.1617 13.6228,13.1617 7.5682,0 13.6228,-5.2803 13.6228,-13.1617 0,-7.8814 -6.0546,-13.1531 -13.6228,-13.1531 -7.5683,0 -13.6228,5.2717 -13.6228,13.1531 z m 6.2633,0 c 0,-3.9146 2.7663,-7.5161 7.3595,-7.5161 4.5931,0 7.3594,3.6015 7.3594,7.5161 0,3.9146 -2.7663,7.5159 -7.3594,7.5159 -4.5932,0 -7.3595,-3.6013 -7.3595,-7.5159 z"
         style="fill:#6f8780"
         id="path10"
         inkscape:connector-curvature="0" />
    </g>
  </g>
</svg>
