<?xml version="1.0" encoding="UTF-8" standalone="no"?>
<!-- Generator: Adobe Illustrator 16.0.0, SVG Export Plug-In . SVG Version: 6.00 Build 0)  -->

<svg
   xmlns:dc="http://purl.org/dc/elements/1.1/"
   xmlns:cc="http://creativecommons.org/ns#"
   xmlns:rdf="http://www.w3.org/1999/02/22-rdf-syntax-ns#"
   xmlns:svg="http://www.w3.org/2000/svg"
   xmlns="http://www.w3.org/2000/svg"
   xmlns:sodipodi="http://sodipodi.sourceforge.net/DTD/sodipodi-0.dtd"
   xmlns:inkscape="http://www.inkscape.org/namespaces/inkscape"
   version="1.1"
   id="svg3100"
   sodipodi:docname="CNBC.svg"
   inkscape:version="0.92.5 (2060ec1f9f, 2020-04-08)"
   x="0px"
   y="0px"
   width="1067"
   height="1067"
   viewBox="-66.809 -112.76 1067 1067"
   enable-background="new -66.809 -112.76 700.806 560.091"
   xml:space="preserve"><metadata
   id="metadata24"><rdf:RDF><cc:Work
       rdf:about=""><dc:format>image/svg+xml</dc:format><dc:type
         rdf:resource="http://purl.org/dc/dcmitype/StillImage" /><dc:title></dc:title></cc:Work></rdf:RDF></metadata><defs
   id="defs22" /><sodipodi:namedview
   pagecolor="#ffffff"
   bordercolor="#666666"
   borderopacity="1"
   objecttolerance="10"
   gridtolerance="10"
   guidetolerance="10"
   inkscape:pageopacity="0"
   inkscape:pageshadow="2"
   inkscape:window-width="1920"
   inkscape:window-height="1019"
   id="namedview20"
   showgrid="false"
   inkscape:zoom="0.4213601"
   inkscape:cx="350.40302"
   inkscape:cy="280.0455"
   inkscape:window-x="0"
   inkscape:window-y="0"
   inkscape:window-maximized="1"
   inkscape:current-layer="svg3100" />
<g
   id="g17"
   transform="matrix(1.5225325,0,0,1.5225325,34.909074,166.04391)">
	<path
   id="path3113"
   inkscape:connector-curvature="0"
   d="m 283.57,-59.301 c -10.925,-27.278 -37.54,-56.738 -87.388,-52.691 -63.499,6.903 -83.287,67.756 -73.689,104.059 -25.291,-17.125 -68.294,-24.655 -105.829,7.497 -48.464,48.581 -22.541,114.281 4.101,130.04 -29.362,-2.718 -75.768,17.122 -86.034,69.022 -10.921,64.438 38.201,102.003 86.034,102.003 h 530.413 c 55.312,0 86,-47.851 82.558,-92.979 -5.426,-58.896 -59.321,-81.493 -88.72,-76.651 24.562,-13.704 57.365,-78.076 7.485,-128.682 -39.595,-37.662 -90.07,-23.958 -107.818,-7.532 9.567,-31.462 -6.122,-96.498 -70.341,-106.784 -4.44,-0.497 -8.714,-0.763 -12.787,-0.763 -49.023,0.007 -71.067,35.843 -77.985,53.461"
   style="fill:#ffffff" />
	<path
   id="path3115"
   inkscape:connector-curvature="0"
   d="m 25.497,9.818 c -28.003,25.35 -38.195,82.79 12.286,116.368 L 239.174,264.355 141.526,40.642 C 121.064,-12.149 65.086,-23.661 25.497,9.818"
   style="fill:#f37021" />
	<path
   id="path3117"
   inkscape:connector-curvature="0"
   d="m 198.857,-98.951 c -32.736,0.667 -81.893,39.65 -60.017,99.178 l 100.995,238.186 35.489,-250.526 c 8.212,-62.25 -38.897,-90.986 -76.467,-86.838"
   style="fill:#cc004c" />
	<path
   id="path3119"
   inkscape:connector-curvature="0"
   d="m 291.084,-21.668 h 19.097 c 0,0 10.198,0 11.586,4.811 -7.515,6.137 -27.97,6.906 -25.254,39.687 L 328.616,238.379 428.921,-0.432 c 20.517,-53.322 -22.548,-97.854 -60.749,-99.215 -1.784,-0.128 -3.575,-0.232 -5.429,-0.232 -34.287,-10e-4 -73.579,24.918 -71.659,78.211"
   style="fill:#6460aa" />
	<path
   id="path3121"
   inkscape:connector-curvature="0"
   d="M 424.883,42.671 330.011,263.7 531.343,124.802 C 577.753,91.884 570.268,39.256 544.289,13.242 533.398,0.998 513.401,-8.46 492.218,-8.46 467.192,-8.465 440.409,4.809 424.883,42.671"
   style="fill:#0089d0" />
	<path
   id="path3123"
   inkscape:connector-curvature="0"
   d="M 508.801,156.251 319.726,288.318 h 232.806 c 47.763,0 78.457,-49.246 64.812,-94.438 -9.139,-28.406 -36.177,-50.704 -67.56,-50.736 -13.21,0.005 -27.219,3.984 -40.983,13.107"
   style="fill:#0db14b" />
	<path
   id="path3125"
   inkscape:connector-curvature="0"
   d="M 20.072,288.318 H 249.443 L 60.32,156.251 C 16.628,128.179 -32.5,144.605 -50.236,191.19 c -15.034,53.327 22.503,97.128 70.308,97.128"
   style="fill:#fcb711" />
	<path
   d="m -66.069,383.898 c 0,22.492 18.387,63.433 88.595,63.433 64.73,0 85.174,-29.702 85.174,-43.321 H 57.587 c 0,0 -2.38,17.993 -30.649,17.993 -28.287,0 -35.937,-23.611 -35.937,-37.264 0,-13.601 7.65,-35.937 35.937,-35.937 28.269,0 30.649,15.665 30.649,15.665 H 107.7 c 0,-13.635 -15,-42.918 -85.174,-42.918 -70.208,0 -88.595,43.602 -88.595,62.349"
   id="path9"
   inkscape:connector-curvature="0"
   style="fill:#292526" />
	<path
   d="m 459.487,383.898 c 0,22.492 18.406,63.433 88.595,63.433 64.724,0 85.176,-29.702 85.176,-43.321 H 583.18 c 0,0 -2.391,17.993 -30.667,17.993 -28.29,0 -35.948,-23.611 -35.948,-37.264 0,-13.601 7.658,-35.937 35.948,-35.937 28.276,0 30.667,15.665 30.667,15.665 h 50.078 c 0,-13.635 -14.984,-42.918 -85.176,-42.918 -70.188,0 -88.595,43.602 -88.595,62.349"
   id="path11"
   inkscape:connector-curvature="0"
   style="fill:#292526" />
	<polyline
   points="244.659,323.649 244.659,399.79 186.338,323.649 120.732,323.649 120.732,444.25 165.709,444.25    165.709,367.234 223.009,444.25 289.639,444.25 289.639,323.649 244.659,323.649  "
   id="polyline13"
   style="fill:#292526" />
	<path
   d="m 388.786,415.438 v 0.159 H 351.31 v -22.144 h 37.476 v 0.072 c 8.002,0 14.469,4.918 14.469,10.974 0,6.041 -6.467,10.939 -14.469,10.939 m -37.132,-68.333 h 36.11 v 0.051 c 6.118,0 11.079,4.025 11.079,8.979 0,4.973 -4.961,8.963 -11.079,8.963 v 0.054 h -36.11 z m 73.939,33.029 c 8.188,0 25.308,-9.505 25.308,-27.919 0,-26.221 -48.827,-28.566 -56.317,-28.566 H 304.622 V 444.25 h 89.962 c 43.268,0 60.649,-13.669 60.649,-36.495 0,-22.826 -29.64,-27.621 -29.64,-27.621 z"
   id="path15"
   inkscape:connector-curvature="0"
   style="fill:#292526" />
</g>
</svg>