<?xml version="1.0" encoding="UTF-8" standalone="no"?>
<!-- Generator: Adobe Illustrator 16.0.0, SVG Export Plug-In . SVG Version: 6.00 Build 0)  -->

<svg
   xmlns:dc="http://purl.org/dc/elements/1.1/"
   xmlns:cc="http://creativecommons.org/ns#"
   xmlns:rdf="http://www.w3.org/1999/02/22-rdf-syntax-ns#"
   xmlns:svg="http://www.w3.org/2000/svg"
   xmlns="http://www.w3.org/2000/svg"
   xmlns:sodipodi="http://sodipodi.sourceforge.net/DTD/sodipodi-0.dtd"
   xmlns:inkscape="http://www.inkscape.org/namespaces/inkscape"
   version="1.1"
   id="Calque_1"
   x="0px"
   y="0px"
   width="1455.6224"
   height="1455.6224"
   viewBox="-194 336.647 1455.6224 1455.6224"
   enable-background="new -194 336.647 1000 118.707"
   xml:space="preserve"
   sodipodi:docname="ru-Euronews.svg"
   inkscape:version="0.92.5 (2060ec1f9f, 2020-04-08)"><metadata
   id="metadata29"><rdf:RDF><cc:Work
       rdf:about=""><dc:format>image/svg+xml</dc:format><dc:type
         rdf:resource="http://purl.org/dc/dcmitype/StillImage" /><dc:title></dc:title></cc:Work></rdf:RDF></metadata><defs
   id="defs27" /><sodipodi:namedview
   pagecolor="#ffffff"
   bordercolor="#666666"
   borderopacity="1"
   objecttolerance="10"
   gridtolerance="10"
   guidetolerance="10"
   inkscape:pageopacity="0"
   inkscape:pageshadow="2"
   inkscape:window-width="1920"
   inkscape:window-height="1019"
   id="namedview25"
   showgrid="false"
   inkscape:zoom="0.437"
   inkscape:cx="500"
   inkscape:cy="700.08577"
   inkscape:window-x="0"
   inkscape:window-y="0"
   inkscape:window-maximized="1"
   inkscape:current-layer="Calque_1" />
<g
   id="g22"
   transform="matrix(1.455621,0,0,1.5975908,88.39192,431.81146)">
	<g
   id="g20">
		<path
   d="m -100.976,422.319 c -8.258,11.808 -21.525,18.864 -35.591,18.864 -20.467,0 -38.5,-14.997 -42.876,-35.657 l -0.16,-0.751 h 75.864 21.214 2.966 c 0.599,-4.061 0.429,-8.49 0.429,-8.49 l -0.003,0.008 c 0,-0.126 0.009,-0.26 0.009,-0.391 0,-32.647 -25.771,-59.214 -57.444,-59.214 -31.665,0 -57.433,26.566 -57.433,59.214 0,32.662 25.768,59.225 57.433,59.225 21.574,0 41.142,-12.303 51.076,-32.106 l 1.419,-2.885 h -15.475 c -0.538,0.884 -1.055,1.651 -1.428,2.183 m -79.127,-32.183 c 2.821,-22.527 21.536,-39.505 43.536,-39.505 22.007,0 40.725,16.978 43.534,39.505 l 0.089,0.689 h -87.242 z"
   id="path2"
   inkscape:connector-curvature="0"
   style="fill:#003865" />
		<path
   d="m -14.693,455.156 c -6.373,0 -12.471,-1.141 -18.123,-3.391 -5.61,-2.24 -10.569,-5.486 -14.75,-9.645 -4.265,-4.23 -7.585,-9.266 -9.867,-14.96 -2.366,-5.946 -3.32,-12.429 -3.289,-19.275 l -10e-4,-68.902 h 13.29 l -0.002,67.782 c -0.02,5.302 0.627,10.262 2.37,14.744 1.652,4.267 4.049,8.041 7.125,11.218 2.991,3.088 6.517,5.491 10.478,7.144 4.019,1.676 8.307,2.526 12.74,2.526 4.534,-0.005 8.839,-0.858 12.852,-2.538 3.98,-1.668 7.519,-4.078 10.518,-7.17 3.077,-3.16 5.491,-6.93 7.178,-11.207 1.777,-4.506 2.861,-9.466 2.871,-14.729 v -67.769 h 13.264 l -0.002,68.914 c -0.021,6.863 -1.42,13.339 -3.816,19.243 -2.316,5.698 -5.654,10.729 -9.925,14.957 -4.217,4.166 -9.187,7.41 -14.781,9.646 -5.651,2.259 -11.751,3.406 -18.128,3.414 z"
   id="path4"
   inkscape:connector-curvature="0"
   style="fill:#003865" />
		<path
   d="m 50.938,452.076 v -65.223 c 0.006,-4.851 0.582,-9.598 1.712,-14.111 1.556,-6.257 4.134,-11.838 7.665,-16.587 4.392,-5.911 10.265,-10.553 17.455,-13.795 8.329,-3.743 18.531,-5.638 30.323,-5.638 h 2.229 v 14.176 l -2.174,-0.001 c -8.6,0 -15.977,1.131 -21.969,3.359 -5.271,1.956 -9.609,4.796 -12.889,8.441 -2.857,3.182 -4.982,7.044 -6.315,11.471 -1.141,3.794 -1.728,8.066 -1.742,12.697 v 65.21 H 50.938 Z"
   id="path6"
   inkscape:connector-curvature="0"
   style="fill:#003865" />
		<path
   d="m 323.916,452.073 v -59.584 c 0.02,-4.615 -0.471,-8.902 -1.959,-12.741 -1.373,-3.567 -3.358,-6.708 -5.898,-9.34 -2.438,-2.525 -5.313,-4.492 -8.541,-5.843 -3.309,-1.382 -6.847,-2.083 -10.516,-2.083 -3.733,0.002 -7.307,0.707 -10.616,2.096 -3.247,1.366 -6.138,3.344 -8.594,5.878 -2.546,2.625 -4.548,5.77 -5.956,9.352 -1.518,3.865 -2.49,8.146 -2.496,12.727 l -0.002,59.542 h -26.299 l -0.002,-60.732 c 0.024,-7.844 1.623,-15.263 4.371,-22.055 2.69,-6.633 6.569,-12.494 11.533,-17.426 4.909,-4.866 10.689,-8.656 17.182,-11.261 6.518,-2.61 13.527,-3.94 20.839,-3.952 7.323,0 14.337,1.321 20.851,3.926 6.524,2.611 12.302,6.405 17.174,11.273 4.957,4.938 8.816,10.807 11.469,17.443 2.717,6.848 3.816,14.282 3.781,22.105 v 60.678 h -26.321 z"
   id="path8"
   inkscape:connector-curvature="0"
   style="fill:#003865" />
		<path
   d="m 420.518,455.086 c -31.674,0 -57.428,-26.561 -57.428,-59.211 0,-32.66 25.754,-59.228 57.428,-59.228 31.663,0 57.422,26.568 57.422,59.228 0,3.018 -0.225,6.054 -0.67,9.037 l -0.135,0.894 h -89.678 l 0.383,1.216 c 4.65,14.542 17.789,24.316 32.678,24.316 8.092,0 15.711,-2.861 21.987,-8.267 0,0 1.677,-1.444 1.888,-1.646 h 27.951 L 471.556,423 c -9.919,19.787 -29.482,32.086 -51.038,32.086 m 0,-94.692 c -14.889,0 -28.025,9.771 -32.678,24.323 l -0.383,1.214 h 66.105 l -0.383,-1.214 c -4.647,-14.552 -17.77,-24.323 -32.661,-24.323"
   id="path10"
   inkscape:connector-curvature="0"
   style="fill:#003865" />
		<path
   d="m 486.895,339.657 v -0.673 h 28.484 c 3.48,27.272 12.42,70.514 20.148,90.063 8.18,-19.549 17.723,-62.792 21.213,-90.063 h 23.628 c 3.638,27.272 13.033,68.703 21.362,90.063 7.729,-21.361 16.513,-62.792 20.151,-90.063 h 28.33 v 0.674 c -6.512,42.578 -18.937,86.358 -29.544,112.416 H 585.22 c -5.907,-14.241 -13.03,-36.058 -16.668,-55.603 -3.484,19.545 -11.207,42.575 -16.513,55.603 H 516.586 C 504.155,423.595 490.65,375.825 486.895,339.657"
   id="path12"
   inkscape:connector-curvature="0"
   style="fill:#003865" />
		<path
   d="m 661.917,447.111 v -21.599 h 1.188 c 6.406,1.939 20.26,4.623 30.238,4.623 h 5.814 c 9.228,0 16.231,-2.832 16.231,-12.218 0,-6.998 -6.108,-9.824 -12.812,-11.615 l -17.427,-4.615 c -12.808,-3.276 -23.234,-12.218 -23.234,-31.432 0,-22.635 18.62,-32.021 41.252,-32.021 h 5.813 c 6.996,0 21.001,1.792 27.402,4.172 v 21.448 h -1.19 c -5.81,-1.641 -19.807,-3.424 -26.214,-3.424 h -5.213 c -8.189,0 -15.193,1.633 -15.193,9.825 0,6.41 4.767,8.938 10.58,10.427 l 17.426,4.766 c 16.824,4.468 25.61,14.448 25.61,32.469 0,25.024 -18.016,34.407 -43.038,34.407 h -5.812 c -8.787,10e-4 -23.379,-2.38 -31.421,-5.213"
   id="path14"
   inkscape:connector-curvature="0"
   style="fill:#003865" />
		<path
   d="m 806,428.477 c 0,13.184 -10.687,23.868 -23.869,23.868 -13.181,0 -23.865,-10.687 -23.865,-23.868 0,-13.181 10.687,-23.866 23.865,-23.866 C 795.313,404.61 806,415.297 806,428.477"
   id="path16"
   inkscape:connector-curvature="0"
   style="fill:#003865" />
		<path
   d="m 172.297,336.917 c -31.912,0 -57.783,26.512 -57.783,59.218 0,32.707 25.871,59.219 57.783,59.219 31.912,0 57.783,-26.513 57.783,-59.219 0,-32.704 -25.871,-59.218 -57.783,-59.218 m 0,102.286 c -22.264,0 -40.377,-19.32 -40.377,-43.07 0,-23.747 18.113,-43.069 40.377,-43.069 22.263,0 40.378,19.322 40.378,43.069 0,23.75 -18.115,43.07 -40.378,43.07"
   id="path18"
   inkscape:connector-curvature="0"
   style="fill:#003865" />
	</g>
</g>
</svg>