<?xml version="1.0" encoding="UTF-8" standalone="no"?>
<!-- Created with Inkscape (http://www.inkscape.org/) -->

<svg
   xmlns:dc="http://purl.org/dc/elements/1.1/"
   xmlns:cc="http://creativecommons.org/ns#"
   xmlns:rdf="http://www.w3.org/1999/02/22-rdf-syntax-ns#"
   xmlns:svg="http://www.w3.org/2000/svg"
   xmlns="http://www.w3.org/2000/svg"
   xmlns:xlink="http://www.w3.org/1999/xlink"
   xmlns:sodipodi="http://sodipodi.sourceforge.net/DTD/sodipodi-0.dtd"
   xmlns:inkscape="http://www.inkscape.org/namespaces/inkscape"
   version="1.1"
   width="1455.6224"
   height="1455.6224"
   viewBox="0 0 410.809 410.809"
   id="svg2"
   xml:space="preserve"
   style="fill-rule:evenodd"
   sodipodi:docname="ru-ОТР.svg"
   inkscape:version="0.92.5 (2060ec1f9f, 2020-04-08)"><sodipodi:namedview
   pagecolor="#ffffff"
   bordercolor="#666666"
   borderopacity="1"
   objecttolerance="10"
   gridtolerance="10"
   guidetolerance="10"
   inkscape:pageopacity="0"
   inkscape:pageshadow="2"
   inkscape:window-width="1920"
   inkscape:window-height="1019"
   id="namedview17"
   showgrid="false"
   inkscape:zoom="0.49548468"
   inkscape:cx="596.57196"
   inkscape:cy="726.3933"
   inkscape:window-x="0"
   inkscape:window-y="0"
   inkscape:window-maximized="1"
   inkscape:current-layer="svg2" /><metadata
   id="metadata22"><rdf:RDF><cc:Work
       rdf:about=""><dc:format>image/svg+xml</dc:format><dc:type
         rdf:resource="http://purl.org/dc/dcmitype/StillImage" /><dc:title></dc:title></cc:Work></rdf:RDF></metadata>
 <defs
   id="defs4"><linearGradient
     id="linearGradient3783"><stop
       id="stop3785"
       style="stop-color:#ffffff;stop-opacity:1"
       offset="0" /><stop
       id="stop3787"
       style="stop-color:#ffffff;stop-opacity:0"
       offset="1" /></linearGradient><style
     type="text/css"
     id="style6" /><linearGradient
     x1="127.18229"
     y1="113.5108"
     x2="127.18229"
     y2="97.025146"
     id="linearGradient3789"
     xlink:href="#linearGradient3783"
     gradientUnits="userSpaceOnUse" /><linearGradient
     x1="127.18229"
     y1="113.5108"
     x2="127.18229"
     y2="97.025146"
     id="linearGradient3798"
     xlink:href="#linearGradient3783"
     gradientUnits="userSpaceOnUse" /><clipPath
     clipPathUnits="userSpaceOnUse"
     id="clipPath21"><rect
       style="fill:#00ffff;fill-opacity:0.08214285;stroke-width:0.35456029"
       id="rect23"
       width="57.462181"
       height="24.878782"
       x="92.599709"
       y="92.402771" /></clipPath></defs>
 
<g
   transform="matrix(7.249606,0,0,7.249606,-677.08058,-555.64246)"
   id="g3791"
   clip-path="url(#clipPath21)"><path
     d="m 188.202,98.1562 h 1.0674 v -2.2357 h 1.0364 v 2.2357 h 1.0674 v -4.9916 h -1.0674 v 1.9659 h -1.0364 v -1.9659 h -1.0674 z m -11.5146,-4.2476 h 1.0654 v 4.2476 h 1.0674 v -4.2476 h 1.0402 v -0.744 h -3.173 z m -15.5279,2.7686 2e-4,0.0141 v 5e-4 c 0.006,0.4496 -0.0838,0.8367 -0.6267,0.8367 h -0.4094 v -1.557 h 0.3731 c 0.3972,0 0.677,0.09 0.6628,0.7057 z m -0.4154,-1.4497 h -0.62 v -1.3189 h 1.5846 v -0.744 h -1.0123 -1.6402 v 4.9916 h 1.7573 v 5e-4 l 0.0376,-5e-4 h 5e-4 c 0.0757,-0.0015 0.1488,-0.0057 0.2192,-0.0126 h 5e-4 c 0.0674,-0.0066 0.1334,-0.0163 0.1977,-0.0286 0.7181,-0.139 0.9662,-0.6888 0.9589,-1.3837 v -0.0031 l 2e-4,-0.0141 c 0.0149,-0.9883 -0.5503,-1.4866 -1.484,-1.4866 z m -4.73,-0.8706 c -0.0319,-0.6095 1.0704,-0.6613 1.0359,0 l 2e-4,2.6037 c 0.0153,0.6422 -1.0645,0.6138 -1.0362,0 z m -1.0677,2.5128 c 0.021,0.8287 0.6268,1.4001 1.5033,1.4046 0.806,0.0041 1.6423,-0.4826 1.6684,-1.419 l -4e-4,-2.419 c -0.0212,-0.9387 -0.7055,-1.3584 -1.588,-1.3584 h -0.001 v -5e-4 c -0.8791,2e-4 -1.5729,0.4243 -1.5824,1.3859 l 3e-4,2.4064 z m 18.0393,0 c 0.021,0.8287 0.6268,1.4001 1.5033,1.4046 0.7808,0.004 1.5901,-0.4527 1.6636,-1.3326 l -0.9136,-0.1433 c -0.1029,0.2982 -0.2915,0.6213 -0.6415,0.6329 -0.2745,0.009 -0.5589,-0.1518 -0.5442,-0.4707 0,-0.8565 0,-1.7129 0,-2.5694 -0.0147,-0.3189 0.2697,-0.4798 0.5442,-0.4707 0.35,0.0115 0.5386,0.3346 0.6415,0.6328 l 0.9136,-0.1433 c -0.0735,-0.8798 -0.8828,-1.3365 -1.6636,-1.3325 -0.8765,0.0044 -1.4823,0.5758 -1.5033,1.4046 z m -3.6379,1.2865 h 2.7142 v -0.744 h -1.6468 c 0,-0.4802 0,-0.9605 0,-1.4407 h 1.3856 v -0.744 h -1.3856 v -1.3189 h 1.5851 v -0.744 h -2.6525 z m 15.2162,0 h 2.7141 v -0.744 h -1.6467 c 0,-0.4802 0,-0.9605 0,-1.4407 h 1.3856 v -0.744 h -1.3856 v -1.3189 h 1.585 v -0.744 h -2.6524 z m -16.3379,1.1878 v -1.9318 h -0.2723 v -4.2476 h -1.0674 v 4.2476 h -0.9012 v -4.2476 h -1.0673 v 4.2476 h -0.9012 v -4.2476 h -1.0674 v 4.9916 h 0.3865 0.6809 0.9012 1.0673 0.9012 0.5957 v 1.1878 z m 29.2628,-5.0026 c -0.0319,-0.6095 1.0704,-0.6613 1.0359,0 l 2e-4,2.6037 c 0.0153,0.6422 -1.0645,0.6138 -1.0362,0 z m -1.0677,2.5128 c 0.021,0.8287 0.6268,1.4001 1.5033,1.4046 0.806,0.0041 1.6423,-0.4826 1.6684,-1.419 l -4e-4,-2.419 c -0.0212,-0.9387 -0.7055,-1.3584 -1.588,-1.3584 h -0.001 v -5e-4 c -0.8791,2e-4 -1.5729,0.4243 -1.5824,1.3859 l 3e-4,2.4064 z m -13.9276,-0.1775 2e-4,0.014 v 5e-4 c 0.006,0.4496 -0.0838,0.8367 -0.6267,0.8367 h -0.4094 v -1.6951 h 0.3454 c 0.5659,0 0.702,0.3441 0.6905,0.8439 z m -0.0196,-2.2845 c 0.004,0.0587 0.005,0.1223 0.004,0.1816 -0.007,0.4105 -0.1686,0.6696 -0.6275,0.6696 h -0.392 v -1.4511 h 0.3688 c 0.4614,0 0.6214,0.1859 0.647,0.5999 z m 0.2085,1.1266 c 0.5223,-0.1979 0.7266,-0.6408 0.7368,-1.1633 0.002,-0.0955 -0.003,-0.1906 -0.0142,-0.2828 -0.0873,-0.7241 -0.6742,-0.9087 -1.3746,-0.9087 h -1.6402 v 4.9917 h 1.7573 v 5e-4 l 0.0376,-6e-4 h 5e-4 c 0.0757,-0.0014 0.1488,-0.0056 0.2192,-0.0126 h 5e-4 c 0.0674,-0.0066 0.1334,-0.0162 0.1977,-0.0286 0.7181,-0.1389 0.9662,-0.6887 0.9589,-1.3836 v -0.0031 l 2e-4,-0.0141 c 0.009,-0.6147 -0.2864,-0.9667 -0.8797,-1.1948 z m 17.9125,2.6374 h 2.7142 v -0.744 h -1.6468 c 0,-0.4802 0,-0.9605 0,-1.4407 h 1.3856 v -0.744 h -1.3856 v -1.3189 h 1.5851 v -0.744 h -2.6525 z m -8.2833,0 h 1.0674 v -2.2357 h 1.0364 v 2.2357 h 1.0673 v -4.9916 h -1.0673 v 1.9659 h -1.0364 v -1.9659 h -1.0674 z m -19.9096,6.2263 2e-4,0.014 v 5e-4 c 0.006,0.4496 -0.0839,0.8368 -0.6268,0.8368 h -0.4093 v -1.6952 h 0.3454 c 0.5658,0 0.702,0.3441 0.6905,0.8439 z m -0.0196,-2.2845 c 0.004,0.0587 0.005,0.1223 0.004,0.1816 -0.007,0.4105 -0.1686,0.6696 -0.6276,0.6696 h -0.3919 v -1.4511 h 0.3688 c 0.4614,0 0.6213,0.1859 0.647,0.5999 z m 0.2085,1.1266 c 0.5222,-0.1979 0.7266,-0.6408 0.7367,-1.1633 0.002,-0.0955 -0.003,-0.1906 -0.0141,-0.2828 -0.0874,-0.7241 -0.6743,-0.9087 -1.3747,-0.9087 h -1.6401 v 4.9917 h 1.7572 v 5e-4 l 0.0376,-5e-4 h 5e-4 c 0.0757,-0.002 0.1488,-0.006 0.2192,-0.0126 h 6e-4 c 0.0674,-0.007 0.1334,-0.0163 0.1977,-0.0286 0.718,-0.139 0.9662,-0.6888 0.9588,-1.3837 v -0.003 l 3e-4,-0.0141 c 0.009,-0.6147 -0.2864,-0.9667 -0.8797,-1.1948 z m -6.0662,2.638 h 2.7142 v -0.744 h -1.6468 c 0,-0.4803 0,-0.9606 0,-1.4408 h 1.3856 v -0.744 h -1.3856 v -1.3189 h 1.5851 v -0.744 h -2.6525 z m -2.8099,-4.2477 h 0.6041 v 4.2477 h 1.0674 v -4.9917 h -1.0674 -1.6716 v 3.8095 c 0,0.2959 -0.179,0.4863 -0.4587,0.4763 v 0.8371 c 0.8367,0.0181 1.5217,-0.3205 1.5266,-1.262 z m 14.9535,5.4354 v -1.9317 c 0.9277,0 0.8189,-0.7952 0.8189,-1.0344 v -3.2133 h 1.8095 1.0674 v 4.2477 h 0.438 v 1.9317 h -0.744 v -1.1877 h -2.6458 v 1.1877 z m 1.6255,-1.9317 h 1.0029 v -3.5037 h -0.742 l 3e-4,2.0258 c 0,0.9719 -0.0544,1.2539 -0.2612,1.4779 z m -20.3963,4.6355 c -0.032,-0.6096 1.0704,-0.6614 1.0359,0 l 1e-4,2.6036 c 0.0154,0.6423 -1.0645,0.6139 -1.0362,0 z m -1.0677,2.5127 c 0.0209,0.8288 0.6267,1.4002 1.5032,1.4046 0.806,0.004 1.6424,-0.4826 1.6685,-1.419 l -4e-4,-2.419 c -0.0212,-0.9386 -0.7056,-1.3583 -1.588,-1.3583 h -10e-4 v -5e-4 c -0.879,1e-4 -1.5729,0.4242 -1.5824,1.3859 l 4e-4,2.4063 z m 37.3918,-6.4042 h 2.7141 v -0.744 h -1.6467 c 0,-0.4803 0,-0.9606 0,-1.4408 h 1.3856 v -0.744 h -1.3856 v -1.3189 h 1.585 v -0.744 h -2.6524 z m -12.7257,0 h 2.7141 v -0.744 h -1.6467 c 0,-0.4803 0,-0.9606 0,-1.4408 h 1.3856 v -0.744 h -1.3856 v -1.3189 h 1.585 v -0.744 h -2.6524 z m -25.0547,0 h 2.7141 v -0.744 h -1.6467 c 0,-0.4803 0,-0.9606 0,-1.4408 h 1.3856 v -0.744 h -1.3856 v -1.3189 h 1.585 v -0.744 h -2.6524 z m -3.8553,-4.2477 h 1.0654 v 4.2477 h 1.0674 v -4.2477 h 1.0402 v -0.744 h -3.173 z m 12.0103,10.6674 c 0.021,0.8287 0.6268,1.4001 1.5033,1.4046 0.7808,0.004 1.5901,-0.4527 1.6636,-1.3326 l -0.9136,-0.1433 c -0.1029,0.2982 -0.2915,0.6213 -0.6415,0.6329 -0.2745,0.009 -0.5589,-0.1518 -0.5442,-0.4707 0,-0.8565 0,-1.7129 0,-2.5694 -0.0147,-0.3189 0.2697,-0.4798 0.5442,-0.4707 0.35,0.0115 0.5386,0.3346 0.6415,0.6328 l 0.9136,-0.1433 c -0.0735,-0.8798 -0.8828,-1.3365 -1.6636,-1.3325 -0.8765,0.004 -1.4823,0.5758 -1.5033,1.4046 z m -3.8834,0 c 0.021,0.8287 0.6268,1.4001 1.5033,1.4046 0.7808,0.004 1.5901,-0.4527 1.6636,-1.3326 l -0.9136,-0.1433 c -0.1029,0.2982 -0.2915,0.6213 -0.6415,0.6329 -0.2745,0.009 -0.5589,-0.1518 -0.5442,-0.4707 0,-0.8565 0,-1.7129 0,-2.5694 -0.0147,-0.3189 0.2697,-0.4798 0.5442,-0.4707 0.35,0.0115 0.5386,0.3346 0.6415,0.6328 l 0.9136,-0.1433 c -0.0735,-0.8798 -0.8828,-1.3365 -1.6636,-1.3325 -0.8765,0.004 -1.4823,0.5758 -1.5033,1.4046 z m 24.557,-6.4197 h 1.0674 v -2.2358 h 1.0364 v 2.2358 h 1.0674 v -4.9917 h -1.0674 v 1.9659 h -1.0364 v -1.9659 h -1.0674 z m -8.9746,7.7063 h -0.9815 v -3.2529 l -1.5642,3.2534 h -0.9821 v -4.9927 h 0.9821 v 3.0988 l 1.5642,-3.0983 h 0.9815 z m -0.2159,-7.7063 h -0.9815 v -3.253 l -1.5642,3.2535 h -0.9821 v -4.9927 h 0.9821 v 3.0988 l 1.5642,-3.0983 h 0.9815 z m 16.9712,0 h -0.9815 v -3.253 l -1.5643,3.2535 h -0.9821 v -4.9927 h 0.9821 v 3.0988 l 1.5643,-3.0983 h 0.9815 z m -21.0353,7.7063 h -0.9815 v -3.2529 l -1.5642,3.2534 h -0.9821 v -4.9927 h 0.9821 v 3.0988 l 1.5642,-3.0983 h 0.9815 z m -19.0687,0 h 1.0679 v -2.0849 h 0.8864 c 1.0123,0 1.2985,-0.6409 1.274,-1.5518 -0.033,-1.2231 -0.869,-1.3682 -1.9326,-1.3555 l -0.001,5e-4 h -0.0752 -1.219 v 4.9917 z m 1.5161,-4.3205 c 0.4498,0.0225 0.6445,0.1671 0.6445,0.768 0,0.4537 -0.0703,0.8004 -0.627,0.8004 h -0.4662 v -1.5723 c 0.1493,0 0.2995,-0.004 0.4487,0.004 z M 139.0875,96.9987 v 6.429 h 3.0987 c 1.7748,0 3.2145,-1.4397 3.2145,-3.2145 0,-1.7748 -1.4397,-3.2145 -3.2145,-3.2145 z m 0,10.3603 v 6.336 H 134.925 V 93.0675 h 7.2612 c 3.9458,0 7.1458,3.1999 7.1458,7.1457 0,3.9458 -3.2,7.1458 -7.1458,7.1458 z M 127.155,97.23 v 16.465 h -4.1625 V 97.23 h -4.7638 v -4.1625 h 13.69 V 97.23 Z"
     id="path10"
     style="fill:#232e84;fill-opacity:1;fill-rule:nonzero"
     inkscape:connector-curvature="0" /><path
     d="m 106.976,93.0472 c 5.726,0 10.3695,4.6435 10.3695,10.3695 0,5.726 -4.6435,10.3695 -10.3695,10.3695 -5.7259,0 -10.3695,-4.6435 -10.3695,-10.3695 0,-5.726 4.6436,-10.3695 10.3695,-10.3695 z m 0,4.46 c 3.2635,0 5.9095,2.646 5.9095,5.9095 0,3.2635 -2.646,5.9095 -5.9095,5.9095 -3.2634,0 -5.9095,-2.646 -5.9095,-5.9095 0,-3.2635 2.6461,-5.9095 5.9095,-5.9095 z"
     id="path12"
     style="fill:#ea4498;fill-opacity:1"
     inkscape:connector-curvature="0" /><path
     d="m 103.765,96.1692 c 5.726,0 10.3695,4.6435 10.3695,10.3695 0,5.726 -4.6435,10.3695 -10.3695,10.3695 -5.7259,0 -10.3695,-4.6435 -10.3695,-10.3695 0,-5.726 4.6436,-10.3695 10.3695,-10.3695 z m 0,4.46 c 3.2635,0 5.9095,2.646 5.9095,5.9095 0,3.2635 -2.646,5.9095 -5.9095,5.9095 -3.2634,0 -5.9095,-2.646 -5.9095,-5.9095 0,-3.2635 2.6461,-5.9095 5.9095,-5.9095 z"
     id="path14"
     style="fill:#13b5ea;fill-opacity:1"
     inkscape:connector-curvature="0" /><path
     d="m 112.427,112.238 c -1.5842,0.9813 -3.4516,1.5485 -5.4517,1.5485 -2.6538,0 -5.0746,-0.9981 -6.9089,-2.6385 1.0124,0.8134 2.2981,1.3005 3.6977,1.3005 2.424,0 4.5069,-1.4602 5.4183,-3.5486 2.1702,-0.8746 3.7024,-2.9998 3.7024,-5.4829 0,-1.3386 -0.4454,-2.5733 -1.1958,-3.564 1.5248,1.8053 2.4446,4.1384 2.4446,6.686 0,2.1052 -0.6283,4.0634 -1.7066,5.699 z m -13.3767,-2.1355 c -1.5248,-1.8053 -2.4445,-4.138 -2.4445,-6.6855 0,-2.1051 0.6283,-4.0637 1.7066,-5.6992 1.5842,-0.9813 3.4516,-1.5483 5.4517,-1.5483 2.6538,0 5.0746,0.9978 6.9089,2.6382 -1.0125,-0.8133 -2.2981,-1.3002 -3.6977,-1.3002 -2.424,0 -4.5069,1.46 -5.4183,3.5484 -2.1702,0.8746 -3.7024,3 -3.7024,5.4831 0,1.3384 0.4453,2.5728 1.1957,3.5635 z"
     id="path16"
     style="fill:#232e84;fill-opacity:1"
     inkscape:connector-curvature="0" /><path
     d="m 198.675,103.188 h -2.453 v -2.3171 h 2.6524 v 0.744 h -1.585 v 1.3189 h 1.3856 z m -3.6241,0 h -0.9815 v -0.5784 l -0.2781,0.5784 h -0.8918 l 1.1699,-2.3171 h 0.9815 z m -2.5458,0 h -0.9821 v -2.3176 h 0.9821 z m -2.0637,0 h -3.1712 v -2.3171 h 1.0674 v 1.9659 h 1.0364 v -1.9659 h 1.0674 z m -4.4921,0 h -2.453 v -2.3171 h 2.6524 v 0.744 h -1.585 v 1.3189 h 1.3856 z m -3.5848,0 h -1.0674 v -1.5731 h -0.742 l 2e-4,1.5731 h -1.0677 v -2.3171 h 1.8095 1.0674 z m -4.2848,0 h -0.9815 v -0.5784 l -0.2781,0.5784 h -0.8917 l 1.1698,-2.3171 h 0.9815 z m -2.5457,0 h -0.9821 v -2.3176 h 0.9821 z m -2.8559,0 h -2.379 v -2.3182 h 1.6401 c 0.7004,0 1.2873,0.1846 1.3747,0.9087 0.0111,0.0922 0.016,0.1873 0.0141,0.2828 -0.01,0.4925 -0.1916,0.9142 -0.6499,1.1267 z m -3.7,0 h -2.453 v -2.3171 h 2.6525 v 0.744 h -1.5851 v 1.3189 h 1.3856 z m -3.5914,0 h -1.0674 v -1.5731 h -0.6041 l 2e-4,1.5731 h -1.0677 v -2.3171 h 1.6716 1.0674 z m -4.4921,0 h -2.453 v -2.3171 h 2.6524 v 0.744 h -1.585 v 1.3189 h 1.3856 z m -4.1755,0 h -1.0674 v -1.5731 h -1.0654 v -0.744 h 3.173 v 0.744 h -1.0402 z m -8.0341,0 h -5.2794 c 1.1706,-0.4804 1.9954,-1.6314 1.9954,-2.9748 0,-1.7748 -1.4397,-3.2145 -3.2145,-3.2145 h -3.0987 v 6.1893 h -4.1625 V 93.0675 h 7.2612 c 3.9458,0 7.1458,3.1999 7.1458,7.1457 0,1.0616 -0.2319,2.069 -0.6473,2.9748 z m -21.5297,0 h -4.1625 V 97.23 h -4.7638 v -4.1625 h 13.69 V 97.23 h -4.7637 z m 44.5808,-1.6899 h -0.3688 v 1.4511 h 0.3919 c 0.459,0 0.6206,-0.2591 0.6276,-0.6696 0.001,-0.0593 0,-0.1229 -0.004,-0.1816 -0.0255,-0.414 -0.18545,-0.5999 -0.64685,-0.5999 z m -64.7599,-8.4509 c 5.6495,0 10.2449,4.5204 10.3666,10.1408 h -8.71 c -1.0659,-1.5456 -2.8484,-2.5588 -4.8678,-2.5588 -0.7802,0 -1.5247,0.1513 -2.2066,0.426 -0.2869,0.6574 -0.458,1.3769 -0.4868,2.1328 h -7.1222 c 0.7815,-2.2891 2.3414,-4.218 4.3637,-5.4708 1.8546,-2.8133 5.0423,-4.67 8.6631,-4.67 z"
     id="path18"
     style="fill:url(#linearGradient3798);fill-opacity:1;fill-rule:nonzero"
     inkscape:connector-curvature="0" /></g></svg>