<?xml version="1.0" encoding="UTF-8" standalone="no"?>
<!-- Generator: Adobe Illustrator 15.1.0, SVG Export Plug-In . SVG Version: 6.00 Build 0)  -->

<svg
   xmlns:dc="http://purl.org/dc/elements/1.1/"
   xmlns:cc="http://creativecommons.org/ns#"
   xmlns:rdf="http://www.w3.org/1999/02/22-rdf-syntax-ns#"
   xmlns:svg="http://www.w3.org/2000/svg"
   xmlns="http://www.w3.org/2000/svg"
   xmlns:sodipodi="http://sodipodi.sourceforge.net/DTD/sodipodi-0.dtd"
   xmlns:inkscape="http://www.inkscape.org/namespaces/inkscape"
   version="1.1"
   id="Layer_1"
   x="0px"
   y="0px"
   width="1455.6224"
   height="1455.6224"
   viewBox="0 0 1455.6224 1455.6224"
   enable-background="new 0 0 1190.55 841.89"
   xml:space="preserve"
   inkscape:version="0.92.5 (2060ec1f9f, 2020-04-08)"
   sodipodi:docname="ru-Бибигон.svg"><metadata
   id="metadata11925"><rdf:RDF><cc:Work
       rdf:about=""><dc:format>image/svg+xml</dc:format><dc:type
         rdf:resource="http://purl.org/dc/dcmitype/StillImage" /><dc:title></dc:title></cc:Work></rdf:RDF></metadata><defs
   id="defs11923" /><sodipodi:namedview
   pagecolor="#ffffff"
   bordercolor="#666666"
   borderopacity="1"
   objecttolerance="10"
   gridtolerance="10"
   guidetolerance="10"
   inkscape:pageopacity="0"
   inkscape:pageshadow="2"
   inkscape:window-width="1920"
   inkscape:window-height="1019"
   id="namedview11921"
   showgrid="false"
   fit-margin-top="4"
   fit-margin-left="4"
   fit-margin-right="4"
   fit-margin-bottom="4"
   inkscape:zoom="0.31001675"
   inkscape:cx="145.35266"
   inkscape:cy="690.15201"
   inkscape:window-x="0"
   inkscape:window-y="0"
   inkscape:window-maximized="1"
   inkscape:current-layer="Layer_1" />
<linearGradient
   id="SVGID_1_"
   gradientUnits="userSpaceOnUse"
   x1="679.65143"
   y1="348.80569"
   x2="679.65143"
   y2="450.0336"
   gradientTransform="matrix(6.3081139,0,0,6.3081139,-2996.7824,-1276.7249)">
	<stop
   offset="0"
   style="stop-color:#E50000"
   id="stop11866" />
	<stop
   offset="0.8419"
   style="stop-color:#DF0000"
   id="stop11868" />
	<stop
   offset="1"
   style="stop-color:#BC0000"
   id="stop11870" />
</linearGradient>

<linearGradient
   id="SVGID_2_"
   gradientUnits="userSpaceOnUse"
   x1="562.16553"
   y1="351.457"
   x2="562.16553"
   y2="462.4007"
   gradientTransform="matrix(6.3081139,0,0,6.3081139,-2996.7824,-1276.7249)">
	<stop
   offset="0"
   style="stop-color:#0085FF"
   id="stop11875" />
	<stop
   offset="0.1646"
   style="stop-color:#0076F0"
   id="stop11877" />
	<stop
   offset="0.4837"
   style="stop-color:#004DC9"
   id="stop11879" />
	<stop
   offset="0.9219"
   style="stop-color:#000C8A"
   id="stop11881" />
	<stop
   offset="1"
   style="stop-color:#00007E"
   id="stop11883" />
</linearGradient>










<g
   id="g862"
   transform="translate(-3.9999624,-557.49474)"><rect
     style="fill:url(#SVGID_1_);stroke-width:6.30811405"
     id="rect11872"
     height="332.63315"
     width="338.17169"
     y="1118.9894"
     x="1121.4507" /><rect
     style="fill:url(#SVGID_2_);stroke-width:6.30811405"
     id="rect11885"
     height="332.21683"
     width="1090.8495"
     y="1118.9894"
     x="3.9999859" /><path
     style="fill:#ffffff;stroke-width:6.30811405"
     inkscape:connector-curvature="0"
     id="path11887"
     d="m 1188.853,1412.0834 c -5.0401,-4.2265 -5.652,-11.7394 -1.4382,-16.7292 l 23.933,-28.1594 c 4.2327,-5.0339 11.7078,-5.6584 16.7354,-1.4382 v 0 c 5.0213,4.239 5.671,11.7331 1.4383,16.7417 l -23.933,28.1531 c -4.2265,5.015 -11.7079,5.671 -16.7355,1.432 z" /><path
     style="fill:#ffffff;stroke-width:6.30811405"
     inkscape:connector-curvature="0"
     id="path11889"
     d="m 1407.3598,1410.8154 c 4.9897,-4.239 5.6016,-11.7268 1.3499,-16.7291 l -23.832,-28.2477 c -4.2454,-5.0024 -11.7331,-5.6016 -16.7481,-1.3563 v 0 c -4.996,4.2643 -5.6016,11.7394 -1.3499,16.7607 l 23.8321,28.2477 c 4.239,4.9708 11.7267,5.589 16.748,1.3247 z" /><path
     style="fill:#ffffff;stroke-width:6.30811405"
     inkscape:connector-curvature="0"
     id="path11891"
     d="m 1296.6776,1378.7134 v 18.6721 -18.6721 c -0.1135,0 -0.2081,0 -0.3217,-0.063 -6.5604,-0.1136 -11.9665,5.1537 -12.0611,11.7204 l -0.1892,15.1774 c -0.1199,6.5415 5.1285,11.9601 11.6952,12.0737 6.5541,0.1009 11.9539,-5.1348 12.0548,-11.6953 l 0.2082,-15.2025 c 0.1009,-6.4343 -4.9708,-11.7457 -11.3862,-12.0359 z" /><path
     style="fill:#ffffff;stroke-width:6.30811405"
     inkscape:connector-curvature="0"
     id="path11893"
     d="m 1437.1152,1289.0184 c 0.5929,-6.5289 -4.2138,-12.3135 -10.7554,-12.9064 l -15.1457,-1.3437 c -6.5226,-0.5929 -12.3198,4.2265 -12.9254,10.7743 v 0 c -0.6119,6.5352 4.2328,12.326 10.7743,12.9127 l 15.1332,1.3247 c 6.5099,0.6119 12.3197,-4.2201 12.919,-10.7616 z" /><path
     style="fill:#ffffff;stroke-width:6.30811405"
     inkscape:connector-curvature="0"
     id="path11895"
     d="m 1216.4573,1213.1191 c 4.3779,-4.8635 3.9994,-12.3702 -0.8705,-16.7669 l -23.7563,-21.3908 c -4.8699,-4.4031 -12.3829,-4.0183 -16.8112,0.8705 v 0 c -4.3652,4.8635 -3.9993,12.3828 0.9021,16.7669 l 23.7627,21.4035 c 4.8509,4.3967 12.3765,4.0056 16.7732,-0.8832 z" /><path
     style="fill:#ffffff;stroke-width:6.30811405"
     inkscape:connector-curvature="0"
     id="path11897"
     d="m 1429.5328,1183.1177 c -3.8542,-5.2862 -11.2915,-6.4468 -16.584,-2.58 l -25.7876,18.8802 c -5.324,3.8669 -6.4721,11.3042 -2.5989,16.6345 v 0 c 3.8732,5.2673 11.3104,6.4406 16.6029,2.5485 l 25.8065,-18.8802 c 5.2925,-3.8479 6.4595,-11.2915 2.5611,-16.603 z" /><path
     style="fill:#ffffff;stroke-width:6.30811405"
     inkscape:connector-curvature="0"
     id="path11899"
     d="m 1195.8992,1297.7173 c -1.6843,-6.3523 -8.1816,-10.112 -14.5276,-8.434 l -14.6727,3.9237 c -6.3522,1.6653 -10.1245,8.1563 -8.4654,14.5338 v 0 c 1.6905,6.3397 8.1942,10.1183 14.5402,8.434 l 14.6663,-3.9173 c 6.346,-1.6906 10.1561,-8.188 8.4592,-14.5402 z" /><g
     transform="matrix(6.3081139,0,0,6.3081139,-2996.7824,-1276.725)"
     id="g11901">
	<path
   style="fill:#ffffff"
   inkscape:connector-curvature="0"
   id="path11903"
   d="M 506.572,398.932 H 495.91 v 4.896 h 4.735 c 1.707,0 3.35,0.129 5.024,1.289 1.644,1.127 2.674,2.802 2.674,5.218 0,2.255 -0.837,3.93 -1.9,4.993 -1.61,1.61 -3.446,1.836 -5.379,1.836 h -10.308 v -22.098 h 15.815 v 3.866 z m -10.662,14.366 h 4.155 c 0.773,0 1.481,-0.032 2.223,-0.773 0.709,-0.709 0.806,-1.514 0.806,-2.126 0,-0.709 -0.193,-1.417 -0.806,-2.029 -0.741,-0.741 -1.675,-0.806 -2.352,-0.806 h -4.026 z" />
	<path
   style="fill:#ffffff"
   inkscape:connector-curvature="0"
   id="path11905"
   d="m 517.362,395.066 v 11.468 c 0,1.514 -0.129,2.448 -0.161,2.738 0.226,-0.838 0.676,-1.676 0.869,-1.997 l 6.668,-10.63 v -1.579 h 5.154 v 22.098 h -5.154 v -11.5 c 0,-1.546 0.097,-2.479 0.161,-2.866 -0.193,0.644 -0.612,1.578 -0.87,1.997 l -6.667,10.598 v 1.771 h -5.154 v -22.098 z" />
	<path
   style="fill:#ffffff"
   inkscape:connector-curvature="0"
   id="path11907"
   d="m 550.216,398.932 h -10.661 v 4.896 h 4.734 c 1.708,0 3.351,0.129 5.025,1.289 1.643,1.127 2.674,2.802 2.674,5.218 0,2.255 -0.838,3.93 -1.9,4.993 -1.611,1.61 -3.447,1.836 -5.38,1.836 H 534.4 v -22.098 h 15.815 v 3.866 z m -10.661,14.366 h 4.155 c 0.772,0 1.481,-0.032 2.223,-0.773 0.708,-0.709 0.805,-1.514 0.805,-2.126 0,-0.709 -0.193,-1.417 -0.805,-2.029 -0.741,-0.741 -1.676,-0.806 -2.352,-0.806 h -4.026 z" />
	<path
   style="fill:#ffffff"
   inkscape:connector-curvature="0"
   id="path11909"
   d="m 561.006,395.066 v 11.468 c 0,1.514 -0.129,2.448 -0.161,2.738 0.226,-0.838 0.677,-1.676 0.87,-1.997 l 6.668,-10.63 v -1.579 h 5.153 v 22.098 h -5.153 v -11.5 c 0,-1.546 0.097,-2.479 0.161,-2.866 -0.193,0.644 -0.612,1.578 -0.87,1.997 l -6.668,10.598 v 1.771 h -5.153 v -22.098 z" />
	<path
   style="fill:#ffffff"
   inkscape:connector-curvature="0"
   id="path11911"
   d="m 592.314,395.066 v 4.06 h -9.116 v 18.038 h -5.153 v -22.098 z" />
	<path
   style="fill:#ffffff"
   inkscape:connector-curvature="0"
   id="path11913"
   d="m 596.211,397 c 2.126,-1.901 4.574,-2.255 6.41,-2.255 1.836,0 4.284,0.354 6.41,2.255 1.965,1.771 3.543,4.863 3.543,9.115 0,3.736 -1.224,6.926 -3.317,8.891 -1.257,1.191 -3.415,2.48 -6.636,2.48 -3.222,0 -5.38,-1.289 -6.636,-2.48 -2.094,-1.965 -3.317,-5.154 -3.317,-8.891 0,-4.252 1.578,-7.344 3.543,-9.115 z m 3.156,14.655 c 0.612,0.999 1.676,1.965 3.254,1.965 1.578,0 2.642,-0.966 3.253,-1.965 0.451,-0.74 1.16,-2.318 1.16,-5.604 0,-3.285 -0.741,-4.832 -1.16,-5.508 -0.934,-1.481 -2.062,-1.933 -3.253,-1.933 -1.192,0 -2.319,0.451 -3.254,1.933 -0.418,0.676 -1.159,2.223 -1.159,5.508 0,3.285 0.709,4.864 1.159,5.604 z" />
	<path
   style="fill:#ffffff"
   inkscape:connector-curvature="0"
   id="path11915"
   d="m 633.575,417.164 h -5.154 v -9.374 h -7.247 v 9.374 h -5.154 v -22.098 h 5.154 v 8.665 h 7.247 v -8.665 h 5.154 z" />
</g><path
     style="fill:#ffffff;stroke-width:6.30811405"
     inkscape:connector-curvature="0"
     id="path11917"
     d="m 1252.054,1152.3972 c -0.738,0 -1.5707,0.01 -1.5707,0.01 -3.0216,0 -5.4754,2.3719 -5.4754,5.3872 0,2.744 2.0312,4.9771 4.6743,5.3871 l 0.1577,0.063 c 0,0 92.8554,10.831 97.5991,112.2276 l 0.044,1.5266 c 0.1072,10.0425 -0.7948,18.8802 -0.7948,18.8802 -1.4761,12.263 -4.9141,19.8453 -4.9141,19.8453 -3.1414,8.6421 -8.5348,12.7739 -8.5348,12.7739 -5.4124,4.3148 -11.8151,7.1787 -11.8151,7.1787 -6.9705,2.744 -11.67,3.7218 -11.67,3.7218 -3.337,0.7254 -7.3805,1.0786 -10.0552,1.249 v -0.01 c 0,0 -50.5974,3.9425 -55.0635,-41.5264 -4.1444,-42.1949 3.9426,-57.8895 21.5107,-60.5642 l -5.5196,-30.0329 c -25.9769,0.7065 -58.5456,17.6627 -55.6818,81.9235 3.1541,70.7013 36.278,76.1515 91.7326,76.1515 5.4881,0 11.1023,-0.1387 16.931,-0.3974 6.4848,-0.3028 12.7929,-0.9399 18.8865,-1.9176 6.1063,-0.9904 11.8466,-2.5611 17.2779,-4.7122 5.3998,-2.2015 10.2759,-5.1411 14.5844,-8.8881 4.9266,-4.3148 8.762,-9.4054 11.5312,-15.2089 2.7504,-5.8035 4.8383,-11.67 6.1757,-17.5807 1.3941,-5.8981 2.2141,-11.6196 2.5232,-17.1265 0.2965,-5.5196 0.3722,-10.2381 0.3722,-14.1681 v -1.5202 c 0,-124.7177 -132.9057,-132.647 -132.9057,-132.647 z" /><path
     style="fill:#ffffff;stroke-width:6.30811405"
     inkscape:connector-curvature="0"
     id="path11919"
     d="m 1224.1343,1223.0607 c 0,0 14.2437,-14.7294 36.4925,-14.5717 24.2231,0.1766 47.683,9.2477 49.0582,58.5267 0,0 1.3814,44.4532 -16.7544,35.092 0,0 -5.2231,-0.9841 -2.7629,-11.8277 1.6022,-7.0525 4.9266,-54.8049 -27.0051,-50.6605 0,0 -8.8692,1.7726 -13.0136,8.4781" /></g>
</svg>