<?xml version="1.0" encoding="UTF-8" standalone="no"?>
<!-- Created with Inkscape (http://www.inkscape.org/) -->

<svg
   xmlns:dc="http://purl.org/dc/elements/1.1/"
   xmlns:cc="http://creativecommons.org/ns#"
   xmlns:rdf="http://www.w3.org/1999/02/22-rdf-syntax-ns#"
   xmlns:svg="http://www.w3.org/2000/svg"
   xmlns="http://www.w3.org/2000/svg"
   xmlns:xlink="http://www.w3.org/1999/xlink"
   xmlns:sodipodi="http://sodipodi.sourceforge.net/DTD/sodipodi-0.dtd"
   xmlns:inkscape="http://www.inkscape.org/namespaces/inkscape"
   version="1.1"
   width="1455.6224"
   height="1455.6224"
   id="svg2"
   sodipodi:docname="ru-Мир.svg"
   inkscape:version="0.92.5 (2060ec1f9f, 2020-04-08)">
  <sodipodi:namedview
     pagecolor="#ffffff"
     bordercolor="#666666"
     borderopacity="1"
     objecttolerance="10"
     gridtolerance="10"
     guidetolerance="10"
     inkscape:pageopacity="0"
     inkscape:pageshadow="2"
     inkscape:window-width="1920"
     inkscape:window-height="1019"
     id="namedview52"
     showgrid="false"
     inkscape:zoom="0.36875"
     inkscape:cx="94.749233"
     inkscape:cy="445.26348"
     inkscape:window-x="0"
     inkscape:window-y="0"
     inkscape:window-maximized="1"
     inkscape:current-layer="svg2" />
  <desc
     id="desc4">Created with graphing.ru and Raphael</desc>
  <metadata
     id="metadata12">
    <rdf:RDF>
      <cc:Work
         rdf:about="">
        <dc:format>image/svg+xml</dc:format>
        <dc:type
           rdf:resource="http://purl.org/dc/dcmitype/StillImage" />
        <dc:title></dc:title>
      </cc:Work>
    </rdf:RDF>
  </metadata>
  <defs
     id="defs6">
    <linearGradient
       id="linearGradient3796">
      <stop
         id="stop3798"
         style="stop-color:#012ba8;stop-opacity:1"
         offset="0" />
      <stop
         id="stop3800"
         style="stop-color:#0068e3;stop-opacity:1"
         offset="1" />
    </linearGradient>
    <linearGradient
       id="linearGradient3775">
      <stop
         id="stop3777"
         style="stop-color:#003db9;stop-opacity:1"
         offset="0" />
      <stop
         id="stop3779"
         style="stop-color:#ffffff;stop-opacity:1"
         offset="1" />
    </linearGradient>
    <linearGradient
       id="linearGradient3763">
      <stop
         id="stop3765"
         style="stop-color:#c40000;stop-opacity:1"
         offset="0" />
      <stop
         id="stop3767"
         style="stop-color:#ffffff;stop-opacity:1"
         offset="1" />
    </linearGradient>
    <linearGradient
       x1="609.99133"
       y1="8.8892984"
       x2="609.99133"
       y2="86.089096"
       id="linearGradient3769"
       xlink:href="#linearGradient3763"
       gradientUnits="userSpaceOnUse"
       gradientTransform="translate(-60)" />
    <linearGradient
       x1="609.99133"
       y1="8.8892984"
       x2="609.99133"
       y2="86.089096"
       id="linearGradient3773"
       xlink:href="#linearGradient3775"
       gradientUnits="userSpaceOnUse"
       gradientTransform="matrix(3.2214765,0,0,1,-1775.0336,0)" />
    <linearGradient
       x1="609.99133"
       y1="8.8892984"
       x2="609.99133"
       y2="86.089096"
       id="linearGradient3891"
       xlink:href="#linearGradient3763"
       gradientUnits="userSpaceOnUse"
       gradientTransform="translate(-60)" />
    <linearGradient
       x1="609.99133"
       y1="8.8892984"
       x2="609.99133"
       y2="86.089096"
       id="linearGradient3893"
       xlink:href="#linearGradient3775"
       gradientUnits="userSpaceOnUse"
       gradientTransform="matrix(3.2214765,0,0,1,-1775.0336,0)" />
    <linearGradient
       x1="609.99133"
       y1="8.8892984"
       x2="609.99133"
       y2="86.089096"
       id="linearGradient3951"
       xlink:href="#linearGradient3763"
       gradientUnits="userSpaceOnUse"
       gradientTransform="translate(-60)" />
    <linearGradient
       x1="609.99133"
       y1="8.8892984"
       x2="609.99133"
       y2="86.089096"
       id="linearGradient3953"
       xlink:href="#linearGradient3775"
       gradientUnits="userSpaceOnUse"
       gradientTransform="matrix(3.2214765,0,0,1,-1775.0336,0)" />
    <linearGradient
       x1="609.99133"
       y1="8.8892984"
       x2="609.99133"
       y2="86.089096"
       id="linearGradient3956"
       xlink:href="#linearGradient3775"
       gradientUnits="userSpaceOnUse"
       gradientTransform="matrix(4.0268456,0,0,1.25,-2289.5574,164.61729)" />
    <linearGradient
       x1="609.99133"
       y1="8.8892984"
       x2="609.99133"
       y2="86.089096"
       id="linearGradient3959"
       xlink:href="#linearGradient3763"
       gradientUnits="userSpaceOnUse"
       gradientTransform="matrix(1.25,0,0,1.25,-25.76543,164.61729)" />
    <linearGradient
       x1="609.99133"
       y1="8.8892984"
       x2="609.99133"
       y2="86.089096"
       id="linearGradient3773-5"
       xlink:href="#linearGradient3775-9"
       gradientUnits="userSpaceOnUse"
       gradientTransform="matrix(3.2214765,0,0,1,-1775.0336,0)" />
    <linearGradient
       x1="609.99133"
       y1="8.8892984"
       x2="609.99133"
       y2="86.089096"
       id="linearGradient3769-5"
       xlink:href="#linearGradient3763-8"
       gradientUnits="userSpaceOnUse"
       gradientTransform="translate(-60)" />
    <linearGradient
       id="linearGradient3763-8">
      <stop
         id="stop3765-2"
         style="stop-color:#c40000;stop-opacity:1"
         offset="0" />
      <stop
         id="stop3767-4"
         style="stop-color:#ffffff;stop-opacity:1"
         offset="1" />
    </linearGradient>
    <linearGradient
       id="linearGradient3775-9">
      <stop
         id="stop3777-4"
         style="stop-color:#003db9;stop-opacity:1"
         offset="0" />
      <stop
         id="stop3779-8"
         style="stop-color:#ffffff;stop-opacity:1"
         offset="1" />
    </linearGradient>
    <linearGradient
       x1="599.7522"
       y1="181.46066"
       x2="599.7522"
       y2="1.018748"
       id="linearGradient3802"
       xlink:href="#linearGradient3796"
       gradientUnits="userSpaceOnUse" />
  </defs>
  <g
     id="g882"
     transform="matrix(4.8520748,0,0,4.8520748,-48.520744,-5558.6451)">
    <g
       id="g3879"
       transform="matrix(0.65697935,0,0,0.65697935,-307.91257,1130.1664)">
      <g
         id="g3861"
         transform="rotate(-3.0000002,712.21867,251.84379)">
        <path
           inkscape:connector-curvature="0"
           style="fill:#8ec244;fill-opacity:1;stroke:none"
           id="path3863"
           d="m 712.21875,23.53125 c -30.96334,0 -60.48204,6.176653 -87.40625,17.34375 l 38.0625,91.84375 c 15.19859,-6.30135 31.86629,-9.8125 49.34375,-9.8125 17.46721,0 34.12111,3.51815 49.3125,9.8125 l 38.0625,-91.875 c -26.9141,-11.157243 -56.42608,-17.3125 -87.375,-17.3125 z" />
        <path
           inkscape:connector-curvature="0"
           style="fill:#229ed4;fill-opacity:1;stroke:none"
           id="path3865"
           d="m 501.21875,164.46875 c -11.15806,26.91494 -17.3125,56.42488 -17.3125,87.375 0,30.95012 6.15444,60.46006 17.3125,87.375 l 91.875,-38.03125 c -6.30135,-15.19859 -9.8125,-31.86629 -9.8125,-49.34375 0,-17.47746 3.51115,-34.14516 9.8125,-49.34375 z" />
        <path
           inkscape:connector-curvature="0"
           style="fill:#8ec244;fill-opacity:1;stroke:none"
           id="path3867"
           d="M 923.1875,164.46875 831.34375,202.5 c 6.30136,15.19859 9.78125,31.86629 9.78125,49.34375 0,17.47746 -3.47989,34.14516 -9.78125,49.34375 l 91.84375,38.03125 c 11.16009,-26.91702 17.34375,-56.42192 17.34375,-87.375 0,-30.95308 -6.18366,-60.45798 -17.34375,-87.375 z" />
        <path
           inkscape:connector-curvature="0"
           style="fill:#229ed4;fill-opacity:1;stroke:none"
           id="path3869"
           d="M 662.84375,370.96875 624.8125,462.8125 c 26.92421,11.1671 56.44291,17.34375 87.40625,17.34375 30.95308,0 60.45798,-6.18366 87.375,-17.34375 L 761.5625,370.96875 c -15.19859,6.30136 -31.86629,9.78125 -49.34375,9.78125 -17.48771,0 -34.16922,-3.47289 -49.375,-9.78125 z" />
        <path
           inkscape:connector-curvature="0"
           style="fill:#b2ce3b;fill-opacity:1;stroke:none"
           id="path3871"
           d="m 799.59375,40.84375 -38.0625,91.875 c 31.53269,13.06514 56.74048,38.25213 69.8125,69.78125 L 923.1875,164.46875 C 900.04215,108.64448 855.41947,63.98631 799.59375,40.84375 Z" />
        <path
           inkscape:connector-curvature="0"
           style="fill:#2ea86f;fill-opacity:1;stroke:none"
           id="path3873"
           d="M 624.8125,40.875 C 569.00176,64.023088 524.35799,108.65341 501.21875,164.46875 l 91.875,38.03125 c 13.06832,-31.5202 38.26105,-56.71293 69.78125,-69.78125 z" />
        <path
           inkscape:connector-curvature="0"
           style="fill:#207ab8;fill-opacity:1;stroke:none"
           id="path3875"
           d="m 593.09375,301.1875 -91.875,38.03125 c 23.13924,55.81534 67.78301,100.44566 123.59375,123.59375 l 38.03125,-91.84375 c -31.50772,-13.07149 -56.68538,-38.26996 -69.75,-69.78125 z" />
        <path
           inkscape:connector-curvature="0"
           style="fill:#2ea86f;fill-opacity:1;stroke:none"
           id="path3877"
           d="m 831.34375,301.1875 c -13.06832,31.5202 -38.26105,56.71293 -69.78125,69.78125 l 38.03125,91.84375 C 855.4144,439.66865 900.04365,395.0394 923.1875,339.21875 Z" />
      </g>
      <g
         id="g3851">
        <path
           inkscape:connector-curvature="0"
           style="fill:#8ec244;fill-opacity:1;stroke:none"
           id="path3841"
           d="m 712.21875,23.53125 c -30.96334,0 -60.48204,6.176653 -87.40625,17.34375 l 38.0625,91.84375 c 15.19859,-6.30135 31.86629,-9.8125 49.34375,-9.8125 17.46721,0 34.12111,3.51815 49.3125,9.8125 l 38.0625,-91.875 c -26.9141,-11.157243 -56.42608,-17.3125 -87.375,-17.3125 z" />
        <path
           inkscape:connector-curvature="0"
           style="fill:#229ed4;fill-opacity:1;stroke:none"
           id="path3839"
           d="m 501.21875,164.46875 c -11.15806,26.91494 -17.3125,56.42488 -17.3125,87.375 0,30.95012 6.15444,60.46006 17.3125,87.375 l 91.875,-38.03125 c -6.30135,-15.19859 -9.8125,-31.86629 -9.8125,-49.34375 0,-17.47746 3.51115,-34.14516 9.8125,-49.34375 z" />
        <path
           inkscape:connector-curvature="0"
           style="fill:#8ec244;fill-opacity:1;stroke:none"
           id="path3837"
           d="M 923.1875,164.46875 831.34375,202.5 c 6.30136,15.19859 9.78125,31.86629 9.78125,49.34375 0,17.47746 -3.47989,34.14516 -9.78125,49.34375 l 91.84375,38.03125 c 11.16009,-26.91702 17.34375,-56.42192 17.34375,-87.375 0,-30.95308 -6.18366,-60.45798 -17.34375,-87.375 z" />
        <path
           inkscape:connector-curvature="0"
           style="fill:#229ed4;fill-opacity:1;stroke:none"
           id="path3815"
           d="M 662.84375,370.96875 624.8125,462.8125 c 26.92421,11.1671 56.44291,17.34375 87.40625,17.34375 30.95308,0 60.45798,-6.18366 87.375,-17.34375 L 761.5625,370.96875 c -15.19859,6.30136 -31.86629,9.78125 -49.34375,9.78125 -17.48771,0 -34.16922,-3.47289 -49.375,-9.78125 z" />
        <path
           inkscape:connector-curvature="0"
           style="fill:#b2ce3b;fill-opacity:1;stroke:none"
           id="path3849"
           d="m 799.59375,40.84375 -38.0625,91.875 c 31.53269,13.06514 56.74048,38.25213 69.8125,69.78125 L 923.1875,164.46875 C 900.04215,108.64448 855.41947,63.98631 799.59375,40.84375 Z" />
        <path
           inkscape:connector-curvature="0"
           style="fill:#2ea86f;fill-opacity:1;stroke:none"
           id="path3847"
           d="M 624.8125,40.875 C 569.00176,64.023088 524.35799,108.65341 501.21875,164.46875 l 91.875,38.03125 c 13.06832,-31.5202 38.26105,-56.71293 69.78125,-69.78125 z" />
        <path
           inkscape:connector-curvature="0"
           style="fill:#207ab8;fill-opacity:1;stroke:none"
           id="path3845"
           d="m 593.09375,301.1875 -91.875,38.03125 c 23.13924,55.81534 67.78301,100.44566 123.59375,123.59375 l 38.03125,-91.84375 c -31.50772,-13.07149 -56.68538,-38.26996 -69.75,-69.78125 z" />
        <path
           inkscape:connector-curvature="0"
           style="fill:#2ea86f;fill-opacity:1;stroke:none"
           id="path3829"
           d="m 831.34375,301.1875 c -13.06832,31.5202 -38.26105,56.71293 -69.78125,69.78125 l 38.03125,91.84375 C 855.4144,439.66865 900.04365,395.0394 923.1875,339.21875 Z" />
      </g>
    </g>
    <path
       inkscape:connector-curvature="0"
       style="font-style:normal;font-variant:normal;font-weight:300;font-stretch:normal;font-size:91.88478851px;line-height:125%;font-family:Helios-Black;-inkscape-font-specification:'Helios-Black Light';letter-spacing:0px;word-spacing:0px;fill:#000000;fill-opacity:1;stroke:none"
       id="path3924"
       d="m 91.613,1275.3793 v 42.1494 h 13.83762 v -22.9738 l 6.95988,10.5322 h 3.69551 l 6.95987,-10.5322 v 22.9738 h 13.83763 v -42.1494 h -14.14559 l -8.49967,13.4476 -8.49967,-13.4476 z m 92.89192,42.1477 h -13.2587 v -20.6093 l -12.85197,20.6093 h -13.6631 v -42.1392 h 13.86531 v 20.7644 l 12.30236,-20.7644 h 13.6061 z m 27.6389,-32.0872 h -5.7416 v 12.8832 h 5.7416 c 6.36081,0 6.51758,-12.8832 0,-12.8832 z m 1.33579,22.7517 h -7.07739 v 9.3355 h -14.09241 v -29.7587 -12.3805 h 21.1698 c 23.58961,-0.2283 22.73021,32.9919 0,32.8037 z" />
  </g>
</svg>
