<?xml version="1.0" encoding="UTF-8" standalone="no"?>
<!-- Generator: Adobe Illustrator 16.0.3, SVG Export Plug-In . SVG Version: 6.00 Build 0)  -->

<svg
   xmlns:dc="http://purl.org/dc/elements/1.1/"
   xmlns:cc="http://creativecommons.org/ns#"
   xmlns:rdf="http://www.w3.org/1999/02/22-rdf-syntax-ns#"
   xmlns:svg="http://www.w3.org/2000/svg"
   xmlns="http://www.w3.org/2000/svg"
   xmlns:sodipodi="http://sodipodi.sourceforge.net/DTD/sodipodi-0.dtd"
   xmlns:inkscape="http://www.inkscape.org/namespaces/inkscape"
   version="1.1"
   id="Layer_1"
   x="0px"
   y="0px"
   width="1455.6224"
   height="1455.6224"
   viewBox="0 0 1455.6224 1455.6224"
   enable-background="new 0 0 595.28 841.89"
   xml:space="preserve"
   sodipodi:docname="ru-Вместе-РФ.svg"
   inkscape:version="0.92.5 (2060ec1f9f, 2020-04-08)"><metadata
   id="metadata101"><rdf:RDF><cc:Work
       rdf:about=""><dc:format>image/svg+xml</dc:format><dc:type
         rdf:resource="http://purl.org/dc/dcmitype/StillImage" /><dc:title></dc:title></cc:Work></rdf:RDF></metadata><defs
   id="defs99" /><sodipodi:namedview
   pagecolor="#ffffff"
   bordercolor="#666666"
   borderopacity="1"
   objecttolerance="10"
   gridtolerance="10"
   guidetolerance="10"
   inkscape:pageopacity="0"
   inkscape:pageshadow="2"
   inkscape:window-width="1920"
   inkscape:window-height="1019"
   id="namedview97"
   showgrid="false"
   inkscape:zoom="0.39643468"
   inkscape:cx="601.23603"
   inkscape:cy="490.94975"
   inkscape:window-x="0"
   inkscape:window-y="0"
   inkscape:window-maximized="1"
   inkscape:current-layer="Layer_1" />










<g
   id="g955"
   transform="matrix(2.8349728,0,0,2.8349728,-125.79626,-406.27287)"><g
     id="g26">
	<g
   id="g6">
		<path
   id="path2"
   d="m 391.254,498.031 c -91.995,0 -166.572,-74.576 -166.572,-166.571 0,-91.995 74.577,-166.571 166.572,-166.571 91.994,0 166.571,74.577 166.571,166.571 0,91.995 -74.577,166.571 -166.571,166.571 z"
   inkscape:connector-curvature="0"
   style="fill:#d3d2d5" />
		<circle
   id="circle4"
   r="166.571"
   cy="331.45999"
   cx="391.254"
   style="fill:#d3d2d5" />
	</g>
	<path
   id="path8"
   d="m 170.416,196.542 c 25.936,-3.608 51.056,-19.789 76.682,-27.707 -11.641,-2.577 -23.736,-3.947 -36.153,-3.947 -30.712,0 -59.477,8.321 -84.18,22.819 11.868,8.875 27.863,11.033 43.651,8.835 z"
   inkscape:connector-curvature="0"
   style="fill:#2a3b8e" />
	<g
   id="g12">
		<path
   id="path10"
   d="m 367.019,273.161 c -17.429,13.008 -43.829,18.151 -61.723,17.167 -37.6,-2.069 -105.508,-70.463 -149.223,-78.65 -27.281,-5.109 -53.281,1.404 -71.315,12.014 -1.107,0.652 -2.086,1.505 -2.899,2.5 -13.746,16.835 -24.259,36.409 -30.605,57.778 32.873,-45.313 77.329,-27.063 121.585,5.146 70.154,51.061 139.625,98.73 197.873,73.208 2.734,-1.198 4.631,-3.765 5.061,-6.72 1.146,-7.883 1.743,-15.943 1.743,-24.144 0,-20.511 -3.716,-40.153 -10.497,-58.299 z"
   inkscape:connector-curvature="0"
   style="fill:#c40006" />
	</g>
	<g
   id="g16">
		<path
   id="path14"
   d="m 55.901,389.489 c -0.538,0.259 -0.795,0.897 -0.582,1.455 6.353,16.611 15.284,31.946 26.311,45.51 0.255,0.313 0.658,0.465 1.057,0.404 39.955,-5.998 79.814,30.14 119.313,60.729 0.187,0.145 0.412,0.228 0.647,0.239 2.749,0.135 5.515,0.204 8.297,0.204 33.221,0 64.163,-9.733 90.147,-26.492 -2.984,-1.926 -5.902,-3.946 -8.752,-6.054 C 171.413,461.379 144.366,346.91 55.901,389.489 Z"
   inkscape:connector-curvature="0"
   style="fill:#6fa9de" />
	</g>
	<g
   id="g20">
		<path
   id="path18"
   d="m 136.462,435.505 c -16.137,-1.402 -41.847,-6.578 -66.695,-15.623 29.46,46.938 81.67,78.149 141.177,78.149 4.737,0 9.424,-0.208 14.06,-0.596 37.13,-28.852 74.564,-62.152 112.107,-60.337 1.598,0.077 3.143,-0.62 4.14,-1.871 11.106,-13.93 20.02,-29.685 26.232,-46.737 0.439,-1.204 0.064,-2.562 -0.917,-3.386 -42.685,-35.821 -153.972,57.064 -230.104,50.401 z"
   inkscape:connector-curvature="0"
   style="fill:#2a3b8e" />
	</g>
	<g
   id="g24">
		<path
   id="path22"
   d="m 253.717,289.752 c 41.034,-29.874 82.251,-47.713 114.24,-14.007 -12.503,-35.233 -36.523,-65.006 -67.539,-84.797 -2.818,-1.799 -6.109,-2.743 -9.452,-2.675 -10.816,0.22 -22.871,1.505 -36.39,3.993 C 191.29,203.907 130.978,257.502 81.07,227.169 58.117,255.716 44.373,291.98 44.373,331.46 c 0,8.595 0.661,17.035 1.917,25.279 0.14,0.917 0.693,1.727 1.5,2.185 59.841,33.976 132.498,-15.725 205.927,-69.172 z"
   inkscape:connector-curvature="0"
   style="fill:#6fa9de" />
	</g>
</g><path
     id="path28"
     d="m 118.052,559.449 c 2.79,2.97 3.96,6.569 3.96,11.069 0,11.25 -7.56,18.359 -19.619,18.359 H 75.574 V 524.8 h 25.739 c 12.06,0 19.799,6.84 19.799,17.639 0,6.12 -2.61,10.62 -7.919,13.59 2.519,1.35 3.509,2.071 4.859,3.42 z m -17.729,-8.729 c 5.13,0 8.28,-2.79 8.28,-7.38 0,-4.59 -3.15,-7.38 -8.28,-7.38 h -12.24 v 14.76 z m 0.81,26.999 c 5.129,0 8.37,-3.061 8.37,-7.92 0,-4.86 -3.24,-7.83 -8.37,-7.83 h -13.05 v 15.75 z"
     inkscape:connector-curvature="0"
     style="fill:#2c3d8e" /><path
     id="path30"
     d="m 173.104,588.878 v -37.349 l -12.239,24.299 h -8.46 l -12.33,-24.299 v 37.349 h -12.509 v -64.077 h 12.33 l 16.739,34.648 16.649,-34.648 h 12.33 v 64.077 z"
     inkscape:connector-curvature="0"
     style="fill:#2c3d8e" /><path
     id="path32"
     d="m 191.454,588.878 v -64.077 h 42.208 v 11.159 h -29.699 v 15.029 h 25.289 v 11.16 h -25.289 v 15.569 h 29.699 v 11.159 h -42.208 z"
     inkscape:connector-curvature="0"
     style="fill:#2c3d8e" /><path
     id="path34"
     d="m 261.816,589.418 c -7.02,0 -12.779,-2.52 -17.279,-7.02 -6.479,-6.48 -6.3,-14.489 -6.3,-25.56 0,-11.069 -0.18,-19.079 6.3,-25.559 4.5,-4.5 10.26,-7.02 17.279,-7.02 11.97,0 21.329,6.84 23.579,20.249 h -12.689 c -1.26,-5.13 -4.5,-9.09 -10.799,-9.09 -3.42,0 -6.21,1.26 -8.01,3.33 -2.43,2.7 -3.15,5.76 -3.15,18.089 0,12.33 0.72,15.39 3.15,18.09 1.8,2.069 4.59,3.33 8.01,3.33 6.3,0 9.54,-3.96 10.799,-9.09 h 12.689 c -2.249,13.411 -11.699,20.251 -23.579,20.251 z"
     inkscape:connector-curvature="0"
     style="fill:#2c3d8e" /><path
     id="path36"
     d="m 315.348,535.96 v 52.918 h -12.51 V 535.96 h -16.739 v -11.159 h 45.989 v 11.159 z"
     inkscape:connector-curvature="0"
     style="fill:#2c3d8e" /><path
     id="path38"
     d="m 335.896,588.878 v -64.077 h 42.207 v 11.159 h -29.698 v 15.029 h 25.289 v 11.16 h -25.289 v 15.569 h 29.698 v 11.159 h -42.207 z"
     inkscape:connector-curvature="0"
     style="fill:#2c3d8e" /><path
     id="path40"
     d="m 379.726,562.125 v -11.136 h 27.72 v 11.136 z"
     inkscape:connector-curvature="0"
     style="fill:#2c3d8e" /><path
     id="path42"
     d="m 438.315,524.801 c 12.33,0 21.149,8.279 21.149,19.979 0,11.7 -8.729,19.979 -21.149,19.979 h -12.33 v 24.119 h -12.509 v -64.077 z m -0.629,28.709 c 5.579,0 9.27,-3.42 9.27,-8.73 0,-5.31 -3.69,-8.819 -9.27,-8.819 h -11.7 v 17.55 h 11.7 z"
     inkscape:connector-curvature="0"
     style="fill:#2c3d8e" /><path
     id="path44"
     d="m 488.381,589.328 v -7.65 c -18.72,-0.989 -26.369,-10.619 -26.369,-27.269 0,-16.56 8.729,-25.199 26.369,-26.278 V 521.74 H 500.8 v 6.391 c 17.729,1.079 26.368,9.719 26.368,26.278 0,16.649 -7.559,26.279 -26.368,27.269 v 7.65 z m 0.18,-50.488 c -10.35,0.45 -14.039,5.58 -14.039,16.109 0,10.17 3.869,15.659 14.039,16.289 z m 12.148,32.398 c 10.17,-0.63 14.04,-6.119 14.04,-16.289 0,-10.529 -3.69,-15.659 -14.04,-16.109 z"
     inkscape:connector-curvature="0"
     style="fill:#2c3d8e" /><g
     id="g94">
	<path
   id="path46"
   d="m 82.135,618.882 v 12.933 h -2.271 v -12.933 h -4.121 v -2.039 h 10.514 v 2.039 z"
   inkscape:connector-curvature="0"
   style="fill:#2c3d8e" />
	<path
   id="path48"
   d="m 93.514,631.814 v -14.972 h 9.589 v 2.039 h -7.318 v 4.374 h 6.224 v 2.019 h -6.224 v 4.501 h 7.318 v 2.039 z"
   inkscape:connector-curvature="0"
   style="fill:#2c3d8e" />
	<path
   id="path50"
   d="m 119.568,631.814 v -12.933 h -4.311 v 4.731 c 0,6.287 -1.514,8.201 -4.521,8.201 h -0.946 v -2.039 h 0.399 c 1.661,0 2.86,-1.053 2.86,-6.477 v -6.456 h 8.789 v 14.972 h -2.27 z"
   inkscape:connector-curvature="0"
   style="fill:#2c3d8e" />
	<path
   id="path52"
   d="m 130.154,631.814 v -14.972 h 9.588 v 2.039 h -7.317 v 4.374 h 6.224 v 2.019 h -6.224 v 4.501 h 7.317 v 2.039 z"
   inkscape:connector-curvature="0"
   style="fill:#2c3d8e" />
	<path
   id="path54"
   d="m 147.28,631.814 v -14.972 h 2.271 v 7.107 l 5.593,-7.107 h 2.796 l -5.761,7.065 6.287,7.906 h -2.881 l -6.035,-7.822 v 7.822 h -2.27 z"
   inkscape:connector-curvature="0"
   style="fill:#2c3d8e" />
	<path
   id="path56"
   d="m 174.911,631.814 -1.051,-3.008 h -5.909 l -1.051,3.008 h -2.397 l 5.488,-14.972 h 1.829 l 5.467,14.972 z m -3.953,-11.586 -2.355,6.645 h 4.647 z"
   inkscape:connector-curvature="0"
   style="fill:#2c3d8e" />
	<path
   id="path58"
   d="m 192.663,631.814 v -6.54 h -6.056 v 6.54 h -2.271 v -14.972 h 2.271 v 6.413 h 6.056 v -6.413 h 2.292 v 14.972 z"
   inkscape:connector-curvature="0"
   style="fill:#2c3d8e" />
	<path
   id="path60"
   d="m 212.392,631.814 -1.051,-3.008 h -5.909 l -1.051,3.008 h -2.397 l 5.488,-14.972 h 1.83 l 5.467,14.972 z m -3.953,-11.586 -2.355,6.645 h 4.647 z"
   inkscape:connector-curvature="0"
   style="fill:#2c3d8e" />
	<path
   id="path62"
   d="m 230.778,631.814 v -12.933 h -4.311 v 4.731 c 0,6.287 -1.514,8.201 -4.521,8.201 H 221 v -2.039 h 0.4 c 1.661,0 2.859,-1.053 2.859,-6.477 v -6.456 h 8.79 v 14.972 h -2.271 z"
   inkscape:connector-curvature="0"
   style="fill:#2c3d8e" />
	<path
   id="path64"
   d="m 256.205,631.94 c -1.556,0 -2.902,-0.567 -3.932,-1.598 -1.472,-1.472 -1.451,-3.134 -1.451,-6.014 0,-2.881 -0.021,-4.542 1.451,-6.015 1.03,-1.03 2.376,-1.598 3.932,-1.598 2.754,0 4.815,1.619 5.341,4.604 h -2.313 c -0.357,-1.514 -1.367,-2.564 -3.028,-2.564 -0.883,0 -1.682,0.337 -2.208,0.904 -0.736,0.799 -0.904,1.66 -0.904,4.668 0,3.007 0.168,3.868 0.904,4.668 0.526,0.567 1.325,0.903 2.208,0.903 1.661,0 2.691,-1.051 3.049,-2.564 h 2.292 c -0.505,2.987 -2.629,4.606 -5.341,4.606 z"
   inkscape:connector-curvature="0"
   style="fill:#2c3d8e" />
	<path
   id="path66"
   d="m 279.505,624.539 c 0,2.461 -0.021,4.332 -1.451,5.804 -1.03,1.051 -2.376,1.598 -3.953,1.598 -1.556,0 -2.902,-0.547 -3.932,-1.598 -1.43,-1.452 -1.451,-3.491 -1.451,-5.72 v -0.988 c 0,-2.46 0.189,-4.059 1.451,-5.32 1.03,-1.03 2.397,-1.598 3.932,-1.598 1.556,0 2.923,0.567 3.953,1.598 1.156,1.178 1.451,2.839 1.451,4.963 z m -3.174,-4.856 c -0.589,-0.61 -1.367,-0.926 -2.229,-0.926 -0.841,0 -1.64,0.315 -2.229,0.926 -0.841,0.882 -0.862,2.354 -0.862,4.268 v 1.283 c 0,1.534 0.063,2.943 0.862,3.742 0.61,0.61 1.367,0.925 2.229,0.925 0.883,0 1.661,-0.314 2.229,-0.925 0.883,-0.926 0.883,-2.25 0.883,-4.795 -10e-4,-2.271 -0.043,-3.617 -0.883,-4.498 z"
   inkscape:connector-curvature="0"
   style="fill:#2c3d8e" />
	<path
   id="path68"
   d="m 293.416,631.814 h -6.056 v -14.972 h 5.825 c 2.733,0 4.521,1.599 4.521,4.037 0,1.515 -0.694,2.607 -2.019,3.26 1.472,0.693 2.25,1.767 2.25,3.47 0,2.586 -1.724,4.205 -4.521,4.205 z m -0.42,-12.932 h -3.364 v 4.29 h 3.364 c 1.514,0 2.439,-0.798 2.439,-2.144 0,-1.346 -0.925,-2.146 -2.439,-2.146 z m 0.189,6.33 h -3.554 v 4.563 h 3.554 c 1.514,0 2.46,-0.885 2.46,-2.293 0,-1.387 -0.946,-2.27 -2.46,-2.27 z"
   inkscape:connector-curvature="0"
   style="fill:#2c3d8e" />
	<path
   id="path70"
   d="m 305.698,631.814 v -14.972 h 9.589 v 2.039 h -7.317 v 4.374 h 6.224 v 2.019 h -6.224 v 4.501 h 7.317 v 2.039 z"
   inkscape:connector-curvature="0"
   style="fill:#2c3d8e" />
	<path
   id="path72"
   d="m 328.534,618.882 v 12.933 h -2.271 v -12.933 h -4.121 v -2.039 h 10.514 v 2.039 z"
   inkscape:connector-curvature="0"
   style="fill:#2c3d8e" />
	<path
   id="path74"
   d="m 347.336,631.814 -1.05,-3.008 h -5.909 l -1.052,3.008 h -2.396 l 5.488,-14.972 h 1.829 l 5.467,14.972 z m -3.953,-11.586 -2.354,6.645 h 4.647 z"
   inkscape:connector-curvature="0"
   style="fill:#2c3d8e" />
	<path
   id="path76"
   d="m 371.523,631.919 v -1.871 c -4.395,-0.188 -6.182,-2.375 -6.182,-6.287 0,-3.869 1.956,-5.888 6.182,-6.097 v -1.452 h 2.271 v 1.452 c 4.227,0.209 6.183,2.228 6.183,6.097 0,3.912 -1.788,6.099 -6.183,6.287 v 1.871 z m 0,-12.301 c -2.986,0.105 -3.911,1.557 -3.911,4.248 0,2.649 0.987,4.143 3.911,4.268 z m 2.271,8.516 c 2.924,-0.125 3.911,-1.618 3.911,-4.268 0,-2.691 -0.925,-4.143 -3.911,-4.248 z"
   inkscape:connector-curvature="0"
   style="fill:#2c3d8e" />
	<path
   id="path78"
   d="m 387.462,631.814 v -14.972 h 9.589 v 2.039 h -7.318 v 4.374 h 6.225 v 2.019 h -6.225 v 4.501 h 7.318 v 2.039 z"
   inkscape:connector-curvature="0"
   style="fill:#2c3d8e" />
	<path
   id="path80"
   d="m 415.585,616.843 v 12.933 h 1.766 v 5.403 h -2.229 v -3.364 h -9.084 v 3.364 h -2.208 v -5.403 h 1.305 c 1.303,-2.019 1.828,-4.963 1.828,-8.517 v -4.416 z m -6.435,5.383 c 0,2.86 -0.358,5.447 -1.472,7.55 h 5.635 v -10.894 h -4.163 z"
   inkscape:connector-curvature="0"
   style="fill:#2c3d8e" />
	<path
   id="path82"
   d="m 424.659,631.814 v -14.972 h 9.589 v 2.039 h -7.317 v 4.374 h 6.224 v 2.019 h -6.224 v 4.501 h 7.317 v 2.039 z"
   inkscape:connector-curvature="0"
   style="fill:#2c3d8e" />
	<path
   id="path84"
   d="m 447.43,625.927 h -3.405 v 5.888 h -2.271 v -14.972 h 5.677 c 2.839,0 4.794,1.851 4.794,4.542 0,2.691 -1.956,4.542 -4.795,4.542 z m -0.147,-7.045 h -3.259 v 5.006 h 3.259 c 1.64,0 2.67,-0.969 2.67,-2.503 0,-1.556 -1.03,-2.503 -2.67,-2.503 z"
   inkscape:connector-curvature="0"
   style="fill:#2c3d8e" />
	<path
   id="path86"
   d="m 467.396,631.814 -1.051,-3.008 h -5.908 l -1.052,3.008 h -2.397 l 5.489,-14.972 h 1.828 l 5.468,14.972 z m -3.953,-11.586 -2.355,6.645 h 4.647 z"
   inkscape:connector-curvature="0"
   style="fill:#2c3d8e" />
	<path
   id="path88"
   d="m 486.979,635.179 v -3.364 h -10.156 v -14.972 h 2.271 v 12.933 h 6.056 v -12.933 h 2.271 v 12.933 h 1.767 v 5.403 z"
   inkscape:connector-curvature="0"
   style="fill:#2c3d8e" />
	<path
   id="path90"
   d="m 505.263,631.814 v -10.871 l -6.707,10.871 h -2.062 v -14.972 h 2.271 v 10.851 l 6.688,-10.851 h 2.081 v 14.972 z"
   inkscape:connector-curvature="0"
   style="fill:#2c3d8e" />
	<path
   id="path92"
   d="m 524.607,631.814 v -10.871 l -6.709,10.871 h -2.06 v -14.972 h 2.271 v 10.851 l 6.686,-10.851 h 2.082 v 14.972 z"
   inkscape:connector-curvature="0"
   style="fill:#2c3d8e" />
</g></g>
</svg>