<?xml version="1.0" encoding="UTF-8" standalone="no"?>
<!-- Created with Inkscape (http://www.inkscape.org/) -->

<svg
   xmlns:dc="http://purl.org/dc/elements/1.1/"
   xmlns:cc="http://creativecommons.org/ns#"
   xmlns:rdf="http://www.w3.org/1999/02/22-rdf-syntax-ns#"
   xmlns:svg="http://www.w3.org/2000/svg"
   xmlns="http://www.w3.org/2000/svg"
   xmlns:sodipodi="http://sodipodi.sourceforge.net/DTD/sodipodi-0.dtd"
   xmlns:inkscape="http://www.inkscape.org/namespaces/inkscape"
   version="1.1"
   id="svg2"
   width="1455.6224"
   height="1455.6224"
   viewBox="0 0 1455.6224 1455.6224"
   sodipodi:docname="ru-Мир24.svg"
   inkscape:version="0.92.5 (2060ec1f9f, 2020-04-08)">
  <metadata
     id="metadata8">
    <rdf:RDF>
      <cc:Work
         rdf:about="">
        <dc:format>image/svg+xml</dc:format>
        <dc:type
           rdf:resource="http://purl.org/dc/dcmitype/StillImage" />
        <dc:title></dc:title>
      </cc:Work>
    </rdf:RDF>
  </metadata>
  <defs
     id="defs6" />
  <sodipodi:namedview
     pagecolor="#ffffff"
     bordercolor="#666666"
     borderopacity="1"
     objecttolerance="10"
     gridtolerance="10"
     guidetolerance="10"
     inkscape:pageopacity="0"
     inkscape:pageshadow="2"
     inkscape:window-width="1920"
     inkscape:window-height="1019"
     id="namedview4"
     showgrid="false"
     inkscape:zoom="0.26029411"
     inkscape:cx="682.07086"
     inkscape:cy="329.22615"
     inkscape:window-x="0"
     inkscape:window-y="0"
     inkscape:window-maximized="1"
     inkscape:current-layer="svg2" />
  <g
     id="g825"
     transform="matrix(3.2316301,0,0,3.2316301,-3.5858894,-3245.6397)">
    <g
       transform="translate(0,1002.2891)"
       clip-path="none"
       id="g12">
      <path
         sodipodi:nodetypes="ssssssscs"
         inkscape:connector-curvature="0"
         id="path24"
         d="M 193.33334,449.9087 C 17.818023,422.08909 -58.996864,216.39586 55.279849,80.232073 166.60894,-52.419526 384.77717,-9.6533571 439.96461,155.63944 492.77251,313.80526 356.96493,475.84471 193.33334,449.9087 Z m 67.05109,-101.1246 c 93.38463,-27.64374 123.8705,-143.77552 55.41115,-211.08127 -81.17206,-79.804213 -215.09511,-24.41333 -215.09511,88.96384 0,65.35715 41.28303,113.18391 108.63287,125.85216 9.80288,1.8439 39.55958,-0.33301 51.05109,-3.73473 z"
         style="fill:#accf36;stroke-width:1.33333337" />
      <path
         sodipodi:nodetypes="ssscccccscssscccscccss"
         inkscape:connector-curvature="0"
         id="path22"
         d="M 193.33334,449.9087 C 52.676391,427.61422 -32.804226,285.68487 13.987744,152.12888 54.914321,35.314185 182.44287,-26.11787 300,14.353284 c 9.18815,3.163183 11.28422,4.382323 11.07382,6.440876 -0.6404,6.265908 -35.93534,87.86008 -37.81184,87.41273 -1.06076,-0.25287 -2.9809,-0.66886 -4.26699,-0.92441 -1.28609,-0.25554 -2.92888,-0.8296 -3.65065,-1.27568 -9.13576,-5.64621 -48.73714,-7.264783 -68.67767,-2.80698 C 195.2,103.52771 194,103.88646 194,103.99707 c 0,0.1106 -1.5,0.46286 -3.33333,0.78279 -5.02541,0.87699 -26.89383,11.70253 -35.62693,17.63643 -72.886645,49.52443 -73.396024,158.14378 -0.97642,208.20742 50.7866,35.10875 118.6493,28.91031 161.91756,-14.78923 16.46463,-16.62873 31.33749,-42.95184 33.99295,-60.16332 0.31076,-2.01418 1.14323,-5.75626 1.84992,-8.31572 1.72016,-6.2299 0.96258,-40.35738 -1.00353,-45.20702 -0.85881,-2.11838 -1.31596,-4.09711 -1.01588,-4.39719 0.30008,-0.30008 -0.83261,-4.56687 -2.51709,-9.48175 -2.58952,-7.55552 -2.77479,-9.16212 -1.19914,-10.3988 5.7053,-4.4779 87.56642,-36.84625 88.70922,-35.07613 9.61201,14.88832 17.86232,67.0602 15.70008,99.28148 -8.77706,130.79368 -129.19919,228.11542 -257.16407,207.83267 z"
         style="fill:#8ac440;stroke-width:1.33333337" />
      <path
         sodipodi:nodetypes="sssscsscsss"
         inkscape:connector-curvature="0"
         id="path20"
         d="M 193.33334,449.9087 C -8.8204395,417.86682 -68.905466,156.60471 99.293647,41.004694 117.71276,28.345592 141.33334,16.682335 141.33334,20.246534 c 0,0.868926 8.20289,21.384628 18.22866,45.590446 12.06628,29.132352 17.68212,44.19276 16.61198,44.54947 -52.4265,17.4755 -88.767533,92.12613 -72.44144,148.80693 32.2836,112.08195 183.87252,128.04417 235.58184,24.80662 2.0202,-4.03333 3.87205,-7.55448 4.11523,-7.82476 1.07546,-1.19534 89.90373,36.56038 89.90373,38.21284 0,5.67931 -17.03187,34.98074 -30.00015,51.61193 -48.75577,62.52689 -132.86631,96.13454 -209.99985,83.90869 z"
         style="fill:#218ecd;stroke-width:1.33333337" />
      <path
         sodipodi:nodetypes="scsscsccsscsccsscssscssssscsccs"
         inkscape:connector-curvature="0"
         id="path18"
         d="M 127.18131,428.17429 C 85.194244,407.59914 49.219481,372.3871 27.386062,330.49488 23.323727,322.70042 20,315.42822 20,314.33444 c 0,-1.3504 12.516923,-7.15553 39.000001,-18.08752 21.45,-8.85437 41.238289,-17.03534 43.973979,-18.17992 4.97398,-2.08104 4.97398,-2.08104 8.37828,4.63702 11.88261,23.4492 30.68933,43.4561 51.62365,54.9181 5.73705,3.14118 11.24563,6.31122 12.24128,7.04455 1.46135,1.07635 -0.4956,6.85858 -10.15324,30 -6.57992,15.76667 -14.82951,35.70923 -18.33241,44.3168 l -6.36891,15.65012 z m 182.87833,2.15905 c -15.03456,-36.1082 -34.16337,-82.76812 -34.40925,-83.93271 -0.17439,-0.82592 4.54745,-4.25393 10.49297,-7.61781 24.95842,-14.1211 44.49736,-34.42602 54.71801,-56.8631 1.31609,-2.88917 2.53182,-5.4742 2.70164,-5.74448 0.74948,-1.19294 89.77033,36.58915 89.77033,38.10019 0,3.45933 -15.13171,30.86207 -23.73207,42.97756 -21.40728,30.15682 -49.39281,54.0464 -83.13079,70.9638 -15.27429,7.65907 -14.16277,7.51571 -16.41084,2.11655 z M 64.666668,160.63179 C 41.200001,150.89835 21.262758,142.2626 20.361683,141.44123 14.876906,136.44162 45.535147,89.260184 69.53345,65.768461 c 23.733558,-23.232566 69.83561,-51.573169 71.95274,-44.23197 0.49649,1.721597 8.7628,22.030176 18.36957,45.130177 14.63103,35.181102 17.14899,42.216472 15.509,43.333332 -1.07681,0.73333 -6.88986,4.03334 -12.9179,7.33334 -18.86843,10.32936 -38.69428,31.20033 -49.04372,51.62905 -2.3115,4.56264 -4.62281,8.53665 -5.13626,8.83113 -0.51345,0.2945 -20.133545,-7.42829 -43.600212,-17.16173 z"
         style="fill:#1180c3;stroke-width:1.33333337" />
      <path
         sodipodi:nodetypes="ssscssssssssscsss"
         inkscape:connector-curvature="0"
         id="path16"
         d="m 294.77507,392.37213 c -22.15617,-53.42934 -21.08465,-46.89471 -8.77808,-53.53279 23.68235,-12.7741 44.67669,-34.5549 54.86438,-56.91962 1.31609,-2.88917 2.53182,-5.4742 2.70164,-5.74448 0.74948,-1.19294 89.77033,36.58915 89.77033,38.10019 0,13.82016 -39.32024,66.48091 -65.20708,87.33043 -14.78509,11.90805 -50.08074,33.06081 -55.16552,33.06081 -0.35579,0 -8.53934,-19.03254 -18.18567,-42.29454 z M 64.000001,159.80478 C 13.914394,139.01864 17.969452,141.65256 22.005068,132.52732 40.87009,89.870157 80.077224,49.089254 123.29174,27.175018 c 17.1512,-8.697432 17.29908,-8.743262 18.19445,-5.638527 0.49649,1.721597 8.7628,22.030176 18.36957,45.130177 14.63103,35.181102 17.14899,42.216472 15.509,43.333332 -1.07681,0.73333 -6.88986,4.03334 -12.9179,7.33334 -18.88323,10.33746 -38.69365,31.19925 -49.06284,51.66666 -5.23322,10.32968 0.019,11.30763 -49.384019,-9.19522 z"
         style="fill:#00a86a;stroke-width:1.33333337" />
    </g>
    <path
       inkscape:connector-curvature="0"
       id="path14"
       d="m 141.8921,1277.2519 v -26.6666 h 8.51005 c 8.51005,0 8.51005,0 14.15661,8.6666 3.1056,4.7667 5.80907,8.6667 6.00768,8.6667 0.19863,0 2.80642,-3.9 5.79511,-8.6667 5.43399,-8.6666 5.43399,-8.6666 14.14893,-8.6666 h 8.71495 v 26.6666 26.6667 h -8.623 -8.623 l -0.377,-14.8903 -0.377,-14.8902 -4.27827,6.8902 c -5.37552,8.6575 -8.32484,8.947 -13.36948,1.3127 l -3.68558,-5.5777 -0.37998,13.5777 -0.37998,13.5776 h -8.62002 -8.62002 z m 66.66666,0 v -26.6666 h 9.33334 9.33333 l 0.005,12.3333 0.005,12.3333 7.40072,-12.3333 7.4014,-12.3333 h 8.59417 8.59418 v 26.6666 26.6667 h -8.61476 -8.61475 l -0.38525,-11.6667 -0.38524,-11.6666 -7.18015,11.6666 -7.18013,11.6667 h -9.1532 -9.15319 v -26.6667 z m 61.33334,0 v -26.6666 l 14.33333,0.01 c 24.93624,0.013 33.67092,5.0796 33.66168,19.5259 -0.009,13.9648 -8.42356,21.7069 -23.66168,21.7707 -7,0.029 -7,0.029 -7,6.0287 v 6 h -8.66667 -8.66666 z m 28.22834,0.46 c 5.73627,-5.1912 1.50968,-15.1266 -6.435,-15.1266 -4.46001,0 -4.46001,0 -4.46001,8.6666 0,9.4217 4.60519,12.1523 10.89501,6.46 z m -141.56168,-37.5513 c 0,-11.01 8.59855,-21.9708 27.44631,-34.9867 18.52357,-12.792 23.06149,-20.0808 16.55369,-26.5886 -6.39621,-6.3962 -17.07322,-2.0478 -19.64276,8 -1.88425,7.368 -22.60133,7.368 -21.93556,0 3.48778,-38.5991 68.24499,-41.0261 68.24499,-2.5577 0,12.6035 -6.96867,20.0869 -30.33333,32.5738 -10.13786,5.418 -9.03458,5.9839 11.66666,5.9839 h 18.66667 v 9.3333 9.3333 H 191.8921 c -19.43334,0 -35.33334,-0.4911 -35.33334,-1.0913 z m 114.66667,-7.5753 v -8.6667 H 251.8921 232.55876 l 0.007,-9.6667 0.007,-9.6666 19.44997,-23 19.44999,-23 h 11.87676 11.87676 v 24 24 h 4.66666 c 4.66667,0 4.66667,0 4.66667,8.6666 0,8.6667 0,8.6667 -4.66667,8.6667 -4.66666,0 -4.66666,0 -4.66666,8.6667 v 8.6666 h -12 -12 v -8.6666 z m 0,-38.9334 c 0,-7.6827 -0.48544,-12.4191 -1.19573,-11.6666 -4.12612,4.3709 -17.47094,22.1272 -17.47094,23.2464 0,0.7869 3.90718,1.3536 9.33334,1.3536 h 9.33333 z"
       style="fill:#070707;stroke-width:1.33333337" />
  </g>
</svg>
