<?xml version="1.0" encoding="UTF-8" standalone="no"?>
<!-- Created with Inkscape (http://www.inkscape.org/) -->

<svg
   xmlns:dc="http://purl.org/dc/elements/1.1/"
   xmlns:cc="http://creativecommons.org/ns#"
   xmlns:rdf="http://www.w3.org/1999/02/22-rdf-syntax-ns#"
   xmlns:svg="http://www.w3.org/2000/svg"
   xmlns="http://www.w3.org/2000/svg"
   xmlns:sodipodi="http://sodipodi.sourceforge.net/DTD/sodipodi-0.dtd"
   xmlns:inkscape="http://www.inkscape.org/namespaces/inkscape"
   version="1.1"
   width="1455.6224"
   height="1455.6224"
   viewBox="0 0 1455.6224 1455.6224"
   id="svg2"
   xml:space="preserve"
   sodipodi:docname="ru-Пятница!.svg"
   inkscape:version="0.92.5 (2060ec1f9f, 2020-04-08)"><sodipodi:namedview
     pagecolor="#ffffff"
     bordercolor="#666666"
     borderopacity="1"
     objecttolerance="10"
     gridtolerance="10"
     guidetolerance="10"
     inkscape:pageopacity="0"
     inkscape:pageshadow="2"
     inkscape:window-width="1920"
     inkscape:window-height="1019"
     id="namedview6"
     showgrid="false"
     inkscape:zoom="0.273125"
     inkscape:cx="-205.13379"
     inkscape:cy="427.41772"
     inkscape:window-x="0"
     inkscape:window-y="0"
     inkscape:window-maximized="1"
     inkscape:current-layer="svg2" /><metadata
     id="metadata8"><rdf:RDF><cc:Work
         rdf:about=""><dc:format>image/svg+xml</dc:format><dc:type
           rdf:resource="http://purl.org/dc/dcmitype/StillImage" /><dc:title></dc:title></cc:Work></rdf:RDF></metadata><defs
     id="defs6" /><path
     d="m 1348.0692,837.02193 c -6.1774,0.4956 -10.8605,5.9466 -10.913,11.9696 -1.1568,17.978 -0.095,36.0743 -0.4948,54.0014 0.2161,8.6424 -0.7177,17.5672 1.3109,25.9359 2.2022,6.0648 9.3596,9.6315 15.5862,8.011 25.9421,-3.2093 51.7759,-6.3854 77.741,-9.4896 3.6475,-0.3384 7.5637,-1.3009 10.2312,-4.1696 4.4538,-3.9145 3.6378,-10.6188 4.0867,-15.9594 0.062,-17.9198 -0.1212,-35.8353 0.062,-53.7638 -0.1834,-6.4415 0.3537,-13.0548 -1.5239,-19.2597 -2.0515,-5.2599 -7.898,-8.1351 -13.3348,-7.6515 -27.5839,3.5717 -55.1678,6.8069 -82.7518,10.3757 z m -946.87231,-91.6839 v 0 c -3.47049,0.3239 -7.18025,1.3534 -9.8479,3.8302 -2.74625,2.9636 -4.14234,7.2046 -3.70642,11.2781 -0.13464,21.4846 0.0721,42.9973 -0.0884,64.427 -8.04217,1.4399 -16.1204,2.3901 -24.26091,3.0469 -0.11136,-17.7251 0,-35.4484 0,-53.1298 -0.18341,-6.019 0.47849,-12.5711 -2.83474,-18.0053 -3.62455,-4.7581 -9.89049,-5.6864 -15.51084,-4.4779 -25.26107,3.0339 -50.56933,6.3407 -75.88939,9.253 -4.68667,0.6016 -10.05042,0.742 -13.47113,4.4779 -4.42647,3.9131 -3.9159,10.5292 -4.1489,15.8928 0.12428,72.8274 0.12428,145.6602 0,218.50127 0.30346,6.1984 -0.42374,12.9103 3.14019,18.4391 2.20455,1.8538 4.68667,3.9724 7.71282,4.3116 6.76702,0.2693 13.42229,-0.9946 20.14966,-1.7791 21.63556,-2.6118 43.34187,-5.4332 65.03345,-7.8986 4.66341,-0.4316 9.84789,-1.3443 12.70558,-5.3407 3.4181,-4.0772 2.83476,-9.92877 3.1133,-14.82807 0,-21.5577 -0.11136,-43.0831 0,-64.5412 8.09134,-1.0022 16.21874,-1.9661 24.34941,-2.9734 0.072,21.3972 -0.13465,42.6286 0,63.8152 0.1441,4.1026 -0.30459,9.0121 2.9068,12.16127 2.95273,4.7468 9.28425,5.2676 14.34418,4.5827 25.75855,-3.222 51.49086,-6.3622 77.15439,-9.50117 4.3783,-0.5157 9.23505,-0.96 12.67938,-3.9145 3.29353,-2.9575 4.23412,-7.6388 3.92935,-11.7993 -0.0495,-76.4628 0,-152.9015 -0.0495,-229.2711 0.19359,-4.9415 -0.18341,-10.9605 -4.70603,-14.0329 -4.33564,-3.646 -10.35581,-2.1955 -15.51737,-1.9367 -25.68646,3.2001 -51.53024,6.2726 -77.18715,9.4127 z m 272.49656,-33.2799 v 0 c -4.91243,0.8538 -7.28513,5.7632 -9.7201,9.6778 -14.11473,25.7168 -28.31469,51.3623 -42.63263,77.0188 -0.65874,-21.5836 0.14738,-43.2142 -0.35408,-64.7905 0.29185,-5.6085 -3.27064,-11.7302 -8.94007,-13.2469 -7.76367,-0.8577 -15.56657,0.746 -23.20564,1.6165 -20.97716,2.6463 -41.82982,5.1103 -62.73485,7.7053 -3.99158,0.4454 -8.57959,1.7868 -10.90313,5.4415 -2.10395,2.7999 -2.43165,6.5415 -2.27433,9.9342 0.072,69.2094 0.072,138.4705 0,207.757 0.072,9.4066 -0.41296,18.9337 0.47187,28.3323 0.51453,4.6663 4.56509,8.2519 8.99582,9.5164 9.63164,0.5277 19.07637,-1.6077 28.69163,-2.6179 19.51226,-2.3938 39.09336,-4.757 58.60885,-7.2366 4.96164,0 9.76927,-2.8869 12.11901,-7.2774 14.52442,-26.3173 28.921,-52.6371 43.57977,-78.9657 0.33079,19.886 -0.0819,39.8189 0.14738,59.6532 0.18341,4.3716 -0.30459,9.4579 2.85768,12.8568 2.34974,4.15 7.66858,5.6835 12.14848,4.9004 12.80718,-1.0921 25.56193,-3.0288 38.42152,-4.5842 14.95371,-1.9574 30.07461,-3.3977 45.11352,-5.6954 5.51546,-0.7526 9.64142,-6.1704 9.58895,-11.6854 0.0524,-77.7073 0,-155.2942 0.0524,-232.8545 0.10772,-4.8094 -0.30459,-10.9543 -5.0632,-13.6002 -4.40453,-3.4793 -10.31985,-2.3807 -15.40605,-1.8621 -26.47293,3.6456 -53.12283,6.3494 -79.56305,10.0066 z m 265.99139,-32.8453 v 0 c -6.80995,0 -14.82588,3.4672 -15.51082,11.0245 -0.28494,50.5177 0.30131,101.0194 -0.28494,151.6263 -8.2683,1.2544 -16.54311,2.0186 -24.795,3.1296 -0.13465,-47.1974 0,-94.5383 0,-141.8526 0.25873,-5.274 -0.62923,-12.1333 -5.85306,-15.0304 -3.99161,-2.9003 -8.97617,-1.9236 -13.56418,-1.619 -22.92711,3.0576 -45.89348,5.6926 -68.87955,8.5766 -6.11849,0.9501 -12.77439,0.6095 -18.29641,3.9967 -3.4607,3.3032 -5.05341,7.9987 -4.55529,12.6545 0.16084,76.4744 0,152.8196 0,229.3016 0.33115,3.7152 -0.30459,8.1279 2.36284,11.2939 2.19245,2.3552 5.00097,4.8195 8.46491,5.0768 7.1934,0.084 14.36059,-1.2471 21.48837,-2.0302 22.97297,-2.8803 45.95906,-5.6238 68.87955,-8.5642 11.62085,-1.1266 23.26463,-3.1492 34.95757,-3.8046 0.12118,11.5838 -0.48501,23.2306 0.39979,34.9287 0.94055,6.7323 8.58293,11.1272 15.05536,9.8888 9.72334,-0.9421 19.46636,-2.4833 29.1504,-3.5841 10.8933,-1.5171 21.79314,-2.206 32.52262,-4.245 5.3942,-1.3468 7.7406,-7.2329 9.4054,-11.9655 13.5708,-39.6294 27.017,-79.2794 40.7746,-118.9444 1.7762,-4.8265 2.956,-11.1312 -0.4719,-15.5027 -3.1625,-5.447 -10.31,-5.8862 -15.7435,-6.1639 -0.052,-45.9059 -0.052,-91.9233 0,-137.9406 -0.1867,-6.0856 0.095,-13.3903 -5.273,-17.5621 -4.5258,-3.5033 -10.2936,-2.3071 -15.6092,-1.7926 -24.87041,2.9528 -49.72443,6.1282 -74.62438,9.1039 z m 198.29486,-24.2937 v 0 c -6.1709,-0.087 -10.7589,4.8633 -12.404,10.4674 -27.6495,80.9654 -55.3088,161.8769 -83.0238,242.8586 -1.5239,4.8072 -0.7079,10.7174 3.1133,14.2484 3.5885,4.0706 9.5136,4.0706 14.5244,3.5008 29.678,-3.9197 59.5724,-7.1712 89.2504,-11.1854 4.9682,-0.6299 7.9471,-5.3603 9.4448,-9.7025 1.8222,-7.0561 3.2575,-14.098 4.8765,-21.1298 14.177,-2.2904 28.4228,-3.9494 42.7211,-5.4436 1.9204,7.2137 3.346,14.617 6.397,21.5617 3.4182,5.0117 10.0544,6.5325 15.6747,5.178 23.1795,-3.0506 46.4081,-5.6747 69.5121,-8.5809 7.1901,-0.9341 14.4555,-1.3566 21.5375,-2.8712 6.1185,-2.0378 9.9364,-9.4309 8.0618,-15.6421 -1.6385,-6.0816 -4.1226,-11.9667 -6.2626,-17.9027 -25.031,-68.6541 -50.1702,-137.4362 -75.293,-206.1169 -1.1339,-3.1397 -2.3726,-6.4527 -5.3418,-8.2355 -4.2209,-3.3134 -9.9429,-2.658 -14.7931,-1.8057 -29.2913,3.654 -58.6613,7.1737 -87.9953,10.8014 z m 204.0956,-25.2932 v 0 c -5.1616,0.1637 -10.6345,2.1892 -13.4954,6.7115 -3.3591,8.0718 -0.8029,16.871 -0.3279,25.1229 4.4799,47.6164 9.0909,95.1494 13.2594,142.7886 0.3803,4.2541 1.0127,8.7436 3.287,12.5748 3.9327,5.0761 11.0342,5.3446 16.9364,4.5575 19.568,-2.6052 39.1196,-4.8967 58.6876,-7.1842 5.2271,-0.7591 10.7524,-1.3839 15.3273,-4.099 3.9785,-3.646 4.1948,-9.4681 4.7814,-14.5887 3.0183,-34.9771 6.4396,-70.0496 9.6283,-105.01 1.7369,-18.8667 3.0478,-37.7006 5.463,-56.4687 v -5.9448 c -2.0842,-3.8967 -4.3356,-8.7435 -9.0416,-9.7432 -9.5629,-0.8584 -19.1026,0.8323 -28.5704,2.0121 -25.3358,3.0841 -50.6257,6.2759 -75.9353,9.2712 z M 13.239278,517.29771 v 0 c -4.0043066,0.42286 -8.5526562,1.78278 -10.9401063,5.44658 -2.39644262,2.96583 -2.01751997,7.05577 -2.20186073,10.61804 -0.04864654,75.2833 0.08577001,150.4353 -0.09729270828,225.6568 0.40068630828,4.8323 -0.81673265172,10.1708 2.25176563828,14.3309 1.4491315,2.7999 4.4766777,4.0005 7.286588,4.8494 9.6369401,0.5055 19.1036001,-1.5466 28.6177101,-2.5604 19.237964,-2.2082 38.475925,-4.8301 57.580832,-6.8676 3.562614,-0.6096 7.518156,-0.6827 10.266726,-3.3927 5.49679,-3.4182 5.00914,-10.693 5.21921,-16.3961 -0.15895,-47.6266 -0.15895,-95.3513 -0.11011,-143.0408 8.15195,-0.9374 16.2577,-1.9465 24.32281,-2.9756 0.20583,48.1479 -0.19334,96.4258 0.20583,144.5862 -0.60792,6.602 3.89426,13.32 10.62392,14.161 6.39966,0.2475 12.70428,-0.9367 18.90927,-1.7085 21.68043,-2.531 43.42248,-5.3192 65.08129,-7.8731 3.09004,-0.429 6.1791,-0.5186 9.06465,-1.7922 4.29472,-1.6092 7.24155,-6.027 7.20059,-10.6188 -0.0446,-78.775 0.041,-157.6465 -0.0446,-236.43639 0.76653,-7.47499 -6.85289,-14.33097 -14.29534,-12.64973 -11.74668,0.84536 -23.34982,2.91016 -35.09388,4.08339 -61.25256,7.64893 -122.535614,15.08789 -183.847996,22.57961 z m 367.540842,-45.0708 v 0 c -28.97344,2.90688 -58.45516,12.14499 -80.40205,32.00805 -18.92303,17.89324 -29.48305,44.05805 -28.90038,70.02307 -0.58267,15.8878 2.48344,32.444 11.52515,45.8641 5.76554,9.4186 14.97634,16.2153 25.17259,20.4235 -17.22936,28.4818 -34.51774,56.9112 -51.92902,85.3493 -3.00713,5.0951 -3.54098,11.8892 0.4008,16.5563 2.76232,4.5703 8.9175,5.4407 13.87027,4.7584 29.90679,-3.7471 59.8729,-7.4888 89.84589,-11.0347 4.90265,-0.4418 10.4378,-1.7988 12.75147,-6.6249 5.66951,-10.0183 10.24442,-20.6105 15.79263,-30.9091 0.11791,6.8899 -0.1572,13.7349 0.57028,20.5538 0.2067,5.9517 5.49905,11.0234 11.24396,11.5435 3.46725,0.076 6.84932,-0.3421 10.22149,-0.785 23.90696,-3.1234 47.92531,-5.8247 71.9437,-8.8203 4.2439,-0.5925 8.97944,-1.0867 12.35165,-4.1769 2.73642,-3.098 3.76875,-7.5122 3.41805,-11.6134 -0.0495,-69.2607 -0.0495,-138.55302 0,-207.74713 -0.10844,-9.4055 0.44899,-18.90599 -0.46209,-28.42321 -0.73079,-5.52845 -6.22002,-9.67734 -11.7683,-9.50048 -8.19949,0.0801 -16.31702,1.68451 -24.49023,2.62194 -27.13499,3.31299 -54.06022,6.6329 -81.15586,9.93316 z m 320.92333,-39.82437 h 5.13529 c 5.85302,1.3832 10.98835,6.60998 10.98835,12.84332 0.30459,19.08612 -0.30459,38.20208 0.0495,57.37008 -0.0753,8.07179 0.53745,16.31389 -0.91104,24.28051 -0.80619,6.11216 -7.39001,8.57981 -12.75147,9.32363 -11.18496,1.78277 -22.42568,2.64778 -33.68277,4.24059 0,39.25086 0,78.38676 0,117.60116 -0.0979,10.6999 0.54076,21.3933 -0.46202,31.9983 -1.0094,6.2988 -7.58998,9.7639 -13.53146,9.9288 -17.82454,2.0626 -35.6851,4.4192 -53.52273,6.571 -11.48646,1.1368 -22.92049,3.8687 -34.44632,2.6168 -3.20834,-0.5302 -5.55808,-3.1517 -7.15406,-5.7941 -2.22521,-5.2369 -1.72706,-11.1071 -2.00567,-16.6126 0.15721,-44.16 0.15721,-88.3952 0.059,-132.63379 -9.59878,1.04223 -19.11568,2.47129 -28.7047,3.48367 -4.96163,0.0364 -11.18169,0.6816 -14.41299,-3.89634 -4.103,-3.72311 -3.47046,-9.67443 -3.47046,-14.59989 0.21944,-22.66186 -0.10808,-45.40195 0.12118,-67.98484 0.28203,-4.08994 -0.39982,-9.10092 2.91016,-12.14863 4.43073,-5.20421 11.78795,-4.81738 17.78519,-5.85961 56.08219,-6.78029 112.08893,-13.39682 168.00733,-20.72806"
     id="path14"
     style="fill:#ed1c24;fill-opacity:1;fill-rule:nonzero;stroke:none;stroke-width:3.63905621"
     inkscape:connector-curvature="0" /></svg>