<?xml version="1.0" encoding="UTF-8" standalone="no"?>
<!-- Created with Inkscape (http://www.inkscape.org/) -->

<svg
   xmlns:dc="http://purl.org/dc/elements/1.1/"
   xmlns:cc="http://creativecommons.org/ns#"
   xmlns:rdf="http://www.w3.org/1999/02/22-rdf-syntax-ns#"
   xmlns:svg="http://www.w3.org/2000/svg"
   xmlns="http://www.w3.org/2000/svg"
   xmlns:xlink="http://www.w3.org/1999/xlink"
   xmlns:sodipodi="http://sodipodi.sourceforge.net/DTD/sodipodi-0.dtd"
   xmlns:inkscape="http://www.inkscape.org/namespaces/inkscape"
   version="1.1"
   width="1455.6224"
   height="1455.6224"
   viewBox="0 0 1455.6224 1455.6225"
   id="Layer_2"
   sodipodi:docname="ru-Звезда.svg"
   inkscape:version="0.92.5 (2060ec1f9f, 2020-04-08)">
  <sodipodi:namedview
     pagecolor="#ffffff"
     bordercolor="#666666"
     borderopacity="1"
     objecttolerance="10"
     gridtolerance="10"
     guidetolerance="10"
     inkscape:pageopacity="0"
     inkscape:pageshadow="2"
     inkscape:window-width="1920"
     inkscape:window-height="1019"
     id="namedview25"
     showgrid="false"
     inkscape:zoom="0.41403509"
     inkscape:cx="332.62362"
     inkscape:cy="629.39818"
     inkscape:window-x="0"
     inkscape:window-y="0"
     inkscape:window-maximized="1"
     inkscape:current-layer="Layer_2" />
  <metadata
     id="metadata43">
    <rdf:RDF>
      <cc:Work
         rdf:about="">
        <dc:format>image/svg+xml</dc:format>
        <dc:type
           rdf:resource="http://purl.org/dc/dcmitype/StillImage" />
        <dc:title></dc:title>
      </cc:Work>
    </rdf:RDF>
  </metadata>
  <defs
     id="defs41">
    <linearGradient
       id="linearGradient3766">
      <stop
         id="stop3768"
         style="stop-color:#ff0000;stop-opacity:1"
         offset="0" />
      <stop
         id="stop3774"
         style="stop-color:#a90000;stop-opacity:1"
         offset="0.47505218" />
      <stop
         id="stop3770"
         style="stop-color:#ff0000;stop-opacity:1"
         offset="1" />
    </linearGradient>
    <defs
       id="defs31">
      <polygon
         points="223,270.9 138.9,209.8 54.8,270.9 86.9,172 2.8,110.9 106.7,110.9 138.9,12 171,110.9 275,110.9 190.8,172 "
         id="XMLID_8_" />
    </defs>
    <clipPath
       id="XMLID_5_">
      <use
         id="use35"
         style="overflow:visible"
         x="0"
         y="0"
         width="280"
         height="280"
         xlink:href="#XMLID_8_" />
    </clipPath>
    <defs
       id="defs17">
      <polygon
         points="223,270.9 138.9,209.8 54.8,270.9 86.9,172 2.8,110.9 106.7,110.9 138.9,12 171,110.9 275,110.9 190.8,172 "
         id="XMLID_10_" />
    </defs>
    <defs
       id="defs9">
      <polygon
         points="223,270.9 138.9,209.8 54.8,270.9 86.9,172 2.8,110.9 106.7,110.9 138.9,12 171,110.9 275,110.9 190.8,172 "
         id="XMLID_11_" />
    </defs>
    <clipPath
       id="XMLID_3_">
      <use
         id="use13"
         style="overflow:visible"
         x="0"
         y="0"
         width="280"
         height="280"
         xlink:href="#XMLID_11_" />
    </clipPath>
    <filter
       id="filter3869"
       style="color-interpolation-filters:sRGB">
      <feGaussianBlur
         stdDeviation="2.6555"
         id="feGaussianBlur3871" />
    </filter>
    <linearGradient
       x1="139.25317"
       y1="18.063293"
       x2="139.25317"
       y2="253.01418"
       id="linearGradient3772"
       xlink:href="#linearGradient3766"
       gradientUnits="userSpaceOnUse"
       gradientTransform="matrix(5.3476209,0,0,5.3476209,-15.006745,-28.626561)" />
  </defs>
  <style
     type="text/css"
     id="style3" />
  <polygon
     points="138.9,12 171,110.9 275,110.9 190.8,172 223,270.9 138.9,209.8 54.8,270.9 86.9,172 2.8,110.9 106.7,110.9 "
     transform="matrix(5.347621,0,0,5.347621,-14.973339,-28.609772)"
     id="use3059"
     style="fill:#ffffff" />
  <path
     d="m 317.21421,794.90688 132.52073,96.25729 -171.6252,528.91343 449.70152,-326.7064 449.70154,326.7064 -172.1266,-528.91343 132.6879,-96.25729 H 849.63671 L 947.56507,1115.2627 727.81126,943.63786 507.38901,1115.2627 605.65151,794.90688 Z M 727.81126,35.544804 555.51761,564.45826 H 0.03343871 L 137.56757,664.39176 h 508.02401 l 82.21968,-267.88221 81.88543,267.88221 h 508.19111 l 137.7012,-99.9335 H 899.43647 Z"
     id="use3057"
     style="fill:url(#linearGradient3772);fill-opacity:1;stroke-width:5.01938772"
     inkscape:connector-curvature="0" />
</svg>
