<?xml version="1.0" encoding="UTF-8" standalone="no"?>
<!-- Created with Inkscape (http://www.inkscape.org/) -->

<svg
   xmlns:dc="http://purl.org/dc/elements/1.1/"
   xmlns:cc="http://creativecommons.org/ns#"
   xmlns:rdf="http://www.w3.org/1999/02/22-rdf-syntax-ns#"
   xmlns:svg="http://www.w3.org/2000/svg"
   xmlns="http://www.w3.org/2000/svg"
   xmlns:xlink="http://www.w3.org/1999/xlink"
   xmlns:sodipodi="http://sodipodi.sourceforge.net/DTD/sodipodi-0.dtd"
   xmlns:inkscape="http://www.inkscape.org/namespaces/inkscape"
   version="1.1"
   width="1455.6224"
   height="1455.6224"
   id="svg2"
   sodipodi:docname="ru-Россия_24.svg"
   inkscape:version="0.92.5 (2060ec1f9f, 2020-04-08)">
  <sodipodi:namedview
     pagecolor="#ffffff"
     bordercolor="#666666"
     borderopacity="1"
     objecttolerance="10"
     gridtolerance="10"
     guidetolerance="10"
     inkscape:pageopacity="0"
     inkscape:pageshadow="2"
     inkscape:window-width="1920"
     inkscape:window-height="1019"
     id="namedview44"
     showgrid="false"
     inkscape:zoom="0.273125"
     inkscape:cx="-2.138682"
     inkscape:cy="263.68504"
     inkscape:window-x="0"
     inkscape:window-y="0"
     inkscape:window-maximized="1"
     inkscape:current-layer="svg2" />
  <desc
     id="desc4">Created with graphing.ru and Raphael</desc>
  <metadata
     id="metadata12">
    <rdf:RDF>
      <cc:Work
         rdf:about="">
        <dc:format>image/svg+xml</dc:format>
        <dc:type
           rdf:resource="http://purl.org/dc/dcmitype/StillImage" />
        <dc:title></dc:title>
      </cc:Work>
    </rdf:RDF>
  </metadata>
  <defs
     id="defs6">
    <linearGradient
       id="linearGradient3796">
      <stop
         id="stop3798"
         style="stop-color:#0029a6;stop-opacity:1"
         offset="0" />
      <stop
         id="stop3800"
         style="stop-color:#0069e4;stop-opacity:1"
         offset="1" />
    </linearGradient>
    <linearGradient
       id="linearGradient3775">
      <stop
         id="stop3777"
         style="stop-color:#003db9;stop-opacity:1"
         offset="0" />
      <stop
         id="stop3779"
         style="stop-color:#ffffff;stop-opacity:1"
         offset="1" />
    </linearGradient>
    <linearGradient
       id="linearGradient3763">
      <stop
         id="stop3765"
         style="stop-color:#c40000;stop-opacity:1"
         offset="0" />
      <stop
         id="stop3767"
         style="stop-color:#ffffff;stop-opacity:1"
         offset="1" />
    </linearGradient>
    <linearGradient
       x1="609.99133"
       y1="8.8892984"
       x2="609.99133"
       y2="86.089096"
       id="linearGradient3769"
       xlink:href="#linearGradient3763"
       gradientUnits="userSpaceOnUse"
       gradientTransform="translate(-60)" />
    <linearGradient
       x1="609.99133"
       y1="8.8892984"
       x2="609.99133"
       y2="86.089096"
       id="linearGradient3773"
       xlink:href="#linearGradient3775"
       gradientUnits="userSpaceOnUse"
       gradientTransform="matrix(3.2214765,0,0,1,-1775.0336,0)" />
    <linearGradient
       x1="609.99133"
       y1="8.8892984"
       x2="609.99133"
       y2="86.089096"
       id="linearGradient3891"
       xlink:href="#linearGradient3763"
       gradientUnits="userSpaceOnUse"
       gradientTransform="translate(-60)" />
    <linearGradient
       x1="609.99133"
       y1="8.8892984"
       x2="609.99133"
       y2="86.089096"
       id="linearGradient3893"
       xlink:href="#linearGradient3775"
       gradientUnits="userSpaceOnUse"
       gradientTransform="matrix(3.2214765,0,0,1,-1775.0336,0)" />
    <linearGradient
       x1="609.99133"
       y1="8.8892984"
       x2="609.99133"
       y2="86.089096"
       id="linearGradient3951"
       xlink:href="#linearGradient3763"
       gradientUnits="userSpaceOnUse"
       gradientTransform="translate(-60)" />
    <linearGradient
       x1="609.99133"
       y1="8.8892984"
       x2="609.99133"
       y2="86.089096"
       id="linearGradient3953"
       xlink:href="#linearGradient3775"
       gradientUnits="userSpaceOnUse"
       gradientTransform="matrix(3.2214765,0,0,1,-1775.0336,0)" />
    <linearGradient
       x1="609.99133"
       y1="8.8892984"
       x2="609.99133"
       y2="86.089096"
       id="linearGradient3956"
       xlink:href="#linearGradient3775"
       gradientUnits="userSpaceOnUse"
       gradientTransform="matrix(4.0268456,0,0,1.25,-2289.5574,164.61729)" />
    <linearGradient
       x1="609.99133"
       y1="8.8892984"
       x2="609.99133"
       y2="86.089096"
       id="linearGradient3959"
       xlink:href="#linearGradient3763"
       gradientUnits="userSpaceOnUse"
       gradientTransform="matrix(1.25,0,0,1.25,-25.76543,164.61729)" />
    <linearGradient
       x1="609.99133"
       y1="8.8892984"
       x2="609.99133"
       y2="86.089096"
       id="linearGradient3773-5"
       xlink:href="#linearGradient3775-9"
       gradientUnits="userSpaceOnUse"
       gradientTransform="matrix(3.2214765,0,0,1,-1775.0336,0)" />
    <linearGradient
       x1="609.99133"
       y1="8.8892984"
       x2="609.99133"
       y2="86.089096"
       id="linearGradient3769-5"
       xlink:href="#linearGradient3763-8"
       gradientUnits="userSpaceOnUse"
       gradientTransform="translate(-60)" />
    <linearGradient
       id="linearGradient3763-8">
      <stop
         id="stop3765-2"
         style="stop-color:#c40000;stop-opacity:1"
         offset="0" />
      <stop
         id="stop3767-4"
         style="stop-color:#ffffff;stop-opacity:1"
         offset="1" />
    </linearGradient>
    <linearGradient
       id="linearGradient3775-9">
      <stop
         id="stop3777-4"
         style="stop-color:#003db9;stop-opacity:1"
         offset="0" />
      <stop
         id="stop3779-8"
         style="stop-color:#ffffff;stop-opacity:1"
         offset="1" />
    </linearGradient>
    <linearGradient
       x1="599.7522"
       y1="181.46066"
       x2="599.7522"
       y2="1.018748"
       id="linearGradient3802"
       xlink:href="#linearGradient3796"
       gradientUnits="userSpaceOnUse" />
  </defs>
  <g
     id="g863"
     transform="matrix(1.8195281,0,0,1.8195281,-2.1738281e-5,561.77928)">
    <rect
       style="fill:url(#linearGradient3802);fill-opacity:1;stroke:none"
       id="rect2989"
       y="0"
       x="0"
       height="182.5"
       width="600" />
    <rect
       style="fill:#c40000;fill-opacity:1;stroke:none"
       id="rect2991"
       y="0"
       x="613.75"
       height="182.5"
       width="186.25" />
    <g
       id="g3908"
       transform="translate(-49.23457,-164.61729)">
      <path
         style="fill:#ffffff;fill-opacity:1;stroke:none"
         id="path3914"
         d="m 556.03145,208.28916 c -17.30092,0 -31.5625,12.42565 -31.5625,29.72657 0,11.89438 6.72752,22.35979 16.5625,27.73437 l -17.96875,38.4375 h 22.92968 l 15.19532,-34.60937 h 8.59375 v 34.60937 h 20.625 v -95.89844 z m 0,17.69532 h 13.75 v 24.80468 h -13.75 c -6.15434,0 -10.9375,-5.44188 -10.9375,-12.42187 0,-6.98 4.78316,-12.38281 10.9375,-12.38281 z"
         inkscape:connector-curvature="0" />
      <path
         style="fill:#ffffff;fill-opacity:1;stroke:none"
         id="rect3804"
         d="m 492.04707,208.28916 -34.84375,55.9375 v -55.9375 h -20.625 v 95.89844 h 17.89063 l 34.49218,-55.39062 v 55.39062 h 20.625 v -95.89844 z"
         inkscape:connector-curvature="0" />
      <path
         style="fill:#ffffff;fill-opacity:1;stroke:none"
         id="path3845"
         d="m 141.68861,225.97943 h -13.75 v 24.80973 h 13.75 c 6.15433,0 10.9375,-5.42487 10.9375,-12.40486 0,-6.98 -4.78317,-12.40487 -10.9375,-12.40487 z m 0,-17.69027 c 17.30091,0 31.5625,12.42738 31.5625,29.7283 0,17.30091 -14.26159,31.5625 -31.5625,31.5625 h -13.75 v 34.60764 h -20.625 v -95.89844 z"
         inkscape:connector-curvature="0" />
      <path
         style="fill:#ffffff;fill-opacity:1;stroke:none"
         id="path3865"
         d="m 239.62519,256.29698 c 0,-5.88748 -0.63598,-11.1584 -0.78125,-15.29297 -0.33477,-9.5286 -7.63348,-17.20703 -17.07031,-17.20703 -9.43682,0 -16.7805,7.67823 -17.10937,17.20703 -0.1427,4.13469 -0.78125,9.40549 -0.78125,15.29297 0,5.88748 0.63599,11.19745 0.78125,15.33203 0.33477,9.5286 7.67255,17.20703 17.10937,17.20703 9.43683,0 16.73554,-7.67843 17.07031,-17.20703 0.14527,-4.13458 0.78125,-9.44455 0.78125,-15.33203 z m -17.89062,50.66406 c -21.26127,0 -38.47656,-17.25435 -38.47656,-38.51563 v -24.29687 c 0,-21.26128 17.21529,-38.47656 38.47656,-38.47656 21.26127,0 38.51562,17.21528 38.51562,38.47656 v 24.29687 c 0,21.26128 -17.25435,38.51563 -38.51562,38.51563 z"
         inkscape:connector-curvature="0" />
      <path
         style="fill:#ffffff;fill-opacity:1;stroke:none"
         id="path3888"
         d="m 312.78926,205.67198 c -21.26128,0 -38.63992,13.94817 -38.47656,38.47656 0.0539,8.09878 0,24.29687 0,24.29687 0,25.18182 17.21528,38.51563 38.47656,38.51563 9.09102,0 19.53569,-1.73781 28.39844,-5.35156 l -4.53125,-17.89063 c -8.55063,3.19987 -18.79426,5.11719 -23.82813,5.11719 -9.43682,0 -16.7746,-7.6589 -17.10937,-17.1875 -0.14527,-4.13458 -0.78125,-9.46408 -0.78125,-15.35156 0,-5.88748 0.63854,-11.13875 0.78125,-15.27344 0.32887,-9.5288 7.67255,-17.22656 17.10937,-17.22656 5.41574,0 16.04081,1.5894 24.17969,4.72656 l 4.375,-17.22656 c -8.21706,-3.98094 -18.51674,-5.625 -28.59375,-5.625 z"
         inkscape:connector-curvature="0" />
      <path
         style="fill:#ffffff;fill-opacity:1;stroke:none"
         id="path3890"
         d="m 392.95767,205.67198 c -21.26128,0 -38.63991,13.94817 -38.47656,38.47656 0.0539,8.09878 0,24.29687 0,24.29687 0,25.18182 17.21528,38.51563 38.47656,38.51563 9.09102,0 19.53569,-1.73781 28.39844,-5.35156 l -4.53125,-17.89063 c -8.55063,3.19987 -18.79425,5.11719 -23.82813,5.11719 -9.43682,0 -16.7746,-7.6589 -17.10937,-17.1875 -0.14527,-4.13458 -0.78125,-9.46408 -0.78125,-15.35156 0,-5.88748 0.63855,-11.13875 0.78125,-15.27344 0.32887,-9.5288 7.67255,-17.22656 17.10937,-17.22656 5.41574,0 16.04082,1.5894 24.17969,4.72656 l 4.375,-17.22656 c -8.21706,-3.98094 -18.51674,-5.625 -28.59375,-5.625 z"
         inkscape:connector-curvature="0" />
    </g>
    <g
       id="g4059"
       transform="translate(-39.726801,-164.61729)">
      <path
         style="fill:#ffffff;fill-opacity:1;stroke:none"
         id="rect3808"
         d="m 790.98411,258.71832 v 20.11514 h -42.92864 v -20.11514 z m 0.30518,-51.15582 -43.03125,48.21875 h 26.53125 l 43.03125,-48.21875 z m 3,0 v 0.78125 l 0.6875,-0.78125 z m 22.5625,5.21875 -22.5625,25.28125 v 61.25 h 22.5625 z"
         inkscape:connector-curvature="0" />
      <path
         style="fill:#ffffff;fill-opacity:1;stroke:none"
         id="path3825"
         d="m 710.16429,207.59375 v 20.25 c 4.46404,0.80777 7.84375,4.70833 7.84375,9.40625 0,7.74032 -5.44798,12.94242 -13.15625,19.1875 l -29.46875,23.875 v 17.90625 h 17.15625 l 36.6875,-32.09375 c 8.04973,-7.0418 14.40625,-17.18581 14.40625,-30.59375 0,-18.64547 -14.91989,-27.69856 -33.46875,-27.9375 z m -2.84375,0.0625 c -16.70728,1.00509 -30.15229,14.00361 -31.90625,30.5 h 23.5 c -0.0286,-0.30145 -0.0312,-0.5973 -0.0312,-0.90625 0,-4.89971 3.68926,-8.90808 8.4375,-9.46875 v -20.125 z m 13.3125,69.21875 -24.40625,21.34375 h 46.6875 V 276.875 Z"
         inkscape:connector-curvature="0" />
    </g>
  </g>
</svg>
