<?xml version="1.0" encoding="UTF-8" standalone="no"?>
<!-- Created with Inkscape (http://www.inkscape.org/) -->

<svg
   xmlns:dc="http://purl.org/dc/elements/1.1/"
   xmlns:cc="http://creativecommons.org/ns#"
   xmlns:rdf="http://www.w3.org/1999/02/22-rdf-syntax-ns#"
   xmlns:svg="http://www.w3.org/2000/svg"
   xmlns="http://www.w3.org/2000/svg"
   xmlns:sodipodi="http://sodipodi.sourceforge.net/DTD/sodipodi-0.dtd"
   xmlns:inkscape="http://www.inkscape.org/namespaces/inkscape"
   version="1.1"
   id="svg2"
   width="1455.6224"
   height="1455.6224"
   viewBox="0 0 1455.6224 1455.6224"
   sodipodi:docname="ru-Че.svg"
   inkscape:version="0.92.5 (2060ec1f9f, 2020-04-08)">
  <metadata
     id="metadata8">
    <rdf:RDF>
      <cc:Work
         rdf:about="">
        <dc:format>image/svg+xml</dc:format>
        <dc:type
           rdf:resource="http://purl.org/dc/dcmitype/StillImage" />
        <dc:title></dc:title>
      </cc:Work>
    </rdf:RDF>
  </metadata>
  <defs
     id="defs6" />
  <sodipodi:namedview
     pagecolor="#ffffff"
     bordercolor="#666666"
     borderopacity="1"
     objecttolerance="10"
     gridtolerance="10"
     guidetolerance="10"
     inkscape:pageopacity="0"
     inkscape:pageshadow="2"
     inkscape:window-width="1920"
     inkscape:window-height="1019"
     id="namedview4"
     showgrid="false"
     inkscape:zoom="0.57569874"
     inkscape:cx="727.81122"
     inkscape:cy="727.81122"
     inkscape:window-x="0"
     inkscape:window-y="0"
     inkscape:window-maximized="1"
     inkscape:current-layer="svg2" />
  <path
     style="fill:#d20c19;stroke-width:4.71306419"
     d="m 470.48685,1071.6327 c -69.32198,-11.6578 -101.02859,-56.2363 -96.3055,-135.40212 2.6106,-43.757 2.5077,-44.3235 -7.60545,-41.869 -214.77178,52.134 -324.819325,-3.5937 -317.232834,-160.6448 2.785826,-57.6709 2.785826,-57.6709 -10.073848,-60.2655 -41.5203917,-8.377 -44.8824124,-17.8304 -33.8974468,-95.30989 9.4016268,-66.31187 -0.8524218,-62.46836 166.6632788,-62.46836 181.87797,0 167.70787,-9.27202 154.13087,100.85344 -12.6869,102.90601 -9.4142,111.23441 43.70931,111.23441 32.47938,0 28.91632,8.2451 44.78116,-103.628 16.64922,-117.40431 2.25057,-105.81017 133.54558,-107.53327 141.7478,-1.86071 157.97865,3.73558 114.4002,39.44505 -131.95321,108.12572 -161.84092,357.05132 -56.13617,467.54074 16.551,17.3002 28.38245,33.1648 26.29206,35.2556 -10.65883,10.6586 -122.51912,19.4767 -162.27121,12.7917 z m 722.33985,-5.8932 c -105.0881,-55.5722 -42.2683,-215.56762 84.5785,-215.41252 127.6676,0.1555 143.7261,158.23552 21.8399,214.99212 -32.8464,15.2948 -77.9534,15.473 -106.4184,0.4194 z m -445.31835,-1.6948 C 475.1712,1006.2488 521.86598,590.01925 809.05164,515.45811 c 219.96496,-57.10867 368.82456,43.01519 352.65916,237.20147 -5.2814,63.4435 5.7832,59.5905 -175.30614,61.0507 -154.06116,1.2423 -154.06116,1.2423 -153.0716,22.2527 2.64106,56.0741 56.1218,68.2796 193.92274,44.2571 61.2061,-10.6699 61.2714,-10.6124 75.9137,66.8303 9.4145,49.7926 9.6834,55.59762 3.0443,65.73032 -26.8709,41.0097 -254.04144,73.4757 -358.70545,51.264 z M 933.67438,716.61408 c 0,-50.9374 -49.45847,-62.2968 -74.81395,-17.1829 -19.20828,34.1768 -16.13711,37.7559 32.39638,37.7559 42.41757,0 42.41757,0 42.41757,-20.573 z m 308.75282,96.9189 c -62.1044,-2.6756 -74.3345,-92.3261 -39.8644,-292.21889 26.8319,-155.59898 13.8822,-142.31992 138.7917,-142.31992 131.5561,0 125.1956,-8.97886 99.1916,140.0223 -15.8564,90.85562 -49.6245,241.62981 -59.4182,265.30121 -10.7924,26.0854 -44.8498,33.2591 -138.7007,29.2153 z"
     id="path12"
     inkscape:connector-curvature="0" />
</svg>
