<?xml version="1.0" encoding="UTF-8" standalone="no"?>
<!-- Generator: Adobe Illustrator 15.1.0, SVG Export Plug-In . SVG Version: 6.00 Build 0)  -->

<svg
   xmlns:dc="http://purl.org/dc/elements/1.1/"
   xmlns:cc="http://creativecommons.org/ns#"
   xmlns:rdf="http://www.w3.org/1999/02/22-rdf-syntax-ns#"
   xmlns:svg="http://www.w3.org/2000/svg"
   xmlns="http://www.w3.org/2000/svg"
   xmlns:xlink="http://www.w3.org/1999/xlink"
   xmlns:sodipodi="http://sodipodi.sourceforge.net/DTD/sodipodi-0.dtd"
   xmlns:inkscape="http://www.inkscape.org/namespaces/inkscape"
   version="1.1"
   id="Layer_1"
   x="0px"
   y="0px"
   width="1455.6224"
   height="1455.6224"
   viewBox="0 0 1455.6224 1455.6225"
   enable-background="new 0 0 56.693 56.693"
   xml:space="preserve"
   inkscape:version="0.92.5 (2060ec1f9f, 2020-04-08)"
   sodipodi:docname="ru-ТВЦ.svg"><metadata
   id="metadata11793"><rdf:RDF><cc:Work
       rdf:about=""><dc:format>image/svg+xml</dc:format><dc:type
         rdf:resource="http://purl.org/dc/dcmitype/StillImage" /><dc:title></dc:title></cc:Work></rdf:RDF></metadata><defs
   id="defs11791" /><sodipodi:namedview
   pagecolor="#ffffff"
   bordercolor="#666666"
   borderopacity="1"
   objecttolerance="10"
   gridtolerance="10"
   guidetolerance="10"
   inkscape:pageopacity="0"
   inkscape:pageshadow="2"
   inkscape:window-width="1920"
   inkscape:window-height="1019"
   id="namedview11789"
   showgrid="false"
   fit-margin-top="4"
   fit-margin-left="4"
   fit-margin-bottom="4"
   fit-margin-right="4"
   inkscape:zoom="0.57569846"
   inkscape:cx="731.81117"
   inkscape:cy="731.81165"
   inkscape:window-x="0"
   inkscape:window-y="0"
   inkscape:window-maximized="1"
   inkscape:current-layer="g11766" />
<g
   id="g11764"
   transform="translate(-32.501959,1413.9434)">
	<g
   id="g11766">
		<g
   id="g11768"
   transform="matrix(77.986598,0,0,77.986598,-2814.1632,-2896.7788)">
			<g
   id="g11770">
				<defs
   id="defs11772"><path
     id="SVGID_1_"
     d="m 36.502,28.365 c -0.011,-5.148 4.17,-9.342 9.316,-9.351 2.491,-0.006 4.839,0.963 6.603,2.724 1.769,1.759 2.741,4.1 2.746,6.596 0.008,5.146 -4.171,9.337 -9.316,9.345 -5.15,0.009 -9.342,-4.168 -9.349,-9.314 z"
     inkscape:connector-curvature="0" /></defs>
				<radialGradient
   id="SVGID_2_"
   cx="40.381802"
   cy="22.7041"
   r="14.9927"
   gradientUnits="userSpaceOnUse">
					<stop
   offset="0"
   style="stop-color:#ED1C24"
   id="stop11776" />
					<stop
   offset="1"
   style="stop-color:#C1272D"
   id="stop11778" />
				</radialGradient>
				<use
   xlink:href="#SVGID_1_"
   overflow="visible"
   id="use11780"
   style="overflow:visible;fill:url(#SVGID_2_)"
   x="0"
   y="0"
   width="56.693001"
   height="56.693001" />
				<clipPath
   id="SVGID_3_">
					<use
   xlink:href="#SVGID_1_"
   overflow="visible"
   id="use11783"
   style="overflow:visible"
   x="0"
   y="0"
   width="56.693001"
   height="56.693001" />
				</clipPath>
			</g>
			<path
   d="m 52.519,34.847 -2.918,-2.91 c 0.105,-0.332 0.163,-0.694 0.163,-1.081 l -0.01,-7.596 -1.996,0.003 0.008,7.597 c 0.005,1.315 -1.346,1.46 -1.926,1.46 -0.578,0 -1.927,-0.137 -1.929,-1.454 l -0.018,-7.593 h -1.998 l 0.019,7.6 c 0.003,2.064 1.582,3.45 3.932,3.445 1.011,-10e-4 1.891,-0.275 2.559,-0.755 l 2.572,2.566 c 0.556,-0.372 1.074,-0.803 1.542,-1.282 z"
   id="path11785"
   inkscape:connector-curvature="0"
   style="fill:#ffffff" />
		</g>
		
	</g>
</g>
</svg>