<?xml version="1.0" encoding="UTF-8" standalone="no"?>
<!-- Generator: Adobe Illustrator 15.1.0, SVG Export Plug-In . SVG Version: 6.00 Build 0)  -->

<svg
   xmlns:dc="http://purl.org/dc/elements/1.1/"
   xmlns:cc="http://creativecommons.org/ns#"
   xmlns:rdf="http://www.w3.org/1999/02/22-rdf-syntax-ns#"
   xmlns:svg="http://www.w3.org/2000/svg"
   xmlns="http://www.w3.org/2000/svg"
   xmlns:xlink="http://www.w3.org/1999/xlink"
   xmlns:sodipodi="http://sodipodi.sourceforge.net/DTD/sodipodi-0.dtd"
   xmlns:inkscape="http://www.inkscape.org/namespaces/inkscape"
   version="1.1"
   id="Layer_1"
   x="0px"
   y="0px"
   width="1455.6224"
   height="1455.6224"
   viewBox="0 0 1455.6224 1455.6224"
   enable-background="new 0 0 595.28 841.89"
   xml:space="preserve"
   inkscape:version="0.92.5 (2060ec1f9f, 2020-04-08)"
   sodipodi:docname="ru-Россия_2.svg"><metadata
   id="metadata3203"><rdf:RDF><cc:Work
       rdf:about=""><dc:format>image/svg+xml</dc:format><dc:type
         rdf:resource="http://purl.org/dc/dcmitype/StillImage" /><dc:title /></cc:Work></rdf:RDF></metadata><defs
   id="defs3201"><clipPath
     id="SVGID_8_"><use
       xlink:href="#SVGID_7_"
       overflow="visible"
       id="use3179"
       style="overflow:visible"
       x="0"
       y="0"
       width="595.28003"
       height="841.89001" /></clipPath><clipPath
     id="clipPath4218"><use
       xlink:href="#SVGID_7_"
       overflow="visible"
       id="use4220"
       style="overflow:visible"
       x="0"
       y="0"
       width="595.28003"
       height="841.89001" /></clipPath><clipPath
     id="clipPath4222"><use
       xlink:href="#SVGID_7_"
       overflow="visible"
       id="use4224"
       style="overflow:visible"
       x="0"
       y="0"
       width="595.28003"
       height="841.89001" /></clipPath><clipPath
     id="clipPath4226"><use
       xlink:href="#SVGID_7_"
       overflow="visible"
       id="use4228"
       style="overflow:visible"
       x="0"
       y="0"
       width="595.28003"
       height="841.89001" /></clipPath><clipPath
     id="clipPath4230"><use
       xlink:href="#SVGID_7_"
       overflow="visible"
       id="use4232"
       style="overflow:visible"
       x="0"
       y="0"
       width="595.28003"
       height="841.89001" /></clipPath><clipPath
     id="clipPath4234"><use
       xlink:href="#SVGID_7_"
       overflow="visible"
       id="use4236"
       style="overflow:visible"
       x="0"
       y="0"
       width="595.28003"
       height="841.89001" /></clipPath><clipPath
     id="clipPath4238"><use
       xlink:href="#SVGID_7_"
       overflow="visible"
       id="use4240"
       style="overflow:visible"
       x="0"
       y="0"
       width="595.28003"
       height="841.89001" /></clipPath><clipPath
     id="clipPath4242"><use
       xlink:href="#SVGID_7_"
       overflow="visible"
       id="use4244"
       style="overflow:visible"
       x="0"
       y="0"
       width="595.28003"
       height="841.89001" /></clipPath><clipPath
     id="clipPath4246"><use
       xlink:href="#SVGID_7_"
       overflow="visible"
       id="use4248"
       style="overflow:visible"
       x="0"
       y="0"
       width="595.28003"
       height="841.89001" /></clipPath><linearGradient
     id="SVGID_6_"
     gradientUnits="userSpaceOnUse"
     x1="0.0015"
     y1="841.89258"
     x2="1.0015"
     y2="841.89258"
     gradientTransform="matrix(0,94.0477,94.0477,0,-78904.883,262.5027)"><stop
       offset="0"
       style="stop-color:#5481C1"
       id="stop3163" /><stop
       offset="0.1863"
       style="stop-color:#4C75B8"
       id="stop3165" /><stop
       offset="0.5473"
       style="stop-color:#375CA5"
       id="stop3167" /><stop
       offset="1"
       style="stop-color:#1E398D"
       id="stop3169" /></linearGradient><clipPath
     id="SVGID_5_"><use
       xlink:href="#SVGID_4_"
       overflow="visible"
       id="use3160"
       style="overflow:visible"
       x="0"
       y="0"
       width="595.28003"
       height="841.89001" /></clipPath><linearGradient
     id="SVGID_3_"
     gradientUnits="userSpaceOnUse"
     x1="-0.0038999999"
     y1="841.88483"
     x2="0.99610001"
     y2="841.88483"
     gradientTransform="matrix(0,42.7098,42.7098,0,-35584.004,287.9092)"><stop
       offset="0"
       style="stop-color:#E41E26"
       id="stop3148" /><stop
       offset="1"
       style="stop-color:#BC2025"
       id="stop3150" /></linearGradient><clipPath
     id="SVGID_2_"><use
       xlink:href="#SVGID_1_"
       overflow="visible"
       id="use3145"
       style="overflow:visible"
       x="0"
       y="0"
       width="595.28003"
       height="841.89001" /></clipPath><linearGradient
     inkscape:collect="always"
     xlink:href="#SVGID_3_"
     id="linearGradient4438"
     gradientUnits="userSpaceOnUse"
     gradientTransform="matrix(0,42.7098,42.7098,0,-35584.004,287.9092)"
     x1="-0.0038999999"
     y1="841.88483"
     x2="0.99610001"
     y2="841.88483" /><linearGradient
     inkscape:collect="always"
     xlink:href="#SVGID_6_"
     id="linearGradient4440"
     gradientUnits="userSpaceOnUse"
     gradientTransform="matrix(0,94.0477,94.0477,0,-78904.883,262.5027)"
     x1="0.0015"
     y1="841.89258"
     x2="1.0015"
     y2="841.89258" /></defs><sodipodi:namedview
   pagecolor="#ffffff"
   bordercolor="#666666"
   borderopacity="1"
   objecttolerance="10"
   gridtolerance="10"
   guidetolerance="10"
   inkscape:pageopacity="0"
   inkscape:pageshadow="2"
   inkscape:window-width="1920"
   inkscape:window-height="1019"
   id="namedview3199"
   showgrid="false"
   fit-margin-top="4"
   fit-margin-left="4"
   fit-margin-bottom="4"
   fit-margin-right="4"
   inkscape:zoom="0.57569874"
   inkscape:cx="727.81122"
   inkscape:cy="727.81122"
   inkscape:window-x="0"
   inkscape:window-y="0"
   inkscape:window-maximized="1"
   inkscape:current-layer="Layer_1" />



<g
   id="g1012"
   transform="matrix(1.0408694,0,0,1.0408694,-29.745319,-29.745194)"><g
     id="g948"><g
       id="g3139"
       transform="matrix(7.1492659,0,0,7.1492659,-1400.0962,-1481.2583)"><defs
         id="defs3141"><rect
           id="SVGID_1_"
           x="350"
           y="286.642"
           width="45.445"
           height="44.702" /></defs><clipPath
         id="clipPath4028"><use
           xlink:href="#SVGID_1_"
           overflow="visible"
           id="use4030"
           style="overflow:visible"
           x="0"
           y="0"
           width="595.28003"
           height="841.89001" /></clipPath><linearGradient
         id="linearGradient4032"
         gradientUnits="userSpaceOnUse"
         x1="-0.0038999999"
         y1="841.88483"
         x2="0.99610001"
         y2="841.88483"
         gradientTransform="matrix(0,42.7098,42.7098,0,-35584.004,287.9092)"><stop
           offset="0"
           style="stop-color:#E41E26"
           id="stop4034" /><stop
           offset="1"
           style="stop-color:#BC2025"
           id="stop4036" /></linearGradient><rect
         x="350"
         y="286.642"
         clip-path="url(#SVGID_2_)"
         width="45.445"
         height="44.702"
         id="rect3152"
         style="fill:url(#linearGradient4438)" /></g><g
       id="g3154"
       transform="matrix(7.1492659,0,0,7.1492659,-1400.0962,-1481.2583)"><defs
         id="defs3156"><rect
           id="SVGID_4_"
           x="199.83501"
           y="286.64099"
           width="146.589"
           height="44.645" /></defs><clipPath
         id="clipPath4042"><use
           xlink:href="#SVGID_4_"
           overflow="visible"
           id="use4044"
           style="overflow:visible"
           x="0"
           y="0"
           width="595.28003"
           height="841.89001" /></clipPath><linearGradient
         id="linearGradient4046"
         gradientUnits="userSpaceOnUse"
         x1="0.0015"
         y1="841.89258"
         x2="1.0015"
         y2="841.89258"
         gradientTransform="matrix(0,94.0477,94.0477,0,-78904.883,262.5027)"><stop
           offset="0"
           style="stop-color:#5481C1"
           id="stop4048" /><stop
           offset="0.1863"
           style="stop-color:#4C75B8"
           id="stop4050" /><stop
           offset="0.5473"
           style="stop-color:#375CA5"
           id="stop4052" /><stop
           offset="1"
           style="stop-color:#1E398D"
           id="stop4054" /></linearGradient><rect
         x="199.83501"
         y="286.64099"
         clip-path="url(#SVGID_5_)"
         width="146.589"
         height="44.645"
         id="rect3171"
         style="fill:url(#linearGradient4440)" /></g><g
       id="g3173"
       transform="matrix(7.1492659,0,0,7.1492659,-1400.0962,-1481.2583)"><defs
         id="defs3175"><rect
           id="SVGID_7_"
           y="0"
           width="595.28003"
           height="841.89001"
           x="0" /></defs><clipPath
         id="clipPath4060"><use
           xlink:href="#SVGID_7_"
           overflow="visible"
           id="use4062"
           style="overflow:visible"
           x="0"
           y="0"
           width="595.28003"
           height="841.89001" /></clipPath><path
         clip-path="url(#SVGID_8_)"
         d="m 368.492,301.093 c 0.674,-1.311 1.572,-1.912 2.414,-2.153 v -7.731 c -5.008,0.488 -7.83,3.001 -9.398,5.198 -1.301,1.778 -2.133,4.071 -2.457,6.379 h 8.863 c 0.133,-0.578 0.316,-1.172 0.578,-1.693"
         id="path3181"
         inkscape:connector-curvature="0"
         style="fill:#ffffff" /><path
         clip-path="url(#SVGID_8_)"
         d="m 381.461,293.813 c -1.596,-1.297 -4.391,-2.695 -8.779,-2.695 -0.034,0 -0.064,0.003 -0.1,0.003 v 7.755 c 0.922,0.166 1.521,0.619 1.844,1.022 0.5,0.649 0.799,1.595 0.799,2.494 0,0.113 -0.006,0.23 -0.016,0.346 l -0.004,0.034 c 0,0 0.225,2.559 -3.189,5.705 -3.416,3.147 -13.002,10.516 -13.002,10.516 v 6.84 h 6.354 l 13.543,-11.713 c 0,0 5.82,-4.824 6.332,-10.729 v -0.095 c 0.039,-0.366 0.059,-0.735 0.059,-1.103 -0.001,-2.844 -1.001,-6.087 -3.841,-8.38"
         id="path3183"
         inkscape:connector-curvature="0"
         style="fill:#ffffff" /><polygon
         clip-path="url(#SVGID_8_)"
         points="384.99,325.833 384.99,317.654 377.385,317.654 367.934,325.833 "
         id="polygon3185"
         style="fill:#ffffff" /><path
         clip-path="url(#SVGID_8_)"
         d="m 226.161,299.765 c -1.787,-1.123 -3.874,-1.179 -5.721,-1.179 h -7.685 v 20.757 h 4.841 v -7.926 h 3.482 c 1.844,0 4.447,0.028 6.475,-2.513 0.998,-1.272 1.363,-2.63 1.363,-4.026 0,-2.843 -1.544,-4.358 -2.755,-5.113 m -2.935,7.259 c -0.787,0.729 -1.847,0.758 -2.573,0.758 h -3.057 v -5.569 h 3.15 c 0.786,0 1.815,0.094 2.538,0.757 0.515,0.483 0.789,1.212 0.789,1.998 0,0.755 -0.304,1.544 -0.847,2.056"
         id="path3187"
         inkscape:connector-curvature="0"
         style="fill:#ffffff" /><path
         clip-path="url(#SVGID_8_)"
         d="m 240.924,298.279 c -1.728,0 -4.024,0.332 -6.021,2.121 -1.848,1.664 -3.332,4.571 -3.332,8.565 0,3.51 1.153,6.506 3.117,8.349 1.181,1.121 3.209,2.333 6.236,2.333 3.025,0 5.052,-1.212 6.234,-2.33 1.964,-1.846 3.116,-4.842 3.116,-8.352 0,-3.994 -1.48,-6.901 -3.329,-8.565 -1.998,-1.789 -4.296,-2.121 -6.021,-2.121 m 3.057,15.889 c -0.577,0.939 -1.574,1.845 -3.057,1.845 -1.484,0 -2.483,-0.906 -3.057,-1.845 -0.424,-0.694 -1.09,-2.176 -1.09,-5.265 0,-3.087 0.695,-4.542 1.09,-5.177 0.878,-1.387 1.936,-1.813 3.057,-1.813 1.12,0 2.176,0.426 3.057,1.813 0.393,0.635 1.088,2.09 1.088,5.177 0,3.089 -0.664,4.571 -1.088,5.265"
         id="path3189"
         inkscape:connector-curvature="0"
         style="fill:#ffffff" /><path
         clip-path="url(#SVGID_8_)"
         d="m 262.768,301.913 c 1.419,0 2.326,0.544 3.023,1.813 0.424,0.757 0.639,1.665 0.698,2.481 l 4.539,-0.36 c -0.243,-3.18 -1.998,-4.993 -2.362,-5.356 -1.875,-1.847 -4.294,-2.21 -5.898,-2.21 -1.576,0 -4.148,0.209 -6.358,2.42 -1.753,1.756 -2.996,4.69 -2.996,8.233 0,2.088 0.485,4.571 1.512,6.354 1.031,1.788 3.392,4.358 7.81,4.358 2.843,0 4.69,-1.149 5.841,-2.266 1.119,-1.093 2.208,-2.877 2.451,-5.208 l -4.447,-0.424 c -0.092,0.817 -0.396,1.967 -0.971,2.783 -0.817,1.153 -1.877,1.482 -2.874,1.482 -1.031,0 -2.482,-0.42 -3.39,-2.418 -0.544,-1.152 -0.726,-2.632 -0.726,-4.723 0,-1.967 0.183,-3.359 0.726,-4.568 0.756,-1.637 1.815,-2.391 3.422,-2.391"
         id="path3191"
         inkscape:connector-curvature="0"
         style="fill:#ffffff" /><path
         clip-path="url(#SVGID_8_)"
         d="m 283.308,301.913 c 1.421,0 2.329,0.544 3.026,1.813 0.424,0.757 0.637,1.667 0.697,2.481 l 4.537,-0.36 c -0.24,-3.18 -1.994,-4.993 -2.359,-5.356 -1.877,-1.847 -4.297,-2.21 -5.901,-2.21 -1.575,0 -4.145,0.209 -6.355,2.42 -1.754,1.756 -2.996,4.69 -2.996,8.233 0,2.088 0.485,4.571 1.514,6.354 1.027,1.788 3.388,4.36 7.809,4.36 2.843,0 4.689,-1.151 5.84,-2.268 1.117,-1.093 2.208,-2.877 2.448,-5.208 l -4.445,-0.424 c -0.092,0.817 -0.394,1.969 -0.97,2.783 -0.817,1.153 -1.877,1.482 -2.873,1.482 -1.032,0 -2.485,-0.42 -3.392,-2.418 -0.544,-1.152 -0.726,-2.632 -0.726,-4.723 0,-1.967 0.182,-3.359 0.726,-4.568 0.759,-1.637 1.816,-2.391 3.42,-2.391"
         id="path3193"
         inkscape:connector-curvature="0"
         style="fill:#ffffff" /><path
         clip-path="url(#SVGID_8_)"
         d="m 307.27,300.065 -6.266,9.986 c -0.18,0.304 -0.604,1.09 -0.818,1.879 0.031,-0.272 0.154,-1.153 0.154,-2.574 v -10.771 h -4.843 v 20.76 h 4.843 v -1.666 l 6.262,-9.957 c 0.242,-0.393 0.639,-1.27 0.82,-1.876 -0.063,0.361 -0.152,1.24 -0.152,2.697 v 10.802 h 4.842 v -20.76 h -4.842 z"
         id="path3195"
         inkscape:connector-curvature="0"
         style="fill:#ffffff" /><path
         clip-path="url(#SVGID_8_)"
         d="m 324.422,298.585 c -1.693,0 -3.631,0.183 -5.205,1.33 -1.148,0.843 -2.361,2.36 -2.361,4.962 0,2.119 0.758,3.422 1.514,4.147 0.789,0.758 1.996,1.269 2.936,1.513 l -5.021,8.809 h 5.266 l 4.268,-8.292 h 2.844 v 8.292 h 4.844 v -20.761 z m 4.238,8.834 h -3.725 c -0.662,0 -1.662,-0.059 -2.421,-0.664 -0.726,-0.607 -0.815,-1.424 -0.815,-1.938 0,-1.119 0.453,-1.724 0.94,-2.056 0.571,-0.394 1.603,-0.545 2.358,-0.545 h 3.662 v 5.203 z"
         id="path3197"
         inkscape:connector-curvature="0"
         style="fill:#ffffff" /></g></g><path
     inkscape:connector-curvature="0"
     id="path950"
     d="m 121.93878,727.81994 v -73.98831 l 39.51719,0.63615 c 35.48474,0.57124 40.31483,1.00317 47.33379,4.2328 18.04851,8.30465 26.27242,20.69964 26.27242,39.59751 0,14.40906 -4.13615,23.92753 -14.54786,33.47884 -10.72987,9.84317 -21.08467,12.70968 -45.91172,12.70968 h -19.66045 v 28.66082 28.66082 h -16.50169 -16.50168 z m 68.44105,-10.07365 c 7.9424,-3.31855 11.46185,-8.97523 11.46185,-18.42219 0,-15.31045 -8.51646,-20.84424 -32.07907,-20.84424 h -14.82046 v 20.84424 20.84423 h 14.82046 c 8.74521,0 17.19668,-0.99285 20.61722,-2.42204 z"
     style="fill:#ffffff;fill-opacity:1;stroke:#00f3ff;stroke-width:1.73701966;stroke-opacity:1" /><path
     inkscape:connector-curvature="0"
     id="path952"
     d="m 304.38299,800.87626 c -19.50542,-5.47148 -34.55099,-19.32029 -41.67452,-38.35964 -15.47027,-41.34798 -1.5471,-88.49415 30.80902,-104.32453 12.42151,-6.07727 34.80015,-7.62384 49.30431,-3.40736 26.64945,7.7472 42.77275,31.98861 44.47482,66.86798 1.36154,27.90126 -4.98763,48.35005 -19.70337,63.45862 -14.47387,14.86025 -41.97971,21.72033 -63.21026,15.76493 z m 26.48819,-24.04086 c 12.91662,-5.52665 19.51995,-18.10918 21.41236,-40.80087 2.13994,-25.65971 -4.30462,-47.04936 -16.7178,-55.48675 -5.02143,-3.41313 -7.65507,-3.98569 -15.45206,-3.35931 -8.30193,0.66694 -10.1633,1.57451 -15.94784,7.77585 -8.96484,9.61078 -11.11577,18.09725 -11.12384,43.88911 -0.006,20.65793 0.24636,22.21906 5.20427,32.13486 4.2218,8.4436 6.68238,11.16406 12.96145,14.33041 9.01515,4.54608 12.03835,4.77927 19.66346,1.5167 z"
     style="fill:#ffffff;fill-opacity:1;stroke:#00f3ff;stroke-width:1.73701966;stroke-opacity:1" /><path
     inkscape:connector-curvature="0"
     id="path954"
     d="m 460.69971,800.87106 c -25.379,-7.1145 -40.61349,-24.95937 -46.18984,-54.1043 -3.10655,-16.23647 -3.09486,-24.32239 0.0566,-39.19417 3.27657,-15.46195 9.76636,-28.11222 19.55429,-38.11633 10.66642,-10.90199 22.03803,-15.66994 39.72315,-16.65531 25.12795,-1.40008 42.91303,6.99666 54.02295,25.50547 4.75269,7.91783 10.07965,24.21063 8.4489,25.84139 -0.28894,0.28893 -7.13717,0.99194 -15.2183,1.56223 l -14.69297,1.0369 -2.24327,-8.01218 c -1.2338,-4.4067 -4.74142,-10.9021 -7.79471,-14.43423 -5.04152,-5.83219 -6.49766,-6.48301 -15.85338,-7.08566 -13.22908,-0.85214 -19.68687,2.96142 -26.30279,15.53278 -4.6165,8.77213 -4.83244,10.26746 -4.8378,33.50025 -0.005,19.34244 0.63945,25.98994 3.14693,32.48817 6.41529,16.62542 21.65915,23.89288 36.42038,17.36329 6.22422,-2.75327 8.54034,-5.13678 12.27593,-12.63314 2.53236,-5.08178 4.60429,-10.69734 4.60429,-12.47902 0,-2.82573 0.99821,-3.11491 7.81659,-2.26448 25.79024,3.21675 23.56795,2.463 22.39574,7.59612 -1.97309,8.64013 -8.80871,22.15018 -14.46914,28.59705 -12.95162,14.75108 -39.93024,21.82342 -60.86359,15.95517 z"
     style="fill:#ffffff;fill-opacity:1;stroke:#00f3ff;stroke-width:1.73701966;stroke-opacity:1" /><path
     inkscape:connector-curvature="0"
     id="path956"
     d="m 610.65802,801.84792 c -18.14992,-3.86507 -35.23028,-17.72168 -43.09823,-34.96386 -6.15676,-13.49218 -8.42355,-27.49738 -7.42054,-45.84722 1.83113,-33.5 18.61712,-58.46274 44.52027,-66.20686 14.02145,-4.19192 36.52626,-2.68409 48.02122,3.21743 15.37472,7.89339 27.05994,23.35269 29.58435,39.13947 1.09233,6.83107 1.08912,6.83562 -5.60184,7.94103 -3.68213,0.60831 -10.79849,1.11463 -15.81414,1.12515 -8.22362,0.0172 -9.11935,-0.35356 -9.11935,-3.77502 0,-2.08677 -1.67002,-7.24393 -3.71116,-11.46035 -9.52661,-19.67936 -35.1847,-19.24792 -46.24037,0.77752 -8.97197,16.25117 -9.03678,53.88623 -0.12309,71.48568 5.46291,10.78613 16.76862,16.88104 27.87907,15.0296 9.74562,-1.62401 19.16191,-11.20515 21.96917,-22.35381 2.01109,-7.98676 2.05459,-8.02357 8.50624,-7.19862 3.56665,0.45606 10.27356,1.30414 14.90426,1.88463 l 8.41945,1.05543 -1.1793,6.28617 c -2.9839,15.90559 -15.65912,31.90867 -31.35596,39.58841 -10.06053,4.92216 -28.08648,6.84206 -40.14004,4.27522 z"
     style="fill:#ffffff;fill-opacity:1;stroke:#00f3ff;stroke-width:1.73701966;stroke-opacity:1" /><path
     inkscape:connector-curvature="0"
     id="path958"
     d="m 712.52545,727.98492 v -73.82333 h 16.50168 16.50169 l 0.0199,47.33378 0.0199,47.33379 5.83575,-10.42212 c 3.20966,-5.73217 14.92559,-24.81579 26.0354,-42.40805 13.50633,-21.38712 20.19966,-33.61811 20.19966,-36.91166 v -4.92574 h 16.50168 16.50169 v 73.82333 73.82333 h -16.50169 -16.50168 l -0.11756,-48.20229 c -0.0896,-36.74747 -0.57398,-47.17033 -2.03815,-43.85975 -1.05633,2.38841 -12.72831,21.62254 -25.93774,42.74251 -17.62626,28.18186 -24.01714,39.85279 -24.01714,43.85975 v 5.45978 h -16.50169 -16.50168 z"
     style="fill:#ffffff;fill-opacity:1;stroke:#00f3ff;stroke-width:1.73701966;stroke-opacity:1" /><path
     inkscape:connector-curvature="0"
     id="path960"
     d="m 865.03162,796.16294 c 10.22995,-16.95659 31.6179,-55.23099 31.6179,-56.5812 0,-0.86418 -3.50918,-2.91141 -7.79819,-4.54939 -22.07838,-8.43182 -29.68878,-37.3404 -15.89408,-60.37469 4.34738,-7.25921 7.54128,-10.17337 15.74605,-14.36694 l 10.29248,-5.26062 42.25236,-0.56994 42.25237,-0.56994 v 73.95902 73.95901 h -16.46067 -16.46067 l -0.47527,-29.96358 -0.47528,-29.96359 h -10.42211 -10.42212 l -15.23867,29.96359 -15.23867,29.96358 h -18.34063 -18.34063 z m 85.46551,-98.76333 v -19.29469 l -19.61951,0.62281 c -22.8719,0.72605 -27.72094,2.83967 -30.90634,13.4716 -1.74233,5.81538 -1.56636,7.73895 1.23093,13.45521 4.6064,9.41318 8.97495,10.98446 30.62196,11.01415 l 18.67296,0.0256 z"
     style="fill:#ffffff;fill-opacity:1;stroke:#00f3ff;stroke-width:1.73701966;stroke-opacity:1" /><path
     inkscape:connector-curvature="0"
     id="path962"
     d="m 1168.616,677.1771 c 6.2299,-28.13799 23.6089,-52.72103 45.4426,-64.27961 10.7667,-5.69982 26.3852,-10.84649 32.9156,-10.84649 h 4.0273 v 26.9238 c 0,16.14411 -0.6712,26.92381 -1.6766,26.92381 -3.81,0 -13.9341,11.11571 -16.6853,18.31965 l -2.9543,7.73564 h -31.0634 -31.0635 z"
     style="fill:#ffffff;fill-opacity:1;stroke:#00f3ff;stroke-width:1.73701966;stroke-opacity:1" /><path
     inkscape:connector-curvature="0"
     id="path964"
     d="m 1167.7288,823.08674 0.1042,-23.88402 41.7491,-33.00337 c 60.3548,-47.71158 72.9406,-62.23621 73.1495,-84.41855 0.1122,-11.91343 -4.1672,-20.38744 -12.1935,-24.14517 l -5.5652,-2.60553 -0.038,-27.48305 -0.038,-27.48305 9.9878,1.12904 c 25.9665,2.93526 42.9463,10.14003 56.9864,24.18009 10.2902,10.29027 15.2646,19.03825 19.0165,33.44297 5.1261,19.68035 2.4631,40.972 -7.6237,60.95383 -10.3545,20.5121 -23.1096,33.8148 -77.9301,81.27574 l -53.0465,45.92509 h -22.3318 -22.3317 z"
     style="fill:#ffffff;fill-opacity:1;stroke:#00f3ff;stroke-width:1.73701966;stroke-opacity:1" /><path
     inkscape:connector-curvature="0"
     id="path966"
     d="m 1240.7691,840.28287 c 4.1948,-3.67834 18.5701,-16.17039 31.9452,-27.76013 l 24.3182,-21.07223 27.3581,-0.0322 27.3581,-0.0322 v 27.79231 27.79231 h -59.3033 -59.3032 z"
     style="fill:#ffffff;fill-opacity:1;stroke:#00f3ff;stroke-width:1.73701966;stroke-opacity:1" /></g></svg>