<?xml version="1.0" encoding="UTF-8" standalone="no"?>
<!-- Created with Inkscape (http://www.inkscape.org/) -->

<svg
   xmlns:dc="http://purl.org/dc/elements/1.1/"
   xmlns:cc="http://creativecommons.org/ns#"
   xmlns:rdf="http://www.w3.org/1999/02/22-rdf-syntax-ns#"
   xmlns:svg="http://www.w3.org/2000/svg"
   xmlns="http://www.w3.org/2000/svg"
   xmlns:sodipodi="http://sodipodi.sourceforge.net/DTD/sodipodi-0.dtd"
   xmlns:inkscape="http://www.inkscape.org/namespaces/inkscape"
   version="1.1"
   id="svg2"
   width="1455.6224"
   height="1455.6224"
   viewBox="0 0 1455.6224 1455.6224"
   sodipodi:docname="ru-РЖД_ТВ.svg"
   inkscape:version="0.92.5 (2060ec1f9f, 2020-04-08)">
  <metadata
     id="metadata8">
    <rdf:RDF>
      <cc:Work
         rdf:about="">
        <dc:format>image/svg+xml</dc:format>
        <dc:type
           rdf:resource="http://purl.org/dc/dcmitype/StillImage" />
        <dc:title />
      </cc:Work>
    </rdf:RDF>
  </metadata>
  <defs
     id="defs6" />
  <sodipodi:namedview
     pagecolor="#ffffff"
     bordercolor="#666666"
     borderopacity="1"
     objecttolerance="10"
     gridtolerance="10"
     guidetolerance="10"
     inkscape:pageopacity="0"
     inkscape:pageshadow="2"
     inkscape:window-width="1920"
     inkscape:window-height="1019"
     id="namedview4"
     showgrid="false"
     inkscape:zoom="0.57569874"
     inkscape:cx="727.81122"
     inkscape:cy="727.81122"
     inkscape:window-x="0"
     inkscape:window-y="0"
     inkscape:window-maximized="1"
     inkscape:current-layer="svg2" />
  <g
     id="g12"
     transform="matrix(4.9623492,0,0,4.9623492,-66.164661,115.78816)">
    <path
       style="fill:#d4252b;stroke-width:1.33333337"
       d="M 13.333333,123.33333 V 77.333333 H 160 306.66667 v 45.999997 46 H 160 13.333333 Z M 140,150 v -4.66667 h 12.66667 12.66666 v 4.75523 c 0,4.40092 0.27322,4.7238 3.66667,4.33333 3.47796,-0.40017 3.68741,-0.82196 4.06972,-8.19516 0.35756,-6.89589 0.0943,-7.85402 -2.33333,-8.48884 C 168.1626,137.06484 168,136.0412 168,120.51116 V 104 h -13.14281 -13.1428 l -0.70959,10.35265 c -0.89609,13.07361 -3.45171,21.83954 -6.60771,22.66484 C 132.40567,137.53827 132,139.08473 132,146.15551 v 8.51116 h 4 c 3.68253,0 4,-0.37038 4,-4.66667 z m 6.116,-15.66667 c 2.00561,-6.25211 3.15481,-12.50522 3.18552,-17.33333 0.0307,-4.81934 0.20043,-5 4.69848,-5 h 4.66667 v 12.66667 12.66666 h -6.75652 c -6.40302,0 -6.70616,-0.15696 -5.79415,-3 z M 49.333333,140 c 0,-4.92749 0.279018,-5.33389 3.666667,-5.34077 6.276664,-0.0133 13.4985,-2.63502 15.627356,-5.67439 4.209525,-6.00994 1.544771,-22.02103 -4.020425,-24.1566 C 63.419831,104.37271 57.397639,104 51.224284,104 H 40 v 20.66667 20.66666 h 4.666667 c 4.555556,0 4.666666,-0.12693 4.666666,-5.33333 z m 0,-20.59 V 112 h 6.06968 6.069679 l -0.403012,7 -0.403013,7 L 55,126.41 l -5.666667,0.40999 z m 39.20817,20.53999 c 1.959392,-2.96084 4.138001,-6.89695 4.84135,-8.74691 2.043592,-5.37505 3.95048,-2.378 3.95048,6.20895 0,7.91256 0.0044,7.9213 3.999997,7.9213 3.99559,0 4,-0.009 4,-7.9213 0,-8.809 1.92588,-11.56086 4.07702,-5.8256 0.77294,2.0608 2.95342,5.9969 4.8455,8.7469 2.97338,4.32158 4.1392,5 8.59215,5 2.8336,0 5.152,-0.47994 5.152,-1.06656 0,-0.5866 -2.58415,-4.6366 -5.74257,-9 -3.15841,-4.36339 -6.17331,-8.65026 -6.69979,-9.52638 -0.55414,-0.92217 1.864,-5.45962 5.74257,-10.77546 C 124.98509,109.91454 128,105.38136 128,104.8912 128,104.40104 125.58679,104 122.6373,104 c -4.93631,0 -5.6784,0.49782 -9.33333,6.26104 -2.18385,3.44357 -3.97064,7.04357 -3.97064,8 0,0.95643 -0.9,1.73896 -2,1.73896 -1.55555,0 -2,-1.77778 -2,-8 v -8 h -4 -3.999997 v 8 c 0,6.22222 -0.444444,8 -2,8 -1.1,0 -2,-0.79713 -2,-1.77141 0,-0.97427 -1.856541,-4.57427 -4.125648,-8 C 85.466236,104.58003 84.597073,104 79.874352,104 c -2.864227,0 -5.207685,0.46649 -5.207685,1.03665 0,0.57016 2.972746,5.16581 6.606102,10.21256 l 6.606104,9.17591 -2.84954,4.12077 c -1.567245,2.26643 -4.539992,6.30712 -6.606102,8.97931 -4.99581,6.46132 -4.754398,7.80813 1.399588,7.80813 4.546366,0 5.577469,-0.63665 8.718684,-5.38334 z M 236,128.66667 V 112 h 5.33333 c 5.03704,0 5.33334,-0.22222 5.33334,-4 v -4 H 231.33333 216 v 4 c 0,3.77778 0.29629,4 5.33333,4 h 5.33334 v 16.66667 16.66666 H 231.33333 236 Z m 46.78596,12.85229 c 3.37976,-4.17627 3.25224,-10.5968 -0.28527,-14.36229 -2.61436,-2.78287 -2.66573,-3.18211 -0.66666,-5.18118 2.21262,-2.21262 2.94054,-10.75431 1.14556,-13.44255 C 280.84041,105.32924 275.69153,104 265.42099,104 h -10.75432 v 20.79537 20.79538 l 12.78596,-0.46204 c 11.5374,-0.41692 13.03469,-0.76942 15.33333,-3.60975 z M 264,132.66667 v -4.82 l 5.66667,0.41 c 5.31629,0.38465 5.66666,0.65732 5.66666,4.41 0,3.75268 -0.35037,4.02534 -5.66666,4.41 l -5.66667,0.41 z m 0.66611,-12.44501 C 264.29975,119.8553 264,117.85556 264,115.77778 264,112.25926 264.36601,112 269.33333,112 c 5.03704,0 5.33334,0.22222 5.33334,4 0,2.25185 -0.7284,4.04856 -1.66667,4.11111 -0.91667,0.0611 -3.01692,0.26086 -4.66723,0.44388 -1.6503,0.18303 -3.3003,0.033 -3.66666,-0.33333 z"
       id="path16"
       inkscape:connector-curvature="0" />
    <path
       style="fill:#075181;stroke-width:1.33333337"
       d="M 196,123.33333 V 77.333333 h 55.33333 55.33334 v 45.999997 46 H 251.33333 196 Z m 40,5.33334 V 112 h 5.33333 c 5.03704,0 5.33334,-0.22222 5.33334,-4 v -4 H 231.33333 216 v 4 c 0,3.77778 0.29629,4 5.33333,4 h 5.33334 v 16.66667 16.66666 H 231.33333 236 Z m 46.78596,12.85229 c 3.37976,-4.17627 3.25224,-10.5968 -0.28527,-14.36229 -2.61436,-2.78287 -2.66573,-3.18211 -0.66666,-5.18118 2.21262,-2.21262 2.94054,-10.75431 1.14556,-13.44255 C 280.84041,105.32924 275.69153,104 265.42099,104 h -10.75432 v 20.79537 20.79538 l 12.78596,-0.46204 c 11.5374,-0.41692 13.03469,-0.76942 15.33333,-3.60975 z M 264,132.66667 v -4.82 l 5.66667,0.41 c 5.31629,0.38465 5.66666,0.65732 5.66666,4.41 0,3.75268 -0.35037,4.02534 -5.66666,4.41 l -5.66667,0.41 z m 0.66611,-12.44501 C 264.29975,119.8553 264,117.85556 264,115.77778 264,112.25926 264.36601,112 269.33333,112 c 5.03704,0 5.33334,0.22222 5.33334,4 0,2.25185 -0.7284,4.04856 -1.66667,4.11111 -0.91667,0.0611 -3.01692,0.26086 -4.66723,0.44388 -1.6503,0.18303 -3.3003,0.033 -3.66666,-0.33333 z"
       id="path14"
       inkscape:connector-curvature="0" />
  </g>
  <path
     style="fill:#ffffff;fill-opacity:1;stroke:#00f3ff;stroke-width:1.73701966;stroke-opacity:1"
     d="M 132.36089,734.90834 V 632.96909 l 57.75591,0.69012 c 62.13357,0.74244 65.34825,1.19122 73.71404,10.29065 6.17174,6.71296 14.03975,25.65228 17.16307,41.31369 3.54358,17.76879 2.65907,47.14682 -1.79305,59.55421 -7.37084,20.54139 -35.25322,34.39758 -75.92046,37.72878 -10.19535,0.83514 -19.35089,2.02145 -20.34566,2.63625 -3.20998,1.98388 -5.39172,13.65135 -5.40165,28.88686 -0.0139,21.2869 -0.22492,21.47385 -25.05309,22.19421 l -20.11911,0.58374 z m 80.31954,8.53107 c 11.51217,-0.6548 21.06276,-2.00307 21.93188,-3.09614 0.84674,-1.06493 2.05588,-13.66111 2.68699,-27.99153 0.6311,-14.33041 1.59831,-29.37734 2.14936,-33.43762 l 1.00191,-7.38234 H 208.98699 177.5234 v 37.54315 37.54315 l 7.38234,-1.00939 c 4.06028,-0.55516 16.55889,-1.53134 27.77469,-2.16928 z"
     id="path814"
     inkscape:connector-curvature="0" />
  <path
     style="fill:#ffffff;fill-opacity:1;stroke:#00f3ff;stroke-width:1.73701966;stroke-opacity:1"
     d="m 313.03209,834.3932 c -3.33212,-1.20291 -6.32485,-3.57679 -6.65051,-5.2753 -0.81237,-4.23702 6.25506,-15.87363 23.97115,-39.46878 17.98259,-23.95008 39.97985,-54.96843 39.97985,-56.37561 0,-0.55652 -8.05687,-12.13569 -17.90417,-25.73148 -35.26075,-48.68321 -48.34614,-69.34414 -45.63894,-72.06075 0.71002,-0.71248 9.79355,-1.55913 20.18561,-1.88144 22.06032,-0.6842 27.76819,1.49992 38.14644,14.59679 10.26147,12.94949 27.11246,41.79287 30.25693,51.78995 3.03474,9.64821 5.02536,11.49665 12.38101,11.49665 7.45247,0 8.53976,-5.08984 9.18377,-42.99123 l 0.59767,-35.17465 h 18.75001 18.75 l 0.67792,34.44488 c 0.76144,38.68839 2.10983,43.721 11.7142,43.721 5.73599,0 8.08791,-2.29247 9.81134,-9.56332 3.28884,-13.87497 29.93571,-57.07667 39.55949,-64.13645 4.35874,-3.19748 7.38537,-3.5976 27.21331,-3.5976 12.27001,0 22.83926,0.53014 23.4872,1.17808 1.38875,1.38874 -9.64378,18.79309 -29.5331,46.58996 -15.77963,22.05324 -29.63034,45.21996 -31.36132,52.45496 -0.96074,4.01572 1.85842,8.87741 19.68598,33.94875 23.00027,32.34585 42.05689,60.88496 42.05689,62.98423 0,4.11283 -27.11177,6.54997 -39.58288,3.5582 -15.09642,-3.62156 -29.84224,-22.06734 -48.39407,-60.53691 -9.62174,-19.95188 -12.53145,-23.25653 -17.12239,-19.44639 -4.51283,3.74531 -6.47608,15.72744 -7.59926,46.37987 -0.74998,20.46753 -1.78645,30.57754 -3.28879,32.07987 -1.20653,1.20654 -7.46818,2.49172 -13.91479,2.85599 -9.65549,0.54558 -12.4543,0.0686 -15.8815,-2.70659 -4.02341,-3.25795 -4.20141,-4.42189 -5.40554,-35.3477 -1.39127,-35.73171 -3.7444,-45.71782 -10.5326,-44.69777 -2.81128,0.42244 -6.34761,5.67435 -14.41224,21.40404 -17.2047,33.55696 -30.48322,52.78488 -39.76836,57.5864 -7.03222,3.63651 -31.38071,4.82392 -39.41831,1.92235 z"
     id="path816"
     inkscape:connector-curvature="0" />
  <path
     style="fill:#ffffff;fill-opacity:1;stroke:#00f3ff;stroke-width:1.73701966;stroke-opacity:1"
     d="m 589.51712,845.668 c 0.84961,-40.73767 1.66425,-43.94408 12.70758,-50.01637 16.35877,-8.99504 27.10609,-47.67873 32.07073,-115.43475 1.01502,-13.85273 2.28856,-30.07215 2.83009,-36.04316 l 0.98459,-10.85637 h 63.93988 63.93988 l 0.73262,75.1261 c 0.84355,86.50141 0.72739,85.76049 14.36201,91.60497 11.06546,4.74321 11.93826,7.88496 10.68753,38.47176 -1.28173,31.34481 -3.17503,38.07663 -11.50914,40.92166 -8.38991,2.86407 -19.98085,2.78945 -22.41566,-0.14434 -1.10172,-1.32748 -2.48949,-11.48905 -3.08394,-22.58126 l -1.08081,-20.16759 h -63.1355 -63.1355 v 19.85165 c 0,25.43446 0.10769,25.31086 -22.05263,25.31086 H 588.76543 Z M 721.21054,734.933 v -63.40122 h -19.64373 c -13.80719,0 -20.60229,0.70092 -22.86991,2.35905 -2.67109,1.95315 -3.46344,5.89456 -4.6051,22.90738 -1.85621,27.6607 -4.17086,41.94651 -10.58518,65.33067 -2.97261,10.83701 -5.47057,22.81626 -5.55102,26.62056 -0.1337,6.32246 0.30157,7.01388 5.06479,8.04532 2.86608,0.62064 17.13135,1.22091 31.7006,1.33394 l 26.48955,0.20551 z"
     id="path818"
     inkscape:connector-curvature="0" />
  <path
     style="fill:#ffffff;fill-opacity:1;stroke:#00f3ff;stroke-width:1.73701966;stroke-opacity:1"
     d="m 1059.9294,754.28655 v -82.2621 l -23.608,-0.90084 c -29.4472,-1.12366 -29.1466,-0.90073 -29.9782,-22.23319 l -0.6071,-15.57307 h 75.7332 75.7332 v 14.57223 c 0,21.80259 -0.3779,22.09455 -30.0605,23.22719 l -23.7871,0.90768 v 82.2621 82.2621 h -21.7128 -21.7127 z"
     id="path820"
     inkscape:connector-curvature="0" />
  <path
     style="fill:#ffffff;fill-opacity:1;stroke:#00f3ff;stroke-width:1.73701966;stroke-opacity:1"
     d="M 1198.8909,735.18689 V 633.31735 h 40.6943 c 56.2089,0 77.7117,3.58122 91.5825,15.25276 8.031,6.75761 10.4884,14.33986 10.404,32.10058 -0.083,17.53691 -3.5713,31.75359 -9.5556,38.94787 -7.9361,9.54061 -8.6283,12.24748 -4.7403,18.53836 1.9341,3.12936 5.1895,7.20164 7.2343,9.0495 6.3944,5.77847 12.4321,19.91809 13.3412,31.24367 1.6596,20.67465 -8.4047,41.24062 -23.9714,48.98488 -9.8251,4.88789 -28.1892,6.7275 -83.7347,8.38811 l -41.2543,1.23335 z m 89.2642,59.67091 c 10.7037,-2.33551 12.3515,-5.08862 12.3515,-20.63693 0,-8.71945 -0.8235,-14.55942 -2.3048,-16.3442 -2.9152,-3.5127 -15.3765,-5.93512 -38.0809,-7.40281 l -17.8045,-1.15094 v 24.72912 24.72912 l 19.5415,-1.22463 c 10.7478,-0.67355 22.5816,-1.88798 26.2972,-2.69873 z m 2.9327,-83.44671 c 7.2975,-3.90549 9.1395,-32.61223 2.4085,-37.53408 -2.2583,-1.65132 -9.1968,-2.34523 -23.4503,-2.34523 -26.601,0 -27.6877,1.2298 -26.3675,29.83952 0.606,13.13444 2.8366,14.27526 25.2502,12.91395 10.4158,-0.63261 20.3874,-1.92598 22.1591,-2.87416 z"
     id="path822"
     inkscape:connector-curvature="0" />
</svg>
