<?xml version="1.0" encoding="UTF-8" standalone="no"?>
<svg
   xmlns:dc="http://purl.org/dc/elements/1.1/"
   xmlns:cc="http://creativecommons.org/ns#"
   xmlns:rdf="http://www.w3.org/1999/02/22-rdf-syntax-ns#"
   xmlns:svg="http://www.w3.org/2000/svg"
   xmlns="http://www.w3.org/2000/svg"
   xmlns:sodipodi="http://sodipodi.sourceforge.net/DTD/sodipodi-0.dtd"
   xmlns:inkscape="http://www.inkscape.org/namespaces/inkscape"
   width="1455.6224"
   height="1455.6224"
   viewBox="0 0 1455.6224 1455.6224"
   version="1.1"
   id="svg17"
   sodipodi:docname="ru-РБК.svg"
   inkscape:version="0.92.5 (2060ec1f9f, 2020-04-08)">
  <metadata
     id="metadata21">
    <rdf:RDF>
      <cc:Work
         rdf:about="">
        <dc:format>image/svg+xml</dc:format>
        <dc:type
           rdf:resource="http://purl.org/dc/dcmitype/StillImage" />
        <dc:title>Group 2</dc:title>
      </cc:Work>
    </rdf:RDF>
  </metadata>
  <sodipodi:namedview
     pagecolor="#ffffff"
     bordercolor="#666666"
     borderopacity="1"
     objecttolerance="10"
     gridtolerance="10"
     guidetolerance="10"
     inkscape:pageopacity="0"
     inkscape:pageshadow="2"
     inkscape:window-width="1920"
     inkscape:window-height="1019"
     id="namedview19"
     showgrid="false"
     inkscape:zoom="0.45520833"
     inkscape:cx="365.72165"
     inkscape:cy="560.63439"
     inkscape:window-x="0"
     inkscape:window-y="0"
     inkscape:window-maximized="1"
     inkscape:current-layer="svg17" />
  <!-- Generator: Sketch 46.2 (44496) - http://www.bohemiancoding.com/sketch -->
  <title
     id="title2">Group 2</title>
  <desc
     id="desc4">Created with Sketch.</desc>
  <defs
     id="defs6" />
  <g
     id="Page-1"
     style="fill:none;fill-rule:evenodd;stroke:none;stroke-width:1"
     transform="matrix(24.376452,0,0,24.376452,5.0650827e-6,532.7996)">
    <g
       id="Desk"
       transform="translate(-25,-57)">
      <g
         id="Group-2"
         transform="translate(25,57)">
        <g
           id="Group">
          <polygon
             id="Fill-1"
             points="0,14.933333 14.933333,0 0,0 "
             style="fill:#92cfae" />
          <polygon
             id="Fill-2"
             points="16,16 16,1.0666667 1.0666667,16 "
             style="fill:#2a8288" />
        </g>
        <path
           d="m 24.388254,7.6531692 c 1.736317,0 2.659365,-0.850295 2.659365,-2.439004 v -0.089762 c 0,-1.7005899 -0.967111,-2.3718754 -2.659365,-2.3718754 H 22.585968 V 7.6531692 Z M 19.047619,0 h 5.428508 c 3.824127,0 6.000064,1.7229661 6.000064,5.1022842 v 0.089248 c 0,3.3790609 -2.307619,4.9904028 -5.890287,4.9904028 H 22.585968 V 16 h -3.538349 z"
           id="Fill-3"
           inkscape:connector-curvature="0"
           style="fill:#000000" />
        <path
           d="m 37.52024,13.247472 c 1.703553,0 2.5662,-0.76079 2.5662,-2.215499 v -0.08925 c 0,-1.4323326 -0.862647,-2.215499 -2.652415,-2.215499 H 35.450088 V 13.24747 Z M 37.649687,16 H 32 V 0 h 10.048636 v 2.8196563 h -6.576807 l -0.02174,3.3564276 h 2.307305 c 3.558043,0 5.671178,1.5889662 5.671178,4.7887601 v 0.08976 C 43.428571,14.187272 41.466375,16 37.649687,16 Z"
           id="Fill-5"
           inkscape:connector-curvature="0"
           style="fill:#000000" />
        <polygon
           id="Fill-8"
           points="55.379752,16 49.715277,8.8267625 49.715277,16 46,16 46,0.022344934 49.715277,0.022344934 49.715277,6.9050982 55.448588,0 59.393229,0 52.902989,7.5754463 59.714286,16 "
           style="fill:#000000" />
      </g>
    </g>
  </g>
</svg>
