<?xml version="1.0" encoding="UTF-8" standalone="no"?>
<!-- Generator: Adobe Illustrator 16.0.3, SVG Export Plug-In . SVG Version: 6.00 Build 0)  -->

<svg
   xmlns:dc="http://purl.org/dc/elements/1.1/"
   xmlns:cc="http://creativecommons.org/ns#"
   xmlns:rdf="http://www.w3.org/1999/02/22-rdf-syntax-ns#"
   xmlns:svg="http://www.w3.org/2000/svg"
   xmlns="http://www.w3.org/2000/svg"
   xmlns:sodipodi="http://sodipodi.sourceforge.net/DTD/sodipodi-0.dtd"
   xmlns:inkscape="http://www.inkscape.org/namespaces/inkscape"
   version="1.1"
   id="_x3C_Layer_x3E_"
   x="0px"
   y="0px"
   width="1455.6224"
   height="1455.6224"
   viewBox="0 0 1455.6224 1455.6224"
   enable-background="new 0 0 800 800"
   xml:space="preserve"
   sodipodi:docname="ru-РЕН.svg"
   inkscape:version="0.92.5 (2060ec1f9f, 2020-04-08)"><metadata
   id="metadata29"><rdf:RDF><cc:Work
       rdf:about=""><dc:format>image/svg+xml</dc:format><dc:type
         rdf:resource="http://purl.org/dc/dcmitype/StillImage" /><dc:title /></cc:Work></rdf:RDF></metadata><defs
   id="defs27" /><sodipodi:namedview
   pagecolor="#ffffff"
   bordercolor="#666666"
   borderopacity="1"
   objecttolerance="10"
   gridtolerance="10"
   guidetolerance="10"
   inkscape:pageopacity="0"
   inkscape:pageshadow="2"
   inkscape:window-width="1920"
   inkscape:window-height="1019"
   id="namedview25"
   showgrid="false"
   inkscape:zoom="0.57569874"
   inkscape:cx="727.81122"
   inkscape:cy="727.81122"
   inkscape:window-x="0"
   inkscape:window-y="0"
   inkscape:window-maximized="1"
   inkscape:current-layer="_x3C_Layer_x3E_" />
<linearGradient
   id="SVGID_1_"
   gradientUnits="userSpaceOnUse"
   x1="205.5903"
   y1="764.42682"
   x2="205.73019"
   y2="67.473602"
   gradientTransform="matrix(2.081959,0,0,2.081959,299.61866,-52.070692)">
	<stop
   offset="0"
   style="stop-color:#E77A0A"
   id="stop2" />
	<stop
   offset="1"
   style="stop-color:#FB9911"
   id="stop4" />
</linearGradient>
<path
   d="m 761.58871,683.24793 h -61.20959 c -18.26087,0 -29.36187,8.8046 -33.93385,26.92806 l -16.76186,62.19852 h 90.69847 c 34.70417,0 50.93304,-5.33189 61.60933,-38.34344 2.04032,-5.76494 3.64342,-15.77084 3.88493,-20.34074 0.46011,-8.76713 -1.60102,-15.42731 -6.2896,-20.38029 -6.7039,-7.04535 -18.05474,-10.06211 -37.99783,-10.06211 z"
   id="path7"
   inkscape:connector-curvature="0"
   style="fill:url(#SVGID_1_);stroke-width:2.08195901" />
<g
   id="g22"
   transform="matrix(2.081959,0,0,2.081959,-104.97238,-105.82911)">
	<path
   d="m 259.762,313.158 h -96.384 c -16.929,0 -28.767,9.403 -33.322,26.468 l -39.37,148.038 h 53.157 l 13.706,-51.646 h 73.554 c 44.613,0 55.724,-16.828 65.087,-57.08 1.798,-7.688 3.134,-16.654 3.488,-23.385 0.743,-14.245 -2.229,-25.007 -8.836,-31.975 -6.56,-6.91 -17.017,-10.42 -31.08,-10.42 z"
   id="path9"
   inkscape:connector-curvature="0"
   style="fill:none" />
	<path
   d="m 396.939,352.165 h 86.746 l 10.3,-39.006 H 367.522 c -16.929,0 -28.77,9.403 -33.324,26.468 l -32.509,122.737 c -0.592,2.129 -0.945,4.291 -1.053,6.428 -0.289,5.523 1.207,10.182 4.327,13.469 3.355,3.539 8.567,5.404 15.089,5.404 h 128.663 l 10.309,-39.002 h -86.587 c -4.145,0 -7.082,-0.955 -8.948,-2.928 -1.544,-1.629 -2.25,-3.84 -2.11,-6.582 0.072,-1.27 0.347,-2.488 0.628,-3.771 l 0.169,-0.77 4.909,-18.527 h 97.66 l 9.314,-34.915 h -97.655 l 4.241,-16.073 c 2.163,-8.583 7.649,-12.932 16.294,-12.932 z"
   id="path11"
   inkscape:connector-curvature="0"
   style="fill:none" />
	<polygon
   points="559.12,416.59 628.664,416.59 609.864,487.664 663.025,487.664 709.313,313.158 656.152,313.158 639.279,376.563 569.723,376.563 586.603,313.158 533.441,313.158 487.153,487.664 540.318,487.664 "
   id="polygon13"
   style="fill:none" />
	<linearGradient
   id="SVGID_2_"
   gradientUnits="userSpaceOnUse"
   x1="399.84619"
   y1="748.58301"
   x2="400.1561"
   y2="49.421001">
		<stop
   offset="0"
   style="stop-color:#E77A0A"
   id="stop15" />
		<stop
   offset="1"
   style="stop-color:#FB9911"
   id="stop17" />
	</linearGradient>
	<path
   d="M 399.998,50.83 C 206.934,50.83 50.42,207.345 50.42,400.411 c 0,193.07 156.513,349.582 349.577,349.582 193.079,0 349.583,-156.512 349.583,-349.582 C 749.58,207.345 593.076,50.83 399.998,50.83 Z m -100.32,304.723 c -0.354,6.731 -1.69,15.696 -3.488,23.385 -9.363,40.252 -20.474,57.08 -65.087,57.08 h -73.554 l -13.706,51.646 H 90.686 l 39.371,-148.038 c 4.555,-17.065 16.393,-26.468 33.322,-26.468 h 96.384 c 14.063,0 24.52,3.51 31.079,10.42 6.606,6.967 9.579,17.73 8.836,31.975 z m 174.38,25.616 -9.314,34.915 h -97.66 l -4.909,18.527 -0.169,0.77 c -0.282,1.283 -0.557,2.502 -0.628,3.771 -0.14,2.742 0.566,4.953 2.11,6.582 1.866,1.973 4.803,2.928 8.948,2.928 h 86.587 l -10.309,39.002 H 320.051 c -6.522,0 -11.734,-1.865 -15.089,-5.404 -3.121,-3.287 -4.616,-7.945 -4.327,-13.469 0.108,-2.137 0.461,-4.299 1.053,-6.428 l 32.509,-122.737 c 4.555,-17.065 16.396,-26.468 33.324,-26.468 h 126.463 l -10.3,39.006 h -86.746 c -8.645,0 -14.132,4.349 -16.295,12.931 l -4.241,16.073 h 97.656 z m 135.806,106.495 18.8,-71.074 H 559.12 l -18.802,71.074 h -53.165 l 46.288,-174.506 h 53.161 l -16.88,63.404 h 69.557 l 16.873,-63.404 h 53.161 l -46.288,174.506 z"
   id="path20"
   inkscape:connector-curvature="0"
   style="fill:url(#SVGID_2_)" />
</g>
<path
   style="fill:#ffffff;fill-opacity:1;stroke:#00f3ff;stroke-width:3.38983059;stroke-opacity:1"
   d="m 87.118644,905.62566 c 0,-9.17648 82.524416,-311.53623 87.878146,-321.97518 7.71779,-15.04853 19.0124,-25.99509 31.83406,-30.85309 6.14197,-2.32713 53.85937,-3.5891 133.8983,-3.54118 113.31529,0.0678 125.57183,0.62691 138.05516,6.29729 25.92715,11.77708 38.78562,35.08438 38.82389,70.37243 0.043,39.62298 -19.31189,110.07379 -36.65586,133.42532 -11.73027,15.79341 -15.96909,19.13313 -37.90149,29.86242 l -18.64407,9.12063 -101.37313,1.69492 -101.37314,1.69491 -13.88254,52.54237 -13.88254,52.54238 -53.38839,0.93352 c -30.06228,0.52566 -53.388396,-0.39918 -53.388396,-2.11674 z"
   id="path823"
   inkscape:connector-curvature="0" /><path
   style="fill:#ffffff;fill-opacity:1;stroke:#00f3ff;stroke-width:3.38983059;stroke-opacity:1"
   d="m 537.85292,900.87667 c -13.62972,-9.21159 -17.73717,-22.37798 -13.2406,-42.44258 1.83902,-8.20608 18.61776,-72.3737 37.28608,-142.59471 36.56571,-137.54212 40.71685,-147.89607 64.07203,-159.81099 12.82772,-6.54422 19.6503,-6.84663 154.46194,-6.84663 132.72116,0 140.9399,0.34995 139.31987,5.9322 -0.94688,3.26271 -3.45295,12.79661 -5.56902,21.18644 -2.1161,8.38983 -6.12868,23.26271 -8.91688,33.05085 l -5.06946,17.79661 h -95.91247 c -113.49929,0 -109.03119,-1.40866 -120.79209,38.08224 -3.95984,13.29638 -9.47714,27.65105 -12.26069,31.89928 -10.86226,16.57791 -20.97682,66.34548 -22.60818,111.24106 -0.77786,21.40691 2.41776,22.05966 108.2778,22.11728 l 91.81651,0.05 -10.34352,38.98305 -10.34353,38.98305 H 688.58445 c -139.00726,0 -139.48179,-0.0237 -150.73153,-7.62712 z"
   id="path825"
   inkscape:connector-curvature="0" /><path
   style="fill:#ffffff;fill-opacity:1;stroke:#00f3ff;stroke-width:3.38983059;stroke-opacity:1"
   d="m 799.07434,744.94447 c 7.1615,-15.77713 8.69018,-39.92563 3.17927,-50.22285 -3.37978,-6.31519 -1.99235,-6.55681 37.65081,-6.55681 31.48175,0 40.80116,0.99634 39.63421,4.23729 -0.83914,2.33051 -5.16503,18.34746 -9.61308,35.59322 l -8.08738,31.35593 h -34.65165 -34.65166 z"
   id="path827"
   inkscape:connector-curvature="0" /><path
   style="fill:#ffffff;fill-opacity:1;stroke:#00f3ff;stroke-width:3.38983059;stroke-opacity:1"
   d="m 912.25204,902.57159 c 2.30676,-7.35139 93.51066,-351.07653 93.51066,-352.41877 0,-0.53408 24.5096,-0.97106 54.4657,-0.97106 53.4627,0 54.4249,0.12868 52.2481,6.98732 -2.9312,9.23519 -32.1375,118.71329 -32.1375,120.46527 0,0.74853 33.1779,1.35817 73.7288,1.35475 l 73.7288,-0.006 16.8869,-64.40056 16.887,-64.40056 h 53.452 c 29.3987,0 53.4231,1.14407 53.3876,2.54237 -0.036,1.39831 -21.1396,81.86441 -46.8981,178.81356 l -46.8336,176.27119 -53.1019,0.93352 c -41.2747,0.72563 -53.1013,-0.0305 -53.099,-3.38983 0,-3.48749 29.2199,-116.44453 35.9717,-139.06912 1.6482,-5.52282 -3.3445,-5.9322 -72.3466,-5.9322 h -74.1171 l -13.0484,50 c -7.1767,27.5 -16.051,61.05932 -19.7207,74.57627 l -6.6723,24.57627 h -54.07677 c -49.95089,0 -53.93472,-0.45261 -52.21529,-5.9322 z"
   id="path829"
   inkscape:connector-curvature="0" /></svg>