<?xml version="1.0" encoding="UTF-8" standalone="no"?>
<!-- Created with Inkscape (http://www.inkscape.org/) -->

<svg
   xmlns:dc="http://purl.org/dc/elements/1.1/"
   xmlns:cc="http://creativecommons.org/ns#"
   xmlns:rdf="http://www.w3.org/1999/02/22-rdf-syntax-ns#"
   xmlns:svg="http://www.w3.org/2000/svg"
   xmlns="http://www.w3.org/2000/svg"
   xmlns:xlink="http://www.w3.org/1999/xlink"
   xmlns:sodipodi="http://sodipodi.sourceforge.net/DTD/sodipodi-0.dtd"
   xmlns:inkscape="http://www.inkscape.org/namespaces/inkscape"
   version="1.0"
   width="1455.6224"
   height="1455.6224"
   id="svg2"
   sodipodi:docname="ru-Россия_1.svg"
   inkscape:version="0.92.5 (2060ec1f9f, 2020-04-08)">
  <sodipodi:namedview
     pagecolor="#ffffff"
     bordercolor="#666666"
     borderopacity="1"
     objecttolerance="10"
     gridtolerance="10"
     guidetolerance="10"
     inkscape:pageopacity="0"
     inkscape:pageshadow="2"
     inkscape:window-width="1920"
     inkscape:window-height="1019"
     id="namedview15"
     showgrid="false"
     inkscape:zoom="0.81416096"
     inkscape:cx="664.2858"
     inkscape:cy="725.77617"
     inkscape:window-x="0"
     inkscape:window-y="0"
     inkscape:window-maximized="1"
     inkscape:current-layer="svg2" />
  <defs
     id="defs4">
    <linearGradient
       id="linearGradient3598">
      <stop
         id="stop3600"
         style="stop-color:#006ede;stop-opacity:1"
         offset="0" />
      <stop
         id="stop3602"
         style="stop-color:#0035a2;stop-opacity:1"
         offset="1" />
    </linearGradient>
    <linearGradient
       x1="124.70706"
       y1="3.5398293"
       x2="124.70706"
       y2="48.457726"
       id="linearGradient2828"
       xlink:href="#linearGradient3598"
       gradientUnits="userSpaceOnUse"
       gradientTransform="matrix(7.1705539,0,0,7.1705539,-2.65e-6,541.37682)" />
  </defs>
  <metadata
     id="metadata7">
    <rdf:RDF>
      <cc:Work
         rdf:about="">
        <dc:format>image/svg+xml</dc:format>
        <dc:type
           rdf:resource="http://purl.org/dc/dcmitype/StillImage" />
        <dc:title />
      </cc:Work>
    </rdf:RDF>
  </metadata>
  <g
     id="g832"
     transform="matrix(1.0357143,0,0,1.0357143,-25.993268,-26.476415)">
    <g
       id="g827">
      <path
         inkscape:connector-curvature="0"
         style="fill:#e20001;fill-opacity:1;stroke:none;stroke-width:7.17055368"
         id="path2513"
         d="m 1100.68,566.94024 h 329.8455 V 889.61517 H 1100.68 Z m 200.7755,106.16693 -60.9497,30.87001 v 145.73346 h 60.948 z m 0,-11.69528 v -68.71804 l -121.8994,60.45587 v 69.41498 z" />
      <path
         inkscape:connector-curvature="0"
         style="fill:url(#linearGradient2828);fill-opacity:1;stroke:none;stroke-width:7.17055368"
         id="path2527"
         d="M 25.096936,566.94024 H 1076.7512 l -0.05,321.90532 -1051.604064,0.7696 z M 154.48702,747.33242 c 55.42179,0 78.875,-9.19809 78.875,-47.3062 0,-38.10811 -28.38828,-45.4881 -79.75935,-45.4881 l -35.67267,-0.0387 -0.0265,149.31969 h 36.38295 l 0.20092,-56.48665 z m 0.0323,-65.65149 c 18.83168,0 43.08734,-3.19215 43.08734,17.50634 0,20.21952 -24.88136,19.26695 -43.08734,19.26695 z m 469.71335,122.13816 c 43.27551,0 57.39254,-31.79255 57.39254,-52.79389 l -32.20095,-0.30382 c -0.78496,13.52265 -6.20626,25.6343 -25.95863,25.6343 -20.20504,0 -27.83487,-22.65666 -27.83487,-49.87386 0,-27.66974 6.85484,-47.84272 28.0127,-47.84272 21.60861,0 25.70752,21.21673 25.70752,29.02926 l 31.73386,-0.52875 c 0,-21.33721 -16.35496,-57.1859 -59.86854,-57.1859 -43.51357,0 -65.49835,25.40751 -65.49835,79.97785 0,54.57036 24.79047,73.88752 68.51472,73.88753 z m 170.41352,-86.72331 -0.25097,86.72331 h 37.38927 l 0.44888,-151.60211 -31.28527,-0.32182 -56.15196,86.53274 -0.0645,-86.16797 -34.80665,-0.043 -0.65217,151.60218 h 29.1326 l 56.24447,-86.72395 z m 134.56197,27.06347 19.96734,10e-4 -0.42593,59.65834 H 985.9513 V 652.21726 h -45.01308 c -50.93825,0 -78.52058,11.6282 -78.52058,48.42347 0,15.15503 6.98922,31.77114 31.29904,38.62813 l -37.26408,64.55023 h 41.88271 l 30.87296,-59.65976 z m -29.34004,-45.89527 c 0,-18.95565 17.73048,-16.22474 47.58687,-16.22474 l -0.30044,32.44947 c -29.81868,0 -47.28665,2.73091 -47.28665,-16.22473 z M 476.52955,803.81909 c 43.27551,0 57.39254,-31.79503 57.39254,-52.79637 l -32.20095,-0.30382 c -0.78496,13.52267 -6.20626,25.63431 -25.95863,25.63431 -20.20504,0 -27.83487,-22.65666 -27.83487,-49.87385 0,-27.66974 6.85484,-47.84273 28.0127,-47.84273 21.60861,0 25.70751,21.21673 25.70751,29.02927 l 31.73386,-0.52876 c 0,-21.3372 -16.35495,-57.18589 -59.86853,-57.18589 -43.51357,0 -65.49835,25.40749 -65.49835,79.97785 0,54.57035 24.79047,73.88999 68.51472,73.88999 z m -157.78561,0 c 45.73767,0 68.35915,-33.42194 68.35915,-76.42934 0,-49.39723 -31.87109,-76.96063 -67.90644,-76.96063 -36.03534,0 -67.00102,23.97364 -67.00102,75.6025 0,48.44205 21.26321,77.78747 66.54831,77.78747 z m -28.78467,-77.74225 c 0,-25.15391 8.58065,-47.69698 29.13038,-47.69698 20.4973,0 28.72057,20.45178 28.72057,47.5277 0,28.35558 -4.38977,49.46685 -28.40046,49.46685 -24.33077,0 -29.45049,-23.82386 -29.45049,-49.29757 z" />
    </g>
  </g>
  <path
     style="fill:#ffffff;fill-opacity:1;stroke:#00f3ff;stroke-width:1.22825837;stroke-opacity:1"
     d="m 97.076098,728.74083 v -76.76615 l 26.714622,0.0213 c 58.38938,0.0465 78.4006,6.17266 87.99373,26.938 2.17328,4.7043 2.58022,7.9239 2.56942,20.32866 -0.0112,12.8126 -0.39003,15.57826 -2.89867,21.15927 -7.6308,16.97632 -25.21044,24.53843 -60.02867,25.8221 l -17.50268,0.64529 -0.007,19.17571 c -0.004,10.54665 -0.36232,23.73562 -0.79617,29.30885 l -0.78882,10.13313 H 114.7038 97.076098 Z m 67.554212,-13.03975 c 12.66545,-4.30426 17.47971,-13.83817 12.84141,-25.43044 -3.25243,-8.1286 -9.16241,-10.47416 -27.88758,-11.06805 l -15.66029,-0.49669 v 19.98503 19.98503 l 13.20378,-0.75696 c 7.26207,-0.41634 15.13828,-1.4144 17.50268,-2.21792 z"
     id="path822"
     inkscape:connector-curvature="0" />
  <path
     style="fill:#ffffff;fill-opacity:1;stroke:#00f3ff;stroke-width:1.22825837;stroke-opacity:1"
     d="m 285.7383,803.49001 c -24.27859,-5.20545 -40.72862,-22.43834 -47.02067,-49.25842 -3.10677,-13.24271 -3.06671,-44.20369 0.0719,-55.58309 6.86037,-24.87293 23.97017,-42.51188 47.07378,-48.5296 9.08864,-2.36729 27.35921,-2.34144 36.54714,0.0517 24.44406,6.36687 42.05252,25.28261 49.25263,52.90925 2.68681,10.30918 3.0503,34.44698 0.68237,45.3131 -5.26929,24.18015 -18.2482,42.13078 -36.57604,50.58687 -13.69042,6.31649 -33.34324,8.08813 -50.03113,4.51018 z m 28.12134,-27.60948 c 7.10682,-1.97295 14.60131,-9.96124 17.15485,-18.28513 2.69538,-8.78626 4.11738,-29.74378 2.92935,-43.17301 -2.22565,-25.15827 -12.27565,-38.36268 -29.27108,-38.45847 -13.05515,-0.0736 -22.24321,8.09359 -27.33919,24.30155 -2.36458,7.52059 -2.77414,11.54328 -2.77414,27.2471 0,15.80652 0.40182,19.70274 2.82846,27.42595 5.543,17.64159 19.49759,25.65429 36.47175,20.94201 z"
     id="path824"
     inkscape:connector-curvature="0" />
  <path
     style="fill:#ffffff;fill-opacity:1;stroke:#00f3ff;stroke-width:1.22825837;stroke-opacity:1"
     d="m 450.06182,804.28017 c -8.25494,-1.2098 -18.31475,-4.50713 -24.46887,-8.02022 -7.28152,-4.15666 -16.19175,-14.29979 -20.33001,-23.14305 -8.92223,-19.06637 -10.69907,-53.41986 -4.08798,-79.03733 6.54926,-25.3779 22.13672,-40.56661 46.36988,-45.1837 17.31398,-3.29879 33.46226,-1.56325 46.38514,4.98527 9.41829,4.77261 20.73615,16.59784 25.54585,26.69106 5.06031,10.61916 7.5213,22.66884 4.96069,24.28901 -0.97291,0.61557 -8.26332,1.12769 -16.20094,1.13803 l -14.43204,0.0188 v -3.02457 c 0,-9.25129 -8.47087,-22.15359 -16.58148,-25.25585 -9.09801,-3.47994 -23.40773,-0.65329 -29.02803,5.73401 -12.00749,13.64614 -14.52954,54.81052 -4.75082,77.54177 5.17273,12.02432 16.21306,18.63517 28.13553,16.84728 12.29851,-1.84427 18.84538,-7.86792 21.30711,-19.60426 l 1.42481,-6.79282 h 16.29722 16.29723 l -0.65823,3.99184 c -2.39318,14.51359 -6.31966,23.61136 -13.75543,31.87181 -13.29981,14.77483 -35.73019,20.86584 -62.42963,16.95291 z"
     id="path826"
     inkscape:connector-curvature="0" />
  <path
     style="fill:#ffffff;fill-opacity:1;stroke:#00f3ff;stroke-width:1.22825837;stroke-opacity:1"
     d="m 604.96093,804.70833 c -39.82287,-6.36101 -56.17022,-30.90546 -54.27791,-81.49466 1.85784,-49.66776 20.63898,-72.95911 61.03333,-75.69022 34.11421,-2.3065 60.17004,17.4368 66.40577,50.3177 0.8865,4.67449 0.79523,6.41415 -0.37553,7.15739 -0.85068,0.54004 -8.00191,0.99036 -15.89163,1.0007 l -14.34496,0.0188 -1.37058,-6.60206 c -2.99341,-14.41919 -12.35164,-23.023 -25.16699,-23.13815 -16.11482,-0.14481 -24.97127,8.84892 -28.96177,29.41065 -1.98279,10.21669 -0.87179,40.548 1.78536,48.74202 6.06221,18.69441 17.06333,26.1894 33.45278,22.79116 10.05662,-2.08517 16.72886,-8.72144 18.79688,-18.69557 L 647.51,751.4636 h 16.04939 16.04938 l -0.81084,6.89894 c -2.3377,19.8903 -17.65591,38.23722 -36.89828,44.19381 -6.2027,1.92007 -29.78828,3.29412 -36.93872,2.15197 z"
     id="path828"
     inkscape:connector-curvature="0" />
  <path
     style="fill:#ffffff;fill-opacity:1;stroke:#00f3ff;stroke-width:1.22825837;stroke-opacity:1"
     d="m 709.16274,769.58042 c 0.44536,-19.75961 0.81076,-54.85709 0.81201,-77.9944 l 0.002,-42.06785 h 17.19562 17.19562 v 44.2173 c 0,24.31951 0.45248,44.2173 1.00551,44.2173 0.55304,0 13.88785,-19.89779 29.63293,-44.2173 l 28.62741,-44.2173 h 15.81263 15.81264 v 77.9944 77.99441 h -19.02288 -19.02287 l -0.32219,-44.80388 -0.3222,-44.80388 -28.86407,44.73794 -28.86407,44.73794 -15.24405,0.0659 -15.24404,0.066 z"
     id="path830"
     inkscape:connector-curvature="0" />
  <path
     style="fill:#ffffff;fill-opacity:1;stroke:#00f3ff;stroke-width:1.22825837;stroke-opacity:1"
     d="m 862.64086,804.61518 c 9.04595,-15.89112 34.91332,-60.65923 36.20079,-62.65191 1.6612,-2.57114 1.55146,-2.82783 -1.73327,-4.05436 -21.94275,-8.1935 -31.05441,-22.96768 -28.56035,-46.30943 1.68078,-15.73031 9.83647,-26.67299 25.00607,-33.55121 13.70093,-6.2123 24.58699,-7.59298 64.83817,-8.22345 l 36.54068,-0.57236 v 78.12726 78.12726 h -19.23302 -19.23302 l 0.83559,-30.7529 0.83559,-30.7529 -11.24665,0.3535 -11.24665,0.35351 -15.68753,30.09233 -15.68754,30.09233 -21.08499,0.33646 c -11.59674,0.18504 -20.84149,-0.0913 -20.54387,-0.61413 z m 92.98782,-107.96106 v -17.96175 l -18.11681,0.56375 c -19.80529,0.61628 -25.61488,2.12401 -29.1862,7.57454 -4.79692,7.32104 -2.98407,19.21977 3.58394,23.5233 4.13874,2.71181 12.93527,3.92053 29.90117,4.10867 l 13.8179,0.15323 z"
     id="path832"
     inkscape:connector-curvature="0" />
  <path
     style="fill:#ffffff;fill-opacity:1;stroke:#00f3ff;stroke-width:1.22825837;stroke-opacity:1"
     d="m 1196.3953,685.44709 0.028,-35.31479 62.6132,-30.92482 62.6132,-30.92481 v 34.91429 34.91429 l -62.6412,31.32531 -62.6412,31.32532 z"
     id="path834"
     inkscape:connector-curvature="0" />
  <path
     style="fill:#ffffff;fill-opacity:1;stroke:#00f3ff;stroke-width:1.22825837;stroke-opacity:1"
     d="m 1259.0085,778.16703 v -75.24202 l 31.3206,-15.64597 31.3206,-15.64596 v 90.88798 90.88799 h -31.3206 -31.3206 z"
     id="path836"
     inkscape:connector-curvature="0" />
</svg>
