<?xml version="1.0" encoding="UTF-8" standalone="no"?>
<!-- Created with Inkscape (http://www.inkscape.org/) -->

<svg
   xmlns:dc="http://purl.org/dc/elements/1.1/"
   xmlns:cc="http://creativecommons.org/ns#"
   xmlns:rdf="http://www.w3.org/1999/02/22-rdf-syntax-ns#"
   xmlns:svg="http://www.w3.org/2000/svg"
   xmlns="http://www.w3.org/2000/svg"
   xmlns:sodipodi="http://sodipodi.sourceforge.net/DTD/sodipodi-0.dtd"
   xmlns:inkscape="http://www.inkscape.org/namespaces/inkscape"
   version="1.1"
   id="svg2"
   width="1455.6224"
   height="1455.6224"
   viewBox="0 0 1455.6224 1455.6224"
   sodipodi:docname="ru-Спорт-1.svg"
   inkscape:version="0.92.5 (2060ec1f9f, 2020-04-08)">
  <metadata
     id="metadata8">
    <rdf:RDF>
      <cc:Work
         rdf:about="">
        <dc:format>image/svg+xml</dc:format>
        <dc:type
           rdf:resource="http://purl.org/dc/dcmitype/StillImage" />
        <dc:title />
      </cc:Work>
    </rdf:RDF>
  </metadata>
  <defs
     id="defs6" />
  <sodipodi:namedview
     pagecolor="#ffffff"
     bordercolor="#666666"
     borderopacity="1"
     objecttolerance="10"
     gridtolerance="10"
     guidetolerance="10"
     inkscape:pageopacity="0"
     inkscape:pageshadow="2"
     inkscape:window-width="1920"
     inkscape:window-height="1019"
     id="namedview4"
     showgrid="false"
     inkscape:zoom="0.57569874"
     inkscape:cx="727.81122"
     inkscape:cy="727.81122"
     inkscape:window-x="0"
     inkscape:window-y="0"
     inkscape:window-maximized="1"
     inkscape:current-layer="svg2" />
  <g
     id="g12"
     transform="matrix(4.7813876,0,0,4.7813876,-12.750366,555.68126)">
    <path
       style="fill:#063ab6;stroke-width:1.33333337"
       d="M 2.6666667,36 V 1.3333333 h 114.0000033 114 V 36 70.666667 h -114 H 2.6666667 Z M 61.097567,54.013545 C 63.586499,51.524613 59.267197,48.006181 53.968825,48.206591 45.490437,48.527283 44.000001,46.702277 44.000001,36 c 0,-10.927284 1.457731,-12.633357 9.974201,-11.673428 6.181422,0.696736 9.638462,-2.580576 6.272571,-5.946467 -1.988341,-1.988341 -14.282049,-1.835293 -18.133135,0.225746 -10.486784,5.612356 -9.896691,30.623621 0.836452,35.453252 3.849539,1.73219 16.401238,1.700681 18.147477,-0.04556 z m 63.948823,0.553358 c 11.12275,-3.87741 12.97464,-27.350458 2.75594,-34.931938 -7.32449,-5.434202 -19.52651,-2.169322 -22.36923,5.985311 -6.369689,18.272099 4.44564,34.234097 19.61329,28.946627 z M 113.89495,45.002341 C 109.88386,32.364508 116.81968,18.68634 123.73334,25.6 c 2.10737,2.107377 2.10737,18.692623 0,20.8 -2.80374,2.80374 -8.77411,1.955579 -9.83839,-1.397659 z M 77.333335,39.333333 V 24 h 5.333333 5.333334 v 15.333333 15.333334 h 4 4 V 35.953356 17.240045 l -13.65321,0.379978 C 69.66342,17.973009 68.701888,18.189423 68.810504,20.666667 68.874811,22.133333 69.018756,30.383333 69.13038,39 l 0.202955,15.666667 h 4 4 z M 150.66667,48 v -6.666667 h 4.59232 c 11.07815,0 16.55043,-13.71406 8.30303,-20.808177 -3.14384,-2.704211 -5.1252,-3.191823 -12.9697,-3.191823 h -9.25898 V 36 54.666667 H 146 h 4.66667 z m 0,-18.666667 c 0,-5.4281 1.17781,-6.332614 5.89095,-4.524014 2.78128,1.067278 2.78128,7.98075 0,9.048029 -4.71314,1.8086 -5.89095,0.904085 -5.89095,-4.524015 z m 38.66667,10 V 24 h 4 c 3.37777,0 4,-0.518519 4,-3.333333 V 17.333333 H 184 170.66667 v 3.333334 c 0,2.920634 0.57777,3.333333 4.66667,3.333333 H 180 v 15.333333 15.333334 h 4.66667 4.66667 z M 236.00001,36 V 1.3333333 h 35.25464 c 19.39005,0 35.44005,0.45 35.66666,1 0.22662,0.55 0.24195,16.1499997 0.0341,34.6666667 l -0.37804,33.666667 h -35.2887 -35.2887 z m 44,8.666667 c 0,-9.9 -0.28395,-18 -0.631,-18 -0.34706,0 -3.34706,1.31956 -6.66667,2.932354 l -6.03567,2.932354 v 15.067646 15.067646 h 6.66667 6.66667 z M 267.78066,28.088349 280.00001,22.1767 V 15.088349 C 280.00001,11.189757 279.70794,8 279.35097,8 c -0.35696,0 -6.35696,2.835411 -13.33334,6.300913 l -12.68429,6.300914 v 7.14353 c 0,3.928943 0.50129,6.943532 1.11399,6.699087 0.61269,-0.244444 6.61269,-3.104687 13.33333,-6.356095 z"
       id="path16"
       inkscape:connector-curvature="0" />
    <path
       style="fill:#d60511;stroke-width:1.33333337"
       d="M 236.00001,36 V 1.3333333 h 35.25464 c 19.39005,0 35.44005,0.45 35.66666,1 0.22662,0.55 0.24195,16.1499997 0.0341,34.6666667 l -0.37804,33.666667 h -35.2887 -35.2887 z m 44,8.666667 c 0,-9.9 -0.28395,-18 -0.631,-18 -0.34706,0 -3.34706,1.31956 -6.66667,2.932354 l -6.03567,2.932354 v 15.067646 15.067646 h 6.66667 6.66667 z M 267.78066,28.088349 280.00001,22.1767 V 15.088349 C 280.00001,11.189757 279.70794,8 279.35097,8 c -0.35696,0 -6.35696,2.835411 -13.33334,6.300913 l -12.68429,6.300914 v 7.14353 c 0,3.928943 0.50129,6.943532 1.11399,6.699087 0.61269,-0.244444 6.61269,-3.104687 13.33333,-6.356095 z"
       id="path14"
       inkscape:connector-curvature="0" />
  </g>
  <path
     style="fill:#ffffff;fill-opacity:1;stroke:#00f3ff;stroke-width:1.73701966;stroke-opacity:1"
     d="m 207.25189,817.21881 c -13.38265,-2.22246 -25.61372,-9.48031 -33.25866,-19.7355 -14.74429,-19.77851 -19.8313,-37.86875 -19.78731,-70.3669 0.0346,-25.55495 2.58896,-38.65067 10.6367,-54.53211 9.87406,-19.48551 21.74666,-28.64246 41.8299,-32.262 13.61904,-2.45453 50.40435,-2.48962 59.4395,-0.0567 12.53266,3.37469 18.09476,16.79657 10.06189,24.28032 -5.89764,5.49449 -14.30328,6.93891 -37.88898,6.51082 -17.686,-0.321 -22.67515,0.15228 -27.08967,2.5698 -11.09497,6.07593 -15.57832,26.31143 -13.96784,63.04348 1.11712,25.47953 2.85261,33.24876 9.08041,40.65007 5.81184,6.90699 12.0866,8.67195 34.13317,9.60098 20.07834,0.84609 30.62729,4.0826 37.55966,11.52362 7.94798,8.53116 3.2181,16.13168 -11.81285,18.98225 -11.03516,2.09278 -45.82071,1.96994 -58.93592,-0.20813 z"
     id="path814"
     inkscape:connector-curvature="0" />
  <path
     style="fill:#ffffff;fill-opacity:1;stroke:#00f3ff;stroke-width:1.73701966;stroke-opacity:1"
     d="m 319.30495,782.26678 c -2.19867,-71.12777 -2.3223,-131.59586 -0.27477,-134.39601 3.01224,-4.11949 14.04905,-5.498 53.03942,-6.62471 19.5849,-0.56594 44.01174,-1.45093 54.28186,-1.96663 l 18.67297,-0.93765 v 88.68132 88.68131 h -18.23871 -18.23871 v -72.95482 -72.95483 h -26.05529 -26.0553 v 72.95483 72.95482 h -18.04893 -18.04893 z"
     id="path816"
     inkscape:connector-curvature="0" />
  <path
     style="fill:#ffffff;fill-opacity:1;stroke:#00f3ff;stroke-width:1.73701966;stroke-opacity:1"
     d="m 540.17133,818.4608 c -24.74355,-7.15685 -43.92539,-28.02565 -52.82665,-57.47251 -4.78706,-15.8364 -4.40115,-51.11775 0.75662,-69.17369 5.05611,-17.70001 9.33165,-25.83817 17.98815,-34.23902 15.15332,-14.7058 40.8588,-22.25287 63.63082,-18.68187 36.73017,5.75986 59.36791,40.06265 59.36791,89.95972 0,42.34411 -17.50761,76.70229 -44.16722,86.67693 -12.80852,4.79228 -33.60438,6.15411 -44.74963,2.93044 z m 34.71865,-36.89702 c 2.61441,-1.93475 5.69463,-5.43308 6.84494,-7.77407 5.79393,-11.79115 7.09503,-61.64633 2.2023,-84.38749 -2.27216,-10.56092 -10.13326,-18.75326 -19.72094,-20.55192 -23.74782,-4.45512 -43.311,37.36797 -37.60149,80.38628 2.80476,21.13247 6.65611,29.1929 16.04204,33.5741 9.63268,4.49639 25.29083,3.89067 32.23315,-1.2469 z"
     id="path818"
     inkscape:connector-curvature="0" />
  <path
     style="fill:#ffffff;fill-opacity:1;stroke:#00f3ff;stroke-width:1.73701966;stroke-opacity:1"
     d="m 663.8889,726.84815 v -88.85626 l 38.13847,1.20784 c 25.64824,0.81227 41.0167,2.06258 46.92703,3.81776 11.59694,3.44392 25.31084,14.91848 32.00305,26.77727 4.9234,8.72442 5.39133,10.91047 5.39133,25.18679 0,14.51536 -0.42651,16.41985 -5.96494,26.63516 -11.2561,20.76125 -27.08709,29.7071 -55.1012,31.13686 l -17.96825,0.91705 v 31.0169 31.01689 H 685.60164 663.8889 Z m 69.51236,-7.76363 c 8.65685,-3.46379 12.5722,-10.33362 12.7461,-22.36417 0.24629,-17.03824 -6.10768,-24.35925 -22.85893,-26.33794 -6.92679,-0.8182 -8.68156,-0.3836 -11.63149,2.88079 -3.02187,3.344 -3.47404,6.28384 -3.47404,22.58686 0,15.99328 0.48537,19.27881 3.309,22.39889 4.03717,4.46102 12.08169,4.76782 21.90936,0.83557 z"
     id="path820"
     inkscape:connector-curvature="0" />
  <path
     style="fill:#ffffff;fill-opacity:1;stroke:#00f3ff;stroke-width:1.73701966;stroke-opacity:1"
     d="m 848.01298,742.74959 v -72.95483 l -16.93595,-0.0256 c -10.12599,-0.0153 -18.68208,-0.90661 -21.27849,-2.21661 -3.98999,-2.01311 -4.38373,-3.28022 -4.84987,-15.60757 l -0.50732,-13.41657 h 62.60578 62.60577 v 12.92915 c 0,16.91216 -1.7849,18.3372 -22.96775,18.3372 h -15.24668 v 72.95483 72.95482 h -21.71275 -21.71274 z"
     id="path822"
     inkscape:connector-curvature="0" />
  <path
     style="fill:#ffffff;fill-opacity:1;stroke:#00f3ff;stroke-width:1.73701966;stroke-opacity:1"
     d="m 1201.4865,715.39153 c -0.6875,-1.67188 -1.6559,-15.95696 -2.1518,-31.74463 l -0.9016,-28.70484 58.9991,-28.90868 c 32.4496,-15.89977 60.4969,-29.16816 62.3274,-29.48531 2.8418,-0.49235 3.4936,0.81981 4.4592,8.97697 0.6221,5.25448 1.2083,19.88822 1.3028,32.51942 l 0.1718,22.96582 -25.6211,12.36881 c -61.6459,29.76017 -94.1186,45.05222 -95.6687,45.05222 -0.9168,0 -2.2295,-1.3679 -2.9171,-3.03978 z"
     id="path824"
     inkscape:connector-curvature="0" />
  <path
     style="fill:#ffffff;fill-opacity:1;stroke:#00f3ff;stroke-width:1.73701966;stroke-opacity:1"
     d="m 1263.1607,782.85557 v -71.06328 l 20.4099,-9.83076 c 31.7416,-15.28879 36.8526,-17.28752 38.9199,-15.22016 1.1921,1.19204 2.1515,30.39408 2.7762,84.49951 l 0.9546,82.67796 h -31.5303 -31.5303 z"
     id="path826"
     inkscape:connector-curvature="0" />
</svg>
