<?xml version="1.0" encoding="UTF-8" standalone="no"?>
<!-- Created with Inkscape (http://www.inkscape.org/) -->

<svg
   xmlns:dc="http://purl.org/dc/elements/1.1/"
   xmlns:cc="http://creativecommons.org/ns#"
   xmlns:rdf="http://www.w3.org/1999/02/22-rdf-syntax-ns#"
   xmlns:svg="http://www.w3.org/2000/svg"
   xmlns="http://www.w3.org/2000/svg"
   xmlns:xlink="http://www.w3.org/1999/xlink"
   version="1.1"
   width="300"
   height="285"
   viewBox="0 0 300 285.00001"
   id="Layer_2">
  <metadata
     id="metadata43">
    <rdf:RDF>
      <cc:Work
         rdf:about="">
        <dc:format>image/svg+xml</dc:format>
        <dc:type
           rdf:resource="http://purl.org/dc/dcmitype/StillImage" />
        <dc:title></dc:title>
      </cc:Work>
    </rdf:RDF>
  </metadata>
  <defs
     id="defs41">
    <linearGradient
       id="linearGradient3766">
      <stop
         id="stop3768"
         style="stop-color:#ff0000;stop-opacity:1"
         offset="0" />
      <stop
         id="stop3774"
         style="stop-color:#a90000;stop-opacity:1"
         offset="0.47505218" />
      <stop
         id="stop3770"
         style="stop-color:#ff0000;stop-opacity:1"
         offset="1" />
    </linearGradient>
    <defs
       id="defs31">
      <polygon
         points="275,110.9 190.8,172 223,270.9 138.9,209.8 54.8,270.9 86.9,172 2.8,110.9 106.7,110.9 138.9,12 171,110.9 "
         id="XMLID_8_" />
    </defs>
    <clipPath
       id="XMLID_5_">
      <use
         id="use35"
         style="overflow:visible"
         x="0"
         y="0"
         width="280"
         height="280"
         xlink:href="#XMLID_8_" />
    </clipPath>
    <defs
       id="defs17">
      <polygon
         points="275,110.9 190.8,172 223,270.9 138.9,209.8 54.8,270.9 86.9,172 2.8,110.9 106.7,110.9 138.9,12 171,110.9 "
         id="XMLID_10_" />
    </defs>
    <defs
       id="defs9">
      <polygon
         points="275,110.9 190.8,172 223,270.9 138.9,209.8 54.8,270.9 86.9,172 2.8,110.9 106.7,110.9 138.9,12 171,110.9 "
         id="XMLID_11_" />
    </defs>
    <clipPath
       id="XMLID_3_">
      <use
         id="use13"
         style="overflow:visible"
         x="0"
         y="0"
         width="280"
         height="280"
         xlink:href="#XMLID_11_" />
    </clipPath>
    <filter
       color-interpolation-filters="sRGB"
       id="filter3869">
      <feGaussianBlur
         stdDeviation="2.6555"
         id="feGaussianBlur3871" />
    </filter>
    <linearGradient
       x1="139.25317"
       y1="18.063293"
       x2="139.25317"
       y2="253.01418"
       id="linearGradient3772"
       xlink:href="#linearGradient3766"
       gradientUnits="userSpaceOnUse"
       gradientTransform="matrix(1.0653931,0,0,1.0653931,2.0168944,-8.6216411)" />
  </defs>
  <style
     type="text/css"
     id="style3" />
  <polygon
     points="190.8,172 223,270.9 138.9,209.8 54.8,270.9 86.9,172 2.8,110.9 106.7,110.9 138.9,12 171,110.9 275,110.9 "
     transform="matrix(1.0653931,0,0,1.0653931,2.0168944,-8.6216411)"
     id="use3059"
     style="fill:#ffffff" />
  <path
     d="m 68.204442,155.44889 26.401772,19.17708 -34.192459,105.37404 89.592905,-65.08886 89.5929,65.08886 -34.29234,-105.37404 26.43507,-19.17708 -57.46465,0 19.51002,63.82371 -43.781,-34.19246 -43.91417,34.19246 19.57659,-63.82371 -57.464638,0 z M 150.00666,4.1630759 115.68103,109.53712 l -110.6677174,0 27.4005794,19.90952 101.212348,0 16.38042,-53.36953 16.31383,53.36953 101.24564,0 L 295,109.53712 l -110.80088,0 L 150.00666,4.1630759 z"
     id="use3057"
     style="fill:url(#linearGradient3772);fill-opacity:1" />
</svg>
