<?xml version="1.0" encoding="UTF-8" standalone="no"?>
<!-- Created with Inkscape (http://www.inkscape.org/) -->

<svg
   xmlns:dc="http://purl.org/dc/elements/1.1/"
   xmlns:cc="http://creativecommons.org/ns#"
   xmlns:rdf="http://www.w3.org/1999/02/22-rdf-syntax-ns#"
   xmlns:svg="http://www.w3.org/2000/svg"
   xmlns="http://www.w3.org/2000/svg"
   xmlns:sodipodi="http://sodipodi.sourceforge.net/DTD/sodipodi-0.dtd"
   xmlns:inkscape="http://www.inkscape.org/namespaces/inkscape"
   width="141.11111mm"
   height="147.4407mm"
   viewBox="0 0 500.00003 522.42769"
   id="svg4246"
   version="1.1"
   inkscape:version="0.91 r13725"
   sodipodi:docname="muztv2015.svg">
  <defs
     id="defs4248" />
  <sodipodi:namedview
     id="base"
     pagecolor="#ffffff"
     bordercolor="#666666"
     borderopacity="1.0"
     inkscape:pageopacity="0.0"
     inkscape:pageshadow="2"
     inkscape:zoom="0.35"
     inkscape:cx="229.63783"
     inkscape:cy="271.2691"
     inkscape:document-units="px"
     inkscape:current-layer="layer1"
     showgrid="false"
     fit-margin-top="0"
     fit-margin-left="0"
     fit-margin-right="0"
     fit-margin-bottom="0"
     inkscape:window-width="535"
     inkscape:window-height="403"
     inkscape:window-x="343"
     inkscape:window-y="101"
     inkscape:window-maximized="0" />
  <metadata
     id="metadata4251">
    <rdf:RDF>
      <cc:Work
         rdf:about="">
        <dc:format>image/svg+xml</dc:format>
        <dc:type
           rdf:resource="http://purl.org/dc/dcmitype/StillImage" />
        <dc:title></dc:title>
      </cc:Work>
    </rdf:RDF>
  </metadata>
  <g
     inkscape:label="Layer 1"
     inkscape:groupmode="layer"
     id="layer1"
     transform="translate(-20.282985,-449.0059)">
    <g
       id="g4292"
       transform="matrix(0.40155863,0,0,0.40155863,87.860671,527.42244)">
      <circle
         r="90"
         cy="-105.28058"
         cx="-78.288467"
         id="path3363"
         style="fill:#00b7eb;fill-opacity:1" />
      <circle
         style="fill:#00b7eb;fill-opacity:1"
         id="circle3365"
         cx="-78.288467"
         cy="103.71942"
         r="90" />
      <circle
         r="90"
         cy="321.71942"
         cx="-78.288467"
         id="circle3367"
         style="fill:#00b7eb;fill-opacity:1" />
      <circle
         style="fill:#00b7eb;fill-opacity:1"
         id="circle3369"
         cx="-78.288467"
         cy="540.71942"
         r="90" />
      <circle
         r="90"
         cy="103.71942"
         cx="174.71153"
         id="circle3371"
         style="fill:#00ff8b;fill-opacity:1" />
      <circle
         style="fill:#00ff8b;fill-opacity:1"
         id="circle3373"
         cx="174.71153"
         cy="321.71942"
         r="90" />
      <circle
         r="90"
         cy="540.71942"
         cx="174.71153"
         id="circle3375"
         style="fill:#00ff8b;fill-opacity:1" />
      <circle
         r="90"
         cy="321.71942"
         cx="445.71152"
         id="circle3377"
         style="fill:#ff2492;fill-opacity:1" />
      <circle
         style="fill:#ff2492;fill-opacity:1"
         id="circle3379"
         cx="445.71152"
         cy="540.71942"
         r="90" />
      <circle
         style="fill:#fff20d;fill-opacity:1"
         id="circle3381"
         cx="717.71155"
         cy="103.71942"
         r="90" />
      <circle
         r="90"
         cy="321.71942"
         cx="717.71155"
         id="circle3383"
         style="fill:#fff20d;fill-opacity:1" />
      <circle
         style="fill:#fff20d;fill-opacity:1"
         id="circle3385"
         cx="717.71155"
         cy="540.71942"
         r="90" />
      <circle
         style="fill:#7600eb;fill-opacity:1"
         id="circle3387"
         cx="970.71155"
         cy="-105.28058"
         r="90" />
      <circle
         r="90"
         cy="103.71942"
         cx="970.71155"
         id="circle3389"
         style="fill:#7600eb;fill-opacity:1" />
      <circle
         style="fill:#7600eb;fill-opacity:1"
         id="circle3391"
         cx="970.71155"
         cy="321.71942"
         r="90" />
      <circle
         r="90"
         cy="540.71942"
         cx="970.71155"
         id="circle3393"
         style="fill:#7600eb;fill-opacity:1" />
      <path
         inkscape:connector-curvature="0"
         id="path3338"
         d="m -118.00683,1104.5226 c -23.298,-5.3316 -36.8505,-22.6507 -40.3657,-51.5847 -0.8418,-6.9286 -1.0652,-53.89131 -0.8253,-173.50001 0.3098,-154.51183 0.433,-164.34703 2.1296,-169.99993 7.9119,-26.36252 27.9619,-46.01082 53.1781,-52.11292 10.116301,-2.448 28.615601,-2.2176 38.772901,0.483 14.55,3.8684 28.167,12.6883 38.0066,24.6173 5.9019,7.15511 18.1666004,27.31312 33.4712004,55.01262 10.6127996,19.208 48.0048996,88.56193 57.8171996,107.23803 3.2475,6.181 6.164,11.2435 6.4812,11.25 0.5627,0.012 20.8562,-37.0193 65.207199,-118.98803 12.0523,-22.275 23.8445,-43.21141 26.2049,-46.52521 12.4797,-17.52151 32.4051,-30.14161 52.8208,-33.45501 9.0251,-1.4648 26.2346,-1.2156 33.444,0.4842 8.3444,1.9674 18.7176,7.3101 26.0652,13.4249 7.1771,5.9728 15.8317,18.53611 20.0377,29.08731 6.4715,16.23421 6.1452,6.2115 6.1261,188.19154 -0.019,184.09021 0.4147,172.47271 -7.0061,187.52811 -6.934,14.0678 -20.0928,24.9812 -33.9765,28.1788 -6.6726,1.5368 -24.8473,1.3003 -33.0745,-0.4304 -20.9179,-4.4002 -34.7704,-17.9029 -40.5974,-39.5725 -1.5566,-5.7886 -1.7575,-14.8926 -2.0673,-93.66181 -0.1888,-47.9875 -0.6622,-87.2452 -1.052,-87.2393 -1.0875,0.016 -32.2628,53.9696 -42.2299,73.0847 -10.6129,20.3537 -15.4629,27.3573 -25.3196,36.5624 -12.9377,12.08251 -26.359199,17.35361 -44.119399,17.32741 -24.692,-0.036 -40.2963,-9.1778 -55.8854,-32.73941 -6.9118996,-10.4468 -27.4611,-46.2245 -45.2281,-78.7458 l -10.9264,-20 -0.5221,89 c -0.5814,99.10411 -0.1573,93.09881 -7.6632,108.50001 -6.4086,13.1497 -18.1328,22.8128 -33.3147,27.4579 -7.5726,2.317 -27.615301,2.9516 -35.589101,1.1268 z m 517.5891,0.8158 c -16.8269,-2.0144 -19.9783,-2.6698 -25.6919,-5.3435 -11.2932,-5.2847 -20.6583,-16.0824 -24.4136,-28.148 -2.3477,-7.5432 -2.5482,-22.979 -0.4054,-31.2058 4.8127,-18.4775 18.714,-32.3955 37.1537,-37.1984 3.1111,-0.8103 13.1267,-1.9327 22.2569,-2.4942 9.1301,-0.5614 19.4826,-1.70461 23.0054,-2.54031 8.3702,-1.9856 21.6274,-8.2429 26.4672,-12.4923 3.407,-2.9914 3.7817,-3.7697 3.3337,-6.9241 -0.2775,-1.9546 -9.2477,-20.6539 -19.9338,-41.5539 -35.6118,-69.6504 -94.2364,-185.85543 -97.0178,-192.30783 -4.6006,-10.6726 -6.1088,-17.8293 -6.1518,-29.1921 -0.031,-8.19941 0.4642,-12.14331 2.2604,-18.00001 8.4333,-27.49831 29.6418,-42.87491 59.637,-43.23821 11.5159,-0.1394 18.5294,1.2873 27,5.4925 13.5657,6.7347 18.8716,13.4307 32.913,41.53611 8.4894,16.99261 42.4256,89.83289 59.134,126.92474 3.2742,7.2684 6.1948,13.2309 6.4903,13.25 0.2955,0.019 13.1085,-31.3527 28.4732,-69.71513 29.5829,-73.86231 34.048,-84.07461 41.0496,-93.88652 12.8789,-18.0481 36.3303,-27.1343 59.3328,-22.9884 28.9002,5.2088 50.0724,29.5744 50.0724,57.62492 0,12.7898 -5.3362,27.7629 -34.213,95.99993 -9.6591,22.825 -25.2143,59.725 -34.567,82 -41.537,98.9271 -50.4766,117.44701 -68.1294,141.14291 -29.3846,39.4436 -66.7379,62.5287 -114.7991,70.9484 -11.3213,1.9833 -44.1045,3.4048 -53.2568,2.3092 z m 366,-0.061 c -12.517,-2.0377 -27.6599,-11.7115 -34.5816,-22.092 -6.712,-10.0658 -8.8767,-18.3319 -8.7068,-33.2476 0.3049,-26.7672 8.986,-43.7948 26.824,-52.61391 12.1869,-6.0251 15.9257,-6.3122 82.71445,-6.3512 36.7128,-0.021 59.75,-0.3983 59.75,-0.9774 0,-0.5184 -15.3416,-15.7059 -34.0925,-33.75 -18.7508,-18.0441 -36.12191,-35.5009 -38.60231,-38.7928 -16.15594,-21.4411 -17.24324,-45.2841 -3.1598,-69.2905 3.9806,-6.7853 22.21201,-25.3433 54.51331,-55.48965 l 23.1586,-21.61368 -63.15871,-0.3802 c -69.21404,-0.4167 -67.11814,-0.2428 -80.11334,-6.6465 -11.9602,-5.8938 -21.2899,-17.1976 -25.6638,-31.0941 -2.8402,-9.0238 -3.6228,-27.97131 -1.5554,-37.65741 3.404,-15.94831 11.4982,-26.72451 25.0264,-33.31881 15.1583,-7.3889 9.2643,-7.1164 147.14755,-6.8032 l 122.99998,0.2794 6.5,2.3176 c 19.1092,6.8136 36.6047,23.0067 45.1,41.74271 5.3512,11.80191 7.1231,20.42831 7.1765,34.93971 0.071,19.3665 -3.3364,29.9385 -14.5048,45 -10.2336,13.80098 -40.7335,42.09323 -90.01518,83.49993 -10.801,9.075 -19.6647,16.7461 -19.6973,17.047 -0.033,0.3008 13.9675,12.9008 31.1113,28 77.22368,68.0139 75.88178,66.68 83.95738,83.453 6.5394,13.58211 8.1979,21.58351 8.2911,40.00001 0.07,13.8964 -0.2106,16.9203 -2.1369,23 -6.4789,20.4482 -25.0508,38.7786 -48.4018,47.7723 l -8.3803,3.2277 -124.49998,0.1233 c -68.47511,0.068 -125.62505,-0.06 -127.00005,-0.2837 z"
         style="fill:#000000" />
    </g>
  </g>
</svg>
