<?xml version="1.0" encoding="UTF-8" standalone="no"?>
<!-- Created with Inkscape (http://www.inkscape.org/) -->

<svg
   xmlns:dc="http://purl.org/dc/elements/1.1/"
   xmlns:cc="http://creativecommons.org/ns#"
   xmlns:rdf="http://www.w3.org/1999/02/22-rdf-syntax-ns#"
   xmlns:svg="http://www.w3.org/2000/svg"
   xmlns="http://www.w3.org/2000/svg"
   xmlns:xlink="http://www.w3.org/1999/xlink"
   version="1.1"
   width="800"
   height="182.5"
   id="svg2">
  <desc
     id="desc4">Created with graphing.ru and Raphael</desc>
  <metadata
     id="metadata12">
    <rdf:RDF>
      <cc:Work
         rdf:about="">
        <dc:format>image/svg+xml</dc:format>
        <dc:type
           rdf:resource="http://purl.org/dc/dcmitype/StillImage" />
        <dc:title></dc:title>
      </cc:Work>
    </rdf:RDF>
  </metadata>
  <defs
     id="defs6">
    <linearGradient
       id="linearGradient3796">
      <stop
         id="stop3798"
         style="stop-color:#012ba8;stop-opacity:1"
         offset="0" />
      <stop
         id="stop3800"
         style="stop-color:#0068e3;stop-opacity:1"
         offset="1" />
    </linearGradient>
    <linearGradient
       id="linearGradient3775">
      <stop
         id="stop3777"
         style="stop-color:#003db9;stop-opacity:1"
         offset="0" />
      <stop
         id="stop3779"
         style="stop-color:#ffffff;stop-opacity:1"
         offset="1" />
    </linearGradient>
    <linearGradient
       id="linearGradient3763">
      <stop
         id="stop3765"
         style="stop-color:#c40000;stop-opacity:1"
         offset="0" />
      <stop
         id="stop3767"
         style="stop-color:#ffffff;stop-opacity:1"
         offset="1" />
    </linearGradient>
    <linearGradient
       x1="609.99133"
       y1="8.8892984"
       x2="609.99133"
       y2="86.089096"
       id="linearGradient3769"
       xlink:href="#linearGradient3763"
       gradientUnits="userSpaceOnUse"
       gradientTransform="translate(-60,0)" />
    <linearGradient
       x1="609.99133"
       y1="8.8892984"
       x2="609.99133"
       y2="86.089096"
       id="linearGradient3773"
       xlink:href="#linearGradient3775"
       gradientUnits="userSpaceOnUse"
       gradientTransform="matrix(3.2214765,0,0,1,-1775.0336,0)" />
    <linearGradient
       x1="609.99133"
       y1="8.8892984"
       x2="609.99133"
       y2="86.089096"
       id="linearGradient3891"
       xlink:href="#linearGradient3763"
       gradientUnits="userSpaceOnUse"
       gradientTransform="translate(-60,0)" />
    <linearGradient
       x1="609.99133"
       y1="8.8892984"
       x2="609.99133"
       y2="86.089096"
       id="linearGradient3893"
       xlink:href="#linearGradient3775"
       gradientUnits="userSpaceOnUse"
       gradientTransform="matrix(3.2214765,0,0,1,-1775.0336,0)" />
    <linearGradient
       x1="609.99133"
       y1="8.8892984"
       x2="609.99133"
       y2="86.089096"
       id="linearGradient3951"
       xlink:href="#linearGradient3763"
       gradientUnits="userSpaceOnUse"
       gradientTransform="translate(-60,0)" />
    <linearGradient
       x1="609.99133"
       y1="8.8892984"
       x2="609.99133"
       y2="86.089096"
       id="linearGradient3953"
       xlink:href="#linearGradient3775"
       gradientUnits="userSpaceOnUse"
       gradientTransform="matrix(3.2214765,0,0,1,-1775.0336,0)" />
    <linearGradient
       x1="609.99133"
       y1="8.8892984"
       x2="609.99133"
       y2="86.089096"
       id="linearGradient3956"
       xlink:href="#linearGradient3775"
       gradientUnits="userSpaceOnUse"
       gradientTransform="matrix(4.0268456,0,0,1.25,-2289.5574,164.61729)" />
    <linearGradient
       x1="609.99133"
       y1="8.8892984"
       x2="609.99133"
       y2="86.089096"
       id="linearGradient3959"
       xlink:href="#linearGradient3763"
       gradientUnits="userSpaceOnUse"
       gradientTransform="matrix(1.25,0,0,1.25,-25.76543,164.61729)" />
    <linearGradient
       x1="609.99133"
       y1="8.8892984"
       x2="609.99133"
       y2="86.089096"
       id="linearGradient3773-5"
       xlink:href="#linearGradient3775-9"
       gradientUnits="userSpaceOnUse"
       gradientTransform="matrix(3.2214765,0,0,1,-1775.0336,0)" />
    <linearGradient
       x1="609.99133"
       y1="8.8892984"
       x2="609.99133"
       y2="86.089096"
       id="linearGradient3769-5"
       xlink:href="#linearGradient3763-8"
       gradientUnits="userSpaceOnUse"
       gradientTransform="translate(-60,0)" />
    <linearGradient
       id="linearGradient3763-8">
      <stop
         id="stop3765-2"
         style="stop-color:#c40000;stop-opacity:1"
         offset="0" />
      <stop
         id="stop3767-4"
         style="stop-color:#ffffff;stop-opacity:1"
         offset="1" />
    </linearGradient>
    <linearGradient
       id="linearGradient3775-9">
      <stop
         id="stop3777-4"
         style="stop-color:#003db9;stop-opacity:1"
         offset="0" />
      <stop
         id="stop3779-8"
         style="stop-color:#ffffff;stop-opacity:1"
         offset="1" />
    </linearGradient>
    <linearGradient
       x1="599.7522"
       y1="181.46066"
       x2="599.7522"
       y2="1.018748"
       id="linearGradient3802"
       xlink:href="#linearGradient3796"
       gradientUnits="userSpaceOnUse" />
    <linearGradient
       x1="-43.5182"
       y1="0"
       x2="43.5182"
       y2="0"
       id="linearGradient3183"
       xlink:href="#linearGradient22"
       gradientUnits="userSpaceOnUse"
       gradientTransform="matrix(0,-10,10,0,1435.37,437.459)" />
    <linearGradient
       x1="-43.5182"
       y1="0"
       x2="43.5182"
       y2="0"
       id="linearGradient3170"
       xlink:href="#linearGradient22"
       gradientUnits="userSpaceOnUse"
       gradientTransform="matrix(0,-10,10,0,1435.37,437.459)" />
    <linearGradient
       x1="599.7522"
       y1="181.46066"
       x2="599.7522"
       y2="1.018748"
       id="linearGradient3142"
       xlink:href="#linearGradient3796-1"
       gradientUnits="userSpaceOnUse"
       gradientTransform="translate(4.6679688e-6,-7.7636719e-7)" />
    <linearGradient
       id="linearGradient3796-1">
      <stop
         id="stop3798-6"
         style="stop-color:#012ba8;stop-opacity:1"
         offset="0" />
      <stop
         id="stop3800-8"
         style="stop-color:#0068e3;stop-opacity:1"
         offset="1" />
    </linearGradient>
    <linearGradient
       id="linearGradient3775-3">
      <stop
         id="stop3777-2"
         style="stop-color:#003db9;stop-opacity:1"
         offset="0" />
      <stop
         id="stop3779-2"
         style="stop-color:#ffffff;stop-opacity:1"
         offset="1" />
    </linearGradient>
    <linearGradient
       id="linearGradient3763-6">
      <stop
         id="stop3765-1"
         style="stop-color:#c40000;stop-opacity:1"
         offset="0" />
      <stop
         id="stop3767-42"
         style="stop-color:#ffffff;stop-opacity:1"
         offset="1" />
    </linearGradient>
    <linearGradient
       x1="609.99133"
       y1="8.8892984"
       x2="609.99133"
       y2="86.089096"
       id="linearGradient3769-7"
       xlink:href="#linearGradient3763-6"
       gradientUnits="userSpaceOnUse"
       gradientTransform="translate(-60,0)" />
    <linearGradient
       x1="609.99133"
       y1="8.8892984"
       x2="609.99133"
       y2="86.089096"
       id="linearGradient3773-2"
       xlink:href="#linearGradient3775-3"
       gradientUnits="userSpaceOnUse"
       gradientTransform="matrix(3.2214765,0,0,1,-1775.0336,0)" />
    <linearGradient
       x1="609.99133"
       y1="8.8892984"
       x2="609.99133"
       y2="86.089096"
       id="linearGradient3891-5"
       xlink:href="#linearGradient3763-6"
       gradientUnits="userSpaceOnUse"
       gradientTransform="translate(-60,0)" />
    <linearGradient
       x1="609.99133"
       y1="8.8892984"
       x2="609.99133"
       y2="86.089096"
       id="linearGradient3893-1"
       xlink:href="#linearGradient3775-3"
       gradientUnits="userSpaceOnUse"
       gradientTransform="matrix(3.2214765,0,0,1,-1775.0336,0)" />
    <linearGradient
       x1="609.99133"
       y1="8.8892984"
       x2="609.99133"
       y2="86.089096"
       id="linearGradient3951-1"
       xlink:href="#linearGradient3763-6"
       gradientUnits="userSpaceOnUse"
       gradientTransform="translate(-60,0)" />
    <linearGradient
       x1="609.99133"
       y1="8.8892984"
       x2="609.99133"
       y2="86.089096"
       id="linearGradient3953-7"
       xlink:href="#linearGradient3775-3"
       gradientUnits="userSpaceOnUse"
       gradientTransform="matrix(3.2214765,0,0,1,-1775.0336,0)" />
    <linearGradient
       x1="609.99133"
       y1="8.8892984"
       x2="609.99133"
       y2="86.089096"
       id="linearGradient3956-1"
       xlink:href="#linearGradient3775-3"
       gradientUnits="userSpaceOnUse"
       gradientTransform="matrix(4.0268456,0,0,1.25,-2289.5574,164.61729)" />
    <linearGradient
       x1="609.99133"
       y1="8.8892984"
       x2="609.99133"
       y2="86.089096"
       id="linearGradient3959-5"
       xlink:href="#linearGradient3763-6"
       gradientUnits="userSpaceOnUse"
       gradientTransform="matrix(1.25,0,0,1.25,-25.76543,164.61729)" />
    <linearGradient
       x1="609.99133"
       y1="8.8892984"
       x2="609.99133"
       y2="86.089096"
       id="linearGradient3773-5-5"
       xlink:href="#linearGradient3775-9-0"
       gradientUnits="userSpaceOnUse"
       gradientTransform="matrix(3.2214765,0,0,1,-1775.0336,0)" />
    <linearGradient
       x1="609.99133"
       y1="8.8892984"
       x2="609.99133"
       y2="86.089096"
       id="linearGradient3769-5-4"
       xlink:href="#linearGradient3763-8-8"
       gradientUnits="userSpaceOnUse"
       gradientTransform="translate(-60,0)" />
    <linearGradient
       id="linearGradient3763-8-8">
      <stop
         id="stop3765-2-8"
         style="stop-color:#c40000;stop-opacity:1"
         offset="0" />
      <stop
         id="stop3767-4-2"
         style="stop-color:#ffffff;stop-opacity:1"
         offset="1" />
    </linearGradient>
    <linearGradient
       id="linearGradient3775-9-0">
      <stop
         id="stop3777-4-9"
         style="stop-color:#003db9;stop-opacity:1"
         offset="0" />
      <stop
         id="stop3779-8-4"
         style="stop-color:#ffffff;stop-opacity:1"
         offset="1" />
    </linearGradient>
    <linearGradient
       x1="599.7522"
       y1="181.46066"
       x2="599.7522"
       y2="1.018748"
       id="linearGradient3802-4"
       xlink:href="#linearGradient3796-1"
       gradientUnits="userSpaceOnUse" />
    <linearGradient
       x1="-43.5182"
       y1="0"
       x2="43.5182"
       y2="0"
       id="linearGradient22"
       gradientUnits="userSpaceOnUse"
       gradientTransform="matrix(0,-10,10,0,1435.37,437.459)">
      <stop
         id="stop24"
         style="stop-color:#0066e0;stop-opacity:1"
         offset="0" />
      <stop
         id="stop26"
         style="stop-color:#0061d1;stop-opacity:1"
         offset="0.1875" />
      <stop
         id="stop28"
         style="stop-color:#004fc4;stop-opacity:1"
         offset="0.546875" />
      <stop
         id="stop30"
         style="stop-color:#0040b5;stop-opacity:1"
         offset="1" />
    </linearGradient>
    <clipPath
       id="clipPath18">
      <path
         d="m 4.5625,2.28125 2861.6,0 0,870.359 -2861.6,0 0,-870.359 z"
         id="path20" />
    </clipPath>
    <linearGradient
       x1="599.7522"
       y1="181.46066"
       x2="599.7522"
       y2="1.018748"
       id="linearGradient3181"
       xlink:href="#linearGradient3796-1"
       gradientUnits="userSpaceOnUse"
       gradientTransform="translate(-101.48148,3.59568)" />
    <linearGradient
       x1="599.7522"
       y1="181.46066"
       x2="599.7522"
       y2="1.018748"
       id="linearGradient3195"
       xlink:href="#linearGradient3796-1"
       gradientUnits="userSpaceOnUse"
       gradientTransform="translate(-101.48148,3.59568)" />
  </defs>
  <g
     transform="matrix(0.87143723,0,0,0.87143723,115.96542,-181.06477)"
     id="g3828"
     style="fill:#ffffff" />
  <g
     transform="translate(101.48148,-3.5956726)"
     id="g3183">
    <rect
       width="600"
       height="182.5"
       x="-101.48148"
       y="3.5956726"
       id="rect2989"
       style="fill:url(#linearGradient3195);fill-opacity:1;stroke:none" />
    <rect
       width="186.25"
       height="182.5"
       x="512.26855"
       y="3.5956726"
       id="rect2991"
       style="fill:#c40000;fill-opacity:1;stroke:none" />
    <g
       transform="matrix(1.6753557,0,0,1.6753557,-102.34983,1.76273)"
       id="g3187"
       style="fill:#ffffff">
      <path
         d="m 35.185,84.370125 0,-57.651875 20.5885,0 c 5.63425,0 10.19775,1.796875 13.700625,5.412125 3.502875,3.606875 5.256375,7.9385 5.256375,13.00775 0,5.057625 -1.74075,9.351625 -5.2095,12.8765 -3.464875,3.521 -8.05325,5.295 -13.7475,5.295 l -8.03125,0 0,21.0605 z M 55.34375,52.8975 c 1.98875,0 3.599625,-0.7125 4.825625,-2.130375 1.225625,-1.42875 1.8355,-3.295875 1.8355,-5.629 0,-2.333875 -0.609875,-4.212875 -1.8355,-5.629875 -1.226,-1.42575 -2.836875,-2.128375 -4.825625,-2.128375 l -7.6015,0 0,15.517625 z"
         id="path34"
         style="fill:#ffffff;fill-opacity:1;fill-rule:nonzero;stroke:none" />
      <path
         d="m 80.639125,61.691375 0,-12.209 c 0,-7.61525 2.144625,-13.494625 6.445375,-17.6465 4.30075,-4.15275 9.75975,-6.23675 16.36125,-6.23675 6.65925,0 12.13925,2.084 16.441,6.23675 4.30025,4.151875 6.4445,10.03125 6.4445,17.6465 l 0,12.209 c 0,7.672375 -2.14425,13.55225 -6.4445,17.646 -4.30175,4.090875 -9.78175,6.13825 -16.441,6.13825 -6.6015,0 -12.0605,-2.059125 -16.36125,-6.174375 -4.30075,-4.131375 -6.445375,-9.995125 -6.445375,-17.609875 z M 103.44575,74.8145 c 6.88438,0 10.32813,-4.6885 10.32813,-14.0645 l 0,-10.411625 c 0,-9.377 -3.44375,-14.077625 -10.32813,-14.077625 -6.84175,0 -10.2485,4.700625 -10.2485,14.077625 l 0,10.411625 c 0,9.376 3.40675,14.0645 10.2485,14.0645"
         id="path36"
         style="fill:#ffffff;fill-opacity:1;fill-rule:nonzero;stroke:none" />
      <path
         d="m 172.38375,72.517625 2.3825,10.316875 c -5.4575,1.76075 -11.00875,2.641125 -16.64625,2.641125 -7.06375,0 -12.75875,-2.03425 -17.0825,-6.091375 -4.3275,-4.06975 -6.495,-9.9375 -6.495,-17.61125 l 0,-12.458 c 0,-7.673875 2.1675,-13.540625 6.495,-17.609875 4.32375,-4.070875 10.01875,-6.106 17.0825,-6.106 5.6375,0 11.18875,0.893 16.64625,2.65375 l -2.3825,10.2325 c -4.79,-1.474125 -9.5075,-2.224625 -14.1775,-2.224625 -7.4,0 -11.10625,4.700625 -11.10625,14.077625 l 0,10.317375 c 0,5.00825 0.955,8.61525 2.86125,10.837875 1.90625,2.213875 4.6575,3.320875 8.245,3.320875 5.00125,0 9.73375,-0.76175 14.1775,-2.296875"
         id="path38"
         style="fill:#ffffff;fill-opacity:1;fill-rule:nonzero;stroke:none" />
      <path
         d="m 220.11625,72.517625 2.395,10.316875 c -5.46875,1.76075 -11.02375,2.641125 -16.6575,2.641125 -7.05625,0 -12.75,-2.03425 -17.075,-6.091375 -4.3375,-4.06975 -6.495,-9.9375 -6.495,-17.61125 l 0,-12.458 c 0,-7.673875 2.1575,-13.540625 6.495,-17.609875 4.325,-4.070875 10.01875,-6.106 17.075,-6.106 5.63375,0 11.18875,0.893 16.6575,2.65375 l -2.395,10.2325 c -4.77875,-1.474125 -9.51,-2.224625 -14.18,-2.224625 -7.4,0 -11.09375,4.700625 -11.09375,14.077625 l 0,10.317375 c 0,5.00825 0.955,8.61525 2.86125,10.837875 1.90625,2.213875 4.645,3.320875 8.2325,3.320875 5.0175,0 9.73625,-0.76175 14.18,-2.296875"
         id="path40"
         style="fill:#ffffff;fill-opacity:1;fill-rule:nonzero;stroke:none" />
      <path
         d="m 275.19875,26.71825 0,57.651875 -12.55875,0 0,-24.562 c 0,-3.067375 0.11875,-6.09225 0.34375,-9.041 l -21.26625,33.603 -10.24875,0 0,-57.651875 12.55875,0 0,24.98825 c 0,2.61825 -0.0825,5.546375 -0.26125,8.78175 l 21.2675,-33.77 10.165,0"
         id="path42"
         style="fill:#ffffff;fill-opacity:1;fill-rule:nonzero;stroke:none" />
      <path
         d="m 323.5375,26.71825 0,57.651875 -12.55875,0 0,-21.0605 -4.79125,0 -9.22125,21.0605 -14,0 L 293.725,61.51175 c -3.19125,-1.4165 -5.67,-3.607 -7.435,-6.567875 -1.76125,-2.952125 -2.64375,-6.223125 -2.64375,-9.80575 0,-5.056625 1.75125,-9.400875 5.25375,-13.00775 3.50375,-3.61525 8.06625,-5.412125 13.70375,-5.412125 z m -12.55875,26.17925 0,-15.517625 -7.76875,0 c -2,0 -3.6475,0.724125 -4.955,2.1655 -1.3125,1.452125 -1.96875,3.319875 -1.96875,5.59275 0,2.333125 0.645,4.20025 1.91875,5.629 1.2875,1.417875 2.94375,2.130375 5.005,2.130375 z"
         id="path44"
         style="fill:#ffffff;fill-opacity:1;fill-rule:nonzero;stroke:none" />
    </g>
    <path
       d="m 549.06576,36.32375 c 6.89554,-3.79844 15.02032,-3.73108 22.63151,-3.04216 10.05705,0.86594 19.53315,5.02873 29.64492,5.43497 5.81364,0.78343 11.6399,0.31068 17.34409,-0.85184 3.85401,1.86554 -1.89228,4.65049 -2.86472,6.89428 -8.08479,14.20868 -10.68009,30.68745 -14.20784,46.44995 7.29967,-1.28418 14.97822,-3.42041 20.14145,-9.11175 10.69272,-12.03141 19.0343,-25.96878 29.8091,-37.91957 6.32722,-7.07024 16.08748,-10.08441 25.37415,-8.80023 0.08,0.74344 0.24416,2.21685 0.32415,2.96092 -4.82646,-0.27132 -10.05705,-0.28458 -14.22047,2.52752 -6.13779,3.85274 -9.5182,10.5037 -13.14067,16.51982 -5.51475,9.62492 -11.30102,19.15596 -18.31654,27.75307 -7.63855,8.30095 -19.81941,10.99034 -30.57948,8.46303 -2.87945,13.89779 -7.5712,27.55057 -14.4099,40.00148 -5.55685,9.82783 -14.43938,18.45209 -25.78039,20.81838 -7.38176,1.32459 -15.89805,2.05477 -22.34735,-2.55552 -6.41984,-4.28445 -9.4761,-12.35534 -8.53102,-19.88508 0.77249,-10.65356 8.76255,-19.75058 18.63016,-23.26549 4.02871,-1.35174 9.44874,-3.4343 12.65234,0.52706 -10.39592,1.04085 -20.93919,6.42152 -25.45413,16.23545 -3.6772,7.55773 -2.32587,17.81726 4.50231,23.11731 5.81153,4.86666 15.01821,4.51473 20.76239,-0.25742 4.89381,-3.82559 7.97533,-9.34097 10.74744,-14.76184 5.55684,-11.46415 9.07197,-23.75214 12.70917,-35.91847 3.8519,-14.07376 6.97342,-28.57838 13.76161,-41.6237 3.10888,-6.05633 7.9606,-11.27492 14.14048,-14.26299 -11.38311,3.23139 -23.41662,3.50186 -35.05442,1.66347 -8.47629,-1.36584 -17.75033,-2.24462 -25.61831,1.9329 -8.11005,3.44756 -11.90933,15.1946 -6.07043,22.21138 6.00307,6.44846 18.5628,4.58208 20.80659,-4.54272 3.52775,3.09647 -0.13471,7.40891 -3.05627,9.34202 -8.85306,5.31226 -22.38523,1.14863 -25.76565,-8.90968 -3.6372,-10.31384 1.75756,-22.35914 11.43573,-27.14455 z m 51.16927,61.75232 c 1.67547,-0.82469 3.20361,-2.501 5.28532,-1.79735 7.17759,0.39151 14.53199,1.58118 20.84448,5.21775 3.70456,2.14928 6.74609,5.79996 7.42175,10.11157 0.91983,9.47694 -1.83755,19.15595 0.73039,28.48324 1.66284,6.55707 8.78781,11.4913 15.5339,9.54493 10.30121,-1.96005 16.66843,-12.35703 17.16728,-22.29263 0.79774,-0.39129 2.39323,-1.18967 3.19098,-1.58096 0.67566,11.99015 -6.17778,24.86035 -18.06185,28.57838 -8.75834,2.59488 -19.95202,2.71654 -26.54866,-4.61007 -5.05589,-5.287 -5.97571,-12.86936 -6.94816,-19.79078 -0.9072,-6.2866 -0.89247,-12.66771 -2.00173,-18.91327 -1.86491,-7.46153 -9.21931,-12.30209 -16.6137,-12.95081"
       id="path48"
       style="fill:#fdfdfd;fill-opacity:1;fill-rule:nonzero;stroke:none" />
  </g>
</svg>
