<?xml version="1.0" encoding="utf-8"?>
<!-- Generator: Adobe Illustrator 16.0.3, SVG Export Plug-In . SVG Version: 6.00 Build 0)  -->
<!DOCTYPE svg PUBLIC "-//W3C//DTD SVG 1.1//EN" "http://www.w3.org/Graphics/SVG/1.1/DTD/svg11.dtd">
<svg version="1.1" id="_x3C_Layer_x3E_" xmlns="http://www.w3.org/2000/svg" xmlns:xlink="http://www.w3.org/1999/xlink" x="0px"
	 y="0px" width="800px" height="800px" viewBox="0 0 800 800" enable-background="new 0 0 800 800" xml:space="preserve">
<linearGradient id="SVGID_1_" gradientUnits="userSpaceOnUse" x1="205.5903" y1="764.4268" x2="205.7302" y2="67.4736">
	<stop  offset="0" style="stop-color:#E77A0A"/>
	<stop  offset="1" style="stop-color:#FB9911"/>
</linearGradient>
<path fill="url(#SVGID_1_)" d="M221.892,353.186h-29.4c-8.771,0-14.103,4.229-16.299,12.934l-8.051,29.875h43.564
	c16.669,0,24.464-2.561,29.592-18.417c0.98-2.769,1.75-7.575,1.866-9.77c0.221-4.211-0.769-7.41-3.021-9.789
	C236.923,354.635,231.471,353.186,221.892,353.186z"/>
<g>
	<path fill="none" d="M259.762,313.158h-96.384c-16.929,0-28.767,9.403-33.322,26.468L90.686,487.664h53.157l13.706-51.646h73.554
		c44.613,0,55.724-16.828,65.087-57.08c1.798-7.688,3.134-16.654,3.488-23.385c0.743-14.245-2.229-25.007-8.836-31.975
		C284.282,316.668,273.825,313.158,259.762,313.158z"/>
	<path fill="none" d="M396.939,352.165h86.746l10.3-39.006H367.522c-16.929,0-28.77,9.403-33.324,26.468l-32.509,122.737
		c-0.592,2.129-0.945,4.291-1.053,6.428c-0.289,5.523,1.207,10.182,4.327,13.469c3.355,3.539,8.567,5.404,15.089,5.404h128.663
		l10.309-39.002h-86.587c-4.145,0-7.082-0.955-8.948-2.928c-1.544-1.629-2.25-3.84-2.11-6.582c0.072-1.27,0.347-2.488,0.628-3.771
		l0.169-0.77l4.909-18.527h97.66l9.314-34.915h-97.655l4.241-16.073C382.808,356.514,388.294,352.165,396.939,352.165z"/>
	<polygon fill="none" points="656.152,313.158 639.279,376.563 569.723,376.563 586.603,313.158 533.441,313.158 487.153,487.664 
		540.318,487.664 559.12,416.59 628.664,416.59 609.864,487.664 663.025,487.664 709.313,313.158 	"/>
	<linearGradient id="SVGID_2_" gradientUnits="userSpaceOnUse" x1="399.8462" y1="748.583" x2="400.1561" y2="49.421">
		<stop  offset="0" style="stop-color:#E77A0A"/>
		<stop  offset="1" style="stop-color:#FB9911"/>
	</linearGradient>
	<path fill="url(#SVGID_2_)" d="M399.998,50.83C206.934,50.83,50.42,207.345,50.42,400.411
		c0,193.07,156.513,349.582,349.577,349.582c193.079,0,349.583-156.512,349.583-349.582C749.58,207.345,593.076,50.83,399.998,50.83
		z M299.678,355.553c-0.354,6.731-1.69,15.696-3.488,23.385c-9.363,40.252-20.474,57.08-65.087,57.08h-73.554l-13.706,51.646H90.686
		l39.371-148.038c4.555-17.065,16.393-26.468,33.322-26.468h96.384c14.063,0,24.52,3.51,31.079,10.42
		C297.448,330.545,300.421,341.308,299.678,355.553z M474.058,381.169l-9.314,34.915h-97.66l-4.909,18.527l-0.169,0.77
		c-0.282,1.283-0.557,2.502-0.628,3.771c-0.14,2.742,0.566,4.953,2.11,6.582c1.866,1.973,4.803,2.928,8.948,2.928h86.587
		l-10.309,39.002H320.051c-6.522,0-11.734-1.865-15.089-5.404c-3.121-3.287-4.616-7.945-4.327-13.469
		c0.108-2.137,0.461-4.299,1.053-6.428l32.509-122.737c4.555-17.065,16.396-26.468,33.324-26.468h126.463l-10.3,39.006h-86.746
		c-8.645,0-14.132,4.349-16.295,12.931l-4.241,16.073H474.058z M609.864,487.664l18.8-71.074H559.12l-18.802,71.074h-53.165
		l46.288-174.506h53.161l-16.88,63.404h69.557l16.873-63.404h53.161l-46.288,174.506H609.864z"/>
</g>
</svg>
