<?xml version="1.0" encoding="UTF-8" standalone="no"?>
<!-- Created with Inkscape (http://www.inkscape.org/) -->

<svg
   xmlns:dc="http://purl.org/dc/elements/1.1/"
   xmlns:cc="http://creativecommons.org/ns#"
   xmlns:rdf="http://www.w3.org/1999/02/22-rdf-syntax-ns#"
   xmlns:svg="http://www.w3.org/2000/svg"
   xmlns="http://www.w3.org/2000/svg"
   xmlns:sodipodi="http://sodipodi.sourceforge.net/DTD/sodipodi-0.dtd"
   xmlns:inkscape="http://www.inkscape.org/namespaces/inkscape"
   version="1.1"
   id="svg2"
   width="320"
   height="240"
   viewBox="0 0 320 240"
   sodipodi:docname="РЖД ТВ.svg"
   inkscape:version="0.92.3 (2405546, 2018-03-11)">
  <metadata
     id="metadata8">
    <rdf:RDF>
      <cc:Work
         rdf:about="">
        <dc:format>image/svg+xml</dc:format>
        <dc:type
           rdf:resource="http://purl.org/dc/dcmitype/StillImage" />
        <dc:title></dc:title>
      </cc:Work>
    </rdf:RDF>
  </metadata>
  <defs
     id="defs6" />
  <sodipodi:namedview
     pagecolor="#ffffff"
     bordercolor="#666666"
     borderopacity="1"
     objecttolerance="10"
     gridtolerance="10"
     guidetolerance="10"
     inkscape:pageopacity="0"
     inkscape:pageshadow="2"
     inkscape:window-width="1920"
     inkscape:window-height="1015"
     id="namedview4"
     showgrid="false"
     inkscape:zoom="0.98333333"
     inkscape:cx="160"
     inkscape:cy="120"
     inkscape:window-x="0"
     inkscape:window-y="0"
     inkscape:window-maximized="1"
     inkscape:current-layer="svg2" />
  <g
     id="g12"
     transform="translate(-1.0169492,2.0338987)">
    <path
       style="fill:#d4252b;stroke-width:1.33333337"
       d="M 13.333333,123.33333 V 77.333333 H 160 306.66667 v 45.999997 46 H 160 13.333333 Z M 140,150 v -4.66667 h 12.66667 12.66666 v 4.75523 c 0,4.40092 0.27322,4.7238 3.66667,4.33333 3.47796,-0.40017 3.68741,-0.82196 4.06972,-8.19516 0.35756,-6.89589 0.0943,-7.85402 -2.33333,-8.48884 C 168.1626,137.06484 168,136.0412 168,120.51116 V 104 h -13.14281 -13.1428 l -0.70959,10.35265 c -0.89609,13.07361 -3.45171,21.83954 -6.60771,22.66484 C 132.40567,137.53827 132,139.08473 132,146.15551 v 8.51116 h 4 c 3.68253,0 4,-0.37038 4,-4.66667 z m 6.116,-15.66667 c 2.00561,-6.25211 3.15481,-12.50522 3.18552,-17.33333 0.0307,-4.81934 0.20043,-5 4.69848,-5 h 4.66667 v 12.66667 12.66666 h -6.75652 c -6.40302,0 -6.70616,-0.15696 -5.79415,-3 z M 49.333333,140 c 0,-4.92749 0.279018,-5.33389 3.666667,-5.34077 6.276664,-0.0133 13.4985,-2.63502 15.627356,-5.67439 4.209525,-6.00994 1.544771,-22.02103 -4.020425,-24.1566 C 63.419831,104.37271 57.397639,104 51.224284,104 H 40 v 20.66667 20.66666 h 4.666667 c 4.555556,0 4.666666,-0.12693 4.666666,-5.33333 z m 0,-20.59 V 112 h 6.06968 6.069679 l -0.403012,7 -0.403013,7 L 55,126.41 l -5.666667,0.40999 z m 39.20817,20.53999 c 1.959392,-2.96084 4.138001,-6.89695 4.84135,-8.74691 2.043592,-5.37505 3.95048,-2.378 3.95048,6.20895 0,7.91256 0.0044,7.9213 3.999997,7.9213 3.99559,0 4,-0.009 4,-7.9213 0,-8.809 1.92588,-11.56086 4.07702,-5.8256 0.77294,2.0608 2.95342,5.9969 4.8455,8.7469 2.97338,4.32158 4.1392,5 8.59215,5 2.8336,0 5.152,-0.47994 5.152,-1.06656 0,-0.5866 -2.58415,-4.6366 -5.74257,-9 -3.15841,-4.36339 -6.17331,-8.65026 -6.69979,-9.52638 -0.55414,-0.92217 1.864,-5.45962 5.74257,-10.77546 C 124.98509,109.91454 128,105.38136 128,104.8912 128,104.40104 125.58679,104 122.6373,104 c -4.93631,0 -5.6784,0.49782 -9.33333,6.26104 -2.18385,3.44357 -3.97064,7.04357 -3.97064,8 0,0.95643 -0.9,1.73896 -2,1.73896 -1.55555,0 -2,-1.77778 -2,-8 v -8 h -4 -3.999997 v 8 c 0,6.22222 -0.444444,8 -2,8 -1.1,0 -2,-0.79713 -2,-1.77141 0,-0.97427 -1.856541,-4.57427 -4.125648,-8 C 85.466236,104.58003 84.597073,104 79.874352,104 c -2.864227,0 -5.207685,0.46649 -5.207685,1.03665 0,0.57016 2.972746,5.16581 6.606102,10.21256 l 6.606104,9.17591 -2.84954,4.12077 c -1.567245,2.26643 -4.539992,6.30712 -6.606102,8.97931 -4.99581,6.46132 -4.754398,7.80813 1.399588,7.80813 4.546366,0 5.577469,-0.63665 8.718684,-5.38334 z M 236,128.66667 V 112 h 5.33333 c 5.03704,0 5.33334,-0.22222 5.33334,-4 v -4 H 231.33333 216 v 4 c 0,3.77778 0.29629,4 5.33333,4 h 5.33334 v 16.66667 16.66666 H 231.33333 236 Z m 46.78596,12.85229 c 3.37976,-4.17627 3.25224,-10.5968 -0.28527,-14.36229 -2.61436,-2.78287 -2.66573,-3.18211 -0.66666,-5.18118 2.21262,-2.21262 2.94054,-10.75431 1.14556,-13.44255 C 280.84041,105.32924 275.69153,104 265.42099,104 h -10.75432 v 20.79537 20.79538 l 12.78596,-0.46204 c 11.5374,-0.41692 13.03469,-0.76942 15.33333,-3.60975 z M 264,132.66667 v -4.82 l 5.66667,0.41 c 5.31629,0.38465 5.66666,0.65732 5.66666,4.41 0,3.75268 -0.35037,4.02534 -5.66666,4.41 l -5.66667,0.41 z m 0.66611,-12.44501 C 264.29975,119.8553 264,117.85556 264,115.77778 264,112.25926 264.36601,112 269.33333,112 c 5.03704,0 5.33334,0.22222 5.33334,4 0,2.25185 -0.7284,4.04856 -1.66667,4.11111 -0.91667,0.0611 -3.01692,0.26086 -4.66723,0.44388 -1.6503,0.18303 -3.3003,0.033 -3.66666,-0.33333 z"
       id="path16"
       inkscape:connector-curvature="0" />
    <path
       style="fill:#075181;stroke-width:1.33333337"
       d="M 196,123.33333 V 77.333333 h 55.33333 55.33334 v 45.999997 46 H 251.33333 196 Z m 40,5.33334 V 112 h 5.33333 c 5.03704,0 5.33334,-0.22222 5.33334,-4 v -4 H 231.33333 216 v 4 c 0,3.77778 0.29629,4 5.33333,4 h 5.33334 v 16.66667 16.66666 H 231.33333 236 Z m 46.78596,12.85229 c 3.37976,-4.17627 3.25224,-10.5968 -0.28527,-14.36229 -2.61436,-2.78287 -2.66573,-3.18211 -0.66666,-5.18118 2.21262,-2.21262 2.94054,-10.75431 1.14556,-13.44255 C 280.84041,105.32924 275.69153,104 265.42099,104 h -10.75432 v 20.79537 20.79538 l 12.78596,-0.46204 c 11.5374,-0.41692 13.03469,-0.76942 15.33333,-3.60975 z M 264,132.66667 v -4.82 l 5.66667,0.41 c 5.31629,0.38465 5.66666,0.65732 5.66666,4.41 0,3.75268 -0.35037,4.02534 -5.66666,4.41 l -5.66667,0.41 z m 0.66611,-12.44501 C 264.29975,119.8553 264,117.85556 264,115.77778 264,112.25926 264.36601,112 269.33333,112 c 5.03704,0 5.33334,0.22222 5.33334,4 0,2.25185 -0.7284,4.04856 -1.66667,4.11111 -0.91667,0.0611 -3.01692,0.26086 -4.66723,0.44388 -1.6503,0.18303 -3.3003,0.033 -3.66666,-0.33333 z"
       id="path14"
       inkscape:connector-curvature="0" />
  </g>
</svg>
