<?xml version="1.0" encoding="UTF-8" standalone="no"?>
<!-- Generator: Adobe Illustrator 15.1.0, SVG Export Plug-In . SVG Version: 6.00 Build 0)  -->

<svg
   xmlns:dc="http://purl.org/dc/elements/1.1/"
   xmlns:cc="http://creativecommons.org/ns#"
   xmlns:rdf="http://www.w3.org/1999/02/22-rdf-syntax-ns#"
   xmlns:svg="http://www.w3.org/2000/svg"
   xmlns="http://www.w3.org/2000/svg"
   xmlns:xlink="http://www.w3.org/1999/xlink"
   xmlns:sodipodi="http://sodipodi.sourceforge.net/DTD/sodipodi-0.dtd"
   xmlns:inkscape="http://www.inkscape.org/namespaces/inkscape"
   version="1.1"
   id="Layer_1"
   x="0px"
   y="0px"
   width="203.61"
   height="52.703007"
   viewBox="0 0 203.60999 52.703006"
   enable-background="new 0 0 595.28 841.89"
   xml:space="preserve"
   inkscape:version="0.48.2 r9819"
   sodipodi:docname="Rossiya-2_Logo.svg"><metadata
   id="metadata3203"><rdf:RDF><cc:Work
       rdf:about=""><dc:format>image/svg+xml</dc:format><dc:type
         rdf:resource="http://purl.org/dc/dcmitype/StillImage" /></cc:Work></rdf:RDF></metadata><defs
   id="defs3201"><clipPath
     id="SVGID_8_"><use
       xlink:href="#SVGID_7_"
       overflow="visible"
       id="use3179"
       style="overflow:visible"
       x="0"
       y="0"
       width="595.28003"
       height="841.89001" /></clipPath><clipPath
     id="clipPath4218"><use
       xlink:href="#SVGID_7_"
       overflow="visible"
       id="use4220"
       style="overflow:visible"
       x="0"
       y="0"
       width="595.28003"
       height="841.89001" /></clipPath><clipPath
     id="clipPath4222"><use
       xlink:href="#SVGID_7_"
       overflow="visible"
       id="use4224"
       style="overflow:visible"
       x="0"
       y="0"
       width="595.28003"
       height="841.89001" /></clipPath><clipPath
     id="clipPath4226"><use
       xlink:href="#SVGID_7_"
       overflow="visible"
       id="use4228"
       style="overflow:visible"
       x="0"
       y="0"
       width="595.28003"
       height="841.89001" /></clipPath><clipPath
     id="clipPath4230"><use
       xlink:href="#SVGID_7_"
       overflow="visible"
       id="use4232"
       style="overflow:visible"
       x="0"
       y="0"
       width="595.28003"
       height="841.89001" /></clipPath><clipPath
     id="clipPath4234"><use
       xlink:href="#SVGID_7_"
       overflow="visible"
       id="use4236"
       style="overflow:visible"
       x="0"
       y="0"
       width="595.28003"
       height="841.89001" /></clipPath><clipPath
     id="clipPath4238"><use
       xlink:href="#SVGID_7_"
       overflow="visible"
       id="use4240"
       style="overflow:visible"
       x="0"
       y="0"
       width="595.28003"
       height="841.89001" /></clipPath><clipPath
     id="clipPath4242"><use
       xlink:href="#SVGID_7_"
       overflow="visible"
       id="use4244"
       style="overflow:visible"
       x="0"
       y="0"
       width="595.28003"
       height="841.89001" /></clipPath><clipPath
     id="clipPath4246"><use
       xlink:href="#SVGID_7_"
       overflow="visible"
       id="use4248"
       style="overflow:visible"
       x="0"
       y="0"
       width="595.28003"
       height="841.89001" /></clipPath><linearGradient
     id="SVGID_6_"
     gradientUnits="userSpaceOnUse"
     x1="0.0015"
     y1="841.89258"
     x2="1.0015"
     y2="841.89258"
     gradientTransform="matrix(0,94.0477,94.0477,0,-78904.883,262.5027)"><stop
       offset="0"
       style="stop-color:#5481C1"
       id="stop3163" /><stop
       offset="0.1863"
       style="stop-color:#4C75B8"
       id="stop3165" /><stop
       offset="0.5473"
       style="stop-color:#375CA5"
       id="stop3167" /><stop
       offset="1"
       style="stop-color:#1E398D"
       id="stop3169" /></linearGradient><clipPath
     id="SVGID_5_"><use
       xlink:href="#SVGID_4_"
       overflow="visible"
       id="use3160"
       style="overflow:visible"
       x="0"
       y="0"
       width="595.28003"
       height="841.89001" /></clipPath><linearGradient
     id="SVGID_3_"
     gradientUnits="userSpaceOnUse"
     x1="-0.0038999999"
     y1="841.88483"
     x2="0.99610001"
     y2="841.88483"
     gradientTransform="matrix(0,42.7098,42.7098,0,-35584.004,287.9092)"><stop
       offset="0"
       style="stop-color:#E41E26"
       id="stop3148" /><stop
       offset="1"
       style="stop-color:#BC2025"
       id="stop3150" /></linearGradient><clipPath
     id="SVGID_2_"><use
       xlink:href="#SVGID_1_"
       overflow="visible"
       id="use3145"
       style="overflow:visible"
       x="0"
       y="0"
       width="595.28003"
       height="841.89001" /></clipPath><linearGradient
     inkscape:collect="always"
     xlink:href="#SVGID_3_"
     id="linearGradient4438"
     gradientUnits="userSpaceOnUse"
     gradientTransform="matrix(0,42.7098,42.7098,0,-35584.004,287.9092)"
     x1="-0.0038999999"
     y1="841.88483"
     x2="0.99610001"
     y2="841.88483" /><linearGradient
     inkscape:collect="always"
     xlink:href="#SVGID_6_"
     id="linearGradient4440"
     gradientUnits="userSpaceOnUse"
     gradientTransform="matrix(0,94.0477,94.0477,0,-78904.883,262.5027)"
     x1="0.0015"
     y1="841.89258"
     x2="1.0015"
     y2="841.89258" /></defs><sodipodi:namedview
   pagecolor="#ffffff"
   bordercolor="#666666"
   borderopacity="1"
   objecttolerance="10"
   gridtolerance="10"
   guidetolerance="10"
   inkscape:pageopacity="0"
   inkscape:pageshadow="2"
   inkscape:window-width="1360"
   inkscape:window-height="716"
   id="namedview3199"
   showgrid="false"
   fit-margin-top="4"
   fit-margin-left="4"
   fit-margin-bottom="4"
   fit-margin-right="4"
   inkscape:zoom="5.8936201"
   inkscape:cx="101.80777"
   inkscape:cy="26.35222"
   inkscape:window-x="-8"
   inkscape:window-y="-8"
   inkscape:window-maximized="1"
   inkscape:current-layer="Layer_1" />



<g
   id="g4442"><rect
     y="0.0014091585"
     x="0.0027641649"
     height="52.700188"
     width="203.60446"
     id="rect3173"
     style="fill:#ffffff;fill-opacity:1;fill-rule:nonzero;stroke:none" /><g
     transform="translate(-195.835,-282.64099)"
     id="g3139"><defs
       id="defs3141"><rect
         height="44.702"
         width="45.445"
         y="286.642"
         x="350"
         id="SVGID_1_" /></defs><clipPath
       id="clipPath4028"><use
         height="841.89001"
         width="595.28003"
         y="0"
         x="0"
         style="overflow:visible"
         id="use4030"
         overflow="visible"
         xlink:href="#SVGID_1_" /></clipPath><linearGradient
       gradientTransform="matrix(0,42.7098,42.7098,0,-35584.004,287.9092)"
       y2="841.88483"
       x2="0.99610001"
       y1="841.88483"
       x1="-0.0038999999"
       gradientUnits="userSpaceOnUse"
       id="linearGradient4032"><stop
         id="stop4034"
         style="stop-color:#E41E26"
         offset="0" /><stop
         id="stop4036"
         style="stop-color:#BC2025"
         offset="1" /></linearGradient><rect
       style="fill:url(#linearGradient4438)"
       id="rect3152"
       height="44.702"
       width="45.445"
       clip-path="url(#SVGID_2_)"
       y="286.642"
       x="350" /></g><g
     transform="translate(-195.835,-282.64099)"
     id="g3154"><defs
       id="defs3156"><rect
         height="44.645"
         width="146.589"
         y="286.64099"
         x="199.83501"
         id="SVGID_4_" /></defs><clipPath
       id="clipPath4042"><use
         height="841.89001"
         width="595.28003"
         y="0"
         x="0"
         style="overflow:visible"
         id="use4044"
         overflow="visible"
         xlink:href="#SVGID_4_" /></clipPath><linearGradient
       gradientTransform="matrix(0,94.0477,94.0477,0,-78904.883,262.5027)"
       y2="841.89258"
       x2="1.0015"
       y1="841.89258"
       x1="0.0015"
       gradientUnits="userSpaceOnUse"
       id="linearGradient4046"><stop
         id="stop4048"
         style="stop-color:#5481C1"
         offset="0" /><stop
         id="stop4050"
         style="stop-color:#4C75B8"
         offset="0.1863" /><stop
         id="stop4052"
         style="stop-color:#375CA5"
         offset="0.5473" /><stop
         id="stop4054"
         style="stop-color:#1E398D"
         offset="1" /></linearGradient><rect
       style="fill:url(#linearGradient4440)"
       id="rect3171"
       height="44.645"
       width="146.589"
       clip-path="url(#SVGID_5_)"
       y="286.64099"
       x="199.83501" /></g><g
     transform="translate(-195.835,-282.64099)"
     id="g3173"><defs
       id="defs3175"><rect
         x="0"
         height="841.89001"
         width="595.28003"
         y="0"
         id="SVGID_7_" /></defs><clipPath
       id="clipPath4060"><use
         height="841.89001"
         width="595.28003"
         y="0"
         x="0"
         style="overflow:visible"
         id="use4062"
         overflow="visible"
         xlink:href="#SVGID_7_" /></clipPath><path
       style="fill:#ffffff"
       inkscape:connector-curvature="0"
       id="path3181"
       d="m 368.492,301.093 c 0.674,-1.311 1.572,-1.912 2.414,-2.153 v -7.731 c -5.008,0.488 -7.83,3.001 -9.398,5.198 -1.301,1.778 -2.133,4.071 -2.457,6.379 h 8.863 c 0.133,-0.578 0.316,-1.172 0.578,-1.693"
       clip-path="url(#SVGID_8_)" /><path
       style="fill:#ffffff"
       inkscape:connector-curvature="0"
       id="path3183"
       d="m 381.461,293.813 c -1.596,-1.297 -4.391,-2.695 -8.779,-2.695 -0.034,0 -0.064,0.003 -0.1,0.003 v 7.755 c 0.922,0.166 1.521,0.619 1.844,1.022 0.5,0.649 0.799,1.595 0.799,2.494 0,0.113 -0.006,0.23 -0.016,0.346 l -0.004,0.034 c 0,0 0.225,2.559 -3.189,5.705 -3.416,3.147 -13.002,10.516 -13.002,10.516 v 6.84 h 6.354 l 13.543,-11.713 c 0,0 5.82,-4.824 6.332,-10.729 v -0.095 c 0.039,-0.366 0.059,-0.735 0.059,-1.103 -0.001,-2.844 -1.001,-6.087 -3.841,-8.38"
       clip-path="url(#SVGID_8_)" /><polygon
       style="fill:#ffffff"
       id="polygon3185"
       points="384.99,325.833 384.99,317.654 377.385,317.654 367.934,325.833 "
       clip-path="url(#SVGID_8_)" /><path
       style="fill:#ffffff"
       inkscape:connector-curvature="0"
       id="path3187"
       d="m 226.161,299.765 c -1.787,-1.123 -3.874,-1.179 -5.721,-1.179 h -7.685 v 20.757 h 4.841 v -7.926 h 3.482 c 1.844,0 4.447,0.028 6.475,-2.513 0.998,-1.272 1.363,-2.63 1.363,-4.026 0,-2.843 -1.544,-4.358 -2.755,-5.113 m -2.935,7.259 c -0.787,0.729 -1.847,0.758 -2.573,0.758 h -3.057 v -5.569 h 3.15 c 0.786,0 1.815,0.094 2.538,0.757 0.515,0.483 0.789,1.212 0.789,1.998 0,0.755 -0.304,1.544 -0.847,2.056"
       clip-path="url(#SVGID_8_)" /><path
       style="fill:#ffffff"
       inkscape:connector-curvature="0"
       id="path3189"
       d="m 240.924,298.279 c -1.728,0 -4.024,0.332 -6.021,2.121 -1.848,1.664 -3.332,4.571 -3.332,8.565 0,3.51 1.153,6.506 3.117,8.349 1.181,1.121 3.209,2.333 6.236,2.333 3.025,0 5.052,-1.212 6.234,-2.33 1.964,-1.846 3.116,-4.842 3.116,-8.352 0,-3.994 -1.48,-6.901 -3.329,-8.565 -1.998,-1.789 -4.296,-2.121 -6.021,-2.121 m 3.057,15.889 c -0.577,0.939 -1.574,1.845 -3.057,1.845 -1.484,0 -2.483,-0.906 -3.057,-1.845 -0.424,-0.694 -1.09,-2.176 -1.09,-5.265 0,-3.087 0.695,-4.542 1.09,-5.177 0.878,-1.387 1.936,-1.813 3.057,-1.813 1.12,0 2.176,0.426 3.057,1.813 0.393,0.635 1.088,2.09 1.088,5.177 0,3.089 -0.664,4.571 -1.088,5.265"
       clip-path="url(#SVGID_8_)" /><path
       style="fill:#ffffff"
       inkscape:connector-curvature="0"
       id="path3191"
       d="m 262.768,301.913 c 1.419,0 2.326,0.544 3.023,1.813 0.424,0.757 0.639,1.665 0.698,2.481 l 4.539,-0.36 c -0.243,-3.18 -1.998,-4.993 -2.362,-5.356 -1.875,-1.847 -4.294,-2.21 -5.898,-2.21 -1.576,0 -4.148,0.209 -6.358,2.42 -1.753,1.756 -2.996,4.69 -2.996,8.233 0,2.088 0.485,4.571 1.512,6.354 1.031,1.788 3.392,4.358 7.81,4.358 2.843,0 4.69,-1.149 5.841,-2.266 1.119,-1.093 2.208,-2.877 2.451,-5.208 l -4.447,-0.424 c -0.092,0.817 -0.396,1.967 -0.971,2.783 -0.817,1.153 -1.877,1.482 -2.874,1.482 -1.031,0 -2.482,-0.42 -3.39,-2.418 -0.544,-1.152 -0.726,-2.632 -0.726,-4.723 0,-1.967 0.183,-3.359 0.726,-4.568 0.756,-1.637 1.815,-2.391 3.422,-2.391"
       clip-path="url(#SVGID_8_)" /><path
       style="fill:#ffffff"
       inkscape:connector-curvature="0"
       id="path3193"
       d="m 283.308,301.913 c 1.421,0 2.329,0.544 3.026,1.813 0.424,0.757 0.637,1.667 0.697,2.481 l 4.537,-0.36 c -0.24,-3.18 -1.994,-4.993 -2.359,-5.356 -1.877,-1.847 -4.297,-2.21 -5.901,-2.21 -1.575,0 -4.145,0.209 -6.355,2.42 -1.754,1.756 -2.996,4.69 -2.996,8.233 0,2.088 0.485,4.571 1.514,6.354 1.027,1.788 3.388,4.36 7.809,4.36 2.843,0 4.689,-1.151 5.84,-2.268 1.117,-1.093 2.208,-2.877 2.448,-5.208 l -4.445,-0.424 c -0.092,0.817 -0.394,1.969 -0.97,2.783 -0.817,1.153 -1.877,1.482 -2.873,1.482 -1.032,0 -2.485,-0.42 -3.392,-2.418 -0.544,-1.152 -0.726,-2.632 -0.726,-4.723 0,-1.967 0.182,-3.359 0.726,-4.568 0.759,-1.637 1.816,-2.391 3.42,-2.391"
       clip-path="url(#SVGID_8_)" /><path
       style="fill:#ffffff"
       inkscape:connector-curvature="0"
       id="path3195"
       d="m 307.27,300.065 -6.266,9.986 c -0.18,0.304 -0.604,1.09 -0.818,1.879 0.031,-0.272 0.154,-1.153 0.154,-2.574 v -10.771 h -4.843 v 20.76 h 4.843 v -1.666 l 6.262,-9.957 c 0.242,-0.393 0.639,-1.27 0.82,-1.876 -0.063,0.361 -0.152,1.24 -0.152,2.697 v 10.802 h 4.842 v -20.76 h -4.842 v 1.48 z"
       clip-path="url(#SVGID_8_)" /><path
       style="fill:#ffffff"
       inkscape:connector-curvature="0"
       id="path3197"
       d="m 324.422,298.585 c -1.693,0 -3.631,0.183 -5.205,1.33 -1.148,0.843 -2.361,2.36 -2.361,4.962 0,2.119 0.758,3.422 1.514,4.147 0.789,0.758 1.996,1.269 2.936,1.513 l -5.021,8.809 h 5.266 l 4.268,-8.292 h 2.844 v 8.292 h 4.844 v -20.761 h -9.085 z m 4.238,8.834 h -3.725 c -0.662,0 -1.662,-0.059 -2.421,-0.664 -0.726,-0.607 -0.815,-1.424 -0.815,-1.938 0,-1.119 0.453,-1.724 0.94,-2.056 0.571,-0.394 1.603,-0.545 2.358,-0.545 h 3.662 v 5.203 z"
       clip-path="url(#SVGID_8_)" /></g></g></svg>