<?xml version="1.0" encoding="UTF-8" standalone="no"?>
<!-- Generator: Adobe Illustrator 15.1.0, SVG Export Plug-In . SVG Version: 6.00 Build 0)  -->

<svg
   xmlns:dc="http://purl.org/dc/elements/1.1/"
   xmlns:cc="http://creativecommons.org/ns#"
   xmlns:rdf="http://www.w3.org/1999/02/22-rdf-syntax-ns#"
   xmlns:svg="http://www.w3.org/2000/svg"
   xmlns="http://www.w3.org/2000/svg"
   xmlns:xlink="http://www.w3.org/1999/xlink"
   xmlns:sodipodi="http://sodipodi.sourceforge.net/DTD/sodipodi-0.dtd"
   xmlns:inkscape="http://www.inkscape.org/namespaces/inkscape"
   version="1.1"
   id="Layer_1"
   x="0px"
   y="0px"
   width="203.61"
   height="52.702999"
   viewBox="0 0 203.60999 52.702998"
   enable-background="new 0 0 595.28 841.89"
   xml:space="preserve"
   inkscape:version="0.48.1 "
   sodipodi:docname="rtr_planeta_cmyk.svg"><metadata
   id="metadata7161"><rdf:RDF><cc:Work
       rdf:about=""><dc:format>image/svg+xml</dc:format><dc:type
         rdf:resource="http://purl.org/dc/dcmitype/StillImage" /></cc:Work></rdf:RDF></metadata><defs
   id="defs7159" /><sodipodi:namedview
   pagecolor="#ffffff"
   bordercolor="#666666"
   borderopacity="1"
   objecttolerance="10"
   gridtolerance="10"
   guidetolerance="10"
   inkscape:pageopacity="0"
   inkscape:pageshadow="2"
   inkscape:window-width="1280"
   inkscape:window-height="972"
   id="namedview7157"
   showgrid="false"
   fit-margin-top="4"
   fit-margin-left="4"
   fit-margin-bottom="4"
   fit-margin-right="4"
   inkscape:zoom="2.4801339"
   inkscape:cx="147.05939"
   inkscape:cy="-27.236655"
   inkscape:window-x="-8"
   inkscape:window-y="-8"
   inkscape:window-maximized="1"
   inkscape:current-layer="Layer_1" />



<g
   id="g7083"
   transform="translate(-195.83502,-480.52499)">
	<defs
   id="defs7085"><rect
     id="SVGID_9_"
     x="199.83501"
     y="484.52499"
     width="45.445"
     height="44.702999" /></defs>
	<clipPath
   id="SVGID_10_">
		<use
   xlink:href="#SVGID_9_"
   overflow="visible"
   id="use7089"
   style="overflow:visible"
   x="0"
   y="0"
   width="595.28003"
   height="841.89001" />
	</clipPath>
	
		<linearGradient
   id="SVGID_11_"
   gradientUnits="userSpaceOnUse"
   x1="0.0024000001"
   y1="841.89258"
   x2="1.0024"
   y2="841.89258"
   gradientTransform="matrix(0,42.7107,42.7107,0,-35735.227,485.5162)">
		<stop
   offset="0"
   style="stop-color:#E41E26"
   id="stop7092" />
		<stop
   offset="1"
   style="stop-color:#BC2025"
   id="stop7094" />
	</linearGradient>
	<rect
   x="199.83501"
   y="484.52499"
   clip-path="url(#SVGID_10_)"
   width="45.445"
   height="44.702999"
   id="rect7096"
   style="fill:url(#SVGID_11_)" />
</g>
<g
   id="g7098"
   transform="translate(-195.83502,-480.52499)">
	<defs
   id="defs7100"><rect
     id="SVGID_12_"
     y="0"
     width="595.28003"
     height="841.89001"
     x="0" /></defs>
	<clipPath
   id="SVGID_13_">
		<use
   xlink:href="#SVGID_12_"
   overflow="visible"
   id="use7104"
   style="overflow:visible"
   x="0"
   y="0"
   width="595.28003"
   height="841.89001" />
	</clipPath>
	<path
   clip-path="url(#SVGID_13_)"
   d="m 214.046,500.646 c -1.314,-0.752 -2.881,-0.73 -4.217,-0.73 h -0.603 v 3.131 h 0.853 c 0.334,0 0.942,0.021 1.358,0.439 0.23,0.25 0.355,0.605 0.355,0.98 0,0.396 -0.187,0.752 -0.418,0.982 -0.418,0.375 -1.043,0.396 -1.295,0.396 h -0.853 v 3.215 h 1.293 c 1.523,0 3.715,-0.146 4.988,-2.15 0.605,-0.982 0.668,-2.068 0.668,-2.484 0,-2.171 -1.211,-3.255 -2.129,-3.779"
   id="path7106"
   inkscape:connector-curvature="0"
   style="fill:#ffffff" />
	<polygon
   clip-path="url(#SVGID_13_)"
   points="208.452,499.916 204.067,499.916 204.067,514.236 208.452,514.236 208.452,509.061 208.452,505.846 208.452,503.047 "
   id="polygon7108"
   style="fill:#ffffff" />
	<path
   clip-path="url(#SVGID_13_)"
   d="m 239.431,500.646 c -1.314,-0.752 -2.881,-0.73 -4.217,-0.73 h -0.603 v 3.131 h 0.853 c 0.334,0 0.94,0.021 1.358,0.439 0.228,0.25 0.355,0.605 0.355,0.98 0,0.396 -0.187,0.752 -0.418,0.982 -0.418,0.375 -1.045,0.396 -1.295,0.396 h -0.853 v 3.215 h 1.291 c 1.525,0 3.717,-0.146 4.99,-2.15 0.605,-0.982 0.668,-2.068 0.668,-2.484 0,-2.171 -1.211,-3.255 -2.129,-3.779"
   id="path7110"
   inkscape:connector-curvature="0"
   style="fill:#ffffff" />
	<polygon
   clip-path="url(#SVGID_13_)"
   points="233.837,499.916 229.452,499.916 229.452,514.236 233.837,514.236 233.837,509.061 233.837,505.846 233.837,503.047 "
   id="polygon7112"
   style="fill:#ffffff" />
	<path
   clip-path="url(#SVGID_13_)"
   d="m 220.036,514.236 h 4.383 v -10.01 h -4.383 v 10.01 z m -2.965,-10.664 h 10.313 v -3.655 h -10.313 v 3.655 z"
   id="path7114"
   inkscape:connector-curvature="0"
   style="fill:#ffffff" />
</g>
<g
   id="g7116"
   transform="translate(-195.83502,-480.52499)">
	<defs
   id="defs7118"><rect
     id="SVGID_14_"
     x="248.856"
     y="484.52499"
     width="146.589"
     height="44.646" /></defs>
	<clipPath
   id="SVGID_15_">
		<use
   xlink:href="#SVGID_14_"
   overflow="visible"
   id="use7122"
   style="overflow:visible"
   x="0"
   y="0"
   width="595.28003"
   height="841.89001" />
	</clipPath>
	
		<linearGradient
   id="SVGID_16_"
   gradientUnits="userSpaceOnUse"
   x1="0.0015"
   y1="841.8916"
   x2="1.0015"
   y2="841.8916"
   gradientTransform="matrix(0,94.0477,94.0477,0,-78855.883,460.3777)">
		<stop
   offset="0"
   style="stop-color:#5481C1"
   id="stop7125" />
		<stop
   offset="0.1863"
   style="stop-color:#4C75B8"
   id="stop7127" />
		<stop
   offset="0.5473"
   style="stop-color:#375CA5"
   id="stop7129" />
		<stop
   offset="1"
   style="stop-color:#1E398D"
   id="stop7131" />
	</linearGradient>
	<rect
   x="248.856"
   y="484.52499"
   clip-path="url(#SVGID_15_)"
   width="146.589"
   height="44.646"
   id="rect7133"
   style="fill:url(#SVGID_16_)" />
</g>
<g
   id="g7135"
   transform="translate(-195.83502,-480.52499)">
	<defs
   id="defs7137"><rect
     id="SVGID_17_"
     y="0"
     width="595.28003"
     height="841.89001"
     x="0" /></defs>
	<clipPath
   id="SVGID_18_">
		<use
   xlink:href="#SVGID_17_"
   overflow="visible"
   id="use7141"
   style="overflow:visible"
   x="0"
   y="0"
   width="595.28003"
   height="841.89001" />
	</clipPath>
	<polygon
   clip-path="url(#SVGID_18_)"
   points="271.53,500.299 265.233,500.299 265.233,516.26 260.673,516.26 260.673,496.707 276.091,496.707 276.091,516.26 271.53,516.26 "
   id="polygon7143"
   style="fill:#ffffff" />
	<path
   clip-path="url(#SVGID_18_)"
   d="m 296.186,496.707 v 19.553 h -4.561 v -15.961 h -4.587 l -0.028,1.396 c 0,0.482 -0.115,5.186 -0.742,8.463 -0.285,1.455 -0.855,3.621 -2.166,4.932 -1.082,1.084 -2.337,1.369 -3.449,1.369 -0.569,0 -1.026,-0.086 -1.425,-0.199 v -3.564 c 0.171,0.029 0.314,0.057 0.485,0.057 0.826,0 1.881,-0.455 2.508,-2.279 0.485,-1.369 0.711,-3.762 0.799,-4.73 0.113,-1.398 0.17,-2.965 0.256,-7.668 l 0.027,-1.367 h 12.883 z"
   id="path7145"
   inkscape:connector-curvature="0"
   style="fill:#ffffff" />
	<path
   clip-path="url(#SVGID_18_)"
   d="m 316.053,516.26 h -4.76 l -1.369,-4.619 h -5.986 l -1.367,4.619 h -3.819 l 6.155,-19.553 h 4.932 l 6.214,19.553 z m -9.121,-15.051 -2.139,7.125 h 4.277 l -2.138,-7.125 z"
   id="path7147"
   inkscape:connector-curvature="0"
   style="fill:#ffffff" />
	<polygon
   clip-path="url(#SVGID_18_)"
   points="323.348,507.965 323.348,516.26 318.789,516.26 318.789,496.707 323.348,496.707 323.348,504.373 329.762,504.373 329.762,496.707 334.32,496.707 334.32,516.26 329.762,516.26 329.762,507.965 "
   id="polygon7149"
   style="fill:#ffffff" />
	<polygon
   clip-path="url(#SVGID_18_)"
   points="343.441,504.518 350.795,504.518 350.795,507.822 343.441,507.822 343.441,512.668 352.762,512.668 352.762,516.26 338.881,516.26 338.881,496.707 352.646,496.707 352.646,500.297 343.441,500.297 "
   id="polygon7151"
   style="fill:#ffffff" />
	<polygon
   clip-path="url(#SVGID_18_)"
   points="363.309,516.26 358.748,516.26 358.748,500.297 354.129,500.297 354.129,496.707 367.924,496.707 367.924,500.297 363.309,500.297 "
   id="polygon7153"
   style="fill:#ffffff" />
	<path
   clip-path="url(#SVGID_18_)"
   d="m 384.828,516.26 h -4.76 l -1.369,-4.619 h -5.984 l -1.369,4.619 h -3.818 l 6.154,-19.553 h 4.934 l 6.212,19.553 z m -9.121,-15.051 -2.139,7.125 h 4.275 l -2.136,-7.125 z"
   id="path7155"
   inkscape:connector-curvature="0"
   style="fill:#ffffff" />
</g>
</svg>